0
SECTION
2
HEADER
9
$INSUNITS
70
4
0
ENDSEC
0
SECTION
2
TABLES
0
TABLE
2
LAYER
70
14
0
LAYER
2
ZJ8_DECK_MAIN
70
0
62
4
6
CONTINUOUS
0
LAYER
2
ZJ8_DECK_CROSS
70
0
62
4
6
CONTINUOUS
0
LAYER
2
ZJ8_DECK_SECONDARY
70
0
62
3
6
CONTINUOUS
0
LAYER
2
ZJ8_CANTILEVER_EDGE
70
0
62
3
6
CONTINUOUS
0
LAYER
2
ZJ8_PLATFORM_BRACE
70
0
62
1
6
CONTINUOUS
0
LAYER
2
ZJ8_COLUMN
70
0
62
8
6
CONTINUOUS
0
LAYER
2
ZJ8_TRANSVERSE_BRACE
70
0
62
1
6
CONTINUOUS
0
LAYER
2
ZJ8_LONGITUDINAL_BRACE
70
0
62
1
6
CONTINUOUS
0
LAYER
2
ZJ8_TRUSS_UPPER
70
0
62
5
6
CONTINUOUS
0
LAYER
2
ZJ8_TRUSS_LOWER
70
0
62
5
6
CONTINUOUS
0
LAYER
2
ZJ8_TRUSS_VERTICAL
70
0
62
5
6
CONTINUOUS
0
LAYER
2
ZJ8_TRUSS_DIAGONAL
70
0
62
5
6
CONTINUOUS
0
LAYER
2
ZJ8_SPLICE_JOINT
70
0
62
2
6
CONTINUOUS
0
LAYER
2
ZJ8_SPLICE_TEXT
70
0
62
2
6
CONTINUOUS
0
ENDTAB
0
ENDSEC
0
SECTION
2
ENTITIES
0
LINE
8
ZJ8_COLUMN
10
0.0
20
-2875.0
30
0.0
11
0.0
21
-2875.0
31
4250.0
0
LINE
8
ZJ8_COLUMN
10
0.0
20
-2875.0
30
4250.0
11
0.0
21
-2875.0
31
8500.0
0
LINE
8
ZJ8_COLUMN
10
0.0
20
-2875.0
30
8500.0
11
0.0
21
-2875.0
31
12750.0
0
LINE
8
ZJ8_COLUMN
10
0.0
20
-2875.0
30
12750.0
11
0.0
21
-2875.0
31
17000.0
0
LINE
8
ZJ8_COLUMN
10
0.0
20
2875.0
30
0.0
11
0.0
21
2875.0
31
4250.0
0
LINE
8
ZJ8_COLUMN
10
0.0
20
2875.0
30
4250.0
11
0.0
21
2875.0
31
8500.0
0
LINE
8
ZJ8_COLUMN
10
0.0
20
2875.0
30
8500.0
11
0.0
21
2875.0
31
12750.0
0
LINE
8
ZJ8_COLUMN
10
0.0
20
2875.0
30
12750.0
11
0.0
21
2875.0
31
17000.0
0
LINE
8
ZJ8_DECK_CROSS
10
0.0
20
-2200.0
30
17000.0
11
0.0
21
2700.0
31
17000.0
0
LINE
8
ZJ8_TRANSVERSE_BRACE
10
0.0
20
-2875.0
30
0.0
11
0.0
21
2875.0
31
17000.0
0
LINE
8
ZJ8_TRANSVERSE_BRACE
10
0.0
20
2875.0
30
0.0
11
0.0
21
-2875.0
31
17000.0
0
LINE
8
ZJ8_COLUMN
10
12000.0
20
-2875.0
30
0.0
11
12000.0
21
-2875.0
31
4354.762308
0
LINE
8
ZJ8_COLUMN
10
12000.0
20
-2875.0
30
4354.762308
11
12000.0
21
-2875.0
31
8709.524617
0
LINE
8
ZJ8_COLUMN
10
12000.0
20
-2875.0
30
8709.524617
11
12000.0
21
-2875.0
31
13064.286925
0
LINE
8
ZJ8_COLUMN
10
12000.0
20
-2875.0
30
13064.286925
11
12000.0
21
-2875.0
31
17419.049234
0
LINE
8
ZJ8_COLUMN
10
12000.0
20
2875.0
30
0.0
11
12000.0
21
2875.0
31
4354.762308
0
LINE
8
ZJ8_COLUMN
10
12000.0
20
2875.0
30
4354.762308
11
12000.0
21
2875.0
31
8709.524617
0
LINE
8
ZJ8_COLUMN
10
12000.0
20
2875.0
30
8709.524617
11
12000.0
21
2875.0
31
13064.286925
0
LINE
8
ZJ8_COLUMN
10
12000.0
20
2875.0
30
13064.286925
11
12000.0
21
2875.0
31
17419.049234
0
LINE
8
ZJ8_DECK_CROSS
10
12000.0
20
-2200.0
30
17419.049234
11
12000.0
21
2700.0
31
17419.049234
0
LINE
8
ZJ8_TRANSVERSE_BRACE
10
12000.0
20
-2875.0
30
0.0
11
12000.0
21
2875.0
31
17419.049234
0
LINE
8
ZJ8_TRANSVERSE_BRACE
10
12000.0
20
2875.0
30
0.0
11
12000.0
21
-2875.0
31
17419.049234
0
LINE
8
ZJ8_COLUMN
10
24000.0
20
-2875.0
30
0.0
11
24000.0
21
-2875.0
31
4459.524617
0
LINE
8
ZJ8_COLUMN
10
24000.0
20
-2875.0
30
4459.524617
11
24000.0
21
-2875.0
31
8919.049234
0
LINE
8
ZJ8_COLUMN
10
24000.0
20
-2875.0
30
8919.049234
11
24000.0
21
-2875.0
31
13378.573851
0
LINE
8
ZJ8_COLUMN
10
24000.0
20
-2875.0
30
13378.573851
11
24000.0
21
-2875.0
31
17838.098468
0
LINE
8
ZJ8_COLUMN
10
24000.0
20
2875.0
30
0.0
11
24000.0
21
2875.0
31
4459.524617
0
LINE
8
ZJ8_COLUMN
10
24000.0
20
2875.0
30
4459.524617
11
24000.0
21
2875.0
31
8919.049234
0
LINE
8
ZJ8_COLUMN
10
24000.0
20
2875.0
30
8919.049234
11
24000.0
21
2875.0
31
13378.573851
0
LINE
8
ZJ8_COLUMN
10
24000.0
20
2875.0
30
13378.573851
11
24000.0
21
2875.0
31
17838.098468
0
LINE
8
ZJ8_DECK_CROSS
10
24000.0
20
-2200.0
30
17838.098468
11
24000.0
21
2700.0
31
17838.098468
0
LINE
8
ZJ8_TRANSVERSE_BRACE
10
24000.0
20
-2875.0
30
0.0
11
24000.0
21
2875.0
31
17838.098468
0
LINE
8
ZJ8_TRANSVERSE_BRACE
10
24000.0
20
2875.0
30
0.0
11
24000.0
21
-2875.0
31
17838.098468
0
LINE
8
ZJ8_COLUMN
10
36000.0
20
-2875.0
30
0.0
11
36000.0
21
-2875.0
31
4564.286925
0
LINE
8
ZJ8_COLUMN
10
36000.0
20
-2875.0
30
4564.286925
11
36000.0
21
-2875.0
31
9128.573851
0
LINE
8
ZJ8_COLUMN
10
36000.0
20
-2875.0
30
9128.573851
11
36000.0
21
-2875.0
31
13692.860776
0
LINE
8
ZJ8_COLUMN
10
36000.0
20
-2875.0
30
13692.860776
11
36000.0
21
-2875.0
31
18257.147702
0
LINE
8
ZJ8_COLUMN
10
36000.0
20
2875.0
30
0.0
11
36000.0
21
2875.0
31
4564.286925
0
LINE
8
ZJ8_COLUMN
10
36000.0
20
2875.0
30
4564.286925
11
36000.0
21
2875.0
31
9128.573851
0
LINE
8
ZJ8_COLUMN
10
36000.0
20
2875.0
30
9128.573851
11
36000.0
21
2875.0
31
13692.860776
0
LINE
8
ZJ8_COLUMN
10
36000.0
20
2875.0
30
13692.860776
11
36000.0
21
2875.0
31
18257.147702
0
LINE
8
ZJ8_DECK_CROSS
10
36000.0
20
-2200.0
30
18257.147702
11
36000.0
21
2700.0
31
18257.147702
0
LINE
8
ZJ8_TRANSVERSE_BRACE
10
36000.0
20
-2875.0
30
0.0
11
36000.0
21
2875.0
31
18257.147702
0
LINE
8
ZJ8_TRANSVERSE_BRACE
10
36000.0
20
2875.0
30
0.0
11
36000.0
21
-2875.0
31
18257.147702
0
LINE
8
ZJ8_COLUMN
10
39000.0
20
-2875.0
30
0.0
11
39000.0
21
-2875.0
31
4590.477503
0
LINE
8
ZJ8_COLUMN
10
39000.0
20
-2875.0
30
4590.477503
11
39000.0
21
-2875.0
31
9180.955005
0
LINE
8
ZJ8_COLUMN
10
39000.0
20
-2875.0
30
9180.955005
11
39000.0
21
-2875.0
31
13771.432508
0
LINE
8
ZJ8_COLUMN
10
39000.0
20
-2875.0
30
13771.432508
11
39000.0
21
-2875.0
31
18361.91001
0
LINE
8
ZJ8_COLUMN
10
39000.0
20
2875.0
30
0.0
11
39000.0
21
2875.0
31
4590.477503
0
LINE
8
ZJ8_COLUMN
10
39000.0
20
2875.0
30
4590.477503
11
39000.0
21
2875.0
31
9180.955005
0
LINE
8
ZJ8_COLUMN
10
39000.0
20
2875.0
30
9180.955005
11
39000.0
21
2875.0
31
13771.432508
0
LINE
8
ZJ8_COLUMN
10
39000.0
20
2875.0
30
13771.432508
11
39000.0
21
2875.0
31
18361.91001
0
LINE
8
ZJ8_DECK_CROSS
10
39000.0
20
-2200.0
30
18361.91001
11
39000.0
21
2700.0
31
18361.91001
0
LINE
8
ZJ8_TRANSVERSE_BRACE
10
39000.0
20
-2875.0
30
0.0
11
39000.0
21
2875.0
31
18361.91001
0
LINE
8
ZJ8_TRANSVERSE_BRACE
10
39000.0
20
2875.0
30
0.0
11
39000.0
21
-2875.0
31
18361.91001
0
LINE
8
ZJ8_COLUMN
10
59520.0
20
-2875.0
30
0.0
11
59520.0
21
-2875.0
31
4769.62105
0
LINE
8
ZJ8_COLUMN
10
59520.0
20
-2875.0
30
4769.62105
11
59520.0
21
-2875.0
31
9539.2421
0
LINE
8
ZJ8_COLUMN
10
59520.0
20
-2875.0
30
9539.2421
11
59520.0
21
-2875.0
31
14308.86315
0
LINE
8
ZJ8_COLUMN
10
59520.0
20
-2875.0
30
14308.86315
11
59520.0
21
-2875.0
31
19078.4842
0
LINE
8
ZJ8_COLUMN
10
59520.0
20
2875.0
30
0.0
11
59520.0
21
2875.0
31
4769.62105
0
LINE
8
ZJ8_COLUMN
10
59520.0
20
2875.0
30
4769.62105
11
59520.0
21
2875.0
31
9539.2421
0
LINE
8
ZJ8_COLUMN
10
59520.0
20
2875.0
30
9539.2421
11
59520.0
21
2875.0
31
14308.86315
0
LINE
8
ZJ8_COLUMN
10
59520.0
20
2875.0
30
14308.86315
11
59520.0
21
2875.0
31
19078.4842
0
LINE
8
ZJ8_DECK_CROSS
10
59520.0
20
-2200.0
30
19078.4842
11
59520.0
21
2700.0
31
19078.4842
0
LINE
8
ZJ8_TRANSVERSE_BRACE
10
59520.0
20
-2875.0
30
0.0
11
59520.0
21
2875.0
31
19078.4842
0
LINE
8
ZJ8_TRANSVERSE_BRACE
10
59520.0
20
2875.0
30
0.0
11
59520.0
21
-2875.0
31
19078.4842
0
LINE
8
ZJ8_COLUMN
10
62520.0
20
-2875.0
30
0.0
11
62520.0
21
-2875.0
31
4795.811627
0
LINE
8
ZJ8_COLUMN
10
62520.0
20
-2875.0
30
4795.811627
11
62520.0
21
-2875.0
31
9591.623254
0
LINE
8
ZJ8_COLUMN
10
62520.0
20
-2875.0
30
9591.623254
11
62520.0
21
-2875.0
31
14387.434881
0
LINE
8
ZJ8_COLUMN
10
62520.0
20
-2875.0
30
14387.434881
11
62520.0
21
-2875.0
31
19183.246509
0
LINE
8
ZJ8_COLUMN
10
62520.0
20
2875.0
30
0.0
11
62520.0
21
2875.0
31
4795.811627
0
LINE
8
ZJ8_COLUMN
10
62520.0
20
2875.0
30
4795.811627
11
62520.0
21
2875.0
31
9591.623254
0
LINE
8
ZJ8_COLUMN
10
62520.0
20
2875.0
30
9591.623254
11
62520.0
21
2875.0
31
14387.434881
0
LINE
8
ZJ8_COLUMN
10
62520.0
20
2875.0
30
14387.434881
11
62520.0
21
2875.0
31
19183.246509
0
LINE
8
ZJ8_DECK_CROSS
10
62520.0
20
-2200.0
30
19183.246509
11
62520.0
21
2700.0
31
19183.246509
0
LINE
8
ZJ8_TRANSVERSE_BRACE
10
62520.0
20
-2875.0
30
0.0
11
62520.0
21
2875.0
31
19183.246509
0
LINE
8
ZJ8_TRANSVERSE_BRACE
10
62520.0
20
2875.0
30
0.0
11
62520.0
21
-2875.0
31
19183.246509
0
LINE
8
ZJ8_COLUMN
10
74520.0
20
-2875.0
30
0.0
11
74520.0
21
-2875.0
31
4900.573936
0
LINE
8
ZJ8_COLUMN
10
74520.0
20
-2875.0
30
4900.573936
11
74520.0
21
-2875.0
31
9801.147871
0
LINE
8
ZJ8_COLUMN
10
74520.0
20
-2875.0
30
9801.147871
11
74520.0
21
-2875.0
31
14701.721807
0
LINE
8
ZJ8_COLUMN
10
74520.0
20
-2875.0
30
14701.721807
11
74520.0
21
-2875.0
31
19602.295743
0
LINE
8
ZJ8_COLUMN
10
74520.0
20
2875.0
30
0.0
11
74520.0
21
2875.0
31
4900.573936
0
LINE
8
ZJ8_COLUMN
10
74520.0
20
2875.0
30
4900.573936
11
74520.0
21
2875.0
31
9801.147871
0
LINE
8
ZJ8_COLUMN
10
74520.0
20
2875.0
30
9801.147871
11
74520.0
21
2875.0
31
14701.721807
0
LINE
8
ZJ8_COLUMN
10
74520.0
20
2875.0
30
14701.721807
11
74520.0
21
2875.0
31
19602.295743
0
LINE
8
ZJ8_DECK_CROSS
10
74520.0
20
-2200.0
30
19602.295743
11
74520.0
21
2700.0
31
19602.295743
0
LINE
8
ZJ8_TRANSVERSE_BRACE
10
74520.0
20
-2875.0
30
0.0
11
74520.0
21
2875.0
31
19602.295743
0
LINE
8
ZJ8_TRANSVERSE_BRACE
10
74520.0
20
2875.0
30
0.0
11
74520.0
21
-2875.0
31
19602.295743
0
LINE
8
ZJ8_COLUMN
10
77520.0
20
-2875.0
30
0.0
11
77520.0
21
-2875.0
31
4926.764513
0
LINE
8
ZJ8_COLUMN
10
77520.0
20
-2875.0
30
4926.764513
11
77520.0
21
-2875.0
31
9853.529026
0
LINE
8
ZJ8_COLUMN
10
77520.0
20
-2875.0
30
9853.529026
11
77520.0
21
-2875.0
31
14780.293538
0
LINE
8
ZJ8_COLUMN
10
77520.0
20
-2875.0
30
14780.293538
11
77520.0
21
-2875.0
31
19707.058051
0
LINE
8
ZJ8_COLUMN
10
77520.0
20
2875.0
30
0.0
11
77520.0
21
2875.0
31
4926.764513
0
LINE
8
ZJ8_COLUMN
10
77520.0
20
2875.0
30
4926.764513
11
77520.0
21
2875.0
31
9853.529026
0
LINE
8
ZJ8_COLUMN
10
77520.0
20
2875.0
30
9853.529026
11
77520.0
21
2875.0
31
14780.293538
0
LINE
8
ZJ8_COLUMN
10
77520.0
20
2875.0
30
14780.293538
11
77520.0
21
2875.0
31
19707.058051
0
LINE
8
ZJ8_DECK_CROSS
10
77520.0
20
-2200.0
30
19707.058051
11
77520.0
21
2700.0
31
19707.058051
0
LINE
8
ZJ8_TRANSVERSE_BRACE
10
77520.0
20
-2875.0
30
0.0
11
77520.0
21
2875.0
31
19707.058051
0
LINE
8
ZJ8_TRANSVERSE_BRACE
10
77520.0
20
2875.0
30
0.0
11
77520.0
21
-2875.0
31
19707.058051
0
LINE
8
ZJ8_COLUMN
10
116520.0
20
-2875.0
30
0.0
11
116520.0
21
-2875.0
31
4213.793612
0
LINE
8
ZJ8_COLUMN
10
116520.0
20
-2875.0
30
4213.793612
11
116520.0
21
-2875.0
31
8427.587224
0
LINE
8
ZJ8_COLUMN
10
116520.0
20
-2875.0
30
8427.587224
11
116520.0
21
-2875.0
31
12641.380837
0
LINE
8
ZJ8_COLUMN
10
116520.0
20
-2875.0
30
12641.380837
11
116520.0
21
-2875.0
31
16855.174449
0
LINE
8
ZJ8_COLUMN
10
116520.0
20
-2875.0
30
16855.174449
11
116520.0
21
-2875.0
31
21068.968061
0
LINE
8
ZJ8_COLUMN
10
116520.0
20
2875.0
30
0.0
11
116520.0
21
2875.0
31
4213.793612
0
LINE
8
ZJ8_COLUMN
10
116520.0
20
2875.0
30
4213.793612
11
116520.0
21
2875.0
31
8427.587224
0
LINE
8
ZJ8_COLUMN
10
116520.0
20
2875.0
30
8427.587224
11
116520.0
21
2875.0
31
12641.380837
0
LINE
8
ZJ8_COLUMN
10
116520.0
20
2875.0
30
12641.380837
11
116520.0
21
2875.0
31
16855.174449
0
LINE
8
ZJ8_COLUMN
10
116520.0
20
2875.0
30
16855.174449
11
116520.0
21
2875.0
31
21068.968061
0
LINE
8
ZJ8_DECK_CROSS
10
116520.0
20
-2200.0
30
21068.968061
11
116520.0
21
2700.0
31
21068.968061
0
LINE
8
ZJ8_TRANSVERSE_BRACE
10
116520.0
20
-2875.0
30
0.0
11
116520.0
21
2875.0
31
21068.968061
0
LINE
8
ZJ8_TRANSVERSE_BRACE
10
116520.0
20
2875.0
30
0.0
11
116520.0
21
-2875.0
31
21068.968061
0
LINE
8
ZJ8_COLUMN
10
119520.0
20
-2875.0
30
0.0
11
119520.0
21
-2875.0
31
4234.746074
0
LINE
8
ZJ8_COLUMN
10
119520.0
20
-2875.0
30
4234.746074
11
119520.0
21
-2875.0
31
8469.492148
0
LINE
8
ZJ8_COLUMN
10
119520.0
20
-2875.0
30
8469.492148
11
119520.0
21
-2875.0
31
12704.238222
0
LINE
8
ZJ8_COLUMN
10
119520.0
20
-2875.0
30
12704.238222
11
119520.0
21
-2875.0
31
16938.984296
0
LINE
8
ZJ8_COLUMN
10
119520.0
20
-2875.0
30
16938.984296
11
119520.0
21
-2875.0
31
21173.73037
0
LINE
8
ZJ8_COLUMN
10
119520.0
20
2875.0
30
0.0
11
119520.0
21
2875.0
31
4234.746074
0
LINE
8
ZJ8_COLUMN
10
119520.0
20
2875.0
30
4234.746074
11
119520.0
21
2875.0
31
8469.492148
0
LINE
8
ZJ8_COLUMN
10
119520.0
20
2875.0
30
8469.492148
11
119520.0
21
2875.0
31
12704.238222
0
LINE
8
ZJ8_COLUMN
10
119520.0
20
2875.0
30
12704.238222
11
119520.0
21
2875.0
31
16938.984296
0
LINE
8
ZJ8_COLUMN
10
119520.0
20
2875.0
30
16938.984296
11
119520.0
21
2875.0
31
21173.73037
0
LINE
8
ZJ8_DECK_CROSS
10
119520.0
20
-2200.0
30
21173.73037
11
119520.0
21
2700.0
31
21173.73037
0
LINE
8
ZJ8_TRANSVERSE_BRACE
10
119520.0
20
-2875.0
30
0.0
11
119520.0
21
2875.0
31
21173.73037
0
LINE
8
ZJ8_TRANSVERSE_BRACE
10
119520.0
20
2875.0
30
0.0
11
119520.0
21
-2875.0
31
21173.73037
0
LINE
8
ZJ8_CANTILEVER_EDGE
10
-1400.0
20
-2200.0
30
16951.110923
11
0.0
21
-2200.0
31
17000.0
0
LINE
8
ZJ8_CANTILEVER_EDGE
10
-1400.0
20
2700.0
30
16951.110923
11
0.0
21
2700.0
31
17000.0
0
LINE
8
ZJ8_DECK_MAIN
10
0.0
20
-2875.0
30
17000.0
11
3000.0
21
-2875.0
31
17104.762308
0
LINE
8
ZJ8_DECK_MAIN
10
3000.0
20
-2875.0
30
17104.762308
11
6000.0
21
-2875.0
31
17209.524617
0
LINE
8
ZJ8_DECK_MAIN
10
6000.0
20
-2875.0
30
17209.524617
11
9000.0
21
-2875.0
31
17314.286925
0
LINE
8
ZJ8_DECK_MAIN
10
9000.0
20
-2875.0
30
17314.286925
11
12000.0
21
-2875.0
31
17419.049234
0
LINE
8
ZJ8_DECK_MAIN
10
0.0
20
2875.0
30
17000.0
11
3000.0
21
2875.0
31
17104.762308
0
LINE
8
ZJ8_DECK_MAIN
10
3000.0
20
2875.0
30
17104.762308
11
6000.0
21
2875.0
31
17209.524617
0
LINE
8
ZJ8_DECK_MAIN
10
6000.0
20
2875.0
30
17209.524617
11
9000.0
21
2875.0
31
17314.286925
0
LINE
8
ZJ8_DECK_MAIN
10
9000.0
20
2875.0
30
17314.286925
11
12000.0
21
2875.0
31
17419.049234
0
LINE
8
ZJ8_DECK_CROSS
10
3000.0
20
-2200.0
30
17104.762308
11
3000.0
21
2700.0
31
17104.762308
0
LINE
8
ZJ8_DECK_CROSS
10
6000.0
20
-2200.0
30
17209.524617
11
6000.0
21
2700.0
31
17209.524617
0
LINE
8
ZJ8_DECK_CROSS
10
9000.0
20
-2200.0
30
17314.286925
11
9000.0
21
2700.0
31
17314.286925
0
LINE
8
ZJ8_DECK_SECONDARY
10
0.0
20
-1075.0
30
17000.0
11
3000.0
21
-1075.0
31
17104.762308
0
LINE
8
ZJ8_DECK_SECONDARY
10
3000.0
20
-1075.0
30
17104.762308
11
6000.0
21
-1075.0
31
17209.524617
0
LINE
8
ZJ8_DECK_SECONDARY
10
6000.0
20
-1075.0
30
17209.524617
11
9000.0
21
-1075.0
31
17314.286925
0
LINE
8
ZJ8_DECK_SECONDARY
10
9000.0
20
-1075.0
30
17314.286925
11
12000.0
21
-1075.0
31
17419.049234
0
LINE
8
ZJ8_DECK_SECONDARY
10
0.0
20
1075.0
30
17000.0
11
3000.0
21
1075.0
31
17104.762308
0
LINE
8
ZJ8_DECK_SECONDARY
10
3000.0
20
1075.0
30
17104.762308
11
6000.0
21
1075.0
31
17209.524617
0
LINE
8
ZJ8_DECK_SECONDARY
10
6000.0
20
1075.0
30
17209.524617
11
9000.0
21
1075.0
31
17314.286925
0
LINE
8
ZJ8_DECK_SECONDARY
10
9000.0
20
1075.0
30
17314.286925
11
12000.0
21
1075.0
31
17419.049234
0
LINE
8
ZJ8_CANTILEVER_EDGE
10
0.0
20
-2200.0
30
17000.0
11
3000.0
21
-2200.0
31
17104.762308
0
LINE
8
ZJ8_CANTILEVER_EDGE
10
3000.0
20
-2200.0
30
17104.762308
11
6000.0
21
-2200.0
31
17209.524617
0
LINE
8
ZJ8_CANTILEVER_EDGE
10
6000.0
20
-2200.0
30
17209.524617
11
9000.0
21
-2200.0
31
17314.286925
0
LINE
8
ZJ8_CANTILEVER_EDGE
10
9000.0
20
-2200.0
30
17314.286925
11
12000.0
21
-2200.0
31
17419.049234
0
LINE
8
ZJ8_CANTILEVER_EDGE
10
0.0
20
2700.0
30
17000.0
11
3000.0
21
2700.0
31
17104.762308
0
LINE
8
ZJ8_CANTILEVER_EDGE
10
3000.0
20
2700.0
30
17104.762308
11
6000.0
21
2700.0
31
17209.524617
0
LINE
8
ZJ8_CANTILEVER_EDGE
10
6000.0
20
2700.0
30
17209.524617
11
9000.0
21
2700.0
31
17314.286925
0
LINE
8
ZJ8_CANTILEVER_EDGE
10
9000.0
20
2700.0
30
17314.286925
11
12000.0
21
2700.0
31
17419.049234
0
LINE
8
ZJ8_PLATFORM_BRACE
10
0.0
20
-2875.0
30
17000.0
11
3000.0
21
2875.0
31
17104.762308
0
LINE
8
ZJ8_PLATFORM_BRACE
10
3000.0
20
2875.0
30
17104.762308
11
6000.0
21
-2875.0
31
17209.524617
0
LINE
8
ZJ8_PLATFORM_BRACE
10
6000.0
20
-2875.0
30
17209.524617
11
9000.0
21
2875.0
31
17314.286925
0
LINE
8
ZJ8_PLATFORM_BRACE
10
9000.0
20
2875.0
30
17314.286925
11
12000.0
21
-2875.0
31
17419.049234
0
LINE
8
ZJ8_DECK_MAIN
10
12000.0
20
-2875.0
30
17419.049234
11
15000.0
21
-2875.0
31
17523.811542
0
LINE
8
ZJ8_DECK_MAIN
10
15000.0
20
-2875.0
30
17523.811542
11
18000.0
21
-2875.0
31
17628.573851
0
LINE
8
ZJ8_DECK_MAIN
10
18000.0
20
-2875.0
30
17628.573851
11
21000.0
21
-2875.0
31
17733.336159
0
LINE
8
ZJ8_DECK_MAIN
10
21000.0
20
-2875.0
30
17733.336159
11
24000.0
21
-2875.0
31
17838.098468
0
LINE
8
ZJ8_DECK_MAIN
10
12000.0
20
2875.0
30
17419.049234
11
15000.0
21
2875.0
31
17523.811542
0
LINE
8
ZJ8_DECK_MAIN
10
15000.0
20
2875.0
30
17523.811542
11
18000.0
21
2875.0
31
17628.573851
0
LINE
8
ZJ8_DECK_MAIN
10
18000.0
20
2875.0
30
17628.573851
11
21000.0
21
2875.0
31
17733.336159
0
LINE
8
ZJ8_DECK_MAIN
10
21000.0
20
2875.0
30
17733.336159
11
24000.0
21
2875.0
31
17838.098468
0
LINE
8
ZJ8_DECK_CROSS
10
15000.0
20
-2200.0
30
17523.811542
11
15000.0
21
2700.0
31
17523.811542
0
LINE
8
ZJ8_DECK_CROSS
10
18000.0
20
-2200.0
30
17628.573851
11
18000.0
21
2700.0
31
17628.573851
0
LINE
8
ZJ8_DECK_CROSS
10
21000.0
20
-2200.0
30
17733.336159
11
21000.0
21
2700.0
31
17733.336159
0
LINE
8
ZJ8_DECK_SECONDARY
10
12000.0
20
-1075.0
30
17419.049234
11
15000.0
21
-1075.0
31
17523.811542
0
LINE
8
ZJ8_DECK_SECONDARY
10
15000.0
20
-1075.0
30
17523.811542
11
18000.0
21
-1075.0
31
17628.573851
0
LINE
8
ZJ8_DECK_SECONDARY
10
18000.0
20
-1075.0
30
17628.573851
11
21000.0
21
-1075.0
31
17733.336159
0
LINE
8
ZJ8_DECK_SECONDARY
10
21000.0
20
-1075.0
30
17733.336159
11
24000.0
21
-1075.0
31
17838.098468
0
LINE
8
ZJ8_DECK_SECONDARY
10
12000.0
20
1075.0
30
17419.049234
11
15000.0
21
1075.0
31
17523.811542
0
LINE
8
ZJ8_DECK_SECONDARY
10
15000.0
20
1075.0
30
17523.811542
11
18000.0
21
1075.0
31
17628.573851
0
LINE
8
ZJ8_DECK_SECONDARY
10
18000.0
20
1075.0
30
17628.573851
11
21000.0
21
1075.0
31
17733.336159
0
LINE
8
ZJ8_DECK_SECONDARY
10
21000.0
20
1075.0
30
17733.336159
11
24000.0
21
1075.0
31
17838.098468
0
LINE
8
ZJ8_CANTILEVER_EDGE
10
12000.0
20
-2200.0
30
17419.049234
11
15000.0
21
-2200.0
31
17523.811542
0
LINE
8
ZJ8_CANTILEVER_EDGE
10
15000.0
20
-2200.0
30
17523.811542
11
18000.0
21
-2200.0
31
17628.573851
0
LINE
8
ZJ8_CANTILEVER_EDGE
10
18000.0
20
-2200.0
30
17628.573851
11
21000.0
21
-2200.0
31
17733.336159
0
LINE
8
ZJ8_CANTILEVER_EDGE
10
21000.0
20
-2200.0
30
17733.336159
11
24000.0
21
-2200.0
31
17838.098468
0
LINE
8
ZJ8_CANTILEVER_EDGE
10
12000.0
20
2700.0
30
17419.049234
11
15000.0
21
2700.0
31
17523.811542
0
LINE
8
ZJ8_CANTILEVER_EDGE
10
15000.0
20
2700.0
30
17523.811542
11
18000.0
21
2700.0
31
17628.573851
0
LINE
8
ZJ8_CANTILEVER_EDGE
10
18000.0
20
2700.0
30
17628.573851
11
21000.0
21
2700.0
31
17733.336159
0
LINE
8
ZJ8_CANTILEVER_EDGE
10
21000.0
20
2700.0
30
17733.336159
11
24000.0
21
2700.0
31
17838.098468
0
LINE
8
ZJ8_PLATFORM_BRACE
10
12000.0
20
-2875.0
30
17419.049234
11
15000.0
21
2875.0
31
17523.811542
0
LINE
8
ZJ8_PLATFORM_BRACE
10
15000.0
20
2875.0
30
17523.811542
11
18000.0
21
-2875.0
31
17628.573851
0
LINE
8
ZJ8_PLATFORM_BRACE
10
18000.0
20
-2875.0
30
17628.573851
11
21000.0
21
2875.0
31
17733.336159
0
LINE
8
ZJ8_PLATFORM_BRACE
10
21000.0
20
2875.0
30
17733.336159
11
24000.0
21
-2875.0
31
17838.098468
0
LINE
8
ZJ8_DECK_MAIN
10
24000.0
20
-2875.0
30
17838.098468
11
27000.0
21
-2875.0
31
17942.860776
0
LINE
8
ZJ8_DECK_MAIN
10
27000.0
20
-2875.0
30
17942.860776
11
30000.0
21
-2875.0
31
18047.623085
0
LINE
8
ZJ8_DECK_MAIN
10
30000.0
20
-2875.0
30
18047.623085
11
33000.0
21
-2875.0
31
18152.385393
0
LINE
8
ZJ8_DECK_MAIN
10
33000.0
20
-2875.0
30
18152.385393
11
36000.0
21
-2875.0
31
18257.147702
0
LINE
8
ZJ8_DECK_MAIN
10
24000.0
20
2875.0
30
17838.098468
11
27000.0
21
2875.0
31
17942.860776
0
LINE
8
ZJ8_DECK_MAIN
10
27000.0
20
2875.0
30
17942.860776
11
30000.0
21
2875.0
31
18047.623085
0
LINE
8
ZJ8_DECK_MAIN
10
30000.0
20
2875.0
30
18047.623085
11
33000.0
21
2875.0
31
18152.385393
0
LINE
8
ZJ8_DECK_MAIN
10
33000.0
20
2875.0
30
18152.385393
11
36000.0
21
2875.0
31
18257.147702
0
LINE
8
ZJ8_DECK_CROSS
10
27000.0
20
-2200.0
30
17942.860776
11
27000.0
21
2700.0
31
17942.860776
0
LINE
8
ZJ8_DECK_CROSS
10
30000.0
20
-2200.0
30
18047.623085
11
30000.0
21
2700.0
31
18047.623085
0
LINE
8
ZJ8_DECK_CROSS
10
33000.0
20
-2200.0
30
18152.385393
11
33000.0
21
2700.0
31
18152.385393
0
LINE
8
ZJ8_DECK_SECONDARY
10
24000.0
20
-1075.0
30
17838.098468
11
27000.0
21
-1075.0
31
17942.860776
0
LINE
8
ZJ8_DECK_SECONDARY
10
27000.0
20
-1075.0
30
17942.860776
11
30000.0
21
-1075.0
31
18047.623085
0
LINE
8
ZJ8_DECK_SECONDARY
10
30000.0
20
-1075.0
30
18047.623085
11
33000.0
21
-1075.0
31
18152.385393
0
LINE
8
ZJ8_DECK_SECONDARY
10
33000.0
20
-1075.0
30
18152.385393
11
36000.0
21
-1075.0
31
18257.147702
0
LINE
8
ZJ8_DECK_SECONDARY
10
24000.0
20
1075.0
30
17838.098468
11
27000.0
21
1075.0
31
17942.860776
0
LINE
8
ZJ8_DECK_SECONDARY
10
27000.0
20
1075.0
30
17942.860776
11
30000.0
21
1075.0
31
18047.623085
0
LINE
8
ZJ8_DECK_SECONDARY
10
30000.0
20
1075.0
30
18047.623085
11
33000.0
21
1075.0
31
18152.385393
0
LINE
8
ZJ8_DECK_SECONDARY
10
33000.0
20
1075.0
30
18152.385393
11
36000.0
21
1075.0
31
18257.147702
0
LINE
8
ZJ8_CANTILEVER_EDGE
10
24000.0
20
-2200.0
30
17838.098468
11
27000.0
21
-2200.0
31
17942.860776
0
LINE
8
ZJ8_CANTILEVER_EDGE
10
27000.0
20
-2200.0
30
17942.860776
11
30000.0
21
-2200.0
31
18047.623085
0
LINE
8
ZJ8_CANTILEVER_EDGE
10
30000.0
20
-2200.0
30
18047.623085
11
33000.0
21
-2200.0
31
18152.385393
0
LINE
8
ZJ8_CANTILEVER_EDGE
10
33000.0
20
-2200.0
30
18152.385393
11
36000.0
21
-2200.0
31
18257.147702
0
LINE
8
ZJ8_CANTILEVER_EDGE
10
24000.0
20
2700.0
30
17838.098468
11
27000.0
21
2700.0
31
17942.860776
0
LINE
8
ZJ8_CANTILEVER_EDGE
10
27000.0
20
2700.0
30
17942.860776
11
30000.0
21
2700.0
31
18047.623085
0
LINE
8
ZJ8_CANTILEVER_EDGE
10
30000.0
20
2700.0
30
18047.623085
11
33000.0
21
2700.0
31
18152.385393
0
LINE
8
ZJ8_CANTILEVER_EDGE
10
33000.0
20
2700.0
30
18152.385393
11
36000.0
21
2700.0
31
18257.147702
0
LINE
8
ZJ8_PLATFORM_BRACE
10
24000.0
20
-2875.0
30
17838.098468
11
27000.0
21
2875.0
31
17942.860776
0
LINE
8
ZJ8_PLATFORM_BRACE
10
27000.0
20
2875.0
30
17942.860776
11
30000.0
21
-2875.0
31
18047.623085
0
LINE
8
ZJ8_PLATFORM_BRACE
10
30000.0
20
-2875.0
30
18047.623085
11
33000.0
21
2875.0
31
18152.385393
0
LINE
8
ZJ8_PLATFORM_BRACE
10
33000.0
20
2875.0
30
18152.385393
11
36000.0
21
-2875.0
31
18257.147702
0
LINE
8
ZJ8_DECK_MAIN
10
36000.0
20
-2875.0
30
18257.147702
11
39000.0
21
-2875.0
31
18361.91001
0
LINE
8
ZJ8_DECK_MAIN
10
36000.0
20
2875.0
30
18257.147702
11
39000.0
21
2875.0
31
18361.91001
0
LINE
8
ZJ8_DECK_SECONDARY
10
36000.0
20
-1075.0
30
18257.147702
11
39000.0
21
-1075.0
31
18361.91001
0
LINE
8
ZJ8_DECK_SECONDARY
10
36000.0
20
1075.0
30
18257.147702
11
39000.0
21
1075.0
31
18361.91001
0
LINE
8
ZJ8_CANTILEVER_EDGE
10
36000.0
20
-2200.0
30
18257.147702
11
39000.0
21
-2200.0
31
18361.91001
0
LINE
8
ZJ8_CANTILEVER_EDGE
10
36000.0
20
2700.0
30
18257.147702
11
39000.0
21
2700.0
31
18361.91001
0
LINE
8
ZJ8_PLATFORM_BRACE
10
36000.0
20
-2875.0
30
18257.147702
11
39000.0
21
2875.0
31
18361.91001
0
LINE
8
ZJ8_LONGITUDINAL_BRACE
10
36000.0
20
-2875.0
30
0.0
11
39000.0
21
-2875.0
31
18361.91001
0
LINE
8
ZJ8_LONGITUDINAL_BRACE
10
36000.0
20
2875.0
30
0.0
11
39000.0
21
2875.0
31
18361.91001
0
LINE
8
ZJ8_DECK_MAIN
10
39000.0
20
-2875.0
30
18361.91001
11
41931.428571
21
-2875.0
31
18464.277752
0
LINE
8
ZJ8_DECK_MAIN
10
41931.428571
20
-2875.0
30
18464.277752
11
44862.857143
21
-2875.0
31
18566.645493
0
LINE
8
ZJ8_DECK_MAIN
10
44862.857143
20
-2875.0
30
18566.645493
11
47794.285714
21
-2875.0
31
18669.013234
0
LINE
8
ZJ8_DECK_MAIN
10
47794.285714
20
-2875.0
30
18669.013234
11
50725.714286
21
-2875.0
31
18771.380976
0
LINE
8
ZJ8_DECK_MAIN
10
50725.714286
20
-2875.0
30
18771.380976
11
53657.142857
21
-2875.0
31
18873.748717
0
LINE
8
ZJ8_DECK_MAIN
10
53657.142857
20
-2875.0
30
18873.748717
11
56588.571429
21
-2875.0
31
18976.116459
0
LINE
8
ZJ8_DECK_MAIN
10
56588.571429
20
-2875.0
30
18976.116459
11
59520.0
21
-2875.0
31
19078.4842
0
LINE
8
ZJ8_DECK_MAIN
10
39000.0
20
2875.0
30
18361.91001
11
41931.428571
21
2875.0
31
18464.277752
0
LINE
8
ZJ8_DECK_MAIN
10
41931.428571
20
2875.0
30
18464.277752
11
44862.857143
21
2875.0
31
18566.645493
0
LINE
8
ZJ8_DECK_MAIN
10
44862.857143
20
2875.0
30
18566.645493
11
47794.285714
21
2875.0
31
18669.013234
0
LINE
8
ZJ8_DECK_MAIN
10
47794.285714
20
2875.0
30
18669.013234
11
50725.714286
21
2875.0
31
18771.380976
0
LINE
8
ZJ8_DECK_MAIN
10
50725.714286
20
2875.0
30
18771.380976
11
53657.142857
21
2875.0
31
18873.748717
0
LINE
8
ZJ8_DECK_MAIN
10
53657.142857
20
2875.0
30
18873.748717
11
56588.571429
21
2875.0
31
18976.116459
0
LINE
8
ZJ8_DECK_MAIN
10
56588.571429
20
2875.0
30
18976.116459
11
59520.0
21
2875.0
31
19078.4842
0
LINE
8
ZJ8_DECK_CROSS
10
41931.428571
20
-2200.0
30
18464.277752
11
41931.428571
21
2700.0
31
18464.277752
0
LINE
8
ZJ8_DECK_CROSS
10
44862.857143
20
-2200.0
30
18566.645493
11
44862.857143
21
2700.0
31
18566.645493
0
LINE
8
ZJ8_DECK_CROSS
10
47794.285714
20
-2200.0
30
18669.013234
11
47794.285714
21
2700.0
31
18669.013234
0
LINE
8
ZJ8_DECK_CROSS
10
50725.714286
20
-2200.0
30
18771.380976
11
50725.714286
21
2700.0
31
18771.380976
0
LINE
8
ZJ8_DECK_CROSS
10
53657.142857
20
-2200.0
30
18873.748717
11
53657.142857
21
2700.0
31
18873.748717
0
LINE
8
ZJ8_DECK_CROSS
10
56588.571429
20
-2200.0
30
18976.116459
11
56588.571429
21
2700.0
31
18976.116459
0
LINE
8
ZJ8_DECK_SECONDARY
10
39000.0
20
-1075.0
30
18361.91001
11
41931.428571
21
-1075.0
31
18464.277752
0
LINE
8
ZJ8_DECK_SECONDARY
10
41931.428571
20
-1075.0
30
18464.277752
11
44862.857143
21
-1075.0
31
18566.645493
0
LINE
8
ZJ8_DECK_SECONDARY
10
44862.857143
20
-1075.0
30
18566.645493
11
47794.285714
21
-1075.0
31
18669.013234
0
LINE
8
ZJ8_DECK_SECONDARY
10
47794.285714
20
-1075.0
30
18669.013234
11
50725.714286
21
-1075.0
31
18771.380976
0
LINE
8
ZJ8_DECK_SECONDARY
10
50725.714286
20
-1075.0
30
18771.380976
11
53657.142857
21
-1075.0
31
18873.748717
0
LINE
8
ZJ8_DECK_SECONDARY
10
53657.142857
20
-1075.0
30
18873.748717
11
56588.571429
21
-1075.0
31
18976.116459
0
LINE
8
ZJ8_DECK_SECONDARY
10
56588.571429
20
-1075.0
30
18976.116459
11
59520.0
21
-1075.0
31
19078.4842
0
LINE
8
ZJ8_DECK_SECONDARY
10
39000.0
20
1075.0
30
18361.91001
11
41931.428571
21
1075.0
31
18464.277752
0
LINE
8
ZJ8_DECK_SECONDARY
10
41931.428571
20
1075.0
30
18464.277752
11
44862.857143
21
1075.0
31
18566.645493
0
LINE
8
ZJ8_DECK_SECONDARY
10
44862.857143
20
1075.0
30
18566.645493
11
47794.285714
21
1075.0
31
18669.013234
0
LINE
8
ZJ8_DECK_SECONDARY
10
47794.285714
20
1075.0
30
18669.013234
11
50725.714286
21
1075.0
31
18771.380976
0
LINE
8
ZJ8_DECK_SECONDARY
10
50725.714286
20
1075.0
30
18771.380976
11
53657.142857
21
1075.0
31
18873.748717
0
LINE
8
ZJ8_DECK_SECONDARY
10
53657.142857
20
1075.0
30
18873.748717
11
56588.571429
21
1075.0
31
18976.116459
0
LINE
8
ZJ8_DECK_SECONDARY
10
56588.571429
20
1075.0
30
18976.116459
11
59520.0
21
1075.0
31
19078.4842
0
LINE
8
ZJ8_CANTILEVER_EDGE
10
39000.0
20
-2200.0
30
18361.91001
11
41931.428571
21
-2200.0
31
18464.277752
0
LINE
8
ZJ8_CANTILEVER_EDGE
10
41931.428571
20
-2200.0
30
18464.277752
11
44862.857143
21
-2200.0
31
18566.645493
0
LINE
8
ZJ8_CANTILEVER_EDGE
10
44862.857143
20
-2200.0
30
18566.645493
11
47794.285714
21
-2200.0
31
18669.013234
0
LINE
8
ZJ8_CANTILEVER_EDGE
10
47794.285714
20
-2200.0
30
18669.013234
11
50725.714286
21
-2200.0
31
18771.380976
0
LINE
8
ZJ8_CANTILEVER_EDGE
10
50725.714286
20
-2200.0
30
18771.380976
11
53657.142857
21
-2200.0
31
18873.748717
0
LINE
8
ZJ8_CANTILEVER_EDGE
10
53657.142857
20
-2200.0
30
18873.748717
11
56588.571429
21
-2200.0
31
18976.116459
0
LINE
8
ZJ8_CANTILEVER_EDGE
10
56588.571429
20
-2200.0
30
18976.116459
11
59520.0
21
-2200.0
31
19078.4842
0
LINE
8
ZJ8_CANTILEVER_EDGE
10
39000.0
20
2700.0
30
18361.91001
11
41931.428571
21
2700.0
31
18464.277752
0
LINE
8
ZJ8_CANTILEVER_EDGE
10
41931.428571
20
2700.0
30
18464.277752
11
44862.857143
21
2700.0
31
18566.645493
0
LINE
8
ZJ8_CANTILEVER_EDGE
10
44862.857143
20
2700.0
30
18566.645493
11
47794.285714
21
2700.0
31
18669.013234
0
LINE
8
ZJ8_CANTILEVER_EDGE
10
47794.285714
20
2700.0
30
18669.013234
11
50725.714286
21
2700.0
31
18771.380976
0
LINE
8
ZJ8_CANTILEVER_EDGE
10
50725.714286
20
2700.0
30
18771.380976
11
53657.142857
21
2700.0
31
18873.748717
0
LINE
8
ZJ8_CANTILEVER_EDGE
10
53657.142857
20
2700.0
30
18873.748717
11
56588.571429
21
2700.0
31
18976.116459
0
LINE
8
ZJ8_CANTILEVER_EDGE
10
56588.571429
20
2700.0
30
18976.116459
11
59520.0
21
2700.0
31
19078.4842
0
LINE
8
ZJ8_PLATFORM_BRACE
10
39000.0
20
-2875.0
30
18361.91001
11
41931.428571
21
2875.0
31
18464.277752
0
LINE
8
ZJ8_PLATFORM_BRACE
10
41931.428571
20
2875.0
30
18464.277752
11
44862.857143
21
-2875.0
31
18566.645493
0
LINE
8
ZJ8_PLATFORM_BRACE
10
44862.857143
20
-2875.0
30
18566.645493
11
47794.285714
21
2875.0
31
18669.013234
0
LINE
8
ZJ8_PLATFORM_BRACE
10
47794.285714
20
2875.0
30
18669.013234
11
50725.714286
21
-2875.0
31
18771.380976
0
LINE
8
ZJ8_PLATFORM_BRACE
10
50725.714286
20
-2875.0
30
18771.380976
11
53657.142857
21
2875.0
31
18873.748717
0
LINE
8
ZJ8_PLATFORM_BRACE
10
53657.142857
20
2875.0
30
18873.748717
11
56588.571429
21
-2875.0
31
18976.116459
0
LINE
8
ZJ8_PLATFORM_BRACE
10
56588.571429
20
-2875.0
30
18976.116459
11
59520.0
21
2875.0
31
19078.4842
0
LINE
8
ZJ8_TRUSS_UPPER
10
39000.0
20
-2875.0
30
18361.91001
11
40865.454545
21
-2875.0
31
18427.053118
0
LINE
8
ZJ8_TRUSS_UPPER
10
40865.454545
20
-2875.0
30
18427.053118
11
42730.909091
21
-2875.0
31
18492.196227
0
LINE
8
ZJ8_TRUSS_UPPER
10
42730.909091
20
-2875.0
30
18492.196227
11
44596.363636
21
-2875.0
31
18557.339335
0
LINE
8
ZJ8_TRUSS_UPPER
10
44596.363636
20
-2875.0
30
18557.339335
11
46461.818182
21
-2875.0
31
18622.482443
0
LINE
8
ZJ8_TRUSS_UPPER
10
46461.818182
20
-2875.0
30
18622.482443
11
48327.272727
21
-2875.0
31
18687.625551
0
LINE
8
ZJ8_TRUSS_UPPER
10
48327.272727
20
-2875.0
30
18687.625551
11
50192.727273
21
-2875.0
31
18752.768659
0
LINE
8
ZJ8_TRUSS_UPPER
10
50192.727273
20
-2875.0
30
18752.768659
11
52058.181818
21
-2875.0
31
18817.911767
0
LINE
8
ZJ8_TRUSS_UPPER
10
52058.181818
20
-2875.0
30
18817.911767
11
53923.636364
21
-2875.0
31
18883.054876
0
LINE
8
ZJ8_TRUSS_UPPER
10
53923.636364
20
-2875.0
30
18883.054876
11
55789.090909
21
-2875.0
31
18948.197984
0
LINE
8
ZJ8_TRUSS_UPPER
10
55789.090909
20
-2875.0
30
18948.197984
11
57654.545455
21
-2875.0
31
19013.341092
0
LINE
8
ZJ8_TRUSS_UPPER
10
57654.545455
20
-2875.0
30
19013.341092
11
59520.0
21
-2875.0
31
19078.4842
0
LINE
8
ZJ8_TRUSS_LOWER
10
39000.0
20
-2875.0
30
16561.91001
11
40865.454545
21
-2875.0
31
16627.053118
0
LINE
8
ZJ8_TRUSS_LOWER
10
40865.454545
20
-2875.0
30
16627.053118
11
42730.909091
21
-2875.0
31
16692.196227
0
LINE
8
ZJ8_TRUSS_LOWER
10
42730.909091
20
-2875.0
30
16692.196227
11
44596.363636
21
-2875.0
31
16757.339335
0
LINE
8
ZJ8_TRUSS_LOWER
10
44596.363636
20
-2875.0
30
16757.339335
11
46461.818182
21
-2875.0
31
16822.482443
0
LINE
8
ZJ8_TRUSS_LOWER
10
46461.818182
20
-2875.0
30
16822.482443
11
48327.272727
21
-2875.0
31
16887.625551
0
LINE
8
ZJ8_TRUSS_LOWER
10
48327.272727
20
-2875.0
30
16887.625551
11
50192.727273
21
-2875.0
31
16952.768659
0
LINE
8
ZJ8_TRUSS_LOWER
10
50192.727273
20
-2875.0
30
16952.768659
11
52058.181818
21
-2875.0
31
17017.911767
0
LINE
8
ZJ8_TRUSS_LOWER
10
52058.181818
20
-2875.0
30
17017.911767
11
53923.636364
21
-2875.0
31
17083.054876
0
LINE
8
ZJ8_TRUSS_LOWER
10
53923.636364
20
-2875.0
30
17083.054876
11
55789.090909
21
-2875.0
31
17148.197984
0
LINE
8
ZJ8_TRUSS_LOWER
10
55789.090909
20
-2875.0
30
17148.197984
11
57654.545455
21
-2875.0
31
17213.341092
0
LINE
8
ZJ8_TRUSS_LOWER
10
57654.545455
20
-2875.0
30
17213.341092
11
59520.0
21
-2875.0
31
17278.4842
0
LINE
8
ZJ8_TRUSS_VERTICAL
10
39000.0
20
-2875.0
30
18361.91001
11
39000.0
21
-2875.0
31
16561.91001
0
LINE
8
ZJ8_TRUSS_VERTICAL
10
40865.454545
20
-2875.0
30
18427.053118
11
40865.454545
21
-2875.0
31
16627.053118
0
LINE
8
ZJ8_TRUSS_VERTICAL
10
42730.909091
20
-2875.0
30
18492.196227
11
42730.909091
21
-2875.0
31
16692.196227
0
LINE
8
ZJ8_TRUSS_VERTICAL
10
44596.363636
20
-2875.0
30
18557.339335
11
44596.363636
21
-2875.0
31
16757.339335
0
LINE
8
ZJ8_TRUSS_VERTICAL
10
46461.818182
20
-2875.0
30
18622.482443
11
46461.818182
21
-2875.0
31
16822.482443
0
LINE
8
ZJ8_TRUSS_VERTICAL
10
48327.272727
20
-2875.0
30
18687.625551
11
48327.272727
21
-2875.0
31
16887.625551
0
LINE
8
ZJ8_TRUSS_VERTICAL
10
50192.727273
20
-2875.0
30
18752.768659
11
50192.727273
21
-2875.0
31
16952.768659
0
LINE
8
ZJ8_TRUSS_VERTICAL
10
52058.181818
20
-2875.0
30
18817.911767
11
52058.181818
21
-2875.0
31
17017.911767
0
LINE
8
ZJ8_TRUSS_VERTICAL
10
53923.636364
20
-2875.0
30
18883.054876
11
53923.636364
21
-2875.0
31
17083.054876
0
LINE
8
ZJ8_TRUSS_VERTICAL
10
55789.090909
20
-2875.0
30
18948.197984
11
55789.090909
21
-2875.0
31
17148.197984
0
LINE
8
ZJ8_TRUSS_VERTICAL
10
57654.545455
20
-2875.0
30
19013.341092
11
57654.545455
21
-2875.0
31
17213.341092
0
LINE
8
ZJ8_TRUSS_VERTICAL
10
59520.0
20
-2875.0
30
19078.4842
11
59520.0
21
-2875.0
31
17278.4842
0
LINE
8
ZJ8_TRUSS_DIAGONAL
10
39000.0
20
-2875.0
30
16561.91001
11
40865.454545
21
-2875.0
31
18427.053118
0
LINE
8
ZJ8_TRUSS_DIAGONAL
10
40865.454545
20
-2875.0
30
18427.053118
11
42730.909091
21
-2875.0
31
16692.196227
0
LINE
8
ZJ8_TRUSS_DIAGONAL
10
42730.909091
20
-2875.0
30
16692.196227
11
44596.363636
21
-2875.0
31
18557.339335
0
LINE
8
ZJ8_TRUSS_DIAGONAL
10
44596.363636
20
-2875.0
30
18557.339335
11
46461.818182
21
-2875.0
31
16822.482443
0
LINE
8
ZJ8_TRUSS_DIAGONAL
10
46461.818182
20
-2875.0
30
16822.482443
11
48327.272727
21
-2875.0
31
18687.625551
0
LINE
8
ZJ8_TRUSS_DIAGONAL
10
48327.272727
20
-2875.0
30
18687.625551
11
50192.727273
21
-2875.0
31
16952.768659
0
LINE
8
ZJ8_TRUSS_DIAGONAL
10
50192.727273
20
-2875.0
30
16952.768659
11
52058.181818
21
-2875.0
31
18817.911767
0
LINE
8
ZJ8_TRUSS_DIAGONAL
10
52058.181818
20
-2875.0
30
18817.911767
11
53923.636364
21
-2875.0
31
17083.054876
0
LINE
8
ZJ8_TRUSS_DIAGONAL
10
53923.636364
20
-2875.0
30
17083.054876
11
55789.090909
21
-2875.0
31
18948.197984
0
LINE
8
ZJ8_TRUSS_DIAGONAL
10
55789.090909
20
-2875.0
30
18948.197984
11
57654.545455
21
-2875.0
31
17213.341092
0
LINE
8
ZJ8_TRUSS_DIAGONAL
10
57654.545455
20
-2875.0
30
17213.341092
11
59520.0
21
-2875.0
31
19078.4842
0
LINE
8
ZJ8_TRUSS_UPPER
10
39000.0
20
2875.0
30
18361.91001
11
40865.454545
21
2875.0
31
18427.053118
0
LINE
8
ZJ8_TRUSS_UPPER
10
40865.454545
20
2875.0
30
18427.053118
11
42730.909091
21
2875.0
31
18492.196227
0
LINE
8
ZJ8_TRUSS_UPPER
10
42730.909091
20
2875.0
30
18492.196227
11
44596.363636
21
2875.0
31
18557.339335
0
LINE
8
ZJ8_TRUSS_UPPER
10
44596.363636
20
2875.0
30
18557.339335
11
46461.818182
21
2875.0
31
18622.482443
0
LINE
8
ZJ8_TRUSS_UPPER
10
46461.818182
20
2875.0
30
18622.482443
11
48327.272727
21
2875.0
31
18687.625551
0
LINE
8
ZJ8_TRUSS_UPPER
10
48327.272727
20
2875.0
30
18687.625551
11
50192.727273
21
2875.0
31
18752.768659
0
LINE
8
ZJ8_TRUSS_UPPER
10
50192.727273
20
2875.0
30
18752.768659
11
52058.181818
21
2875.0
31
18817.911767
0
LINE
8
ZJ8_TRUSS_UPPER
10
52058.181818
20
2875.0
30
18817.911767
11
53923.636364
21
2875.0
31
18883.054876
0
LINE
8
ZJ8_TRUSS_UPPER
10
53923.636364
20
2875.0
30
18883.054876
11
55789.090909
21
2875.0
31
18948.197984
0
LINE
8
ZJ8_TRUSS_UPPER
10
55789.090909
20
2875.0
30
18948.197984
11
57654.545455
21
2875.0
31
19013.341092
0
LINE
8
ZJ8_TRUSS_UPPER
10
57654.545455
20
2875.0
30
19013.341092
11
59520.0
21
2875.0
31
19078.4842
0
LINE
8
ZJ8_TRUSS_LOWER
10
39000.0
20
2875.0
30
16561.91001
11
40865.454545
21
2875.0
31
16627.053118
0
LINE
8
ZJ8_TRUSS_LOWER
10
40865.454545
20
2875.0
30
16627.053118
11
42730.909091
21
2875.0
31
16692.196227
0
LINE
8
ZJ8_TRUSS_LOWER
10
42730.909091
20
2875.0
30
16692.196227
11
44596.363636
21
2875.0
31
16757.339335
0
LINE
8
ZJ8_TRUSS_LOWER
10
44596.363636
20
2875.0
30
16757.339335
11
46461.818182
21
2875.0
31
16822.482443
0
LINE
8
ZJ8_TRUSS_LOWER
10
46461.818182
20
2875.0
30
16822.482443
11
48327.272727
21
2875.0
31
16887.625551
0
LINE
8
ZJ8_TRUSS_LOWER
10
48327.272727
20
2875.0
30
16887.625551
11
50192.727273
21
2875.0
31
16952.768659
0
LINE
8
ZJ8_TRUSS_LOWER
10
50192.727273
20
2875.0
30
16952.768659
11
52058.181818
21
2875.0
31
17017.911767
0
LINE
8
ZJ8_TRUSS_LOWER
10
52058.181818
20
2875.0
30
17017.911767
11
53923.636364
21
2875.0
31
17083.054876
0
LINE
8
ZJ8_TRUSS_LOWER
10
53923.636364
20
2875.0
30
17083.054876
11
55789.090909
21
2875.0
31
17148.197984
0
LINE
8
ZJ8_TRUSS_LOWER
10
55789.090909
20
2875.0
30
17148.197984
11
57654.545455
21
2875.0
31
17213.341092
0
LINE
8
ZJ8_TRUSS_LOWER
10
57654.545455
20
2875.0
30
17213.341092
11
59520.0
21
2875.0
31
17278.4842
0
LINE
8
ZJ8_TRUSS_VERTICAL
10
39000.0
20
2875.0
30
18361.91001
11
39000.0
21
2875.0
31
16561.91001
0
LINE
8
ZJ8_TRUSS_VERTICAL
10
40865.454545
20
2875.0
30
18427.053118
11
40865.454545
21
2875.0
31
16627.053118
0
LINE
8
ZJ8_TRUSS_VERTICAL
10
42730.909091
20
2875.0
30
18492.196227
11
42730.909091
21
2875.0
31
16692.196227
0
LINE
8
ZJ8_TRUSS_VERTICAL
10
44596.363636
20
2875.0
30
18557.339335
11
44596.363636
21
2875.0
31
16757.339335
0
LINE
8
ZJ8_TRUSS_VERTICAL
10
46461.818182
20
2875.0
30
18622.482443
11
46461.818182
21
2875.0
31
16822.482443
0
LINE
8
ZJ8_TRUSS_VERTICAL
10
48327.272727
20
2875.0
30
18687.625551
11
48327.272727
21
2875.0
31
16887.625551
0
LINE
8
ZJ8_TRUSS_VERTICAL
10
50192.727273
20
2875.0
30
18752.768659
11
50192.727273
21
2875.0
31
16952.768659
0
LINE
8
ZJ8_TRUSS_VERTICAL
10
52058.181818
20
2875.0
30
18817.911767
11
52058.181818
21
2875.0
31
17017.911767
0
LINE
8
ZJ8_TRUSS_VERTICAL
10
53923.636364
20
2875.0
30
18883.054876
11
53923.636364
21
2875.0
31
17083.054876
0
LINE
8
ZJ8_TRUSS_VERTICAL
10
55789.090909
20
2875.0
30
18948.197984
11
55789.090909
21
2875.0
31
17148.197984
0
LINE
8
ZJ8_TRUSS_VERTICAL
10
57654.545455
20
2875.0
30
19013.341092
11
57654.545455
21
2875.0
31
17213.341092
0
LINE
8
ZJ8_TRUSS_VERTICAL
10
59520.0
20
2875.0
30
19078.4842
11
59520.0
21
2875.0
31
17278.4842
0
LINE
8
ZJ8_TRUSS_DIAGONAL
10
39000.0
20
2875.0
30
16561.91001
11
40865.454545
21
2875.0
31
18427.053118
0
LINE
8
ZJ8_TRUSS_DIAGONAL
10
40865.454545
20
2875.0
30
18427.053118
11
42730.909091
21
2875.0
31
16692.196227
0
LINE
8
ZJ8_TRUSS_DIAGONAL
10
42730.909091
20
2875.0
30
16692.196227
11
44596.363636
21
2875.0
31
18557.339335
0
LINE
8
ZJ8_TRUSS_DIAGONAL
10
44596.363636
20
2875.0
30
18557.339335
11
46461.818182
21
2875.0
31
16822.482443
0
LINE
8
ZJ8_TRUSS_DIAGONAL
10
46461.818182
20
2875.0
30
16822.482443
11
48327.272727
21
2875.0
31
18687.625551
0
LINE
8
ZJ8_TRUSS_DIAGONAL
10
48327.272727
20
2875.0
30
18687.625551
11
50192.727273
21
2875.0
31
16952.768659
0
LINE
8
ZJ8_TRUSS_DIAGONAL
10
50192.727273
20
2875.0
30
16952.768659
11
52058.181818
21
2875.0
31
18817.911767
0
LINE
8
ZJ8_TRUSS_DIAGONAL
10
52058.181818
20
2875.0
30
18817.911767
11
53923.636364
21
2875.0
31
17083.054876
0
LINE
8
ZJ8_TRUSS_DIAGONAL
10
53923.636364
20
2875.0
30
17083.054876
11
55789.090909
21
2875.0
31
18948.197984
0
LINE
8
ZJ8_TRUSS_DIAGONAL
10
55789.090909
20
2875.0
30
18948.197984
11
57654.545455
21
2875.0
31
17213.341092
0
LINE
8
ZJ8_TRUSS_DIAGONAL
10
57654.545455
20
2875.0
30
17213.341092
11
59520.0
21
2875.0
31
19078.4842
0
LINE
8
ZJ8_DECK_MAIN
10
59520.0
20
-2875.0
30
19078.4842
11
62520.0
21
-2875.0
31
19183.246509
0
LINE
8
ZJ8_DECK_MAIN
10
59520.0
20
2875.0
30
19078.4842
11
62520.0
21
2875.0
31
19183.246509
0
LINE
8
ZJ8_DECK_SECONDARY
10
59520.0
20
-1075.0
30
19078.4842
11
62520.0
21
-1075.0
31
19183.246509
0
LINE
8
ZJ8_DECK_SECONDARY
10
59520.0
20
1075.0
30
19078.4842
11
62520.0
21
1075.0
31
19183.246509
0
LINE
8
ZJ8_CANTILEVER_EDGE
10
59520.0
20
-2200.0
30
19078.4842
11
62520.0
21
-2200.0
31
19183.246509
0
LINE
8
ZJ8_CANTILEVER_EDGE
10
59520.0
20
2700.0
30
19078.4842
11
62520.0
21
2700.0
31
19183.246509
0
LINE
8
ZJ8_PLATFORM_BRACE
10
59520.0
20
-2875.0
30
19078.4842
11
62520.0
21
2875.0
31
19183.246509
0
LINE
8
ZJ8_LONGITUDINAL_BRACE
10
59520.0
20
-2875.0
30
0.0
11
62520.0
21
-2875.0
31
19183.246509
0
LINE
8
ZJ8_LONGITUDINAL_BRACE
10
59520.0
20
2875.0
30
0.0
11
62520.0
21
2875.0
31
19183.246509
0
LINE
8
ZJ8_DECK_MAIN
10
62520.0
20
-2875.0
30
19183.246509
11
65520.0
21
-2875.0
31
19288.008817
0
LINE
8
ZJ8_DECK_MAIN
10
65520.0
20
-2875.0
30
19288.008817
11
68520.0
21
-2875.0
31
19392.771126
0
LINE
8
ZJ8_DECK_MAIN
10
68520.0
20
-2875.0
30
19392.771126
11
71520.0
21
-2875.0
31
19497.533434
0
LINE
8
ZJ8_DECK_MAIN
10
71520.0
20
-2875.0
30
19497.533434
11
74520.0
21
-2875.0
31
19602.295743
0
LINE
8
ZJ8_DECK_MAIN
10
62520.0
20
2875.0
30
19183.246509
11
65520.0
21
2875.0
31
19288.008817
0
LINE
8
ZJ8_DECK_MAIN
10
65520.0
20
2875.0
30
19288.008817
11
68520.0
21
2875.0
31
19392.771126
0
LINE
8
ZJ8_DECK_MAIN
10
68520.0
20
2875.0
30
19392.771126
11
71520.0
21
2875.0
31
19497.533434
0
LINE
8
ZJ8_DECK_MAIN
10
71520.0
20
2875.0
30
19497.533434
11
74520.0
21
2875.0
31
19602.295743
0
LINE
8
ZJ8_DECK_CROSS
10
65520.0
20
-2200.0
30
19288.008817
11
65520.0
21
2700.0
31
19288.008817
0
LINE
8
ZJ8_DECK_CROSS
10
68520.0
20
-2200.0
30
19392.771126
11
68520.0
21
2700.0
31
19392.771126
0
LINE
8
ZJ8_DECK_CROSS
10
71520.0
20
-2200.0
30
19497.533434
11
71520.0
21
2700.0
31
19497.533434
0
LINE
8
ZJ8_DECK_SECONDARY
10
62520.0
20
-1075.0
30
19183.246509
11
65520.0
21
-1075.0
31
19288.008817
0
LINE
8
ZJ8_DECK_SECONDARY
10
65520.0
20
-1075.0
30
19288.008817
11
68520.0
21
-1075.0
31
19392.771126
0
LINE
8
ZJ8_DECK_SECONDARY
10
68520.0
20
-1075.0
30
19392.771126
11
71520.0
21
-1075.0
31
19497.533434
0
LINE
8
ZJ8_DECK_SECONDARY
10
71520.0
20
-1075.0
30
19497.533434
11
74520.0
21
-1075.0
31
19602.295743
0
LINE
8
ZJ8_DECK_SECONDARY
10
62520.0
20
1075.0
30
19183.246509
11
65520.0
21
1075.0
31
19288.008817
0
LINE
8
ZJ8_DECK_SECONDARY
10
65520.0
20
1075.0
30
19288.008817
11
68520.0
21
1075.0
31
19392.771126
0
LINE
8
ZJ8_DECK_SECONDARY
10
68520.0
20
1075.0
30
19392.771126
11
71520.0
21
1075.0
31
19497.533434
0
LINE
8
ZJ8_DECK_SECONDARY
10
71520.0
20
1075.0
30
19497.533434
11
74520.0
21
1075.0
31
19602.295743
0
LINE
8
ZJ8_CANTILEVER_EDGE
10
62520.0
20
-2200.0
30
19183.246509
11
65520.0
21
-2200.0
31
19288.008817
0
LINE
8
ZJ8_CANTILEVER_EDGE
10
65520.0
20
-2200.0
30
19288.008817
11
68520.0
21
-2200.0
31
19392.771126
0
LINE
8
ZJ8_CANTILEVER_EDGE
10
68520.0
20
-2200.0
30
19392.771126
11
71520.0
21
-2200.0
31
19497.533434
0
LINE
8
ZJ8_CANTILEVER_EDGE
10
71520.0
20
-2200.0
30
19497.533434
11
74520.0
21
-2200.0
31
19602.295743
0
LINE
8
ZJ8_CANTILEVER_EDGE
10
62520.0
20
2700.0
30
19183.246509
11
65520.0
21
2700.0
31
19288.008817
0
LINE
8
ZJ8_CANTILEVER_EDGE
10
65520.0
20
2700.0
30
19288.008817
11
68520.0
21
2700.0
31
19392.771126
0
LINE
8
ZJ8_CANTILEVER_EDGE
10
68520.0
20
2700.0
30
19392.771126
11
71520.0
21
2700.0
31
19497.533434
0
LINE
8
ZJ8_CANTILEVER_EDGE
10
71520.0
20
2700.0
30
19497.533434
11
74520.0
21
2700.0
31
19602.295743
0
LINE
8
ZJ8_PLATFORM_BRACE
10
62520.0
20
-2875.0
30
19183.246509
11
65520.0
21
2875.0
31
19288.008817
0
LINE
8
ZJ8_PLATFORM_BRACE
10
65520.0
20
2875.0
30
19288.008817
11
68520.0
21
-2875.0
31
19392.771126
0
LINE
8
ZJ8_PLATFORM_BRACE
10
68520.0
20
-2875.0
30
19392.771126
11
71520.0
21
2875.0
31
19497.533434
0
LINE
8
ZJ8_PLATFORM_BRACE
10
71520.0
20
2875.0
30
19497.533434
11
74520.0
21
-2875.0
31
19602.295743
0
LINE
8
ZJ8_DECK_MAIN
10
74520.0
20
-2875.0
30
19602.295743
11
77520.0
21
-2875.0
31
19707.058051
0
LINE
8
ZJ8_DECK_MAIN
10
74520.0
20
2875.0
30
19602.295743
11
77520.0
21
2875.0
31
19707.058051
0
LINE
8
ZJ8_DECK_SECONDARY
10
74520.0
20
-1075.0
30
19602.295743
11
77520.0
21
-1075.0
31
19707.058051
0
LINE
8
ZJ8_DECK_SECONDARY
10
74520.0
20
1075.0
30
19602.295743
11
77520.0
21
1075.0
31
19707.058051
0
LINE
8
ZJ8_CANTILEVER_EDGE
10
74520.0
20
-2200.0
30
19602.295743
11
77520.0
21
-2200.0
31
19707.058051
0
LINE
8
ZJ8_CANTILEVER_EDGE
10
74520.0
20
2700.0
30
19602.295743
11
77520.0
21
2700.0
31
19707.058051
0
LINE
8
ZJ8_PLATFORM_BRACE
10
74520.0
20
-2875.0
30
19602.295743
11
77520.0
21
2875.0
31
19707.058051
0
LINE
8
ZJ8_LONGITUDINAL_BRACE
10
74520.0
20
-2875.0
30
0.0
11
77520.0
21
-2875.0
31
19707.058051
0
LINE
8
ZJ8_LONGITUDINAL_BRACE
10
74520.0
20
2875.0
30
0.0
11
77520.0
21
2875.0
31
19707.058051
0
LINE
8
ZJ8_DECK_MAIN
10
77520.0
20
-2875.0
30
19707.058051
11
80520.0
21
-2875.0
31
19811.820359
0
LINE
8
ZJ8_DECK_MAIN
10
80520.0
20
-2875.0
30
19811.820359
11
83520.0
21
-2875.0
31
19916.582668
0
LINE
8
ZJ8_DECK_MAIN
10
83520.0
20
-2875.0
30
19916.582668
11
86520.0
21
-2875.0
31
20021.344976
0
LINE
8
ZJ8_DECK_MAIN
10
86520.0
20
-2875.0
30
20021.344976
11
89520.0
21
-2875.0
31
20126.107285
0
LINE
8
ZJ8_DECK_MAIN
10
89520.0
20
-2875.0
30
20126.107285
11
92520.0
21
-2875.0
31
20230.869593
0
LINE
8
ZJ8_DECK_MAIN
10
92520.0
20
-2875.0
30
20230.869593
11
95520.0
21
-2875.0
31
20335.631902
0
LINE
8
ZJ8_DECK_MAIN
10
95520.0
20
-2875.0
30
20335.631902
11
98520.0
21
-2875.0
31
20440.39421
0
LINE
8
ZJ8_DECK_MAIN
10
98520.0
20
-2875.0
30
20440.39421
11
101520.0
21
-2875.0
31
20545.156519
0
LINE
8
ZJ8_DECK_MAIN
10
101520.0
20
-2875.0
30
20545.156519
11
104520.0
21
-2875.0
31
20649.918827
0
LINE
8
ZJ8_DECK_MAIN
10
104520.0
20
-2875.0
30
20649.918827
11
107520.0
21
-2875.0
31
20754.681136
0
LINE
8
ZJ8_DECK_MAIN
10
107520.0
20
-2875.0
30
20754.681136
11
110520.0
21
-2875.0
31
20859.443444
0
LINE
8
ZJ8_DECK_MAIN
10
110520.0
20
-2875.0
30
20859.443444
11
113520.0
21
-2875.0
31
20964.205753
0
LINE
8
ZJ8_DECK_MAIN
10
113520.0
20
-2875.0
30
20964.205753
11
116520.0
21
-2875.0
31
21068.968061
0
LINE
8
ZJ8_DECK_MAIN
10
77520.0
20
2875.0
30
19707.058051
11
80520.0
21
2875.0
31
19811.820359
0
LINE
8
ZJ8_DECK_MAIN
10
80520.0
20
2875.0
30
19811.820359
11
83520.0
21
2875.0
31
19916.582668
0
LINE
8
ZJ8_DECK_MAIN
10
83520.0
20
2875.0
30
19916.582668
11
86520.0
21
2875.0
31
20021.344976
0
LINE
8
ZJ8_DECK_MAIN
10
86520.0
20
2875.0
30
20021.344976
11
89520.0
21
2875.0
31
20126.107285
0
LINE
8
ZJ8_DECK_MAIN
10
89520.0
20
2875.0
30
20126.107285
11
92520.0
21
2875.0
31
20230.869593
0
LINE
8
ZJ8_DECK_MAIN
10
92520.0
20
2875.0
30
20230.869593
11
95520.0
21
2875.0
31
20335.631902
0
LINE
8
ZJ8_DECK_MAIN
10
95520.0
20
2875.0
30
20335.631902
11
98520.0
21
2875.0
31
20440.39421
0
LINE
8
ZJ8_DECK_MAIN
10
98520.0
20
2875.0
30
20440.39421
11
101520.0
21
2875.0
31
20545.156519
0
LINE
8
ZJ8_DECK_MAIN
10
101520.0
20
2875.0
30
20545.156519
11
104520.0
21
2875.0
31
20649.918827
0
LINE
8
ZJ8_DECK_MAIN
10
104520.0
20
2875.0
30
20649.918827
11
107520.0
21
2875.0
31
20754.681136
0
LINE
8
ZJ8_DECK_MAIN
10
107520.0
20
2875.0
30
20754.681136
11
110520.0
21
2875.0
31
20859.443444
0
LINE
8
ZJ8_DECK_MAIN
10
110520.0
20
2875.0
30
20859.443444
11
113520.0
21
2875.0
31
20964.205753
0
LINE
8
ZJ8_DECK_MAIN
10
113520.0
20
2875.0
30
20964.205753
11
116520.0
21
2875.0
31
21068.968061
0
LINE
8
ZJ8_DECK_CROSS
10
80520.0
20
-2200.0
30
19811.820359
11
80520.0
21
2700.0
31
19811.820359
0
LINE
8
ZJ8_DECK_CROSS
10
83520.0
20
-2200.0
30
19916.582668
11
83520.0
21
2700.0
31
19916.582668
0
LINE
8
ZJ8_DECK_CROSS
10
86520.0
20
-2200.0
30
20021.344976
11
86520.0
21
2700.0
31
20021.344976
0
LINE
8
ZJ8_DECK_CROSS
10
89520.0
20
-2200.0
30
20126.107285
11
89520.0
21
2700.0
31
20126.107285
0
LINE
8
ZJ8_DECK_CROSS
10
92520.0
20
-2200.0
30
20230.869593
11
92520.0
21
2700.0
31
20230.869593
0
LINE
8
ZJ8_DECK_CROSS
10
95520.0
20
-2200.0
30
20335.631902
11
95520.0
21
2700.0
31
20335.631902
0
LINE
8
ZJ8_DECK_CROSS
10
98520.0
20
-2200.0
30
20440.39421
11
98520.0
21
2700.0
31
20440.39421
0
LINE
8
ZJ8_DECK_CROSS
10
101520.0
20
-2200.0
30
20545.156519
11
101520.0
21
2700.0
31
20545.156519
0
LINE
8
ZJ8_DECK_CROSS
10
104520.0
20
-2200.0
30
20649.918827
11
104520.0
21
2700.0
31
20649.918827
0
LINE
8
ZJ8_DECK_CROSS
10
107520.0
20
-2200.0
30
20754.681136
11
107520.0
21
2700.0
31
20754.681136
0
LINE
8
ZJ8_DECK_CROSS
10
110520.0
20
-2200.0
30
20859.443444
11
110520.0
21
2700.0
31
20859.443444
0
LINE
8
ZJ8_DECK_CROSS
10
113520.0
20
-2200.0
30
20964.205753
11
113520.0
21
2700.0
31
20964.205753
0
LINE
8
ZJ8_DECK_SECONDARY
10
77520.0
20
-1075.0
30
19707.058051
11
80520.0
21
-1075.0
31
19811.820359
0
LINE
8
ZJ8_DECK_SECONDARY
10
80520.0
20
-1075.0
30
19811.820359
11
83520.0
21
-1075.0
31
19916.582668
0
LINE
8
ZJ8_DECK_SECONDARY
10
83520.0
20
-1075.0
30
19916.582668
11
86520.0
21
-1075.0
31
20021.344976
0
LINE
8
ZJ8_DECK_SECONDARY
10
86520.0
20
-1075.0
30
20021.344976
11
89520.0
21
-1075.0
31
20126.107285
0
LINE
8
ZJ8_DECK_SECONDARY
10
89520.0
20
-1075.0
30
20126.107285
11
92520.0
21
-1075.0
31
20230.869593
0
LINE
8
ZJ8_DECK_SECONDARY
10
92520.0
20
-1075.0
30
20230.869593
11
95520.0
21
-1075.0
31
20335.631902
0
LINE
8
ZJ8_DECK_SECONDARY
10
95520.0
20
-1075.0
30
20335.631902
11
98520.0
21
-1075.0
31
20440.39421
0
LINE
8
ZJ8_DECK_SECONDARY
10
98520.0
20
-1075.0
30
20440.39421
11
101520.0
21
-1075.0
31
20545.156519
0
LINE
8
ZJ8_DECK_SECONDARY
10
101520.0
20
-1075.0
30
20545.156519
11
104520.0
21
-1075.0
31
20649.918827
0
LINE
8
ZJ8_DECK_SECONDARY
10
104520.0
20
-1075.0
30
20649.918827
11
107520.0
21
-1075.0
31
20754.681136
0
LINE
8
ZJ8_DECK_SECONDARY
10
107520.0
20
-1075.0
30
20754.681136
11
110520.0
21
-1075.0
31
20859.443444
0
LINE
8
ZJ8_DECK_SECONDARY
10
110520.0
20
-1075.0
30
20859.443444
11
113520.0
21
-1075.0
31
20964.205753
0
LINE
8
ZJ8_DECK_SECONDARY
10
113520.0
20
-1075.0
30
20964.205753
11
116520.0
21
-1075.0
31
21068.968061
0
LINE
8
ZJ8_DECK_SECONDARY
10
77520.0
20
1075.0
30
19707.058051
11
80520.0
21
1075.0
31
19811.820359
0
LINE
8
ZJ8_DECK_SECONDARY
10
80520.0
20
1075.0
30
19811.820359
11
83520.0
21
1075.0
31
19916.582668
0
LINE
8
ZJ8_DECK_SECONDARY
10
83520.0
20
1075.0
30
19916.582668
11
86520.0
21
1075.0
31
20021.344976
0
LINE
8
ZJ8_DECK_SECONDARY
10
86520.0
20
1075.0
30
20021.344976
11
89520.0
21
1075.0
31
20126.107285
0
LINE
8
ZJ8_DECK_SECONDARY
10
89520.0
20
1075.0
30
20126.107285
11
92520.0
21
1075.0
31
20230.869593
0
LINE
8
ZJ8_DECK_SECONDARY
10
92520.0
20
1075.0
30
20230.869593
11
95520.0
21
1075.0
31
20335.631902
0
LINE
8
ZJ8_DECK_SECONDARY
10
95520.0
20
1075.0
30
20335.631902
11
98520.0
21
1075.0
31
20440.39421
0
LINE
8
ZJ8_DECK_SECONDARY
10
98520.0
20
1075.0
30
20440.39421
11
101520.0
21
1075.0
31
20545.156519
0
LINE
8
ZJ8_DECK_SECONDARY
10
101520.0
20
1075.0
30
20545.156519
11
104520.0
21
1075.0
31
20649.918827
0
LINE
8
ZJ8_DECK_SECONDARY
10
104520.0
20
1075.0
30
20649.918827
11
107520.0
21
1075.0
31
20754.681136
0
LINE
8
ZJ8_DECK_SECONDARY
10
107520.0
20
1075.0
30
20754.681136
11
110520.0
21
1075.0
31
20859.443444
0
LINE
8
ZJ8_DECK_SECONDARY
10
110520.0
20
1075.0
30
20859.443444
11
113520.0
21
1075.0
31
20964.205753
0
LINE
8
ZJ8_DECK_SECONDARY
10
113520.0
20
1075.0
30
20964.205753
11
116520.0
21
1075.0
31
21068.968061
0
LINE
8
ZJ8_CANTILEVER_EDGE
10
77520.0
20
-2200.0
30
19707.058051
11
80520.0
21
-2200.0
31
19811.820359
0
LINE
8
ZJ8_CANTILEVER_EDGE
10
80520.0
20
-2200.0
30
19811.820359
11
83520.0
21
-2200.0
31
19916.582668
0
LINE
8
ZJ8_CANTILEVER_EDGE
10
83520.0
20
-2200.0
30
19916.582668
11
86520.0
21
-2200.0
31
20021.344976
0
LINE
8
ZJ8_CANTILEVER_EDGE
10
86520.0
20
-2200.0
30
20021.344976
11
89520.0
21
-2200.0
31
20126.107285
0
LINE
8
ZJ8_CANTILEVER_EDGE
10
89520.0
20
-2200.0
30
20126.107285
11
92520.0
21
-2200.0
31
20230.869593
0
LINE
8
ZJ8_CANTILEVER_EDGE
10
92520.0
20
-2200.0
30
20230.869593
11
95520.0
21
-2200.0
31
20335.631902
0
LINE
8
ZJ8_CANTILEVER_EDGE
10
95520.0
20
-2200.0
30
20335.631902
11
98520.0
21
-2200.0
31
20440.39421
0
LINE
8
ZJ8_CANTILEVER_EDGE
10
98520.0
20
-2200.0
30
20440.39421
11
101520.0
21
-2200.0
31
20545.156519
0
LINE
8
ZJ8_CANTILEVER_EDGE
10
101520.0
20
-2200.0
30
20545.156519
11
104520.0
21
-2200.0
31
20649.918827
0
LINE
8
ZJ8_CANTILEVER_EDGE
10
104520.0
20
-2200.0
30
20649.918827
11
107520.0
21
-2200.0
31
20754.681136
0
LINE
8
ZJ8_CANTILEVER_EDGE
10
107520.0
20
-2200.0
30
20754.681136
11
110520.0
21
-2200.0
31
20859.443444
0
LINE
8
ZJ8_CANTILEVER_EDGE
10
110520.0
20
-2200.0
30
20859.443444
11
113520.0
21
-2200.0
31
20964.205753
0
LINE
8
ZJ8_CANTILEVER_EDGE
10
113520.0
20
-2200.0
30
20964.205753
11
116520.0
21
-2200.0
31
21068.968061
0
LINE
8
ZJ8_CANTILEVER_EDGE
10
77520.0
20
2700.0
30
19707.058051
11
80520.0
21
2700.0
31
19811.820359
0
LINE
8
ZJ8_CANTILEVER_EDGE
10
80520.0
20
2700.0
30
19811.820359
11
83520.0
21
2700.0
31
19916.582668
0
LINE
8
ZJ8_CANTILEVER_EDGE
10
83520.0
20
2700.0
30
19916.582668
11
86520.0
21
2700.0
31
20021.344976
0
LINE
8
ZJ8_CANTILEVER_EDGE
10
86520.0
20
2700.0
30
20021.344976
11
89520.0
21
2700.0
31
20126.107285
0
LINE
8
ZJ8_CANTILEVER_EDGE
10
89520.0
20
2700.0
30
20126.107285
11
92520.0
21
2700.0
31
20230.869593
0
LINE
8
ZJ8_CANTILEVER_EDGE
10
92520.0
20
2700.0
30
20230.869593
11
95520.0
21
2700.0
31
20335.631902
0
LINE
8
ZJ8_CANTILEVER_EDGE
10
95520.0
20
2700.0
30
20335.631902
11
98520.0
21
2700.0
31
20440.39421
0
LINE
8
ZJ8_CANTILEVER_EDGE
10
98520.0
20
2700.0
30
20440.39421
11
101520.0
21
2700.0
31
20545.156519
0
LINE
8
ZJ8_CANTILEVER_EDGE
10
101520.0
20
2700.0
30
20545.156519
11
104520.0
21
2700.0
31
20649.918827
0
LINE
8
ZJ8_CANTILEVER_EDGE
10
104520.0
20
2700.0
30
20649.918827
11
107520.0
21
2700.0
31
20754.681136
0
LINE
8
ZJ8_CANTILEVER_EDGE
10
107520.0
20
2700.0
30
20754.681136
11
110520.0
21
2700.0
31
20859.443444
0
LINE
8
ZJ8_CANTILEVER_EDGE
10
110520.0
20
2700.0
30
20859.443444
11
113520.0
21
2700.0
31
20964.205753
0
LINE
8
ZJ8_CANTILEVER_EDGE
10
113520.0
20
2700.0
30
20964.205753
11
116520.0
21
2700.0
31
21068.968061
0
LINE
8
ZJ8_PLATFORM_BRACE
10
77520.0
20
-2875.0
30
19707.058051
11
80520.0
21
2875.0
31
19811.820359
0
LINE
8
ZJ8_PLATFORM_BRACE
10
80520.0
20
2875.0
30
19811.820359
11
83520.0
21
-2875.0
31
19916.582668
0
LINE
8
ZJ8_PLATFORM_BRACE
10
83520.0
20
-2875.0
30
19916.582668
11
86520.0
21
2875.0
31
20021.344976
0
LINE
8
ZJ8_PLATFORM_BRACE
10
86520.0
20
2875.0
30
20021.344976
11
89520.0
21
-2875.0
31
20126.107285
0
LINE
8
ZJ8_PLATFORM_BRACE
10
89520.0
20
-2875.0
30
20126.107285
11
92520.0
21
2875.0
31
20230.869593
0
LINE
8
ZJ8_PLATFORM_BRACE
10
92520.0
20
2875.0
30
20230.869593
11
95520.0
21
-2875.0
31
20335.631902
0
LINE
8
ZJ8_PLATFORM_BRACE
10
95520.0
20
-2875.0
30
20335.631902
11
98520.0
21
2875.0
31
20440.39421
0
LINE
8
ZJ8_PLATFORM_BRACE
10
98520.0
20
2875.0
30
20440.39421
11
101520.0
21
-2875.0
31
20545.156519
0
LINE
8
ZJ8_PLATFORM_BRACE
10
101520.0
20
-2875.0
30
20545.156519
11
104520.0
21
2875.0
31
20649.918827
0
LINE
8
ZJ8_PLATFORM_BRACE
10
104520.0
20
2875.0
30
20649.918827
11
107520.0
21
-2875.0
31
20754.681136
0
LINE
8
ZJ8_PLATFORM_BRACE
10
107520.0
20
-2875.0
30
20754.681136
11
110520.0
21
2875.0
31
20859.443444
0
LINE
8
ZJ8_PLATFORM_BRACE
10
110520.0
20
2875.0
30
20859.443444
11
113520.0
21
-2875.0
31
20964.205753
0
LINE
8
ZJ8_PLATFORM_BRACE
10
113520.0
20
-2875.0
30
20964.205753
11
116520.0
21
2875.0
31
21068.968061
0
LINE
8
ZJ8_TRUSS_UPPER
10
77520.0
20
-2875.0
30
19707.058051
11
79470.0
21
-2875.0
31
19775.153552
0
LINE
8
ZJ8_TRUSS_UPPER
10
79470.0
20
-2875.0
30
19775.153552
11
81420.0
21
-2875.0
31
19843.249052
0
LINE
8
ZJ8_TRUSS_UPPER
10
81420.0
20
-2875.0
30
19843.249052
11
83370.0
21
-2875.0
31
19911.344553
0
LINE
8
ZJ8_TRUSS_UPPER
10
83370.0
20
-2875.0
30
19911.344553
11
85320.0
21
-2875.0
31
19979.440053
0
LINE
8
ZJ8_TRUSS_UPPER
10
85320.0
20
-2875.0
30
19979.440053
11
87270.0
21
-2875.0
31
20047.535554
0
LINE
8
ZJ8_TRUSS_UPPER
10
87270.0
20
-2875.0
30
20047.535554
11
89220.0
21
-2875.0
31
20115.631054
0
LINE
8
ZJ8_TRUSS_UPPER
10
89220.0
20
-2875.0
30
20115.631054
11
91170.0
21
-2875.0
31
20183.726555
0
LINE
8
ZJ8_TRUSS_UPPER
10
91170.0
20
-2875.0
30
20183.726555
11
93120.0
21
-2875.0
31
20251.822055
0
LINE
8
ZJ8_TRUSS_UPPER
10
93120.0
20
-2875.0
30
20251.822055
11
95070.0
21
-2875.0
31
20319.917556
0
LINE
8
ZJ8_TRUSS_UPPER
10
95070.0
20
-2875.0
30
20319.917556
11
97020.0
21
-2875.0
31
20388.013056
0
LINE
8
ZJ8_TRUSS_UPPER
10
97020.0
20
-2875.0
30
20388.013056
11
98970.0
21
-2875.0
31
20456.108557
0
LINE
8
ZJ8_TRUSS_UPPER
10
98970.0
20
-2875.0
30
20456.108557
11
100920.0
21
-2875.0
31
20524.204057
0
LINE
8
ZJ8_TRUSS_UPPER
10
100920.0
20
-2875.0
30
20524.204057
11
102870.0
21
-2875.0
31
20592.299558
0
LINE
8
ZJ8_TRUSS_UPPER
10
102870.0
20
-2875.0
30
20592.299558
11
104820.0
21
-2875.0
31
20660.395058
0
LINE
8
ZJ8_TRUSS_UPPER
10
104820.0
20
-2875.0
30
20660.395058
11
106770.0
21
-2875.0
31
20728.490559
0
LINE
8
ZJ8_TRUSS_UPPER
10
106770.0
20
-2875.0
30
20728.490559
11
108720.0
21
-2875.0
31
20796.586059
0
LINE
8
ZJ8_TRUSS_UPPER
10
108720.0
20
-2875.0
30
20796.586059
11
110670.0
21
-2875.0
31
20864.68156
0
LINE
8
ZJ8_TRUSS_UPPER
10
110670.0
20
-2875.0
30
20864.68156
11
112620.0
21
-2875.0
31
20932.77706
0
LINE
8
ZJ8_TRUSS_UPPER
10
112620.0
20
-2875.0
30
20932.77706
11
114570.0
21
-2875.0
31
21000.872561
0
LINE
8
ZJ8_TRUSS_UPPER
10
114570.0
20
-2875.0
30
21000.872561
11
116520.0
21
-2875.0
31
21068.968061
0
LINE
8
ZJ8_TRUSS_LOWER
10
77520.0
20
-2875.0
30
17907.058051
11
79470.0
21
-2875.0
31
17975.153552
0
LINE
8
ZJ8_TRUSS_LOWER
10
79470.0
20
-2875.0
30
17975.153552
11
81420.0
21
-2875.0
31
18043.249052
0
LINE
8
ZJ8_TRUSS_LOWER
10
81420.0
20
-2875.0
30
18043.249052
11
83370.0
21
-2875.0
31
18111.344553
0
LINE
8
ZJ8_TRUSS_LOWER
10
83370.0
20
-2875.0
30
18111.344553
11
85320.0
21
-2875.0
31
18179.440053
0
LINE
8
ZJ8_TRUSS_LOWER
10
85320.0
20
-2875.0
30
18179.440053
11
87270.0
21
-2875.0
31
18247.535554
0
LINE
8
ZJ8_TRUSS_LOWER
10
87270.0
20
-2875.0
30
18247.535554
11
89220.0
21
-2875.0
31
18315.631054
0
LINE
8
ZJ8_TRUSS_LOWER
10
89220.0
20
-2875.0
30
18315.631054
11
91170.0
21
-2875.0
31
18383.726555
0
LINE
8
ZJ8_TRUSS_LOWER
10
91170.0
20
-2875.0
30
18383.726555
11
93120.0
21
-2875.0
31
18451.822055
0
LINE
8
ZJ8_TRUSS_LOWER
10
93120.0
20
-2875.0
30
18451.822055
11
95070.0
21
-2875.0
31
18519.917556
0
LINE
8
ZJ8_TRUSS_LOWER
10
95070.0
20
-2875.0
30
18519.917556
11
97020.0
21
-2875.0
31
18588.013056
0
LINE
8
ZJ8_TRUSS_LOWER
10
97020.0
20
-2875.0
30
18588.013056
11
98970.0
21
-2875.0
31
18656.108557
0
LINE
8
ZJ8_TRUSS_LOWER
10
98970.0
20
-2875.0
30
18656.108557
11
100920.0
21
-2875.0
31
18724.204057
0
LINE
8
ZJ8_TRUSS_LOWER
10
100920.0
20
-2875.0
30
18724.204057
11
102870.0
21
-2875.0
31
18792.299558
0
LINE
8
ZJ8_TRUSS_LOWER
10
102870.0
20
-2875.0
30
18792.299558
11
104820.0
21
-2875.0
31
18860.395058
0
LINE
8
ZJ8_TRUSS_LOWER
10
104820.0
20
-2875.0
30
18860.395058
11
106770.0
21
-2875.0
31
18928.490559
0
LINE
8
ZJ8_TRUSS_LOWER
10
106770.0
20
-2875.0
30
18928.490559
11
108720.0
21
-2875.0
31
18996.586059
0
LINE
8
ZJ8_TRUSS_LOWER
10
108720.0
20
-2875.0
30
18996.586059
11
110670.0
21
-2875.0
31
19064.68156
0
LINE
8
ZJ8_TRUSS_LOWER
10
110670.0
20
-2875.0
30
19064.68156
11
112620.0
21
-2875.0
31
19132.77706
0
LINE
8
ZJ8_TRUSS_LOWER
10
112620.0
20
-2875.0
30
19132.77706
11
114570.0
21
-2875.0
31
19200.872561
0
LINE
8
ZJ8_TRUSS_LOWER
10
114570.0
20
-2875.0
30
19200.872561
11
116520.0
21
-2875.0
31
19268.968061
0
LINE
8
ZJ8_TRUSS_VERTICAL
10
77520.0
20
-2875.0
30
19707.058051
11
77520.0
21
-2875.0
31
17907.058051
0
LINE
8
ZJ8_TRUSS_VERTICAL
10
79470.0
20
-2875.0
30
19775.153552
11
79470.0
21
-2875.0
31
17975.153552
0
LINE
8
ZJ8_TRUSS_VERTICAL
10
81420.0
20
-2875.0
30
19843.249052
11
81420.0
21
-2875.0
31
18043.249052
0
LINE
8
ZJ8_TRUSS_VERTICAL
10
83370.0
20
-2875.0
30
19911.344553
11
83370.0
21
-2875.0
31
18111.344553
0
LINE
8
ZJ8_TRUSS_VERTICAL
10
85320.0
20
-2875.0
30
19979.440053
11
85320.0
21
-2875.0
31
18179.440053
0
LINE
8
ZJ8_TRUSS_VERTICAL
10
87270.0
20
-2875.0
30
20047.535554
11
87270.0
21
-2875.0
31
18247.535554
0
LINE
8
ZJ8_TRUSS_VERTICAL
10
89220.0
20
-2875.0
30
20115.631054
11
89220.0
21
-2875.0
31
18315.631054
0
LINE
8
ZJ8_TRUSS_VERTICAL
10
91170.0
20
-2875.0
30
20183.726555
11
91170.0
21
-2875.0
31
18383.726555
0
LINE
8
ZJ8_TRUSS_VERTICAL
10
93120.0
20
-2875.0
30
20251.822055
11
93120.0
21
-2875.0
31
18451.822055
0
LINE
8
ZJ8_TRUSS_VERTICAL
10
95070.0
20
-2875.0
30
20319.917556
11
95070.0
21
-2875.0
31
18519.917556
0
LINE
8
ZJ8_TRUSS_VERTICAL
10
97020.0
20
-2875.0
30
20388.013056
11
97020.0
21
-2875.0
31
18588.013056
0
LINE
8
ZJ8_TRUSS_VERTICAL
10
98970.0
20
-2875.0
30
20456.108557
11
98970.0
21
-2875.0
31
18656.108557
0
LINE
8
ZJ8_TRUSS_VERTICAL
10
100920.0
20
-2875.0
30
20524.204057
11
100920.0
21
-2875.0
31
18724.204057
0
LINE
8
ZJ8_TRUSS_VERTICAL
10
102870.0
20
-2875.0
30
20592.299558
11
102870.0
21
-2875.0
31
18792.299558
0
LINE
8
ZJ8_TRUSS_VERTICAL
10
104820.0
20
-2875.0
30
20660.395058
11
104820.0
21
-2875.0
31
18860.395058
0
LINE
8
ZJ8_TRUSS_VERTICAL
10
106770.0
20
-2875.0
30
20728.490559
11
106770.0
21
-2875.0
31
18928.490559
0
LINE
8
ZJ8_TRUSS_VERTICAL
10
108720.0
20
-2875.0
30
20796.586059
11
108720.0
21
-2875.0
31
18996.586059
0
LINE
8
ZJ8_TRUSS_VERTICAL
10
110670.0
20
-2875.0
30
20864.68156
11
110670.0
21
-2875.0
31
19064.68156
0
LINE
8
ZJ8_TRUSS_VERTICAL
10
112620.0
20
-2875.0
30
20932.77706
11
112620.0
21
-2875.0
31
19132.77706
0
LINE
8
ZJ8_TRUSS_VERTICAL
10
114570.0
20
-2875.0
30
21000.872561
11
114570.0
21
-2875.0
31
19200.872561
0
LINE
8
ZJ8_TRUSS_VERTICAL
10
116520.0
20
-2875.0
30
21068.968061
11
116520.0
21
-2875.0
31
19268.968061
0
LINE
8
ZJ8_TRUSS_DIAGONAL
10
77520.0
20
-2875.0
30
17907.058051
11
79470.0
21
-2875.0
31
19775.153552
0
LINE
8
ZJ8_TRUSS_DIAGONAL
10
79470.0
20
-2875.0
30
19775.153552
11
81420.0
21
-2875.0
31
18043.249052
0
LINE
8
ZJ8_TRUSS_DIAGONAL
10
81420.0
20
-2875.0
30
18043.249052
11
83370.0
21
-2875.0
31
19911.344553
0
LINE
8
ZJ8_TRUSS_DIAGONAL
10
83370.0
20
-2875.0
30
19911.344553
11
85320.0
21
-2875.0
31
18179.440053
0
LINE
8
ZJ8_TRUSS_DIAGONAL
10
85320.0
20
-2875.0
30
18179.440053
11
87270.0
21
-2875.0
31
20047.535554
0
LINE
8
ZJ8_TRUSS_DIAGONAL
10
87270.0
20
-2875.0
30
20047.535554
11
89220.0
21
-2875.0
31
18315.631054
0
LINE
8
ZJ8_TRUSS_DIAGONAL
10
89220.0
20
-2875.0
30
18315.631054
11
91170.0
21
-2875.0
31
20183.726555
0
LINE
8
ZJ8_TRUSS_DIAGONAL
10
91170.0
20
-2875.0
30
20183.726555
11
93120.0
21
-2875.0
31
18451.822055
0
LINE
8
ZJ8_TRUSS_DIAGONAL
10
93120.0
20
-2875.0
30
18451.822055
11
95070.0
21
-2875.0
31
20319.917556
0
LINE
8
ZJ8_TRUSS_DIAGONAL
10
95070.0
20
-2875.0
30
20319.917556
11
97020.0
21
-2875.0
31
18588.013056
0
LINE
8
ZJ8_TRUSS_DIAGONAL
10
97020.0
20
-2875.0
30
18588.013056
11
98970.0
21
-2875.0
31
20456.108557
0
LINE
8
ZJ8_TRUSS_DIAGONAL
10
98970.0
20
-2875.0
30
20456.108557
11
100920.0
21
-2875.0
31
18724.204057
0
LINE
8
ZJ8_TRUSS_DIAGONAL
10
100920.0
20
-2875.0
30
18724.204057
11
102870.0
21
-2875.0
31
20592.299558
0
LINE
8
ZJ8_TRUSS_DIAGONAL
10
102870.0
20
-2875.0
30
20592.299558
11
104820.0
21
-2875.0
31
18860.395058
0
LINE
8
ZJ8_TRUSS_DIAGONAL
10
104820.0
20
-2875.0
30
18860.395058
11
106770.0
21
-2875.0
31
20728.490559
0
LINE
8
ZJ8_TRUSS_DIAGONAL
10
106770.0
20
-2875.0
30
20728.490559
11
108720.0
21
-2875.0
31
18996.586059
0
LINE
8
ZJ8_TRUSS_DIAGONAL
10
108720.0
20
-2875.0
30
18996.586059
11
110670.0
21
-2875.0
31
20864.68156
0
LINE
8
ZJ8_TRUSS_DIAGONAL
10
110670.0
20
-2875.0
30
20864.68156
11
112620.0
21
-2875.0
31
19132.77706
0
LINE
8
ZJ8_TRUSS_DIAGONAL
10
112620.0
20
-2875.0
30
19132.77706
11
114570.0
21
-2875.0
31
21000.872561
0
LINE
8
ZJ8_TRUSS_DIAGONAL
10
114570.0
20
-2875.0
30
21000.872561
11
116520.0
21
-2875.0
31
19268.968061
0
LINE
8
ZJ8_TRUSS_UPPER
10
77520.0
20
2875.0
30
19707.058051
11
79470.0
21
2875.0
31
19775.153552
0
LINE
8
ZJ8_TRUSS_UPPER
10
79470.0
20
2875.0
30
19775.153552
11
81420.0
21
2875.0
31
19843.249052
0
LINE
8
ZJ8_TRUSS_UPPER
10
81420.0
20
2875.0
30
19843.249052
11
83370.0
21
2875.0
31
19911.344553
0
LINE
8
ZJ8_TRUSS_UPPER
10
83370.0
20
2875.0
30
19911.344553
11
85320.0
21
2875.0
31
19979.440053
0
LINE
8
ZJ8_TRUSS_UPPER
10
85320.0
20
2875.0
30
19979.440053
11
87270.0
21
2875.0
31
20047.535554
0
LINE
8
ZJ8_TRUSS_UPPER
10
87270.0
20
2875.0
30
20047.535554
11
89220.0
21
2875.0
31
20115.631054
0
LINE
8
ZJ8_TRUSS_UPPER
10
89220.0
20
2875.0
30
20115.631054
11
91170.0
21
2875.0
31
20183.726555
0
LINE
8
ZJ8_TRUSS_UPPER
10
91170.0
20
2875.0
30
20183.726555
11
93120.0
21
2875.0
31
20251.822055
0
LINE
8
ZJ8_TRUSS_UPPER
10
93120.0
20
2875.0
30
20251.822055
11
95070.0
21
2875.0
31
20319.917556
0
LINE
8
ZJ8_TRUSS_UPPER
10
95070.0
20
2875.0
30
20319.917556
11
97020.0
21
2875.0
31
20388.013056
0
LINE
8
ZJ8_TRUSS_UPPER
10
97020.0
20
2875.0
30
20388.013056
11
98970.0
21
2875.0
31
20456.108557
0
LINE
8
ZJ8_TRUSS_UPPER
10
98970.0
20
2875.0
30
20456.108557
11
100920.0
21
2875.0
31
20524.204057
0
LINE
8
ZJ8_TRUSS_UPPER
10
100920.0
20
2875.0
30
20524.204057
11
102870.0
21
2875.0
31
20592.299558
0
LINE
8
ZJ8_TRUSS_UPPER
10
102870.0
20
2875.0
30
20592.299558
11
104820.0
21
2875.0
31
20660.395058
0
LINE
8
ZJ8_TRUSS_UPPER
10
104820.0
20
2875.0
30
20660.395058
11
106770.0
21
2875.0
31
20728.490559
0
LINE
8
ZJ8_TRUSS_UPPER
10
106770.0
20
2875.0
30
20728.490559
11
108720.0
21
2875.0
31
20796.586059
0
LINE
8
ZJ8_TRUSS_UPPER
10
108720.0
20
2875.0
30
20796.586059
11
110670.0
21
2875.0
31
20864.68156
0
LINE
8
ZJ8_TRUSS_UPPER
10
110670.0
20
2875.0
30
20864.68156
11
112620.0
21
2875.0
31
20932.77706
0
LINE
8
ZJ8_TRUSS_UPPER
10
112620.0
20
2875.0
30
20932.77706
11
114570.0
21
2875.0
31
21000.872561
0
LINE
8
ZJ8_TRUSS_UPPER
10
114570.0
20
2875.0
30
21000.872561
11
116520.0
21
2875.0
31
21068.968061
0
LINE
8
ZJ8_TRUSS_LOWER
10
77520.0
20
2875.0
30
17907.058051
11
79470.0
21
2875.0
31
17975.153552
0
LINE
8
ZJ8_TRUSS_LOWER
10
79470.0
20
2875.0
30
17975.153552
11
81420.0
21
2875.0
31
18043.249052
0
LINE
8
ZJ8_TRUSS_LOWER
10
81420.0
20
2875.0
30
18043.249052
11
83370.0
21
2875.0
31
18111.344553
0
LINE
8
ZJ8_TRUSS_LOWER
10
83370.0
20
2875.0
30
18111.344553
11
85320.0
21
2875.0
31
18179.440053
0
LINE
8
ZJ8_TRUSS_LOWER
10
85320.0
20
2875.0
30
18179.440053
11
87270.0
21
2875.0
31
18247.535554
0
LINE
8
ZJ8_TRUSS_LOWER
10
87270.0
20
2875.0
30
18247.535554
11
89220.0
21
2875.0
31
18315.631054
0
LINE
8
ZJ8_TRUSS_LOWER
10
89220.0
20
2875.0
30
18315.631054
11
91170.0
21
2875.0
31
18383.726555
0
LINE
8
ZJ8_TRUSS_LOWER
10
91170.0
20
2875.0
30
18383.726555
11
93120.0
21
2875.0
31
18451.822055
0
LINE
8
ZJ8_TRUSS_LOWER
10
93120.0
20
2875.0
30
18451.822055
11
95070.0
21
2875.0
31
18519.917556
0
LINE
8
ZJ8_TRUSS_LOWER
10
95070.0
20
2875.0
30
18519.917556
11
97020.0
21
2875.0
31
18588.013056
0
LINE
8
ZJ8_TRUSS_LOWER
10
97020.0
20
2875.0
30
18588.013056
11
98970.0
21
2875.0
31
18656.108557
0
LINE
8
ZJ8_TRUSS_LOWER
10
98970.0
20
2875.0
30
18656.108557
11
100920.0
21
2875.0
31
18724.204057
0
LINE
8
ZJ8_TRUSS_LOWER
10
100920.0
20
2875.0
30
18724.204057
11
102870.0
21
2875.0
31
18792.299558
0
LINE
8
ZJ8_TRUSS_LOWER
10
102870.0
20
2875.0
30
18792.299558
11
104820.0
21
2875.0
31
18860.395058
0
LINE
8
ZJ8_TRUSS_LOWER
10
104820.0
20
2875.0
30
18860.395058
11
106770.0
21
2875.0
31
18928.490559
0
LINE
8
ZJ8_TRUSS_LOWER
10
106770.0
20
2875.0
30
18928.490559
11
108720.0
21
2875.0
31
18996.586059
0
LINE
8
ZJ8_TRUSS_LOWER
10
108720.0
20
2875.0
30
18996.586059
11
110670.0
21
2875.0
31
19064.68156
0
LINE
8
ZJ8_TRUSS_LOWER
10
110670.0
20
2875.0
30
19064.68156
11
112620.0
21
2875.0
31
19132.77706
0
LINE
8
ZJ8_TRUSS_LOWER
10
112620.0
20
2875.0
30
19132.77706
11
114570.0
21
2875.0
31
19200.872561
0
LINE
8
ZJ8_TRUSS_LOWER
10
114570.0
20
2875.0
30
19200.872561
11
116520.0
21
2875.0
31
19268.968061
0
LINE
8
ZJ8_TRUSS_VERTICAL
10
77520.0
20
2875.0
30
19707.058051
11
77520.0
21
2875.0
31
17907.058051
0
LINE
8
ZJ8_TRUSS_VERTICAL
10
79470.0
20
2875.0
30
19775.153552
11
79470.0
21
2875.0
31
17975.153552
0
LINE
8
ZJ8_TRUSS_VERTICAL
10
81420.0
20
2875.0
30
19843.249052
11
81420.0
21
2875.0
31
18043.249052
0
LINE
8
ZJ8_TRUSS_VERTICAL
10
83370.0
20
2875.0
30
19911.344553
11
83370.0
21
2875.0
31
18111.344553
0
LINE
8
ZJ8_TRUSS_VERTICAL
10
85320.0
20
2875.0
30
19979.440053
11
85320.0
21
2875.0
31
18179.440053
0
LINE
8
ZJ8_TRUSS_VERTICAL
10
87270.0
20
2875.0
30
20047.535554
11
87270.0
21
2875.0
31
18247.535554
0
LINE
8
ZJ8_TRUSS_VERTICAL
10
89220.0
20
2875.0
30
20115.631054
11
89220.0
21
2875.0
31
18315.631054
0
LINE
8
ZJ8_TRUSS_VERTICAL
10
91170.0
20
2875.0
30
20183.726555
11
91170.0
21
2875.0
31
18383.726555
0
LINE
8
ZJ8_TRUSS_VERTICAL
10
93120.0
20
2875.0
30
20251.822055
11
93120.0
21
2875.0
31
18451.822055
0
LINE
8
ZJ8_TRUSS_VERTICAL
10
95070.0
20
2875.0
30
20319.917556
11
95070.0
21
2875.0
31
18519.917556
0
LINE
8
ZJ8_TRUSS_VERTICAL
10
97020.0
20
2875.0
30
20388.013056
11
97020.0
21
2875.0
31
18588.013056
0
LINE
8
ZJ8_TRUSS_VERTICAL
10
98970.0
20
2875.0
30
20456.108557
11
98970.0
21
2875.0
31
18656.108557
0
LINE
8
ZJ8_TRUSS_VERTICAL
10
100920.0
20
2875.0
30
20524.204057
11
100920.0
21
2875.0
31
18724.204057
0
LINE
8
ZJ8_TRUSS_VERTICAL
10
102870.0
20
2875.0
30
20592.299558
11
102870.0
21
2875.0
31
18792.299558
0
LINE
8
ZJ8_TRUSS_VERTICAL
10
104820.0
20
2875.0
30
20660.395058
11
104820.0
21
2875.0
31
18860.395058
0
LINE
8
ZJ8_TRUSS_VERTICAL
10
106770.0
20
2875.0
30
20728.490559
11
106770.0
21
2875.0
31
18928.490559
0
LINE
8
ZJ8_TRUSS_VERTICAL
10
108720.0
20
2875.0
30
20796.586059
11
108720.0
21
2875.0
31
18996.586059
0
LINE
8
ZJ8_TRUSS_VERTICAL
10
110670.0
20
2875.0
30
20864.68156
11
110670.0
21
2875.0
31
19064.68156
0
LINE
8
ZJ8_TRUSS_VERTICAL
10
112620.0
20
2875.0
30
20932.77706
11
112620.0
21
2875.0
31
19132.77706
0
LINE
8
ZJ8_TRUSS_VERTICAL
10
114570.0
20
2875.0
30
21000.872561
11
114570.0
21
2875.0
31
19200.872561
0
LINE
8
ZJ8_TRUSS_VERTICAL
10
116520.0
20
2875.0
30
21068.968061
11
116520.0
21
2875.0
31
19268.968061
0
LINE
8
ZJ8_TRUSS_DIAGONAL
10
77520.0
20
2875.0
30
17907.058051
11
79470.0
21
2875.0
31
19775.153552
0
LINE
8
ZJ8_TRUSS_DIAGONAL
10
79470.0
20
2875.0
30
19775.153552
11
81420.0
21
2875.0
31
18043.249052
0
LINE
8
ZJ8_TRUSS_DIAGONAL
10
81420.0
20
2875.0
30
18043.249052
11
83370.0
21
2875.0
31
19911.344553
0
LINE
8
ZJ8_TRUSS_DIAGONAL
10
83370.0
20
2875.0
30
19911.344553
11
85320.0
21
2875.0
31
18179.440053
0
LINE
8
ZJ8_TRUSS_DIAGONAL
10
85320.0
20
2875.0
30
18179.440053
11
87270.0
21
2875.0
31
20047.535554
0
LINE
8
ZJ8_TRUSS_DIAGONAL
10
87270.0
20
2875.0
30
20047.535554
11
89220.0
21
2875.0
31
18315.631054
0
LINE
8
ZJ8_TRUSS_DIAGONAL
10
89220.0
20
2875.0
30
18315.631054
11
91170.0
21
2875.0
31
20183.726555
0
LINE
8
ZJ8_TRUSS_DIAGONAL
10
91170.0
20
2875.0
30
20183.726555
11
93120.0
21
2875.0
31
18451.822055
0
LINE
8
ZJ8_TRUSS_DIAGONAL
10
93120.0
20
2875.0
30
18451.822055
11
95070.0
21
2875.0
31
20319.917556
0
LINE
8
ZJ8_TRUSS_DIAGONAL
10
95070.0
20
2875.0
30
20319.917556
11
97020.0
21
2875.0
31
18588.013056
0
LINE
8
ZJ8_TRUSS_DIAGONAL
10
97020.0
20
2875.0
30
18588.013056
11
98970.0
21
2875.0
31
20456.108557
0
LINE
8
ZJ8_TRUSS_DIAGONAL
10
98970.0
20
2875.0
30
20456.108557
11
100920.0
21
2875.0
31
18724.204057
0
LINE
8
ZJ8_TRUSS_DIAGONAL
10
100920.0
20
2875.0
30
18724.204057
11
102870.0
21
2875.0
31
20592.299558
0
LINE
8
ZJ8_TRUSS_DIAGONAL
10
102870.0
20
2875.0
30
20592.299558
11
104820.0
21
2875.0
31
18860.395058
0
LINE
8
ZJ8_TRUSS_DIAGONAL
10
104820.0
20
2875.0
30
18860.395058
11
106770.0
21
2875.0
31
20728.490559
0
LINE
8
ZJ8_TRUSS_DIAGONAL
10
106770.0
20
2875.0
30
20728.490559
11
108720.0
21
2875.0
31
18996.586059
0
LINE
8
ZJ8_TRUSS_DIAGONAL
10
108720.0
20
2875.0
30
18996.586059
11
110670.0
21
2875.0
31
20864.68156
0
LINE
8
ZJ8_TRUSS_DIAGONAL
10
110670.0
20
2875.0
30
20864.68156
11
112620.0
21
2875.0
31
19132.77706
0
LINE
8
ZJ8_TRUSS_DIAGONAL
10
112620.0
20
2875.0
30
19132.77706
11
114570.0
21
2875.0
31
21000.872561
0
LINE
8
ZJ8_TRUSS_DIAGONAL
10
114570.0
20
2875.0
30
21000.872561
11
116520.0
21
2875.0
31
19268.968061
0
LINE
8
ZJ8_DECK_MAIN
10
116520.0
20
-2875.0
30
21068.968061
11
119520.0
21
-2875.0
31
21173.73037
0
LINE
8
ZJ8_DECK_MAIN
10
116520.0
20
2875.0
30
21068.968061
11
119520.0
21
2875.0
31
21173.73037
0
LINE
8
ZJ8_DECK_SECONDARY
10
116520.0
20
-1075.0
30
21068.968061
11
119520.0
21
-1075.0
31
21173.73037
0
LINE
8
ZJ8_DECK_SECONDARY
10
116520.0
20
1075.0
30
21068.968061
11
119520.0
21
1075.0
31
21173.73037
0
LINE
8
ZJ8_CANTILEVER_EDGE
10
116520.0
20
-2200.0
30
21068.968061
11
119520.0
21
-2200.0
31
21173.73037
0
LINE
8
ZJ8_CANTILEVER_EDGE
10
116520.0
20
2700.0
30
21068.968061
11
119520.0
21
2700.0
31
21173.73037
0
LINE
8
ZJ8_PLATFORM_BRACE
10
116520.0
20
-2875.0
30
21068.968061
11
119520.0
21
2875.0
31
21173.73037
0
LINE
8
ZJ8_LONGITUDINAL_BRACE
10
116520.0
20
-2875.0
30
0.0
11
119520.0
21
-2875.0
31
21173.73037
0
LINE
8
ZJ8_LONGITUDINAL_BRACE
10
116520.0
20
2875.0
30
0.0
11
119520.0
21
2875.0
31
21173.73037
0
LINE
8
ZJ8_SPLICE_JOINT
10
39000.0
20
-3675.0
30
0.0
11
39000.0
21
3675.0
31
25173.730369653687
0
TEXT
8
ZJ8_SPLICE_TEXT
10
39250.0
20
3975.0
30
25173.730369653687
40
450.0
1
SPLICE P1/P2
0
LINE
8
ZJ8_SPLICE_JOINT
10
77520.0
20
-3675.0
30
0.0
11
77520.0
21
3675.0
31
25173.730369653687
0
TEXT
8
ZJ8_SPLICE_TEXT
10
77770.0
20
3975.0
30
25173.730369653687
40
450.0
1
SPLICE P2/P3
0
ENDSEC
0
EOF
