0
SECTION
2
HEADER
9
$INSUNITS
70
4
0
ENDSEC
0
SECTION
2
TABLES
0
TABLE
2
LAYER
70
11
0
LAYER
2
visible
70
0
62
7
6
CONTINUOUS
0
LAYER
2
dimension
70
0
62
3
6
CONTINUOUS
0
LAYER
2
center
70
0
62
5
6
CENTER
0
LAYER
2
annotation
70
0
62
2
6
CONTINUOUS
0
LAYER
2
title
70
0
62
7
6
CONTINUOUS
0
LAYER
2
main
70
0
62
4
6
CONTINUOUS
0
LAYER
2
secondary
70
0
62
3
6
CONTINUOUS
0
LAYER
2
brace
70
0
62
1
6
CONTINUOUS
0
LAYER
2
column
70
0
62
8
6
CONTINUOUS
0
LAYER
2
truss
70
0
62
5
6
CONTINUOUS
0
LAYER
2
standard
70
0
62
2
6
CONTINUOUS
0
ENDTAB
0
ENDSEC
0
SECTION
2
ENTITIES
0
LINE
8
title
10
10
20
10
30
0
11
1179
21
10
31
0
0
LINE
8
title
10
1179
20
10
30
0
11
1179
21
831
31
0
0
LINE
8
title
10
1179
20
831
30
0
11
10
21
831
31
0
0
LINE
8
title
10
10
20
831
30
0
11
10
21
10
31
0
0
TEXT
8
title
10
35
20
780
30
0
40
5
1
A-A 立面图
0
LINE
8
title
10
35
20
778
30
0
11
153
21
778
31
0
0
LINE
8
column
10
45
20
650
30
0
11
45
21
667
31
0
0
LINE
8
column
10
45
20
667
30
0
11
45
21
684
31
0
0
LINE
8
column
10
45
20
684
30
0
11
45
21
701
31
0
0
LINE
8
column
10
45
20
701
30
0
11
45
21
718
31
0
0
LINE
8
column
10
45
20
650
30
0
11
45
21
667
31
0
0
LINE
8
column
10
45
20
667
30
0
11
45
21
684
31
0
0
LINE
8
column
10
45
20
684
30
0
11
45
21
701
31
0
0
LINE
8
column
10
45
20
701
30
0
11
45
21
718
31
0
0
LINE
8
secondary
10
45
20
718
30
0
11
45
21
718
31
0
0
LINE
8
brace
10
45
20
650
30
0
11
45
21
718
31
0
0
LINE
8
brace
10
45
20
650
30
0
11
45
21
718
31
0
0
LINE
8
column
10
93
20
650
30
0
11
93
21
667
31
0
0
LINE
8
column
10
93
20
667
30
0
11
93
21
684
31
0
0
LINE
8
column
10
93
20
684
30
0
11
93
21
701
31
0
0
LINE
8
column
10
93
20
701
30
0
11
93
21
718
31
0
0
LINE
8
column
10
93
20
650
30
0
11
93
21
667
31
0
0
LINE
8
column
10
93
20
667
30
0
11
93
21
684
31
0
0
LINE
8
column
10
93
20
684
30
0
11
93
21
701
31
0
0
LINE
8
column
10
93
20
701
30
0
11
93
21
718
31
0
0
LINE
8
secondary
10
93
20
718
30
0
11
93
21
718
31
0
0
LINE
8
brace
10
93
20
650
30
0
11
93
21
718
31
0
0
LINE
8
brace
10
93
20
650
30
0
11
93
21
718
31
0
0
LINE
8
column
10
141
20
650
30
0
11
141
21
667
31
0
0
LINE
8
column
10
141
20
667
30
0
11
141
21
684
31
0
0
LINE
8
column
10
141
20
684
30
0
11
141
21
701
31
0
0
LINE
8
column
10
141
20
701
30
0
11
141
21
718
31
0
0
LINE
8
column
10
141
20
650
30
0
11
141
21
667
31
0
0
LINE
8
column
10
141
20
667
30
0
11
141
21
684
31
0
0
LINE
8
column
10
141
20
684
30
0
11
141
21
701
31
0
0
LINE
8
column
10
141
20
701
30
0
11
141
21
718
31
0
0
LINE
8
secondary
10
141
20
718
30
0
11
141
21
718
31
0
0
LINE
8
brace
10
141
20
650
30
0
11
141
21
718
31
0
0
LINE
8
brace
10
141
20
650
30
0
11
141
21
718
31
0
0
LINE
8
column
10
189
20
650
30
0
11
189
21
667
31
0
0
LINE
8
column
10
189
20
667
30
0
11
189
21
684
31
0
0
LINE
8
column
10
189
20
684
30
0
11
189
21
701
31
0
0
LINE
8
column
10
189
20
701
30
0
11
189
21
718
31
0
0
LINE
8
column
10
189
20
650
30
0
11
189
21
667
31
0
0
LINE
8
column
10
189
20
667
30
0
11
189
21
684
31
0
0
LINE
8
column
10
189
20
684
30
0
11
189
21
701
31
0
0
LINE
8
column
10
189
20
701
30
0
11
189
21
718
31
0
0
LINE
8
secondary
10
189
20
718
30
0
11
189
21
718
31
0
0
LINE
8
brace
10
189
20
650
30
0
11
189
21
718
31
0
0
LINE
8
brace
10
189
20
650
30
0
11
189
21
718
31
0
0
LINE
8
column
10
201
20
650
30
0
11
201
21
667
31
0
0
LINE
8
column
10
201
20
667
30
0
11
201
21
684
31
0
0
LINE
8
column
10
201
20
684
30
0
11
201
21
701
31
0
0
LINE
8
column
10
201
20
701
30
0
11
201
21
718
31
0
0
LINE
8
column
10
201
20
650
30
0
11
201
21
667
31
0
0
LINE
8
column
10
201
20
667
30
0
11
201
21
684
31
0
0
LINE
8
column
10
201
20
684
30
0
11
201
21
701
31
0
0
LINE
8
column
10
201
20
701
30
0
11
201
21
718
31
0
0
LINE
8
secondary
10
201
20
718
30
0
11
201
21
718
31
0
0
LINE
8
brace
10
201
20
650
30
0
11
201
21
718
31
0
0
LINE
8
brace
10
201
20
650
30
0
11
201
21
718
31
0
0
LINE
8
column
10
283.08
20
650
30
0
11
283.08
21
667
31
0
0
LINE
8
column
10
283.08
20
667
30
0
11
283.08
21
684
31
0
0
LINE
8
column
10
283.08
20
684
30
0
11
283.08
21
701
31
0
0
LINE
8
column
10
283.08
20
701
30
0
11
283.08
21
718
31
0
0
LINE
8
column
10
283.08
20
650
30
0
11
283.08
21
667
31
0
0
LINE
8
column
10
283.08
20
667
30
0
11
283.08
21
684
31
0
0
LINE
8
column
10
283.08
20
684
30
0
11
283.08
21
701
31
0
0
LINE
8
column
10
283.08
20
701
30
0
11
283.08
21
718
31
0
0
LINE
8
secondary
10
283.08
20
718
30
0
11
283.08
21
718
31
0
0
LINE
8
brace
10
283.08
20
650
30
0
11
283.08
21
718
31
0
0
LINE
8
brace
10
283.08
20
650
30
0
11
283.08
21
718
31
0
0
LINE
8
column
10
295.08
20
650
30
0
11
295.08
21
667
31
0
0
LINE
8
column
10
295.08
20
667
30
0
11
295.08
21
684
31
0
0
LINE
8
column
10
295.08
20
684
30
0
11
295.08
21
701
31
0
0
LINE
8
column
10
295.08
20
701
30
0
11
295.08
21
718
31
0
0
LINE
8
column
10
295.08
20
650
30
0
11
295.08
21
667
31
0
0
LINE
8
column
10
295.08
20
667
30
0
11
295.08
21
684
31
0
0
LINE
8
column
10
295.08
20
684
30
0
11
295.08
21
701
31
0
0
LINE
8
column
10
295.08
20
701
30
0
11
295.08
21
718
31
0
0
LINE
8
secondary
10
295.08
20
718
30
0
11
295.08
21
718
31
0
0
LINE
8
brace
10
295.08
20
650
30
0
11
295.08
21
718
31
0
0
LINE
8
brace
10
295.08
20
650
30
0
11
295.08
21
718
31
0
0
LINE
8
column
10
343.08
20
650
30
0
11
343.08
21
667
31
0
0
LINE
8
column
10
343.08
20
667
30
0
11
343.08
21
684
31
0
0
LINE
8
column
10
343.08
20
684
30
0
11
343.08
21
701
31
0
0
LINE
8
column
10
343.08
20
701
30
0
11
343.08
21
718
31
0
0
LINE
8
column
10
343.08
20
650
30
0
11
343.08
21
667
31
0
0
LINE
8
column
10
343.08
20
667
30
0
11
343.08
21
684
31
0
0
LINE
8
column
10
343.08
20
684
30
0
11
343.08
21
701
31
0
0
LINE
8
column
10
343.08
20
701
30
0
11
343.08
21
718
31
0
0
LINE
8
secondary
10
343.08
20
718
30
0
11
343.08
21
718
31
0
0
LINE
8
brace
10
343.08
20
650
30
0
11
343.08
21
718
31
0
0
LINE
8
brace
10
343.08
20
650
30
0
11
343.08
21
718
31
0
0
LINE
8
column
10
355.08
20
650
30
0
11
355.08
21
667
31
0
0
LINE
8
column
10
355.08
20
667
30
0
11
355.08
21
684
31
0
0
LINE
8
column
10
355.08
20
684
30
0
11
355.08
21
701
31
0
0
LINE
8
column
10
355.08
20
701
30
0
11
355.08
21
718
31
0
0
LINE
8
column
10
355.08
20
650
30
0
11
355.08
21
667
31
0
0
LINE
8
column
10
355.08
20
667
30
0
11
355.08
21
684
31
0
0
LINE
8
column
10
355.08
20
684
30
0
11
355.08
21
701
31
0
0
LINE
8
column
10
355.08
20
701
30
0
11
355.08
21
718
31
0
0
LINE
8
secondary
10
355.08
20
718
30
0
11
355.08
21
718
31
0
0
LINE
8
brace
10
355.08
20
650
30
0
11
355.08
21
718
31
0
0
LINE
8
brace
10
355.08
20
650
30
0
11
355.08
21
718
31
0
0
LINE
8
column
10
511.08
20
650
30
0
11
511.08
21
667
31
0
0
LINE
8
column
10
511.08
20
667
30
0
11
511.08
21
684
31
0
0
LINE
8
column
10
511.08
20
684
30
0
11
511.08
21
701
31
0
0
LINE
8
column
10
511.08
20
701
30
0
11
511.08
21
718
31
0
0
LINE
8
column
10
511.08
20
650
30
0
11
511.08
21
667
31
0
0
LINE
8
column
10
511.08
20
667
30
0
11
511.08
21
684
31
0
0
LINE
8
column
10
511.08
20
684
30
0
11
511.08
21
701
31
0
0
LINE
8
column
10
511.08
20
701
30
0
11
511.08
21
718
31
0
0
LINE
8
secondary
10
511.08
20
718
30
0
11
511.08
21
718
31
0
0
LINE
8
brace
10
511.08
20
650
30
0
11
511.08
21
718
31
0
0
LINE
8
brace
10
511.08
20
650
30
0
11
511.08
21
718
31
0
0
LINE
8
column
10
523.08
20
650
30
0
11
523.08
21
667
31
0
0
LINE
8
column
10
523.08
20
667
30
0
11
523.08
21
684
31
0
0
LINE
8
column
10
523.08
20
684
30
0
11
523.08
21
701
31
0
0
LINE
8
column
10
523.08
20
701
30
0
11
523.08
21
718
31
0
0
LINE
8
column
10
523.08
20
650
30
0
11
523.08
21
667
31
0
0
LINE
8
column
10
523.08
20
667
30
0
11
523.08
21
684
31
0
0
LINE
8
column
10
523.08
20
684
30
0
11
523.08
21
701
31
0
0
LINE
8
column
10
523.08
20
701
30
0
11
523.08
21
718
31
0
0
LINE
8
secondary
10
523.08
20
718
30
0
11
523.08
21
718
31
0
0
LINE
8
brace
10
523.08
20
650
30
0
11
523.08
21
718
31
0
0
LINE
8
brace
10
523.08
20
650
30
0
11
523.08
21
718
31
0
0
LINE
8
secondary
10
39.4
20
718
30
0
11
45
21
718
31
0
0
LINE
8
secondary
10
39.4
20
718
30
0
11
45
21
718
31
0
0
LINE
8
main
10
45
20
718
30
0
11
57
21
718
31
0
0
LINE
8
main
10
57
20
718
30
0
11
69
21
718
31
0
0
LINE
8
main
10
69
20
718
30
0
11
81
21
718
31
0
0
LINE
8
main
10
81
20
718
30
0
11
93
21
718
31
0
0
LINE
8
main
10
45
20
718
30
0
11
57
21
718
31
0
0
LINE
8
main
10
57
20
718
30
0
11
69
21
718
31
0
0
LINE
8
main
10
69
20
718
30
0
11
81
21
718
31
0
0
LINE
8
main
10
81
20
718
30
0
11
93
21
718
31
0
0
LINE
8
secondary
10
57
20
718
30
0
11
57
21
718
31
0
0
LINE
8
secondary
10
69
20
718
30
0
11
69
21
718
31
0
0
LINE
8
secondary
10
81
20
718
30
0
11
81
21
718
31
0
0
LINE
8
secondary
10
45
20
718
30
0
11
57
21
718
31
0
0
LINE
8
secondary
10
57
20
718
30
0
11
69
21
718
31
0
0
LINE
8
secondary
10
69
20
718
30
0
11
81
21
718
31
0
0
LINE
8
secondary
10
81
20
718
30
0
11
93
21
718
31
0
0
LINE
8
secondary
10
45
20
718
30
0
11
57
21
718
31
0
0
LINE
8
secondary
10
57
20
718
30
0
11
69
21
718
31
0
0
LINE
8
secondary
10
69
20
718
30
0
11
81
21
718
31
0
0
LINE
8
secondary
10
81
20
718
30
0
11
93
21
718
31
0
0
LINE
8
secondary
10
45
20
718
30
0
11
57
21
718
31
0
0
LINE
8
secondary
10
57
20
718
30
0
11
69
21
718
31
0
0
LINE
8
secondary
10
69
20
718
30
0
11
81
21
718
31
0
0
LINE
8
secondary
10
81
20
718
30
0
11
93
21
718
31
0
0
LINE
8
secondary
10
45
20
718
30
0
11
57
21
718
31
0
0
LINE
8
secondary
10
57
20
718
30
0
11
69
21
718
31
0
0
LINE
8
secondary
10
69
20
718
30
0
11
81
21
718
31
0
0
LINE
8
secondary
10
81
20
718
30
0
11
93
21
718
31
0
0
LINE
8
brace
10
45
20
718
30
0
11
57
21
718
31
0
0
LINE
8
brace
10
57
20
718
30
0
11
69
21
718
31
0
0
LINE
8
brace
10
69
20
718
30
0
11
81
21
718
31
0
0
LINE
8
brace
10
81
20
718
30
0
11
93
21
718
31
0
0
LINE
8
main
10
93
20
718
30
0
11
105
21
718
31
0
0
LINE
8
main
10
105
20
718
30
0
11
117
21
718
31
0
0
LINE
8
main
10
117
20
718
30
0
11
129
21
718
31
0
0
LINE
8
main
10
129
20
718
30
0
11
141
21
718
31
0
0
LINE
8
main
10
93
20
718
30
0
11
105
21
718
31
0
0
LINE
8
main
10
105
20
718
30
0
11
117
21
718
31
0
0
LINE
8
main
10
117
20
718
30
0
11
129
21
718
31
0
0
LINE
8
main
10
129
20
718
30
0
11
141
21
718
31
0
0
LINE
8
secondary
10
105
20
718
30
0
11
105
21
718
31
0
0
LINE
8
secondary
10
117
20
718
30
0
11
117
21
718
31
0
0
LINE
8
secondary
10
129
20
718
30
0
11
129
21
718
31
0
0
LINE
8
secondary
10
93
20
718
30
0
11
105
21
718
31
0
0
LINE
8
secondary
10
105
20
718
30
0
11
117
21
718
31
0
0
LINE
8
secondary
10
117
20
718
30
0
11
129
21
718
31
0
0
LINE
8
secondary
10
129
20
718
30
0
11
141
21
718
31
0
0
LINE
8
secondary
10
93
20
718
30
0
11
105
21
718
31
0
0
LINE
8
secondary
10
105
20
718
30
0
11
117
21
718
31
0
0
LINE
8
secondary
10
117
20
718
30
0
11
129
21
718
31
0
0
LINE
8
secondary
10
129
20
718
30
0
11
141
21
718
31
0
0
LINE
8
secondary
10
93
20
718
30
0
11
105
21
718
31
0
0
LINE
8
secondary
10
105
20
718
30
0
11
117
21
718
31
0
0
LINE
8
secondary
10
117
20
718
30
0
11
129
21
718
31
0
0
LINE
8
secondary
10
129
20
718
30
0
11
141
21
718
31
0
0
LINE
8
secondary
10
93
20
718
30
0
11
105
21
718
31
0
0
LINE
8
secondary
10
105
20
718
30
0
11
117
21
718
31
0
0
LINE
8
secondary
10
117
20
718
30
0
11
129
21
718
31
0
0
LINE
8
secondary
10
129
20
718
30
0
11
141
21
718
31
0
0
LINE
8
brace
10
93
20
718
30
0
11
105
21
718
31
0
0
LINE
8
brace
10
105
20
718
30
0
11
117
21
718
31
0
0
LINE
8
brace
10
117
20
718
30
0
11
129
21
718
31
0
0
LINE
8
brace
10
129
20
718
30
0
11
141
21
718
31
0
0
LINE
8
main
10
141
20
718
30
0
11
153
21
718
31
0
0
LINE
8
main
10
153
20
718
30
0
11
165
21
718
31
0
0
LINE
8
main
10
165
20
718
30
0
11
177
21
718
31
0
0
LINE
8
main
10
177
20
718
30
0
11
189
21
718
31
0
0
LINE
8
main
10
141
20
718
30
0
11
153
21
718
31
0
0
LINE
8
main
10
153
20
718
30
0
11
165
21
718
31
0
0
LINE
8
main
10
165
20
718
30
0
11
177
21
718
31
0
0
LINE
8
main
10
177
20
718
30
0
11
189
21
718
31
0
0
LINE
8
secondary
10
153
20
718
30
0
11
153
21
718
31
0
0
LINE
8
secondary
10
165
20
718
30
0
11
165
21
718
31
0
0
LINE
8
secondary
10
177
20
718
30
0
11
177
21
718
31
0
0
LINE
8
secondary
10
141
20
718
30
0
11
153
21
718
31
0
0
LINE
8
secondary
10
153
20
718
30
0
11
165
21
718
31
0
0
LINE
8
secondary
10
165
20
718
30
0
11
177
21
718
31
0
0
LINE
8
secondary
10
177
20
718
30
0
11
189
21
718
31
0
0
LINE
8
secondary
10
141
20
718
30
0
11
153
21
718
31
0
0
LINE
8
secondary
10
153
20
718
30
0
11
165
21
718
31
0
0
LINE
8
secondary
10
165
20
718
30
0
11
177
21
718
31
0
0
LINE
8
secondary
10
177
20
718
30
0
11
189
21
718
31
0
0
LINE
8
secondary
10
141
20
718
30
0
11
153
21
718
31
0
0
LINE
8
secondary
10
153
20
718
30
0
11
165
21
718
31
0
0
LINE
8
secondary
10
165
20
718
30
0
11
177
21
718
31
0
0
LINE
8
secondary
10
177
20
718
30
0
11
189
21
718
31
0
0
LINE
8
secondary
10
141
20
718
30
0
11
153
21
718
31
0
0
LINE
8
secondary
10
153
20
718
30
0
11
165
21
718
31
0
0
LINE
8
secondary
10
165
20
718
30
0
11
177
21
718
31
0
0
LINE
8
secondary
10
177
20
718
30
0
11
189
21
718
31
0
0
LINE
8
brace
10
141
20
718
30
0
11
153
21
718
31
0
0
LINE
8
brace
10
153
20
718
30
0
11
165
21
718
31
0
0
LINE
8
brace
10
165
20
718
30
0
11
177
21
718
31
0
0
LINE
8
brace
10
177
20
718
30
0
11
189
21
718
31
0
0
LINE
8
main
10
189
20
718
30
0
11
201
21
718
31
0
0
LINE
8
main
10
189
20
718
30
0
11
201
21
718
31
0
0
LINE
8
secondary
10
189
20
718
30
0
11
201
21
718
31
0
0
LINE
8
secondary
10
189
20
718
30
0
11
201
21
718
31
0
0
LINE
8
secondary
10
189
20
718
30
0
11
201
21
718
31
0
0
LINE
8
secondary
10
189
20
718
30
0
11
201
21
718
31
0
0
LINE
8
brace
10
189
20
718
30
0
11
201
21
718
31
0
0
LINE
8
brace
10
189
20
650
30
0
11
201
21
718
31
0
0
LINE
8
brace
10
189
20
650
30
0
11
201
21
718
31
0
0
LINE
8
main
10
201
20
718
30
0
11
212.725714
21
718
31
0
0
LINE
8
main
10
212.725714
20
718
30
0
11
224.451429
21
718
31
0
0
LINE
8
main
10
224.451429
20
718
30
0
11
236.177143
21
718
31
0
0
LINE
8
main
10
236.177143
20
718
30
0
11
247.902857
21
718
31
0
0
LINE
8
main
10
247.902857
20
718
30
0
11
259.628571
21
718
31
0
0
LINE
8
main
10
259.628571
20
718
30
0
11
271.354286
21
718
31
0
0
LINE
8
main
10
271.354286
20
718
30
0
11
283.08
21
718
31
0
0
LINE
8
main
10
201
20
718
30
0
11
212.725714
21
718
31
0
0
LINE
8
main
10
212.725714
20
718
30
0
11
224.451429
21
718
31
0
0
LINE
8
main
10
224.451429
20
718
30
0
11
236.177143
21
718
31
0
0
LINE
8
main
10
236.177143
20
718
30
0
11
247.902857
21
718
31
0
0
LINE
8
main
10
247.902857
20
718
30
0
11
259.628571
21
718
31
0
0
LINE
8
main
10
259.628571
20
718
30
0
11
271.354286
21
718
31
0
0
LINE
8
main
10
271.354286
20
718
30
0
11
283.08
21
718
31
0
0
LINE
8
secondary
10
212.725714
20
718
30
0
11
212.725714
21
718
31
0
0
LINE
8
secondary
10
224.451429
20
718
30
0
11
224.451429
21
718
31
0
0
LINE
8
secondary
10
236.177143
20
718
30
0
11
236.177143
21
718
31
0
0
LINE
8
secondary
10
247.902857
20
718
30
0
11
247.902857
21
718
31
0
0
LINE
8
secondary
10
259.628571
20
718
30
0
11
259.628571
21
718
31
0
0
LINE
8
secondary
10
271.354286
20
718
30
0
11
271.354286
21
718
31
0
0
LINE
8
secondary
10
201
20
718
30
0
11
212.725714
21
718
31
0
0
LINE
8
secondary
10
212.725714
20
718
30
0
11
224.451429
21
718
31
0
0
LINE
8
secondary
10
224.451429
20
718
30
0
11
236.177143
21
718
31
0
0
LINE
8
secondary
10
236.177143
20
718
30
0
11
247.902857
21
718
31
0
0
LINE
8
secondary
10
247.902857
20
718
30
0
11
259.628571
21
718
31
0
0
LINE
8
secondary
10
259.628571
20
718
30
0
11
271.354286
21
718
31
0
0
LINE
8
secondary
10
271.354286
20
718
30
0
11
283.08
21
718
31
0
0
LINE
8
secondary
10
201
20
718
30
0
11
212.725714
21
718
31
0
0
LINE
8
secondary
10
212.725714
20
718
30
0
11
224.451429
21
718
31
0
0
LINE
8
secondary
10
224.451429
20
718
30
0
11
236.177143
21
718
31
0
0
LINE
8
secondary
10
236.177143
20
718
30
0
11
247.902857
21
718
31
0
0
LINE
8
secondary
10
247.902857
20
718
30
0
11
259.628571
21
718
31
0
0
LINE
8
secondary
10
259.628571
20
718
30
0
11
271.354286
21
718
31
0
0
LINE
8
secondary
10
271.354286
20
718
30
0
11
283.08
21
718
31
0
0
LINE
8
secondary
10
201
20
718
30
0
11
212.725714
21
718
31
0
0
LINE
8
secondary
10
212.725714
20
718
30
0
11
224.451429
21
718
31
0
0
LINE
8
secondary
10
224.451429
20
718
30
0
11
236.177143
21
718
31
0
0
LINE
8
secondary
10
236.177143
20
718
30
0
11
247.902857
21
718
31
0
0
LINE
8
secondary
10
247.902857
20
718
30
0
11
259.628571
21
718
31
0
0
LINE
8
secondary
10
259.628571
20
718
30
0
11
271.354286
21
718
31
0
0
LINE
8
secondary
10
271.354286
20
718
30
0
11
283.08
21
718
31
0
0
LINE
8
secondary
10
201
20
718
30
0
11
212.725714
21
718
31
0
0
LINE
8
secondary
10
212.725714
20
718
30
0
11
224.451429
21
718
31
0
0
LINE
8
secondary
10
224.451429
20
718
30
0
11
236.177143
21
718
31
0
0
LINE
8
secondary
10
236.177143
20
718
30
0
11
247.902857
21
718
31
0
0
LINE
8
secondary
10
247.902857
20
718
30
0
11
259.628571
21
718
31
0
0
LINE
8
secondary
10
259.628571
20
718
30
0
11
271.354286
21
718
31
0
0
LINE
8
secondary
10
271.354286
20
718
30
0
11
283.08
21
718
31
0
0
LINE
8
brace
10
201
20
718
30
0
11
212.725714
21
718
31
0
0
LINE
8
brace
10
212.725714
20
718
30
0
11
224.451429
21
718
31
0
0
LINE
8
brace
10
224.451429
20
718
30
0
11
236.177143
21
718
31
0
0
LINE
8
brace
10
236.177143
20
718
30
0
11
247.902857
21
718
31
0
0
LINE
8
brace
10
247.902857
20
718
30
0
11
259.628571
21
718
31
0
0
LINE
8
brace
10
259.628571
20
718
30
0
11
271.354286
21
718
31
0
0
LINE
8
brace
10
271.354286
20
718
30
0
11
283.08
21
718
31
0
0
LINE
8
truss
10
201
20
718
30
0
11
208.461818
21
718
31
0
0
LINE
8
truss
10
208.461818
20
718
30
0
11
215.923636
21
718
31
0
0
LINE
8
truss
10
215.923636
20
718
30
0
11
223.385455
21
718
31
0
0
LINE
8
truss
10
223.385455
20
718
30
0
11
230.847273
21
718
31
0
0
LINE
8
truss
10
230.847273
20
718
30
0
11
238.309091
21
718
31
0
0
LINE
8
truss
10
238.309091
20
718
30
0
11
245.770909
21
718
31
0
0
LINE
8
truss
10
245.770909
20
718
30
0
11
253.232727
21
718
31
0
0
LINE
8
truss
10
253.232727
20
718
30
0
11
260.694545
21
718
31
0
0
LINE
8
truss
10
260.694545
20
718
30
0
11
268.156364
21
718
31
0
0
LINE
8
truss
10
268.156364
20
718
30
0
11
275.618182
21
718
31
0
0
LINE
8
truss
10
275.618182
20
718
30
0
11
283.08
21
718
31
0
0
LINE
8
truss
10
201
20
710.8
30
0
11
208.461818
21
710.8
31
0
0
LINE
8
truss
10
208.461818
20
710.8
30
0
11
215.923636
21
710.8
31
0
0
LINE
8
truss
10
215.923636
20
710.8
30
0
11
223.385455
21
710.8
31
0
0
LINE
8
truss
10
223.385455
20
710.8
30
0
11
230.847273
21
710.8
31
0
0
LINE
8
truss
10
230.847273
20
710.8
30
0
11
238.309091
21
710.8
31
0
0
LINE
8
truss
10
238.309091
20
710.8
30
0
11
245.770909
21
710.8
31
0
0
LINE
8
truss
10
245.770909
20
710.8
30
0
11
253.232727
21
710.8
31
0
0
LINE
8
truss
10
253.232727
20
710.8
30
0
11
260.694545
21
710.8
31
0
0
LINE
8
truss
10
260.694545
20
710.8
30
0
11
268.156364
21
710.8
31
0
0
LINE
8
truss
10
268.156364
20
710.8
30
0
11
275.618182
21
710.8
31
0
0
LINE
8
truss
10
275.618182
20
710.8
30
0
11
283.08
21
710.8
31
0
0
LINE
8
truss
10
201
20
718
30
0
11
201
21
710.8
31
0
0
LINE
8
truss
10
208.461818
20
718
30
0
11
208.461818
21
710.8
31
0
0
LINE
8
truss
10
215.923636
20
718
30
0
11
215.923636
21
710.8
31
0
0
LINE
8
truss
10
223.385455
20
718
30
0
11
223.385455
21
710.8
31
0
0
LINE
8
truss
10
230.847273
20
718
30
0
11
230.847273
21
710.8
31
0
0
LINE
8
truss
10
238.309091
20
718
30
0
11
238.309091
21
710.8
31
0
0
LINE
8
truss
10
245.770909
20
718
30
0
11
245.770909
21
710.8
31
0
0
LINE
8
truss
10
253.232727
20
718
30
0
11
253.232727
21
710.8
31
0
0
LINE
8
truss
10
260.694545
20
718
30
0
11
260.694545
21
710.8
31
0
0
LINE
8
truss
10
268.156364
20
718
30
0
11
268.156364
21
710.8
31
0
0
LINE
8
truss
10
275.618182
20
718
30
0
11
275.618182
21
710.8
31
0
0
LINE
8
truss
10
283.08
20
718
30
0
11
283.08
21
710.8
31
0
0
LINE
8
truss
10
201
20
710.8
30
0
11
208.461818
21
718
31
0
0
LINE
8
truss
10
208.461818
20
718
30
0
11
215.923636
21
710.8
31
0
0
LINE
8
truss
10
215.923636
20
710.8
30
0
11
223.385455
21
718
31
0
0
LINE
8
truss
10
223.385455
20
718
30
0
11
230.847273
21
710.8
31
0
0
LINE
8
truss
10
230.847273
20
710.8
30
0
11
238.309091
21
718
31
0
0
LINE
8
truss
10
238.309091
20
718
30
0
11
245.770909
21
710.8
31
0
0
LINE
8
truss
10
245.770909
20
710.8
30
0
11
253.232727
21
718
31
0
0
LINE
8
truss
10
253.232727
20
718
30
0
11
260.694545
21
710.8
31
0
0
LINE
8
truss
10
260.694545
20
710.8
30
0
11
268.156364
21
718
31
0
0
LINE
8
truss
10
268.156364
20
718
30
0
11
275.618182
21
710.8
31
0
0
LINE
8
truss
10
275.618182
20
710.8
30
0
11
283.08
21
718
31
0
0
LINE
8
truss
10
201
20
718
30
0
11
208.461818
21
718
31
0
0
LINE
8
truss
10
208.461818
20
718
30
0
11
215.923636
21
718
31
0
0
LINE
8
truss
10
215.923636
20
718
30
0
11
223.385455
21
718
31
0
0
LINE
8
truss
10
223.385455
20
718
30
0
11
230.847273
21
718
31
0
0
LINE
8
truss
10
230.847273
20
718
30
0
11
238.309091
21
718
31
0
0
LINE
8
truss
10
238.309091
20
718
30
0
11
245.770909
21
718
31
0
0
LINE
8
truss
10
245.770909
20
718
30
0
11
253.232727
21
718
31
0
0
LINE
8
truss
10
253.232727
20
718
30
0
11
260.694545
21
718
31
0
0
LINE
8
truss
10
260.694545
20
718
30
0
11
268.156364
21
718
31
0
0
LINE
8
truss
10
268.156364
20
718
30
0
11
275.618182
21
718
31
0
0
LINE
8
truss
10
275.618182
20
718
30
0
11
283.08
21
718
31
0
0
LINE
8
truss
10
201
20
710.8
30
0
11
208.461818
21
710.8
31
0
0
LINE
8
truss
10
208.461818
20
710.8
30
0
11
215.923636
21
710.8
31
0
0
LINE
8
truss
10
215.923636
20
710.8
30
0
11
223.385455
21
710.8
31
0
0
LINE
8
truss
10
223.385455
20
710.8
30
0
11
230.847273
21
710.8
31
0
0
LINE
8
truss
10
230.847273
20
710.8
30
0
11
238.309091
21
710.8
31
0
0
LINE
8
truss
10
238.309091
20
710.8
30
0
11
245.770909
21
710.8
31
0
0
LINE
8
truss
10
245.770909
20
710.8
30
0
11
253.232727
21
710.8
31
0
0
LINE
8
truss
10
253.232727
20
710.8
30
0
11
260.694545
21
710.8
31
0
0
LINE
8
truss
10
260.694545
20
710.8
30
0
11
268.156364
21
710.8
31
0
0
LINE
8
truss
10
268.156364
20
710.8
30
0
11
275.618182
21
710.8
31
0
0
LINE
8
truss
10
275.618182
20
710.8
30
0
11
283.08
21
710.8
31
0
0
LINE
8
truss
10
201
20
718
30
0
11
201
21
710.8
31
0
0
LINE
8
truss
10
208.461818
20
718
30
0
11
208.461818
21
710.8
31
0
0
LINE
8
truss
10
215.923636
20
718
30
0
11
215.923636
21
710.8
31
0
0
LINE
8
truss
10
223.385455
20
718
30
0
11
223.385455
21
710.8
31
0
0
LINE
8
truss
10
230.847273
20
718
30
0
11
230.847273
21
710.8
31
0
0
LINE
8
truss
10
238.309091
20
718
30
0
11
238.309091
21
710.8
31
0
0
LINE
8
truss
10
245.770909
20
718
30
0
11
245.770909
21
710.8
31
0
0
LINE
8
truss
10
253.232727
20
718
30
0
11
253.232727
21
710.8
31
0
0
LINE
8
truss
10
260.694545
20
718
30
0
11
260.694545
21
710.8
31
0
0
LINE
8
truss
10
268.156364
20
718
30
0
11
268.156364
21
710.8
31
0
0
LINE
8
truss
10
275.618182
20
718
30
0
11
275.618182
21
710.8
31
0
0
LINE
8
truss
10
283.08
20
718
30
0
11
283.08
21
710.8
31
0
0
LINE
8
truss
10
201
20
710.8
30
0
11
208.461818
21
718
31
0
0
LINE
8
truss
10
208.461818
20
718
30
0
11
215.923636
21
710.8
31
0
0
LINE
8
truss
10
215.923636
20
710.8
30
0
11
223.385455
21
718
31
0
0
LINE
8
truss
10
223.385455
20
718
30
0
11
230.847273
21
710.8
31
0
0
LINE
8
truss
10
230.847273
20
710.8
30
0
11
238.309091
21
718
31
0
0
LINE
8
truss
10
238.309091
20
718
30
0
11
245.770909
21
710.8
31
0
0
LINE
8
truss
10
245.770909
20
710.8
30
0
11
253.232727
21
718
31
0
0
LINE
8
truss
10
253.232727
20
718
30
0
11
260.694545
21
710.8
31
0
0
LINE
8
truss
10
260.694545
20
710.8
30
0
11
268.156364
21
718
31
0
0
LINE
8
truss
10
268.156364
20
718
30
0
11
275.618182
21
710.8
31
0
0
LINE
8
truss
10
275.618182
20
710.8
30
0
11
283.08
21
718
31
0
0
LINE
8
main
10
283.08
20
718
30
0
11
295.08
21
718
31
0
0
LINE
8
main
10
283.08
20
718
30
0
11
295.08
21
718
31
0
0
LINE
8
secondary
10
283.08
20
718
30
0
11
295.08
21
718
31
0
0
LINE
8
secondary
10
283.08
20
718
30
0
11
295.08
21
718
31
0
0
LINE
8
secondary
10
283.08
20
718
30
0
11
295.08
21
718
31
0
0
LINE
8
secondary
10
283.08
20
718
30
0
11
295.08
21
718
31
0
0
LINE
8
brace
10
283.08
20
718
30
0
11
295.08
21
718
31
0
0
LINE
8
brace
10
283.08
20
650
30
0
11
295.08
21
718
31
0
0
LINE
8
brace
10
283.08
20
650
30
0
11
295.08
21
718
31
0
0
LINE
8
main
10
295.08
20
718
30
0
11
307.08
21
718
31
0
0
LINE
8
main
10
307.08
20
718
30
0
11
319.08
21
718
31
0
0
LINE
8
main
10
319.08
20
718
30
0
11
331.08
21
718
31
0
0
LINE
8
main
10
331.08
20
718
30
0
11
343.08
21
718
31
0
0
LINE
8
main
10
295.08
20
718
30
0
11
307.08
21
718
31
0
0
LINE
8
main
10
307.08
20
718
30
0
11
319.08
21
718
31
0
0
LINE
8
main
10
319.08
20
718
30
0
11
331.08
21
718
31
0
0
LINE
8
main
10
331.08
20
718
30
0
11
343.08
21
718
31
0
0
LINE
8
secondary
10
307.08
20
718
30
0
11
307.08
21
718
31
0
0
LINE
8
secondary
10
319.08
20
718
30
0
11
319.08
21
718
31
0
0
LINE
8
secondary
10
331.08
20
718
30
0
11
331.08
21
718
31
0
0
LINE
8
secondary
10
295.08
20
718
30
0
11
307.08
21
718
31
0
0
LINE
8
secondary
10
307.08
20
718
30
0
11
319.08
21
718
31
0
0
LINE
8
secondary
10
319.08
20
718
30
0
11
331.08
21
718
31
0
0
LINE
8
secondary
10
331.08
20
718
30
0
11
343.08
21
718
31
0
0
LINE
8
secondary
10
295.08
20
718
30
0
11
307.08
21
718
31
0
0
LINE
8
secondary
10
307.08
20
718
30
0
11
319.08
21
718
31
0
0
LINE
8
secondary
10
319.08
20
718
30
0
11
331.08
21
718
31
0
0
LINE
8
secondary
10
331.08
20
718
30
0
11
343.08
21
718
31
0
0
LINE
8
secondary
10
295.08
20
718
30
0
11
307.08
21
718
31
0
0
LINE
8
secondary
10
307.08
20
718
30
0
11
319.08
21
718
31
0
0
LINE
8
secondary
10
319.08
20
718
30
0
11
331.08
21
718
31
0
0
LINE
8
secondary
10
331.08
20
718
30
0
11
343.08
21
718
31
0
0
LINE
8
secondary
10
295.08
20
718
30
0
11
307.08
21
718
31
0
0
LINE
8
secondary
10
307.08
20
718
30
0
11
319.08
21
718
31
0
0
LINE
8
secondary
10
319.08
20
718
30
0
11
331.08
21
718
31
0
0
LINE
8
secondary
10
331.08
20
718
30
0
11
343.08
21
718
31
0
0
LINE
8
brace
10
295.08
20
718
30
0
11
307.08
21
718
31
0
0
LINE
8
brace
10
307.08
20
718
30
0
11
319.08
21
718
31
0
0
LINE
8
brace
10
319.08
20
718
30
0
11
331.08
21
718
31
0
0
LINE
8
brace
10
331.08
20
718
30
0
11
343.08
21
718
31
0
0
LINE
8
main
10
343.08
20
718
30
0
11
355.08
21
718
31
0
0
LINE
8
main
10
343.08
20
718
30
0
11
355.08
21
718
31
0
0
LINE
8
secondary
10
343.08
20
718
30
0
11
355.08
21
718
31
0
0
LINE
8
secondary
10
343.08
20
718
30
0
11
355.08
21
718
31
0
0
LINE
8
secondary
10
343.08
20
718
30
0
11
355.08
21
718
31
0
0
LINE
8
secondary
10
343.08
20
718
30
0
11
355.08
21
718
31
0
0
LINE
8
brace
10
343.08
20
718
30
0
11
355.08
21
718
31
0
0
LINE
8
brace
10
343.08
20
650
30
0
11
355.08
21
718
31
0
0
LINE
8
brace
10
343.08
20
650
30
0
11
355.08
21
718
31
0
0
LINE
8
main
10
355.08
20
718
30
0
11
367.08
21
718
31
0
0
LINE
8
main
10
367.08
20
718
30
0
11
379.08
21
718
31
0
0
LINE
8
main
10
379.08
20
718
30
0
11
391.08
21
718
31
0
0
LINE
8
main
10
391.08
20
718
30
0
11
403.08
21
718
31
0
0
LINE
8
main
10
403.08
20
718
30
0
11
415.08
21
718
31
0
0
LINE
8
main
10
415.08
20
718
30
0
11
427.08
21
718
31
0
0
LINE
8
main
10
427.08
20
718
30
0
11
439.08
21
718
31
0
0
LINE
8
main
10
439.08
20
718
30
0
11
451.08
21
718
31
0
0
LINE
8
main
10
451.08
20
718
30
0
11
463.08
21
718
31
0
0
LINE
8
main
10
463.08
20
718
30
0
11
475.08
21
718
31
0
0
LINE
8
main
10
475.08
20
718
30
0
11
487.08
21
718
31
0
0
LINE
8
main
10
487.08
20
718
30
0
11
499.08
21
718
31
0
0
LINE
8
main
10
499.08
20
718
30
0
11
511.08
21
718
31
0
0
LINE
8
main
10
355.08
20
718
30
0
11
367.08
21
718
31
0
0
LINE
8
main
10
367.08
20
718
30
0
11
379.08
21
718
31
0
0
LINE
8
main
10
379.08
20
718
30
0
11
391.08
21
718
31
0
0
LINE
8
main
10
391.08
20
718
30
0
11
403.08
21
718
31
0
0
LINE
8
main
10
403.08
20
718
30
0
11
415.08
21
718
31
0
0
LINE
8
main
10
415.08
20
718
30
0
11
427.08
21
718
31
0
0
LINE
8
main
10
427.08
20
718
30
0
11
439.08
21
718
31
0
0
LINE
8
main
10
439.08
20
718
30
0
11
451.08
21
718
31
0
0
LINE
8
main
10
451.08
20
718
30
0
11
463.08
21
718
31
0
0
LINE
8
main
10
463.08
20
718
30
0
11
475.08
21
718
31
0
0
LINE
8
main
10
475.08
20
718
30
0
11
487.08
21
718
31
0
0
LINE
8
main
10
487.08
20
718
30
0
11
499.08
21
718
31
0
0
LINE
8
main
10
499.08
20
718
30
0
11
511.08
21
718
31
0
0
LINE
8
secondary
10
367.08
20
718
30
0
11
367.08
21
718
31
0
0
LINE
8
secondary
10
379.08
20
718
30
0
11
379.08
21
718
31
0
0
LINE
8
secondary
10
391.08
20
718
30
0
11
391.08
21
718
31
0
0
LINE
8
secondary
10
403.08
20
718
30
0
11
403.08
21
718
31
0
0
LINE
8
secondary
10
415.08
20
718
30
0
11
415.08
21
718
31
0
0
LINE
8
secondary
10
427.08
20
718
30
0
11
427.08
21
718
31
0
0
LINE
8
secondary
10
439.08
20
718
30
0
11
439.08
21
718
31
0
0
LINE
8
secondary
10
451.08
20
718
30
0
11
451.08
21
718
31
0
0
LINE
8
secondary
10
463.08
20
718
30
0
11
463.08
21
718
31
0
0
LINE
8
secondary
10
475.08
20
718
30
0
11
475.08
21
718
31
0
0
LINE
8
secondary
10
487.08
20
718
30
0
11
487.08
21
718
31
0
0
LINE
8
secondary
10
499.08
20
718
30
0
11
499.08
21
718
31
0
0
LINE
8
secondary
10
355.08
20
718
30
0
11
367.08
21
718
31
0
0
LINE
8
secondary
10
367.08
20
718
30
0
11
379.08
21
718
31
0
0
LINE
8
secondary
10
379.08
20
718
30
0
11
391.08
21
718
31
0
0
LINE
8
secondary
10
391.08
20
718
30
0
11
403.08
21
718
31
0
0
LINE
8
secondary
10
403.08
20
718
30
0
11
415.08
21
718
31
0
0
LINE
8
secondary
10
415.08
20
718
30
0
11
427.08
21
718
31
0
0
LINE
8
secondary
10
427.08
20
718
30
0
11
439.08
21
718
31
0
0
LINE
8
secondary
10
439.08
20
718
30
0
11
451.08
21
718
31
0
0
LINE
8
secondary
10
451.08
20
718
30
0
11
463.08
21
718
31
0
0
LINE
8
secondary
10
463.08
20
718
30
0
11
475.08
21
718
31
0
0
LINE
8
secondary
10
475.08
20
718
30
0
11
487.08
21
718
31
0
0
LINE
8
secondary
10
487.08
20
718
30
0
11
499.08
21
718
31
0
0
LINE
8
secondary
10
499.08
20
718
30
0
11
511.08
21
718
31
0
0
LINE
8
secondary
10
355.08
20
718
30
0
11
367.08
21
718
31
0
0
LINE
8
secondary
10
367.08
20
718
30
0
11
379.08
21
718
31
0
0
LINE
8
secondary
10
379.08
20
718
30
0
11
391.08
21
718
31
0
0
LINE
8
secondary
10
391.08
20
718
30
0
11
403.08
21
718
31
0
0
LINE
8
secondary
10
403.08
20
718
30
0
11
415.08
21
718
31
0
0
LINE
8
secondary
10
415.08
20
718
30
0
11
427.08
21
718
31
0
0
LINE
8
secondary
10
427.08
20
718
30
0
11
439.08
21
718
31
0
0
LINE
8
secondary
10
439.08
20
718
30
0
11
451.08
21
718
31
0
0
LINE
8
secondary
10
451.08
20
718
30
0
11
463.08
21
718
31
0
0
LINE
8
secondary
10
463.08
20
718
30
0
11
475.08
21
718
31
0
0
LINE
8
secondary
10
475.08
20
718
30
0
11
487.08
21
718
31
0
0
LINE
8
secondary
10
487.08
20
718
30
0
11
499.08
21
718
31
0
0
LINE
8
secondary
10
499.08
20
718
30
0
11
511.08
21
718
31
0
0
LINE
8
secondary
10
355.08
20
718
30
0
11
367.08
21
718
31
0
0
LINE
8
secondary
10
367.08
20
718
30
0
11
379.08
21
718
31
0
0
LINE
8
secondary
10
379.08
20
718
30
0
11
391.08
21
718
31
0
0
LINE
8
secondary
10
391.08
20
718
30
0
11
403.08
21
718
31
0
0
LINE
8
secondary
10
403.08
20
718
30
0
11
415.08
21
718
31
0
0
LINE
8
secondary
10
415.08
20
718
30
0
11
427.08
21
718
31
0
0
LINE
8
secondary
10
427.08
20
718
30
0
11
439.08
21
718
31
0
0
LINE
8
secondary
10
439.08
20
718
30
0
11
451.08
21
718
31
0
0
LINE
8
secondary
10
451.08
20
718
30
0
11
463.08
21
718
31
0
0
LINE
8
secondary
10
463.08
20
718
30
0
11
475.08
21
718
31
0
0
LINE
8
secondary
10
475.08
20
718
30
0
11
487.08
21
718
31
0
0
LINE
8
secondary
10
487.08
20
718
30
0
11
499.08
21
718
31
0
0
LINE
8
secondary
10
499.08
20
718
30
0
11
511.08
21
718
31
0
0
LINE
8
secondary
10
355.08
20
718
30
0
11
367.08
21
718
31
0
0
LINE
8
secondary
10
367.08
20
718
30
0
11
379.08
21
718
31
0
0
LINE
8
secondary
10
379.08
20
718
30
0
11
391.08
21
718
31
0
0
LINE
8
secondary
10
391.08
20
718
30
0
11
403.08
21
718
31
0
0
LINE
8
secondary
10
403.08
20
718
30
0
11
415.08
21
718
31
0
0
LINE
8
secondary
10
415.08
20
718
30
0
11
427.08
21
718
31
0
0
LINE
8
secondary
10
427.08
20
718
30
0
11
439.08
21
718
31
0
0
LINE
8
secondary
10
439.08
20
718
30
0
11
451.08
21
718
31
0
0
LINE
8
secondary
10
451.08
20
718
30
0
11
463.08
21
718
31
0
0
LINE
8
secondary
10
463.08
20
718
30
0
11
475.08
21
718
31
0
0
LINE
8
secondary
10
475.08
20
718
30
0
11
487.08
21
718
31
0
0
LINE
8
secondary
10
487.08
20
718
30
0
11
499.08
21
718
31
0
0
LINE
8
secondary
10
499.08
20
718
30
0
11
511.08
21
718
31
0
0
LINE
8
brace
10
355.08
20
718
30
0
11
367.08
21
718
31
0
0
LINE
8
brace
10
367.08
20
718
30
0
11
379.08
21
718
31
0
0
LINE
8
brace
10
379.08
20
718
30
0
11
391.08
21
718
31
0
0
LINE
8
brace
10
391.08
20
718
30
0
11
403.08
21
718
31
0
0
LINE
8
brace
10
403.08
20
718
30
0
11
415.08
21
718
31
0
0
LINE
8
brace
10
415.08
20
718
30
0
11
427.08
21
718
31
0
0
LINE
8
brace
10
427.08
20
718
30
0
11
439.08
21
718
31
0
0
LINE
8
brace
10
439.08
20
718
30
0
11
451.08
21
718
31
0
0
LINE
8
brace
10
451.08
20
718
30
0
11
463.08
21
718
31
0
0
LINE
8
brace
10
463.08
20
718
30
0
11
475.08
21
718
31
0
0
LINE
8
brace
10
475.08
20
718
30
0
11
487.08
21
718
31
0
0
LINE
8
brace
10
487.08
20
718
30
0
11
499.08
21
718
31
0
0
LINE
8
brace
10
499.08
20
718
30
0
11
511.08
21
718
31
0
0
LINE
8
truss
10
355.08
20
718
30
0
11
362.88
21
718
31
0
0
LINE
8
truss
10
362.88
20
718
30
0
11
370.68
21
718
31
0
0
LINE
8
truss
10
370.68
20
718
30
0
11
378.48
21
718
31
0
0
LINE
8
truss
10
378.48
20
718
30
0
11
386.28
21
718
31
0
0
LINE
8
truss
10
386.28
20
718
30
0
11
394.08
21
718
31
0
0
LINE
8
truss
10
394.08
20
718
30
0
11
401.88
21
718
31
0
0
LINE
8
truss
10
401.88
20
718
30
0
11
409.68
21
718
31
0
0
LINE
8
truss
10
409.68
20
718
30
0
11
417.48
21
718
31
0
0
LINE
8
truss
10
417.48
20
718
30
0
11
425.28
21
718
31
0
0
LINE
8
truss
10
425.28
20
718
30
0
11
433.08
21
718
31
0
0
LINE
8
truss
10
433.08
20
718
30
0
11
440.88
21
718
31
0
0
LINE
8
truss
10
440.88
20
718
30
0
11
448.68
21
718
31
0
0
LINE
8
truss
10
448.68
20
718
30
0
11
456.48
21
718
31
0
0
LINE
8
truss
10
456.48
20
718
30
0
11
464.28
21
718
31
0
0
LINE
8
truss
10
464.28
20
718
30
0
11
472.08
21
718
31
0
0
LINE
8
truss
10
472.08
20
718
30
0
11
479.88
21
718
31
0
0
LINE
8
truss
10
479.88
20
718
30
0
11
487.68
21
718
31
0
0
LINE
8
truss
10
487.68
20
718
30
0
11
495.48
21
718
31
0
0
LINE
8
truss
10
495.48
20
718
30
0
11
503.28
21
718
31
0
0
LINE
8
truss
10
503.28
20
718
30
0
11
511.08
21
718
31
0
0
LINE
8
truss
10
355.08
20
710.8
30
0
11
362.88
21
710.8
31
0
0
LINE
8
truss
10
362.88
20
710.8
30
0
11
370.68
21
710.8
31
0
0
LINE
8
truss
10
370.68
20
710.8
30
0
11
378.48
21
710.8
31
0
0
LINE
8
truss
10
378.48
20
710.8
30
0
11
386.28
21
710.8
31
0
0
LINE
8
truss
10
386.28
20
710.8
30
0
11
394.08
21
710.8
31
0
0
LINE
8
truss
10
394.08
20
710.8
30
0
11
401.88
21
710.8
31
0
0
LINE
8
truss
10
401.88
20
710.8
30
0
11
409.68
21
710.8
31
0
0
LINE
8
truss
10
409.68
20
710.8
30
0
11
417.48
21
710.8
31
0
0
LINE
8
truss
10
417.48
20
710.8
30
0
11
425.28
21
710.8
31
0
0
LINE
8
truss
10
425.28
20
710.8
30
0
11
433.08
21
710.8
31
0
0
LINE
8
truss
10
433.08
20
710.8
30
0
11
440.88
21
710.8
31
0
0
LINE
8
truss
10
440.88
20
710.8
30
0
11
448.68
21
710.8
31
0
0
LINE
8
truss
10
448.68
20
710.8
30
0
11
456.48
21
710.8
31
0
0
LINE
8
truss
10
456.48
20
710.8
30
0
11
464.28
21
710.8
31
0
0
LINE
8
truss
10
464.28
20
710.8
30
0
11
472.08
21
710.8
31
0
0
LINE
8
truss
10
472.08
20
710.8
30
0
11
479.88
21
710.8
31
0
0
LINE
8
truss
10
479.88
20
710.8
30
0
11
487.68
21
710.8
31
0
0
LINE
8
truss
10
487.68
20
710.8
30
0
11
495.48
21
710.8
31
0
0
LINE
8
truss
10
495.48
20
710.8
30
0
11
503.28
21
710.8
31
0
0
LINE
8
truss
10
503.28
20
710.8
30
0
11
511.08
21
710.8
31
0
0
LINE
8
truss
10
355.08
20
718
30
0
11
355.08
21
710.8
31
0
0
LINE
8
truss
10
362.88
20
718
30
0
11
362.88
21
710.8
31
0
0
LINE
8
truss
10
370.68
20
718
30
0
11
370.68
21
710.8
31
0
0
LINE
8
truss
10
378.48
20
718
30
0
11
378.48
21
710.8
31
0
0
LINE
8
truss
10
386.28
20
718
30
0
11
386.28
21
710.8
31
0
0
LINE
8
truss
10
394.08
20
718
30
0
11
394.08
21
710.8
31
0
0
LINE
8
truss
10
401.88
20
718
30
0
11
401.88
21
710.8
31
0
0
LINE
8
truss
10
409.68
20
718
30
0
11
409.68
21
710.8
31
0
0
LINE
8
truss
10
417.48
20
718
30
0
11
417.48
21
710.8
31
0
0
LINE
8
truss
10
425.28
20
718
30
0
11
425.28
21
710.8
31
0
0
LINE
8
truss
10
433.08
20
718
30
0
11
433.08
21
710.8
31
0
0
LINE
8
truss
10
440.88
20
718
30
0
11
440.88
21
710.8
31
0
0
LINE
8
truss
10
448.68
20
718
30
0
11
448.68
21
710.8
31
0
0
LINE
8
truss
10
456.48
20
718
30
0
11
456.48
21
710.8
31
0
0
LINE
8
truss
10
464.28
20
718
30
0
11
464.28
21
710.8
31
0
0
LINE
8
truss
10
472.08
20
718
30
0
11
472.08
21
710.8
31
0
0
LINE
8
truss
10
479.88
20
718
30
0
11
479.88
21
710.8
31
0
0
LINE
8
truss
10
487.68
20
718
30
0
11
487.68
21
710.8
31
0
0
LINE
8
truss
10
495.48
20
718
30
0
11
495.48
21
710.8
31
0
0
LINE
8
truss
10
503.28
20
718
30
0
11
503.28
21
710.8
31
0
0
LINE
8
truss
10
511.08
20
718
30
0
11
511.08
21
710.8
31
0
0
LINE
8
truss
10
355.08
20
710.8
30
0
11
362.88
21
718
31
0
0
LINE
8
truss
10
362.88
20
718
30
0
11
370.68
21
710.8
31
0
0
LINE
8
truss
10
370.68
20
710.8
30
0
11
378.48
21
718
31
0
0
LINE
8
truss
10
378.48
20
718
30
0
11
386.28
21
710.8
31
0
0
LINE
8
truss
10
386.28
20
710.8
30
0
11
394.08
21
718
31
0
0
LINE
8
truss
10
394.08
20
718
30
0
11
401.88
21
710.8
31
0
0
LINE
8
truss
10
401.88
20
710.8
30
0
11
409.68
21
718
31
0
0
LINE
8
truss
10
409.68
20
718
30
0
11
417.48
21
710.8
31
0
0
LINE
8
truss
10
417.48
20
710.8
30
0
11
425.28
21
718
31
0
0
LINE
8
truss
10
425.28
20
718
30
0
11
433.08
21
710.8
31
0
0
LINE
8
truss
10
433.08
20
710.8
30
0
11
440.88
21
718
31
0
0
LINE
8
truss
10
440.88
20
718
30
0
11
448.68
21
710.8
31
0
0
LINE
8
truss
10
448.68
20
710.8
30
0
11
456.48
21
718
31
0
0
LINE
8
truss
10
456.48
20
718
30
0
11
464.28
21
710.8
31
0
0
LINE
8
truss
10
464.28
20
710.8
30
0
11
472.08
21
718
31
0
0
LINE
8
truss
10
472.08
20
718
30
0
11
479.88
21
710.8
31
0
0
LINE
8
truss
10
479.88
20
710.8
30
0
11
487.68
21
718
31
0
0
LINE
8
truss
10
487.68
20
718
30
0
11
495.48
21
710.8
31
0
0
LINE
8
truss
10
495.48
20
710.8
30
0
11
503.28
21
718
31
0
0
LINE
8
truss
10
503.28
20
718
30
0
11
511.08
21
710.8
31
0
0
LINE
8
truss
10
355.08
20
718
30
0
11
362.88
21
718
31
0
0
LINE
8
truss
10
362.88
20
718
30
0
11
370.68
21
718
31
0
0
LINE
8
truss
10
370.68
20
718
30
0
11
378.48
21
718
31
0
0
LINE
8
truss
10
378.48
20
718
30
0
11
386.28
21
718
31
0
0
LINE
8
truss
10
386.28
20
718
30
0
11
394.08
21
718
31
0
0
LINE
8
truss
10
394.08
20
718
30
0
11
401.88
21
718
31
0
0
LINE
8
truss
10
401.88
20
718
30
0
11
409.68
21
718
31
0
0
LINE
8
truss
10
409.68
20
718
30
0
11
417.48
21
718
31
0
0
LINE
8
truss
10
417.48
20
718
30
0
11
425.28
21
718
31
0
0
LINE
8
truss
10
425.28
20
718
30
0
11
433.08
21
718
31
0
0
LINE
8
truss
10
433.08
20
718
30
0
11
440.88
21
718
31
0
0
LINE
8
truss
10
440.88
20
718
30
0
11
448.68
21
718
31
0
0
LINE
8
truss
10
448.68
20
718
30
0
11
456.48
21
718
31
0
0
LINE
8
truss
10
456.48
20
718
30
0
11
464.28
21
718
31
0
0
LINE
8
truss
10
464.28
20
718
30
0
11
472.08
21
718
31
0
0
LINE
8
truss
10
472.08
20
718
30
0
11
479.88
21
718
31
0
0
LINE
8
truss
10
479.88
20
718
30
0
11
487.68
21
718
31
0
0
LINE
8
truss
10
487.68
20
718
30
0
11
495.48
21
718
31
0
0
LINE
8
truss
10
495.48
20
718
30
0
11
503.28
21
718
31
0
0
LINE
8
truss
10
503.28
20
718
30
0
11
511.08
21
718
31
0
0
LINE
8
truss
10
355.08
20
710.8
30
0
11
362.88
21
710.8
31
0
0
LINE
8
truss
10
362.88
20
710.8
30
0
11
370.68
21
710.8
31
0
0
LINE
8
truss
10
370.68
20
710.8
30
0
11
378.48
21
710.8
31
0
0
LINE
8
truss
10
378.48
20
710.8
30
0
11
386.28
21
710.8
31
0
0
LINE
8
truss
10
386.28
20
710.8
30
0
11
394.08
21
710.8
31
0
0
LINE
8
truss
10
394.08
20
710.8
30
0
11
401.88
21
710.8
31
0
0
LINE
8
truss
10
401.88
20
710.8
30
0
11
409.68
21
710.8
31
0
0
LINE
8
truss
10
409.68
20
710.8
30
0
11
417.48
21
710.8
31
0
0
LINE
8
truss
10
417.48
20
710.8
30
0
11
425.28
21
710.8
31
0
0
LINE
8
truss
10
425.28
20
710.8
30
0
11
433.08
21
710.8
31
0
0
LINE
8
truss
10
433.08
20
710.8
30
0
11
440.88
21
710.8
31
0
0
LINE
8
truss
10
440.88
20
710.8
30
0
11
448.68
21
710.8
31
0
0
LINE
8
truss
10
448.68
20
710.8
30
0
11
456.48
21
710.8
31
0
0
LINE
8
truss
10
456.48
20
710.8
30
0
11
464.28
21
710.8
31
0
0
LINE
8
truss
10
464.28
20
710.8
30
0
11
472.08
21
710.8
31
0
0
LINE
8
truss
10
472.08
20
710.8
30
0
11
479.88
21
710.8
31
0
0
LINE
8
truss
10
479.88
20
710.8
30
0
11
487.68
21
710.8
31
0
0
LINE
8
truss
10
487.68
20
710.8
30
0
11
495.48
21
710.8
31
0
0
LINE
8
truss
10
495.48
20
710.8
30
0
11
503.28
21
710.8
31
0
0
LINE
8
truss
10
503.28
20
710.8
30
0
11
511.08
21
710.8
31
0
0
LINE
8
truss
10
355.08
20
718
30
0
11
355.08
21
710.8
31
0
0
LINE
8
truss
10
362.88
20
718
30
0
11
362.88
21
710.8
31
0
0
LINE
8
truss
10
370.68
20
718
30
0
11
370.68
21
710.8
31
0
0
LINE
8
truss
10
378.48
20
718
30
0
11
378.48
21
710.8
31
0
0
LINE
8
truss
10
386.28
20
718
30
0
11
386.28
21
710.8
31
0
0
LINE
8
truss
10
394.08
20
718
30
0
11
394.08
21
710.8
31
0
0
LINE
8
truss
10
401.88
20
718
30
0
11
401.88
21
710.8
31
0
0
LINE
8
truss
10
409.68
20
718
30
0
11
409.68
21
710.8
31
0
0
LINE
8
truss
10
417.48
20
718
30
0
11
417.48
21
710.8
31
0
0
LINE
8
truss
10
425.28
20
718
30
0
11
425.28
21
710.8
31
0
0
LINE
8
truss
10
433.08
20
718
30
0
11
433.08
21
710.8
31
0
0
LINE
8
truss
10
440.88
20
718
30
0
11
440.88
21
710.8
31
0
0
LINE
8
truss
10
448.68
20
718
30
0
11
448.68
21
710.8
31
0
0
LINE
8
truss
10
456.48
20
718
30
0
11
456.48
21
710.8
31
0
0
LINE
8
truss
10
464.28
20
718
30
0
11
464.28
21
710.8
31
0
0
LINE
8
truss
10
472.08
20
718
30
0
11
472.08
21
710.8
31
0
0
LINE
8
truss
10
479.88
20
718
30
0
11
479.88
21
710.8
31
0
0
LINE
8
truss
10
487.68
20
718
30
0
11
487.68
21
710.8
31
0
0
LINE
8
truss
10
495.48
20
718
30
0
11
495.48
21
710.8
31
0
0
LINE
8
truss
10
503.28
20
718
30
0
11
503.28
21
710.8
31
0
0
LINE
8
truss
10
511.08
20
718
30
0
11
511.08
21
710.8
31
0
0
LINE
8
truss
10
355.08
20
710.8
30
0
11
362.88
21
718
31
0
0
LINE
8
truss
10
362.88
20
718
30
0
11
370.68
21
710.8
31
0
0
LINE
8
truss
10
370.68
20
710.8
30
0
11
378.48
21
718
31
0
0
LINE
8
truss
10
378.48
20
718
30
0
11
386.28
21
710.8
31
0
0
LINE
8
truss
10
386.28
20
710.8
30
0
11
394.08
21
718
31
0
0
LINE
8
truss
10
394.08
20
718
30
0
11
401.88
21
710.8
31
0
0
LINE
8
truss
10
401.88
20
710.8
30
0
11
409.68
21
718
31
0
0
LINE
8
truss
10
409.68
20
718
30
0
11
417.48
21
710.8
31
0
0
LINE
8
truss
10
417.48
20
710.8
30
0
11
425.28
21
718
31
0
0
LINE
8
truss
10
425.28
20
718
30
0
11
433.08
21
710.8
31
0
0
LINE
8
truss
10
433.08
20
710.8
30
0
11
440.88
21
718
31
0
0
LINE
8
truss
10
440.88
20
718
30
0
11
448.68
21
710.8
31
0
0
LINE
8
truss
10
448.68
20
710.8
30
0
11
456.48
21
718
31
0
0
LINE
8
truss
10
456.48
20
718
30
0
11
464.28
21
710.8
31
0
0
LINE
8
truss
10
464.28
20
710.8
30
0
11
472.08
21
718
31
0
0
LINE
8
truss
10
472.08
20
718
30
0
11
479.88
21
710.8
31
0
0
LINE
8
truss
10
479.88
20
710.8
30
0
11
487.68
21
718
31
0
0
LINE
8
truss
10
487.68
20
718
30
0
11
495.48
21
710.8
31
0
0
LINE
8
truss
10
495.48
20
710.8
30
0
11
503.28
21
718
31
0
0
LINE
8
truss
10
503.28
20
718
30
0
11
511.08
21
710.8
31
0
0
LINE
8
main
10
511.08
20
718
30
0
11
523.08
21
718
31
0
0
LINE
8
main
10
511.08
20
718
30
0
11
523.08
21
718
31
0
0
LINE
8
secondary
10
511.08
20
718
30
0
11
523.08
21
718
31
0
0
LINE
8
secondary
10
511.08
20
718
30
0
11
523.08
21
718
31
0
0
LINE
8
secondary
10
511.08
20
718
30
0
11
523.08
21
718
31
0
0
LINE
8
secondary
10
511.08
20
718
30
0
11
523.08
21
718
31
0
0
LINE
8
brace
10
511.08
20
718
30
0
11
523.08
21
718
31
0
0
LINE
8
brace
10
511.08
20
650
30
0
11
523.08
21
718
31
0
0
LINE
8
brace
10
511.08
20
650
30
0
11
523.08
21
718
31
0
0
LINE
8
center
10
45
20
650
30
0
11
523.08
21
650
31
0
0
LINE
8
dimension
10
45
20
650
30
0
11
45
21
632
31
0
0
LINE
8
dimension
10
523.08
20
650
30
0
11
523.08
21
632
31
0
0
LINE
8
dimension
10
45
20
632
30
0
11
523.08
21
632
31
0
0
TEXT
8
dimension
10
284.04
20
634
30
0
40
3.2
1
总长 119520
0
LINE
8
dimension
10
45
20
728
30
0
11
45
21
734
31
0
0
LINE
8
dimension
10
93
20
728
30
0
11
93
21
734
31
0
0
LINE
8
dimension
10
45
20
734
30
0
11
93
21
734
31
0
0
TEXT
8
dimension
10
69
20
736
30
0
40
3.2
1
12000
0
LINE
8
dimension
10
93
20
728
30
0
11
93
21
734
31
0
0
LINE
8
dimension
10
141
20
728
30
0
11
141
21
734
31
0
0
LINE
8
dimension
10
93
20
734
30
0
11
141
21
734
31
0
0
TEXT
8
dimension
10
117
20
736
30
0
40
3.2
1
12000
0
LINE
8
dimension
10
141
20
728
30
0
11
141
21
734
31
0
0
LINE
8
dimension
10
189
20
728
30
0
11
189
21
734
31
0
0
LINE
8
dimension
10
141
20
734
30
0
11
189
21
734
31
0
0
TEXT
8
dimension
10
165
20
736
30
0
40
3.2
1
12000
0
LINE
8
dimension
10
189
20
728
30
0
11
189
21
734
31
0
0
LINE
8
dimension
10
201
20
728
30
0
11
201
21
734
31
0
0
LINE
8
dimension
10
189
20
734
30
0
11
201
21
734
31
0
0
TEXT
8
dimension
10
195
20
736
30
0
40
3.2
1
3000
0
LINE
8
dimension
10
201
20
728
30
0
11
201
21
734
31
0
0
LINE
8
dimension
10
283.08
20
728
30
0
11
283.08
21
734
31
0
0
LINE
8
dimension
10
201
20
734
30
0
11
283.08
21
734
31
0
0
TEXT
8
dimension
10
242.04
20
736
30
0
40
3.2
1
20520
0
LINE
8
dimension
10
283.08
20
728
30
0
11
283.08
21
734
31
0
0
LINE
8
dimension
10
295.08
20
728
30
0
11
295.08
21
734
31
0
0
LINE
8
dimension
10
283.08
20
734
30
0
11
295.08
21
734
31
0
0
TEXT
8
dimension
10
289.08
20
736
30
0
40
3.2
1
3000
0
LINE
8
dimension
10
295.08
20
728
30
0
11
295.08
21
734
31
0
0
LINE
8
dimension
10
343.08
20
728
30
0
11
343.08
21
734
31
0
0
LINE
8
dimension
10
295.08
20
734
30
0
11
343.08
21
734
31
0
0
TEXT
8
dimension
10
319.08
20
736
30
0
40
3.2
1
12000
0
LINE
8
dimension
10
343.08
20
728
30
0
11
343.08
21
734
31
0
0
LINE
8
dimension
10
355.08
20
728
30
0
11
355.08
21
734
31
0
0
LINE
8
dimension
10
343.08
20
734
30
0
11
355.08
21
734
31
0
0
TEXT
8
dimension
10
349.08
20
736
30
0
40
3.2
1
3000
0
LINE
8
dimension
10
355.08
20
728
30
0
11
355.08
21
734
31
0
0
LINE
8
dimension
10
511.08
20
728
30
0
11
511.08
21
734
31
0
0
LINE
8
dimension
10
355.08
20
734
30
0
11
511.08
21
734
31
0
0
TEXT
8
dimension
10
433.08
20
736
30
0
40
3.2
1
39000
0
LINE
8
dimension
10
511.08
20
728
30
0
11
511.08
21
734
31
0
0
LINE
8
dimension
10
523.08
20
728
30
0
11
523.08
21
734
31
0
0
LINE
8
dimension
10
511.08
20
734
30
0
11
523.08
21
734
31
0
0
TEXT
8
dimension
10
517.08
20
736
30
0
40
3.2
1
3000
0
TEXT
8
annotation
10
40
20
641
30
0
40
2.6
1
Z1\n0
0
TEXT
8
annotation
10
88
20
641
30
0
40
2.6
1
Z2\n12000
0
TEXT
8
annotation
10
136
20
641
30
0
40
2.6
1
Z3\n24000
0
TEXT
8
annotation
10
184
20
641
30
0
40
2.6
1
Z4\n36000
0
TEXT
8
annotation
10
196
20
641
30
0
40
2.6
1
Z5\n39000
0
TEXT
8
annotation
10
278.08
20
641
30
0
40
2.6
1
Z6\n59520
0
TEXT
8
annotation
10
290.08
20
641
30
0
40
2.6
1
Z7\n62520
0
TEXT
8
annotation
10
338.08
20
641
30
0
40
2.6
1
Z8\n74520
0
TEXT
8
annotation
10
350.08
20
641
30
0
40
2.6
1
Z9\n77520
0
TEXT
8
annotation
10
506.08
20
641
30
0
40
2.6
1
Z10\n116520
0
TEXT
8
annotation
10
518.08
20
641
30
0
40
2.6
1
Z11\n119520
0
LINE
8
standard
10
57
20
642
30
0
11
57
21
738
31
0
0
TEXT
8
standard
10
59
20
741
30
0
40
2.8
1
拼接缝 P1/P2
0
LINE
8
standard
10
211.08
20
642
30
0
11
211.08
21
738
31
0
0
TEXT
8
standard
10
213.08
20
741
30
0
40
2.8
1
拼接缝 P2/P3
0
LINE
8
standard
10
379.08
20
642
30
0
11
379.08
21
738
31
0
0
TEXT
8
standard
10
381.08
20
741
30
0
40
2.8
1
拼接缝 P3/P4
0
LINE
8
dimension
10
541.08
20
650
30
0
11
532.08
21
650
31
0
0
LINE
8
dimension
10
541.08
20
718
30
0
11
532.08
21
718
31
0
0
LINE
8
dimension
10
532.08
20
650
30
0
11
532.08
21
718
31
0
0
TEXT
8
dimension
10
532.08
20
686
30
0
40
3.2
1
端部标高 17000
0
TEXT
8
annotation
10
53
20
746
30
0
40
3
1
立面：支架里程参数；倾角 0.0 deg；拼接段 4 段
0
TEXT
8
title
10
35
20
470
30
0
40
5
1
B-B 平面图
0
LINE
8
title
10
35
20
468
30
0
11
153
21
468
31
0
0
LINE
8
main
10
45
20
396.2
30
0
11
45
21
415.8
31
0
0
LINE
8
main
10
93
20
396.2
30
0
11
93
21
415.8
31
0
0
LINE
8
main
10
141
20
396.2
30
0
11
141
21
415.8
31
0
0
LINE
8
main
10
189
20
396.2
30
0
11
189
21
415.8
31
0
0
LINE
8
main
10
201
20
396.2
30
0
11
201
21
415.8
31
0
0
LINE
8
main
10
283.08
20
396.2
30
0
11
283.08
21
415.8
31
0
0
LINE
8
main
10
295.08
20
396.2
30
0
11
295.08
21
415.8
31
0
0
LINE
8
main
10
343.08
20
396.2
30
0
11
343.08
21
415.8
31
0
0
LINE
8
main
10
355.08
20
396.2
30
0
11
355.08
21
415.8
31
0
0
LINE
8
main
10
511.08
20
396.2
30
0
11
511.08
21
415.8
31
0
0
LINE
8
main
10
523.08
20
396.2
30
0
11
523.08
21
415.8
31
0
0
LINE
8
secondary
10
39.4
20
396.2
30
0
11
45
21
396.2
31
0
0
LINE
8
secondary
10
39.4
20
415.8
30
0
11
45
21
415.8
31
0
0
LINE
8
main
10
45
20
393.5
30
0
11
57
21
393.5
31
0
0
LINE
8
main
10
57
20
393.5
30
0
11
69
21
393.5
31
0
0
LINE
8
main
10
69
20
393.5
30
0
11
81
21
393.5
31
0
0
LINE
8
main
10
81
20
393.5
30
0
11
93
21
393.5
31
0
0
LINE
8
main
10
45
20
416.5
30
0
11
57
21
416.5
31
0
0
LINE
8
main
10
57
20
416.5
30
0
11
69
21
416.5
31
0
0
LINE
8
main
10
69
20
416.5
30
0
11
81
21
416.5
31
0
0
LINE
8
main
10
81
20
416.5
30
0
11
93
21
416.5
31
0
0
LINE
8
main
10
57
20
396.2
30
0
11
57
21
415.8
31
0
0
LINE
8
main
10
69
20
396.2
30
0
11
69
21
415.8
31
0
0
LINE
8
main
10
81
20
396.2
30
0
11
81
21
415.8
31
0
0
LINE
8
secondary
10
45
20
400.7
30
0
11
57
21
400.7
31
0
0
LINE
8
secondary
10
57
20
400.7
30
0
11
69
21
400.7
31
0
0
LINE
8
secondary
10
69
20
400.7
30
0
11
81
21
400.7
31
0
0
LINE
8
secondary
10
81
20
400.7
30
0
11
93
21
400.7
31
0
0
LINE
8
secondary
10
45
20
409.3
30
0
11
57
21
409.3
31
0
0
LINE
8
secondary
10
57
20
409.3
30
0
11
69
21
409.3
31
0
0
LINE
8
secondary
10
69
20
409.3
30
0
11
81
21
409.3
31
0
0
LINE
8
secondary
10
81
20
409.3
30
0
11
93
21
409.3
31
0
0
LINE
8
secondary
10
45
20
396.2
30
0
11
57
21
396.2
31
0
0
LINE
8
secondary
10
57
20
396.2
30
0
11
69
21
396.2
31
0
0
LINE
8
secondary
10
69
20
396.2
30
0
11
81
21
396.2
31
0
0
LINE
8
secondary
10
81
20
396.2
30
0
11
93
21
396.2
31
0
0
LINE
8
secondary
10
45
20
415.8
30
0
11
57
21
415.8
31
0
0
LINE
8
secondary
10
57
20
415.8
30
0
11
69
21
415.8
31
0
0
LINE
8
secondary
10
69
20
415.8
30
0
11
81
21
415.8
31
0
0
LINE
8
secondary
10
81
20
415.8
30
0
11
93
21
415.8
31
0
0
LINE
8
brace
10
45
20
393.5
30
0
11
57
21
416.5
31
0
0
LINE
8
brace
10
57
20
416.5
30
0
11
69
21
393.5
31
0
0
LINE
8
brace
10
69
20
393.5
30
0
11
81
21
416.5
31
0
0
LINE
8
brace
10
81
20
416.5
30
0
11
93
21
393.5
31
0
0
LINE
8
main
10
93
20
393.5
30
0
11
105
21
393.5
31
0
0
LINE
8
main
10
105
20
393.5
30
0
11
117
21
393.5
31
0
0
LINE
8
main
10
117
20
393.5
30
0
11
129
21
393.5
31
0
0
LINE
8
main
10
129
20
393.5
30
0
11
141
21
393.5
31
0
0
LINE
8
main
10
93
20
416.5
30
0
11
105
21
416.5
31
0
0
LINE
8
main
10
105
20
416.5
30
0
11
117
21
416.5
31
0
0
LINE
8
main
10
117
20
416.5
30
0
11
129
21
416.5
31
0
0
LINE
8
main
10
129
20
416.5
30
0
11
141
21
416.5
31
0
0
LINE
8
main
10
105
20
396.2
30
0
11
105
21
415.8
31
0
0
LINE
8
main
10
117
20
396.2
30
0
11
117
21
415.8
31
0
0
LINE
8
main
10
129
20
396.2
30
0
11
129
21
415.8
31
0
0
LINE
8
secondary
10
93
20
400.7
30
0
11
105
21
400.7
31
0
0
LINE
8
secondary
10
105
20
400.7
30
0
11
117
21
400.7
31
0
0
LINE
8
secondary
10
117
20
400.7
30
0
11
129
21
400.7
31
0
0
LINE
8
secondary
10
129
20
400.7
30
0
11
141
21
400.7
31
0
0
LINE
8
secondary
10
93
20
409.3
30
0
11
105
21
409.3
31
0
0
LINE
8
secondary
10
105
20
409.3
30
0
11
117
21
409.3
31
0
0
LINE
8
secondary
10
117
20
409.3
30
0
11
129
21
409.3
31
0
0
LINE
8
secondary
10
129
20
409.3
30
0
11
141
21
409.3
31
0
0
LINE
8
secondary
10
93
20
396.2
30
0
11
105
21
396.2
31
0
0
LINE
8
secondary
10
105
20
396.2
30
0
11
117
21
396.2
31
0
0
LINE
8
secondary
10
117
20
396.2
30
0
11
129
21
396.2
31
0
0
LINE
8
secondary
10
129
20
396.2
30
0
11
141
21
396.2
31
0
0
LINE
8
secondary
10
93
20
415.8
30
0
11
105
21
415.8
31
0
0
LINE
8
secondary
10
105
20
415.8
30
0
11
117
21
415.8
31
0
0
LINE
8
secondary
10
117
20
415.8
30
0
11
129
21
415.8
31
0
0
LINE
8
secondary
10
129
20
415.8
30
0
11
141
21
415.8
31
0
0
LINE
8
brace
10
93
20
393.5
30
0
11
105
21
416.5
31
0
0
LINE
8
brace
10
105
20
416.5
30
0
11
117
21
393.5
31
0
0
LINE
8
brace
10
117
20
393.5
30
0
11
129
21
416.5
31
0
0
LINE
8
brace
10
129
20
416.5
30
0
11
141
21
393.5
31
0
0
LINE
8
main
10
141
20
393.5
30
0
11
153
21
393.5
31
0
0
LINE
8
main
10
153
20
393.5
30
0
11
165
21
393.5
31
0
0
LINE
8
main
10
165
20
393.5
30
0
11
177
21
393.5
31
0
0
LINE
8
main
10
177
20
393.5
30
0
11
189
21
393.5
31
0
0
LINE
8
main
10
141
20
416.5
30
0
11
153
21
416.5
31
0
0
LINE
8
main
10
153
20
416.5
30
0
11
165
21
416.5
31
0
0
LINE
8
main
10
165
20
416.5
30
0
11
177
21
416.5
31
0
0
LINE
8
main
10
177
20
416.5
30
0
11
189
21
416.5
31
0
0
LINE
8
main
10
153
20
396.2
30
0
11
153
21
415.8
31
0
0
LINE
8
main
10
165
20
396.2
30
0
11
165
21
415.8
31
0
0
LINE
8
main
10
177
20
396.2
30
0
11
177
21
415.8
31
0
0
LINE
8
secondary
10
141
20
400.7
30
0
11
153
21
400.7
31
0
0
LINE
8
secondary
10
153
20
400.7
30
0
11
165
21
400.7
31
0
0
LINE
8
secondary
10
165
20
400.7
30
0
11
177
21
400.7
31
0
0
LINE
8
secondary
10
177
20
400.7
30
0
11
189
21
400.7
31
0
0
LINE
8
secondary
10
141
20
409.3
30
0
11
153
21
409.3
31
0
0
LINE
8
secondary
10
153
20
409.3
30
0
11
165
21
409.3
31
0
0
LINE
8
secondary
10
165
20
409.3
30
0
11
177
21
409.3
31
0
0
LINE
8
secondary
10
177
20
409.3
30
0
11
189
21
409.3
31
0
0
LINE
8
secondary
10
141
20
396.2
30
0
11
153
21
396.2
31
0
0
LINE
8
secondary
10
153
20
396.2
30
0
11
165
21
396.2
31
0
0
LINE
8
secondary
10
165
20
396.2
30
0
11
177
21
396.2
31
0
0
LINE
8
secondary
10
177
20
396.2
30
0
11
189
21
396.2
31
0
0
LINE
8
secondary
10
141
20
415.8
30
0
11
153
21
415.8
31
0
0
LINE
8
secondary
10
153
20
415.8
30
0
11
165
21
415.8
31
0
0
LINE
8
secondary
10
165
20
415.8
30
0
11
177
21
415.8
31
0
0
LINE
8
secondary
10
177
20
415.8
30
0
11
189
21
415.8
31
0
0
LINE
8
brace
10
141
20
393.5
30
0
11
153
21
416.5
31
0
0
LINE
8
brace
10
153
20
416.5
30
0
11
165
21
393.5
31
0
0
LINE
8
brace
10
165
20
393.5
30
0
11
177
21
416.5
31
0
0
LINE
8
brace
10
177
20
416.5
30
0
11
189
21
393.5
31
0
0
LINE
8
main
10
189
20
393.5
30
0
11
201
21
393.5
31
0
0
LINE
8
main
10
189
20
416.5
30
0
11
201
21
416.5
31
0
0
LINE
8
secondary
10
189
20
400.7
30
0
11
201
21
400.7
31
0
0
LINE
8
secondary
10
189
20
409.3
30
0
11
201
21
409.3
31
0
0
LINE
8
secondary
10
189
20
396.2
30
0
11
201
21
396.2
31
0
0
LINE
8
secondary
10
189
20
415.8
30
0
11
201
21
415.8
31
0
0
LINE
8
brace
10
189
20
393.5
30
0
11
201
21
416.5
31
0
0
LINE
8
main
10
201
20
393.5
30
0
11
212.725714
21
393.5
31
0
0
LINE
8
main
10
212.725714
20
393.5
30
0
11
224.451429
21
393.5
31
0
0
LINE
8
main
10
224.451429
20
393.5
30
0
11
236.177143
21
393.5
31
0
0
LINE
8
main
10
236.177143
20
393.5
30
0
11
247.902857
21
393.5
31
0
0
LINE
8
main
10
247.902857
20
393.5
30
0
11
259.628571
21
393.5
31
0
0
LINE
8
main
10
259.628571
20
393.5
30
0
11
271.354286
21
393.5
31
0
0
LINE
8
main
10
271.354286
20
393.5
30
0
11
283.08
21
393.5
31
0
0
LINE
8
main
10
201
20
416.5
30
0
11
212.725714
21
416.5
31
0
0
LINE
8
main
10
212.725714
20
416.5
30
0
11
224.451429
21
416.5
31
0
0
LINE
8
main
10
224.451429
20
416.5
30
0
11
236.177143
21
416.5
31
0
0
LINE
8
main
10
236.177143
20
416.5
30
0
11
247.902857
21
416.5
31
0
0
LINE
8
main
10
247.902857
20
416.5
30
0
11
259.628571
21
416.5
31
0
0
LINE
8
main
10
259.628571
20
416.5
30
0
11
271.354286
21
416.5
31
0
0
LINE
8
main
10
271.354286
20
416.5
30
0
11
283.08
21
416.5
31
0
0
LINE
8
main
10
212.725714
20
396.2
30
0
11
212.725714
21
415.8
31
0
0
LINE
8
main
10
224.451429
20
396.2
30
0
11
224.451429
21
415.8
31
0
0
LINE
8
main
10
236.177143
20
396.2
30
0
11
236.177143
21
415.8
31
0
0
LINE
8
main
10
247.902857
20
396.2
30
0
11
247.902857
21
415.8
31
0
0
LINE
8
main
10
259.628571
20
396.2
30
0
11
259.628571
21
415.8
31
0
0
LINE
8
main
10
271.354286
20
396.2
30
0
11
271.354286
21
415.8
31
0
0
LINE
8
secondary
10
201
20
400.7
30
0
11
212.725714
21
400.7
31
0
0
LINE
8
secondary
10
212.725714
20
400.7
30
0
11
224.451429
21
400.7
31
0
0
LINE
8
secondary
10
224.451429
20
400.7
30
0
11
236.177143
21
400.7
31
0
0
LINE
8
secondary
10
236.177143
20
400.7
30
0
11
247.902857
21
400.7
31
0
0
LINE
8
secondary
10
247.902857
20
400.7
30
0
11
259.628571
21
400.7
31
0
0
LINE
8
secondary
10
259.628571
20
400.7
30
0
11
271.354286
21
400.7
31
0
0
LINE
8
secondary
10
271.354286
20
400.7
30
0
11
283.08
21
400.7
31
0
0
LINE
8
secondary
10
201
20
409.3
30
0
11
212.725714
21
409.3
31
0
0
LINE
8
secondary
10
212.725714
20
409.3
30
0
11
224.451429
21
409.3
31
0
0
LINE
8
secondary
10
224.451429
20
409.3
30
0
11
236.177143
21
409.3
31
0
0
LINE
8
secondary
10
236.177143
20
409.3
30
0
11
247.902857
21
409.3
31
0
0
LINE
8
secondary
10
247.902857
20
409.3
30
0
11
259.628571
21
409.3
31
0
0
LINE
8
secondary
10
259.628571
20
409.3
30
0
11
271.354286
21
409.3
31
0
0
LINE
8
secondary
10
271.354286
20
409.3
30
0
11
283.08
21
409.3
31
0
0
LINE
8
secondary
10
201
20
396.2
30
0
11
212.725714
21
396.2
31
0
0
LINE
8
secondary
10
212.725714
20
396.2
30
0
11
224.451429
21
396.2
31
0
0
LINE
8
secondary
10
224.451429
20
396.2
30
0
11
236.177143
21
396.2
31
0
0
LINE
8
secondary
10
236.177143
20
396.2
30
0
11
247.902857
21
396.2
31
0
0
LINE
8
secondary
10
247.902857
20
396.2
30
0
11
259.628571
21
396.2
31
0
0
LINE
8
secondary
10
259.628571
20
396.2
30
0
11
271.354286
21
396.2
31
0
0
LINE
8
secondary
10
271.354286
20
396.2
30
0
11
283.08
21
396.2
31
0
0
LINE
8
secondary
10
201
20
415.8
30
0
11
212.725714
21
415.8
31
0
0
LINE
8
secondary
10
212.725714
20
415.8
30
0
11
224.451429
21
415.8
31
0
0
LINE
8
secondary
10
224.451429
20
415.8
30
0
11
236.177143
21
415.8
31
0
0
LINE
8
secondary
10
236.177143
20
415.8
30
0
11
247.902857
21
415.8
31
0
0
LINE
8
secondary
10
247.902857
20
415.8
30
0
11
259.628571
21
415.8
31
0
0
LINE
8
secondary
10
259.628571
20
415.8
30
0
11
271.354286
21
415.8
31
0
0
LINE
8
secondary
10
271.354286
20
415.8
30
0
11
283.08
21
415.8
31
0
0
LINE
8
brace
10
201
20
393.5
30
0
11
212.725714
21
416.5
31
0
0
LINE
8
brace
10
212.725714
20
416.5
30
0
11
224.451429
21
393.5
31
0
0
LINE
8
brace
10
224.451429
20
393.5
30
0
11
236.177143
21
416.5
31
0
0
LINE
8
brace
10
236.177143
20
416.5
30
0
11
247.902857
21
393.5
31
0
0
LINE
8
brace
10
247.902857
20
393.5
30
0
11
259.628571
21
416.5
31
0
0
LINE
8
brace
10
259.628571
20
416.5
30
0
11
271.354286
21
393.5
31
0
0
LINE
8
brace
10
271.354286
20
393.5
30
0
11
283.08
21
416.5
31
0
0
LINE
8
truss
10
201
20
393.5
30
0
11
208.461818
21
393.5
31
0
0
LINE
8
truss
10
208.461818
20
393.5
30
0
11
215.923636
21
393.5
31
0
0
LINE
8
truss
10
215.923636
20
393.5
30
0
11
223.385455
21
393.5
31
0
0
LINE
8
truss
10
223.385455
20
393.5
30
0
11
230.847273
21
393.5
31
0
0
LINE
8
truss
10
230.847273
20
393.5
30
0
11
238.309091
21
393.5
31
0
0
LINE
8
truss
10
238.309091
20
393.5
30
0
11
245.770909
21
393.5
31
0
0
LINE
8
truss
10
245.770909
20
393.5
30
0
11
253.232727
21
393.5
31
0
0
LINE
8
truss
10
253.232727
20
393.5
30
0
11
260.694545
21
393.5
31
0
0
LINE
8
truss
10
260.694545
20
393.5
30
0
11
268.156364
21
393.5
31
0
0
LINE
8
truss
10
268.156364
20
393.5
30
0
11
275.618182
21
393.5
31
0
0
LINE
8
truss
10
275.618182
20
393.5
30
0
11
283.08
21
393.5
31
0
0
LINE
8
truss
10
201
20
393.5
30
0
11
208.461818
21
393.5
31
0
0
LINE
8
truss
10
208.461818
20
393.5
30
0
11
215.923636
21
393.5
31
0
0
LINE
8
truss
10
215.923636
20
393.5
30
0
11
223.385455
21
393.5
31
0
0
LINE
8
truss
10
223.385455
20
393.5
30
0
11
230.847273
21
393.5
31
0
0
LINE
8
truss
10
230.847273
20
393.5
30
0
11
238.309091
21
393.5
31
0
0
LINE
8
truss
10
238.309091
20
393.5
30
0
11
245.770909
21
393.5
31
0
0
LINE
8
truss
10
245.770909
20
393.5
30
0
11
253.232727
21
393.5
31
0
0
LINE
8
truss
10
253.232727
20
393.5
30
0
11
260.694545
21
393.5
31
0
0
LINE
8
truss
10
260.694545
20
393.5
30
0
11
268.156364
21
393.5
31
0
0
LINE
8
truss
10
268.156364
20
393.5
30
0
11
275.618182
21
393.5
31
0
0
LINE
8
truss
10
275.618182
20
393.5
30
0
11
283.08
21
393.5
31
0
0
LINE
8
truss
10
201
20
393.5
30
0
11
208.461818
21
393.5
31
0
0
LINE
8
truss
10
208.461818
20
393.5
30
0
11
215.923636
21
393.5
31
0
0
LINE
8
truss
10
215.923636
20
393.5
30
0
11
223.385455
21
393.5
31
0
0
LINE
8
truss
10
223.385455
20
393.5
30
0
11
230.847273
21
393.5
31
0
0
LINE
8
truss
10
230.847273
20
393.5
30
0
11
238.309091
21
393.5
31
0
0
LINE
8
truss
10
238.309091
20
393.5
30
0
11
245.770909
21
393.5
31
0
0
LINE
8
truss
10
245.770909
20
393.5
30
0
11
253.232727
21
393.5
31
0
0
LINE
8
truss
10
253.232727
20
393.5
30
0
11
260.694545
21
393.5
31
0
0
LINE
8
truss
10
260.694545
20
393.5
30
0
11
268.156364
21
393.5
31
0
0
LINE
8
truss
10
268.156364
20
393.5
30
0
11
275.618182
21
393.5
31
0
0
LINE
8
truss
10
275.618182
20
393.5
30
0
11
283.08
21
393.5
31
0
0
LINE
8
truss
10
201
20
416.5
30
0
11
208.461818
21
416.5
31
0
0
LINE
8
truss
10
208.461818
20
416.5
30
0
11
215.923636
21
416.5
31
0
0
LINE
8
truss
10
215.923636
20
416.5
30
0
11
223.385455
21
416.5
31
0
0
LINE
8
truss
10
223.385455
20
416.5
30
0
11
230.847273
21
416.5
31
0
0
LINE
8
truss
10
230.847273
20
416.5
30
0
11
238.309091
21
416.5
31
0
0
LINE
8
truss
10
238.309091
20
416.5
30
0
11
245.770909
21
416.5
31
0
0
LINE
8
truss
10
245.770909
20
416.5
30
0
11
253.232727
21
416.5
31
0
0
LINE
8
truss
10
253.232727
20
416.5
30
0
11
260.694545
21
416.5
31
0
0
LINE
8
truss
10
260.694545
20
416.5
30
0
11
268.156364
21
416.5
31
0
0
LINE
8
truss
10
268.156364
20
416.5
30
0
11
275.618182
21
416.5
31
0
0
LINE
8
truss
10
275.618182
20
416.5
30
0
11
283.08
21
416.5
31
0
0
LINE
8
truss
10
201
20
416.5
30
0
11
208.461818
21
416.5
31
0
0
LINE
8
truss
10
208.461818
20
416.5
30
0
11
215.923636
21
416.5
31
0
0
LINE
8
truss
10
215.923636
20
416.5
30
0
11
223.385455
21
416.5
31
0
0
LINE
8
truss
10
223.385455
20
416.5
30
0
11
230.847273
21
416.5
31
0
0
LINE
8
truss
10
230.847273
20
416.5
30
0
11
238.309091
21
416.5
31
0
0
LINE
8
truss
10
238.309091
20
416.5
30
0
11
245.770909
21
416.5
31
0
0
LINE
8
truss
10
245.770909
20
416.5
30
0
11
253.232727
21
416.5
31
0
0
LINE
8
truss
10
253.232727
20
416.5
30
0
11
260.694545
21
416.5
31
0
0
LINE
8
truss
10
260.694545
20
416.5
30
0
11
268.156364
21
416.5
31
0
0
LINE
8
truss
10
268.156364
20
416.5
30
0
11
275.618182
21
416.5
31
0
0
LINE
8
truss
10
275.618182
20
416.5
30
0
11
283.08
21
416.5
31
0
0
LINE
8
truss
10
201
20
416.5
30
0
11
208.461818
21
416.5
31
0
0
LINE
8
truss
10
208.461818
20
416.5
30
0
11
215.923636
21
416.5
31
0
0
LINE
8
truss
10
215.923636
20
416.5
30
0
11
223.385455
21
416.5
31
0
0
LINE
8
truss
10
223.385455
20
416.5
30
0
11
230.847273
21
416.5
31
0
0
LINE
8
truss
10
230.847273
20
416.5
30
0
11
238.309091
21
416.5
31
0
0
LINE
8
truss
10
238.309091
20
416.5
30
0
11
245.770909
21
416.5
31
0
0
LINE
8
truss
10
245.770909
20
416.5
30
0
11
253.232727
21
416.5
31
0
0
LINE
8
truss
10
253.232727
20
416.5
30
0
11
260.694545
21
416.5
31
0
0
LINE
8
truss
10
260.694545
20
416.5
30
0
11
268.156364
21
416.5
31
0
0
LINE
8
truss
10
268.156364
20
416.5
30
0
11
275.618182
21
416.5
31
0
0
LINE
8
truss
10
275.618182
20
416.5
30
0
11
283.08
21
416.5
31
0
0
LINE
8
main
10
283.08
20
393.5
30
0
11
295.08
21
393.5
31
0
0
LINE
8
main
10
283.08
20
416.5
30
0
11
295.08
21
416.5
31
0
0
LINE
8
secondary
10
283.08
20
400.7
30
0
11
295.08
21
400.7
31
0
0
LINE
8
secondary
10
283.08
20
409.3
30
0
11
295.08
21
409.3
31
0
0
LINE
8
secondary
10
283.08
20
396.2
30
0
11
295.08
21
396.2
31
0
0
LINE
8
secondary
10
283.08
20
415.8
30
0
11
295.08
21
415.8
31
0
0
LINE
8
brace
10
283.08
20
393.5
30
0
11
295.08
21
416.5
31
0
0
LINE
8
main
10
295.08
20
393.5
30
0
11
307.08
21
393.5
31
0
0
LINE
8
main
10
307.08
20
393.5
30
0
11
319.08
21
393.5
31
0
0
LINE
8
main
10
319.08
20
393.5
30
0
11
331.08
21
393.5
31
0
0
LINE
8
main
10
331.08
20
393.5
30
0
11
343.08
21
393.5
31
0
0
LINE
8
main
10
295.08
20
416.5
30
0
11
307.08
21
416.5
31
0
0
LINE
8
main
10
307.08
20
416.5
30
0
11
319.08
21
416.5
31
0
0
LINE
8
main
10
319.08
20
416.5
30
0
11
331.08
21
416.5
31
0
0
LINE
8
main
10
331.08
20
416.5
30
0
11
343.08
21
416.5
31
0
0
LINE
8
main
10
307.08
20
396.2
30
0
11
307.08
21
415.8
31
0
0
LINE
8
main
10
319.08
20
396.2
30
0
11
319.08
21
415.8
31
0
0
LINE
8
main
10
331.08
20
396.2
30
0
11
331.08
21
415.8
31
0
0
LINE
8
secondary
10
295.08
20
400.7
30
0
11
307.08
21
400.7
31
0
0
LINE
8
secondary
10
307.08
20
400.7
30
0
11
319.08
21
400.7
31
0
0
LINE
8
secondary
10
319.08
20
400.7
30
0
11
331.08
21
400.7
31
0
0
LINE
8
secondary
10
331.08
20
400.7
30
0
11
343.08
21
400.7
31
0
0
LINE
8
secondary
10
295.08
20
409.3
30
0
11
307.08
21
409.3
31
0
0
LINE
8
secondary
10
307.08
20
409.3
30
0
11
319.08
21
409.3
31
0
0
LINE
8
secondary
10
319.08
20
409.3
30
0
11
331.08
21
409.3
31
0
0
LINE
8
secondary
10
331.08
20
409.3
30
0
11
343.08
21
409.3
31
0
0
LINE
8
secondary
10
295.08
20
396.2
30
0
11
307.08
21
396.2
31
0
0
LINE
8
secondary
10
307.08
20
396.2
30
0
11
319.08
21
396.2
31
0
0
LINE
8
secondary
10
319.08
20
396.2
30
0
11
331.08
21
396.2
31
0
0
LINE
8
secondary
10
331.08
20
396.2
30
0
11
343.08
21
396.2
31
0
0
LINE
8
secondary
10
295.08
20
415.8
30
0
11
307.08
21
415.8
31
0
0
LINE
8
secondary
10
307.08
20
415.8
30
0
11
319.08
21
415.8
31
0
0
LINE
8
secondary
10
319.08
20
415.8
30
0
11
331.08
21
415.8
31
0
0
LINE
8
secondary
10
331.08
20
415.8
30
0
11
343.08
21
415.8
31
0
0
LINE
8
brace
10
295.08
20
393.5
30
0
11
307.08
21
416.5
31
0
0
LINE
8
brace
10
307.08
20
416.5
30
0
11
319.08
21
393.5
31
0
0
LINE
8
brace
10
319.08
20
393.5
30
0
11
331.08
21
416.5
31
0
0
LINE
8
brace
10
331.08
20
416.5
30
0
11
343.08
21
393.5
31
0
0
LINE
8
main
10
343.08
20
393.5
30
0
11
355.08
21
393.5
31
0
0
LINE
8
main
10
343.08
20
416.5
30
0
11
355.08
21
416.5
31
0
0
LINE
8
secondary
10
343.08
20
400.7
30
0
11
355.08
21
400.7
31
0
0
LINE
8
secondary
10
343.08
20
409.3
30
0
11
355.08
21
409.3
31
0
0
LINE
8
secondary
10
343.08
20
396.2
30
0
11
355.08
21
396.2
31
0
0
LINE
8
secondary
10
343.08
20
415.8
30
0
11
355.08
21
415.8
31
0
0
LINE
8
brace
10
343.08
20
393.5
30
0
11
355.08
21
416.5
31
0
0
LINE
8
main
10
355.08
20
393.5
30
0
11
367.08
21
393.5
31
0
0
LINE
8
main
10
367.08
20
393.5
30
0
11
379.08
21
393.5
31
0
0
LINE
8
main
10
379.08
20
393.5
30
0
11
391.08
21
393.5
31
0
0
LINE
8
main
10
391.08
20
393.5
30
0
11
403.08
21
393.5
31
0
0
LINE
8
main
10
403.08
20
393.5
30
0
11
415.08
21
393.5
31
0
0
LINE
8
main
10
415.08
20
393.5
30
0
11
427.08
21
393.5
31
0
0
LINE
8
main
10
427.08
20
393.5
30
0
11
439.08
21
393.5
31
0
0
LINE
8
main
10
439.08
20
393.5
30
0
11
451.08
21
393.5
31
0
0
LINE
8
main
10
451.08
20
393.5
30
0
11
463.08
21
393.5
31
0
0
LINE
8
main
10
463.08
20
393.5
30
0
11
475.08
21
393.5
31
0
0
LINE
8
main
10
475.08
20
393.5
30
0
11
487.08
21
393.5
31
0
0
LINE
8
main
10
487.08
20
393.5
30
0
11
499.08
21
393.5
31
0
0
LINE
8
main
10
499.08
20
393.5
30
0
11
511.08
21
393.5
31
0
0
LINE
8
main
10
355.08
20
416.5
30
0
11
367.08
21
416.5
31
0
0
LINE
8
main
10
367.08
20
416.5
30
0
11
379.08
21
416.5
31
0
0
LINE
8
main
10
379.08
20
416.5
30
0
11
391.08
21
416.5
31
0
0
LINE
8
main
10
391.08
20
416.5
30
0
11
403.08
21
416.5
31
0
0
LINE
8
main
10
403.08
20
416.5
30
0
11
415.08
21
416.5
31
0
0
LINE
8
main
10
415.08
20
416.5
30
0
11
427.08
21
416.5
31
0
0
LINE
8
main
10
427.08
20
416.5
30
0
11
439.08
21
416.5
31
0
0
LINE
8
main
10
439.08
20
416.5
30
0
11
451.08
21
416.5
31
0
0
LINE
8
main
10
451.08
20
416.5
30
0
11
463.08
21
416.5
31
0
0
LINE
8
main
10
463.08
20
416.5
30
0
11
475.08
21
416.5
31
0
0
LINE
8
main
10
475.08
20
416.5
30
0
11
487.08
21
416.5
31
0
0
LINE
8
main
10
487.08
20
416.5
30
0
11
499.08
21
416.5
31
0
0
LINE
8
main
10
499.08
20
416.5
30
0
11
511.08
21
416.5
31
0
0
LINE
8
main
10
367.08
20
396.2
30
0
11
367.08
21
415.8
31
0
0
LINE
8
main
10
379.08
20
396.2
30
0
11
379.08
21
415.8
31
0
0
LINE
8
main
10
391.08
20
396.2
30
0
11
391.08
21
415.8
31
0
0
LINE
8
main
10
403.08
20
396.2
30
0
11
403.08
21
415.8
31
0
0
LINE
8
main
10
415.08
20
396.2
30
0
11
415.08
21
415.8
31
0
0
LINE
8
main
10
427.08
20
396.2
30
0
11
427.08
21
415.8
31
0
0
LINE
8
main
10
439.08
20
396.2
30
0
11
439.08
21
415.8
31
0
0
LINE
8
main
10
451.08
20
396.2
30
0
11
451.08
21
415.8
31
0
0
LINE
8
main
10
463.08
20
396.2
30
0
11
463.08
21
415.8
31
0
0
LINE
8
main
10
475.08
20
396.2
30
0
11
475.08
21
415.8
31
0
0
LINE
8
main
10
487.08
20
396.2
30
0
11
487.08
21
415.8
31
0
0
LINE
8
main
10
499.08
20
396.2
30
0
11
499.08
21
415.8
31
0
0
LINE
8
secondary
10
355.08
20
400.7
30
0
11
367.08
21
400.7
31
0
0
LINE
8
secondary
10
367.08
20
400.7
30
0
11
379.08
21
400.7
31
0
0
LINE
8
secondary
10
379.08
20
400.7
30
0
11
391.08
21
400.7
31
0
0
LINE
8
secondary
10
391.08
20
400.7
30
0
11
403.08
21
400.7
31
0
0
LINE
8
secondary
10
403.08
20
400.7
30
0
11
415.08
21
400.7
31
0
0
LINE
8
secondary
10
415.08
20
400.7
30
0
11
427.08
21
400.7
31
0
0
LINE
8
secondary
10
427.08
20
400.7
30
0
11
439.08
21
400.7
31
0
0
LINE
8
secondary
10
439.08
20
400.7
30
0
11
451.08
21
400.7
31
0
0
LINE
8
secondary
10
451.08
20
400.7
30
0
11
463.08
21
400.7
31
0
0
LINE
8
secondary
10
463.08
20
400.7
30
0
11
475.08
21
400.7
31
0
0
LINE
8
secondary
10
475.08
20
400.7
30
0
11
487.08
21
400.7
31
0
0
LINE
8
secondary
10
487.08
20
400.7
30
0
11
499.08
21
400.7
31
0
0
LINE
8
secondary
10
499.08
20
400.7
30
0
11
511.08
21
400.7
31
0
0
LINE
8
secondary
10
355.08
20
409.3
30
0
11
367.08
21
409.3
31
0
0
LINE
8
secondary
10
367.08
20
409.3
30
0
11
379.08
21
409.3
31
0
0
LINE
8
secondary
10
379.08
20
409.3
30
0
11
391.08
21
409.3
31
0
0
LINE
8
secondary
10
391.08
20
409.3
30
0
11
403.08
21
409.3
31
0
0
LINE
8
secondary
10
403.08
20
409.3
30
0
11
415.08
21
409.3
31
0
0
LINE
8
secondary
10
415.08
20
409.3
30
0
11
427.08
21
409.3
31
0
0
LINE
8
secondary
10
427.08
20
409.3
30
0
11
439.08
21
409.3
31
0
0
LINE
8
secondary
10
439.08
20
409.3
30
0
11
451.08
21
409.3
31
0
0
LINE
8
secondary
10
451.08
20
409.3
30
0
11
463.08
21
409.3
31
0
0
LINE
8
secondary
10
463.08
20
409.3
30
0
11
475.08
21
409.3
31
0
0
LINE
8
secondary
10
475.08
20
409.3
30
0
11
487.08
21
409.3
31
0
0
LINE
8
secondary
10
487.08
20
409.3
30
0
11
499.08
21
409.3
31
0
0
LINE
8
secondary
10
499.08
20
409.3
30
0
11
511.08
21
409.3
31
0
0
LINE
8
secondary
10
355.08
20
396.2
30
0
11
367.08
21
396.2
31
0
0
LINE
8
secondary
10
367.08
20
396.2
30
0
11
379.08
21
396.2
31
0
0
LINE
8
secondary
10
379.08
20
396.2
30
0
11
391.08
21
396.2
31
0
0
LINE
8
secondary
10
391.08
20
396.2
30
0
11
403.08
21
396.2
31
0
0
LINE
8
secondary
10
403.08
20
396.2
30
0
11
415.08
21
396.2
31
0
0
LINE
8
secondary
10
415.08
20
396.2
30
0
11
427.08
21
396.2
31
0
0
LINE
8
secondary
10
427.08
20
396.2
30
0
11
439.08
21
396.2
31
0
0
LINE
8
secondary
10
439.08
20
396.2
30
0
11
451.08
21
396.2
31
0
0
LINE
8
secondary
10
451.08
20
396.2
30
0
11
463.08
21
396.2
31
0
0
LINE
8
secondary
10
463.08
20
396.2
30
0
11
475.08
21
396.2
31
0
0
LINE
8
secondary
10
475.08
20
396.2
30
0
11
487.08
21
396.2
31
0
0
LINE
8
secondary
10
487.08
20
396.2
30
0
11
499.08
21
396.2
31
0
0
LINE
8
secondary
10
499.08
20
396.2
30
0
11
511.08
21
396.2
31
0
0
LINE
8
secondary
10
355.08
20
415.8
30
0
11
367.08
21
415.8
31
0
0
LINE
8
secondary
10
367.08
20
415.8
30
0
11
379.08
21
415.8
31
0
0
LINE
8
secondary
10
379.08
20
415.8
30
0
11
391.08
21
415.8
31
0
0
LINE
8
secondary
10
391.08
20
415.8
30
0
11
403.08
21
415.8
31
0
0
LINE
8
secondary
10
403.08
20
415.8
30
0
11
415.08
21
415.8
31
0
0
LINE
8
secondary
10
415.08
20
415.8
30
0
11
427.08
21
415.8
31
0
0
LINE
8
secondary
10
427.08
20
415.8
30
0
11
439.08
21
415.8
31
0
0
LINE
8
secondary
10
439.08
20
415.8
30
0
11
451.08
21
415.8
31
0
0
LINE
8
secondary
10
451.08
20
415.8
30
0
11
463.08
21
415.8
31
0
0
LINE
8
secondary
10
463.08
20
415.8
30
0
11
475.08
21
415.8
31
0
0
LINE
8
secondary
10
475.08
20
415.8
30
0
11
487.08
21
415.8
31
0
0
LINE
8
secondary
10
487.08
20
415.8
30
0
11
499.08
21
415.8
31
0
0
LINE
8
secondary
10
499.08
20
415.8
30
0
11
511.08
21
415.8
31
0
0
LINE
8
brace
10
355.08
20
393.5
30
0
11
367.08
21
416.5
31
0
0
LINE
8
brace
10
367.08
20
416.5
30
0
11
379.08
21
393.5
31
0
0
LINE
8
brace
10
379.08
20
393.5
30
0
11
391.08
21
416.5
31
0
0
LINE
8
brace
10
391.08
20
416.5
30
0
11
403.08
21
393.5
31
0
0
LINE
8
brace
10
403.08
20
393.5
30
0
11
415.08
21
416.5
31
0
0
LINE
8
brace
10
415.08
20
416.5
30
0
11
427.08
21
393.5
31
0
0
LINE
8
brace
10
427.08
20
393.5
30
0
11
439.08
21
416.5
31
0
0
LINE
8
brace
10
439.08
20
416.5
30
0
11
451.08
21
393.5
31
0
0
LINE
8
brace
10
451.08
20
393.5
30
0
11
463.08
21
416.5
31
0
0
LINE
8
brace
10
463.08
20
416.5
30
0
11
475.08
21
393.5
31
0
0
LINE
8
brace
10
475.08
20
393.5
30
0
11
487.08
21
416.5
31
0
0
LINE
8
brace
10
487.08
20
416.5
30
0
11
499.08
21
393.5
31
0
0
LINE
8
brace
10
499.08
20
393.5
30
0
11
511.08
21
416.5
31
0
0
LINE
8
truss
10
355.08
20
393.5
30
0
11
362.88
21
393.5
31
0
0
LINE
8
truss
10
362.88
20
393.5
30
0
11
370.68
21
393.5
31
0
0
LINE
8
truss
10
370.68
20
393.5
30
0
11
378.48
21
393.5
31
0
0
LINE
8
truss
10
378.48
20
393.5
30
0
11
386.28
21
393.5
31
0
0
LINE
8
truss
10
386.28
20
393.5
30
0
11
394.08
21
393.5
31
0
0
LINE
8
truss
10
394.08
20
393.5
30
0
11
401.88
21
393.5
31
0
0
LINE
8
truss
10
401.88
20
393.5
30
0
11
409.68
21
393.5
31
0
0
LINE
8
truss
10
409.68
20
393.5
30
0
11
417.48
21
393.5
31
0
0
LINE
8
truss
10
417.48
20
393.5
30
0
11
425.28
21
393.5
31
0
0
LINE
8
truss
10
425.28
20
393.5
30
0
11
433.08
21
393.5
31
0
0
LINE
8
truss
10
433.08
20
393.5
30
0
11
440.88
21
393.5
31
0
0
LINE
8
truss
10
440.88
20
393.5
30
0
11
448.68
21
393.5
31
0
0
LINE
8
truss
10
448.68
20
393.5
30
0
11
456.48
21
393.5
31
0
0
LINE
8
truss
10
456.48
20
393.5
30
0
11
464.28
21
393.5
31
0
0
LINE
8
truss
10
464.28
20
393.5
30
0
11
472.08
21
393.5
31
0
0
LINE
8
truss
10
472.08
20
393.5
30
0
11
479.88
21
393.5
31
0
0
LINE
8
truss
10
479.88
20
393.5
30
0
11
487.68
21
393.5
31
0
0
LINE
8
truss
10
487.68
20
393.5
30
0
11
495.48
21
393.5
31
0
0
LINE
8
truss
10
495.48
20
393.5
30
0
11
503.28
21
393.5
31
0
0
LINE
8
truss
10
503.28
20
393.5
30
0
11
511.08
21
393.5
31
0
0
LINE
8
truss
10
355.08
20
393.5
30
0
11
362.88
21
393.5
31
0
0
LINE
8
truss
10
362.88
20
393.5
30
0
11
370.68
21
393.5
31
0
0
LINE
8
truss
10
370.68
20
393.5
30
0
11
378.48
21
393.5
31
0
0
LINE
8
truss
10
378.48
20
393.5
30
0
11
386.28
21
393.5
31
0
0
LINE
8
truss
10
386.28
20
393.5
30
0
11
394.08
21
393.5
31
0
0
LINE
8
truss
10
394.08
20
393.5
30
0
11
401.88
21
393.5
31
0
0
LINE
8
truss
10
401.88
20
393.5
30
0
11
409.68
21
393.5
31
0
0
LINE
8
truss
10
409.68
20
393.5
30
0
11
417.48
21
393.5
31
0
0
LINE
8
truss
10
417.48
20
393.5
30
0
11
425.28
21
393.5
31
0
0
LINE
8
truss
10
425.28
20
393.5
30
0
11
433.08
21
393.5
31
0
0
LINE
8
truss
10
433.08
20
393.5
30
0
11
440.88
21
393.5
31
0
0
LINE
8
truss
10
440.88
20
393.5
30
0
11
448.68
21
393.5
31
0
0
LINE
8
truss
10
448.68
20
393.5
30
0
11
456.48
21
393.5
31
0
0
LINE
8
truss
10
456.48
20
393.5
30
0
11
464.28
21
393.5
31
0
0
LINE
8
truss
10
464.28
20
393.5
30
0
11
472.08
21
393.5
31
0
0
LINE
8
truss
10
472.08
20
393.5
30
0
11
479.88
21
393.5
31
0
0
LINE
8
truss
10
479.88
20
393.5
30
0
11
487.68
21
393.5
31
0
0
LINE
8
truss
10
487.68
20
393.5
30
0
11
495.48
21
393.5
31
0
0
LINE
8
truss
10
495.48
20
393.5
30
0
11
503.28
21
393.5
31
0
0
LINE
8
truss
10
503.28
20
393.5
30
0
11
511.08
21
393.5
31
0
0
LINE
8
truss
10
355.08
20
393.5
30
0
11
362.88
21
393.5
31
0
0
LINE
8
truss
10
362.88
20
393.5
30
0
11
370.68
21
393.5
31
0
0
LINE
8
truss
10
370.68
20
393.5
30
0
11
378.48
21
393.5
31
0
0
LINE
8
truss
10
378.48
20
393.5
30
0
11
386.28
21
393.5
31
0
0
LINE
8
truss
10
386.28
20
393.5
30
0
11
394.08
21
393.5
31
0
0
LINE
8
truss
10
394.08
20
393.5
30
0
11
401.88
21
393.5
31
0
0
LINE
8
truss
10
401.88
20
393.5
30
0
11
409.68
21
393.5
31
0
0
LINE
8
truss
10
409.68
20
393.5
30
0
11
417.48
21
393.5
31
0
0
LINE
8
truss
10
417.48
20
393.5
30
0
11
425.28
21
393.5
31
0
0
LINE
8
truss
10
425.28
20
393.5
30
0
11
433.08
21
393.5
31
0
0
LINE
8
truss
10
433.08
20
393.5
30
0
11
440.88
21
393.5
31
0
0
LINE
8
truss
10
440.88
20
393.5
30
0
11
448.68
21
393.5
31
0
0
LINE
8
truss
10
448.68
20
393.5
30
0
11
456.48
21
393.5
31
0
0
LINE
8
truss
10
456.48
20
393.5
30
0
11
464.28
21
393.5
31
0
0
LINE
8
truss
10
464.28
20
393.5
30
0
11
472.08
21
393.5
31
0
0
LINE
8
truss
10
472.08
20
393.5
30
0
11
479.88
21
393.5
31
0
0
LINE
8
truss
10
479.88
20
393.5
30
0
11
487.68
21
393.5
31
0
0
LINE
8
truss
10
487.68
20
393.5
30
0
11
495.48
21
393.5
31
0
0
LINE
8
truss
10
495.48
20
393.5
30
0
11
503.28
21
393.5
31
0
0
LINE
8
truss
10
503.28
20
393.5
30
0
11
511.08
21
393.5
31
0
0
LINE
8
truss
10
355.08
20
416.5
30
0
11
362.88
21
416.5
31
0
0
LINE
8
truss
10
362.88
20
416.5
30
0
11
370.68
21
416.5
31
0
0
LINE
8
truss
10
370.68
20
416.5
30
0
11
378.48
21
416.5
31
0
0
LINE
8
truss
10
378.48
20
416.5
30
0
11
386.28
21
416.5
31
0
0
LINE
8
truss
10
386.28
20
416.5
30
0
11
394.08
21
416.5
31
0
0
LINE
8
truss
10
394.08
20
416.5
30
0
11
401.88
21
416.5
31
0
0
LINE
8
truss
10
401.88
20
416.5
30
0
11
409.68
21
416.5
31
0
0
LINE
8
truss
10
409.68
20
416.5
30
0
11
417.48
21
416.5
31
0
0
LINE
8
truss
10
417.48
20
416.5
30
0
11
425.28
21
416.5
31
0
0
LINE
8
truss
10
425.28
20
416.5
30
0
11
433.08
21
416.5
31
0
0
LINE
8
truss
10
433.08
20
416.5
30
0
11
440.88
21
416.5
31
0
0
LINE
8
truss
10
440.88
20
416.5
30
0
11
448.68
21
416.5
31
0
0
LINE
8
truss
10
448.68
20
416.5
30
0
11
456.48
21
416.5
31
0
0
LINE
8
truss
10
456.48
20
416.5
30
0
11
464.28
21
416.5
31
0
0
LINE
8
truss
10
464.28
20
416.5
30
0
11
472.08
21
416.5
31
0
0
LINE
8
truss
10
472.08
20
416.5
30
0
11
479.88
21
416.5
31
0
0
LINE
8
truss
10
479.88
20
416.5
30
0
11
487.68
21
416.5
31
0
0
LINE
8
truss
10
487.68
20
416.5
30
0
11
495.48
21
416.5
31
0
0
LINE
8
truss
10
495.48
20
416.5
30
0
11
503.28
21
416.5
31
0
0
LINE
8
truss
10
503.28
20
416.5
30
0
11
511.08
21
416.5
31
0
0
LINE
8
truss
10
355.08
20
416.5
30
0
11
362.88
21
416.5
31
0
0
LINE
8
truss
10
362.88
20
416.5
30
0
11
370.68
21
416.5
31
0
0
LINE
8
truss
10
370.68
20
416.5
30
0
11
378.48
21
416.5
31
0
0
LINE
8
truss
10
378.48
20
416.5
30
0
11
386.28
21
416.5
31
0
0
LINE
8
truss
10
386.28
20
416.5
30
0
11
394.08
21
416.5
31
0
0
LINE
8
truss
10
394.08
20
416.5
30
0
11
401.88
21
416.5
31
0
0
LINE
8
truss
10
401.88
20
416.5
30
0
11
409.68
21
416.5
31
0
0
LINE
8
truss
10
409.68
20
416.5
30
0
11
417.48
21
416.5
31
0
0
LINE
8
truss
10
417.48
20
416.5
30
0
11
425.28
21
416.5
31
0
0
LINE
8
truss
10
425.28
20
416.5
30
0
11
433.08
21
416.5
31
0
0
LINE
8
truss
10
433.08
20
416.5
30
0
11
440.88
21
416.5
31
0
0
LINE
8
truss
10
440.88
20
416.5
30
0
11
448.68
21
416.5
31
0
0
LINE
8
truss
10
448.68
20
416.5
30
0
11
456.48
21
416.5
31
0
0
LINE
8
truss
10
456.48
20
416.5
30
0
11
464.28
21
416.5
31
0
0
LINE
8
truss
10
464.28
20
416.5
30
0
11
472.08
21
416.5
31
0
0
LINE
8
truss
10
472.08
20
416.5
30
0
11
479.88
21
416.5
31
0
0
LINE
8
truss
10
479.88
20
416.5
30
0
11
487.68
21
416.5
31
0
0
LINE
8
truss
10
487.68
20
416.5
30
0
11
495.48
21
416.5
31
0
0
LINE
8
truss
10
495.48
20
416.5
30
0
11
503.28
21
416.5
31
0
0
LINE
8
truss
10
503.28
20
416.5
30
0
11
511.08
21
416.5
31
0
0
LINE
8
truss
10
355.08
20
416.5
30
0
11
362.88
21
416.5
31
0
0
LINE
8
truss
10
362.88
20
416.5
30
0
11
370.68
21
416.5
31
0
0
LINE
8
truss
10
370.68
20
416.5
30
0
11
378.48
21
416.5
31
0
0
LINE
8
truss
10
378.48
20
416.5
30
0
11
386.28
21
416.5
31
0
0
LINE
8
truss
10
386.28
20
416.5
30
0
11
394.08
21
416.5
31
0
0
LINE
8
truss
10
394.08
20
416.5
30
0
11
401.88
21
416.5
31
0
0
LINE
8
truss
10
401.88
20
416.5
30
0
11
409.68
21
416.5
31
0
0
LINE
8
truss
10
409.68
20
416.5
30
0
11
417.48
21
416.5
31
0
0
LINE
8
truss
10
417.48
20
416.5
30
0
11
425.28
21
416.5
31
0
0
LINE
8
truss
10
425.28
20
416.5
30
0
11
433.08
21
416.5
31
0
0
LINE
8
truss
10
433.08
20
416.5
30
0
11
440.88
21
416.5
31
0
0
LINE
8
truss
10
440.88
20
416.5
30
0
11
448.68
21
416.5
31
0
0
LINE
8
truss
10
448.68
20
416.5
30
0
11
456.48
21
416.5
31
0
0
LINE
8
truss
10
456.48
20
416.5
30
0
11
464.28
21
416.5
31
0
0
LINE
8
truss
10
464.28
20
416.5
30
0
11
472.08
21
416.5
31
0
0
LINE
8
truss
10
472.08
20
416.5
30
0
11
479.88
21
416.5
31
0
0
LINE
8
truss
10
479.88
20
416.5
30
0
11
487.68
21
416.5
31
0
0
LINE
8
truss
10
487.68
20
416.5
30
0
11
495.48
21
416.5
31
0
0
LINE
8
truss
10
495.48
20
416.5
30
0
11
503.28
21
416.5
31
0
0
LINE
8
truss
10
503.28
20
416.5
30
0
11
511.08
21
416.5
31
0
0
LINE
8
main
10
511.08
20
393.5
30
0
11
523.08
21
393.5
31
0
0
LINE
8
main
10
511.08
20
416.5
30
0
11
523.08
21
416.5
31
0
0
LINE
8
secondary
10
511.08
20
400.7
30
0
11
523.08
21
400.7
31
0
0
LINE
8
secondary
10
511.08
20
409.3
30
0
11
523.08
21
409.3
31
0
0
LINE
8
secondary
10
511.08
20
396.2
30
0
11
523.08
21
396.2
31
0
0
LINE
8
secondary
10
511.08
20
415.8
30
0
11
523.08
21
415.8
31
0
0
LINE
8
brace
10
511.08
20
393.5
30
0
11
523.08
21
416.5
31
0
0
LINE
8
center
10
45
20
405
30
0
11
523.08
21
405
31
0
0
LINE
8
dimension
10
45
20
393.5
30
0
11
45
21
378.5
31
0
0
LINE
8
dimension
10
523.08
20
393.5
30
0
11
523.08
21
378.5
31
0
0
LINE
8
dimension
10
45
20
378.5
30
0
11
523.08
21
378.5
31
0
0
TEXT
8
dimension
10
284.04
20
380.5
30
0
40
3.2
1
总长 119520
0
LINE
8
dimension
10
538.08
20
393.5
30
0
11
530.08
21
393.5
31
0
0
LINE
8
dimension
10
538.08
20
416.5
30
0
11
530.08
21
416.5
31
0
0
LINE
8
dimension
10
530.08
20
393.5
30
0
11
530.08
21
416.5
31
0
0
TEXT
8
dimension
10
530.08
20
407
30
0
40
3.2
1
平台总宽 5750
0
LINE
8
standard
10
57
20
388.5
30
0
11
57
21
421.5
31
0
0
TEXT
8
standard
10
59
20
424.5
30
0
40
2.8
1
P1|P2
0
LINE
8
standard
10
211.08
20
388.5
30
0
11
211.08
21
421.5
31
0
0
TEXT
8
standard
10
213.08
20
424.5
30
0
40
2.8
1
P2|P3
0
LINE
8
standard
10
379.08
20
388.5
30
0
11
379.08
21
421.5
31
0
0
TEXT
8
standard
10
381.08
20
424.5
30
0
40
2.8
1
P3|P4
0
TEXT
8
annotation
10
53
20
434.5
30
0
40
3
1
平面：设备宽 2150；左/右悬挑 1125/1625；平台分格 <= 3000
0
TEXT
8
title
10
590
20
780
30
0
40
5
1
C-C 端视图
0
LINE
8
title
10
590
20
778
30
0
11
708
21
778
31
0
0
LINE
8
column
10
593.5
20
650
30
0
11
593.5
21
667
31
0
0
LINE
8
column
10
593.5
20
667
30
0
11
593.5
21
684
31
0
0
LINE
8
column
10
593.5
20
684
30
0
11
593.5
21
701
31
0
0
LINE
8
column
10
593.5
20
701
30
0
11
593.5
21
718
31
0
0
LINE
8
column
10
616.5
20
650
30
0
11
616.5
21
667
31
0
0
LINE
8
column
10
616.5
20
667
30
0
11
616.5
21
684
31
0
0
LINE
8
column
10
616.5
20
684
30
0
11
616.5
21
701
31
0
0
LINE
8
column
10
616.5
20
701
30
0
11
616.5
21
718
31
0
0
LINE
8
main
10
596.2
20
718
30
0
11
615.8
21
718
31
0
0
LINE
8
brace
10
593.5
20
650
30
0
11
616.5
21
718
31
0
0
LINE
8
brace
10
616.5
20
650
30
0
11
593.5
21
718
31
0
0
LINE
8
dimension
10
593.5
20
650
30
0
11
593.5
21
636
31
0
0
LINE
8
dimension
10
616.5
20
650
30
0
11
616.5
21
636
31
0
0
LINE
8
dimension
10
593.5
20
636
30
0
11
616.5
21
636
31
0
0
TEXT
8
dimension
10
605
20
638
30
0
40
3.2
1
5750
0
LINE
8
dimension
10
631.5
20
650
30
0
11
622.5
21
650
31
0
0
LINE
8
dimension
10
631.5
20
718
30
0
11
622.5
21
718
31
0
0
LINE
8
dimension
10
622.5
20
650
30
0
11
622.5
21
718
31
0
0
TEXT
8
dimension
10
622.5
20
686
30
0
40
3.2
1
支架高 17000
0
TEXT
8
annotation
10
593.5
20
728
30
0
40
3
1
端视：Z11 / X=119520
0
TEXT
8
title
10
590
20
470
30
0
40
5
1
基线统计与说明
0
LINE
8
title
10
590
20
468
30
0
11
708
21
468
31
0
0
TEXT
8
title
10
590
20
450
30
0
40
4.2
1
构件统计（由同一基线表生成）
0
TEXT
8
annotation
10
590
20
442
30
0
40
2.8
1
外挑边梁 | ZJ8_CANTILEVER_EDGE | 82 根 | 总长 241840
0
TEXT
8
annotation
10
590
20
436.2
30
0
40
2.8
1
柱子 | ZJ8_COLUMN | 88 根 | 总长 374000
0
TEXT
8
annotation
10
590
20
430.4
30
0
40
2.8
1
横向梁 | ZJ8_DECK_CROSS | 41 根 | 总长 200900
0
TEXT
8
annotation
10
590
20
424.6
30
0
40
2.8
1
平台主梁 | ZJ8_DECK_MAIN | 80 根 | 总长 239040
0
TEXT
8
annotation
10
590
20
418.8
30
0
40
2.8
1
平台次梁 | ZJ8_DECK_SECONDARY | 80 根 | 总长 239040
0
TEXT
8
annotation
10
590
20
413
30
0
40
2.8
1
固定支架纵向支撑 | ZJ8_LONGITUDINAL_BRACE | 8 根 | 总长 138101
0
TEXT
8
annotation
10
590
20
407.2
30
0
40
2.8
1
平台平面支撑 | ZJ8_PLATFORM_BRACE | 40 根 | 总长 259202
0
TEXT
8
annotation
10
590
20
401.4
30
0
40
2.8
1
横向柱间支撑 | ZJ8_TRANSVERSE_BRACE | 22 根 | 总长 394814
0
TEXT
8
annotation
10
590
20
395.6
30
0
40
2.8
1
桁架斜腹杆 | ZJ8_TRUSS_DIAGONAL | 62 根 | 总长 163181
0
TEXT
8
annotation
10
590
20
389.8
30
0
40
2.8
1
桁架下弦 | ZJ8_TRUSS_LOWER | 62 根 | 总长 119040
0
TEXT
8
annotation
10
590
20
384
30
0
40
2.8
1
桁架上弦 | ZJ8_TRUSS_UPPER | 62 根 | 总长 119040
0
TEXT
8
annotation
10
590
20
378.2
30
0
40
2.8
1
桁架竖腹杆 | ZJ8_TRUSS_VERTICAL | 66 根 | 总长 118800
0
TEXT
8
annotation
10
590
20
360
30
0
40
3
1
教程映射：Excel/参数表 -> 定位点 -> 空间点 -> 杆件基线 -> CAD 图层/3D3S 基线。
0
TEXT
8
annotation
10
590
20
353.5
30
0
40
3
1
本图、STEP、3D DXF、CSV 统计均由 trestle_core.py 的同一成员基线生成。
0
TEXT
8
annotation
10
590
20
347
30
0
40
3
1
方案器：platform_scheme / brace_scheme / truss_scheme 可替换平台、支撑、桁架策略。
0
TEXT
8
annotation
10
590
20
340.5
30
0
40
3
1
优化器：当前为概念评分占位，不替代 YJK/3D3S 结构计算。
0
TEXT
8
annotation
10
590
20
334
30
0
40
3
1
施工图深化：截面、节点、基础、焊缝、螺栓、防腐、防火需经正式设计校核。
0
TEXT
8
annotation
10
35
20
65
30
0
40
3
1
图例：蓝=主梁/横梁，绿=次梁/外挑，红=支撑，紫=桁架，灰=柱。尺寸单位 mm。
0
LINE
8
title
10
1019
20
10
30
0
11
1179
21
10
31
0
0
LINE
8
title
10
1179
20
10
30
0
11
1179
21
46
31
0
0
LINE
8
title
10
1179
20
46
30
0
11
1019
21
46
31
0
0
LINE
8
title
10
1019
20
46
30
0
11
1019
21
10
31
0
0
LINE
8
title
10
1019
20
22
30
0
11
1179
21
22
31
0
0
LINE
8
title
10
1019
20
34
30
0
11
1179
21
34
31
0
0
LINE
8
title
10
1119
20
10
30
0
11
1119
21
46
31
0
0
TEXT
8
title
10
1023
20
37.5
30
0
40
3.5
1
工业皮带机栈桥参数化三视图
0
TEXT
8
title
10
1123
20
37.5
30
0
40
3
1
No: ZJ8-TRESTLE-2D-001
0
TEXT
8
title
10
1023
20
25.5
30
0
40
3
1
Scale: 1:250
0
TEXT
8
title
10
1123
20
25.5
30
0
40
3
1
Rev: C
0
TEXT
8
title
10
1023
20
13.5
30
0
40
3
1
Units: mm
0
TEXT
8
title
10
1123
20
13.5
30
0
40
3
1
Codex / zhongjian8
0
ENDSEC
0
EOF
