0
SECTION
2
HEADER
9
$INSUNITS
70
4
0
ENDSEC
0
SECTION
2
TABLES
0
TABLE
2
LAYER
70
14
0
LAYER
2
ZJ8_DECK_MAIN
70
0
62
4
6
CONTINUOUS
0
LAYER
2
ZJ8_DECK_CROSS
70
0
62
4
6
CONTINUOUS
0
LAYER
2
ZJ8_DECK_SECONDARY
70
0
62
3
6
CONTINUOUS
0
LAYER
2
ZJ8_CANTILEVER_EDGE
70
0
62
3
6
CONTINUOUS
0
LAYER
2
ZJ8_PLATFORM_BRACE
70
0
62
1
6
CONTINUOUS
0
LAYER
2
ZJ8_COLUMN
70
0
62
8
6
CONTINUOUS
0
LAYER
2
ZJ8_TRANSVERSE_BRACE
70
0
62
1
6
CONTINUOUS
0
LAYER
2
ZJ8_LONGITUDINAL_BRACE
70
0
62
1
6
CONTINUOUS
0
LAYER
2
ZJ8_TRUSS_UPPER
70
0
62
5
6
CONTINUOUS
0
LAYER
2
ZJ8_TRUSS_LOWER
70
0
62
5
6
CONTINUOUS
0
LAYER
2
ZJ8_TRUSS_VERTICAL
70
0
62
5
6
CONTINUOUS
0
LAYER
2
ZJ8_TRUSS_DIAGONAL
70
0
62
5
6
CONTINUOUS
0
LAYER
2
ZJ8_SPLICE_JOINT
70
0
62
2
6
CONTINUOUS
0
LAYER
2
ZJ8_SPLICE_TEXT
70
0
62
2
6
CONTINUOUS
0
ENDTAB
0
ENDSEC
0
SECTION
2
ENTITIES
0
LINE
8
ZJ8_COLUMN
10
0.0
20
-2875.0
30
0.0
11
0.0
21
-2875.0
31
4250.0
0
LINE
8
ZJ8_COLUMN
10
0.0
20
-2875.0
30
4250.0
11
0.0
21
-2875.0
31
8500.0
0
LINE
8
ZJ8_COLUMN
10
0.0
20
-2875.0
30
8500.0
11
0.0
21
-2875.0
31
12750.0
0
LINE
8
ZJ8_COLUMN
10
0.0
20
-2875.0
30
12750.0
11
0.0
21
-2875.0
31
17000.0
0
LINE
8
ZJ8_COLUMN
10
0.0
20
2875.0
30
0.0
11
0.0
21
2875.0
31
4250.0
0
LINE
8
ZJ8_COLUMN
10
0.0
20
2875.0
30
4250.0
11
0.0
21
2875.0
31
8500.0
0
LINE
8
ZJ8_COLUMN
10
0.0
20
2875.0
30
8500.0
11
0.0
21
2875.0
31
12750.0
0
LINE
8
ZJ8_COLUMN
10
0.0
20
2875.0
30
12750.0
11
0.0
21
2875.0
31
17000.0
0
LINE
8
ZJ8_DECK_CROSS
10
0.0
20
-2200.0
30
17000.0
11
0.0
21
2700.0
31
17000.0
0
LINE
8
ZJ8_TRANSVERSE_BRACE
10
0.0
20
-2875.0
30
0.0
11
0.0
21
2875.0
31
17000.0
0
LINE
8
ZJ8_TRANSVERSE_BRACE
10
0.0
20
2875.0
30
0.0
11
0.0
21
-2875.0
31
17000.0
0
LINE
8
ZJ8_COLUMN
10
12000.0
20
-2875.0
30
0.0
11
12000.0
21
-2875.0
31
4459.780436
0
LINE
8
ZJ8_COLUMN
10
12000.0
20
-2875.0
30
4459.780436
11
12000.0
21
-2875.0
31
8919.560872
0
LINE
8
ZJ8_COLUMN
10
12000.0
20
-2875.0
30
8919.560872
11
12000.0
21
-2875.0
31
13379.341307
0
LINE
8
ZJ8_COLUMN
10
12000.0
20
-2875.0
30
13379.341307
11
12000.0
21
-2875.0
31
17839.121743
0
LINE
8
ZJ8_COLUMN
10
12000.0
20
2875.0
30
0.0
11
12000.0
21
2875.0
31
4459.780436
0
LINE
8
ZJ8_COLUMN
10
12000.0
20
2875.0
30
4459.780436
11
12000.0
21
2875.0
31
8919.560872
0
LINE
8
ZJ8_COLUMN
10
12000.0
20
2875.0
30
8919.560872
11
12000.0
21
2875.0
31
13379.341307
0
LINE
8
ZJ8_COLUMN
10
12000.0
20
2875.0
30
13379.341307
11
12000.0
21
2875.0
31
17839.121743
0
LINE
8
ZJ8_DECK_CROSS
10
12000.0
20
-2200.0
30
17839.121743
11
12000.0
21
2700.0
31
17839.121743
0
LINE
8
ZJ8_TRANSVERSE_BRACE
10
12000.0
20
-2875.0
30
0.0
11
12000.0
21
2875.0
31
17839.121743
0
LINE
8
ZJ8_TRANSVERSE_BRACE
10
12000.0
20
2875.0
30
0.0
11
12000.0
21
-2875.0
31
17839.121743
0
LINE
8
ZJ8_COLUMN
10
24000.0
20
-2875.0
30
0.0
11
24000.0
21
-2875.0
31
4669.560872
0
LINE
8
ZJ8_COLUMN
10
24000.0
20
-2875.0
30
4669.560872
11
24000.0
21
-2875.0
31
9339.121743
0
LINE
8
ZJ8_COLUMN
10
24000.0
20
-2875.0
30
9339.121743
11
24000.0
21
-2875.0
31
14008.682615
0
LINE
8
ZJ8_COLUMN
10
24000.0
20
-2875.0
30
14008.682615
11
24000.0
21
-2875.0
31
18678.243487
0
LINE
8
ZJ8_COLUMN
10
24000.0
20
2875.0
30
0.0
11
24000.0
21
2875.0
31
4669.560872
0
LINE
8
ZJ8_COLUMN
10
24000.0
20
2875.0
30
4669.560872
11
24000.0
21
2875.0
31
9339.121743
0
LINE
8
ZJ8_COLUMN
10
24000.0
20
2875.0
30
9339.121743
11
24000.0
21
2875.0
31
14008.682615
0
LINE
8
ZJ8_COLUMN
10
24000.0
20
2875.0
30
14008.682615
11
24000.0
21
2875.0
31
18678.243487
0
LINE
8
ZJ8_DECK_CROSS
10
24000.0
20
-2200.0
30
18678.243487
11
24000.0
21
2700.0
31
18678.243487
0
LINE
8
ZJ8_TRANSVERSE_BRACE
10
24000.0
20
-2875.0
30
0.0
11
24000.0
21
2875.0
31
18678.243487
0
LINE
8
ZJ8_TRANSVERSE_BRACE
10
24000.0
20
2875.0
30
0.0
11
24000.0
21
-2875.0
31
18678.243487
0
LINE
8
ZJ8_COLUMN
10
36000.0
20
-2875.0
30
0.0
11
36000.0
21
-2875.0
31
4879.341307
0
LINE
8
ZJ8_COLUMN
10
36000.0
20
-2875.0
30
4879.341307
11
36000.0
21
-2875.0
31
9758.682615
0
LINE
8
ZJ8_COLUMN
10
36000.0
20
-2875.0
30
9758.682615
11
36000.0
21
-2875.0
31
14638.023922
0
LINE
8
ZJ8_COLUMN
10
36000.0
20
-2875.0
30
14638.023922
11
36000.0
21
-2875.0
31
19517.36523
0
LINE
8
ZJ8_COLUMN
10
36000.0
20
2875.0
30
0.0
11
36000.0
21
2875.0
31
4879.341307
0
LINE
8
ZJ8_COLUMN
10
36000.0
20
2875.0
30
4879.341307
11
36000.0
21
2875.0
31
9758.682615
0
LINE
8
ZJ8_COLUMN
10
36000.0
20
2875.0
30
9758.682615
11
36000.0
21
2875.0
31
14638.023922
0
LINE
8
ZJ8_COLUMN
10
36000.0
20
2875.0
30
14638.023922
11
36000.0
21
2875.0
31
19517.36523
0
LINE
8
ZJ8_DECK_CROSS
10
36000.0
20
-2200.0
30
19517.36523
11
36000.0
21
2700.0
31
19517.36523
0
LINE
8
ZJ8_TRANSVERSE_BRACE
10
36000.0
20
-2875.0
30
0.0
11
36000.0
21
2875.0
31
19517.36523
0
LINE
8
ZJ8_TRANSVERSE_BRACE
10
36000.0
20
2875.0
30
0.0
11
36000.0
21
-2875.0
31
19517.36523
0
LINE
8
ZJ8_COLUMN
10
39000.0
20
-2875.0
30
0.0
11
39000.0
21
-2875.0
31
4931.786416
0
LINE
8
ZJ8_COLUMN
10
39000.0
20
-2875.0
30
4931.786416
11
39000.0
21
-2875.0
31
9863.572833
0
LINE
8
ZJ8_COLUMN
10
39000.0
20
-2875.0
30
9863.572833
11
39000.0
21
-2875.0
31
14795.359249
0
LINE
8
ZJ8_COLUMN
10
39000.0
20
-2875.0
30
14795.359249
11
39000.0
21
-2875.0
31
19727.145666
0
LINE
8
ZJ8_COLUMN
10
39000.0
20
2875.0
30
0.0
11
39000.0
21
2875.0
31
4931.786416
0
LINE
8
ZJ8_COLUMN
10
39000.0
20
2875.0
30
4931.786416
11
39000.0
21
2875.0
31
9863.572833
0
LINE
8
ZJ8_COLUMN
10
39000.0
20
2875.0
30
9863.572833
11
39000.0
21
2875.0
31
14795.359249
0
LINE
8
ZJ8_COLUMN
10
39000.0
20
2875.0
30
14795.359249
11
39000.0
21
2875.0
31
19727.145666
0
LINE
8
ZJ8_DECK_CROSS
10
39000.0
20
-2200.0
30
19727.145666
11
39000.0
21
2700.0
31
19727.145666
0
LINE
8
ZJ8_TRANSVERSE_BRACE
10
39000.0
20
-2875.0
30
0.0
11
39000.0
21
2875.0
31
19727.145666
0
LINE
8
ZJ8_TRANSVERSE_BRACE
10
39000.0
20
2875.0
30
0.0
11
39000.0
21
-2875.0
31
19727.145666
0
LINE
8
ZJ8_COLUMN
10
59520.0
20
-2875.0
30
0.0
11
59520.0
21
-2875.0
31
4232.408769
0
LINE
8
ZJ8_COLUMN
10
59520.0
20
-2875.0
30
4232.408769
11
59520.0
21
-2875.0
31
8464.817539
0
LINE
8
ZJ8_COLUMN
10
59520.0
20
-2875.0
30
8464.817539
11
59520.0
21
-2875.0
31
12697.226308
0
LINE
8
ZJ8_COLUMN
10
59520.0
20
-2875.0
30
12697.226308
11
59520.0
21
-2875.0
31
16929.635078
0
LINE
8
ZJ8_COLUMN
10
59520.0
20
-2875.0
30
16929.635078
11
59520.0
21
-2875.0
31
21162.043847
0
LINE
8
ZJ8_COLUMN
10
59520.0
20
2875.0
30
0.0
11
59520.0
21
2875.0
31
4232.408769
0
LINE
8
ZJ8_COLUMN
10
59520.0
20
2875.0
30
4232.408769
11
59520.0
21
2875.0
31
8464.817539
0
LINE
8
ZJ8_COLUMN
10
59520.0
20
2875.0
30
8464.817539
11
59520.0
21
2875.0
31
12697.226308
0
LINE
8
ZJ8_COLUMN
10
59520.0
20
2875.0
30
12697.226308
11
59520.0
21
2875.0
31
16929.635078
0
LINE
8
ZJ8_COLUMN
10
59520.0
20
2875.0
30
16929.635078
11
59520.0
21
2875.0
31
21162.043847
0
LINE
8
ZJ8_DECK_CROSS
10
59520.0
20
-2200.0
30
21162.043847
11
59520.0
21
2700.0
31
21162.043847
0
LINE
8
ZJ8_TRANSVERSE_BRACE
10
59520.0
20
-2875.0
30
0.0
11
59520.0
21
2875.0
31
21162.043847
0
LINE
8
ZJ8_TRANSVERSE_BRACE
10
59520.0
20
2875.0
30
0.0
11
59520.0
21
-2875.0
31
21162.043847
0
LINE
8
ZJ8_COLUMN
10
62520.0
20
-2875.0
30
0.0
11
62520.0
21
-2875.0
31
4274.364857
0
LINE
8
ZJ8_COLUMN
10
62520.0
20
-2875.0
30
4274.364857
11
62520.0
21
-2875.0
31
8548.729713
0
LINE
8
ZJ8_COLUMN
10
62520.0
20
-2875.0
30
8548.729713
11
62520.0
21
-2875.0
31
12823.09457
0
LINE
8
ZJ8_COLUMN
10
62520.0
20
-2875.0
30
12823.09457
11
62520.0
21
-2875.0
31
17097.459426
0
LINE
8
ZJ8_COLUMN
10
62520.0
20
-2875.0
30
17097.459426
11
62520.0
21
-2875.0
31
21371.824283
0
LINE
8
ZJ8_COLUMN
10
62520.0
20
2875.0
30
0.0
11
62520.0
21
2875.0
31
4274.364857
0
LINE
8
ZJ8_COLUMN
10
62520.0
20
2875.0
30
4274.364857
11
62520.0
21
2875.0
31
8548.729713
0
LINE
8
ZJ8_COLUMN
10
62520.0
20
2875.0
30
8548.729713
11
62520.0
21
2875.0
31
12823.09457
0
LINE
8
ZJ8_COLUMN
10
62520.0
20
2875.0
30
12823.09457
11
62520.0
21
2875.0
31
17097.459426
0
LINE
8
ZJ8_COLUMN
10
62520.0
20
2875.0
30
17097.459426
11
62520.0
21
2875.0
31
21371.824283
0
LINE
8
ZJ8_DECK_CROSS
10
62520.0
20
-2200.0
30
21371.824283
11
62520.0
21
2700.0
31
21371.824283
0
LINE
8
ZJ8_TRANSVERSE_BRACE
10
62520.0
20
-2875.0
30
0.0
11
62520.0
21
2875.0
31
21371.824283
0
LINE
8
ZJ8_TRANSVERSE_BRACE
10
62520.0
20
2875.0
30
0.0
11
62520.0
21
-2875.0
31
21371.824283
0
LINE
8
ZJ8_COLUMN
10
74520.0
20
-2875.0
30
0.0
11
74520.0
21
-2875.0
31
4442.189205
0
LINE
8
ZJ8_COLUMN
10
74520.0
20
-2875.0
30
4442.189205
11
74520.0
21
-2875.0
31
8884.37841
0
LINE
8
ZJ8_COLUMN
10
74520.0
20
-2875.0
30
8884.37841
11
74520.0
21
-2875.0
31
13326.567616
0
LINE
8
ZJ8_COLUMN
10
74520.0
20
-2875.0
30
13326.567616
11
74520.0
21
-2875.0
31
17768.756821
0
LINE
8
ZJ8_COLUMN
10
74520.0
20
-2875.0
30
17768.756821
11
74520.0
21
-2875.0
31
22210.946026
0
LINE
8
ZJ8_COLUMN
10
74520.0
20
2875.0
30
0.0
11
74520.0
21
2875.0
31
4442.189205
0
LINE
8
ZJ8_COLUMN
10
74520.0
20
2875.0
30
4442.189205
11
74520.0
21
2875.0
31
8884.37841
0
LINE
8
ZJ8_COLUMN
10
74520.0
20
2875.0
30
8884.37841
11
74520.0
21
2875.0
31
13326.567616
0
LINE
8
ZJ8_COLUMN
10
74520.0
20
2875.0
30
13326.567616
11
74520.0
21
2875.0
31
17768.756821
0
LINE
8
ZJ8_COLUMN
10
74520.0
20
2875.0
30
17768.756821
11
74520.0
21
2875.0
31
22210.946026
0
LINE
8
ZJ8_DECK_CROSS
10
74520.0
20
-2200.0
30
22210.946026
11
74520.0
21
2700.0
31
22210.946026
0
LINE
8
ZJ8_TRANSVERSE_BRACE
10
74520.0
20
-2875.0
30
0.0
11
74520.0
21
2875.0
31
22210.946026
0
LINE
8
ZJ8_TRANSVERSE_BRACE
10
74520.0
20
2875.0
30
0.0
11
74520.0
21
-2875.0
31
22210.946026
0
LINE
8
ZJ8_COLUMN
10
77520.0
20
-2875.0
30
0.0
11
77520.0
21
-2875.0
31
4484.145292
0
LINE
8
ZJ8_COLUMN
10
77520.0
20
-2875.0
30
4484.145292
11
77520.0
21
-2875.0
31
8968.290585
0
LINE
8
ZJ8_COLUMN
10
77520.0
20
-2875.0
30
8968.290585
11
77520.0
21
-2875.0
31
13452.435877
0
LINE
8
ZJ8_COLUMN
10
77520.0
20
-2875.0
30
13452.435877
11
77520.0
21
-2875.0
31
17936.581169
0
LINE
8
ZJ8_COLUMN
10
77520.0
20
-2875.0
30
17936.581169
11
77520.0
21
-2875.0
31
22420.726462
0
LINE
8
ZJ8_COLUMN
10
77520.0
20
2875.0
30
0.0
11
77520.0
21
2875.0
31
4484.145292
0
LINE
8
ZJ8_COLUMN
10
77520.0
20
2875.0
30
4484.145292
11
77520.0
21
2875.0
31
8968.290585
0
LINE
8
ZJ8_COLUMN
10
77520.0
20
2875.0
30
8968.290585
11
77520.0
21
2875.0
31
13452.435877
0
LINE
8
ZJ8_COLUMN
10
77520.0
20
2875.0
30
13452.435877
11
77520.0
21
2875.0
31
17936.581169
0
LINE
8
ZJ8_COLUMN
10
77520.0
20
2875.0
30
17936.581169
11
77520.0
21
2875.0
31
22420.726462
0
LINE
8
ZJ8_DECK_CROSS
10
77520.0
20
-2200.0
30
22420.726462
11
77520.0
21
2700.0
31
22420.726462
0
LINE
8
ZJ8_TRANSVERSE_BRACE
10
77520.0
20
-2875.0
30
0.0
11
77520.0
21
2875.0
31
22420.726462
0
LINE
8
ZJ8_TRANSVERSE_BRACE
10
77520.0
20
2875.0
30
0.0
11
77520.0
21
-2875.0
31
22420.726462
0
LINE
8
ZJ8_COLUMN
10
116520.0
20
-2875.0
30
0.0
11
116520.0
21
-2875.0
31
4191.312021
0
LINE
8
ZJ8_COLUMN
10
116520.0
20
-2875.0
30
4191.312021
11
116520.0
21
-2875.0
31
8382.624043
0
LINE
8
ZJ8_COLUMN
10
116520.0
20
-2875.0
30
8382.624043
11
116520.0
21
-2875.0
31
12573.936064
0
LINE
8
ZJ8_COLUMN
10
116520.0
20
-2875.0
30
12573.936064
11
116520.0
21
-2875.0
31
16765.248085
0
LINE
8
ZJ8_COLUMN
10
116520.0
20
-2875.0
30
16765.248085
11
116520.0
21
-2875.0
31
20956.560106
0
LINE
8
ZJ8_COLUMN
10
116520.0
20
-2875.0
30
20956.560106
11
116520.0
21
-2875.0
31
25147.872128
0
LINE
8
ZJ8_COLUMN
10
116520.0
20
2875.0
30
0.0
11
116520.0
21
2875.0
31
4191.312021
0
LINE
8
ZJ8_COLUMN
10
116520.0
20
2875.0
30
4191.312021
11
116520.0
21
2875.0
31
8382.624043
0
LINE
8
ZJ8_COLUMN
10
116520.0
20
2875.0
30
8382.624043
11
116520.0
21
2875.0
31
12573.936064
0
LINE
8
ZJ8_COLUMN
10
116520.0
20
2875.0
30
12573.936064
11
116520.0
21
2875.0
31
16765.248085
0
LINE
8
ZJ8_COLUMN
10
116520.0
20
2875.0
30
16765.248085
11
116520.0
21
2875.0
31
20956.560106
0
LINE
8
ZJ8_COLUMN
10
116520.0
20
2875.0
30
20956.560106
11
116520.0
21
2875.0
31
25147.872128
0
LINE
8
ZJ8_DECK_CROSS
10
116520.0
20
-2200.0
30
25147.872128
11
116520.0
21
2700.0
31
25147.872128
0
LINE
8
ZJ8_TRANSVERSE_BRACE
10
116520.0
20
-2875.0
30
0.0
11
116520.0
21
2875.0
31
25147.872128
0
LINE
8
ZJ8_TRANSVERSE_BRACE
10
116520.0
20
2875.0
30
0.0
11
116520.0
21
-2875.0
31
25147.872128
0
LINE
8
ZJ8_COLUMN
10
119520.0
20
-2875.0
30
0.0
11
119520.0
21
-2875.0
31
4226.275427
0
LINE
8
ZJ8_COLUMN
10
119520.0
20
-2875.0
30
4226.275427
11
119520.0
21
-2875.0
31
8452.550854
0
LINE
8
ZJ8_COLUMN
10
119520.0
20
-2875.0
30
8452.550854
11
119520.0
21
-2875.0
31
12678.826282
0
LINE
8
ZJ8_COLUMN
10
119520.0
20
-2875.0
30
12678.826282
11
119520.0
21
-2875.0
31
16905.101709
0
LINE
8
ZJ8_COLUMN
10
119520.0
20
-2875.0
30
16905.101709
11
119520.0
21
-2875.0
31
21131.377136
0
LINE
8
ZJ8_COLUMN
10
119520.0
20
-2875.0
30
21131.377136
11
119520.0
21
-2875.0
31
25357.652563
0
LINE
8
ZJ8_COLUMN
10
119520.0
20
2875.0
30
0.0
11
119520.0
21
2875.0
31
4226.275427
0
LINE
8
ZJ8_COLUMN
10
119520.0
20
2875.0
30
4226.275427
11
119520.0
21
2875.0
31
8452.550854
0
LINE
8
ZJ8_COLUMN
10
119520.0
20
2875.0
30
8452.550854
11
119520.0
21
2875.0
31
12678.826282
0
LINE
8
ZJ8_COLUMN
10
119520.0
20
2875.0
30
12678.826282
11
119520.0
21
2875.0
31
16905.101709
0
LINE
8
ZJ8_COLUMN
10
119520.0
20
2875.0
30
16905.101709
11
119520.0
21
2875.0
31
21131.377136
0
LINE
8
ZJ8_COLUMN
10
119520.0
20
2875.0
30
21131.377136
11
119520.0
21
2875.0
31
25357.652563
0
LINE
8
ZJ8_DECK_CROSS
10
119520.0
20
-2200.0
30
25357.652563
11
119520.0
21
2700.0
31
25357.652563
0
LINE
8
ZJ8_TRANSVERSE_BRACE
10
119520.0
20
-2875.0
30
0.0
11
119520.0
21
2875.0
31
25357.652563
0
LINE
8
ZJ8_TRANSVERSE_BRACE
10
119520.0
20
2875.0
30
0.0
11
119520.0
21
-2875.0
31
25357.652563
0
LINE
8
ZJ8_CANTILEVER_EDGE
10
-1400.0
20
-2200.0
30
16902.102463
11
0.0
21
-2200.0
31
17000.0
0
LINE
8
ZJ8_CANTILEVER_EDGE
10
-1400.0
20
2700.0
30
16902.102463
11
0.0
21
2700.0
31
17000.0
0
LINE
8
ZJ8_DECK_MAIN
10
0.0
20
-2875.0
30
17000.0
11
3000.0
21
-2875.0
31
17209.780436
0
LINE
8
ZJ8_DECK_MAIN
10
3000.0
20
-2875.0
30
17209.780436
11
6000.0
21
-2875.0
31
17419.560872
0
LINE
8
ZJ8_DECK_MAIN
10
6000.0
20
-2875.0
30
17419.560872
11
9000.0
21
-2875.0
31
17629.341307
0
LINE
8
ZJ8_DECK_MAIN
10
9000.0
20
-2875.0
30
17629.341307
11
12000.0
21
-2875.0
31
17839.121743
0
LINE
8
ZJ8_DECK_MAIN
10
0.0
20
2875.0
30
17000.0
11
3000.0
21
2875.0
31
17209.780436
0
LINE
8
ZJ8_DECK_MAIN
10
3000.0
20
2875.0
30
17209.780436
11
6000.0
21
2875.0
31
17419.560872
0
LINE
8
ZJ8_DECK_MAIN
10
6000.0
20
2875.0
30
17419.560872
11
9000.0
21
2875.0
31
17629.341307
0
LINE
8
ZJ8_DECK_MAIN
10
9000.0
20
2875.0
30
17629.341307
11
12000.0
21
2875.0
31
17839.121743
0
LINE
8
ZJ8_DECK_CROSS
10
3000.0
20
-2200.0
30
17209.780436
11
3000.0
21
2700.0
31
17209.780436
0
LINE
8
ZJ8_DECK_CROSS
10
6000.0
20
-2200.0
30
17419.560872
11
6000.0
21
2700.0
31
17419.560872
0
LINE
8
ZJ8_DECK_CROSS
10
9000.0
20
-2200.0
30
17629.341307
11
9000.0
21
2700.0
31
17629.341307
0
LINE
8
ZJ8_DECK_SECONDARY
10
0.0
20
-1075.0
30
17000.0
11
3000.0
21
-1075.0
31
17209.780436
0
LINE
8
ZJ8_DECK_SECONDARY
10
3000.0
20
-1075.0
30
17209.780436
11
6000.0
21
-1075.0
31
17419.560872
0
LINE
8
ZJ8_DECK_SECONDARY
10
6000.0
20
-1075.0
30
17419.560872
11
9000.0
21
-1075.0
31
17629.341307
0
LINE
8
ZJ8_DECK_SECONDARY
10
9000.0
20
-1075.0
30
17629.341307
11
12000.0
21
-1075.0
31
17839.121743
0
LINE
8
ZJ8_DECK_SECONDARY
10
0.0
20
1075.0
30
17000.0
11
3000.0
21
1075.0
31
17209.780436
0
LINE
8
ZJ8_DECK_SECONDARY
10
3000.0
20
1075.0
30
17209.780436
11
6000.0
21
1075.0
31
17419.560872
0
LINE
8
ZJ8_DECK_SECONDARY
10
6000.0
20
1075.0
30
17419.560872
11
9000.0
21
1075.0
31
17629.341307
0
LINE
8
ZJ8_DECK_SECONDARY
10
9000.0
20
1075.0
30
17629.341307
11
12000.0
21
1075.0
31
17839.121743
0
LINE
8
ZJ8_CANTILEVER_EDGE
10
0.0
20
-2200.0
30
17000.0
11
3000.0
21
-2200.0
31
17209.780436
0
LINE
8
ZJ8_CANTILEVER_EDGE
10
3000.0
20
-2200.0
30
17209.780436
11
6000.0
21
-2200.0
31
17419.560872
0
LINE
8
ZJ8_CANTILEVER_EDGE
10
6000.0
20
-2200.0
30
17419.560872
11
9000.0
21
-2200.0
31
17629.341307
0
LINE
8
ZJ8_CANTILEVER_EDGE
10
9000.0
20
-2200.0
30
17629.341307
11
12000.0
21
-2200.0
31
17839.121743
0
LINE
8
ZJ8_CANTILEVER_EDGE
10
0.0
20
2700.0
30
17000.0
11
3000.0
21
2700.0
31
17209.780436
0
LINE
8
ZJ8_CANTILEVER_EDGE
10
3000.0
20
2700.0
30
17209.780436
11
6000.0
21
2700.0
31
17419.560872
0
LINE
8
ZJ8_CANTILEVER_EDGE
10
6000.0
20
2700.0
30
17419.560872
11
9000.0
21
2700.0
31
17629.341307
0
LINE
8
ZJ8_CANTILEVER_EDGE
10
9000.0
20
2700.0
30
17629.341307
11
12000.0
21
2700.0
31
17839.121743
0
LINE
8
ZJ8_PLATFORM_BRACE
10
0.0
20
-2875.0
30
17000.0
11
3000.0
21
2875.0
31
17209.780436
0
LINE
8
ZJ8_PLATFORM_BRACE
10
3000.0
20
2875.0
30
17209.780436
11
6000.0
21
-2875.0
31
17419.560872
0
LINE
8
ZJ8_PLATFORM_BRACE
10
6000.0
20
-2875.0
30
17419.560872
11
9000.0
21
2875.0
31
17629.341307
0
LINE
8
ZJ8_PLATFORM_BRACE
10
9000.0
20
2875.0
30
17629.341307
11
12000.0
21
-2875.0
31
17839.121743
0
LINE
8
ZJ8_DECK_MAIN
10
12000.0
20
-2875.0
30
17839.121743
11
15000.0
21
-2875.0
31
18048.902179
0
LINE
8
ZJ8_DECK_MAIN
10
15000.0
20
-2875.0
30
18048.902179
11
18000.0
21
-2875.0
31
18258.682615
0
LINE
8
ZJ8_DECK_MAIN
10
18000.0
20
-2875.0
30
18258.682615
11
21000.0
21
-2875.0
31
18468.463051
0
LINE
8
ZJ8_DECK_MAIN
10
21000.0
20
-2875.0
30
18468.463051
11
24000.0
21
-2875.0
31
18678.243487
0
LINE
8
ZJ8_DECK_MAIN
10
12000.0
20
2875.0
30
17839.121743
11
15000.0
21
2875.0
31
18048.902179
0
LINE
8
ZJ8_DECK_MAIN
10
15000.0
20
2875.0
30
18048.902179
11
18000.0
21
2875.0
31
18258.682615
0
LINE
8
ZJ8_DECK_MAIN
10
18000.0
20
2875.0
30
18258.682615
11
21000.0
21
2875.0
31
18468.463051
0
LINE
8
ZJ8_DECK_MAIN
10
21000.0
20
2875.0
30
18468.463051
11
24000.0
21
2875.0
31
18678.243487
0
LINE
8
ZJ8_DECK_CROSS
10
15000.0
20
-2200.0
30
18048.902179
11
15000.0
21
2700.0
31
18048.902179
0
LINE
8
ZJ8_DECK_CROSS
10
18000.0
20
-2200.0
30
18258.682615
11
18000.0
21
2700.0
31
18258.682615
0
LINE
8
ZJ8_DECK_CROSS
10
21000.0
20
-2200.0
30
18468.463051
11
21000.0
21
2700.0
31
18468.463051
0
LINE
8
ZJ8_DECK_SECONDARY
10
12000.0
20
-1075.0
30
17839.121743
11
15000.0
21
-1075.0
31
18048.902179
0
LINE
8
ZJ8_DECK_SECONDARY
10
15000.0
20
-1075.0
30
18048.902179
11
18000.0
21
-1075.0
31
18258.682615
0
LINE
8
ZJ8_DECK_SECONDARY
10
18000.0
20
-1075.0
30
18258.682615
11
21000.0
21
-1075.0
31
18468.463051
0
LINE
8
ZJ8_DECK_SECONDARY
10
21000.0
20
-1075.0
30
18468.463051
11
24000.0
21
-1075.0
31
18678.243487
0
LINE
8
ZJ8_DECK_SECONDARY
10
12000.0
20
1075.0
30
17839.121743
11
15000.0
21
1075.0
31
18048.902179
0
LINE
8
ZJ8_DECK_SECONDARY
10
15000.0
20
1075.0
30
18048.902179
11
18000.0
21
1075.0
31
18258.682615
0
LINE
8
ZJ8_DECK_SECONDARY
10
18000.0
20
1075.0
30
18258.682615
11
21000.0
21
1075.0
31
18468.463051
0
LINE
8
ZJ8_DECK_SECONDARY
10
21000.0
20
1075.0
30
18468.463051
11
24000.0
21
1075.0
31
18678.243487
0
LINE
8
ZJ8_CANTILEVER_EDGE
10
12000.0
20
-2200.0
30
17839.121743
11
15000.0
21
-2200.0
31
18048.902179
0
LINE
8
ZJ8_CANTILEVER_EDGE
10
15000.0
20
-2200.0
30
18048.902179
11
18000.0
21
-2200.0
31
18258.682615
0
LINE
8
ZJ8_CANTILEVER_EDGE
10
18000.0
20
-2200.0
30
18258.682615
11
21000.0
21
-2200.0
31
18468.463051
0
LINE
8
ZJ8_CANTILEVER_EDGE
10
21000.0
20
-2200.0
30
18468.463051
11
24000.0
21
-2200.0
31
18678.243487
0
LINE
8
ZJ8_CANTILEVER_EDGE
10
12000.0
20
2700.0
30
17839.121743
11
15000.0
21
2700.0
31
18048.902179
0
LINE
8
ZJ8_CANTILEVER_EDGE
10
15000.0
20
2700.0
30
18048.902179
11
18000.0
21
2700.0
31
18258.682615
0
LINE
8
ZJ8_CANTILEVER_EDGE
10
18000.0
20
2700.0
30
18258.682615
11
21000.0
21
2700.0
31
18468.463051
0
LINE
8
ZJ8_CANTILEVER_EDGE
10
21000.0
20
2700.0
30
18468.463051
11
24000.0
21
2700.0
31
18678.243487
0
LINE
8
ZJ8_PLATFORM_BRACE
10
12000.0
20
-2875.0
30
17839.121743
11
15000.0
21
2875.0
31
18048.902179
0
LINE
8
ZJ8_PLATFORM_BRACE
10
15000.0
20
2875.0
30
18048.902179
11
18000.0
21
-2875.0
31
18258.682615
0
LINE
8
ZJ8_PLATFORM_BRACE
10
18000.0
20
-2875.0
30
18258.682615
11
21000.0
21
2875.0
31
18468.463051
0
LINE
8
ZJ8_PLATFORM_BRACE
10
21000.0
20
2875.0
30
18468.463051
11
24000.0
21
-2875.0
31
18678.243487
0
LINE
8
ZJ8_DECK_MAIN
10
24000.0
20
-2875.0
30
18678.243487
11
27000.0
21
-2875.0
31
18888.023922
0
LINE
8
ZJ8_DECK_MAIN
10
27000.0
20
-2875.0
30
18888.023922
11
30000.0
21
-2875.0
31
19097.804358
0
LINE
8
ZJ8_DECK_MAIN
10
30000.0
20
-2875.0
30
19097.804358
11
33000.0
21
-2875.0
31
19307.584794
0
LINE
8
ZJ8_DECK_MAIN
10
33000.0
20
-2875.0
30
19307.584794
11
36000.0
21
-2875.0
31
19517.36523
0
LINE
8
ZJ8_DECK_MAIN
10
24000.0
20
2875.0
30
18678.243487
11
27000.0
21
2875.0
31
18888.023922
0
LINE
8
ZJ8_DECK_MAIN
10
27000.0
20
2875.0
30
18888.023922
11
30000.0
21
2875.0
31
19097.804358
0
LINE
8
ZJ8_DECK_MAIN
10
30000.0
20
2875.0
30
19097.804358
11
33000.0
21
2875.0
31
19307.584794
0
LINE
8
ZJ8_DECK_MAIN
10
33000.0
20
2875.0
30
19307.584794
11
36000.0
21
2875.0
31
19517.36523
0
LINE
8
ZJ8_DECK_CROSS
10
27000.0
20
-2200.0
30
18888.023922
11
27000.0
21
2700.0
31
18888.023922
0
LINE
8
ZJ8_DECK_CROSS
10
30000.0
20
-2200.0
30
19097.804358
11
30000.0
21
2700.0
31
19097.804358
0
LINE
8
ZJ8_DECK_CROSS
10
33000.0
20
-2200.0
30
19307.584794
11
33000.0
21
2700.0
31
19307.584794
0
LINE
8
ZJ8_DECK_SECONDARY
10
24000.0
20
-1075.0
30
18678.243487
11
27000.0
21
-1075.0
31
18888.023922
0
LINE
8
ZJ8_DECK_SECONDARY
10
27000.0
20
-1075.0
30
18888.023922
11
30000.0
21
-1075.0
31
19097.804358
0
LINE
8
ZJ8_DECK_SECONDARY
10
30000.0
20
-1075.0
30
19097.804358
11
33000.0
21
-1075.0
31
19307.584794
0
LINE
8
ZJ8_DECK_SECONDARY
10
33000.0
20
-1075.0
30
19307.584794
11
36000.0
21
-1075.0
31
19517.36523
0
LINE
8
ZJ8_DECK_SECONDARY
10
24000.0
20
1075.0
30
18678.243487
11
27000.0
21
1075.0
31
18888.023922
0
LINE
8
ZJ8_DECK_SECONDARY
10
27000.0
20
1075.0
30
18888.023922
11
30000.0
21
1075.0
31
19097.804358
0
LINE
8
ZJ8_DECK_SECONDARY
10
30000.0
20
1075.0
30
19097.804358
11
33000.0
21
1075.0
31
19307.584794
0
LINE
8
ZJ8_DECK_SECONDARY
10
33000.0
20
1075.0
30
19307.584794
11
36000.0
21
1075.0
31
19517.36523
0
LINE
8
ZJ8_CANTILEVER_EDGE
10
24000.0
20
-2200.0
30
18678.243487
11
27000.0
21
-2200.0
31
18888.023922
0
LINE
8
ZJ8_CANTILEVER_EDGE
10
27000.0
20
-2200.0
30
18888.023922
11
30000.0
21
-2200.0
31
19097.804358
0
LINE
8
ZJ8_CANTILEVER_EDGE
10
30000.0
20
-2200.0
30
19097.804358
11
33000.0
21
-2200.0
31
19307.584794
0
LINE
8
ZJ8_CANTILEVER_EDGE
10
33000.0
20
-2200.0
30
19307.584794
11
36000.0
21
-2200.0
31
19517.36523
0
LINE
8
ZJ8_CANTILEVER_EDGE
10
24000.0
20
2700.0
30
18678.243487
11
27000.0
21
2700.0
31
18888.023922
0
LINE
8
ZJ8_CANTILEVER_EDGE
10
27000.0
20
2700.0
30
18888.023922
11
30000.0
21
2700.0
31
19097.804358
0
LINE
8
ZJ8_CANTILEVER_EDGE
10
30000.0
20
2700.0
30
19097.804358
11
33000.0
21
2700.0
31
19307.584794
0
LINE
8
ZJ8_CANTILEVER_EDGE
10
33000.0
20
2700.0
30
19307.584794
11
36000.0
21
2700.0
31
19517.36523
0
LINE
8
ZJ8_PLATFORM_BRACE
10
24000.0
20
-2875.0
30
18678.243487
11
27000.0
21
2875.0
31
18888.023922
0
LINE
8
ZJ8_PLATFORM_BRACE
10
27000.0
20
2875.0
30
18888.023922
11
30000.0
21
-2875.0
31
19097.804358
0
LINE
8
ZJ8_PLATFORM_BRACE
10
30000.0
20
-2875.0
30
19097.804358
11
33000.0
21
2875.0
31
19307.584794
0
LINE
8
ZJ8_PLATFORM_BRACE
10
33000.0
20
2875.0
30
19307.584794
11
36000.0
21
-2875.0
31
19517.36523
0
LINE
8
ZJ8_DECK_MAIN
10
36000.0
20
-2875.0
30
19517.36523
11
39000.0
21
-2875.0
31
19727.145666
0
LINE
8
ZJ8_DECK_MAIN
10
36000.0
20
2875.0
30
19517.36523
11
39000.0
21
2875.0
31
19727.145666
0
LINE
8
ZJ8_DECK_SECONDARY
10
36000.0
20
-1075.0
30
19517.36523
11
39000.0
21
-1075.0
31
19727.145666
0
LINE
8
ZJ8_DECK_SECONDARY
10
36000.0
20
1075.0
30
19517.36523
11
39000.0
21
1075.0
31
19727.145666
0
LINE
8
ZJ8_CANTILEVER_EDGE
10
36000.0
20
-2200.0
30
19517.36523
11
39000.0
21
-2200.0
31
19727.145666
0
LINE
8
ZJ8_CANTILEVER_EDGE
10
36000.0
20
2700.0
30
19517.36523
11
39000.0
21
2700.0
31
19727.145666
0
LINE
8
ZJ8_PLATFORM_BRACE
10
36000.0
20
-2875.0
30
19517.36523
11
39000.0
21
2875.0
31
19727.145666
0
LINE
8
ZJ8_LONGITUDINAL_BRACE
10
36000.0
20
-2875.0
30
0.0
11
39000.0
21
-2875.0
31
19727.145666
0
LINE
8
ZJ8_LONGITUDINAL_BRACE
10
36000.0
20
2875.0
30
0.0
11
39000.0
21
2875.0
31
19727.145666
0
LINE
8
ZJ8_DECK_MAIN
10
39000.0
20
-2875.0
30
19727.145666
11
41931.428571
21
-2875.0
31
19932.13112
0
LINE
8
ZJ8_DECK_MAIN
10
41931.428571
20
-2875.0
30
19932.13112
11
44862.857143
21
-2875.0
31
20137.116575
0
LINE
8
ZJ8_DECK_MAIN
10
44862.857143
20
-2875.0
30
20137.116575
11
47794.285714
21
-2875.0
31
20342.102029
0
LINE
8
ZJ8_DECK_MAIN
10
47794.285714
20
-2875.0
30
20342.102029
11
50725.714286
21
-2875.0
31
20547.087484
0
LINE
8
ZJ8_DECK_MAIN
10
50725.714286
20
-2875.0
30
20547.087484
11
53657.142857
21
-2875.0
31
20752.072938
0
LINE
8
ZJ8_DECK_MAIN
10
53657.142857
20
-2875.0
30
20752.072938
11
56588.571429
21
-2875.0
31
20957.058392
0
LINE
8
ZJ8_DECK_MAIN
10
56588.571429
20
-2875.0
30
20957.058392
11
59520.0
21
-2875.0
31
21162.043847
0
LINE
8
ZJ8_DECK_MAIN
10
39000.0
20
2875.0
30
19727.145666
11
41931.428571
21
2875.0
31
19932.13112
0
LINE
8
ZJ8_DECK_MAIN
10
41931.428571
20
2875.0
30
19932.13112
11
44862.857143
21
2875.0
31
20137.116575
0
LINE
8
ZJ8_DECK_MAIN
10
44862.857143
20
2875.0
30
20137.116575
11
47794.285714
21
2875.0
31
20342.102029
0
LINE
8
ZJ8_DECK_MAIN
10
47794.285714
20
2875.0
30
20342.102029
11
50725.714286
21
2875.0
31
20547.087484
0
LINE
8
ZJ8_DECK_MAIN
10
50725.714286
20
2875.0
30
20547.087484
11
53657.142857
21
2875.0
31
20752.072938
0
LINE
8
ZJ8_DECK_MAIN
10
53657.142857
20
2875.0
30
20752.072938
11
56588.571429
21
2875.0
31
20957.058392
0
LINE
8
ZJ8_DECK_MAIN
10
56588.571429
20
2875.0
30
20957.058392
11
59520.0
21
2875.0
31
21162.043847
0
LINE
8
ZJ8_DECK_CROSS
10
41931.428571
20
-2200.0
30
19932.13112
11
41931.428571
21
2700.0
31
19932.13112
0
LINE
8
ZJ8_DECK_CROSS
10
44862.857143
20
-2200.0
30
20137.116575
11
44862.857143
21
2700.0
31
20137.116575
0
LINE
8
ZJ8_DECK_CROSS
10
47794.285714
20
-2200.0
30
20342.102029
11
47794.285714
21
2700.0
31
20342.102029
0
LINE
8
ZJ8_DECK_CROSS
10
50725.714286
20
-2200.0
30
20547.087484
11
50725.714286
21
2700.0
31
20547.087484
0
LINE
8
ZJ8_DECK_CROSS
10
53657.142857
20
-2200.0
30
20752.072938
11
53657.142857
21
2700.0
31
20752.072938
0
LINE
8
ZJ8_DECK_CROSS
10
56588.571429
20
-2200.0
30
20957.058392
11
56588.571429
21
2700.0
31
20957.058392
0
LINE
8
ZJ8_DECK_SECONDARY
10
39000.0
20
-1075.0
30
19727.145666
11
41931.428571
21
-1075.0
31
19932.13112
0
LINE
8
ZJ8_DECK_SECONDARY
10
41931.428571
20
-1075.0
30
19932.13112
11
44862.857143
21
-1075.0
31
20137.116575
0
LINE
8
ZJ8_DECK_SECONDARY
10
44862.857143
20
-1075.0
30
20137.116575
11
47794.285714
21
-1075.0
31
20342.102029
0
LINE
8
ZJ8_DECK_SECONDARY
10
47794.285714
20
-1075.0
30
20342.102029
11
50725.714286
21
-1075.0
31
20547.087484
0
LINE
8
ZJ8_DECK_SECONDARY
10
50725.714286
20
-1075.0
30
20547.087484
11
53657.142857
21
-1075.0
31
20752.072938
0
LINE
8
ZJ8_DECK_SECONDARY
10
53657.142857
20
-1075.0
30
20752.072938
11
56588.571429
21
-1075.0
31
20957.058392
0
LINE
8
ZJ8_DECK_SECONDARY
10
56588.571429
20
-1075.0
30
20957.058392
11
59520.0
21
-1075.0
31
21162.043847
0
LINE
8
ZJ8_DECK_SECONDARY
10
39000.0
20
1075.0
30
19727.145666
11
41931.428571
21
1075.0
31
19932.13112
0
LINE
8
ZJ8_DECK_SECONDARY
10
41931.428571
20
1075.0
30
19932.13112
11
44862.857143
21
1075.0
31
20137.116575
0
LINE
8
ZJ8_DECK_SECONDARY
10
44862.857143
20
1075.0
30
20137.116575
11
47794.285714
21
1075.0
31
20342.102029
0
LINE
8
ZJ8_DECK_SECONDARY
10
47794.285714
20
1075.0
30
20342.102029
11
50725.714286
21
1075.0
31
20547.087484
0
LINE
8
ZJ8_DECK_SECONDARY
10
50725.714286
20
1075.0
30
20547.087484
11
53657.142857
21
1075.0
31
20752.072938
0
LINE
8
ZJ8_DECK_SECONDARY
10
53657.142857
20
1075.0
30
20752.072938
11
56588.571429
21
1075.0
31
20957.058392
0
LINE
8
ZJ8_DECK_SECONDARY
10
56588.571429
20
1075.0
30
20957.058392
11
59520.0
21
1075.0
31
21162.043847
0
LINE
8
ZJ8_CANTILEVER_EDGE
10
39000.0
20
-2200.0
30
19727.145666
11
41931.428571
21
-2200.0
31
19932.13112
0
LINE
8
ZJ8_CANTILEVER_EDGE
10
41931.428571
20
-2200.0
30
19932.13112
11
44862.857143
21
-2200.0
31
20137.116575
0
LINE
8
ZJ8_CANTILEVER_EDGE
10
44862.857143
20
-2200.0
30
20137.116575
11
47794.285714
21
-2200.0
31
20342.102029
0
LINE
8
ZJ8_CANTILEVER_EDGE
10
47794.285714
20
-2200.0
30
20342.102029
11
50725.714286
21
-2200.0
31
20547.087484
0
LINE
8
ZJ8_CANTILEVER_EDGE
10
50725.714286
20
-2200.0
30
20547.087484
11
53657.142857
21
-2200.0
31
20752.072938
0
LINE
8
ZJ8_CANTILEVER_EDGE
10
53657.142857
20
-2200.0
30
20752.072938
11
56588.571429
21
-2200.0
31
20957.058392
0
LINE
8
ZJ8_CANTILEVER_EDGE
10
56588.571429
20
-2200.0
30
20957.058392
11
59520.0
21
-2200.0
31
21162.043847
0
LINE
8
ZJ8_CANTILEVER_EDGE
10
39000.0
20
2700.0
30
19727.145666
11
41931.428571
21
2700.0
31
19932.13112
0
LINE
8
ZJ8_CANTILEVER_EDGE
10
41931.428571
20
2700.0
30
19932.13112
11
44862.857143
21
2700.0
31
20137.116575
0
LINE
8
ZJ8_CANTILEVER_EDGE
10
44862.857143
20
2700.0
30
20137.116575
11
47794.285714
21
2700.0
31
20342.102029
0
LINE
8
ZJ8_CANTILEVER_EDGE
10
47794.285714
20
2700.0
30
20342.102029
11
50725.714286
21
2700.0
31
20547.087484
0
LINE
8
ZJ8_CANTILEVER_EDGE
10
50725.714286
20
2700.0
30
20547.087484
11
53657.142857
21
2700.0
31
20752.072938
0
LINE
8
ZJ8_CANTILEVER_EDGE
10
53657.142857
20
2700.0
30
20752.072938
11
56588.571429
21
2700.0
31
20957.058392
0
LINE
8
ZJ8_CANTILEVER_EDGE
10
56588.571429
20
2700.0
30
20957.058392
11
59520.0
21
2700.0
31
21162.043847
0
LINE
8
ZJ8_PLATFORM_BRACE
10
39000.0
20
-2875.0
30
19727.145666
11
41931.428571
21
2875.0
31
19932.13112
0
LINE
8
ZJ8_PLATFORM_BRACE
10
41931.428571
20
2875.0
30
19932.13112
11
44862.857143
21
-2875.0
31
20137.116575
0
LINE
8
ZJ8_PLATFORM_BRACE
10
44862.857143
20
-2875.0
30
20137.116575
11
47794.285714
21
2875.0
31
20342.102029
0
LINE
8
ZJ8_PLATFORM_BRACE
10
47794.285714
20
2875.0
30
20342.102029
11
50725.714286
21
-2875.0
31
20547.087484
0
LINE
8
ZJ8_PLATFORM_BRACE
10
50725.714286
20
-2875.0
30
20547.087484
11
53657.142857
21
2875.0
31
20752.072938
0
LINE
8
ZJ8_PLATFORM_BRACE
10
53657.142857
20
2875.0
30
20752.072938
11
56588.571429
21
-2875.0
31
20957.058392
0
LINE
8
ZJ8_PLATFORM_BRACE
10
56588.571429
20
-2875.0
30
20957.058392
11
59520.0
21
2875.0
31
21162.043847
0
LINE
8
ZJ8_TRUSS_UPPER
10
39000.0
20
-2875.0
30
19727.145666
11
40865.454545
21
-2875.0
31
19857.590955
0
LINE
8
ZJ8_TRUSS_UPPER
10
40865.454545
20
-2875.0
30
19857.590955
11
42730.909091
21
-2875.0
31
19988.036244
0
LINE
8
ZJ8_TRUSS_UPPER
10
42730.909091
20
-2875.0
30
19988.036244
11
44596.363636
21
-2875.0
31
20118.481533
0
LINE
8
ZJ8_TRUSS_UPPER
10
44596.363636
20
-2875.0
30
20118.481533
11
46461.818182
21
-2875.0
31
20248.926823
0
LINE
8
ZJ8_TRUSS_UPPER
10
46461.818182
20
-2875.0
30
20248.926823
11
48327.272727
21
-2875.0
31
20379.372112
0
LINE
8
ZJ8_TRUSS_UPPER
10
48327.272727
20
-2875.0
30
20379.372112
11
50192.727273
21
-2875.0
31
20509.817401
0
LINE
8
ZJ8_TRUSS_UPPER
10
50192.727273
20
-2875.0
30
20509.817401
11
52058.181818
21
-2875.0
31
20640.26269
0
LINE
8
ZJ8_TRUSS_UPPER
10
52058.181818
20
-2875.0
30
20640.26269
11
53923.636364
21
-2875.0
31
20770.707979
0
LINE
8
ZJ8_TRUSS_UPPER
10
53923.636364
20
-2875.0
30
20770.707979
11
55789.090909
21
-2875.0
31
20901.153268
0
LINE
8
ZJ8_TRUSS_UPPER
10
55789.090909
20
-2875.0
30
20901.153268
11
57654.545455
21
-2875.0
31
21031.598558
0
LINE
8
ZJ8_TRUSS_UPPER
10
57654.545455
20
-2875.0
30
21031.598558
11
59520.0
21
-2875.0
31
21162.043847
0
LINE
8
ZJ8_TRUSS_LOWER
10
39000.0
20
-2875.0
30
17927.145666
11
40865.454545
21
-2875.0
31
18057.590955
0
LINE
8
ZJ8_TRUSS_LOWER
10
40865.454545
20
-2875.0
30
18057.590955
11
42730.909091
21
-2875.0
31
18188.036244
0
LINE
8
ZJ8_TRUSS_LOWER
10
42730.909091
20
-2875.0
30
18188.036244
11
44596.363636
21
-2875.0
31
18318.481533
0
LINE
8
ZJ8_TRUSS_LOWER
10
44596.363636
20
-2875.0
30
18318.481533
11
46461.818182
21
-2875.0
31
18448.926823
0
LINE
8
ZJ8_TRUSS_LOWER
10
46461.818182
20
-2875.0
30
18448.926823
11
48327.272727
21
-2875.0
31
18579.372112
0
LINE
8
ZJ8_TRUSS_LOWER
10
48327.272727
20
-2875.0
30
18579.372112
11
50192.727273
21
-2875.0
31
18709.817401
0
LINE
8
ZJ8_TRUSS_LOWER
10
50192.727273
20
-2875.0
30
18709.817401
11
52058.181818
21
-2875.0
31
18840.26269
0
LINE
8
ZJ8_TRUSS_LOWER
10
52058.181818
20
-2875.0
30
18840.26269
11
53923.636364
21
-2875.0
31
18970.707979
0
LINE
8
ZJ8_TRUSS_LOWER
10
53923.636364
20
-2875.0
30
18970.707979
11
55789.090909
21
-2875.0
31
19101.153268
0
LINE
8
ZJ8_TRUSS_LOWER
10
55789.090909
20
-2875.0
30
19101.153268
11
57654.545455
21
-2875.0
31
19231.598558
0
LINE
8
ZJ8_TRUSS_LOWER
10
57654.545455
20
-2875.0
30
19231.598558
11
59520.0
21
-2875.0
31
19362.043847
0
LINE
8
ZJ8_TRUSS_VERTICAL
10
39000.0
20
-2875.0
30
19727.145666
11
39000.0
21
-2875.0
31
17927.145666
0
LINE
8
ZJ8_TRUSS_VERTICAL
10
40865.454545
20
-2875.0
30
19857.590955
11
40865.454545
21
-2875.0
31
18057.590955
0
LINE
8
ZJ8_TRUSS_VERTICAL
10
42730.909091
20
-2875.0
30
19988.036244
11
42730.909091
21
-2875.0
31
18188.036244
0
LINE
8
ZJ8_TRUSS_VERTICAL
10
44596.363636
20
-2875.0
30
20118.481533
11
44596.363636
21
-2875.0
31
18318.481533
0
LINE
8
ZJ8_TRUSS_VERTICAL
10
46461.818182
20
-2875.0
30
20248.926823
11
46461.818182
21
-2875.0
31
18448.926823
0
LINE
8
ZJ8_TRUSS_VERTICAL
10
48327.272727
20
-2875.0
30
20379.372112
11
48327.272727
21
-2875.0
31
18579.372112
0
LINE
8
ZJ8_TRUSS_VERTICAL
10
50192.727273
20
-2875.0
30
20509.817401
11
50192.727273
21
-2875.0
31
18709.817401
0
LINE
8
ZJ8_TRUSS_VERTICAL
10
52058.181818
20
-2875.0
30
20640.26269
11
52058.181818
21
-2875.0
31
18840.26269
0
LINE
8
ZJ8_TRUSS_VERTICAL
10
53923.636364
20
-2875.0
30
20770.707979
11
53923.636364
21
-2875.0
31
18970.707979
0
LINE
8
ZJ8_TRUSS_VERTICAL
10
55789.090909
20
-2875.0
30
20901.153268
11
55789.090909
21
-2875.0
31
19101.153268
0
LINE
8
ZJ8_TRUSS_VERTICAL
10
57654.545455
20
-2875.0
30
21031.598558
11
57654.545455
21
-2875.0
31
19231.598558
0
LINE
8
ZJ8_TRUSS_VERTICAL
10
59520.0
20
-2875.0
30
21162.043847
11
59520.0
21
-2875.0
31
19362.043847
0
LINE
8
ZJ8_TRUSS_DIAGONAL
10
39000.0
20
-2875.0
30
17927.145666
11
40865.454545
21
-2875.0
31
19857.590955
0
LINE
8
ZJ8_TRUSS_DIAGONAL
10
40865.454545
20
-2875.0
30
19857.590955
11
42730.909091
21
-2875.0
31
18188.036244
0
LINE
8
ZJ8_TRUSS_DIAGONAL
10
42730.909091
20
-2875.0
30
18188.036244
11
44596.363636
21
-2875.0
31
20118.481533
0
LINE
8
ZJ8_TRUSS_DIAGONAL
10
44596.363636
20
-2875.0
30
20118.481533
11
46461.818182
21
-2875.0
31
18448.926823
0
LINE
8
ZJ8_TRUSS_DIAGONAL
10
46461.818182
20
-2875.0
30
18448.926823
11
48327.272727
21
-2875.0
31
20379.372112
0
LINE
8
ZJ8_TRUSS_DIAGONAL
10
48327.272727
20
-2875.0
30
20379.372112
11
50192.727273
21
-2875.0
31
18709.817401
0
LINE
8
ZJ8_TRUSS_DIAGONAL
10
50192.727273
20
-2875.0
30
18709.817401
11
52058.181818
21
-2875.0
31
20640.26269
0
LINE
8
ZJ8_TRUSS_DIAGONAL
10
52058.181818
20
-2875.0
30
20640.26269
11
53923.636364
21
-2875.0
31
18970.707979
0
LINE
8
ZJ8_TRUSS_DIAGONAL
10
53923.636364
20
-2875.0
30
18970.707979
11
55789.090909
21
-2875.0
31
20901.153268
0
LINE
8
ZJ8_TRUSS_DIAGONAL
10
55789.090909
20
-2875.0
30
20901.153268
11
57654.545455
21
-2875.0
31
19231.598558
0
LINE
8
ZJ8_TRUSS_DIAGONAL
10
57654.545455
20
-2875.0
30
19231.598558
11
59520.0
21
-2875.0
31
21162.043847
0
LINE
8
ZJ8_TRUSS_UPPER
10
39000.0
20
2875.0
30
19727.145666
11
40865.454545
21
2875.0
31
19857.590955
0
LINE
8
ZJ8_TRUSS_UPPER
10
40865.454545
20
2875.0
30
19857.590955
11
42730.909091
21
2875.0
31
19988.036244
0
LINE
8
ZJ8_TRUSS_UPPER
10
42730.909091
20
2875.0
30
19988.036244
11
44596.363636
21
2875.0
31
20118.481533
0
LINE
8
ZJ8_TRUSS_UPPER
10
44596.363636
20
2875.0
30
20118.481533
11
46461.818182
21
2875.0
31
20248.926823
0
LINE
8
ZJ8_TRUSS_UPPER
10
46461.818182
20
2875.0
30
20248.926823
11
48327.272727
21
2875.0
31
20379.372112
0
LINE
8
ZJ8_TRUSS_UPPER
10
48327.272727
20
2875.0
30
20379.372112
11
50192.727273
21
2875.0
31
20509.817401
0
LINE
8
ZJ8_TRUSS_UPPER
10
50192.727273
20
2875.0
30
20509.817401
11
52058.181818
21
2875.0
31
20640.26269
0
LINE
8
ZJ8_TRUSS_UPPER
10
52058.181818
20
2875.0
30
20640.26269
11
53923.636364
21
2875.0
31
20770.707979
0
LINE
8
ZJ8_TRUSS_UPPER
10
53923.636364
20
2875.0
30
20770.707979
11
55789.090909
21
2875.0
31
20901.153268
0
LINE
8
ZJ8_TRUSS_UPPER
10
55789.090909
20
2875.0
30
20901.153268
11
57654.545455
21
2875.0
31
21031.598558
0
LINE
8
ZJ8_TRUSS_UPPER
10
57654.545455
20
2875.0
30
21031.598558
11
59520.0
21
2875.0
31
21162.043847
0
LINE
8
ZJ8_TRUSS_LOWER
10
39000.0
20
2875.0
30
17927.145666
11
40865.454545
21
2875.0
31
18057.590955
0
LINE
8
ZJ8_TRUSS_LOWER
10
40865.454545
20
2875.0
30
18057.590955
11
42730.909091
21
2875.0
31
18188.036244
0
LINE
8
ZJ8_TRUSS_LOWER
10
42730.909091
20
2875.0
30
18188.036244
11
44596.363636
21
2875.0
31
18318.481533
0
LINE
8
ZJ8_TRUSS_LOWER
10
44596.363636
20
2875.0
30
18318.481533
11
46461.818182
21
2875.0
31
18448.926823
0
LINE
8
ZJ8_TRUSS_LOWER
10
46461.818182
20
2875.0
30
18448.926823
11
48327.272727
21
2875.0
31
18579.372112
0
LINE
8
ZJ8_TRUSS_LOWER
10
48327.272727
20
2875.0
30
18579.372112
11
50192.727273
21
2875.0
31
18709.817401
0
LINE
8
ZJ8_TRUSS_LOWER
10
50192.727273
20
2875.0
30
18709.817401
11
52058.181818
21
2875.0
31
18840.26269
0
LINE
8
ZJ8_TRUSS_LOWER
10
52058.181818
20
2875.0
30
18840.26269
11
53923.636364
21
2875.0
31
18970.707979
0
LINE
8
ZJ8_TRUSS_LOWER
10
53923.636364
20
2875.0
30
18970.707979
11
55789.090909
21
2875.0
31
19101.153268
0
LINE
8
ZJ8_TRUSS_LOWER
10
55789.090909
20
2875.0
30
19101.153268
11
57654.545455
21
2875.0
31
19231.598558
0
LINE
8
ZJ8_TRUSS_LOWER
10
57654.545455
20
2875.0
30
19231.598558
11
59520.0
21
2875.0
31
19362.043847
0
LINE
8
ZJ8_TRUSS_VERTICAL
10
39000.0
20
2875.0
30
19727.145666
11
39000.0
21
2875.0
31
17927.145666
0
LINE
8
ZJ8_TRUSS_VERTICAL
10
40865.454545
20
2875.0
30
19857.590955
11
40865.454545
21
2875.0
31
18057.590955
0
LINE
8
ZJ8_TRUSS_VERTICAL
10
42730.909091
20
2875.0
30
19988.036244
11
42730.909091
21
2875.0
31
18188.036244
0
LINE
8
ZJ8_TRUSS_VERTICAL
10
44596.363636
20
2875.0
30
20118.481533
11
44596.363636
21
2875.0
31
18318.481533
0
LINE
8
ZJ8_TRUSS_VERTICAL
10
46461.818182
20
2875.0
30
20248.926823
11
46461.818182
21
2875.0
31
18448.926823
0
LINE
8
ZJ8_TRUSS_VERTICAL
10
48327.272727
20
2875.0
30
20379.372112
11
48327.272727
21
2875.0
31
18579.372112
0
LINE
8
ZJ8_TRUSS_VERTICAL
10
50192.727273
20
2875.0
30
20509.817401
11
50192.727273
21
2875.0
31
18709.817401
0
LINE
8
ZJ8_TRUSS_VERTICAL
10
52058.181818
20
2875.0
30
20640.26269
11
52058.181818
21
2875.0
31
18840.26269
0
LINE
8
ZJ8_TRUSS_VERTICAL
10
53923.636364
20
2875.0
30
20770.707979
11
53923.636364
21
2875.0
31
18970.707979
0
LINE
8
ZJ8_TRUSS_VERTICAL
10
55789.090909
20
2875.0
30
20901.153268
11
55789.090909
21
2875.0
31
19101.153268
0
LINE
8
ZJ8_TRUSS_VERTICAL
10
57654.545455
20
2875.0
30
21031.598558
11
57654.545455
21
2875.0
31
19231.598558
0
LINE
8
ZJ8_TRUSS_VERTICAL
10
59520.0
20
2875.0
30
21162.043847
11
59520.0
21
2875.0
31
19362.043847
0
LINE
8
ZJ8_TRUSS_DIAGONAL
10
39000.0
20
2875.0
30
17927.145666
11
40865.454545
21
2875.0
31
19857.590955
0
LINE
8
ZJ8_TRUSS_DIAGONAL
10
40865.454545
20
2875.0
30
19857.590955
11
42730.909091
21
2875.0
31
18188.036244
0
LINE
8
ZJ8_TRUSS_DIAGONAL
10
42730.909091
20
2875.0
30
18188.036244
11
44596.363636
21
2875.0
31
20118.481533
0
LINE
8
ZJ8_TRUSS_DIAGONAL
10
44596.363636
20
2875.0
30
20118.481533
11
46461.818182
21
2875.0
31
18448.926823
0
LINE
8
ZJ8_TRUSS_DIAGONAL
10
46461.818182
20
2875.0
30
18448.926823
11
48327.272727
21
2875.0
31
20379.372112
0
LINE
8
ZJ8_TRUSS_DIAGONAL
10
48327.272727
20
2875.0
30
20379.372112
11
50192.727273
21
2875.0
31
18709.817401
0
LINE
8
ZJ8_TRUSS_DIAGONAL
10
50192.727273
20
2875.0
30
18709.817401
11
52058.181818
21
2875.0
31
20640.26269
0
LINE
8
ZJ8_TRUSS_DIAGONAL
10
52058.181818
20
2875.0
30
20640.26269
11
53923.636364
21
2875.0
31
18970.707979
0
LINE
8
ZJ8_TRUSS_DIAGONAL
10
53923.636364
20
2875.0
30
18970.707979
11
55789.090909
21
2875.0
31
20901.153268
0
LINE
8
ZJ8_TRUSS_DIAGONAL
10
55789.090909
20
2875.0
30
20901.153268
11
57654.545455
21
2875.0
31
19231.598558
0
LINE
8
ZJ8_TRUSS_DIAGONAL
10
57654.545455
20
2875.0
30
19231.598558
11
59520.0
21
2875.0
31
21162.043847
0
LINE
8
ZJ8_DECK_MAIN
10
59520.0
20
-2875.0
30
21162.043847
11
62520.0
21
-2875.0
31
21371.824283
0
LINE
8
ZJ8_DECK_MAIN
10
59520.0
20
2875.0
30
21162.043847
11
62520.0
21
2875.0
31
21371.824283
0
LINE
8
ZJ8_DECK_SECONDARY
10
59520.0
20
-1075.0
30
21162.043847
11
62520.0
21
-1075.0
31
21371.824283
0
LINE
8
ZJ8_DECK_SECONDARY
10
59520.0
20
1075.0
30
21162.043847
11
62520.0
21
1075.0
31
21371.824283
0
LINE
8
ZJ8_CANTILEVER_EDGE
10
59520.0
20
-2200.0
30
21162.043847
11
62520.0
21
-2200.0
31
21371.824283
0
LINE
8
ZJ8_CANTILEVER_EDGE
10
59520.0
20
2700.0
30
21162.043847
11
62520.0
21
2700.0
31
21371.824283
0
LINE
8
ZJ8_PLATFORM_BRACE
10
59520.0
20
-2875.0
30
21162.043847
11
62520.0
21
2875.0
31
21371.824283
0
LINE
8
ZJ8_LONGITUDINAL_BRACE
10
59520.0
20
-2875.0
30
0.0
11
62520.0
21
-2875.0
31
21371.824283
0
LINE
8
ZJ8_LONGITUDINAL_BRACE
10
59520.0
20
2875.0
30
0.0
11
62520.0
21
2875.0
31
21371.824283
0
LINE
8
ZJ8_DECK_MAIN
10
62520.0
20
-2875.0
30
21371.824283
11
65520.0
21
-2875.0
31
21581.604719
0
LINE
8
ZJ8_DECK_MAIN
10
65520.0
20
-2875.0
30
21581.604719
11
68520.0
21
-2875.0
31
21791.385154
0
LINE
8
ZJ8_DECK_MAIN
10
68520.0
20
-2875.0
30
21791.385154
11
71520.0
21
-2875.0
31
22001.16559
0
LINE
8
ZJ8_DECK_MAIN
10
71520.0
20
-2875.0
30
22001.16559
11
74520.0
21
-2875.0
31
22210.946026
0
LINE
8
ZJ8_DECK_MAIN
10
62520.0
20
2875.0
30
21371.824283
11
65520.0
21
2875.0
31
21581.604719
0
LINE
8
ZJ8_DECK_MAIN
10
65520.0
20
2875.0
30
21581.604719
11
68520.0
21
2875.0
31
21791.385154
0
LINE
8
ZJ8_DECK_MAIN
10
68520.0
20
2875.0
30
21791.385154
11
71520.0
21
2875.0
31
22001.16559
0
LINE
8
ZJ8_DECK_MAIN
10
71520.0
20
2875.0
30
22001.16559
11
74520.0
21
2875.0
31
22210.946026
0
LINE
8
ZJ8_DECK_CROSS
10
65520.0
20
-2200.0
30
21581.604719
11
65520.0
21
2700.0
31
21581.604719
0
LINE
8
ZJ8_DECK_CROSS
10
68520.0
20
-2200.0
30
21791.385154
11
68520.0
21
2700.0
31
21791.385154
0
LINE
8
ZJ8_DECK_CROSS
10
71520.0
20
-2200.0
30
22001.16559
11
71520.0
21
2700.0
31
22001.16559
0
LINE
8
ZJ8_DECK_SECONDARY
10
62520.0
20
-1075.0
30
21371.824283
11
65520.0
21
-1075.0
31
21581.604719
0
LINE
8
ZJ8_DECK_SECONDARY
10
65520.0
20
-1075.0
30
21581.604719
11
68520.0
21
-1075.0
31
21791.385154
0
LINE
8
ZJ8_DECK_SECONDARY
10
68520.0
20
-1075.0
30
21791.385154
11
71520.0
21
-1075.0
31
22001.16559
0
LINE
8
ZJ8_DECK_SECONDARY
10
71520.0
20
-1075.0
30
22001.16559
11
74520.0
21
-1075.0
31
22210.946026
0
LINE
8
ZJ8_DECK_SECONDARY
10
62520.0
20
1075.0
30
21371.824283
11
65520.0
21
1075.0
31
21581.604719
0
LINE
8
ZJ8_DECK_SECONDARY
10
65520.0
20
1075.0
30
21581.604719
11
68520.0
21
1075.0
31
21791.385154
0
LINE
8
ZJ8_DECK_SECONDARY
10
68520.0
20
1075.0
30
21791.385154
11
71520.0
21
1075.0
31
22001.16559
0
LINE
8
ZJ8_DECK_SECONDARY
10
71520.0
20
1075.0
30
22001.16559
11
74520.0
21
1075.0
31
22210.946026
0
LINE
8
ZJ8_CANTILEVER_EDGE
10
62520.0
20
-2200.0
30
21371.824283
11
65520.0
21
-2200.0
31
21581.604719
0
LINE
8
ZJ8_CANTILEVER_EDGE
10
65520.0
20
-2200.0
30
21581.604719
11
68520.0
21
-2200.0
31
21791.385154
0
LINE
8
ZJ8_CANTILEVER_EDGE
10
68520.0
20
-2200.0
30
21791.385154
11
71520.0
21
-2200.0
31
22001.16559
0
LINE
8
ZJ8_CANTILEVER_EDGE
10
71520.0
20
-2200.0
30
22001.16559
11
74520.0
21
-2200.0
31
22210.946026
0
LINE
8
ZJ8_CANTILEVER_EDGE
10
62520.0
20
2700.0
30
21371.824283
11
65520.0
21
2700.0
31
21581.604719
0
LINE
8
ZJ8_CANTILEVER_EDGE
10
65520.0
20
2700.0
30
21581.604719
11
68520.0
21
2700.0
31
21791.385154
0
LINE
8
ZJ8_CANTILEVER_EDGE
10
68520.0
20
2700.0
30
21791.385154
11
71520.0
21
2700.0
31
22001.16559
0
LINE
8
ZJ8_CANTILEVER_EDGE
10
71520.0
20
2700.0
30
22001.16559
11
74520.0
21
2700.0
31
22210.946026
0
LINE
8
ZJ8_PLATFORM_BRACE
10
62520.0
20
-2875.0
30
21371.824283
11
65520.0
21
2875.0
31
21581.604719
0
LINE
8
ZJ8_PLATFORM_BRACE
10
65520.0
20
2875.0
30
21581.604719
11
68520.0
21
-2875.0
31
21791.385154
0
LINE
8
ZJ8_PLATFORM_BRACE
10
68520.0
20
-2875.0
30
21791.385154
11
71520.0
21
2875.0
31
22001.16559
0
LINE
8
ZJ8_PLATFORM_BRACE
10
71520.0
20
2875.0
30
22001.16559
11
74520.0
21
-2875.0
31
22210.946026
0
LINE
8
ZJ8_DECK_MAIN
10
74520.0
20
-2875.0
30
22210.946026
11
77520.0
21
-2875.0
31
22420.726462
0
LINE
8
ZJ8_DECK_MAIN
10
74520.0
20
2875.0
30
22210.946026
11
77520.0
21
2875.0
31
22420.726462
0
LINE
8
ZJ8_DECK_SECONDARY
10
74520.0
20
-1075.0
30
22210.946026
11
77520.0
21
-1075.0
31
22420.726462
0
LINE
8
ZJ8_DECK_SECONDARY
10
74520.0
20
1075.0
30
22210.946026
11
77520.0
21
1075.0
31
22420.726462
0
LINE
8
ZJ8_CANTILEVER_EDGE
10
74520.0
20
-2200.0
30
22210.946026
11
77520.0
21
-2200.0
31
22420.726462
0
LINE
8
ZJ8_CANTILEVER_EDGE
10
74520.0
20
2700.0
30
22210.946026
11
77520.0
21
2700.0
31
22420.726462
0
LINE
8
ZJ8_PLATFORM_BRACE
10
74520.0
20
-2875.0
30
22210.946026
11
77520.0
21
2875.0
31
22420.726462
0
LINE
8
ZJ8_LONGITUDINAL_BRACE
10
74520.0
20
-2875.0
30
0.0
11
77520.0
21
-2875.0
31
22420.726462
0
LINE
8
ZJ8_LONGITUDINAL_BRACE
10
74520.0
20
2875.0
30
0.0
11
77520.0
21
2875.0
31
22420.726462
0
LINE
8
ZJ8_DECK_MAIN
10
77520.0
20
-2875.0
30
22420.726462
11
80520.0
21
-2875.0
31
22630.506898
0
LINE
8
ZJ8_DECK_MAIN
10
80520.0
20
-2875.0
30
22630.506898
11
83520.0
21
-2875.0
31
22840.287334
0
LINE
8
ZJ8_DECK_MAIN
10
83520.0
20
-2875.0
30
22840.287334
11
86520.0
21
-2875.0
31
23050.067769
0
LINE
8
ZJ8_DECK_MAIN
10
86520.0
20
-2875.0
30
23050.067769
11
89520.0
21
-2875.0
31
23259.848205
0
LINE
8
ZJ8_DECK_MAIN
10
89520.0
20
-2875.0
30
23259.848205
11
92520.0
21
-2875.0
31
23469.628641
0
LINE
8
ZJ8_DECK_MAIN
10
92520.0
20
-2875.0
30
23469.628641
11
95520.0
21
-2875.0
31
23679.409077
0
LINE
8
ZJ8_DECK_MAIN
10
95520.0
20
-2875.0
30
23679.409077
11
98520.0
21
-2875.0
31
23889.189513
0
LINE
8
ZJ8_DECK_MAIN
10
98520.0
20
-2875.0
30
23889.189513
11
101520.0
21
-2875.0
31
24098.969949
0
LINE
8
ZJ8_DECK_MAIN
10
101520.0
20
-2875.0
30
24098.969949
11
104520.0
21
-2875.0
31
24308.750384
0
LINE
8
ZJ8_DECK_MAIN
10
104520.0
20
-2875.0
30
24308.750384
11
107520.0
21
-2875.0
31
24518.53082
0
LINE
8
ZJ8_DECK_MAIN
10
107520.0
20
-2875.0
30
24518.53082
11
110520.0
21
-2875.0
31
24728.311256
0
LINE
8
ZJ8_DECK_MAIN
10
110520.0
20
-2875.0
30
24728.311256
11
113520.0
21
-2875.0
31
24938.091692
0
LINE
8
ZJ8_DECK_MAIN
10
113520.0
20
-2875.0
30
24938.091692
11
116520.0
21
-2875.0
31
25147.872128
0
LINE
8
ZJ8_DECK_MAIN
10
77520.0
20
2875.0
30
22420.726462
11
80520.0
21
2875.0
31
22630.506898
0
LINE
8
ZJ8_DECK_MAIN
10
80520.0
20
2875.0
30
22630.506898
11
83520.0
21
2875.0
31
22840.287334
0
LINE
8
ZJ8_DECK_MAIN
10
83520.0
20
2875.0
30
22840.287334
11
86520.0
21
2875.0
31
23050.067769
0
LINE
8
ZJ8_DECK_MAIN
10
86520.0
20
2875.0
30
23050.067769
11
89520.0
21
2875.0
31
23259.848205
0
LINE
8
ZJ8_DECK_MAIN
10
89520.0
20
2875.0
30
23259.848205
11
92520.0
21
2875.0
31
23469.628641
0
LINE
8
ZJ8_DECK_MAIN
10
92520.0
20
2875.0
30
23469.628641
11
95520.0
21
2875.0
31
23679.409077
0
LINE
8
ZJ8_DECK_MAIN
10
95520.0
20
2875.0
30
23679.409077
11
98520.0
21
2875.0
31
23889.189513
0
LINE
8
ZJ8_DECK_MAIN
10
98520.0
20
2875.0
30
23889.189513
11
101520.0
21
2875.0
31
24098.969949
0
LINE
8
ZJ8_DECK_MAIN
10
101520.0
20
2875.0
30
24098.969949
11
104520.0
21
2875.0
31
24308.750384
0
LINE
8
ZJ8_DECK_MAIN
10
104520.0
20
2875.0
30
24308.750384
11
107520.0
21
2875.0
31
24518.53082
0
LINE
8
ZJ8_DECK_MAIN
10
107520.0
20
2875.0
30
24518.53082
11
110520.0
21
2875.0
31
24728.311256
0
LINE
8
ZJ8_DECK_MAIN
10
110520.0
20
2875.0
30
24728.311256
11
113520.0
21
2875.0
31
24938.091692
0
LINE
8
ZJ8_DECK_MAIN
10
113520.0
20
2875.0
30
24938.091692
11
116520.0
21
2875.0
31
25147.872128
0
LINE
8
ZJ8_DECK_CROSS
10
80520.0
20
-2200.0
30
22630.506898
11
80520.0
21
2700.0
31
22630.506898
0
LINE
8
ZJ8_DECK_CROSS
10
83520.0
20
-2200.0
30
22840.287334
11
83520.0
21
2700.0
31
22840.287334
0
LINE
8
ZJ8_DECK_CROSS
10
86520.0
20
-2200.0
30
23050.067769
11
86520.0
21
2700.0
31
23050.067769
0
LINE
8
ZJ8_DECK_CROSS
10
89520.0
20
-2200.0
30
23259.848205
11
89520.0
21
2700.0
31
23259.848205
0
LINE
8
ZJ8_DECK_CROSS
10
92520.0
20
-2200.0
30
23469.628641
11
92520.0
21
2700.0
31
23469.628641
0
LINE
8
ZJ8_DECK_CROSS
10
95520.0
20
-2200.0
30
23679.409077
11
95520.0
21
2700.0
31
23679.409077
0
LINE
8
ZJ8_DECK_CROSS
10
98520.0
20
-2200.0
30
23889.189513
11
98520.0
21
2700.0
31
23889.189513
0
LINE
8
ZJ8_DECK_CROSS
10
101520.0
20
-2200.0
30
24098.969949
11
101520.0
21
2700.0
31
24098.969949
0
LINE
8
ZJ8_DECK_CROSS
10
104520.0
20
-2200.0
30
24308.750384
11
104520.0
21
2700.0
31
24308.750384
0
LINE
8
ZJ8_DECK_CROSS
10
107520.0
20
-2200.0
30
24518.53082
11
107520.0
21
2700.0
31
24518.53082
0
LINE
8
ZJ8_DECK_CROSS
10
110520.0
20
-2200.0
30
24728.311256
11
110520.0
21
2700.0
31
24728.311256
0
LINE
8
ZJ8_DECK_CROSS
10
113520.0
20
-2200.0
30
24938.091692
11
113520.0
21
2700.0
31
24938.091692
0
LINE
8
ZJ8_DECK_SECONDARY
10
77520.0
20
-1075.0
30
22420.726462
11
80520.0
21
-1075.0
31
22630.506898
0
LINE
8
ZJ8_DECK_SECONDARY
10
80520.0
20
-1075.0
30
22630.506898
11
83520.0
21
-1075.0
31
22840.287334
0
LINE
8
ZJ8_DECK_SECONDARY
10
83520.0
20
-1075.0
30
22840.287334
11
86520.0
21
-1075.0
31
23050.067769
0
LINE
8
ZJ8_DECK_SECONDARY
10
86520.0
20
-1075.0
30
23050.067769
11
89520.0
21
-1075.0
31
23259.848205
0
LINE
8
ZJ8_DECK_SECONDARY
10
89520.0
20
-1075.0
30
23259.848205
11
92520.0
21
-1075.0
31
23469.628641
0
LINE
8
ZJ8_DECK_SECONDARY
10
92520.0
20
-1075.0
30
23469.628641
11
95520.0
21
-1075.0
31
23679.409077
0
LINE
8
ZJ8_DECK_SECONDARY
10
95520.0
20
-1075.0
30
23679.409077
11
98520.0
21
-1075.0
31
23889.189513
0
LINE
8
ZJ8_DECK_SECONDARY
10
98520.0
20
-1075.0
30
23889.189513
11
101520.0
21
-1075.0
31
24098.969949
0
LINE
8
ZJ8_DECK_SECONDARY
10
101520.0
20
-1075.0
30
24098.969949
11
104520.0
21
-1075.0
31
24308.750384
0
LINE
8
ZJ8_DECK_SECONDARY
10
104520.0
20
-1075.0
30
24308.750384
11
107520.0
21
-1075.0
31
24518.53082
0
LINE
8
ZJ8_DECK_SECONDARY
10
107520.0
20
-1075.0
30
24518.53082
11
110520.0
21
-1075.0
31
24728.311256
0
LINE
8
ZJ8_DECK_SECONDARY
10
110520.0
20
-1075.0
30
24728.311256
11
113520.0
21
-1075.0
31
24938.091692
0
LINE
8
ZJ8_DECK_SECONDARY
10
113520.0
20
-1075.0
30
24938.091692
11
116520.0
21
-1075.0
31
25147.872128
0
LINE
8
ZJ8_DECK_SECONDARY
10
77520.0
20
1075.0
30
22420.726462
11
80520.0
21
1075.0
31
22630.506898
0
LINE
8
ZJ8_DECK_SECONDARY
10
80520.0
20
1075.0
30
22630.506898
11
83520.0
21
1075.0
31
22840.287334
0
LINE
8
ZJ8_DECK_SECONDARY
10
83520.0
20
1075.0
30
22840.287334
11
86520.0
21
1075.0
31
23050.067769
0
LINE
8
ZJ8_DECK_SECONDARY
10
86520.0
20
1075.0
30
23050.067769
11
89520.0
21
1075.0
31
23259.848205
0
LINE
8
ZJ8_DECK_SECONDARY
10
89520.0
20
1075.0
30
23259.848205
11
92520.0
21
1075.0
31
23469.628641
0
LINE
8
ZJ8_DECK_SECONDARY
10
92520.0
20
1075.0
30
23469.628641
11
95520.0
21
1075.0
31
23679.409077
0
LINE
8
ZJ8_DECK_SECONDARY
10
95520.0
20
1075.0
30
23679.409077
11
98520.0
21
1075.0
31
23889.189513
0
LINE
8
ZJ8_DECK_SECONDARY
10
98520.0
20
1075.0
30
23889.189513
11
101520.0
21
1075.0
31
24098.969949
0
LINE
8
ZJ8_DECK_SECONDARY
10
101520.0
20
1075.0
30
24098.969949
11
104520.0
21
1075.0
31
24308.750384
0
LINE
8
ZJ8_DECK_SECONDARY
10
104520.0
20
1075.0
30
24308.750384
11
107520.0
21
1075.0
31
24518.53082
0
LINE
8
ZJ8_DECK_SECONDARY
10
107520.0
20
1075.0
30
24518.53082
11
110520.0
21
1075.0
31
24728.311256
0
LINE
8
ZJ8_DECK_SECONDARY
10
110520.0
20
1075.0
30
24728.311256
11
113520.0
21
1075.0
31
24938.091692
0
LINE
8
ZJ8_DECK_SECONDARY
10
113520.0
20
1075.0
30
24938.091692
11
116520.0
21
1075.0
31
25147.872128
0
LINE
8
ZJ8_CANTILEVER_EDGE
10
77520.0
20
-2200.0
30
22420.726462
11
80520.0
21
-2200.0
31
22630.506898
0
LINE
8
ZJ8_CANTILEVER_EDGE
10
80520.0
20
-2200.0
30
22630.506898
11
83520.0
21
-2200.0
31
22840.287334
0
LINE
8
ZJ8_CANTILEVER_EDGE
10
83520.0
20
-2200.0
30
22840.287334
11
86520.0
21
-2200.0
31
23050.067769
0
LINE
8
ZJ8_CANTILEVER_EDGE
10
86520.0
20
-2200.0
30
23050.067769
11
89520.0
21
-2200.0
31
23259.848205
0
LINE
8
ZJ8_CANTILEVER_EDGE
10
89520.0
20
-2200.0
30
23259.848205
11
92520.0
21
-2200.0
31
23469.628641
0
LINE
8
ZJ8_CANTILEVER_EDGE
10
92520.0
20
-2200.0
30
23469.628641
11
95520.0
21
-2200.0
31
23679.409077
0
LINE
8
ZJ8_CANTILEVER_EDGE
10
95520.0
20
-2200.0
30
23679.409077
11
98520.0
21
-2200.0
31
23889.189513
0
LINE
8
ZJ8_CANTILEVER_EDGE
10
98520.0
20
-2200.0
30
23889.189513
11
101520.0
21
-2200.0
31
24098.969949
0
LINE
8
ZJ8_CANTILEVER_EDGE
10
101520.0
20
-2200.0
30
24098.969949
11
104520.0
21
-2200.0
31
24308.750384
0
LINE
8
ZJ8_CANTILEVER_EDGE
10
104520.0
20
-2200.0
30
24308.750384
11
107520.0
21
-2200.0
31
24518.53082
0
LINE
8
ZJ8_CANTILEVER_EDGE
10
107520.0
20
-2200.0
30
24518.53082
11
110520.0
21
-2200.0
31
24728.311256
0
LINE
8
ZJ8_CANTILEVER_EDGE
10
110520.0
20
-2200.0
30
24728.311256
11
113520.0
21
-2200.0
31
24938.091692
0
LINE
8
ZJ8_CANTILEVER_EDGE
10
113520.0
20
-2200.0
30
24938.091692
11
116520.0
21
-2200.0
31
25147.872128
0
LINE
8
ZJ8_CANTILEVER_EDGE
10
77520.0
20
2700.0
30
22420.726462
11
80520.0
21
2700.0
31
22630.506898
0
LINE
8
ZJ8_CANTILEVER_EDGE
10
80520.0
20
2700.0
30
22630.506898
11
83520.0
21
2700.0
31
22840.287334
0
LINE
8
ZJ8_CANTILEVER_EDGE
10
83520.0
20
2700.0
30
22840.287334
11
86520.0
21
2700.0
31
23050.067769
0
LINE
8
ZJ8_CANTILEVER_EDGE
10
86520.0
20
2700.0
30
23050.067769
11
89520.0
21
2700.0
31
23259.848205
0
LINE
8
ZJ8_CANTILEVER_EDGE
10
89520.0
20
2700.0
30
23259.848205
11
92520.0
21
2700.0
31
23469.628641
0
LINE
8
ZJ8_CANTILEVER_EDGE
10
92520.0
20
2700.0
30
23469.628641
11
95520.0
21
2700.0
31
23679.409077
0
LINE
8
ZJ8_CANTILEVER_EDGE
10
95520.0
20
2700.0
30
23679.409077
11
98520.0
21
2700.0
31
23889.189513
0
LINE
8
ZJ8_CANTILEVER_EDGE
10
98520.0
20
2700.0
30
23889.189513
11
101520.0
21
2700.0
31
24098.969949
0
LINE
8
ZJ8_CANTILEVER_EDGE
10
101520.0
20
2700.0
30
24098.969949
11
104520.0
21
2700.0
31
24308.750384
0
LINE
8
ZJ8_CANTILEVER_EDGE
10
104520.0
20
2700.0
30
24308.750384
11
107520.0
21
2700.0
31
24518.53082
0
LINE
8
ZJ8_CANTILEVER_EDGE
10
107520.0
20
2700.0
30
24518.53082
11
110520.0
21
2700.0
31
24728.311256
0
LINE
8
ZJ8_CANTILEVER_EDGE
10
110520.0
20
2700.0
30
24728.311256
11
113520.0
21
2700.0
31
24938.091692
0
LINE
8
ZJ8_CANTILEVER_EDGE
10
113520.0
20
2700.0
30
24938.091692
11
116520.0
21
2700.0
31
25147.872128
0
LINE
8
ZJ8_PLATFORM_BRACE
10
77520.0
20
-2875.0
30
22420.726462
11
80520.0
21
2875.0
31
22630.506898
0
LINE
8
ZJ8_PLATFORM_BRACE
10
80520.0
20
2875.0
30
22630.506898
11
83520.0
21
-2875.0
31
22840.287334
0
LINE
8
ZJ8_PLATFORM_BRACE
10
83520.0
20
-2875.0
30
22840.287334
11
86520.0
21
2875.0
31
23050.067769
0
LINE
8
ZJ8_PLATFORM_BRACE
10
86520.0
20
2875.0
30
23050.067769
11
89520.0
21
-2875.0
31
23259.848205
0
LINE
8
ZJ8_PLATFORM_BRACE
10
89520.0
20
-2875.0
30
23259.848205
11
92520.0
21
2875.0
31
23469.628641
0
LINE
8
ZJ8_PLATFORM_BRACE
10
92520.0
20
2875.0
30
23469.628641
11
95520.0
21
-2875.0
31
23679.409077
0
LINE
8
ZJ8_PLATFORM_BRACE
10
95520.0
20
-2875.0
30
23679.409077
11
98520.0
21
2875.0
31
23889.189513
0
LINE
8
ZJ8_PLATFORM_BRACE
10
98520.0
20
2875.0
30
23889.189513
11
101520.0
21
-2875.0
31
24098.969949
0
LINE
8
ZJ8_PLATFORM_BRACE
10
101520.0
20
-2875.0
30
24098.969949
11
104520.0
21
2875.0
31
24308.750384
0
LINE
8
ZJ8_PLATFORM_BRACE
10
104520.0
20
2875.0
30
24308.750384
11
107520.0
21
-2875.0
31
24518.53082
0
LINE
8
ZJ8_PLATFORM_BRACE
10
107520.0
20
-2875.0
30
24518.53082
11
110520.0
21
2875.0
31
24728.311256
0
LINE
8
ZJ8_PLATFORM_BRACE
10
110520.0
20
2875.0
30
24728.311256
11
113520.0
21
-2875.0
31
24938.091692
0
LINE
8
ZJ8_PLATFORM_BRACE
10
113520.0
20
-2875.0
30
24938.091692
11
116520.0
21
2875.0
31
25147.872128
0
LINE
8
ZJ8_TRUSS_UPPER
10
77520.0
20
-2875.0
30
22420.726462
11
79470.0
21
-2875.0
31
22557.083745
0
LINE
8
ZJ8_TRUSS_UPPER
10
79470.0
20
-2875.0
30
22557.083745
11
81420.0
21
-2875.0
31
22693.441028
0
LINE
8
ZJ8_TRUSS_UPPER
10
81420.0
20
-2875.0
30
22693.441028
11
83370.0
21
-2875.0
31
22829.798312
0
LINE
8
ZJ8_TRUSS_UPPER
10
83370.0
20
-2875.0
30
22829.798312
11
85320.0
21
-2875.0
31
22966.155595
0
LINE
8
ZJ8_TRUSS_UPPER
10
85320.0
20
-2875.0
30
22966.155595
11
87270.0
21
-2875.0
31
23102.512878
0
LINE
8
ZJ8_TRUSS_UPPER
10
87270.0
20
-2875.0
30
23102.512878
11
89220.0
21
-2875.0
31
23238.870162
0
LINE
8
ZJ8_TRUSS_UPPER
10
89220.0
20
-2875.0
30
23238.870162
11
91170.0
21
-2875.0
31
23375.227445
0
LINE
8
ZJ8_TRUSS_UPPER
10
91170.0
20
-2875.0
30
23375.227445
11
93120.0
21
-2875.0
31
23511.584728
0
LINE
8
ZJ8_TRUSS_UPPER
10
93120.0
20
-2875.0
30
23511.584728
11
95070.0
21
-2875.0
31
23647.942011
0
LINE
8
ZJ8_TRUSS_UPPER
10
95070.0
20
-2875.0
30
23647.942011
11
97020.0
21
-2875.0
31
23784.299295
0
LINE
8
ZJ8_TRUSS_UPPER
10
97020.0
20
-2875.0
30
23784.299295
11
98970.0
21
-2875.0
31
23920.656578
0
LINE
8
ZJ8_TRUSS_UPPER
10
98970.0
20
-2875.0
30
23920.656578
11
100920.0
21
-2875.0
31
24057.013861
0
LINE
8
ZJ8_TRUSS_UPPER
10
100920.0
20
-2875.0
30
24057.013861
11
102870.0
21
-2875.0
31
24193.371145
0
LINE
8
ZJ8_TRUSS_UPPER
10
102870.0
20
-2875.0
30
24193.371145
11
104820.0
21
-2875.0
31
24329.728428
0
LINE
8
ZJ8_TRUSS_UPPER
10
104820.0
20
-2875.0
30
24329.728428
11
106770.0
21
-2875.0
31
24466.085711
0
LINE
8
ZJ8_TRUSS_UPPER
10
106770.0
20
-2875.0
30
24466.085711
11
108720.0
21
-2875.0
31
24602.442994
0
LINE
8
ZJ8_TRUSS_UPPER
10
108720.0
20
-2875.0
30
24602.442994
11
110670.0
21
-2875.0
31
24738.800278
0
LINE
8
ZJ8_TRUSS_UPPER
10
110670.0
20
-2875.0
30
24738.800278
11
112620.0
21
-2875.0
31
24875.157561
0
LINE
8
ZJ8_TRUSS_UPPER
10
112620.0
20
-2875.0
30
24875.157561
11
114570.0
21
-2875.0
31
25011.514844
0
LINE
8
ZJ8_TRUSS_UPPER
10
114570.0
20
-2875.0
30
25011.514844
11
116520.0
21
-2875.0
31
25147.872128
0
LINE
8
ZJ8_TRUSS_LOWER
10
77520.0
20
-2875.0
30
20620.726462
11
79470.0
21
-2875.0
31
20757.083745
0
LINE
8
ZJ8_TRUSS_LOWER
10
79470.0
20
-2875.0
30
20757.083745
11
81420.0
21
-2875.0
31
20893.441028
0
LINE
8
ZJ8_TRUSS_LOWER
10
81420.0
20
-2875.0
30
20893.441028
11
83370.0
21
-2875.0
31
21029.798312
0
LINE
8
ZJ8_TRUSS_LOWER
10
83370.0
20
-2875.0
30
21029.798312
11
85320.0
21
-2875.0
31
21166.155595
0
LINE
8
ZJ8_TRUSS_LOWER
10
85320.0
20
-2875.0
30
21166.155595
11
87270.0
21
-2875.0
31
21302.512878
0
LINE
8
ZJ8_TRUSS_LOWER
10
87270.0
20
-2875.0
30
21302.512878
11
89220.0
21
-2875.0
31
21438.870162
0
LINE
8
ZJ8_TRUSS_LOWER
10
89220.0
20
-2875.0
30
21438.870162
11
91170.0
21
-2875.0
31
21575.227445
0
LINE
8
ZJ8_TRUSS_LOWER
10
91170.0
20
-2875.0
30
21575.227445
11
93120.0
21
-2875.0
31
21711.584728
0
LINE
8
ZJ8_TRUSS_LOWER
10
93120.0
20
-2875.0
30
21711.584728
11
95070.0
21
-2875.0
31
21847.942011
0
LINE
8
ZJ8_TRUSS_LOWER
10
95070.0
20
-2875.0
30
21847.942011
11
97020.0
21
-2875.0
31
21984.299295
0
LINE
8
ZJ8_TRUSS_LOWER
10
97020.0
20
-2875.0
30
21984.299295
11
98970.0
21
-2875.0
31
22120.656578
0
LINE
8
ZJ8_TRUSS_LOWER
10
98970.0
20
-2875.0
30
22120.656578
11
100920.0
21
-2875.0
31
22257.013861
0
LINE
8
ZJ8_TRUSS_LOWER
10
100920.0
20
-2875.0
30
22257.013861
11
102870.0
21
-2875.0
31
22393.371145
0
LINE
8
ZJ8_TRUSS_LOWER
10
102870.0
20
-2875.0
30
22393.371145
11
104820.0
21
-2875.0
31
22529.728428
0
LINE
8
ZJ8_TRUSS_LOWER
10
104820.0
20
-2875.0
30
22529.728428
11
106770.0
21
-2875.0
31
22666.085711
0
LINE
8
ZJ8_TRUSS_LOWER
10
106770.0
20
-2875.0
30
22666.085711
11
108720.0
21
-2875.0
31
22802.442994
0
LINE
8
ZJ8_TRUSS_LOWER
10
108720.0
20
-2875.0
30
22802.442994
11
110670.0
21
-2875.0
31
22938.800278
0
LINE
8
ZJ8_TRUSS_LOWER
10
110670.0
20
-2875.0
30
22938.800278
11
112620.0
21
-2875.0
31
23075.157561
0
LINE
8
ZJ8_TRUSS_LOWER
10
112620.0
20
-2875.0
30
23075.157561
11
114570.0
21
-2875.0
31
23211.514844
0
LINE
8
ZJ8_TRUSS_LOWER
10
114570.0
20
-2875.0
30
23211.514844
11
116520.0
21
-2875.0
31
23347.872128
0
LINE
8
ZJ8_TRUSS_VERTICAL
10
77520.0
20
-2875.0
30
22420.726462
11
77520.0
21
-2875.0
31
20620.726462
0
LINE
8
ZJ8_TRUSS_VERTICAL
10
79470.0
20
-2875.0
30
22557.083745
11
79470.0
21
-2875.0
31
20757.083745
0
LINE
8
ZJ8_TRUSS_VERTICAL
10
81420.0
20
-2875.0
30
22693.441028
11
81420.0
21
-2875.0
31
20893.441028
0
LINE
8
ZJ8_TRUSS_VERTICAL
10
83370.0
20
-2875.0
30
22829.798312
11
83370.0
21
-2875.0
31
21029.798312
0
LINE
8
ZJ8_TRUSS_VERTICAL
10
85320.0
20
-2875.0
30
22966.155595
11
85320.0
21
-2875.0
31
21166.155595
0
LINE
8
ZJ8_TRUSS_VERTICAL
10
87270.0
20
-2875.0
30
23102.512878
11
87270.0
21
-2875.0
31
21302.512878
0
LINE
8
ZJ8_TRUSS_VERTICAL
10
89220.0
20
-2875.0
30
23238.870162
11
89220.0
21
-2875.0
31
21438.870162
0
LINE
8
ZJ8_TRUSS_VERTICAL
10
91170.0
20
-2875.0
30
23375.227445
11
91170.0
21
-2875.0
31
21575.227445
0
LINE
8
ZJ8_TRUSS_VERTICAL
10
93120.0
20
-2875.0
30
23511.584728
11
93120.0
21
-2875.0
31
21711.584728
0
LINE
8
ZJ8_TRUSS_VERTICAL
10
95070.0
20
-2875.0
30
23647.942011
11
95070.0
21
-2875.0
31
21847.942011
0
LINE
8
ZJ8_TRUSS_VERTICAL
10
97020.0
20
-2875.0
30
23784.299295
11
97020.0
21
-2875.0
31
21984.299295
0
LINE
8
ZJ8_TRUSS_VERTICAL
10
98970.0
20
-2875.0
30
23920.656578
11
98970.0
21
-2875.0
31
22120.656578
0
LINE
8
ZJ8_TRUSS_VERTICAL
10
100920.0
20
-2875.0
30
24057.013861
11
100920.0
21
-2875.0
31
22257.013861
0
LINE
8
ZJ8_TRUSS_VERTICAL
10
102870.0
20
-2875.0
30
24193.371145
11
102870.0
21
-2875.0
31
22393.371145
0
LINE
8
ZJ8_TRUSS_VERTICAL
10
104820.0
20
-2875.0
30
24329.728428
11
104820.0
21
-2875.0
31
22529.728428
0
LINE
8
ZJ8_TRUSS_VERTICAL
10
106770.0
20
-2875.0
30
24466.085711
11
106770.0
21
-2875.0
31
22666.085711
0
LINE
8
ZJ8_TRUSS_VERTICAL
10
108720.0
20
-2875.0
30
24602.442994
11
108720.0
21
-2875.0
31
22802.442994
0
LINE
8
ZJ8_TRUSS_VERTICAL
10
110670.0
20
-2875.0
30
24738.800278
11
110670.0
21
-2875.0
31
22938.800278
0
LINE
8
ZJ8_TRUSS_VERTICAL
10
112620.0
20
-2875.0
30
24875.157561
11
112620.0
21
-2875.0
31
23075.157561
0
LINE
8
ZJ8_TRUSS_VERTICAL
10
114570.0
20
-2875.0
30
25011.514844
11
114570.0
21
-2875.0
31
23211.514844
0
LINE
8
ZJ8_TRUSS_VERTICAL
10
116520.0
20
-2875.0
30
25147.872128
11
116520.0
21
-2875.0
31
23347.872128
0
LINE
8
ZJ8_TRUSS_DIAGONAL
10
77520.0
20
-2875.0
30
20620.726462
11
79470.0
21
-2875.0
31
22557.083745
0
LINE
8
ZJ8_TRUSS_DIAGONAL
10
79470.0
20
-2875.0
30
22557.083745
11
81420.0
21
-2875.0
31
20893.441028
0
LINE
8
ZJ8_TRUSS_DIAGONAL
10
81420.0
20
-2875.0
30
20893.441028
11
83370.0
21
-2875.0
31
22829.798312
0
LINE
8
ZJ8_TRUSS_DIAGONAL
10
83370.0
20
-2875.0
30
22829.798312
11
85320.0
21
-2875.0
31
21166.155595
0
LINE
8
ZJ8_TRUSS_DIAGONAL
10
85320.0
20
-2875.0
30
21166.155595
11
87270.0
21
-2875.0
31
23102.512878
0
LINE
8
ZJ8_TRUSS_DIAGONAL
10
87270.0
20
-2875.0
30
23102.512878
11
89220.0
21
-2875.0
31
21438.870162
0
LINE
8
ZJ8_TRUSS_DIAGONAL
10
89220.0
20
-2875.0
30
21438.870162
11
91170.0
21
-2875.0
31
23375.227445
0
LINE
8
ZJ8_TRUSS_DIAGONAL
10
91170.0
20
-2875.0
30
23375.227445
11
93120.0
21
-2875.0
31
21711.584728
0
LINE
8
ZJ8_TRUSS_DIAGONAL
10
93120.0
20
-2875.0
30
21711.584728
11
95070.0
21
-2875.0
31
23647.942011
0
LINE
8
ZJ8_TRUSS_DIAGONAL
10
95070.0
20
-2875.0
30
23647.942011
11
97020.0
21
-2875.0
31
21984.299295
0
LINE
8
ZJ8_TRUSS_DIAGONAL
10
97020.0
20
-2875.0
30
21984.299295
11
98970.0
21
-2875.0
31
23920.656578
0
LINE
8
ZJ8_TRUSS_DIAGONAL
10
98970.0
20
-2875.0
30
23920.656578
11
100920.0
21
-2875.0
31
22257.013861
0
LINE
8
ZJ8_TRUSS_DIAGONAL
10
100920.0
20
-2875.0
30
22257.013861
11
102870.0
21
-2875.0
31
24193.371145
0
LINE
8
ZJ8_TRUSS_DIAGONAL
10
102870.0
20
-2875.0
30
24193.371145
11
104820.0
21
-2875.0
31
22529.728428
0
LINE
8
ZJ8_TRUSS_DIAGONAL
10
104820.0
20
-2875.0
30
22529.728428
11
106770.0
21
-2875.0
31
24466.085711
0
LINE
8
ZJ8_TRUSS_DIAGONAL
10
106770.0
20
-2875.0
30
24466.085711
11
108720.0
21
-2875.0
31
22802.442994
0
LINE
8
ZJ8_TRUSS_DIAGONAL
10
108720.0
20
-2875.0
30
22802.442994
11
110670.0
21
-2875.0
31
24738.800278
0
LINE
8
ZJ8_TRUSS_DIAGONAL
10
110670.0
20
-2875.0
30
24738.800278
11
112620.0
21
-2875.0
31
23075.157561
0
LINE
8
ZJ8_TRUSS_DIAGONAL
10
112620.0
20
-2875.0
30
23075.157561
11
114570.0
21
-2875.0
31
25011.514844
0
LINE
8
ZJ8_TRUSS_DIAGONAL
10
114570.0
20
-2875.0
30
25011.514844
11
116520.0
21
-2875.0
31
23347.872128
0
LINE
8
ZJ8_TRUSS_UPPER
10
77520.0
20
2875.0
30
22420.726462
11
79470.0
21
2875.0
31
22557.083745
0
LINE
8
ZJ8_TRUSS_UPPER
10
79470.0
20
2875.0
30
22557.083745
11
81420.0
21
2875.0
31
22693.441028
0
LINE
8
ZJ8_TRUSS_UPPER
10
81420.0
20
2875.0
30
22693.441028
11
83370.0
21
2875.0
31
22829.798312
0
LINE
8
ZJ8_TRUSS_UPPER
10
83370.0
20
2875.0
30
22829.798312
11
85320.0
21
2875.0
31
22966.155595
0
LINE
8
ZJ8_TRUSS_UPPER
10
85320.0
20
2875.0
30
22966.155595
11
87270.0
21
2875.0
31
23102.512878
0
LINE
8
ZJ8_TRUSS_UPPER
10
87270.0
20
2875.0
30
23102.512878
11
89220.0
21
2875.0
31
23238.870162
0
LINE
8
ZJ8_TRUSS_UPPER
10
89220.0
20
2875.0
30
23238.870162
11
91170.0
21
2875.0
31
23375.227445
0
LINE
8
ZJ8_TRUSS_UPPER
10
91170.0
20
2875.0
30
23375.227445
11
93120.0
21
2875.0
31
23511.584728
0
LINE
8
ZJ8_TRUSS_UPPER
10
93120.0
20
2875.0
30
23511.584728
11
95070.0
21
2875.0
31
23647.942011
0
LINE
8
ZJ8_TRUSS_UPPER
10
95070.0
20
2875.0
30
23647.942011
11
97020.0
21
2875.0
31
23784.299295
0
LINE
8
ZJ8_TRUSS_UPPER
10
97020.0
20
2875.0
30
23784.299295
11
98970.0
21
2875.0
31
23920.656578
0
LINE
8
ZJ8_TRUSS_UPPER
10
98970.0
20
2875.0
30
23920.656578
11
100920.0
21
2875.0
31
24057.013861
0
LINE
8
ZJ8_TRUSS_UPPER
10
100920.0
20
2875.0
30
24057.013861
11
102870.0
21
2875.0
31
24193.371145
0
LINE
8
ZJ8_TRUSS_UPPER
10
102870.0
20
2875.0
30
24193.371145
11
104820.0
21
2875.0
31
24329.728428
0
LINE
8
ZJ8_TRUSS_UPPER
10
104820.0
20
2875.0
30
24329.728428
11
106770.0
21
2875.0
31
24466.085711
0
LINE
8
ZJ8_TRUSS_UPPER
10
106770.0
20
2875.0
30
24466.085711
11
108720.0
21
2875.0
31
24602.442994
0
LINE
8
ZJ8_TRUSS_UPPER
10
108720.0
20
2875.0
30
24602.442994
11
110670.0
21
2875.0
31
24738.800278
0
LINE
8
ZJ8_TRUSS_UPPER
10
110670.0
20
2875.0
30
24738.800278
11
112620.0
21
2875.0
31
24875.157561
0
LINE
8
ZJ8_TRUSS_UPPER
10
112620.0
20
2875.0
30
24875.157561
11
114570.0
21
2875.0
31
25011.514844
0
LINE
8
ZJ8_TRUSS_UPPER
10
114570.0
20
2875.0
30
25011.514844
11
116520.0
21
2875.0
31
25147.872128
0
LINE
8
ZJ8_TRUSS_LOWER
10
77520.0
20
2875.0
30
20620.726462
11
79470.0
21
2875.0
31
20757.083745
0
LINE
8
ZJ8_TRUSS_LOWER
10
79470.0
20
2875.0
30
20757.083745
11
81420.0
21
2875.0
31
20893.441028
0
LINE
8
ZJ8_TRUSS_LOWER
10
81420.0
20
2875.0
30
20893.441028
11
83370.0
21
2875.0
31
21029.798312
0
LINE
8
ZJ8_TRUSS_LOWER
10
83370.0
20
2875.0
30
21029.798312
11
85320.0
21
2875.0
31
21166.155595
0
LINE
8
ZJ8_TRUSS_LOWER
10
85320.0
20
2875.0
30
21166.155595
11
87270.0
21
2875.0
31
21302.512878
0
LINE
8
ZJ8_TRUSS_LOWER
10
87270.0
20
2875.0
30
21302.512878
11
89220.0
21
2875.0
31
21438.870162
0
LINE
8
ZJ8_TRUSS_LOWER
10
89220.0
20
2875.0
30
21438.870162
11
91170.0
21
2875.0
31
21575.227445
0
LINE
8
ZJ8_TRUSS_LOWER
10
91170.0
20
2875.0
30
21575.227445
11
93120.0
21
2875.0
31
21711.584728
0
LINE
8
ZJ8_TRUSS_LOWER
10
93120.0
20
2875.0
30
21711.584728
11
95070.0
21
2875.0
31
21847.942011
0
LINE
8
ZJ8_TRUSS_LOWER
10
95070.0
20
2875.0
30
21847.942011
11
97020.0
21
2875.0
31
21984.299295
0
LINE
8
ZJ8_TRUSS_LOWER
10
97020.0
20
2875.0
30
21984.299295
11
98970.0
21
2875.0
31
22120.656578
0
LINE
8
ZJ8_TRUSS_LOWER
10
98970.0
20
2875.0
30
22120.656578
11
100920.0
21
2875.0
31
22257.013861
0
LINE
8
ZJ8_TRUSS_LOWER
10
100920.0
20
2875.0
30
22257.013861
11
102870.0
21
2875.0
31
22393.371145
0
LINE
8
ZJ8_TRUSS_LOWER
10
102870.0
20
2875.0
30
22393.371145
11
104820.0
21
2875.0
31
22529.728428
0
LINE
8
ZJ8_TRUSS_LOWER
10
104820.0
20
2875.0
30
22529.728428
11
106770.0
21
2875.0
31
22666.085711
0
LINE
8
ZJ8_TRUSS_LOWER
10
106770.0
20
2875.0
30
22666.085711
11
108720.0
21
2875.0
31
22802.442994
0
LINE
8
ZJ8_TRUSS_LOWER
10
108720.0
20
2875.0
30
22802.442994
11
110670.0
21
2875.0
31
22938.800278
0
LINE
8
ZJ8_TRUSS_LOWER
10
110670.0
20
2875.0
30
22938.800278
11
112620.0
21
2875.0
31
23075.157561
0
LINE
8
ZJ8_TRUSS_LOWER
10
112620.0
20
2875.0
30
23075.157561
11
114570.0
21
2875.0
31
23211.514844
0
LINE
8
ZJ8_TRUSS_LOWER
10
114570.0
20
2875.0
30
23211.514844
11
116520.0
21
2875.0
31
23347.872128
0
LINE
8
ZJ8_TRUSS_VERTICAL
10
77520.0
20
2875.0
30
22420.726462
11
77520.0
21
2875.0
31
20620.726462
0
LINE
8
ZJ8_TRUSS_VERTICAL
10
79470.0
20
2875.0
30
22557.083745
11
79470.0
21
2875.0
31
20757.083745
0
LINE
8
ZJ8_TRUSS_VERTICAL
10
81420.0
20
2875.0
30
22693.441028
11
81420.0
21
2875.0
31
20893.441028
0
LINE
8
ZJ8_TRUSS_VERTICAL
10
83370.0
20
2875.0
30
22829.798312
11
83370.0
21
2875.0
31
21029.798312
0
LINE
8
ZJ8_TRUSS_VERTICAL
10
85320.0
20
2875.0
30
22966.155595
11
85320.0
21
2875.0
31
21166.155595
0
LINE
8
ZJ8_TRUSS_VERTICAL
10
87270.0
20
2875.0
30
23102.512878
11
87270.0
21
2875.0
31
21302.512878
0
LINE
8
ZJ8_TRUSS_VERTICAL
10
89220.0
20
2875.0
30
23238.870162
11
89220.0
21
2875.0
31
21438.870162
0
LINE
8
ZJ8_TRUSS_VERTICAL
10
91170.0
20
2875.0
30
23375.227445
11
91170.0
21
2875.0
31
21575.227445
0
LINE
8
ZJ8_TRUSS_VERTICAL
10
93120.0
20
2875.0
30
23511.584728
11
93120.0
21
2875.0
31
21711.584728
0
LINE
8
ZJ8_TRUSS_VERTICAL
10
95070.0
20
2875.0
30
23647.942011
11
95070.0
21
2875.0
31
21847.942011
0
LINE
8
ZJ8_TRUSS_VERTICAL
10
97020.0
20
2875.0
30
23784.299295
11
97020.0
21
2875.0
31
21984.299295
0
LINE
8
ZJ8_TRUSS_VERTICAL
10
98970.0
20
2875.0
30
23920.656578
11
98970.0
21
2875.0
31
22120.656578
0
LINE
8
ZJ8_TRUSS_VERTICAL
10
100920.0
20
2875.0
30
24057.013861
11
100920.0
21
2875.0
31
22257.013861
0
LINE
8
ZJ8_TRUSS_VERTICAL
10
102870.0
20
2875.0
30
24193.371145
11
102870.0
21
2875.0
31
22393.371145
0
LINE
8
ZJ8_TRUSS_VERTICAL
10
104820.0
20
2875.0
30
24329.728428
11
104820.0
21
2875.0
31
22529.728428
0
LINE
8
ZJ8_TRUSS_VERTICAL
10
106770.0
20
2875.0
30
24466.085711
11
106770.0
21
2875.0
31
22666.085711
0
LINE
8
ZJ8_TRUSS_VERTICAL
10
108720.0
20
2875.0
30
24602.442994
11
108720.0
21
2875.0
31
22802.442994
0
LINE
8
ZJ8_TRUSS_VERTICAL
10
110670.0
20
2875.0
30
24738.800278
11
110670.0
21
2875.0
31
22938.800278
0
LINE
8
ZJ8_TRUSS_VERTICAL
10
112620.0
20
2875.0
30
24875.157561
11
112620.0
21
2875.0
31
23075.157561
0
LINE
8
ZJ8_TRUSS_VERTICAL
10
114570.0
20
2875.0
30
25011.514844
11
114570.0
21
2875.0
31
23211.514844
0
LINE
8
ZJ8_TRUSS_VERTICAL
10
116520.0
20
2875.0
30
25147.872128
11
116520.0
21
2875.0
31
23347.872128
0
LINE
8
ZJ8_TRUSS_DIAGONAL
10
77520.0
20
2875.0
30
20620.726462
11
79470.0
21
2875.0
31
22557.083745
0
LINE
8
ZJ8_TRUSS_DIAGONAL
10
79470.0
20
2875.0
30
22557.083745
11
81420.0
21
2875.0
31
20893.441028
0
LINE
8
ZJ8_TRUSS_DIAGONAL
10
81420.0
20
2875.0
30
20893.441028
11
83370.0
21
2875.0
31
22829.798312
0
LINE
8
ZJ8_TRUSS_DIAGONAL
10
83370.0
20
2875.0
30
22829.798312
11
85320.0
21
2875.0
31
21166.155595
0
LINE
8
ZJ8_TRUSS_DIAGONAL
10
85320.0
20
2875.0
30
21166.155595
11
87270.0
21
2875.0
31
23102.512878
0
LINE
8
ZJ8_TRUSS_DIAGONAL
10
87270.0
20
2875.0
30
23102.512878
11
89220.0
21
2875.0
31
21438.870162
0
LINE
8
ZJ8_TRUSS_DIAGONAL
10
89220.0
20
2875.0
30
21438.870162
11
91170.0
21
2875.0
31
23375.227445
0
LINE
8
ZJ8_TRUSS_DIAGONAL
10
91170.0
20
2875.0
30
23375.227445
11
93120.0
21
2875.0
31
21711.584728
0
LINE
8
ZJ8_TRUSS_DIAGONAL
10
93120.0
20
2875.0
30
21711.584728
11
95070.0
21
2875.0
31
23647.942011
0
LINE
8
ZJ8_TRUSS_DIAGONAL
10
95070.0
20
2875.0
30
23647.942011
11
97020.0
21
2875.0
31
21984.299295
0
LINE
8
ZJ8_TRUSS_DIAGONAL
10
97020.0
20
2875.0
30
21984.299295
11
98970.0
21
2875.0
31
23920.656578
0
LINE
8
ZJ8_TRUSS_DIAGONAL
10
98970.0
20
2875.0
30
23920.656578
11
100920.0
21
2875.0
31
22257.013861
0
LINE
8
ZJ8_TRUSS_DIAGONAL
10
100920.0
20
2875.0
30
22257.013861
11
102870.0
21
2875.0
31
24193.371145
0
LINE
8
ZJ8_TRUSS_DIAGONAL
10
102870.0
20
2875.0
30
24193.371145
11
104820.0
21
2875.0
31
22529.728428
0
LINE
8
ZJ8_TRUSS_DIAGONAL
10
104820.0
20
2875.0
30
22529.728428
11
106770.0
21
2875.0
31
24466.085711
0
LINE
8
ZJ8_TRUSS_DIAGONAL
10
106770.0
20
2875.0
30
24466.085711
11
108720.0
21
2875.0
31
22802.442994
0
LINE
8
ZJ8_TRUSS_DIAGONAL
10
108720.0
20
2875.0
30
22802.442994
11
110670.0
21
2875.0
31
24738.800278
0
LINE
8
ZJ8_TRUSS_DIAGONAL
10
110670.0
20
2875.0
30
24738.800278
11
112620.0
21
2875.0
31
23075.157561
0
LINE
8
ZJ8_TRUSS_DIAGONAL
10
112620.0
20
2875.0
30
23075.157561
11
114570.0
21
2875.0
31
25011.514844
0
LINE
8
ZJ8_TRUSS_DIAGONAL
10
114570.0
20
2875.0
30
25011.514844
11
116520.0
21
2875.0
31
23347.872128
0
LINE
8
ZJ8_DECK_MAIN
10
116520.0
20
-2875.0
30
25147.872128
11
119520.0
21
-2875.0
31
25357.652563
0
LINE
8
ZJ8_DECK_MAIN
10
116520.0
20
2875.0
30
25147.872128
11
119520.0
21
2875.0
31
25357.652563
0
LINE
8
ZJ8_DECK_SECONDARY
10
116520.0
20
-1075.0
30
25147.872128
11
119520.0
21
-1075.0
31
25357.652563
0
LINE
8
ZJ8_DECK_SECONDARY
10
116520.0
20
1075.0
30
25147.872128
11
119520.0
21
1075.0
31
25357.652563
0
LINE
8
ZJ8_CANTILEVER_EDGE
10
116520.0
20
-2200.0
30
25147.872128
11
119520.0
21
-2200.0
31
25357.652563
0
LINE
8
ZJ8_CANTILEVER_EDGE
10
116520.0
20
2700.0
30
25147.872128
11
119520.0
21
2700.0
31
25357.652563
0
LINE
8
ZJ8_PLATFORM_BRACE
10
116520.0
20
-2875.0
30
25147.872128
11
119520.0
21
2875.0
31
25357.652563
0
LINE
8
ZJ8_LONGITUDINAL_BRACE
10
116520.0
20
-2875.0
30
0.0
11
119520.0
21
-2875.0
31
25357.652563
0
LINE
8
ZJ8_LONGITUDINAL_BRACE
10
116520.0
20
2875.0
30
0.0
11
119520.0
21
2875.0
31
25357.652563
0
LINE
8
ZJ8_SPLICE_JOINT
10
39000.0
20
-3675.0
30
0.0
11
39000.0
21
3675.0
31
29357.652563488366
0
TEXT
8
ZJ8_SPLICE_TEXT
10
39250.0
20
3975.0
30
29357.652563488366
40
450.0
1
SPLICE P1/P2
0
LINE
8
ZJ8_SPLICE_JOINT
10
77520.0
20
-3675.0
30
0.0
11
77520.0
21
3675.0
31
29357.652563488366
0
TEXT
8
ZJ8_SPLICE_TEXT
10
77770.0
20
3975.0
30
29357.652563488366
40
450.0
1
SPLICE P2/P3
0
ENDSEC
0
EOF
