0
SECTION
2
HEADER
9
$INSUNITS
70
4
0
ENDSEC
0
SECTION
2
TABLES
0
TABLE
2
LAYER
70
14
0
LAYER
2
ZJ8_DECK_MAIN
70
0
62
4
6
CONTINUOUS
0
LAYER
2
ZJ8_DECK_CROSS
70
0
62
4
6
CONTINUOUS
0
LAYER
2
ZJ8_DECK_SECONDARY
70
0
62
3
6
CONTINUOUS
0
LAYER
2
ZJ8_CANTILEVER_EDGE
70
0
62
3
6
CONTINUOUS
0
LAYER
2
ZJ8_PLATFORM_BRACE
70
0
62
1
6
CONTINUOUS
0
LAYER
2
ZJ8_COLUMN
70
0
62
8
6
CONTINUOUS
0
LAYER
2
ZJ8_TRANSVERSE_BRACE
70
0
62
1
6
CONTINUOUS
0
LAYER
2
ZJ8_LONGITUDINAL_BRACE
70
0
62
1
6
CONTINUOUS
0
LAYER
2
ZJ8_TRUSS_UPPER
70
0
62
5
6
CONTINUOUS
0
LAYER
2
ZJ8_TRUSS_LOWER
70
0
62
5
6
CONTINUOUS
0
LAYER
2
ZJ8_TRUSS_VERTICAL
70
0
62
5
6
CONTINUOUS
0
LAYER
2
ZJ8_TRUSS_DIAGONAL
70
0
62
5
6
CONTINUOUS
0
LAYER
2
ZJ8_SPLICE_JOINT
70
0
62
2
6
CONTINUOUS
0
LAYER
2
ZJ8_SPLICE_TEXT
70
0
62
2
6
CONTINUOUS
0
ENDTAB
0
ENDSEC
0
SECTION
2
ENTITIES
0
LINE
8
ZJ8_SPLICE_JOINT
10
3000.0
20
-3675.0
30
0.0
11
3000.0
21
3675.0
31
21000.0
0
TEXT
8
ZJ8_SPLICE_TEXT
10
3250.0
20
3975.0
30
21000.0
40
450.0
1
SPLICE P1/P2
0
LINE
8
ZJ8_SPLICE_JOINT
10
41520.0
20
-3675.0
30
0.0
11
41520.0
21
3675.0
31
21000.0
0
TEXT
8
ZJ8_SPLICE_TEXT
10
41770.0
20
3975.0
30
21000.0
40
450.0
1
SPLICE P2/P3
0
LINE
8
ZJ8_SPLICE_JOINT
10
83520.0
20
-3675.0
30
0.0
11
83520.0
21
3675.0
31
21000.0
0
TEXT
8
ZJ8_SPLICE_TEXT
10
83770.0
20
3975.0
30
21000.0
40
450.0
1
SPLICE P3/P4
0
ENDSEC
0
EOF
