0
SECTION
2
HEADER
9
$INSUNITS
70
4
0
ENDSEC
0
SECTION
2
TABLES
0
TABLE
2
LAYER
70
14
0
LAYER
2
ZJ8_DECK_MAIN
70
0
62
4
6
CONTINUOUS
0
LAYER
2
ZJ8_DECK_CROSS
70
0
62
4
6
CONTINUOUS
0
LAYER
2
ZJ8_DECK_SECONDARY
70
0
62
3
6
CONTINUOUS
0
LAYER
2
ZJ8_CANTILEVER_EDGE
70
0
62
3
6
CONTINUOUS
0
LAYER
2
ZJ8_PLATFORM_BRACE
70
0
62
1
6
CONTINUOUS
0
LAYER
2
ZJ8_COLUMN
70
0
62
8
6
CONTINUOUS
0
LAYER
2
ZJ8_TRANSVERSE_BRACE
70
0
62
1
6
CONTINUOUS
0
LAYER
2
ZJ8_LONGITUDINAL_BRACE
70
0
62
1
6
CONTINUOUS
0
LAYER
2
ZJ8_TRUSS_UPPER
70
0
62
5
6
CONTINUOUS
0
LAYER
2
ZJ8_TRUSS_LOWER
70
0
62
5
6
CONTINUOUS
0
LAYER
2
ZJ8_TRUSS_VERTICAL
70
0
62
5
6
CONTINUOUS
0
LAYER
2
ZJ8_TRUSS_DIAGONAL
70
0
62
5
6
CONTINUOUS
0
LAYER
2
ZJ8_SPLICE_JOINT
70
0
62
2
6
CONTINUOUS
0
LAYER
2
ZJ8_SPLICE_TEXT
70
0
62
2
6
CONTINUOUS
0
ENDTAB
0
ENDSEC
0
SECTION
2
ENTITIES
0
LINE
8
ZJ8_COLUMN
10
0.0
20
-2875.0
30
0.0
11
0.0
21
-2875.0
31
4250.0
0
LINE
8
ZJ8_COLUMN
10
0.0
20
-2875.0
30
4250.0
11
0.0
21
-2875.0
31
8500.0
0
LINE
8
ZJ8_COLUMN
10
0.0
20
-2875.0
30
8500.0
11
0.0
21
-2875.0
31
12750.0
0
LINE
8
ZJ8_COLUMN
10
0.0
20
-2875.0
30
12750.0
11
0.0
21
-2875.0
31
17000.0
0
LINE
8
ZJ8_COLUMN
10
0.0
20
2875.0
30
0.0
11
0.0
21
2875.0
31
4250.0
0
LINE
8
ZJ8_COLUMN
10
0.0
20
2875.0
30
4250.0
11
0.0
21
2875.0
31
8500.0
0
LINE
8
ZJ8_COLUMN
10
0.0
20
2875.0
30
8500.0
11
0.0
21
2875.0
31
12750.0
0
LINE
8
ZJ8_COLUMN
10
0.0
20
2875.0
30
12750.0
11
0.0
21
2875.0
31
17000.0
0
LINE
8
ZJ8_DECK_CROSS
10
0.0
20
-2200.0
30
17000.0
11
0.0
21
2700.0
31
17000.0
0
LINE
8
ZJ8_TRANSVERSE_BRACE
10
0.0
20
-2875.0
30
0.0
11
0.0
21
2875.0
31
17000.0
0
LINE
8
ZJ8_TRANSVERSE_BRACE
10
0.0
20
2875.0
30
0.0
11
0.0
21
-2875.0
31
17000.0
0
LINE
8
ZJ8_COLUMN
10
12000.0
20
-2875.0
30
0.0
11
12000.0
21
-2875.0
31
4250.0
0
LINE
8
ZJ8_COLUMN
10
12000.0
20
-2875.0
30
4250.0
11
12000.0
21
-2875.0
31
8500.0
0
LINE
8
ZJ8_COLUMN
10
12000.0
20
-2875.0
30
8500.0
11
12000.0
21
-2875.0
31
12750.0
0
LINE
8
ZJ8_COLUMN
10
12000.0
20
-2875.0
30
12750.0
11
12000.0
21
-2875.0
31
17000.0
0
LINE
8
ZJ8_COLUMN
10
12000.0
20
2875.0
30
0.0
11
12000.0
21
2875.0
31
4250.0
0
LINE
8
ZJ8_COLUMN
10
12000.0
20
2875.0
30
4250.0
11
12000.0
21
2875.0
31
8500.0
0
LINE
8
ZJ8_COLUMN
10
12000.0
20
2875.0
30
8500.0
11
12000.0
21
2875.0
31
12750.0
0
LINE
8
ZJ8_COLUMN
10
12000.0
20
2875.0
30
12750.0
11
12000.0
21
2875.0
31
17000.0
0
LINE
8
ZJ8_DECK_CROSS
10
12000.0
20
-2200.0
30
17000.0
11
12000.0
21
2700.0
31
17000.0
0
LINE
8
ZJ8_TRANSVERSE_BRACE
10
12000.0
20
-2875.0
30
0.0
11
12000.0
21
2875.0
31
17000.0
0
LINE
8
ZJ8_TRANSVERSE_BRACE
10
12000.0
20
2875.0
30
0.0
11
12000.0
21
-2875.0
31
17000.0
0
LINE
8
ZJ8_COLUMN
10
24000.0
20
-2875.0
30
0.0
11
24000.0
21
-2875.0
31
4250.0
0
LINE
8
ZJ8_COLUMN
10
24000.0
20
-2875.0
30
4250.0
11
24000.0
21
-2875.0
31
8500.0
0
LINE
8
ZJ8_COLUMN
10
24000.0
20
-2875.0
30
8500.0
11
24000.0
21
-2875.0
31
12750.0
0
LINE
8
ZJ8_COLUMN
10
24000.0
20
-2875.0
30
12750.0
11
24000.0
21
-2875.0
31
17000.0
0
LINE
8
ZJ8_COLUMN
10
24000.0
20
2875.0
30
0.0
11
24000.0
21
2875.0
31
4250.0
0
LINE
8
ZJ8_COLUMN
10
24000.0
20
2875.0
30
4250.0
11
24000.0
21
2875.0
31
8500.0
0
LINE
8
ZJ8_COLUMN
10
24000.0
20
2875.0
30
8500.0
11
24000.0
21
2875.0
31
12750.0
0
LINE
8
ZJ8_COLUMN
10
24000.0
20
2875.0
30
12750.0
11
24000.0
21
2875.0
31
17000.0
0
LINE
8
ZJ8_DECK_CROSS
10
24000.0
20
-2200.0
30
17000.0
11
24000.0
21
2700.0
31
17000.0
0
LINE
8
ZJ8_TRANSVERSE_BRACE
10
24000.0
20
-2875.0
30
0.0
11
24000.0
21
2875.0
31
17000.0
0
LINE
8
ZJ8_TRANSVERSE_BRACE
10
24000.0
20
2875.0
30
0.0
11
24000.0
21
-2875.0
31
17000.0
0
LINE
8
ZJ8_COLUMN
10
36000.0
20
-2875.0
30
0.0
11
36000.0
21
-2875.0
31
4250.0
0
LINE
8
ZJ8_COLUMN
10
36000.0
20
-2875.0
30
4250.0
11
36000.0
21
-2875.0
31
8500.0
0
LINE
8
ZJ8_COLUMN
10
36000.0
20
-2875.0
30
8500.0
11
36000.0
21
-2875.0
31
12750.0
0
LINE
8
ZJ8_COLUMN
10
36000.0
20
-2875.0
30
12750.0
11
36000.0
21
-2875.0
31
17000.0
0
LINE
8
ZJ8_COLUMN
10
36000.0
20
2875.0
30
0.0
11
36000.0
21
2875.0
31
4250.0
0
LINE
8
ZJ8_COLUMN
10
36000.0
20
2875.0
30
4250.0
11
36000.0
21
2875.0
31
8500.0
0
LINE
8
ZJ8_COLUMN
10
36000.0
20
2875.0
30
8500.0
11
36000.0
21
2875.0
31
12750.0
0
LINE
8
ZJ8_COLUMN
10
36000.0
20
2875.0
30
12750.0
11
36000.0
21
2875.0
31
17000.0
0
LINE
8
ZJ8_DECK_CROSS
10
36000.0
20
-2200.0
30
17000.0
11
36000.0
21
2700.0
31
17000.0
0
LINE
8
ZJ8_TRANSVERSE_BRACE
10
36000.0
20
-2875.0
30
0.0
11
36000.0
21
2875.0
31
17000.0
0
LINE
8
ZJ8_TRANSVERSE_BRACE
10
36000.0
20
2875.0
30
0.0
11
36000.0
21
-2875.0
31
17000.0
0
LINE
8
ZJ8_COLUMN
10
39000.0
20
-2875.0
30
0.0
11
39000.0
21
-2875.0
31
4250.0
0
LINE
8
ZJ8_COLUMN
10
39000.0
20
-2875.0
30
4250.0
11
39000.0
21
-2875.0
31
8500.0
0
LINE
8
ZJ8_COLUMN
10
39000.0
20
-2875.0
30
8500.0
11
39000.0
21
-2875.0
31
12750.0
0
LINE
8
ZJ8_COLUMN
10
39000.0
20
-2875.0
30
12750.0
11
39000.0
21
-2875.0
31
17000.0
0
LINE
8
ZJ8_COLUMN
10
39000.0
20
2875.0
30
0.0
11
39000.0
21
2875.0
31
4250.0
0
LINE
8
ZJ8_COLUMN
10
39000.0
20
2875.0
30
4250.0
11
39000.0
21
2875.0
31
8500.0
0
LINE
8
ZJ8_COLUMN
10
39000.0
20
2875.0
30
8500.0
11
39000.0
21
2875.0
31
12750.0
0
LINE
8
ZJ8_COLUMN
10
39000.0
20
2875.0
30
12750.0
11
39000.0
21
2875.0
31
17000.0
0
LINE
8
ZJ8_DECK_CROSS
10
39000.0
20
-2200.0
30
17000.0
11
39000.0
21
2700.0
31
17000.0
0
LINE
8
ZJ8_TRANSVERSE_BRACE
10
39000.0
20
-2875.0
30
0.0
11
39000.0
21
2875.0
31
17000.0
0
LINE
8
ZJ8_TRANSVERSE_BRACE
10
39000.0
20
2875.0
30
0.0
11
39000.0
21
-2875.0
31
17000.0
0
LINE
8
ZJ8_COLUMN
10
59520.0
20
-2875.0
30
0.0
11
59520.0
21
-2875.0
31
4250.0
0
LINE
8
ZJ8_COLUMN
10
59520.0
20
-2875.0
30
4250.0
11
59520.0
21
-2875.0
31
8500.0
0
LINE
8
ZJ8_COLUMN
10
59520.0
20
-2875.0
30
8500.0
11
59520.0
21
-2875.0
31
12750.0
0
LINE
8
ZJ8_COLUMN
10
59520.0
20
-2875.0
30
12750.0
11
59520.0
21
-2875.0
31
17000.0
0
LINE
8
ZJ8_COLUMN
10
59520.0
20
2875.0
30
0.0
11
59520.0
21
2875.0
31
4250.0
0
LINE
8
ZJ8_COLUMN
10
59520.0
20
2875.0
30
4250.0
11
59520.0
21
2875.0
31
8500.0
0
LINE
8
ZJ8_COLUMN
10
59520.0
20
2875.0
30
8500.0
11
59520.0
21
2875.0
31
12750.0
0
LINE
8
ZJ8_COLUMN
10
59520.0
20
2875.0
30
12750.0
11
59520.0
21
2875.0
31
17000.0
0
LINE
8
ZJ8_DECK_CROSS
10
59520.0
20
-2200.0
30
17000.0
11
59520.0
21
2700.0
31
17000.0
0
LINE
8
ZJ8_TRANSVERSE_BRACE
10
59520.0
20
-2875.0
30
0.0
11
59520.0
21
2875.0
31
17000.0
0
LINE
8
ZJ8_TRANSVERSE_BRACE
10
59520.0
20
2875.0
30
0.0
11
59520.0
21
-2875.0
31
17000.0
0
LINE
8
ZJ8_COLUMN
10
62520.0
20
-2875.0
30
0.0
11
62520.0
21
-2875.0
31
4250.0
0
LINE
8
ZJ8_COLUMN
10
62520.0
20
-2875.0
30
4250.0
11
62520.0
21
-2875.0
31
8500.0
0
LINE
8
ZJ8_COLUMN
10
62520.0
20
-2875.0
30
8500.0
11
62520.0
21
-2875.0
31
12750.0
0
LINE
8
ZJ8_COLUMN
10
62520.0
20
-2875.0
30
12750.0
11
62520.0
21
-2875.0
31
17000.0
0
LINE
8
ZJ8_COLUMN
10
62520.0
20
2875.0
30
0.0
11
62520.0
21
2875.0
31
4250.0
0
LINE
8
ZJ8_COLUMN
10
62520.0
20
2875.0
30
4250.0
11
62520.0
21
2875.0
31
8500.0
0
LINE
8
ZJ8_COLUMN
10
62520.0
20
2875.0
30
8500.0
11
62520.0
21
2875.0
31
12750.0
0
LINE
8
ZJ8_COLUMN
10
62520.0
20
2875.0
30
12750.0
11
62520.0
21
2875.0
31
17000.0
0
LINE
8
ZJ8_DECK_CROSS
10
62520.0
20
-2200.0
30
17000.0
11
62520.0
21
2700.0
31
17000.0
0
LINE
8
ZJ8_TRANSVERSE_BRACE
10
62520.0
20
-2875.0
30
0.0
11
62520.0
21
2875.0
31
17000.0
0
LINE
8
ZJ8_TRANSVERSE_BRACE
10
62520.0
20
2875.0
30
0.0
11
62520.0
21
-2875.0
31
17000.0
0
LINE
8
ZJ8_COLUMN
10
74520.0
20
-2875.0
30
0.0
11
74520.0
21
-2875.0
31
4250.0
0
LINE
8
ZJ8_COLUMN
10
74520.0
20
-2875.0
30
4250.0
11
74520.0
21
-2875.0
31
8500.0
0
LINE
8
ZJ8_COLUMN
10
74520.0
20
-2875.0
30
8500.0
11
74520.0
21
-2875.0
31
12750.0
0
LINE
8
ZJ8_COLUMN
10
74520.0
20
-2875.0
30
12750.0
11
74520.0
21
-2875.0
31
17000.0
0
LINE
8
ZJ8_COLUMN
10
74520.0
20
2875.0
30
0.0
11
74520.0
21
2875.0
31
4250.0
0
LINE
8
ZJ8_COLUMN
10
74520.0
20
2875.0
30
4250.0
11
74520.0
21
2875.0
31
8500.0
0
LINE
8
ZJ8_COLUMN
10
74520.0
20
2875.0
30
8500.0
11
74520.0
21
2875.0
31
12750.0
0
LINE
8
ZJ8_COLUMN
10
74520.0
20
2875.0
30
12750.0
11
74520.0
21
2875.0
31
17000.0
0
LINE
8
ZJ8_DECK_CROSS
10
74520.0
20
-2200.0
30
17000.0
11
74520.0
21
2700.0
31
17000.0
0
LINE
8
ZJ8_TRANSVERSE_BRACE
10
74520.0
20
-2875.0
30
0.0
11
74520.0
21
2875.0
31
17000.0
0
LINE
8
ZJ8_TRANSVERSE_BRACE
10
74520.0
20
2875.0
30
0.0
11
74520.0
21
-2875.0
31
17000.0
0
LINE
8
ZJ8_COLUMN
10
77520.0
20
-2875.0
30
0.0
11
77520.0
21
-2875.0
31
4250.0
0
LINE
8
ZJ8_COLUMN
10
77520.0
20
-2875.0
30
4250.0
11
77520.0
21
-2875.0
31
8500.0
0
LINE
8
ZJ8_COLUMN
10
77520.0
20
-2875.0
30
8500.0
11
77520.0
21
-2875.0
31
12750.0
0
LINE
8
ZJ8_COLUMN
10
77520.0
20
-2875.0
30
12750.0
11
77520.0
21
-2875.0
31
17000.0
0
LINE
8
ZJ8_COLUMN
10
77520.0
20
2875.0
30
0.0
11
77520.0
21
2875.0
31
4250.0
0
LINE
8
ZJ8_COLUMN
10
77520.0
20
2875.0
30
4250.0
11
77520.0
21
2875.0
31
8500.0
0
LINE
8
ZJ8_COLUMN
10
77520.0
20
2875.0
30
8500.0
11
77520.0
21
2875.0
31
12750.0
0
LINE
8
ZJ8_COLUMN
10
77520.0
20
2875.0
30
12750.0
11
77520.0
21
2875.0
31
17000.0
0
LINE
8
ZJ8_DECK_CROSS
10
77520.0
20
-2200.0
30
17000.0
11
77520.0
21
2700.0
31
17000.0
0
LINE
8
ZJ8_TRANSVERSE_BRACE
10
77520.0
20
-2875.0
30
0.0
11
77520.0
21
2875.0
31
17000.0
0
LINE
8
ZJ8_TRANSVERSE_BRACE
10
77520.0
20
2875.0
30
0.0
11
77520.0
21
-2875.0
31
17000.0
0
LINE
8
ZJ8_COLUMN
10
116520.0
20
-2875.0
30
0.0
11
116520.0
21
-2875.0
31
4250.0
0
LINE
8
ZJ8_COLUMN
10
116520.0
20
-2875.0
30
4250.0
11
116520.0
21
-2875.0
31
8500.0
0
LINE
8
ZJ8_COLUMN
10
116520.0
20
-2875.0
30
8500.0
11
116520.0
21
-2875.0
31
12750.0
0
LINE
8
ZJ8_COLUMN
10
116520.0
20
-2875.0
30
12750.0
11
116520.0
21
-2875.0
31
17000.0
0
LINE
8
ZJ8_COLUMN
10
116520.0
20
2875.0
30
0.0
11
116520.0
21
2875.0
31
4250.0
0
LINE
8
ZJ8_COLUMN
10
116520.0
20
2875.0
30
4250.0
11
116520.0
21
2875.0
31
8500.0
0
LINE
8
ZJ8_COLUMN
10
116520.0
20
2875.0
30
8500.0
11
116520.0
21
2875.0
31
12750.0
0
LINE
8
ZJ8_COLUMN
10
116520.0
20
2875.0
30
12750.0
11
116520.0
21
2875.0
31
17000.0
0
LINE
8
ZJ8_DECK_CROSS
10
116520.0
20
-2200.0
30
17000.0
11
116520.0
21
2700.0
31
17000.0
0
LINE
8
ZJ8_TRANSVERSE_BRACE
10
116520.0
20
-2875.0
30
0.0
11
116520.0
21
2875.0
31
17000.0
0
LINE
8
ZJ8_TRANSVERSE_BRACE
10
116520.0
20
2875.0
30
0.0
11
116520.0
21
-2875.0
31
17000.0
0
LINE
8
ZJ8_COLUMN
10
119520.0
20
-2875.0
30
0.0
11
119520.0
21
-2875.0
31
4250.0
0
LINE
8
ZJ8_COLUMN
10
119520.0
20
-2875.0
30
4250.0
11
119520.0
21
-2875.0
31
8500.0
0
LINE
8
ZJ8_COLUMN
10
119520.0
20
-2875.0
30
8500.0
11
119520.0
21
-2875.0
31
12750.0
0
LINE
8
ZJ8_COLUMN
10
119520.0
20
-2875.0
30
12750.0
11
119520.0
21
-2875.0
31
17000.0
0
LINE
8
ZJ8_COLUMN
10
119520.0
20
2875.0
30
0.0
11
119520.0
21
2875.0
31
4250.0
0
LINE
8
ZJ8_COLUMN
10
119520.0
20
2875.0
30
4250.0
11
119520.0
21
2875.0
31
8500.0
0
LINE
8
ZJ8_COLUMN
10
119520.0
20
2875.0
30
8500.0
11
119520.0
21
2875.0
31
12750.0
0
LINE
8
ZJ8_COLUMN
10
119520.0
20
2875.0
30
12750.0
11
119520.0
21
2875.0
31
17000.0
0
LINE
8
ZJ8_DECK_CROSS
10
119520.0
20
-2200.0
30
17000.0
11
119520.0
21
2700.0
31
17000.0
0
LINE
8
ZJ8_TRANSVERSE_BRACE
10
119520.0
20
-2875.0
30
0.0
11
119520.0
21
2875.0
31
17000.0
0
LINE
8
ZJ8_TRANSVERSE_BRACE
10
119520.0
20
2875.0
30
0.0
11
119520.0
21
-2875.0
31
17000.0
0
LINE
8
ZJ8_CANTILEVER_EDGE
10
-1400.0
20
-2200.0
30
17000.0
11
0.0
21
-2200.0
31
17000.0
0
LINE
8
ZJ8_CANTILEVER_EDGE
10
-1400.0
20
2700.0
30
17000.0
11
0.0
21
2700.0
31
17000.0
0
LINE
8
ZJ8_DECK_MAIN
10
0.0
20
-2875.0
30
17000.0
11
3000.0
21
-2875.0
31
17000.0
0
LINE
8
ZJ8_DECK_MAIN
10
3000.0
20
-2875.0
30
17000.0
11
6000.0
21
-2875.0
31
17000.0
0
LINE
8
ZJ8_DECK_MAIN
10
6000.0
20
-2875.0
30
17000.0
11
9000.0
21
-2875.0
31
17000.0
0
LINE
8
ZJ8_DECK_MAIN
10
9000.0
20
-2875.0
30
17000.0
11
12000.0
21
-2875.0
31
17000.0
0
LINE
8
ZJ8_DECK_MAIN
10
0.0
20
2875.0
30
17000.0
11
3000.0
21
2875.0
31
17000.0
0
LINE
8
ZJ8_DECK_MAIN
10
3000.0
20
2875.0
30
17000.0
11
6000.0
21
2875.0
31
17000.0
0
LINE
8
ZJ8_DECK_MAIN
10
6000.0
20
2875.0
30
17000.0
11
9000.0
21
2875.0
31
17000.0
0
LINE
8
ZJ8_DECK_MAIN
10
9000.0
20
2875.0
30
17000.0
11
12000.0
21
2875.0
31
17000.0
0
LINE
8
ZJ8_DECK_CROSS
10
3000.0
20
-2200.0
30
17000.0
11
3000.0
21
2700.0
31
17000.0
0
LINE
8
ZJ8_DECK_CROSS
10
6000.0
20
-2200.0
30
17000.0
11
6000.0
21
2700.0
31
17000.0
0
LINE
8
ZJ8_DECK_CROSS
10
9000.0
20
-2200.0
30
17000.0
11
9000.0
21
2700.0
31
17000.0
0
LINE
8
ZJ8_DECK_SECONDARY
10
0.0
20
-1075.0
30
17000.0
11
3000.0
21
-1075.0
31
17000.0
0
LINE
8
ZJ8_DECK_SECONDARY
10
3000.0
20
-1075.0
30
17000.0
11
6000.0
21
-1075.0
31
17000.0
0
LINE
8
ZJ8_DECK_SECONDARY
10
6000.0
20
-1075.0
30
17000.0
11
9000.0
21
-1075.0
31
17000.0
0
LINE
8
ZJ8_DECK_SECONDARY
10
9000.0
20
-1075.0
30
17000.0
11
12000.0
21
-1075.0
31
17000.0
0
LINE
8
ZJ8_DECK_SECONDARY
10
0.0
20
1075.0
30
17000.0
11
3000.0
21
1075.0
31
17000.0
0
LINE
8
ZJ8_DECK_SECONDARY
10
3000.0
20
1075.0
30
17000.0
11
6000.0
21
1075.0
31
17000.0
0
LINE
8
ZJ8_DECK_SECONDARY
10
6000.0
20
1075.0
30
17000.0
11
9000.0
21
1075.0
31
17000.0
0
LINE
8
ZJ8_DECK_SECONDARY
10
9000.0
20
1075.0
30
17000.0
11
12000.0
21
1075.0
31
17000.0
0
LINE
8
ZJ8_CANTILEVER_EDGE
10
0.0
20
-2200.0
30
17000.0
11
3000.0
21
-2200.0
31
17000.0
0
LINE
8
ZJ8_CANTILEVER_EDGE
10
3000.0
20
-2200.0
30
17000.0
11
6000.0
21
-2200.0
31
17000.0
0
LINE
8
ZJ8_CANTILEVER_EDGE
10
6000.0
20
-2200.0
30
17000.0
11
9000.0
21
-2200.0
31
17000.0
0
LINE
8
ZJ8_CANTILEVER_EDGE
10
9000.0
20
-2200.0
30
17000.0
11
12000.0
21
-2200.0
31
17000.0
0
LINE
8
ZJ8_CANTILEVER_EDGE
10
0.0
20
2700.0
30
17000.0
11
3000.0
21
2700.0
31
17000.0
0
LINE
8
ZJ8_CANTILEVER_EDGE
10
3000.0
20
2700.0
30
17000.0
11
6000.0
21
2700.0
31
17000.0
0
LINE
8
ZJ8_CANTILEVER_EDGE
10
6000.0
20
2700.0
30
17000.0
11
9000.0
21
2700.0
31
17000.0
0
LINE
8
ZJ8_CANTILEVER_EDGE
10
9000.0
20
2700.0
30
17000.0
11
12000.0
21
2700.0
31
17000.0
0
LINE
8
ZJ8_PLATFORM_BRACE
10
0.0
20
-2875.0
30
17000.0
11
3000.0
21
2875.0
31
17000.0
0
LINE
8
ZJ8_PLATFORM_BRACE
10
3000.0
20
2875.0
30
17000.0
11
6000.0
21
-2875.0
31
17000.0
0
LINE
8
ZJ8_PLATFORM_BRACE
10
6000.0
20
-2875.0
30
17000.0
11
9000.0
21
2875.0
31
17000.0
0
LINE
8
ZJ8_PLATFORM_BRACE
10
9000.0
20
2875.0
30
17000.0
11
12000.0
21
-2875.0
31
17000.0
0
LINE
8
ZJ8_DECK_MAIN
10
12000.0
20
-2875.0
30
17000.0
11
15000.0
21
-2875.0
31
17000.0
0
LINE
8
ZJ8_DECK_MAIN
10
15000.0
20
-2875.0
30
17000.0
11
18000.0
21
-2875.0
31
17000.0
0
LINE
8
ZJ8_DECK_MAIN
10
18000.0
20
-2875.0
30
17000.0
11
21000.0
21
-2875.0
31
17000.0
0
LINE
8
ZJ8_DECK_MAIN
10
21000.0
20
-2875.0
30
17000.0
11
24000.0
21
-2875.0
31
17000.0
0
LINE
8
ZJ8_DECK_MAIN
10
12000.0
20
2875.0
30
17000.0
11
15000.0
21
2875.0
31
17000.0
0
LINE
8
ZJ8_DECK_MAIN
10
15000.0
20
2875.0
30
17000.0
11
18000.0
21
2875.0
31
17000.0
0
LINE
8
ZJ8_DECK_MAIN
10
18000.0
20
2875.0
30
17000.0
11
21000.0
21
2875.0
31
17000.0
0
LINE
8
ZJ8_DECK_MAIN
10
21000.0
20
2875.0
30
17000.0
11
24000.0
21
2875.0
31
17000.0
0
LINE
8
ZJ8_DECK_CROSS
10
15000.0
20
-2200.0
30
17000.0
11
15000.0
21
2700.0
31
17000.0
0
LINE
8
ZJ8_DECK_CROSS
10
18000.0
20
-2200.0
30
17000.0
11
18000.0
21
2700.0
31
17000.0
0
LINE
8
ZJ8_DECK_CROSS
10
21000.0
20
-2200.0
30
17000.0
11
21000.0
21
2700.0
31
17000.0
0
LINE
8
ZJ8_DECK_SECONDARY
10
12000.0
20
-1075.0
30
17000.0
11
15000.0
21
-1075.0
31
17000.0
0
LINE
8
ZJ8_DECK_SECONDARY
10
15000.0
20
-1075.0
30
17000.0
11
18000.0
21
-1075.0
31
17000.0
0
LINE
8
ZJ8_DECK_SECONDARY
10
18000.0
20
-1075.0
30
17000.0
11
21000.0
21
-1075.0
31
17000.0
0
LINE
8
ZJ8_DECK_SECONDARY
10
21000.0
20
-1075.0
30
17000.0
11
24000.0
21
-1075.0
31
17000.0
0
LINE
8
ZJ8_DECK_SECONDARY
10
12000.0
20
1075.0
30
17000.0
11
15000.0
21
1075.0
31
17000.0
0
LINE
8
ZJ8_DECK_SECONDARY
10
15000.0
20
1075.0
30
17000.0
11
18000.0
21
1075.0
31
17000.0
0
LINE
8
ZJ8_DECK_SECONDARY
10
18000.0
20
1075.0
30
17000.0
11
21000.0
21
1075.0
31
17000.0
0
LINE
8
ZJ8_DECK_SECONDARY
10
21000.0
20
1075.0
30
17000.0
11
24000.0
21
1075.0
31
17000.0
0
LINE
8
ZJ8_CANTILEVER_EDGE
10
12000.0
20
-2200.0
30
17000.0
11
15000.0
21
-2200.0
31
17000.0
0
LINE
8
ZJ8_CANTILEVER_EDGE
10
15000.0
20
-2200.0
30
17000.0
11
18000.0
21
-2200.0
31
17000.0
0
LINE
8
ZJ8_CANTILEVER_EDGE
10
18000.0
20
-2200.0
30
17000.0
11
21000.0
21
-2200.0
31
17000.0
0
LINE
8
ZJ8_CANTILEVER_EDGE
10
21000.0
20
-2200.0
30
17000.0
11
24000.0
21
-2200.0
31
17000.0
0
LINE
8
ZJ8_CANTILEVER_EDGE
10
12000.0
20
2700.0
30
17000.0
11
15000.0
21
2700.0
31
17000.0
0
LINE
8
ZJ8_CANTILEVER_EDGE
10
15000.0
20
2700.0
30
17000.0
11
18000.0
21
2700.0
31
17000.0
0
LINE
8
ZJ8_CANTILEVER_EDGE
10
18000.0
20
2700.0
30
17000.0
11
21000.0
21
2700.0
31
17000.0
0
LINE
8
ZJ8_CANTILEVER_EDGE
10
21000.0
20
2700.0
30
17000.0
11
24000.0
21
2700.0
31
17000.0
0
LINE
8
ZJ8_PLATFORM_BRACE
10
12000.0
20
-2875.0
30
17000.0
11
15000.0
21
2875.0
31
17000.0
0
LINE
8
ZJ8_PLATFORM_BRACE
10
15000.0
20
2875.0
30
17000.0
11
18000.0
21
-2875.0
31
17000.0
0
LINE
8
ZJ8_PLATFORM_BRACE
10
18000.0
20
-2875.0
30
17000.0
11
21000.0
21
2875.0
31
17000.0
0
LINE
8
ZJ8_PLATFORM_BRACE
10
21000.0
20
2875.0
30
17000.0
11
24000.0
21
-2875.0
31
17000.0
0
LINE
8
ZJ8_DECK_MAIN
10
24000.0
20
-2875.0
30
17000.0
11
27000.0
21
-2875.0
31
17000.0
0
LINE
8
ZJ8_DECK_MAIN
10
27000.0
20
-2875.0
30
17000.0
11
30000.0
21
-2875.0
31
17000.0
0
LINE
8
ZJ8_DECK_MAIN
10
30000.0
20
-2875.0
30
17000.0
11
33000.0
21
-2875.0
31
17000.0
0
LINE
8
ZJ8_DECK_MAIN
10
33000.0
20
-2875.0
30
17000.0
11
36000.0
21
-2875.0
31
17000.0
0
LINE
8
ZJ8_DECK_MAIN
10
24000.0
20
2875.0
30
17000.0
11
27000.0
21
2875.0
31
17000.0
0
LINE
8
ZJ8_DECK_MAIN
10
27000.0
20
2875.0
30
17000.0
11
30000.0
21
2875.0
31
17000.0
0
LINE
8
ZJ8_DECK_MAIN
10
30000.0
20
2875.0
30
17000.0
11
33000.0
21
2875.0
31
17000.0
0
LINE
8
ZJ8_DECK_MAIN
10
33000.0
20
2875.0
30
17000.0
11
36000.0
21
2875.0
31
17000.0
0
LINE
8
ZJ8_DECK_CROSS
10
27000.0
20
-2200.0
30
17000.0
11
27000.0
21
2700.0
31
17000.0
0
LINE
8
ZJ8_DECK_CROSS
10
30000.0
20
-2200.0
30
17000.0
11
30000.0
21
2700.0
31
17000.0
0
LINE
8
ZJ8_DECK_CROSS
10
33000.0
20
-2200.0
30
17000.0
11
33000.0
21
2700.0
31
17000.0
0
LINE
8
ZJ8_DECK_SECONDARY
10
24000.0
20
-1075.0
30
17000.0
11
27000.0
21
-1075.0
31
17000.0
0
LINE
8
ZJ8_DECK_SECONDARY
10
27000.0
20
-1075.0
30
17000.0
11
30000.0
21
-1075.0
31
17000.0
0
LINE
8
ZJ8_DECK_SECONDARY
10
30000.0
20
-1075.0
30
17000.0
11
33000.0
21
-1075.0
31
17000.0
0
LINE
8
ZJ8_DECK_SECONDARY
10
33000.0
20
-1075.0
30
17000.0
11
36000.0
21
-1075.0
31
17000.0
0
LINE
8
ZJ8_DECK_SECONDARY
10
24000.0
20
1075.0
30
17000.0
11
27000.0
21
1075.0
31
17000.0
0
LINE
8
ZJ8_DECK_SECONDARY
10
27000.0
20
1075.0
30
17000.0
11
30000.0
21
1075.0
31
17000.0
0
LINE
8
ZJ8_DECK_SECONDARY
10
30000.0
20
1075.0
30
17000.0
11
33000.0
21
1075.0
31
17000.0
0
LINE
8
ZJ8_DECK_SECONDARY
10
33000.0
20
1075.0
30
17000.0
11
36000.0
21
1075.0
31
17000.0
0
LINE
8
ZJ8_CANTILEVER_EDGE
10
24000.0
20
-2200.0
30
17000.0
11
27000.0
21
-2200.0
31
17000.0
0
LINE
8
ZJ8_CANTILEVER_EDGE
10
27000.0
20
-2200.0
30
17000.0
11
30000.0
21
-2200.0
31
17000.0
0
LINE
8
ZJ8_CANTILEVER_EDGE
10
30000.0
20
-2200.0
30
17000.0
11
33000.0
21
-2200.0
31
17000.0
0
LINE
8
ZJ8_CANTILEVER_EDGE
10
33000.0
20
-2200.0
30
17000.0
11
36000.0
21
-2200.0
31
17000.0
0
LINE
8
ZJ8_CANTILEVER_EDGE
10
24000.0
20
2700.0
30
17000.0
11
27000.0
21
2700.0
31
17000.0
0
LINE
8
ZJ8_CANTILEVER_EDGE
10
27000.0
20
2700.0
30
17000.0
11
30000.0
21
2700.0
31
17000.0
0
LINE
8
ZJ8_CANTILEVER_EDGE
10
30000.0
20
2700.0
30
17000.0
11
33000.0
21
2700.0
31
17000.0
0
LINE
8
ZJ8_CANTILEVER_EDGE
10
33000.0
20
2700.0
30
17000.0
11
36000.0
21
2700.0
31
17000.0
0
LINE
8
ZJ8_PLATFORM_BRACE
10
24000.0
20
-2875.0
30
17000.0
11
27000.0
21
2875.0
31
17000.0
0
LINE
8
ZJ8_PLATFORM_BRACE
10
27000.0
20
2875.0
30
17000.0
11
30000.0
21
-2875.0
31
17000.0
0
LINE
8
ZJ8_PLATFORM_BRACE
10
30000.0
20
-2875.0
30
17000.0
11
33000.0
21
2875.0
31
17000.0
0
LINE
8
ZJ8_PLATFORM_BRACE
10
33000.0
20
2875.0
30
17000.0
11
36000.0
21
-2875.0
31
17000.0
0
LINE
8
ZJ8_DECK_MAIN
10
36000.0
20
-2875.0
30
17000.0
11
39000.0
21
-2875.0
31
17000.0
0
LINE
8
ZJ8_DECK_MAIN
10
36000.0
20
2875.0
30
17000.0
11
39000.0
21
2875.0
31
17000.0
0
LINE
8
ZJ8_DECK_SECONDARY
10
36000.0
20
-1075.0
30
17000.0
11
39000.0
21
-1075.0
31
17000.0
0
LINE
8
ZJ8_DECK_SECONDARY
10
36000.0
20
1075.0
30
17000.0
11
39000.0
21
1075.0
31
17000.0
0
LINE
8
ZJ8_CANTILEVER_EDGE
10
36000.0
20
-2200.0
30
17000.0
11
39000.0
21
-2200.0
31
17000.0
0
LINE
8
ZJ8_CANTILEVER_EDGE
10
36000.0
20
2700.0
30
17000.0
11
39000.0
21
2700.0
31
17000.0
0
LINE
8
ZJ8_PLATFORM_BRACE
10
36000.0
20
-2875.0
30
17000.0
11
39000.0
21
2875.0
31
17000.0
0
LINE
8
ZJ8_LONGITUDINAL_BRACE
10
36000.0
20
-2875.0
30
0.0
11
39000.0
21
-2875.0
31
17000.0
0
LINE
8
ZJ8_LONGITUDINAL_BRACE
10
36000.0
20
2875.0
30
0.0
11
39000.0
21
2875.0
31
17000.0
0
LINE
8
ZJ8_DECK_MAIN
10
39000.0
20
-2875.0
30
17000.0
11
41931.428571
21
-2875.0
31
17000.0
0
LINE
8
ZJ8_DECK_MAIN
10
41931.428571
20
-2875.0
30
17000.0
11
44862.857143
21
-2875.0
31
17000.0
0
LINE
8
ZJ8_DECK_MAIN
10
44862.857143
20
-2875.0
30
17000.0
11
47794.285714
21
-2875.0
31
17000.0
0
LINE
8
ZJ8_DECK_MAIN
10
47794.285714
20
-2875.0
30
17000.0
11
50725.714286
21
-2875.0
31
17000.0
0
LINE
8
ZJ8_DECK_MAIN
10
50725.714286
20
-2875.0
30
17000.0
11
53657.142857
21
-2875.0
31
17000.0
0
LINE
8
ZJ8_DECK_MAIN
10
53657.142857
20
-2875.0
30
17000.0
11
56588.571429
21
-2875.0
31
17000.0
0
LINE
8
ZJ8_DECK_MAIN
10
56588.571429
20
-2875.0
30
17000.0
11
59520.0
21
-2875.0
31
17000.0
0
LINE
8
ZJ8_DECK_MAIN
10
39000.0
20
2875.0
30
17000.0
11
41931.428571
21
2875.0
31
17000.0
0
LINE
8
ZJ8_DECK_MAIN
10
41931.428571
20
2875.0
30
17000.0
11
44862.857143
21
2875.0
31
17000.0
0
LINE
8
ZJ8_DECK_MAIN
10
44862.857143
20
2875.0
30
17000.0
11
47794.285714
21
2875.0
31
17000.0
0
LINE
8
ZJ8_DECK_MAIN
10
47794.285714
20
2875.0
30
17000.0
11
50725.714286
21
2875.0
31
17000.0
0
LINE
8
ZJ8_DECK_MAIN
10
50725.714286
20
2875.0
30
17000.0
11
53657.142857
21
2875.0
31
17000.0
0
LINE
8
ZJ8_DECK_MAIN
10
53657.142857
20
2875.0
30
17000.0
11
56588.571429
21
2875.0
31
17000.0
0
LINE
8
ZJ8_DECK_MAIN
10
56588.571429
20
2875.0
30
17000.0
11
59520.0
21
2875.0
31
17000.0
0
LINE
8
ZJ8_DECK_CROSS
10
41931.428571
20
-2200.0
30
17000.0
11
41931.428571
21
2700.0
31
17000.0
0
LINE
8
ZJ8_DECK_CROSS
10
44862.857143
20
-2200.0
30
17000.0
11
44862.857143
21
2700.0
31
17000.0
0
LINE
8
ZJ8_DECK_CROSS
10
47794.285714
20
-2200.0
30
17000.0
11
47794.285714
21
2700.0
31
17000.0
0
LINE
8
ZJ8_DECK_CROSS
10
50725.714286
20
-2200.0
30
17000.0
11
50725.714286
21
2700.0
31
17000.0
0
LINE
8
ZJ8_DECK_CROSS
10
53657.142857
20
-2200.0
30
17000.0
11
53657.142857
21
2700.0
31
17000.0
0
LINE
8
ZJ8_DECK_CROSS
10
56588.571429
20
-2200.0
30
17000.0
11
56588.571429
21
2700.0
31
17000.0
0
LINE
8
ZJ8_DECK_SECONDARY
10
39000.0
20
-1075.0
30
17000.0
11
41931.428571
21
-1075.0
31
17000.0
0
LINE
8
ZJ8_DECK_SECONDARY
10
41931.428571
20
-1075.0
30
17000.0
11
44862.857143
21
-1075.0
31
17000.0
0
LINE
8
ZJ8_DECK_SECONDARY
10
44862.857143
20
-1075.0
30
17000.0
11
47794.285714
21
-1075.0
31
17000.0
0
LINE
8
ZJ8_DECK_SECONDARY
10
47794.285714
20
-1075.0
30
17000.0
11
50725.714286
21
-1075.0
31
17000.0
0
LINE
8
ZJ8_DECK_SECONDARY
10
50725.714286
20
-1075.0
30
17000.0
11
53657.142857
21
-1075.0
31
17000.0
0
LINE
8
ZJ8_DECK_SECONDARY
10
53657.142857
20
-1075.0
30
17000.0
11
56588.571429
21
-1075.0
31
17000.0
0
LINE
8
ZJ8_DECK_SECONDARY
10
56588.571429
20
-1075.0
30
17000.0
11
59520.0
21
-1075.0
31
17000.0
0
LINE
8
ZJ8_DECK_SECONDARY
10
39000.0
20
1075.0
30
17000.0
11
41931.428571
21
1075.0
31
17000.0
0
LINE
8
ZJ8_DECK_SECONDARY
10
41931.428571
20
1075.0
30
17000.0
11
44862.857143
21
1075.0
31
17000.0
0
LINE
8
ZJ8_DECK_SECONDARY
10
44862.857143
20
1075.0
30
17000.0
11
47794.285714
21
1075.0
31
17000.0
0
LINE
8
ZJ8_DECK_SECONDARY
10
47794.285714
20
1075.0
30
17000.0
11
50725.714286
21
1075.0
31
17000.0
0
LINE
8
ZJ8_DECK_SECONDARY
10
50725.714286
20
1075.0
30
17000.0
11
53657.142857
21
1075.0
31
17000.0
0
LINE
8
ZJ8_DECK_SECONDARY
10
53657.142857
20
1075.0
30
17000.0
11
56588.571429
21
1075.0
31
17000.0
0
LINE
8
ZJ8_DECK_SECONDARY
10
56588.571429
20
1075.0
30
17000.0
11
59520.0
21
1075.0
31
17000.0
0
LINE
8
ZJ8_CANTILEVER_EDGE
10
39000.0
20
-2200.0
30
17000.0
11
41931.428571
21
-2200.0
31
17000.0
0
LINE
8
ZJ8_CANTILEVER_EDGE
10
41931.428571
20
-2200.0
30
17000.0
11
44862.857143
21
-2200.0
31
17000.0
0
LINE
8
ZJ8_CANTILEVER_EDGE
10
44862.857143
20
-2200.0
30
17000.0
11
47794.285714
21
-2200.0
31
17000.0
0
LINE
8
ZJ8_CANTILEVER_EDGE
10
47794.285714
20
-2200.0
30
17000.0
11
50725.714286
21
-2200.0
31
17000.0
0
LINE
8
ZJ8_CANTILEVER_EDGE
10
50725.714286
20
-2200.0
30
17000.0
11
53657.142857
21
-2200.0
31
17000.0
0
LINE
8
ZJ8_CANTILEVER_EDGE
10
53657.142857
20
-2200.0
30
17000.0
11
56588.571429
21
-2200.0
31
17000.0
0
LINE
8
ZJ8_CANTILEVER_EDGE
10
56588.571429
20
-2200.0
30
17000.0
11
59520.0
21
-2200.0
31
17000.0
0
LINE
8
ZJ8_CANTILEVER_EDGE
10
39000.0
20
2700.0
30
17000.0
11
41931.428571
21
2700.0
31
17000.0
0
LINE
8
ZJ8_CANTILEVER_EDGE
10
41931.428571
20
2700.0
30
17000.0
11
44862.857143
21
2700.0
31
17000.0
0
LINE
8
ZJ8_CANTILEVER_EDGE
10
44862.857143
20
2700.0
30
17000.0
11
47794.285714
21
2700.0
31
17000.0
0
LINE
8
ZJ8_CANTILEVER_EDGE
10
47794.285714
20
2700.0
30
17000.0
11
50725.714286
21
2700.0
31
17000.0
0
LINE
8
ZJ8_CANTILEVER_EDGE
10
50725.714286
20
2700.0
30
17000.0
11
53657.142857
21
2700.0
31
17000.0
0
LINE
8
ZJ8_CANTILEVER_EDGE
10
53657.142857
20
2700.0
30
17000.0
11
56588.571429
21
2700.0
31
17000.0
0
LINE
8
ZJ8_CANTILEVER_EDGE
10
56588.571429
20
2700.0
30
17000.0
11
59520.0
21
2700.0
31
17000.0
0
LINE
8
ZJ8_PLATFORM_BRACE
10
39000.0
20
-2875.0
30
17000.0
11
41931.428571
21
2875.0
31
17000.0
0
LINE
8
ZJ8_PLATFORM_BRACE
10
41931.428571
20
2875.0
30
17000.0
11
44862.857143
21
-2875.0
31
17000.0
0
LINE
8
ZJ8_PLATFORM_BRACE
10
44862.857143
20
-2875.0
30
17000.0
11
47794.285714
21
2875.0
31
17000.0
0
LINE
8
ZJ8_PLATFORM_BRACE
10
47794.285714
20
2875.0
30
17000.0
11
50725.714286
21
-2875.0
31
17000.0
0
LINE
8
ZJ8_PLATFORM_BRACE
10
50725.714286
20
-2875.0
30
17000.0
11
53657.142857
21
2875.0
31
17000.0
0
LINE
8
ZJ8_PLATFORM_BRACE
10
53657.142857
20
2875.0
30
17000.0
11
56588.571429
21
-2875.0
31
17000.0
0
LINE
8
ZJ8_PLATFORM_BRACE
10
56588.571429
20
-2875.0
30
17000.0
11
59520.0
21
2875.0
31
17000.0
0
LINE
8
ZJ8_TRUSS_UPPER
10
39000.0
20
-2875.0
30
17000.0
11
40865.454545
21
-2875.0
31
17000.0
0
LINE
8
ZJ8_TRUSS_UPPER
10
40865.454545
20
-2875.0
30
17000.0
11
42730.909091
21
-2875.0
31
17000.0
0
LINE
8
ZJ8_TRUSS_UPPER
10
42730.909091
20
-2875.0
30
17000.0
11
44596.363636
21
-2875.0
31
17000.0
0
LINE
8
ZJ8_TRUSS_UPPER
10
44596.363636
20
-2875.0
30
17000.0
11
46461.818182
21
-2875.0
31
17000.0
0
LINE
8
ZJ8_TRUSS_UPPER
10
46461.818182
20
-2875.0
30
17000.0
11
48327.272727
21
-2875.0
31
17000.0
0
LINE
8
ZJ8_TRUSS_UPPER
10
48327.272727
20
-2875.0
30
17000.0
11
50192.727273
21
-2875.0
31
17000.0
0
LINE
8
ZJ8_TRUSS_UPPER
10
50192.727273
20
-2875.0
30
17000.0
11
52058.181818
21
-2875.0
31
17000.0
0
LINE
8
ZJ8_TRUSS_UPPER
10
52058.181818
20
-2875.0
30
17000.0
11
53923.636364
21
-2875.0
31
17000.0
0
LINE
8
ZJ8_TRUSS_UPPER
10
53923.636364
20
-2875.0
30
17000.0
11
55789.090909
21
-2875.0
31
17000.0
0
LINE
8
ZJ8_TRUSS_UPPER
10
55789.090909
20
-2875.0
30
17000.0
11
57654.545455
21
-2875.0
31
17000.0
0
LINE
8
ZJ8_TRUSS_UPPER
10
57654.545455
20
-2875.0
30
17000.0
11
59520.0
21
-2875.0
31
17000.0
0
LINE
8
ZJ8_TRUSS_LOWER
10
39000.0
20
-2875.0
30
15200.0
11
40865.454545
21
-2875.0
31
15200.0
0
LINE
8
ZJ8_TRUSS_LOWER
10
40865.454545
20
-2875.0
30
15200.0
11
42730.909091
21
-2875.0
31
15200.0
0
LINE
8
ZJ8_TRUSS_LOWER
10
42730.909091
20
-2875.0
30
15200.0
11
44596.363636
21
-2875.0
31
15200.0
0
LINE
8
ZJ8_TRUSS_LOWER
10
44596.363636
20
-2875.0
30
15200.0
11
46461.818182
21
-2875.0
31
15200.0
0
LINE
8
ZJ8_TRUSS_LOWER
10
46461.818182
20
-2875.0
30
15200.0
11
48327.272727
21
-2875.0
31
15200.0
0
LINE
8
ZJ8_TRUSS_LOWER
10
48327.272727
20
-2875.0
30
15200.0
11
50192.727273
21
-2875.0
31
15200.0
0
LINE
8
ZJ8_TRUSS_LOWER
10
50192.727273
20
-2875.0
30
15200.0
11
52058.181818
21
-2875.0
31
15200.0
0
LINE
8
ZJ8_TRUSS_LOWER
10
52058.181818
20
-2875.0
30
15200.0
11
53923.636364
21
-2875.0
31
15200.0
0
LINE
8
ZJ8_TRUSS_LOWER
10
53923.636364
20
-2875.0
30
15200.0
11
55789.090909
21
-2875.0
31
15200.0
0
LINE
8
ZJ8_TRUSS_LOWER
10
55789.090909
20
-2875.0
30
15200.0
11
57654.545455
21
-2875.0
31
15200.0
0
LINE
8
ZJ8_TRUSS_LOWER
10
57654.545455
20
-2875.0
30
15200.0
11
59520.0
21
-2875.0
31
15200.0
0
LINE
8
ZJ8_TRUSS_VERTICAL
10
39000.0
20
-2875.0
30
17000.0
11
39000.0
21
-2875.0
31
15200.0
0
LINE
8
ZJ8_TRUSS_VERTICAL
10
40865.454545
20
-2875.0
30
17000.0
11
40865.454545
21
-2875.0
31
15200.0
0
LINE
8
ZJ8_TRUSS_VERTICAL
10
42730.909091
20
-2875.0
30
17000.0
11
42730.909091
21
-2875.0
31
15200.0
0
LINE
8
ZJ8_TRUSS_VERTICAL
10
44596.363636
20
-2875.0
30
17000.0
11
44596.363636
21
-2875.0
31
15200.0
0
LINE
8
ZJ8_TRUSS_VERTICAL
10
46461.818182
20
-2875.0
30
17000.0
11
46461.818182
21
-2875.0
31
15200.0
0
LINE
8
ZJ8_TRUSS_VERTICAL
10
48327.272727
20
-2875.0
30
17000.0
11
48327.272727
21
-2875.0
31
15200.0
0
LINE
8
ZJ8_TRUSS_VERTICAL
10
50192.727273
20
-2875.0
30
17000.0
11
50192.727273
21
-2875.0
31
15200.0
0
LINE
8
ZJ8_TRUSS_VERTICAL
10
52058.181818
20
-2875.0
30
17000.0
11
52058.181818
21
-2875.0
31
15200.0
0
LINE
8
ZJ8_TRUSS_VERTICAL
10
53923.636364
20
-2875.0
30
17000.0
11
53923.636364
21
-2875.0
31
15200.0
0
LINE
8
ZJ8_TRUSS_VERTICAL
10
55789.090909
20
-2875.0
30
17000.0
11
55789.090909
21
-2875.0
31
15200.0
0
LINE
8
ZJ8_TRUSS_VERTICAL
10
57654.545455
20
-2875.0
30
17000.0
11
57654.545455
21
-2875.0
31
15200.0
0
LINE
8
ZJ8_TRUSS_VERTICAL
10
59520.0
20
-2875.0
30
17000.0
11
59520.0
21
-2875.0
31
15200.0
0
LINE
8
ZJ8_TRUSS_DIAGONAL
10
39000.0
20
-2875.0
30
15200.0
11
40865.454545
21
-2875.0
31
17000.0
0
LINE
8
ZJ8_TRUSS_DIAGONAL
10
40865.454545
20
-2875.0
30
17000.0
11
42730.909091
21
-2875.0
31
15200.0
0
LINE
8
ZJ8_TRUSS_DIAGONAL
10
42730.909091
20
-2875.0
30
15200.0
11
44596.363636
21
-2875.0
31
17000.0
0
LINE
8
ZJ8_TRUSS_DIAGONAL
10
44596.363636
20
-2875.0
30
17000.0
11
46461.818182
21
-2875.0
31
15200.0
0
LINE
8
ZJ8_TRUSS_DIAGONAL
10
46461.818182
20
-2875.0
30
15200.0
11
48327.272727
21
-2875.0
31
17000.0
0
LINE
8
ZJ8_TRUSS_DIAGONAL
10
48327.272727
20
-2875.0
30
17000.0
11
50192.727273
21
-2875.0
31
15200.0
0
LINE
8
ZJ8_TRUSS_DIAGONAL
10
50192.727273
20
-2875.0
30
15200.0
11
52058.181818
21
-2875.0
31
17000.0
0
LINE
8
ZJ8_TRUSS_DIAGONAL
10
52058.181818
20
-2875.0
30
17000.0
11
53923.636364
21
-2875.0
31
15200.0
0
LINE
8
ZJ8_TRUSS_DIAGONAL
10
53923.636364
20
-2875.0
30
15200.0
11
55789.090909
21
-2875.0
31
17000.0
0
LINE
8
ZJ8_TRUSS_DIAGONAL
10
55789.090909
20
-2875.0
30
17000.0
11
57654.545455
21
-2875.0
31
15200.0
0
LINE
8
ZJ8_TRUSS_DIAGONAL
10
57654.545455
20
-2875.0
30
15200.0
11
59520.0
21
-2875.0
31
17000.0
0
LINE
8
ZJ8_TRUSS_UPPER
10
39000.0
20
2875.0
30
17000.0
11
40865.454545
21
2875.0
31
17000.0
0
LINE
8
ZJ8_TRUSS_UPPER
10
40865.454545
20
2875.0
30
17000.0
11
42730.909091
21
2875.0
31
17000.0
0
LINE
8
ZJ8_TRUSS_UPPER
10
42730.909091
20
2875.0
30
17000.0
11
44596.363636
21
2875.0
31
17000.0
0
LINE
8
ZJ8_TRUSS_UPPER
10
44596.363636
20
2875.0
30
17000.0
11
46461.818182
21
2875.0
31
17000.0
0
LINE
8
ZJ8_TRUSS_UPPER
10
46461.818182
20
2875.0
30
17000.0
11
48327.272727
21
2875.0
31
17000.0
0
LINE
8
ZJ8_TRUSS_UPPER
10
48327.272727
20
2875.0
30
17000.0
11
50192.727273
21
2875.0
31
17000.0
0
LINE
8
ZJ8_TRUSS_UPPER
10
50192.727273
20
2875.0
30
17000.0
11
52058.181818
21
2875.0
31
17000.0
0
LINE
8
ZJ8_TRUSS_UPPER
10
52058.181818
20
2875.0
30
17000.0
11
53923.636364
21
2875.0
31
17000.0
0
LINE
8
ZJ8_TRUSS_UPPER
10
53923.636364
20
2875.0
30
17000.0
11
55789.090909
21
2875.0
31
17000.0
0
LINE
8
ZJ8_TRUSS_UPPER
10
55789.090909
20
2875.0
30
17000.0
11
57654.545455
21
2875.0
31
17000.0
0
LINE
8
ZJ8_TRUSS_UPPER
10
57654.545455
20
2875.0
30
17000.0
11
59520.0
21
2875.0
31
17000.0
0
LINE
8
ZJ8_TRUSS_LOWER
10
39000.0
20
2875.0
30
15200.0
11
40865.454545
21
2875.0
31
15200.0
0
LINE
8
ZJ8_TRUSS_LOWER
10
40865.454545
20
2875.0
30
15200.0
11
42730.909091
21
2875.0
31
15200.0
0
LINE
8
ZJ8_TRUSS_LOWER
10
42730.909091
20
2875.0
30
15200.0
11
44596.363636
21
2875.0
31
15200.0
0
LINE
8
ZJ8_TRUSS_LOWER
10
44596.363636
20
2875.0
30
15200.0
11
46461.818182
21
2875.0
31
15200.0
0
LINE
8
ZJ8_TRUSS_LOWER
10
46461.818182
20
2875.0
30
15200.0
11
48327.272727
21
2875.0
31
15200.0
0
LINE
8
ZJ8_TRUSS_LOWER
10
48327.272727
20
2875.0
30
15200.0
11
50192.727273
21
2875.0
31
15200.0
0
LINE
8
ZJ8_TRUSS_LOWER
10
50192.727273
20
2875.0
30
15200.0
11
52058.181818
21
2875.0
31
15200.0
0
LINE
8
ZJ8_TRUSS_LOWER
10
52058.181818
20
2875.0
30
15200.0
11
53923.636364
21
2875.0
31
15200.0
0
LINE
8
ZJ8_TRUSS_LOWER
10
53923.636364
20
2875.0
30
15200.0
11
55789.090909
21
2875.0
31
15200.0
0
LINE
8
ZJ8_TRUSS_LOWER
10
55789.090909
20
2875.0
30
15200.0
11
57654.545455
21
2875.0
31
15200.0
0
LINE
8
ZJ8_TRUSS_LOWER
10
57654.545455
20
2875.0
30
15200.0
11
59520.0
21
2875.0
31
15200.0
0
LINE
8
ZJ8_TRUSS_VERTICAL
10
39000.0
20
2875.0
30
17000.0
11
39000.0
21
2875.0
31
15200.0
0
LINE
8
ZJ8_TRUSS_VERTICAL
10
40865.454545
20
2875.0
30
17000.0
11
40865.454545
21
2875.0
31
15200.0
0
LINE
8
ZJ8_TRUSS_VERTICAL
10
42730.909091
20
2875.0
30
17000.0
11
42730.909091
21
2875.0
31
15200.0
0
LINE
8
ZJ8_TRUSS_VERTICAL
10
44596.363636
20
2875.0
30
17000.0
11
44596.363636
21
2875.0
31
15200.0
0
LINE
8
ZJ8_TRUSS_VERTICAL
10
46461.818182
20
2875.0
30
17000.0
11
46461.818182
21
2875.0
31
15200.0
0
LINE
8
ZJ8_TRUSS_VERTICAL
10
48327.272727
20
2875.0
30
17000.0
11
48327.272727
21
2875.0
31
15200.0
0
LINE
8
ZJ8_TRUSS_VERTICAL
10
50192.727273
20
2875.0
30
17000.0
11
50192.727273
21
2875.0
31
15200.0
0
LINE
8
ZJ8_TRUSS_VERTICAL
10
52058.181818
20
2875.0
30
17000.0
11
52058.181818
21
2875.0
31
15200.0
0
LINE
8
ZJ8_TRUSS_VERTICAL
10
53923.636364
20
2875.0
30
17000.0
11
53923.636364
21
2875.0
31
15200.0
0
LINE
8
ZJ8_TRUSS_VERTICAL
10
55789.090909
20
2875.0
30
17000.0
11
55789.090909
21
2875.0
31
15200.0
0
LINE
8
ZJ8_TRUSS_VERTICAL
10
57654.545455
20
2875.0
30
17000.0
11
57654.545455
21
2875.0
31
15200.0
0
LINE
8
ZJ8_TRUSS_VERTICAL
10
59520.0
20
2875.0
30
17000.0
11
59520.0
21
2875.0
31
15200.0
0
LINE
8
ZJ8_TRUSS_DIAGONAL
10
39000.0
20
2875.0
30
15200.0
11
40865.454545
21
2875.0
31
17000.0
0
LINE
8
ZJ8_TRUSS_DIAGONAL
10
40865.454545
20
2875.0
30
17000.0
11
42730.909091
21
2875.0
31
15200.0
0
LINE
8
ZJ8_TRUSS_DIAGONAL
10
42730.909091
20
2875.0
30
15200.0
11
44596.363636
21
2875.0
31
17000.0
0
LINE
8
ZJ8_TRUSS_DIAGONAL
10
44596.363636
20
2875.0
30
17000.0
11
46461.818182
21
2875.0
31
15200.0
0
LINE
8
ZJ8_TRUSS_DIAGONAL
10
46461.818182
20
2875.0
30
15200.0
11
48327.272727
21
2875.0
31
17000.0
0
LINE
8
ZJ8_TRUSS_DIAGONAL
10
48327.272727
20
2875.0
30
17000.0
11
50192.727273
21
2875.0
31
15200.0
0
LINE
8
ZJ8_TRUSS_DIAGONAL
10
50192.727273
20
2875.0
30
15200.0
11
52058.181818
21
2875.0
31
17000.0
0
LINE
8
ZJ8_TRUSS_DIAGONAL
10
52058.181818
20
2875.0
30
17000.0
11
53923.636364
21
2875.0
31
15200.0
0
LINE
8
ZJ8_TRUSS_DIAGONAL
10
53923.636364
20
2875.0
30
15200.0
11
55789.090909
21
2875.0
31
17000.0
0
LINE
8
ZJ8_TRUSS_DIAGONAL
10
55789.090909
20
2875.0
30
17000.0
11
57654.545455
21
2875.0
31
15200.0
0
LINE
8
ZJ8_TRUSS_DIAGONAL
10
57654.545455
20
2875.0
30
15200.0
11
59520.0
21
2875.0
31
17000.0
0
LINE
8
ZJ8_DECK_MAIN
10
59520.0
20
-2875.0
30
17000.0
11
62520.0
21
-2875.0
31
17000.0
0
LINE
8
ZJ8_DECK_MAIN
10
59520.0
20
2875.0
30
17000.0
11
62520.0
21
2875.0
31
17000.0
0
LINE
8
ZJ8_DECK_SECONDARY
10
59520.0
20
-1075.0
30
17000.0
11
62520.0
21
-1075.0
31
17000.0
0
LINE
8
ZJ8_DECK_SECONDARY
10
59520.0
20
1075.0
30
17000.0
11
62520.0
21
1075.0
31
17000.0
0
LINE
8
ZJ8_CANTILEVER_EDGE
10
59520.0
20
-2200.0
30
17000.0
11
62520.0
21
-2200.0
31
17000.0
0
LINE
8
ZJ8_CANTILEVER_EDGE
10
59520.0
20
2700.0
30
17000.0
11
62520.0
21
2700.0
31
17000.0
0
LINE
8
ZJ8_PLATFORM_BRACE
10
59520.0
20
-2875.0
30
17000.0
11
62520.0
21
2875.0
31
17000.0
0
LINE
8
ZJ8_LONGITUDINAL_BRACE
10
59520.0
20
-2875.0
30
0.0
11
62520.0
21
-2875.0
31
17000.0
0
LINE
8
ZJ8_LONGITUDINAL_BRACE
10
59520.0
20
2875.0
30
0.0
11
62520.0
21
2875.0
31
17000.0
0
LINE
8
ZJ8_DECK_MAIN
10
62520.0
20
-2875.0
30
17000.0
11
65520.0
21
-2875.0
31
17000.0
0
LINE
8
ZJ8_DECK_MAIN
10
65520.0
20
-2875.0
30
17000.0
11
68520.0
21
-2875.0
31
17000.0
0
LINE
8
ZJ8_DECK_MAIN
10
68520.0
20
-2875.0
30
17000.0
11
71520.0
21
-2875.0
31
17000.0
0
LINE
8
ZJ8_DECK_MAIN
10
71520.0
20
-2875.0
30
17000.0
11
74520.0
21
-2875.0
31
17000.0
0
LINE
8
ZJ8_DECK_MAIN
10
62520.0
20
2875.0
30
17000.0
11
65520.0
21
2875.0
31
17000.0
0
LINE
8
ZJ8_DECK_MAIN
10
65520.0
20
2875.0
30
17000.0
11
68520.0
21
2875.0
31
17000.0
0
LINE
8
ZJ8_DECK_MAIN
10
68520.0
20
2875.0
30
17000.0
11
71520.0
21
2875.0
31
17000.0
0
LINE
8
ZJ8_DECK_MAIN
10
71520.0
20
2875.0
30
17000.0
11
74520.0
21
2875.0
31
17000.0
0
LINE
8
ZJ8_DECK_CROSS
10
65520.0
20
-2200.0
30
17000.0
11
65520.0
21
2700.0
31
17000.0
0
LINE
8
ZJ8_DECK_CROSS
10
68520.0
20
-2200.0
30
17000.0
11
68520.0
21
2700.0
31
17000.0
0
LINE
8
ZJ8_DECK_CROSS
10
71520.0
20
-2200.0
30
17000.0
11
71520.0
21
2700.0
31
17000.0
0
LINE
8
ZJ8_DECK_SECONDARY
10
62520.0
20
-1075.0
30
17000.0
11
65520.0
21
-1075.0
31
17000.0
0
LINE
8
ZJ8_DECK_SECONDARY
10
65520.0
20
-1075.0
30
17000.0
11
68520.0
21
-1075.0
31
17000.0
0
LINE
8
ZJ8_DECK_SECONDARY
10
68520.0
20
-1075.0
30
17000.0
11
71520.0
21
-1075.0
31
17000.0
0
LINE
8
ZJ8_DECK_SECONDARY
10
71520.0
20
-1075.0
30
17000.0
11
74520.0
21
-1075.0
31
17000.0
0
LINE
8
ZJ8_DECK_SECONDARY
10
62520.0
20
1075.0
30
17000.0
11
65520.0
21
1075.0
31
17000.0
0
LINE
8
ZJ8_DECK_SECONDARY
10
65520.0
20
1075.0
30
17000.0
11
68520.0
21
1075.0
31
17000.0
0
LINE
8
ZJ8_DECK_SECONDARY
10
68520.0
20
1075.0
30
17000.0
11
71520.0
21
1075.0
31
17000.0
0
LINE
8
ZJ8_DECK_SECONDARY
10
71520.0
20
1075.0
30
17000.0
11
74520.0
21
1075.0
31
17000.0
0
LINE
8
ZJ8_CANTILEVER_EDGE
10
62520.0
20
-2200.0
30
17000.0
11
65520.0
21
-2200.0
31
17000.0
0
LINE
8
ZJ8_CANTILEVER_EDGE
10
65520.0
20
-2200.0
30
17000.0
11
68520.0
21
-2200.0
31
17000.0
0
LINE
8
ZJ8_CANTILEVER_EDGE
10
68520.0
20
-2200.0
30
17000.0
11
71520.0
21
-2200.0
31
17000.0
0
LINE
8
ZJ8_CANTILEVER_EDGE
10
71520.0
20
-2200.0
30
17000.0
11
74520.0
21
-2200.0
31
17000.0
0
LINE
8
ZJ8_CANTILEVER_EDGE
10
62520.0
20
2700.0
30
17000.0
11
65520.0
21
2700.0
31
17000.0
0
LINE
8
ZJ8_CANTILEVER_EDGE
10
65520.0
20
2700.0
30
17000.0
11
68520.0
21
2700.0
31
17000.0
0
LINE
8
ZJ8_CANTILEVER_EDGE
10
68520.0
20
2700.0
30
17000.0
11
71520.0
21
2700.0
31
17000.0
0
LINE
8
ZJ8_CANTILEVER_EDGE
10
71520.0
20
2700.0
30
17000.0
11
74520.0
21
2700.0
31
17000.0
0
LINE
8
ZJ8_PLATFORM_BRACE
10
62520.0
20
-2875.0
30
17000.0
11
65520.0
21
2875.0
31
17000.0
0
LINE
8
ZJ8_PLATFORM_BRACE
10
65520.0
20
2875.0
30
17000.0
11
68520.0
21
-2875.0
31
17000.0
0
LINE
8
ZJ8_PLATFORM_BRACE
10
68520.0
20
-2875.0
30
17000.0
11
71520.0
21
2875.0
31
17000.0
0
LINE
8
ZJ8_PLATFORM_BRACE
10
71520.0
20
2875.0
30
17000.0
11
74520.0
21
-2875.0
31
17000.0
0
LINE
8
ZJ8_DECK_MAIN
10
74520.0
20
-2875.0
30
17000.0
11
77520.0
21
-2875.0
31
17000.0
0
LINE
8
ZJ8_DECK_MAIN
10
74520.0
20
2875.0
30
17000.0
11
77520.0
21
2875.0
31
17000.0
0
LINE
8
ZJ8_DECK_SECONDARY
10
74520.0
20
-1075.0
30
17000.0
11
77520.0
21
-1075.0
31
17000.0
0
LINE
8
ZJ8_DECK_SECONDARY
10
74520.0
20
1075.0
30
17000.0
11
77520.0
21
1075.0
31
17000.0
0
LINE
8
ZJ8_CANTILEVER_EDGE
10
74520.0
20
-2200.0
30
17000.0
11
77520.0
21
-2200.0
31
17000.0
0
LINE
8
ZJ8_CANTILEVER_EDGE
10
74520.0
20
2700.0
30
17000.0
11
77520.0
21
2700.0
31
17000.0
0
LINE
8
ZJ8_PLATFORM_BRACE
10
74520.0
20
-2875.0
30
17000.0
11
77520.0
21
2875.0
31
17000.0
0
LINE
8
ZJ8_LONGITUDINAL_BRACE
10
74520.0
20
-2875.0
30
0.0
11
77520.0
21
-2875.0
31
17000.0
0
LINE
8
ZJ8_LONGITUDINAL_BRACE
10
74520.0
20
2875.0
30
0.0
11
77520.0
21
2875.0
31
17000.0
0
LINE
8
ZJ8_DECK_MAIN
10
77520.0
20
-2875.0
30
17000.0
11
80520.0
21
-2875.0
31
17000.0
0
LINE
8
ZJ8_DECK_MAIN
10
80520.0
20
-2875.0
30
17000.0
11
83520.0
21
-2875.0
31
17000.0
0
LINE
8
ZJ8_DECK_MAIN
10
83520.0
20
-2875.0
30
17000.0
11
86520.0
21
-2875.0
31
17000.0
0
LINE
8
ZJ8_DECK_MAIN
10
86520.0
20
-2875.0
30
17000.0
11
89520.0
21
-2875.0
31
17000.0
0
LINE
8
ZJ8_DECK_MAIN
10
89520.0
20
-2875.0
30
17000.0
11
92520.0
21
-2875.0
31
17000.0
0
LINE
8
ZJ8_DECK_MAIN
10
92520.0
20
-2875.0
30
17000.0
11
95520.0
21
-2875.0
31
17000.0
0
LINE
8
ZJ8_DECK_MAIN
10
95520.0
20
-2875.0
30
17000.0
11
98520.0
21
-2875.0
31
17000.0
0
LINE
8
ZJ8_DECK_MAIN
10
98520.0
20
-2875.0
30
17000.0
11
101520.0
21
-2875.0
31
17000.0
0
LINE
8
ZJ8_DECK_MAIN
10
101520.0
20
-2875.0
30
17000.0
11
104520.0
21
-2875.0
31
17000.0
0
LINE
8
ZJ8_DECK_MAIN
10
104520.0
20
-2875.0
30
17000.0
11
107520.0
21
-2875.0
31
17000.0
0
LINE
8
ZJ8_DECK_MAIN
10
107520.0
20
-2875.0
30
17000.0
11
110520.0
21
-2875.0
31
17000.0
0
LINE
8
ZJ8_DECK_MAIN
10
110520.0
20
-2875.0
30
17000.0
11
113520.0
21
-2875.0
31
17000.0
0
LINE
8
ZJ8_DECK_MAIN
10
113520.0
20
-2875.0
30
17000.0
11
116520.0
21
-2875.0
31
17000.0
0
LINE
8
ZJ8_DECK_MAIN
10
77520.0
20
2875.0
30
17000.0
11
80520.0
21
2875.0
31
17000.0
0
LINE
8
ZJ8_DECK_MAIN
10
80520.0
20
2875.0
30
17000.0
11
83520.0
21
2875.0
31
17000.0
0
LINE
8
ZJ8_DECK_MAIN
10
83520.0
20
2875.0
30
17000.0
11
86520.0
21
2875.0
31
17000.0
0
LINE
8
ZJ8_DECK_MAIN
10
86520.0
20
2875.0
30
17000.0
11
89520.0
21
2875.0
31
17000.0
0
LINE
8
ZJ8_DECK_MAIN
10
89520.0
20
2875.0
30
17000.0
11
92520.0
21
2875.0
31
17000.0
0
LINE
8
ZJ8_DECK_MAIN
10
92520.0
20
2875.0
30
17000.0
11
95520.0
21
2875.0
31
17000.0
0
LINE
8
ZJ8_DECK_MAIN
10
95520.0
20
2875.0
30
17000.0
11
98520.0
21
2875.0
31
17000.0
0
LINE
8
ZJ8_DECK_MAIN
10
98520.0
20
2875.0
30
17000.0
11
101520.0
21
2875.0
31
17000.0
0
LINE
8
ZJ8_DECK_MAIN
10
101520.0
20
2875.0
30
17000.0
11
104520.0
21
2875.0
31
17000.0
0
LINE
8
ZJ8_DECK_MAIN
10
104520.0
20
2875.0
30
17000.0
11
107520.0
21
2875.0
31
17000.0
0
LINE
8
ZJ8_DECK_MAIN
10
107520.0
20
2875.0
30
17000.0
11
110520.0
21
2875.0
31
17000.0
0
LINE
8
ZJ8_DECK_MAIN
10
110520.0
20
2875.0
30
17000.0
11
113520.0
21
2875.0
31
17000.0
0
LINE
8
ZJ8_DECK_MAIN
10
113520.0
20
2875.0
30
17000.0
11
116520.0
21
2875.0
31
17000.0
0
LINE
8
ZJ8_DECK_CROSS
10
80520.0
20
-2200.0
30
17000.0
11
80520.0
21
2700.0
31
17000.0
0
LINE
8
ZJ8_DECK_CROSS
10
83520.0
20
-2200.0
30
17000.0
11
83520.0
21
2700.0
31
17000.0
0
LINE
8
ZJ8_DECK_CROSS
10
86520.0
20
-2200.0
30
17000.0
11
86520.0
21
2700.0
31
17000.0
0
LINE
8
ZJ8_DECK_CROSS
10
89520.0
20
-2200.0
30
17000.0
11
89520.0
21
2700.0
31
17000.0
0
LINE
8
ZJ8_DECK_CROSS
10
92520.0
20
-2200.0
30
17000.0
11
92520.0
21
2700.0
31
17000.0
0
LINE
8
ZJ8_DECK_CROSS
10
95520.0
20
-2200.0
30
17000.0
11
95520.0
21
2700.0
31
17000.0
0
LINE
8
ZJ8_DECK_CROSS
10
98520.0
20
-2200.0
30
17000.0
11
98520.0
21
2700.0
31
17000.0
0
LINE
8
ZJ8_DECK_CROSS
10
101520.0
20
-2200.0
30
17000.0
11
101520.0
21
2700.0
31
17000.0
0
LINE
8
ZJ8_DECK_CROSS
10
104520.0
20
-2200.0
30
17000.0
11
104520.0
21
2700.0
31
17000.0
0
LINE
8
ZJ8_DECK_CROSS
10
107520.0
20
-2200.0
30
17000.0
11
107520.0
21
2700.0
31
17000.0
0
LINE
8
ZJ8_DECK_CROSS
10
110520.0
20
-2200.0
30
17000.0
11
110520.0
21
2700.0
31
17000.0
0
LINE
8
ZJ8_DECK_CROSS
10
113520.0
20
-2200.0
30
17000.0
11
113520.0
21
2700.0
31
17000.0
0
LINE
8
ZJ8_DECK_SECONDARY
10
77520.0
20
-1075.0
30
17000.0
11
80520.0
21
-1075.0
31
17000.0
0
LINE
8
ZJ8_DECK_SECONDARY
10
80520.0
20
-1075.0
30
17000.0
11
83520.0
21
-1075.0
31
17000.0
0
LINE
8
ZJ8_DECK_SECONDARY
10
83520.0
20
-1075.0
30
17000.0
11
86520.0
21
-1075.0
31
17000.0
0
LINE
8
ZJ8_DECK_SECONDARY
10
86520.0
20
-1075.0
30
17000.0
11
89520.0
21
-1075.0
31
17000.0
0
LINE
8
ZJ8_DECK_SECONDARY
10
89520.0
20
-1075.0
30
17000.0
11
92520.0
21
-1075.0
31
17000.0
0
LINE
8
ZJ8_DECK_SECONDARY
10
92520.0
20
-1075.0
30
17000.0
11
95520.0
21
-1075.0
31
17000.0
0
LINE
8
ZJ8_DECK_SECONDARY
10
95520.0
20
-1075.0
30
17000.0
11
98520.0
21
-1075.0
31
17000.0
0
LINE
8
ZJ8_DECK_SECONDARY
10
98520.0
20
-1075.0
30
17000.0
11
101520.0
21
-1075.0
31
17000.0
0
LINE
8
ZJ8_DECK_SECONDARY
10
101520.0
20
-1075.0
30
17000.0
11
104520.0
21
-1075.0
31
17000.0
0
LINE
8
ZJ8_DECK_SECONDARY
10
104520.0
20
-1075.0
30
17000.0
11
107520.0
21
-1075.0
31
17000.0
0
LINE
8
ZJ8_DECK_SECONDARY
10
107520.0
20
-1075.0
30
17000.0
11
110520.0
21
-1075.0
31
17000.0
0
LINE
8
ZJ8_DECK_SECONDARY
10
110520.0
20
-1075.0
30
17000.0
11
113520.0
21
-1075.0
31
17000.0
0
LINE
8
ZJ8_DECK_SECONDARY
10
113520.0
20
-1075.0
30
17000.0
11
116520.0
21
-1075.0
31
17000.0
0
LINE
8
ZJ8_DECK_SECONDARY
10
77520.0
20
1075.0
30
17000.0
11
80520.0
21
1075.0
31
17000.0
0
LINE
8
ZJ8_DECK_SECONDARY
10
80520.0
20
1075.0
30
17000.0
11
83520.0
21
1075.0
31
17000.0
0
LINE
8
ZJ8_DECK_SECONDARY
10
83520.0
20
1075.0
30
17000.0
11
86520.0
21
1075.0
31
17000.0
0
LINE
8
ZJ8_DECK_SECONDARY
10
86520.0
20
1075.0
30
17000.0
11
89520.0
21
1075.0
31
17000.0
0
LINE
8
ZJ8_DECK_SECONDARY
10
89520.0
20
1075.0
30
17000.0
11
92520.0
21
1075.0
31
17000.0
0
LINE
8
ZJ8_DECK_SECONDARY
10
92520.0
20
1075.0
30
17000.0
11
95520.0
21
1075.0
31
17000.0
0
LINE
8
ZJ8_DECK_SECONDARY
10
95520.0
20
1075.0
30
17000.0
11
98520.0
21
1075.0
31
17000.0
0
LINE
8
ZJ8_DECK_SECONDARY
10
98520.0
20
1075.0
30
17000.0
11
101520.0
21
1075.0
31
17000.0
0
LINE
8
ZJ8_DECK_SECONDARY
10
101520.0
20
1075.0
30
17000.0
11
104520.0
21
1075.0
31
17000.0
0
LINE
8
ZJ8_DECK_SECONDARY
10
104520.0
20
1075.0
30
17000.0
11
107520.0
21
1075.0
31
17000.0
0
LINE
8
ZJ8_DECK_SECONDARY
10
107520.0
20
1075.0
30
17000.0
11
110520.0
21
1075.0
31
17000.0
0
LINE
8
ZJ8_DECK_SECONDARY
10
110520.0
20
1075.0
30
17000.0
11
113520.0
21
1075.0
31
17000.0
0
LINE
8
ZJ8_DECK_SECONDARY
10
113520.0
20
1075.0
30
17000.0
11
116520.0
21
1075.0
31
17000.0
0
LINE
8
ZJ8_CANTILEVER_EDGE
10
77520.0
20
-2200.0
30
17000.0
11
80520.0
21
-2200.0
31
17000.0
0
LINE
8
ZJ8_CANTILEVER_EDGE
10
80520.0
20
-2200.0
30
17000.0
11
83520.0
21
-2200.0
31
17000.0
0
LINE
8
ZJ8_CANTILEVER_EDGE
10
83520.0
20
-2200.0
30
17000.0
11
86520.0
21
-2200.0
31
17000.0
0
LINE
8
ZJ8_CANTILEVER_EDGE
10
86520.0
20
-2200.0
30
17000.0
11
89520.0
21
-2200.0
31
17000.0
0
LINE
8
ZJ8_CANTILEVER_EDGE
10
89520.0
20
-2200.0
30
17000.0
11
92520.0
21
-2200.0
31
17000.0
0
LINE
8
ZJ8_CANTILEVER_EDGE
10
92520.0
20
-2200.0
30
17000.0
11
95520.0
21
-2200.0
31
17000.0
0
LINE
8
ZJ8_CANTILEVER_EDGE
10
95520.0
20
-2200.0
30
17000.0
11
98520.0
21
-2200.0
31
17000.0
0
LINE
8
ZJ8_CANTILEVER_EDGE
10
98520.0
20
-2200.0
30
17000.0
11
101520.0
21
-2200.0
31
17000.0
0
LINE
8
ZJ8_CANTILEVER_EDGE
10
101520.0
20
-2200.0
30
17000.0
11
104520.0
21
-2200.0
31
17000.0
0
LINE
8
ZJ8_CANTILEVER_EDGE
10
104520.0
20
-2200.0
30
17000.0
11
107520.0
21
-2200.0
31
17000.0
0
LINE
8
ZJ8_CANTILEVER_EDGE
10
107520.0
20
-2200.0
30
17000.0
11
110520.0
21
-2200.0
31
17000.0
0
LINE
8
ZJ8_CANTILEVER_EDGE
10
110520.0
20
-2200.0
30
17000.0
11
113520.0
21
-2200.0
31
17000.0
0
LINE
8
ZJ8_CANTILEVER_EDGE
10
113520.0
20
-2200.0
30
17000.0
11
116520.0
21
-2200.0
31
17000.0
0
LINE
8
ZJ8_CANTILEVER_EDGE
10
77520.0
20
2700.0
30
17000.0
11
80520.0
21
2700.0
31
17000.0
0
LINE
8
ZJ8_CANTILEVER_EDGE
10
80520.0
20
2700.0
30
17000.0
11
83520.0
21
2700.0
31
17000.0
0
LINE
8
ZJ8_CANTILEVER_EDGE
10
83520.0
20
2700.0
30
17000.0
11
86520.0
21
2700.0
31
17000.0
0
LINE
8
ZJ8_CANTILEVER_EDGE
10
86520.0
20
2700.0
30
17000.0
11
89520.0
21
2700.0
31
17000.0
0
LINE
8
ZJ8_CANTILEVER_EDGE
10
89520.0
20
2700.0
30
17000.0
11
92520.0
21
2700.0
31
17000.0
0
LINE
8
ZJ8_CANTILEVER_EDGE
10
92520.0
20
2700.0
30
17000.0
11
95520.0
21
2700.0
31
17000.0
0
LINE
8
ZJ8_CANTILEVER_EDGE
10
95520.0
20
2700.0
30
17000.0
11
98520.0
21
2700.0
31
17000.0
0
LINE
8
ZJ8_CANTILEVER_EDGE
10
98520.0
20
2700.0
30
17000.0
11
101520.0
21
2700.0
31
17000.0
0
LINE
8
ZJ8_CANTILEVER_EDGE
10
101520.0
20
2700.0
30
17000.0
11
104520.0
21
2700.0
31
17000.0
0
LINE
8
ZJ8_CANTILEVER_EDGE
10
104520.0
20
2700.0
30
17000.0
11
107520.0
21
2700.0
31
17000.0
0
LINE
8
ZJ8_CANTILEVER_EDGE
10
107520.0
20
2700.0
30
17000.0
11
110520.0
21
2700.0
31
17000.0
0
LINE
8
ZJ8_CANTILEVER_EDGE
10
110520.0
20
2700.0
30
17000.0
11
113520.0
21
2700.0
31
17000.0
0
LINE
8
ZJ8_CANTILEVER_EDGE
10
113520.0
20
2700.0
30
17000.0
11
116520.0
21
2700.0
31
17000.0
0
LINE
8
ZJ8_PLATFORM_BRACE
10
77520.0
20
-2875.0
30
17000.0
11
80520.0
21
2875.0
31
17000.0
0
LINE
8
ZJ8_PLATFORM_BRACE
10
80520.0
20
2875.0
30
17000.0
11
83520.0
21
-2875.0
31
17000.0
0
LINE
8
ZJ8_PLATFORM_BRACE
10
83520.0
20
-2875.0
30
17000.0
11
86520.0
21
2875.0
31
17000.0
0
LINE
8
ZJ8_PLATFORM_BRACE
10
86520.0
20
2875.0
30
17000.0
11
89520.0
21
-2875.0
31
17000.0
0
LINE
8
ZJ8_PLATFORM_BRACE
10
89520.0
20
-2875.0
30
17000.0
11
92520.0
21
2875.0
31
17000.0
0
LINE
8
ZJ8_PLATFORM_BRACE
10
92520.0
20
2875.0
30
17000.0
11
95520.0
21
-2875.0
31
17000.0
0
LINE
8
ZJ8_PLATFORM_BRACE
10
95520.0
20
-2875.0
30
17000.0
11
98520.0
21
2875.0
31
17000.0
0
LINE
8
ZJ8_PLATFORM_BRACE
10
98520.0
20
2875.0
30
17000.0
11
101520.0
21
-2875.0
31
17000.0
0
LINE
8
ZJ8_PLATFORM_BRACE
10
101520.0
20
-2875.0
30
17000.0
11
104520.0
21
2875.0
31
17000.0
0
LINE
8
ZJ8_PLATFORM_BRACE
10
104520.0
20
2875.0
30
17000.0
11
107520.0
21
-2875.0
31
17000.0
0
LINE
8
ZJ8_PLATFORM_BRACE
10
107520.0
20
-2875.0
30
17000.0
11
110520.0
21
2875.0
31
17000.0
0
LINE
8
ZJ8_PLATFORM_BRACE
10
110520.0
20
2875.0
30
17000.0
11
113520.0
21
-2875.0
31
17000.0
0
LINE
8
ZJ8_PLATFORM_BRACE
10
113520.0
20
-2875.0
30
17000.0
11
116520.0
21
2875.0
31
17000.0
0
LINE
8
ZJ8_TRUSS_UPPER
10
77520.0
20
-2875.0
30
17000.0
11
79470.0
21
-2875.0
31
17000.0
0
LINE
8
ZJ8_TRUSS_UPPER
10
79470.0
20
-2875.0
30
17000.0
11
81420.0
21
-2875.0
31
17000.0
0
LINE
8
ZJ8_TRUSS_UPPER
10
81420.0
20
-2875.0
30
17000.0
11
83370.0
21
-2875.0
31
17000.0
0
LINE
8
ZJ8_TRUSS_UPPER
10
83370.0
20
-2875.0
30
17000.0
11
85320.0
21
-2875.0
31
17000.0
0
LINE
8
ZJ8_TRUSS_UPPER
10
85320.0
20
-2875.0
30
17000.0
11
87270.0
21
-2875.0
31
17000.0
0
LINE
8
ZJ8_TRUSS_UPPER
10
87270.0
20
-2875.0
30
17000.0
11
89220.0
21
-2875.0
31
17000.0
0
LINE
8
ZJ8_TRUSS_UPPER
10
89220.0
20
-2875.0
30
17000.0
11
91170.0
21
-2875.0
31
17000.0
0
LINE
8
ZJ8_TRUSS_UPPER
10
91170.0
20
-2875.0
30
17000.0
11
93120.0
21
-2875.0
31
17000.0
0
LINE
8
ZJ8_TRUSS_UPPER
10
93120.0
20
-2875.0
30
17000.0
11
95070.0
21
-2875.0
31
17000.0
0
LINE
8
ZJ8_TRUSS_UPPER
10
95070.0
20
-2875.0
30
17000.0
11
97020.0
21
-2875.0
31
17000.0
0
LINE
8
ZJ8_TRUSS_UPPER
10
97020.0
20
-2875.0
30
17000.0
11
98970.0
21
-2875.0
31
17000.0
0
LINE
8
ZJ8_TRUSS_UPPER
10
98970.0
20
-2875.0
30
17000.0
11
100920.0
21
-2875.0
31
17000.0
0
LINE
8
ZJ8_TRUSS_UPPER
10
100920.0
20
-2875.0
30
17000.0
11
102870.0
21
-2875.0
31
17000.0
0
LINE
8
ZJ8_TRUSS_UPPER
10
102870.0
20
-2875.0
30
17000.0
11
104820.0
21
-2875.0
31
17000.0
0
LINE
8
ZJ8_TRUSS_UPPER
10
104820.0
20
-2875.0
30
17000.0
11
106770.0
21
-2875.0
31
17000.0
0
LINE
8
ZJ8_TRUSS_UPPER
10
106770.0
20
-2875.0
30
17000.0
11
108720.0
21
-2875.0
31
17000.0
0
LINE
8
ZJ8_TRUSS_UPPER
10
108720.0
20
-2875.0
30
17000.0
11
110670.0
21
-2875.0
31
17000.0
0
LINE
8
ZJ8_TRUSS_UPPER
10
110670.0
20
-2875.0
30
17000.0
11
112620.0
21
-2875.0
31
17000.0
0
LINE
8
ZJ8_TRUSS_UPPER
10
112620.0
20
-2875.0
30
17000.0
11
114570.0
21
-2875.0
31
17000.0
0
LINE
8
ZJ8_TRUSS_UPPER
10
114570.0
20
-2875.0
30
17000.0
11
116520.0
21
-2875.0
31
17000.0
0
LINE
8
ZJ8_TRUSS_LOWER
10
77520.0
20
-2875.0
30
15200.0
11
79470.0
21
-2875.0
31
15200.0
0
LINE
8
ZJ8_TRUSS_LOWER
10
79470.0
20
-2875.0
30
15200.0
11
81420.0
21
-2875.0
31
15200.0
0
LINE
8
ZJ8_TRUSS_LOWER
10
81420.0
20
-2875.0
30
15200.0
11
83370.0
21
-2875.0
31
15200.0
0
LINE
8
ZJ8_TRUSS_LOWER
10
83370.0
20
-2875.0
30
15200.0
11
85320.0
21
-2875.0
31
15200.0
0
LINE
8
ZJ8_TRUSS_LOWER
10
85320.0
20
-2875.0
30
15200.0
11
87270.0
21
-2875.0
31
15200.0
0
LINE
8
ZJ8_TRUSS_LOWER
10
87270.0
20
-2875.0
30
15200.0
11
89220.0
21
-2875.0
31
15200.0
0
LINE
8
ZJ8_TRUSS_LOWER
10
89220.0
20
-2875.0
30
15200.0
11
91170.0
21
-2875.0
31
15200.0
0
LINE
8
ZJ8_TRUSS_LOWER
10
91170.0
20
-2875.0
30
15200.0
11
93120.0
21
-2875.0
31
15200.0
0
LINE
8
ZJ8_TRUSS_LOWER
10
93120.0
20
-2875.0
30
15200.0
11
95070.0
21
-2875.0
31
15200.0
0
LINE
8
ZJ8_TRUSS_LOWER
10
95070.0
20
-2875.0
30
15200.0
11
97020.0
21
-2875.0
31
15200.0
0
LINE
8
ZJ8_TRUSS_LOWER
10
97020.0
20
-2875.0
30
15200.0
11
98970.0
21
-2875.0
31
15200.0
0
LINE
8
ZJ8_TRUSS_LOWER
10
98970.0
20
-2875.0
30
15200.0
11
100920.0
21
-2875.0
31
15200.0
0
LINE
8
ZJ8_TRUSS_LOWER
10
100920.0
20
-2875.0
30
15200.0
11
102870.0
21
-2875.0
31
15200.0
0
LINE
8
ZJ8_TRUSS_LOWER
10
102870.0
20
-2875.0
30
15200.0
11
104820.0
21
-2875.0
31
15200.0
0
LINE
8
ZJ8_TRUSS_LOWER
10
104820.0
20
-2875.0
30
15200.0
11
106770.0
21
-2875.0
31
15200.0
0
LINE
8
ZJ8_TRUSS_LOWER
10
106770.0
20
-2875.0
30
15200.0
11
108720.0
21
-2875.0
31
15200.0
0
LINE
8
ZJ8_TRUSS_LOWER
10
108720.0
20
-2875.0
30
15200.0
11
110670.0
21
-2875.0
31
15200.0
0
LINE
8
ZJ8_TRUSS_LOWER
10
110670.0
20
-2875.0
30
15200.0
11
112620.0
21
-2875.0
31
15200.0
0
LINE
8
ZJ8_TRUSS_LOWER
10
112620.0
20
-2875.0
30
15200.0
11
114570.0
21
-2875.0
31
15200.0
0
LINE
8
ZJ8_TRUSS_LOWER
10
114570.0
20
-2875.0
30
15200.0
11
116520.0
21
-2875.0
31
15200.0
0
LINE
8
ZJ8_TRUSS_VERTICAL
10
77520.0
20
-2875.0
30
17000.0
11
77520.0
21
-2875.0
31
15200.0
0
LINE
8
ZJ8_TRUSS_VERTICAL
10
79470.0
20
-2875.0
30
17000.0
11
79470.0
21
-2875.0
31
15200.0
0
LINE
8
ZJ8_TRUSS_VERTICAL
10
81420.0
20
-2875.0
30
17000.0
11
81420.0
21
-2875.0
31
15200.0
0
LINE
8
ZJ8_TRUSS_VERTICAL
10
83370.0
20
-2875.0
30
17000.0
11
83370.0
21
-2875.0
31
15200.0
0
LINE
8
ZJ8_TRUSS_VERTICAL
10
85320.0
20
-2875.0
30
17000.0
11
85320.0
21
-2875.0
31
15200.0
0
LINE
8
ZJ8_TRUSS_VERTICAL
10
87270.0
20
-2875.0
30
17000.0
11
87270.0
21
-2875.0
31
15200.0
0
LINE
8
ZJ8_TRUSS_VERTICAL
10
89220.0
20
-2875.0
30
17000.0
11
89220.0
21
-2875.0
31
15200.0
0
LINE
8
ZJ8_TRUSS_VERTICAL
10
91170.0
20
-2875.0
30
17000.0
11
91170.0
21
-2875.0
31
15200.0
0
LINE
8
ZJ8_TRUSS_VERTICAL
10
93120.0
20
-2875.0
30
17000.0
11
93120.0
21
-2875.0
31
15200.0
0
LINE
8
ZJ8_TRUSS_VERTICAL
10
95070.0
20
-2875.0
30
17000.0
11
95070.0
21
-2875.0
31
15200.0
0
LINE
8
ZJ8_TRUSS_VERTICAL
10
97020.0
20
-2875.0
30
17000.0
11
97020.0
21
-2875.0
31
15200.0
0
LINE
8
ZJ8_TRUSS_VERTICAL
10
98970.0
20
-2875.0
30
17000.0
11
98970.0
21
-2875.0
31
15200.0
0
LINE
8
ZJ8_TRUSS_VERTICAL
10
100920.0
20
-2875.0
30
17000.0
11
100920.0
21
-2875.0
31
15200.0
0
LINE
8
ZJ8_TRUSS_VERTICAL
10
102870.0
20
-2875.0
30
17000.0
11
102870.0
21
-2875.0
31
15200.0
0
LINE
8
ZJ8_TRUSS_VERTICAL
10
104820.0
20
-2875.0
30
17000.0
11
104820.0
21
-2875.0
31
15200.0
0
LINE
8
ZJ8_TRUSS_VERTICAL
10
106770.0
20
-2875.0
30
17000.0
11
106770.0
21
-2875.0
31
15200.0
0
LINE
8
ZJ8_TRUSS_VERTICAL
10
108720.0
20
-2875.0
30
17000.0
11
108720.0
21
-2875.0
31
15200.0
0
LINE
8
ZJ8_TRUSS_VERTICAL
10
110670.0
20
-2875.0
30
17000.0
11
110670.0
21
-2875.0
31
15200.0
0
LINE
8
ZJ8_TRUSS_VERTICAL
10
112620.0
20
-2875.0
30
17000.0
11
112620.0
21
-2875.0
31
15200.0
0
LINE
8
ZJ8_TRUSS_VERTICAL
10
114570.0
20
-2875.0
30
17000.0
11
114570.0
21
-2875.0
31
15200.0
0
LINE
8
ZJ8_TRUSS_VERTICAL
10
116520.0
20
-2875.0
30
17000.0
11
116520.0
21
-2875.0
31
15200.0
0
LINE
8
ZJ8_TRUSS_DIAGONAL
10
77520.0
20
-2875.0
30
15200.0
11
79470.0
21
-2875.0
31
17000.0
0
LINE
8
ZJ8_TRUSS_DIAGONAL
10
79470.0
20
-2875.0
30
17000.0
11
81420.0
21
-2875.0
31
15200.0
0
LINE
8
ZJ8_TRUSS_DIAGONAL
10
81420.0
20
-2875.0
30
15200.0
11
83370.0
21
-2875.0
31
17000.0
0
LINE
8
ZJ8_TRUSS_DIAGONAL
10
83370.0
20
-2875.0
30
17000.0
11
85320.0
21
-2875.0
31
15200.0
0
LINE
8
ZJ8_TRUSS_DIAGONAL
10
85320.0
20
-2875.0
30
15200.0
11
87270.0
21
-2875.0
31
17000.0
0
LINE
8
ZJ8_TRUSS_DIAGONAL
10
87270.0
20
-2875.0
30
17000.0
11
89220.0
21
-2875.0
31
15200.0
0
LINE
8
ZJ8_TRUSS_DIAGONAL
10
89220.0
20
-2875.0
30
15200.0
11
91170.0
21
-2875.0
31
17000.0
0
LINE
8
ZJ8_TRUSS_DIAGONAL
10
91170.0
20
-2875.0
30
17000.0
11
93120.0
21
-2875.0
31
15200.0
0
LINE
8
ZJ8_TRUSS_DIAGONAL
10
93120.0
20
-2875.0
30
15200.0
11
95070.0
21
-2875.0
31
17000.0
0
LINE
8
ZJ8_TRUSS_DIAGONAL
10
95070.0
20
-2875.0
30
17000.0
11
97020.0
21
-2875.0
31
15200.0
0
LINE
8
ZJ8_TRUSS_DIAGONAL
10
97020.0
20
-2875.0
30
15200.0
11
98970.0
21
-2875.0
31
17000.0
0
LINE
8
ZJ8_TRUSS_DIAGONAL
10
98970.0
20
-2875.0
30
17000.0
11
100920.0
21
-2875.0
31
15200.0
0
LINE
8
ZJ8_TRUSS_DIAGONAL
10
100920.0
20
-2875.0
30
15200.0
11
102870.0
21
-2875.0
31
17000.0
0
LINE
8
ZJ8_TRUSS_DIAGONAL
10
102870.0
20
-2875.0
30
17000.0
11
104820.0
21
-2875.0
31
15200.0
0
LINE
8
ZJ8_TRUSS_DIAGONAL
10
104820.0
20
-2875.0
30
15200.0
11
106770.0
21
-2875.0
31
17000.0
0
LINE
8
ZJ8_TRUSS_DIAGONAL
10
106770.0
20
-2875.0
30
17000.0
11
108720.0
21
-2875.0
31
15200.0
0
LINE
8
ZJ8_TRUSS_DIAGONAL
10
108720.0
20
-2875.0
30
15200.0
11
110670.0
21
-2875.0
31
17000.0
0
LINE
8
ZJ8_TRUSS_DIAGONAL
10
110670.0
20
-2875.0
30
17000.0
11
112620.0
21
-2875.0
31
15200.0
0
LINE
8
ZJ8_TRUSS_DIAGONAL
10
112620.0
20
-2875.0
30
15200.0
11
114570.0
21
-2875.0
31
17000.0
0
LINE
8
ZJ8_TRUSS_DIAGONAL
10
114570.0
20
-2875.0
30
17000.0
11
116520.0
21
-2875.0
31
15200.0
0
LINE
8
ZJ8_TRUSS_UPPER
10
77520.0
20
2875.0
30
17000.0
11
79470.0
21
2875.0
31
17000.0
0
LINE
8
ZJ8_TRUSS_UPPER
10
79470.0
20
2875.0
30
17000.0
11
81420.0
21
2875.0
31
17000.0
0
LINE
8
ZJ8_TRUSS_UPPER
10
81420.0
20
2875.0
30
17000.0
11
83370.0
21
2875.0
31
17000.0
0
LINE
8
ZJ8_TRUSS_UPPER
10
83370.0
20
2875.0
30
17000.0
11
85320.0
21
2875.0
31
17000.0
0
LINE
8
ZJ8_TRUSS_UPPER
10
85320.0
20
2875.0
30
17000.0
11
87270.0
21
2875.0
31
17000.0
0
LINE
8
ZJ8_TRUSS_UPPER
10
87270.0
20
2875.0
30
17000.0
11
89220.0
21
2875.0
31
17000.0
0
LINE
8
ZJ8_TRUSS_UPPER
10
89220.0
20
2875.0
30
17000.0
11
91170.0
21
2875.0
31
17000.0
0
LINE
8
ZJ8_TRUSS_UPPER
10
91170.0
20
2875.0
30
17000.0
11
93120.0
21
2875.0
31
17000.0
0
LINE
8
ZJ8_TRUSS_UPPER
10
93120.0
20
2875.0
30
17000.0
11
95070.0
21
2875.0
31
17000.0
0
LINE
8
ZJ8_TRUSS_UPPER
10
95070.0
20
2875.0
30
17000.0
11
97020.0
21
2875.0
31
17000.0
0
LINE
8
ZJ8_TRUSS_UPPER
10
97020.0
20
2875.0
30
17000.0
11
98970.0
21
2875.0
31
17000.0
0
LINE
8
ZJ8_TRUSS_UPPER
10
98970.0
20
2875.0
30
17000.0
11
100920.0
21
2875.0
31
17000.0
0
LINE
8
ZJ8_TRUSS_UPPER
10
100920.0
20
2875.0
30
17000.0
11
102870.0
21
2875.0
31
17000.0
0
LINE
8
ZJ8_TRUSS_UPPER
10
102870.0
20
2875.0
30
17000.0
11
104820.0
21
2875.0
31
17000.0
0
LINE
8
ZJ8_TRUSS_UPPER
10
104820.0
20
2875.0
30
17000.0
11
106770.0
21
2875.0
31
17000.0
0
LINE
8
ZJ8_TRUSS_UPPER
10
106770.0
20
2875.0
30
17000.0
11
108720.0
21
2875.0
31
17000.0
0
LINE
8
ZJ8_TRUSS_UPPER
10
108720.0
20
2875.0
30
17000.0
11
110670.0
21
2875.0
31
17000.0
0
LINE
8
ZJ8_TRUSS_UPPER
10
110670.0
20
2875.0
30
17000.0
11
112620.0
21
2875.0
31
17000.0
0
LINE
8
ZJ8_TRUSS_UPPER
10
112620.0
20
2875.0
30
17000.0
11
114570.0
21
2875.0
31
17000.0
0
LINE
8
ZJ8_TRUSS_UPPER
10
114570.0
20
2875.0
30
17000.0
11
116520.0
21
2875.0
31
17000.0
0
LINE
8
ZJ8_TRUSS_LOWER
10
77520.0
20
2875.0
30
15200.0
11
79470.0
21
2875.0
31
15200.0
0
LINE
8
ZJ8_TRUSS_LOWER
10
79470.0
20
2875.0
30
15200.0
11
81420.0
21
2875.0
31
15200.0
0
LINE
8
ZJ8_TRUSS_LOWER
10
81420.0
20
2875.0
30
15200.0
11
83370.0
21
2875.0
31
15200.0
0
LINE
8
ZJ8_TRUSS_LOWER
10
83370.0
20
2875.0
30
15200.0
11
85320.0
21
2875.0
31
15200.0
0
LINE
8
ZJ8_TRUSS_LOWER
10
85320.0
20
2875.0
30
15200.0
11
87270.0
21
2875.0
31
15200.0
0
LINE
8
ZJ8_TRUSS_LOWER
10
87270.0
20
2875.0
30
15200.0
11
89220.0
21
2875.0
31
15200.0
0
LINE
8
ZJ8_TRUSS_LOWER
10
89220.0
20
2875.0
30
15200.0
11
91170.0
21
2875.0
31
15200.0
0
LINE
8
ZJ8_TRUSS_LOWER
10
91170.0
20
2875.0
30
15200.0
11
93120.0
21
2875.0
31
15200.0
0
LINE
8
ZJ8_TRUSS_LOWER
10
93120.0
20
2875.0
30
15200.0
11
95070.0
21
2875.0
31
15200.0
0
LINE
8
ZJ8_TRUSS_LOWER
10
95070.0
20
2875.0
30
15200.0
11
97020.0
21
2875.0
31
15200.0
0
LINE
8
ZJ8_TRUSS_LOWER
10
97020.0
20
2875.0
30
15200.0
11
98970.0
21
2875.0
31
15200.0
0
LINE
8
ZJ8_TRUSS_LOWER
10
98970.0
20
2875.0
30
15200.0
11
100920.0
21
2875.0
31
15200.0
0
LINE
8
ZJ8_TRUSS_LOWER
10
100920.0
20
2875.0
30
15200.0
11
102870.0
21
2875.0
31
15200.0
0
LINE
8
ZJ8_TRUSS_LOWER
10
102870.0
20
2875.0
30
15200.0
11
104820.0
21
2875.0
31
15200.0
0
LINE
8
ZJ8_TRUSS_LOWER
10
104820.0
20
2875.0
30
15200.0
11
106770.0
21
2875.0
31
15200.0
0
LINE
8
ZJ8_TRUSS_LOWER
10
106770.0
20
2875.0
30
15200.0
11
108720.0
21
2875.0
31
15200.0
0
LINE
8
ZJ8_TRUSS_LOWER
10
108720.0
20
2875.0
30
15200.0
11
110670.0
21
2875.0
31
15200.0
0
LINE
8
ZJ8_TRUSS_LOWER
10
110670.0
20
2875.0
30
15200.0
11
112620.0
21
2875.0
31
15200.0
0
LINE
8
ZJ8_TRUSS_LOWER
10
112620.0
20
2875.0
30
15200.0
11
114570.0
21
2875.0
31
15200.0
0
LINE
8
ZJ8_TRUSS_LOWER
10
114570.0
20
2875.0
30
15200.0
11
116520.0
21
2875.0
31
15200.0
0
LINE
8
ZJ8_TRUSS_VERTICAL
10
77520.0
20
2875.0
30
17000.0
11
77520.0
21
2875.0
31
15200.0
0
LINE
8
ZJ8_TRUSS_VERTICAL
10
79470.0
20
2875.0
30
17000.0
11
79470.0
21
2875.0
31
15200.0
0
LINE
8
ZJ8_TRUSS_VERTICAL
10
81420.0
20
2875.0
30
17000.0
11
81420.0
21
2875.0
31
15200.0
0
LINE
8
ZJ8_TRUSS_VERTICAL
10
83370.0
20
2875.0
30
17000.0
11
83370.0
21
2875.0
31
15200.0
0
LINE
8
ZJ8_TRUSS_VERTICAL
10
85320.0
20
2875.0
30
17000.0
11
85320.0
21
2875.0
31
15200.0
0
LINE
8
ZJ8_TRUSS_VERTICAL
10
87270.0
20
2875.0
30
17000.0
11
87270.0
21
2875.0
31
15200.0
0
LINE
8
ZJ8_TRUSS_VERTICAL
10
89220.0
20
2875.0
30
17000.0
11
89220.0
21
2875.0
31
15200.0
0
LINE
8
ZJ8_TRUSS_VERTICAL
10
91170.0
20
2875.0
30
17000.0
11
91170.0
21
2875.0
31
15200.0
0
LINE
8
ZJ8_TRUSS_VERTICAL
10
93120.0
20
2875.0
30
17000.0
11
93120.0
21
2875.0
31
15200.0
0
LINE
8
ZJ8_TRUSS_VERTICAL
10
95070.0
20
2875.0
30
17000.0
11
95070.0
21
2875.0
31
15200.0
0
LINE
8
ZJ8_TRUSS_VERTICAL
10
97020.0
20
2875.0
30
17000.0
11
97020.0
21
2875.0
31
15200.0
0
LINE
8
ZJ8_TRUSS_VERTICAL
10
98970.0
20
2875.0
30
17000.0
11
98970.0
21
2875.0
31
15200.0
0
LINE
8
ZJ8_TRUSS_VERTICAL
10
100920.0
20
2875.0
30
17000.0
11
100920.0
21
2875.0
31
15200.0
0
LINE
8
ZJ8_TRUSS_VERTICAL
10
102870.0
20
2875.0
30
17000.0
11
102870.0
21
2875.0
31
15200.0
0
LINE
8
ZJ8_TRUSS_VERTICAL
10
104820.0
20
2875.0
30
17000.0
11
104820.0
21
2875.0
31
15200.0
0
LINE
8
ZJ8_TRUSS_VERTICAL
10
106770.0
20
2875.0
30
17000.0
11
106770.0
21
2875.0
31
15200.0
0
LINE
8
ZJ8_TRUSS_VERTICAL
10
108720.0
20
2875.0
30
17000.0
11
108720.0
21
2875.0
31
15200.0
0
LINE
8
ZJ8_TRUSS_VERTICAL
10
110670.0
20
2875.0
30
17000.0
11
110670.0
21
2875.0
31
15200.0
0
LINE
8
ZJ8_TRUSS_VERTICAL
10
112620.0
20
2875.0
30
17000.0
11
112620.0
21
2875.0
31
15200.0
0
LINE
8
ZJ8_TRUSS_VERTICAL
10
114570.0
20
2875.0
30
17000.0
11
114570.0
21
2875.0
31
15200.0
0
LINE
8
ZJ8_TRUSS_VERTICAL
10
116520.0
20
2875.0
30
17000.0
11
116520.0
21
2875.0
31
15200.0
0
LINE
8
ZJ8_TRUSS_DIAGONAL
10
77520.0
20
2875.0
30
15200.0
11
79470.0
21
2875.0
31
17000.0
0
LINE
8
ZJ8_TRUSS_DIAGONAL
10
79470.0
20
2875.0
30
17000.0
11
81420.0
21
2875.0
31
15200.0
0
LINE
8
ZJ8_TRUSS_DIAGONAL
10
81420.0
20
2875.0
30
15200.0
11
83370.0
21
2875.0
31
17000.0
0
LINE
8
ZJ8_TRUSS_DIAGONAL
10
83370.0
20
2875.0
30
17000.0
11
85320.0
21
2875.0
31
15200.0
0
LINE
8
ZJ8_TRUSS_DIAGONAL
10
85320.0
20
2875.0
30
15200.0
11
87270.0
21
2875.0
31
17000.0
0
LINE
8
ZJ8_TRUSS_DIAGONAL
10
87270.0
20
2875.0
30
17000.0
11
89220.0
21
2875.0
31
15200.0
0
LINE
8
ZJ8_TRUSS_DIAGONAL
10
89220.0
20
2875.0
30
15200.0
11
91170.0
21
2875.0
31
17000.0
0
LINE
8
ZJ8_TRUSS_DIAGONAL
10
91170.0
20
2875.0
30
17000.0
11
93120.0
21
2875.0
31
15200.0
0
LINE
8
ZJ8_TRUSS_DIAGONAL
10
93120.0
20
2875.0
30
15200.0
11
95070.0
21
2875.0
31
17000.0
0
LINE
8
ZJ8_TRUSS_DIAGONAL
10
95070.0
20
2875.0
30
17000.0
11
97020.0
21
2875.0
31
15200.0
0
LINE
8
ZJ8_TRUSS_DIAGONAL
10
97020.0
20
2875.0
30
15200.0
11
98970.0
21
2875.0
31
17000.0
0
LINE
8
ZJ8_TRUSS_DIAGONAL
10
98970.0
20
2875.0
30
17000.0
11
100920.0
21
2875.0
31
15200.0
0
LINE
8
ZJ8_TRUSS_DIAGONAL
10
100920.0
20
2875.0
30
15200.0
11
102870.0
21
2875.0
31
17000.0
0
LINE
8
ZJ8_TRUSS_DIAGONAL
10
102870.0
20
2875.0
30
17000.0
11
104820.0
21
2875.0
31
15200.0
0
LINE
8
ZJ8_TRUSS_DIAGONAL
10
104820.0
20
2875.0
30
15200.0
11
106770.0
21
2875.0
31
17000.0
0
LINE
8
ZJ8_TRUSS_DIAGONAL
10
106770.0
20
2875.0
30
17000.0
11
108720.0
21
2875.0
31
15200.0
0
LINE
8
ZJ8_TRUSS_DIAGONAL
10
108720.0
20
2875.0
30
15200.0
11
110670.0
21
2875.0
31
17000.0
0
LINE
8
ZJ8_TRUSS_DIAGONAL
10
110670.0
20
2875.0
30
17000.0
11
112620.0
21
2875.0
31
15200.0
0
LINE
8
ZJ8_TRUSS_DIAGONAL
10
112620.0
20
2875.0
30
15200.0
11
114570.0
21
2875.0
31
17000.0
0
LINE
8
ZJ8_TRUSS_DIAGONAL
10
114570.0
20
2875.0
30
17000.0
11
116520.0
21
2875.0
31
15200.0
0
LINE
8
ZJ8_DECK_MAIN
10
116520.0
20
-2875.0
30
17000.0
11
119520.0
21
-2875.0
31
17000.0
0
LINE
8
ZJ8_DECK_MAIN
10
116520.0
20
2875.0
30
17000.0
11
119520.0
21
2875.0
31
17000.0
0
LINE
8
ZJ8_DECK_SECONDARY
10
116520.0
20
-1075.0
30
17000.0
11
119520.0
21
-1075.0
31
17000.0
0
LINE
8
ZJ8_DECK_SECONDARY
10
116520.0
20
1075.0
30
17000.0
11
119520.0
21
1075.0
31
17000.0
0
LINE
8
ZJ8_CANTILEVER_EDGE
10
116520.0
20
-2200.0
30
17000.0
11
119520.0
21
-2200.0
31
17000.0
0
LINE
8
ZJ8_CANTILEVER_EDGE
10
116520.0
20
2700.0
30
17000.0
11
119520.0
21
2700.0
31
17000.0
0
LINE
8
ZJ8_PLATFORM_BRACE
10
116520.0
20
-2875.0
30
17000.0
11
119520.0
21
2875.0
31
17000.0
0
LINE
8
ZJ8_LONGITUDINAL_BRACE
10
116520.0
20
-2875.0
30
0.0
11
119520.0
21
-2875.0
31
17000.0
0
LINE
8
ZJ8_LONGITUDINAL_BRACE
10
116520.0
20
2875.0
30
0.0
11
119520.0
21
2875.0
31
17000.0
0
LINE
8
ZJ8_SPLICE_JOINT
10
3000.0
20
-3675.0
30
0.0
11
3000.0
21
3675.0
31
21000.0
0
TEXT
8
ZJ8_SPLICE_TEXT
10
3250.0
20
3975.0
30
21000.0
40
450.0
1
SPLICE P1/P2
0
LINE
8
ZJ8_SPLICE_JOINT
10
41520.0
20
-3675.0
30
0.0
11
41520.0
21
3675.0
31
21000.0
0
TEXT
8
ZJ8_SPLICE_TEXT
10
41770.0
20
3975.0
30
21000.0
40
450.0
1
SPLICE P2/P3
0
LINE
8
ZJ8_SPLICE_JOINT
10
83520.0
20
-3675.0
30
0.0
11
83520.0
21
3675.0
31
21000.0
0
TEXT
8
ZJ8_SPLICE_TEXT
10
83770.0
20
3975.0
30
21000.0
40
450.0
1
SPLICE P3/P4
0
ENDSEC
0
EOF
