0
SECTION
2
HEADER
9
$INSUNITS
70
4
0
ENDSEC
0
SECTION
2
TABLES
0
TABLE
2
LAYER
70
12
0
LAYER
2
ZJ8_DECK_MAIN
70
0
62
4
6
CONTINUOUS
0
LAYER
2
ZJ8_DECK_CROSS
70
0
62
4
6
CONTINUOUS
0
LAYER
2
ZJ8_DECK_SECONDARY
70
0
62
3
6
CONTINUOUS
0
LAYER
2
ZJ8_CANTILEVER_EDGE
70
0
62
3
6
CONTINUOUS
0
LAYER
2
ZJ8_PLATFORM_BRACE
70
0
62
1
6
CONTINUOUS
0
LAYER
2
ZJ8_COLUMN
70
0
62
8
6
CONTINUOUS
0
LAYER
2
ZJ8_TRANSVERSE_BRACE
70
0
62
1
6
CONTINUOUS
0
LAYER
2
ZJ8_LONGITUDINAL_BRACE
70
0
62
1
6
CONTINUOUS
0
LAYER
2
ZJ8_TRUSS_UPPER
70
0
62
5
6
CONTINUOUS
0
LAYER
2
ZJ8_TRUSS_LOWER
70
0
62
5
6
CONTINUOUS
0
LAYER
2
ZJ8_TRUSS_VERTICAL
70
0
62
5
6
CONTINUOUS
0
LAYER
2
ZJ8_TRUSS_DIAGONAL
70
0
62
5
6
CONTINUOUS
0
ENDTAB
0
ENDSEC
0
SECTION
2
ENTITIES
0
LINE
8
ZJ8_COLUMN
10
0.0
20
-2875.0
30
0.0
11
0.0
21
-2875.0
31
4250.0
0
LINE
8
ZJ8_COLUMN
10
0.0
20
-2875.0
30
4250.0
11
0.0
21
-2875.0
31
8500.0
0
LINE
8
ZJ8_COLUMN
10
0.0
20
-2875.0
30
8500.0
11
0.0
21
-2875.0
31
12750.0
0
LINE
8
ZJ8_COLUMN
10
0.0
20
-2875.0
30
12750.0
11
0.0
21
-2875.0
31
17000.0
0
LINE
8
ZJ8_COLUMN
10
0.0
20
2875.0
30
0.0
11
0.0
21
2875.0
31
4250.0
0
LINE
8
ZJ8_COLUMN
10
0.0
20
2875.0
30
4250.0
11
0.0
21
2875.0
31
8500.0
0
LINE
8
ZJ8_COLUMN
10
0.0
20
2875.0
30
8500.0
11
0.0
21
2875.0
31
12750.0
0
LINE
8
ZJ8_COLUMN
10
0.0
20
2875.0
30
12750.0
11
0.0
21
2875.0
31
17000.0
0
LINE
8
ZJ8_DECK_CROSS
10
0.0
20
-2200.0
30
17000.0
11
0.0
21
2700.0
31
17000.0
0
LINE
8
ZJ8_TRANSVERSE_BRACE
10
0.0
20
-2875.0
30
0.0
11
0.0
21
2875.0
31
17000.0
0
LINE
8
ZJ8_TRANSVERSE_BRACE
10
0.0
20
2875.0
30
0.0
11
0.0
21
-2875.0
31
17000.0
0
LINE
8
ZJ8_CANTILEVER_EDGE
10
-1400.0
20
-2200.0
30
17000.0
11
0.0
21
-2200.0
31
17000.0
0
LINE
8
ZJ8_CANTILEVER_EDGE
10
-1400.0
20
2700.0
30
17000.0
11
0.0
21
2700.0
31
17000.0
0
LINE
8
ZJ8_DECK_MAIN
10
0.0
20
-2875.0
30
17000.0
11
3000.0
21
-2875.0
31
17000.0
0
LINE
8
ZJ8_DECK_MAIN
10
0.0
20
2875.0
30
17000.0
11
3000.0
21
2875.0
31
17000.0
0
LINE
8
ZJ8_DECK_CROSS
10
3000.0
20
-2200.0
30
17000.0
11
3000.0
21
2700.0
31
17000.0
0
LINE
8
ZJ8_DECK_SECONDARY
10
0.0
20
-1075.0
30
17000.0
11
3000.0
21
-1075.0
31
17000.0
0
LINE
8
ZJ8_DECK_SECONDARY
10
0.0
20
1075.0
30
17000.0
11
3000.0
21
1075.0
31
17000.0
0
LINE
8
ZJ8_CANTILEVER_EDGE
10
0.0
20
-2200.0
30
17000.0
11
3000.0
21
-2200.0
31
17000.0
0
LINE
8
ZJ8_CANTILEVER_EDGE
10
0.0
20
2700.0
30
17000.0
11
3000.0
21
2700.0
31
17000.0
0
LINE
8
ZJ8_PLATFORM_BRACE
10
0.0
20
-2875.0
30
17000.0
11
3000.0
21
2875.0
31
17000.0
0
ENDSEC
0
EOF
