0
SECTION
2
HEADER
9
$INSUNITS
70
4
0
ENDSEC
0
SECTION
2
TABLES
0
TABLE
2
LAYER
70
12
0
LAYER
2
ZJ8_DECK_MAIN
70
0
62
4
6
CONTINUOUS
0
LAYER
2
ZJ8_DECK_CROSS
70
0
62
4
6
CONTINUOUS
0
LAYER
2
ZJ8_DECK_SECONDARY
70
0
62
3
6
CONTINUOUS
0
LAYER
2
ZJ8_CANTILEVER_EDGE
70
0
62
3
6
CONTINUOUS
0
LAYER
2
ZJ8_PLATFORM_BRACE
70
0
62
1
6
CONTINUOUS
0
LAYER
2
ZJ8_COLUMN
70
0
62
8
6
CONTINUOUS
0
LAYER
2
ZJ8_TRANSVERSE_BRACE
70
0
62
1
6
CONTINUOUS
0
LAYER
2
ZJ8_LONGITUDINAL_BRACE
70
0
62
1
6
CONTINUOUS
0
LAYER
2
ZJ8_TRUSS_UPPER
70
0
62
5
6
CONTINUOUS
0
LAYER
2
ZJ8_TRUSS_LOWER
70
0
62
5
6
CONTINUOUS
0
LAYER
2
ZJ8_TRUSS_VERTICAL
70
0
62
5
6
CONTINUOUS
0
LAYER
2
ZJ8_TRUSS_DIAGONAL
70
0
62
5
6
CONTINUOUS
0
ENDTAB
0
ENDSEC
0
SECTION
2
ENTITIES
0
LINE
8
ZJ8_COLUMN
10
0.0
20
-2875.0
30
0.0
11
0.0
21
-2875.0
31
4250.0
0
LINE
8
ZJ8_COLUMN
10
0.0
20
-2875.0
30
4250.0
11
0.0
21
-2875.0
31
8500.0
0
LINE
8
ZJ8_COLUMN
10
0.0
20
-2875.0
30
8500.0
11
0.0
21
-2875.0
31
12750.0
0
LINE
8
ZJ8_COLUMN
10
0.0
20
-2875.0
30
12750.0
11
0.0
21
-2875.0
31
17000.0
0
LINE
8
ZJ8_COLUMN
10
0.0
20
2875.0
30
0.0
11
0.0
21
2875.0
31
4250.0
0
LINE
8
ZJ8_COLUMN
10
0.0
20
2875.0
30
4250.0
11
0.0
21
2875.0
31
8500.0
0
LINE
8
ZJ8_COLUMN
10
0.0
20
2875.0
30
8500.0
11
0.0
21
2875.0
31
12750.0
0
LINE
8
ZJ8_COLUMN
10
0.0
20
2875.0
30
12750.0
11
0.0
21
2875.0
31
17000.0
0
LINE
8
ZJ8_DECK_CROSS
10
0.0
20
-2200.0
30
17000.0
11
0.0
21
2700.0
31
17000.0
0
LINE
8
ZJ8_TRANSVERSE_BRACE
10
0.0
20
-2875.0
30
0.0
11
0.0
21
2875.0
31
17000.0
0
LINE
8
ZJ8_TRANSVERSE_BRACE
10
0.0
20
2875.0
30
0.0
11
0.0
21
-2875.0
31
17000.0
0
LINE
8
ZJ8_COLUMN
10
12000.0
20
-2875.0
30
0.0
11
12000.0
21
-2875.0
31
4538.867145
0
LINE
8
ZJ8_COLUMN
10
12000.0
20
-2875.0
30
4538.867145
11
12000.0
21
-2875.0
31
9077.734289
0
LINE
8
ZJ8_COLUMN
10
12000.0
20
-2875.0
30
9077.734289
11
12000.0
21
-2875.0
31
13616.601434
0
LINE
8
ZJ8_COLUMN
10
12000.0
20
-2875.0
30
13616.601434
11
12000.0
21
-2875.0
31
18155.468578
0
LINE
8
ZJ8_COLUMN
10
12000.0
20
2875.0
30
0.0
11
12000.0
21
2875.0
31
4538.867145
0
LINE
8
ZJ8_COLUMN
10
12000.0
20
2875.0
30
4538.867145
11
12000.0
21
2875.0
31
9077.734289
0
LINE
8
ZJ8_COLUMN
10
12000.0
20
2875.0
30
9077.734289
11
12000.0
21
2875.0
31
13616.601434
0
LINE
8
ZJ8_COLUMN
10
12000.0
20
2875.0
30
13616.601434
11
12000.0
21
2875.0
31
18155.468578
0
LINE
8
ZJ8_DECK_CROSS
10
12000.0
20
-2200.0
30
18155.468578
11
12000.0
21
2700.0
31
18155.468578
0
LINE
8
ZJ8_TRANSVERSE_BRACE
10
12000.0
20
-2875.0
30
0.0
11
12000.0
21
2875.0
31
18155.468578
0
LINE
8
ZJ8_TRANSVERSE_BRACE
10
12000.0
20
2875.0
30
0.0
11
12000.0
21
-2875.0
31
18155.468578
0
LINE
8
ZJ8_COLUMN
10
24000.0
20
-2875.0
30
0.0
11
24000.0
21
-2875.0
31
4827.734289
0
LINE
8
ZJ8_COLUMN
10
24000.0
20
-2875.0
30
4827.734289
11
24000.0
21
-2875.0
31
9655.468578
0
LINE
8
ZJ8_COLUMN
10
24000.0
20
-2875.0
30
9655.468578
11
24000.0
21
-2875.0
31
14483.202868
0
LINE
8
ZJ8_COLUMN
10
24000.0
20
-2875.0
30
14483.202868
11
24000.0
21
-2875.0
31
19310.937157
0
LINE
8
ZJ8_COLUMN
10
24000.0
20
2875.0
30
0.0
11
24000.0
21
2875.0
31
4827.734289
0
LINE
8
ZJ8_COLUMN
10
24000.0
20
2875.0
30
4827.734289
11
24000.0
21
2875.0
31
9655.468578
0
LINE
8
ZJ8_COLUMN
10
24000.0
20
2875.0
30
9655.468578
11
24000.0
21
2875.0
31
14483.202868
0
LINE
8
ZJ8_COLUMN
10
24000.0
20
2875.0
30
14483.202868
11
24000.0
21
2875.0
31
19310.937157
0
LINE
8
ZJ8_DECK_CROSS
10
24000.0
20
-2200.0
30
19310.937157
11
24000.0
21
2700.0
31
19310.937157
0
LINE
8
ZJ8_TRANSVERSE_BRACE
10
24000.0
20
-2875.0
30
0.0
11
24000.0
21
2875.0
31
19310.937157
0
LINE
8
ZJ8_TRANSVERSE_BRACE
10
24000.0
20
2875.0
30
0.0
11
24000.0
21
-2875.0
31
19310.937157
0
LINE
8
ZJ8_CANTILEVER_EDGE
10
-1400.0
20
-2200.0
30
16865.195333
11
0.0
21
-2200.0
31
17000.0
0
LINE
8
ZJ8_CANTILEVER_EDGE
10
-1400.0
20
2700.0
30
16865.195333
11
0.0
21
2700.0
31
17000.0
0
LINE
8
ZJ8_DECK_MAIN
10
0.0
20
-2875.0
30
17000.0
11
3000.0
21
-2875.0
31
17288.867145
0
LINE
8
ZJ8_DECK_MAIN
10
3000.0
20
-2875.0
30
17288.867145
11
6000.0
21
-2875.0
31
17577.734289
0
LINE
8
ZJ8_DECK_MAIN
10
6000.0
20
-2875.0
30
17577.734289
11
9000.0
21
-2875.0
31
17866.601434
0
LINE
8
ZJ8_DECK_MAIN
10
9000.0
20
-2875.0
30
17866.601434
11
12000.0
21
-2875.0
31
18155.468578
0
LINE
8
ZJ8_DECK_MAIN
10
0.0
20
2875.0
30
17000.0
11
3000.0
21
2875.0
31
17288.867145
0
LINE
8
ZJ8_DECK_MAIN
10
3000.0
20
2875.0
30
17288.867145
11
6000.0
21
2875.0
31
17577.734289
0
LINE
8
ZJ8_DECK_MAIN
10
6000.0
20
2875.0
30
17577.734289
11
9000.0
21
2875.0
31
17866.601434
0
LINE
8
ZJ8_DECK_MAIN
10
9000.0
20
2875.0
30
17866.601434
11
12000.0
21
2875.0
31
18155.468578
0
LINE
8
ZJ8_DECK_CROSS
10
3000.0
20
-2200.0
30
17288.867145
11
3000.0
21
2700.0
31
17288.867145
0
LINE
8
ZJ8_DECK_CROSS
10
6000.0
20
-2200.0
30
17577.734289
11
6000.0
21
2700.0
31
17577.734289
0
LINE
8
ZJ8_DECK_CROSS
10
9000.0
20
-2200.0
30
17866.601434
11
9000.0
21
2700.0
31
17866.601434
0
LINE
8
ZJ8_DECK_SECONDARY
10
0.0
20
-1075.0
30
17000.0
11
3000.0
21
-1075.0
31
17288.867145
0
LINE
8
ZJ8_DECK_SECONDARY
10
3000.0
20
-1075.0
30
17288.867145
11
6000.0
21
-1075.0
31
17577.734289
0
LINE
8
ZJ8_DECK_SECONDARY
10
6000.0
20
-1075.0
30
17577.734289
11
9000.0
21
-1075.0
31
17866.601434
0
LINE
8
ZJ8_DECK_SECONDARY
10
9000.0
20
-1075.0
30
17866.601434
11
12000.0
21
-1075.0
31
18155.468578
0
LINE
8
ZJ8_DECK_SECONDARY
10
0.0
20
1075.0
30
17000.0
11
3000.0
21
1075.0
31
17288.867145
0
LINE
8
ZJ8_DECK_SECONDARY
10
3000.0
20
1075.0
30
17288.867145
11
6000.0
21
1075.0
31
17577.734289
0
LINE
8
ZJ8_DECK_SECONDARY
10
6000.0
20
1075.0
30
17577.734289
11
9000.0
21
1075.0
31
17866.601434
0
LINE
8
ZJ8_DECK_SECONDARY
10
9000.0
20
1075.0
30
17866.601434
11
12000.0
21
1075.0
31
18155.468578
0
LINE
8
ZJ8_CANTILEVER_EDGE
10
0.0
20
-2200.0
30
17000.0
11
3000.0
21
-2200.0
31
17288.867145
0
LINE
8
ZJ8_CANTILEVER_EDGE
10
3000.0
20
-2200.0
30
17288.867145
11
6000.0
21
-2200.0
31
17577.734289
0
LINE
8
ZJ8_CANTILEVER_EDGE
10
6000.0
20
-2200.0
30
17577.734289
11
9000.0
21
-2200.0
31
17866.601434
0
LINE
8
ZJ8_CANTILEVER_EDGE
10
9000.0
20
-2200.0
30
17866.601434
11
12000.0
21
-2200.0
31
18155.468578
0
LINE
8
ZJ8_CANTILEVER_EDGE
10
0.0
20
2700.0
30
17000.0
11
3000.0
21
2700.0
31
17288.867145
0
LINE
8
ZJ8_CANTILEVER_EDGE
10
3000.0
20
2700.0
30
17288.867145
11
6000.0
21
2700.0
31
17577.734289
0
LINE
8
ZJ8_CANTILEVER_EDGE
10
6000.0
20
2700.0
30
17577.734289
11
9000.0
21
2700.0
31
17866.601434
0
LINE
8
ZJ8_CANTILEVER_EDGE
10
9000.0
20
2700.0
30
17866.601434
11
12000.0
21
2700.0
31
18155.468578
0
LINE
8
ZJ8_PLATFORM_BRACE
10
0.0
20
-2875.0
30
17000.0
11
3000.0
21
2875.0
31
17288.867145
0
LINE
8
ZJ8_PLATFORM_BRACE
10
3000.0
20
2875.0
30
17288.867145
11
6000.0
21
-2875.0
31
17577.734289
0
LINE
8
ZJ8_PLATFORM_BRACE
10
6000.0
20
-2875.0
30
17577.734289
11
9000.0
21
2875.0
31
17866.601434
0
LINE
8
ZJ8_PLATFORM_BRACE
10
9000.0
20
2875.0
30
17866.601434
11
12000.0
21
-2875.0
31
18155.468578
0
LINE
8
ZJ8_DECK_MAIN
10
12000.0
20
-2875.0
30
18155.468578
11
15000.0
21
-2875.0
31
18444.335723
0
LINE
8
ZJ8_DECK_MAIN
10
15000.0
20
-2875.0
30
18444.335723
11
18000.0
21
-2875.0
31
18733.202868
0
LINE
8
ZJ8_DECK_MAIN
10
18000.0
20
-2875.0
30
18733.202868
11
21000.0
21
-2875.0
31
19022.070012
0
LINE
8
ZJ8_DECK_MAIN
10
21000.0
20
-2875.0
30
19022.070012
11
24000.0
21
-2875.0
31
19310.937157
0
LINE
8
ZJ8_DECK_MAIN
10
12000.0
20
2875.0
30
18155.468578
11
15000.0
21
2875.0
31
18444.335723
0
LINE
8
ZJ8_DECK_MAIN
10
15000.0
20
2875.0
30
18444.335723
11
18000.0
21
2875.0
31
18733.202868
0
LINE
8
ZJ8_DECK_MAIN
10
18000.0
20
2875.0
30
18733.202868
11
21000.0
21
2875.0
31
19022.070012
0
LINE
8
ZJ8_DECK_MAIN
10
21000.0
20
2875.0
30
19022.070012
11
24000.0
21
2875.0
31
19310.937157
0
LINE
8
ZJ8_DECK_CROSS
10
15000.0
20
-2200.0
30
18444.335723
11
15000.0
21
2700.0
31
18444.335723
0
LINE
8
ZJ8_DECK_CROSS
10
18000.0
20
-2200.0
30
18733.202868
11
18000.0
21
2700.0
31
18733.202868
0
LINE
8
ZJ8_DECK_CROSS
10
21000.0
20
-2200.0
30
19022.070012
11
21000.0
21
2700.0
31
19022.070012
0
LINE
8
ZJ8_DECK_SECONDARY
10
12000.0
20
-1075.0
30
18155.468578
11
15000.0
21
-1075.0
31
18444.335723
0
LINE
8
ZJ8_DECK_SECONDARY
10
15000.0
20
-1075.0
30
18444.335723
11
18000.0
21
-1075.0
31
18733.202868
0
LINE
8
ZJ8_DECK_SECONDARY
10
18000.0
20
-1075.0
30
18733.202868
11
21000.0
21
-1075.0
31
19022.070012
0
LINE
8
ZJ8_DECK_SECONDARY
10
21000.0
20
-1075.0
30
19022.070012
11
24000.0
21
-1075.0
31
19310.937157
0
LINE
8
ZJ8_DECK_SECONDARY
10
12000.0
20
1075.0
30
18155.468578
11
15000.0
21
1075.0
31
18444.335723
0
LINE
8
ZJ8_DECK_SECONDARY
10
15000.0
20
1075.0
30
18444.335723
11
18000.0
21
1075.0
31
18733.202868
0
LINE
8
ZJ8_DECK_SECONDARY
10
18000.0
20
1075.0
30
18733.202868
11
21000.0
21
1075.0
31
19022.070012
0
LINE
8
ZJ8_DECK_SECONDARY
10
21000.0
20
1075.0
30
19022.070012
11
24000.0
21
1075.0
31
19310.937157
0
LINE
8
ZJ8_CANTILEVER_EDGE
10
12000.0
20
-2200.0
30
18155.468578
11
15000.0
21
-2200.0
31
18444.335723
0
LINE
8
ZJ8_CANTILEVER_EDGE
10
15000.0
20
-2200.0
30
18444.335723
11
18000.0
21
-2200.0
31
18733.202868
0
LINE
8
ZJ8_CANTILEVER_EDGE
10
18000.0
20
-2200.0
30
18733.202868
11
21000.0
21
-2200.0
31
19022.070012
0
LINE
8
ZJ8_CANTILEVER_EDGE
10
21000.0
20
-2200.0
30
19022.070012
11
24000.0
21
-2200.0
31
19310.937157
0
LINE
8
ZJ8_CANTILEVER_EDGE
10
12000.0
20
2700.0
30
18155.468578
11
15000.0
21
2700.0
31
18444.335723
0
LINE
8
ZJ8_CANTILEVER_EDGE
10
15000.0
20
2700.0
30
18444.335723
11
18000.0
21
2700.0
31
18733.202868
0
LINE
8
ZJ8_CANTILEVER_EDGE
10
18000.0
20
2700.0
30
18733.202868
11
21000.0
21
2700.0
31
19022.070012
0
LINE
8
ZJ8_CANTILEVER_EDGE
10
21000.0
20
2700.0
30
19022.070012
11
24000.0
21
2700.0
31
19310.937157
0
LINE
8
ZJ8_PLATFORM_BRACE
10
12000.0
20
-2875.0
30
18155.468578
11
15000.0
21
2875.0
31
18444.335723
0
LINE
8
ZJ8_PLATFORM_BRACE
10
15000.0
20
2875.0
30
18444.335723
11
18000.0
21
-2875.0
31
18733.202868
0
LINE
8
ZJ8_PLATFORM_BRACE
10
18000.0
20
-2875.0
30
18733.202868
11
21000.0
21
2875.0
31
19022.070012
0
LINE
8
ZJ8_PLATFORM_BRACE
10
21000.0
20
2875.0
30
19022.070012
11
24000.0
21
-2875.0
31
19310.937157
0
LINE
8
ZJ8_DECK_MAIN
10
24000.0
20
-2875.0
30
19310.937157
11
27000.0
21
-2875.0
31
19599.804301
0
LINE
8
ZJ8_DECK_MAIN
10
27000.0
20
-2875.0
30
19599.804301
11
30000.0
21
-2875.0
31
19888.671446
0
LINE
8
ZJ8_DECK_MAIN
10
24000.0
20
2875.0
30
19310.937157
11
27000.0
21
2875.0
31
19599.804301
0
LINE
8
ZJ8_DECK_MAIN
10
27000.0
20
2875.0
30
19599.804301
11
30000.0
21
2875.0
31
19888.671446
0
LINE
8
ZJ8_DECK_CROSS
10
27000.0
20
-2200.0
30
19599.804301
11
27000.0
21
2700.0
31
19599.804301
0
LINE
8
ZJ8_DECK_CROSS
10
30000.0
20
-2200.0
30
19888.671446
11
30000.0
21
2700.0
31
19888.671446
0
LINE
8
ZJ8_DECK_SECONDARY
10
24000.0
20
-1075.0
30
19310.937157
11
27000.0
21
-1075.0
31
19599.804301
0
LINE
8
ZJ8_DECK_SECONDARY
10
27000.0
20
-1075.0
30
19599.804301
11
30000.0
21
-1075.0
31
19888.671446
0
LINE
8
ZJ8_DECK_SECONDARY
10
24000.0
20
1075.0
30
19310.937157
11
27000.0
21
1075.0
31
19599.804301
0
LINE
8
ZJ8_DECK_SECONDARY
10
27000.0
20
1075.0
30
19599.804301
11
30000.0
21
1075.0
31
19888.671446
0
LINE
8
ZJ8_CANTILEVER_EDGE
10
24000.0
20
-2200.0
30
19310.937157
11
27000.0
21
-2200.0
31
19599.804301
0
LINE
8
ZJ8_CANTILEVER_EDGE
10
27000.0
20
-2200.0
30
19599.804301
11
30000.0
21
-2200.0
31
19888.671446
0
LINE
8
ZJ8_CANTILEVER_EDGE
10
24000.0
20
2700.0
30
19310.937157
11
27000.0
21
2700.0
31
19599.804301
0
LINE
8
ZJ8_CANTILEVER_EDGE
10
27000.0
20
2700.0
30
19599.804301
11
30000.0
21
2700.0
31
19888.671446
0
LINE
8
ZJ8_PLATFORM_BRACE
10
24000.0
20
-2875.0
30
19310.937157
11
27000.0
21
2875.0
31
19599.804301
0
LINE
8
ZJ8_PLATFORM_BRACE
10
27000.0
20
2875.0
30
19599.804301
11
30000.0
21
-2875.0
31
19888.671446
0
ENDSEC
0
EOF
