0
SECTION
2
HEADER
9
$INSUNITS
70
4
0
ENDSEC
0
SECTION
2
TABLES
0
TABLE
2
LAYER
70
12
0
LAYER
2
ZJ8_DECK_MAIN
70
0
62
4
6
CONTINUOUS
0
LAYER
2
ZJ8_DECK_CROSS
70
0
62
4
6
CONTINUOUS
0
LAYER
2
ZJ8_DECK_SECONDARY
70
0
62
3
6
CONTINUOUS
0
LAYER
2
ZJ8_CANTILEVER_EDGE
70
0
62
3
6
CONTINUOUS
0
LAYER
2
ZJ8_PLATFORM_BRACE
70
0
62
1
6
CONTINUOUS
0
LAYER
2
ZJ8_COLUMN
70
0
62
8
6
CONTINUOUS
0
LAYER
2
ZJ8_TRANSVERSE_BRACE
70
0
62
1
6
CONTINUOUS
0
LAYER
2
ZJ8_LONGITUDINAL_BRACE
70
0
62
1
6
CONTINUOUS
0
LAYER
2
ZJ8_TRUSS_UPPER
70
0
62
5
6
CONTINUOUS
0
LAYER
2
ZJ8_TRUSS_LOWER
70
0
62
5
6
CONTINUOUS
0
LAYER
2
ZJ8_TRUSS_VERTICAL
70
0
62
5
6
CONTINUOUS
0
LAYER
2
ZJ8_TRUSS_DIAGONAL
70
0
62
5
6
CONTINUOUS
0
ENDTAB
0
ENDSEC
0
SECTION
2
ENTITIES
0
LINE
8
ZJ8_COLUMN
10
0.0
20
-2875.0
30
0.0
11
0.0
21
-2875.0
31
4250.0
0
LINE
8
ZJ8_COLUMN
10
0.0
20
-2875.0
30
4250.0
11
0.0
21
-2875.0
31
8500.0
0
LINE
8
ZJ8_COLUMN
10
0.0
20
-2875.0
30
8500.0
11
0.0
21
-2875.0
31
12750.0
0
LINE
8
ZJ8_COLUMN
10
0.0
20
-2875.0
30
12750.0
11
0.0
21
-2875.0
31
17000.0
0
LINE
8
ZJ8_COLUMN
10
0.0
20
2875.0
30
0.0
11
0.0
21
2875.0
31
4250.0
0
LINE
8
ZJ8_COLUMN
10
0.0
20
2875.0
30
4250.0
11
0.0
21
2875.0
31
8500.0
0
LINE
8
ZJ8_COLUMN
10
0.0
20
2875.0
30
8500.0
11
0.0
21
2875.0
31
12750.0
0
LINE
8
ZJ8_COLUMN
10
0.0
20
2875.0
30
12750.0
11
0.0
21
2875.0
31
17000.0
0
LINE
8
ZJ8_DECK_CROSS
10
0.0
20
-2200.0
30
17000.0
11
0.0
21
2700.0
31
17000.0
0
LINE
8
ZJ8_TRANSVERSE_BRACE
10
0.0
20
-2875.0
30
0.0
11
0.0
21
2875.0
31
17000.0
0
LINE
8
ZJ8_TRANSVERSE_BRACE
10
0.0
20
2875.0
30
0.0
11
0.0
21
-2875.0
31
17000.0
0
LINE
8
ZJ8_COLUMN
10
12000.0
20
-2875.0
30
0.0
11
12000.0
21
-2875.0
31
4145.237692
0
LINE
8
ZJ8_COLUMN
10
12000.0
20
-2875.0
30
4145.237692
11
12000.0
21
-2875.0
31
8290.475383
0
LINE
8
ZJ8_COLUMN
10
12000.0
20
-2875.0
30
8290.475383
11
12000.0
21
-2875.0
31
12435.713075
0
LINE
8
ZJ8_COLUMN
10
12000.0
20
-2875.0
30
12435.713075
11
12000.0
21
-2875.0
31
16580.950766
0
LINE
8
ZJ8_COLUMN
10
12000.0
20
2875.0
30
0.0
11
12000.0
21
2875.0
31
4145.237692
0
LINE
8
ZJ8_COLUMN
10
12000.0
20
2875.0
30
4145.237692
11
12000.0
21
2875.0
31
8290.475383
0
LINE
8
ZJ8_COLUMN
10
12000.0
20
2875.0
30
8290.475383
11
12000.0
21
2875.0
31
12435.713075
0
LINE
8
ZJ8_COLUMN
10
12000.0
20
2875.0
30
12435.713075
11
12000.0
21
2875.0
31
16580.950766
0
LINE
8
ZJ8_DECK_CROSS
10
12000.0
20
-2200.0
30
16580.950766
11
12000.0
21
2700.0
31
16580.950766
0
LINE
8
ZJ8_TRANSVERSE_BRACE
10
12000.0
20
-2875.0
30
0.0
11
12000.0
21
2875.0
31
16580.950766
0
LINE
8
ZJ8_TRANSVERSE_BRACE
10
12000.0
20
2875.0
30
0.0
11
12000.0
21
-2875.0
31
16580.950766
0
LINE
8
ZJ8_COLUMN
10
24000.0
20
-2875.0
30
0.0
11
24000.0
21
-2875.0
31
4040.475383
0
LINE
8
ZJ8_COLUMN
10
24000.0
20
-2875.0
30
4040.475383
11
24000.0
21
-2875.0
31
8080.950766
0
LINE
8
ZJ8_COLUMN
10
24000.0
20
-2875.0
30
8080.950766
11
24000.0
21
-2875.0
31
12121.426149
0
LINE
8
ZJ8_COLUMN
10
24000.0
20
-2875.0
30
12121.426149
11
24000.0
21
-2875.0
31
16161.901532
0
LINE
8
ZJ8_COLUMN
10
24000.0
20
2875.0
30
0.0
11
24000.0
21
2875.0
31
4040.475383
0
LINE
8
ZJ8_COLUMN
10
24000.0
20
2875.0
30
4040.475383
11
24000.0
21
2875.0
31
8080.950766
0
LINE
8
ZJ8_COLUMN
10
24000.0
20
2875.0
30
8080.950766
11
24000.0
21
2875.0
31
12121.426149
0
LINE
8
ZJ8_COLUMN
10
24000.0
20
2875.0
30
12121.426149
11
24000.0
21
2875.0
31
16161.901532
0
LINE
8
ZJ8_DECK_CROSS
10
24000.0
20
-2200.0
30
16161.901532
11
24000.0
21
2700.0
31
16161.901532
0
LINE
8
ZJ8_TRANSVERSE_BRACE
10
24000.0
20
-2875.0
30
0.0
11
24000.0
21
2875.0
31
16161.901532
0
LINE
8
ZJ8_TRANSVERSE_BRACE
10
24000.0
20
2875.0
30
0.0
11
24000.0
21
-2875.0
31
16161.901532
0
LINE
8
ZJ8_COLUMN
10
36000.0
20
-2875.0
30
0.0
11
36000.0
21
-2875.0
31
3935.713075
0
LINE
8
ZJ8_COLUMN
10
36000.0
20
-2875.0
30
3935.713075
11
36000.0
21
-2875.0
31
7871.426149
0
LINE
8
ZJ8_COLUMN
10
36000.0
20
-2875.0
30
7871.426149
11
36000.0
21
-2875.0
31
11807.139224
0
LINE
8
ZJ8_COLUMN
10
36000.0
20
-2875.0
30
11807.139224
11
36000.0
21
-2875.0
31
15742.852298
0
LINE
8
ZJ8_COLUMN
10
36000.0
20
2875.0
30
0.0
11
36000.0
21
2875.0
31
3935.713075
0
LINE
8
ZJ8_COLUMN
10
36000.0
20
2875.0
30
3935.713075
11
36000.0
21
2875.0
31
7871.426149
0
LINE
8
ZJ8_COLUMN
10
36000.0
20
2875.0
30
7871.426149
11
36000.0
21
2875.0
31
11807.139224
0
LINE
8
ZJ8_COLUMN
10
36000.0
20
2875.0
30
11807.139224
11
36000.0
21
2875.0
31
15742.852298
0
LINE
8
ZJ8_DECK_CROSS
10
36000.0
20
-2200.0
30
15742.852298
11
36000.0
21
2700.0
31
15742.852298
0
LINE
8
ZJ8_TRANSVERSE_BRACE
10
36000.0
20
-2875.0
30
0.0
11
36000.0
21
2875.0
31
15742.852298
0
LINE
8
ZJ8_TRANSVERSE_BRACE
10
36000.0
20
2875.0
30
0.0
11
36000.0
21
-2875.0
31
15742.852298
0
LINE
8
ZJ8_COLUMN
10
39000.0
20
-2875.0
30
0.0
11
39000.0
21
-2875.0
31
3909.522497
0
LINE
8
ZJ8_COLUMN
10
39000.0
20
-2875.0
30
3909.522497
11
39000.0
21
-2875.0
31
7819.044995
0
LINE
8
ZJ8_COLUMN
10
39000.0
20
-2875.0
30
7819.044995
11
39000.0
21
-2875.0
31
11728.567492
0
LINE
8
ZJ8_COLUMN
10
39000.0
20
-2875.0
30
11728.567492
11
39000.0
21
-2875.0
31
15638.08999
0
LINE
8
ZJ8_COLUMN
10
39000.0
20
2875.0
30
0.0
11
39000.0
21
2875.0
31
3909.522497
0
LINE
8
ZJ8_COLUMN
10
39000.0
20
2875.0
30
3909.522497
11
39000.0
21
2875.0
31
7819.044995
0
LINE
8
ZJ8_COLUMN
10
39000.0
20
2875.0
30
7819.044995
11
39000.0
21
2875.0
31
11728.567492
0
LINE
8
ZJ8_COLUMN
10
39000.0
20
2875.0
30
11728.567492
11
39000.0
21
2875.0
31
15638.08999
0
LINE
8
ZJ8_DECK_CROSS
10
39000.0
20
-2200.0
30
15638.08999
11
39000.0
21
2700.0
31
15638.08999
0
LINE
8
ZJ8_TRANSVERSE_BRACE
10
39000.0
20
-2875.0
30
0.0
11
39000.0
21
2875.0
31
15638.08999
0
LINE
8
ZJ8_TRANSVERSE_BRACE
10
39000.0
20
2875.0
30
0.0
11
39000.0
21
-2875.0
31
15638.08999
0
LINE
8
ZJ8_CANTILEVER_EDGE
10
-1400.0
20
-2200.0
30
17048.889077
11
0.0
21
-2200.0
31
17000.0
0
LINE
8
ZJ8_CANTILEVER_EDGE
10
-1400.0
20
2700.0
30
17048.889077
11
0.0
21
2700.0
31
17000.0
0
LINE
8
ZJ8_DECK_MAIN
10
0.0
20
-2875.0
30
17000.0
11
3000.0
21
-2875.0
31
16895.237692
0
LINE
8
ZJ8_DECK_MAIN
10
3000.0
20
-2875.0
30
16895.237692
11
6000.0
21
-2875.0
31
16790.475383
0
LINE
8
ZJ8_DECK_MAIN
10
6000.0
20
-2875.0
30
16790.475383
11
9000.0
21
-2875.0
31
16685.713075
0
LINE
8
ZJ8_DECK_MAIN
10
9000.0
20
-2875.0
30
16685.713075
11
12000.0
21
-2875.0
31
16580.950766
0
LINE
8
ZJ8_DECK_MAIN
10
0.0
20
2875.0
30
17000.0
11
3000.0
21
2875.0
31
16895.237692
0
LINE
8
ZJ8_DECK_MAIN
10
3000.0
20
2875.0
30
16895.237692
11
6000.0
21
2875.0
31
16790.475383
0
LINE
8
ZJ8_DECK_MAIN
10
6000.0
20
2875.0
30
16790.475383
11
9000.0
21
2875.0
31
16685.713075
0
LINE
8
ZJ8_DECK_MAIN
10
9000.0
20
2875.0
30
16685.713075
11
12000.0
21
2875.0
31
16580.950766
0
LINE
8
ZJ8_DECK_CROSS
10
3000.0
20
-2200.0
30
16895.237692
11
3000.0
21
2700.0
31
16895.237692
0
LINE
8
ZJ8_DECK_CROSS
10
6000.0
20
-2200.0
30
16790.475383
11
6000.0
21
2700.0
31
16790.475383
0
LINE
8
ZJ8_DECK_CROSS
10
9000.0
20
-2200.0
30
16685.713075
11
9000.0
21
2700.0
31
16685.713075
0
LINE
8
ZJ8_DECK_SECONDARY
10
0.0
20
-1075.0
30
17000.0
11
3000.0
21
-1075.0
31
16895.237692
0
LINE
8
ZJ8_DECK_SECONDARY
10
3000.0
20
-1075.0
30
16895.237692
11
6000.0
21
-1075.0
31
16790.475383
0
LINE
8
ZJ8_DECK_SECONDARY
10
6000.0
20
-1075.0
30
16790.475383
11
9000.0
21
-1075.0
31
16685.713075
0
LINE
8
ZJ8_DECK_SECONDARY
10
9000.0
20
-1075.0
30
16685.713075
11
12000.0
21
-1075.0
31
16580.950766
0
LINE
8
ZJ8_DECK_SECONDARY
10
0.0
20
1075.0
30
17000.0
11
3000.0
21
1075.0
31
16895.237692
0
LINE
8
ZJ8_DECK_SECONDARY
10
3000.0
20
1075.0
30
16895.237692
11
6000.0
21
1075.0
31
16790.475383
0
LINE
8
ZJ8_DECK_SECONDARY
10
6000.0
20
1075.0
30
16790.475383
11
9000.0
21
1075.0
31
16685.713075
0
LINE
8
ZJ8_DECK_SECONDARY
10
9000.0
20
1075.0
30
16685.713075
11
12000.0
21
1075.0
31
16580.950766
0
LINE
8
ZJ8_CANTILEVER_EDGE
10
0.0
20
-2200.0
30
17000.0
11
3000.0
21
-2200.0
31
16895.237692
0
LINE
8
ZJ8_CANTILEVER_EDGE
10
3000.0
20
-2200.0
30
16895.237692
11
6000.0
21
-2200.0
31
16790.475383
0
LINE
8
ZJ8_CANTILEVER_EDGE
10
6000.0
20
-2200.0
30
16790.475383
11
9000.0
21
-2200.0
31
16685.713075
0
LINE
8
ZJ8_CANTILEVER_EDGE
10
9000.0
20
-2200.0
30
16685.713075
11
12000.0
21
-2200.0
31
16580.950766
0
LINE
8
ZJ8_CANTILEVER_EDGE
10
0.0
20
2700.0
30
17000.0
11
3000.0
21
2700.0
31
16895.237692
0
LINE
8
ZJ8_CANTILEVER_EDGE
10
3000.0
20
2700.0
30
16895.237692
11
6000.0
21
2700.0
31
16790.475383
0
LINE
8
ZJ8_CANTILEVER_EDGE
10
6000.0
20
2700.0
30
16790.475383
11
9000.0
21
2700.0
31
16685.713075
0
LINE
8
ZJ8_CANTILEVER_EDGE
10
9000.0
20
2700.0
30
16685.713075
11
12000.0
21
2700.0
31
16580.950766
0
LINE
8
ZJ8_PLATFORM_BRACE
10
0.0
20
-2875.0
30
17000.0
11
3000.0
21
2875.0
31
16895.237692
0
LINE
8
ZJ8_PLATFORM_BRACE
10
3000.0
20
2875.0
30
16895.237692
11
6000.0
21
-2875.0
31
16790.475383
0
LINE
8
ZJ8_PLATFORM_BRACE
10
6000.0
20
-2875.0
30
16790.475383
11
9000.0
21
2875.0
31
16685.713075
0
LINE
8
ZJ8_PLATFORM_BRACE
10
9000.0
20
2875.0
30
16685.713075
11
12000.0
21
-2875.0
31
16580.950766
0
LINE
8
ZJ8_DECK_MAIN
10
12000.0
20
-2875.0
30
16580.950766
11
15000.0
21
-2875.0
31
16476.188458
0
LINE
8
ZJ8_DECK_MAIN
10
15000.0
20
-2875.0
30
16476.188458
11
18000.0
21
-2875.0
31
16371.426149
0
LINE
8
ZJ8_DECK_MAIN
10
18000.0
20
-2875.0
30
16371.426149
11
21000.0
21
-2875.0
31
16266.663841
0
LINE
8
ZJ8_DECK_MAIN
10
21000.0
20
-2875.0
30
16266.663841
11
24000.0
21
-2875.0
31
16161.901532
0
LINE
8
ZJ8_DECK_MAIN
10
12000.0
20
2875.0
30
16580.950766
11
15000.0
21
2875.0
31
16476.188458
0
LINE
8
ZJ8_DECK_MAIN
10
15000.0
20
2875.0
30
16476.188458
11
18000.0
21
2875.0
31
16371.426149
0
LINE
8
ZJ8_DECK_MAIN
10
18000.0
20
2875.0
30
16371.426149
11
21000.0
21
2875.0
31
16266.663841
0
LINE
8
ZJ8_DECK_MAIN
10
21000.0
20
2875.0
30
16266.663841
11
24000.0
21
2875.0
31
16161.901532
0
LINE
8
ZJ8_DECK_CROSS
10
15000.0
20
-2200.0
30
16476.188458
11
15000.0
21
2700.0
31
16476.188458
0
LINE
8
ZJ8_DECK_CROSS
10
18000.0
20
-2200.0
30
16371.426149
11
18000.0
21
2700.0
31
16371.426149
0
LINE
8
ZJ8_DECK_CROSS
10
21000.0
20
-2200.0
30
16266.663841
11
21000.0
21
2700.0
31
16266.663841
0
LINE
8
ZJ8_DECK_SECONDARY
10
12000.0
20
-1075.0
30
16580.950766
11
15000.0
21
-1075.0
31
16476.188458
0
LINE
8
ZJ8_DECK_SECONDARY
10
15000.0
20
-1075.0
30
16476.188458
11
18000.0
21
-1075.0
31
16371.426149
0
LINE
8
ZJ8_DECK_SECONDARY
10
18000.0
20
-1075.0
30
16371.426149
11
21000.0
21
-1075.0
31
16266.663841
0
LINE
8
ZJ8_DECK_SECONDARY
10
21000.0
20
-1075.0
30
16266.663841
11
24000.0
21
-1075.0
31
16161.901532
0
LINE
8
ZJ8_DECK_SECONDARY
10
12000.0
20
1075.0
30
16580.950766
11
15000.0
21
1075.0
31
16476.188458
0
LINE
8
ZJ8_DECK_SECONDARY
10
15000.0
20
1075.0
30
16476.188458
11
18000.0
21
1075.0
31
16371.426149
0
LINE
8
ZJ8_DECK_SECONDARY
10
18000.0
20
1075.0
30
16371.426149
11
21000.0
21
1075.0
31
16266.663841
0
LINE
8
ZJ8_DECK_SECONDARY
10
21000.0
20
1075.0
30
16266.663841
11
24000.0
21
1075.0
31
16161.901532
0
LINE
8
ZJ8_CANTILEVER_EDGE
10
12000.0
20
-2200.0
30
16580.950766
11
15000.0
21
-2200.0
31
16476.188458
0
LINE
8
ZJ8_CANTILEVER_EDGE
10
15000.0
20
-2200.0
30
16476.188458
11
18000.0
21
-2200.0
31
16371.426149
0
LINE
8
ZJ8_CANTILEVER_EDGE
10
18000.0
20
-2200.0
30
16371.426149
11
21000.0
21
-2200.0
31
16266.663841
0
LINE
8
ZJ8_CANTILEVER_EDGE
10
21000.0
20
-2200.0
30
16266.663841
11
24000.0
21
-2200.0
31
16161.901532
0
LINE
8
ZJ8_CANTILEVER_EDGE
10
12000.0
20
2700.0
30
16580.950766
11
15000.0
21
2700.0
31
16476.188458
0
LINE
8
ZJ8_CANTILEVER_EDGE
10
15000.0
20
2700.0
30
16476.188458
11
18000.0
21
2700.0
31
16371.426149
0
LINE
8
ZJ8_CANTILEVER_EDGE
10
18000.0
20
2700.0
30
16371.426149
11
21000.0
21
2700.0
31
16266.663841
0
LINE
8
ZJ8_CANTILEVER_EDGE
10
21000.0
20
2700.0
30
16266.663841
11
24000.0
21
2700.0
31
16161.901532
0
LINE
8
ZJ8_PLATFORM_BRACE
10
12000.0
20
-2875.0
30
16580.950766
11
15000.0
21
2875.0
31
16476.188458
0
LINE
8
ZJ8_PLATFORM_BRACE
10
15000.0
20
2875.0
30
16476.188458
11
18000.0
21
-2875.0
31
16371.426149
0
LINE
8
ZJ8_PLATFORM_BRACE
10
18000.0
20
-2875.0
30
16371.426149
11
21000.0
21
2875.0
31
16266.663841
0
LINE
8
ZJ8_PLATFORM_BRACE
10
21000.0
20
2875.0
30
16266.663841
11
24000.0
21
-2875.0
31
16161.901532
0
LINE
8
ZJ8_DECK_MAIN
10
24000.0
20
-2875.0
30
16161.901532
11
27000.0
21
-2875.0
31
16057.139224
0
LINE
8
ZJ8_DECK_MAIN
10
27000.0
20
-2875.0
30
16057.139224
11
30000.0
21
-2875.0
31
15952.376915
0
LINE
8
ZJ8_DECK_MAIN
10
30000.0
20
-2875.0
30
15952.376915
11
33000.0
21
-2875.0
31
15847.614607
0
LINE
8
ZJ8_DECK_MAIN
10
33000.0
20
-2875.0
30
15847.614607
11
36000.0
21
-2875.0
31
15742.852298
0
LINE
8
ZJ8_DECK_MAIN
10
24000.0
20
2875.0
30
16161.901532
11
27000.0
21
2875.0
31
16057.139224
0
LINE
8
ZJ8_DECK_MAIN
10
27000.0
20
2875.0
30
16057.139224
11
30000.0
21
2875.0
31
15952.376915
0
LINE
8
ZJ8_DECK_MAIN
10
30000.0
20
2875.0
30
15952.376915
11
33000.0
21
2875.0
31
15847.614607
0
LINE
8
ZJ8_DECK_MAIN
10
33000.0
20
2875.0
30
15847.614607
11
36000.0
21
2875.0
31
15742.852298
0
LINE
8
ZJ8_DECK_CROSS
10
27000.0
20
-2200.0
30
16057.139224
11
27000.0
21
2700.0
31
16057.139224
0
LINE
8
ZJ8_DECK_CROSS
10
30000.0
20
-2200.0
30
15952.376915
11
30000.0
21
2700.0
31
15952.376915
0
LINE
8
ZJ8_DECK_CROSS
10
33000.0
20
-2200.0
30
15847.614607
11
33000.0
21
2700.0
31
15847.614607
0
LINE
8
ZJ8_DECK_SECONDARY
10
24000.0
20
-1075.0
30
16161.901532
11
27000.0
21
-1075.0
31
16057.139224
0
LINE
8
ZJ8_DECK_SECONDARY
10
27000.0
20
-1075.0
30
16057.139224
11
30000.0
21
-1075.0
31
15952.376915
0
LINE
8
ZJ8_DECK_SECONDARY
10
30000.0
20
-1075.0
30
15952.376915
11
33000.0
21
-1075.0
31
15847.614607
0
LINE
8
ZJ8_DECK_SECONDARY
10
33000.0
20
-1075.0
30
15847.614607
11
36000.0
21
-1075.0
31
15742.852298
0
LINE
8
ZJ8_DECK_SECONDARY
10
24000.0
20
1075.0
30
16161.901532
11
27000.0
21
1075.0
31
16057.139224
0
LINE
8
ZJ8_DECK_SECONDARY
10
27000.0
20
1075.0
30
16057.139224
11
30000.0
21
1075.0
31
15952.376915
0
LINE
8
ZJ8_DECK_SECONDARY
10
30000.0
20
1075.0
30
15952.376915
11
33000.0
21
1075.0
31
15847.614607
0
LINE
8
ZJ8_DECK_SECONDARY
10
33000.0
20
1075.0
30
15847.614607
11
36000.0
21
1075.0
31
15742.852298
0
LINE
8
ZJ8_CANTILEVER_EDGE
10
24000.0
20
-2200.0
30
16161.901532
11
27000.0
21
-2200.0
31
16057.139224
0
LINE
8
ZJ8_CANTILEVER_EDGE
10
27000.0
20
-2200.0
30
16057.139224
11
30000.0
21
-2200.0
31
15952.376915
0
LINE
8
ZJ8_CANTILEVER_EDGE
10
30000.0
20
-2200.0
30
15952.376915
11
33000.0
21
-2200.0
31
15847.614607
0
LINE
8
ZJ8_CANTILEVER_EDGE
10
33000.0
20
-2200.0
30
15847.614607
11
36000.0
21
-2200.0
31
15742.852298
0
LINE
8
ZJ8_CANTILEVER_EDGE
10
24000.0
20
2700.0
30
16161.901532
11
27000.0
21
2700.0
31
16057.139224
0
LINE
8
ZJ8_CANTILEVER_EDGE
10
27000.0
20
2700.0
30
16057.139224
11
30000.0
21
2700.0
31
15952.376915
0
LINE
8
ZJ8_CANTILEVER_EDGE
10
30000.0
20
2700.0
30
15952.376915
11
33000.0
21
2700.0
31
15847.614607
0
LINE
8
ZJ8_CANTILEVER_EDGE
10
33000.0
20
2700.0
30
15847.614607
11
36000.0
21
2700.0
31
15742.852298
0
LINE
8
ZJ8_PLATFORM_BRACE
10
24000.0
20
-2875.0
30
16161.901532
11
27000.0
21
2875.0
31
16057.139224
0
LINE
8
ZJ8_PLATFORM_BRACE
10
27000.0
20
2875.0
30
16057.139224
11
30000.0
21
-2875.0
31
15952.376915
0
LINE
8
ZJ8_PLATFORM_BRACE
10
30000.0
20
-2875.0
30
15952.376915
11
33000.0
21
2875.0
31
15847.614607
0
LINE
8
ZJ8_PLATFORM_BRACE
10
33000.0
20
2875.0
30
15847.614607
11
36000.0
21
-2875.0
31
15742.852298
0
LINE
8
ZJ8_DECK_MAIN
10
36000.0
20
-2875.0
30
15742.852298
11
39000.0
21
-2875.0
31
15638.08999
0
LINE
8
ZJ8_DECK_MAIN
10
36000.0
20
2875.0
30
15742.852298
11
39000.0
21
2875.0
31
15638.08999
0
LINE
8
ZJ8_DECK_SECONDARY
10
36000.0
20
-1075.0
30
15742.852298
11
39000.0
21
-1075.0
31
15638.08999
0
LINE
8
ZJ8_DECK_SECONDARY
10
36000.0
20
1075.0
30
15742.852298
11
39000.0
21
1075.0
31
15638.08999
0
LINE
8
ZJ8_CANTILEVER_EDGE
10
36000.0
20
-2200.0
30
15742.852298
11
39000.0
21
-2200.0
31
15638.08999
0
LINE
8
ZJ8_CANTILEVER_EDGE
10
36000.0
20
2700.0
30
15742.852298
11
39000.0
21
2700.0
31
15638.08999
0
LINE
8
ZJ8_PLATFORM_BRACE
10
36000.0
20
-2875.0
30
15742.852298
11
39000.0
21
2875.0
31
15638.08999
0
LINE
8
ZJ8_LONGITUDINAL_BRACE
10
36000.0
20
-2875.0
30
0.0
11
39000.0
21
-2875.0
31
15638.08999
0
LINE
8
ZJ8_LONGITUDINAL_BRACE
10
36000.0
20
2875.0
30
0.0
11
39000.0
21
2875.0
31
15638.08999
0
LINE
8
ZJ8_TRUSS_VERTICAL
10
39000.0
20
-2875.0
30
15638.08999
11
39000.0
21
-2875.0
31
13838.08999
0
LINE
8
ZJ8_TRUSS_VERTICAL
10
39000.0
20
2875.0
30
15638.08999
11
39000.0
21
2875.0
31
13838.08999
0
ENDSEC
0
EOF
