0
SECTION
2
HEADER
9
$INSUNITS
70
4
0
ENDSEC
0
SECTION
2
TABLES
0
TABLE
2
LAYER
70
12
0
LAYER
2
ZJ8_DECK_MAIN
70
0
62
4
6
CONTINUOUS
0
LAYER
2
ZJ8_DECK_CROSS
70
0
62
4
6
CONTINUOUS
0
LAYER
2
ZJ8_DECK_SECONDARY
70
0
62
3
6
CONTINUOUS
0
LAYER
2
ZJ8_CANTILEVER_EDGE
70
0
62
3
6
CONTINUOUS
0
LAYER
2
ZJ8_PLATFORM_BRACE
70
0
62
1
6
CONTINUOUS
0
LAYER
2
ZJ8_COLUMN
70
0
62
8
6
CONTINUOUS
0
LAYER
2
ZJ8_TRANSVERSE_BRACE
70
0
62
1
6
CONTINUOUS
0
LAYER
2
ZJ8_LONGITUDINAL_BRACE
70
0
62
1
6
CONTINUOUS
0
LAYER
2
ZJ8_TRUSS_UPPER
70
0
62
5
6
CONTINUOUS
0
LAYER
2
ZJ8_TRUSS_LOWER
70
0
62
5
6
CONTINUOUS
0
LAYER
2
ZJ8_TRUSS_VERTICAL
70
0
62
5
6
CONTINUOUS
0
LAYER
2
ZJ8_TRUSS_DIAGONAL
70
0
62
5
6
CONTINUOUS
0
ENDTAB
0
ENDSEC
0
SECTION
2
ENTITIES
0
LINE
8
ZJ8_COLUMN
10
0.0
20
-2875.0
30
0.0
11
0.0
21
-2875.0
31
4250.0
0
LINE
8
ZJ8_COLUMN
10
0.0
20
-2875.0
30
4250.0
11
0.0
21
-2875.0
31
8500.0
0
LINE
8
ZJ8_COLUMN
10
0.0
20
-2875.0
30
8500.0
11
0.0
21
-2875.0
31
12750.0
0
LINE
8
ZJ8_COLUMN
10
0.0
20
-2875.0
30
12750.0
11
0.0
21
-2875.0
31
17000.0
0
LINE
8
ZJ8_COLUMN
10
0.0
20
2875.0
30
0.0
11
0.0
21
2875.0
31
4250.0
0
LINE
8
ZJ8_COLUMN
10
0.0
20
2875.0
30
4250.0
11
0.0
21
2875.0
31
8500.0
0
LINE
8
ZJ8_COLUMN
10
0.0
20
2875.0
30
8500.0
11
0.0
21
2875.0
31
12750.0
0
LINE
8
ZJ8_COLUMN
10
0.0
20
2875.0
30
12750.0
11
0.0
21
2875.0
31
17000.0
0
LINE
8
ZJ8_DECK_CROSS
10
0.0
20
-2200.0
30
17000.0
11
0.0
21
2700.0
31
17000.0
0
LINE
8
ZJ8_TRANSVERSE_BRACE
10
0.0
20
-2875.0
30
0.0
11
0.0
21
2875.0
31
17000.0
0
LINE
8
ZJ8_TRANSVERSE_BRACE
10
0.0
20
2875.0
30
0.0
11
0.0
21
-2875.0
31
17000.0
0
LINE
8
ZJ8_COLUMN
10
12000.0
20
-2875.0
30
0.0
11
12000.0
21
-2875.0
31
4422.978912
0
LINE
8
ZJ8_COLUMN
10
12000.0
20
-2875.0
30
4422.978912
11
12000.0
21
-2875.0
31
8845.957823
0
LINE
8
ZJ8_COLUMN
10
12000.0
20
-2875.0
30
8845.957823
11
12000.0
21
-2875.0
31
13268.936735
0
LINE
8
ZJ8_COLUMN
10
12000.0
20
-2875.0
30
13268.936735
11
12000.0
21
-2875.0
31
17691.915647
0
LINE
8
ZJ8_COLUMN
10
12000.0
20
2875.0
30
0.0
11
12000.0
21
2875.0
31
4422.978912
0
LINE
8
ZJ8_COLUMN
10
12000.0
20
2875.0
30
4422.978912
11
12000.0
21
2875.0
31
8845.957823
0
LINE
8
ZJ8_COLUMN
10
12000.0
20
2875.0
30
8845.957823
11
12000.0
21
2875.0
31
13268.936735
0
LINE
8
ZJ8_COLUMN
10
12000.0
20
2875.0
30
13268.936735
11
12000.0
21
2875.0
31
17691.915647
0
LINE
8
ZJ8_DECK_CROSS
10
12000.0
20
-2200.0
30
17691.915647
11
12000.0
21
2700.0
31
17691.915647
0
LINE
8
ZJ8_TRANSVERSE_BRACE
10
12000.0
20
-2875.0
30
0.0
11
12000.0
21
2875.0
31
17691.915647
0
LINE
8
ZJ8_TRANSVERSE_BRACE
10
12000.0
20
2875.0
30
0.0
11
12000.0
21
-2875.0
31
17691.915647
0
LINE
8
ZJ8_COLUMN
10
24000.0
20
-2875.0
30
0.0
11
24000.0
21
-2875.0
31
4595.957823
0
LINE
8
ZJ8_COLUMN
10
24000.0
20
-2875.0
30
4595.957823
11
24000.0
21
-2875.0
31
9191.915647
0
LINE
8
ZJ8_COLUMN
10
24000.0
20
-2875.0
30
9191.915647
11
24000.0
21
-2875.0
31
13787.87347
0
LINE
8
ZJ8_COLUMN
10
24000.0
20
-2875.0
30
13787.87347
11
24000.0
21
-2875.0
31
18383.831293
0
LINE
8
ZJ8_COLUMN
10
24000.0
20
2875.0
30
0.0
11
24000.0
21
2875.0
31
4595.957823
0
LINE
8
ZJ8_COLUMN
10
24000.0
20
2875.0
30
4595.957823
11
24000.0
21
2875.0
31
9191.915647
0
LINE
8
ZJ8_COLUMN
10
24000.0
20
2875.0
30
9191.915647
11
24000.0
21
2875.0
31
13787.87347
0
LINE
8
ZJ8_COLUMN
10
24000.0
20
2875.0
30
13787.87347
11
24000.0
21
2875.0
31
18383.831293
0
LINE
8
ZJ8_DECK_CROSS
10
24000.0
20
-2200.0
30
18383.831293
11
24000.0
21
2700.0
31
18383.831293
0
LINE
8
ZJ8_TRANSVERSE_BRACE
10
24000.0
20
-2875.0
30
0.0
11
24000.0
21
2875.0
31
18383.831293
0
LINE
8
ZJ8_TRANSVERSE_BRACE
10
24000.0
20
2875.0
30
0.0
11
24000.0
21
-2875.0
31
18383.831293
0
LINE
8
ZJ8_COLUMN
10
36000.0
20
-2875.0
30
0.0
11
36000.0
21
-2875.0
31
4768.936735
0
LINE
8
ZJ8_COLUMN
10
36000.0
20
-2875.0
30
4768.936735
11
36000.0
21
-2875.0
31
9537.87347
0
LINE
8
ZJ8_COLUMN
10
36000.0
20
-2875.0
30
9537.87347
11
36000.0
21
-2875.0
31
14306.810205
0
LINE
8
ZJ8_COLUMN
10
36000.0
20
-2875.0
30
14306.810205
11
36000.0
21
-2875.0
31
19075.74694
0
LINE
8
ZJ8_COLUMN
10
36000.0
20
2875.0
30
0.0
11
36000.0
21
2875.0
31
4768.936735
0
LINE
8
ZJ8_COLUMN
10
36000.0
20
2875.0
30
4768.936735
11
36000.0
21
2875.0
31
9537.87347
0
LINE
8
ZJ8_COLUMN
10
36000.0
20
2875.0
30
9537.87347
11
36000.0
21
2875.0
31
14306.810205
0
LINE
8
ZJ8_COLUMN
10
36000.0
20
2875.0
30
14306.810205
11
36000.0
21
2875.0
31
19075.74694
0
LINE
8
ZJ8_DECK_CROSS
10
36000.0
20
-2200.0
30
19075.74694
11
36000.0
21
2700.0
31
19075.74694
0
LINE
8
ZJ8_TRANSVERSE_BRACE
10
36000.0
20
-2875.0
30
0.0
11
36000.0
21
2875.0
31
19075.74694
0
LINE
8
ZJ8_TRANSVERSE_BRACE
10
36000.0
20
2875.0
30
0.0
11
36000.0
21
-2875.0
31
19075.74694
0
LINE
8
ZJ8_COLUMN
10
39000.0
20
-2875.0
30
0.0
11
39000.0
21
-2875.0
31
4812.181463
0
LINE
8
ZJ8_COLUMN
10
39000.0
20
-2875.0
30
4812.181463
11
39000.0
21
-2875.0
31
9624.362926
0
LINE
8
ZJ8_COLUMN
10
39000.0
20
-2875.0
30
9624.362926
11
39000.0
21
-2875.0
31
14436.544388
0
LINE
8
ZJ8_COLUMN
10
39000.0
20
-2875.0
30
14436.544388
11
39000.0
21
-2875.0
31
19248.725851
0
LINE
8
ZJ8_COLUMN
10
39000.0
20
2875.0
30
0.0
11
39000.0
21
2875.0
31
4812.181463
0
LINE
8
ZJ8_COLUMN
10
39000.0
20
2875.0
30
4812.181463
11
39000.0
21
2875.0
31
9624.362926
0
LINE
8
ZJ8_COLUMN
10
39000.0
20
2875.0
30
9624.362926
11
39000.0
21
2875.0
31
14436.544388
0
LINE
8
ZJ8_COLUMN
10
39000.0
20
2875.0
30
14436.544388
11
39000.0
21
2875.0
31
19248.725851
0
LINE
8
ZJ8_DECK_CROSS
10
39000.0
20
-2200.0
30
19248.725851
11
39000.0
21
2700.0
31
19248.725851
0
LINE
8
ZJ8_TRANSVERSE_BRACE
10
39000.0
20
-2875.0
30
0.0
11
39000.0
21
2875.0
31
19248.725851
0
LINE
8
ZJ8_TRANSVERSE_BRACE
10
39000.0
20
2875.0
30
0.0
11
39000.0
21
-2875.0
31
19248.725851
0
LINE
8
ZJ8_CANTILEVER_EDGE
10
-1400.0
20
-2200.0
30
16919.276508
11
0.0
21
-2200.0
31
17000.0
0
LINE
8
ZJ8_CANTILEVER_EDGE
10
-1400.0
20
2700.0
30
16919.276508
11
0.0
21
2700.0
31
17000.0
0
LINE
8
ZJ8_DECK_MAIN
10
0.0
20
-2875.0
30
17000.0
11
3000.0
21
-2875.0
31
17172.978912
0
LINE
8
ZJ8_DECK_MAIN
10
3000.0
20
-2875.0
30
17172.978912
11
6000.0
21
-2875.0
31
17345.957823
0
LINE
8
ZJ8_DECK_MAIN
10
6000.0
20
-2875.0
30
17345.957823
11
9000.0
21
-2875.0
31
17518.936735
0
LINE
8
ZJ8_DECK_MAIN
10
9000.0
20
-2875.0
30
17518.936735
11
12000.0
21
-2875.0
31
17691.915647
0
LINE
8
ZJ8_DECK_MAIN
10
0.0
20
2875.0
30
17000.0
11
3000.0
21
2875.0
31
17172.978912
0
LINE
8
ZJ8_DECK_MAIN
10
3000.0
20
2875.0
30
17172.978912
11
6000.0
21
2875.0
31
17345.957823
0
LINE
8
ZJ8_DECK_MAIN
10
6000.0
20
2875.0
30
17345.957823
11
9000.0
21
2875.0
31
17518.936735
0
LINE
8
ZJ8_DECK_MAIN
10
9000.0
20
2875.0
30
17518.936735
11
12000.0
21
2875.0
31
17691.915647
0
LINE
8
ZJ8_DECK_CROSS
10
3000.0
20
-2200.0
30
17172.978912
11
3000.0
21
2700.0
31
17172.978912
0
LINE
8
ZJ8_DECK_CROSS
10
6000.0
20
-2200.0
30
17345.957823
11
6000.0
21
2700.0
31
17345.957823
0
LINE
8
ZJ8_DECK_CROSS
10
9000.0
20
-2200.0
30
17518.936735
11
9000.0
21
2700.0
31
17518.936735
0
LINE
8
ZJ8_DECK_SECONDARY
10
0.0
20
-1075.0
30
17000.0
11
3000.0
21
-1075.0
31
17172.978912
0
LINE
8
ZJ8_DECK_SECONDARY
10
3000.0
20
-1075.0
30
17172.978912
11
6000.0
21
-1075.0
31
17345.957823
0
LINE
8
ZJ8_DECK_SECONDARY
10
6000.0
20
-1075.0
30
17345.957823
11
9000.0
21
-1075.0
31
17518.936735
0
LINE
8
ZJ8_DECK_SECONDARY
10
9000.0
20
-1075.0
30
17518.936735
11
12000.0
21
-1075.0
31
17691.915647
0
LINE
8
ZJ8_DECK_SECONDARY
10
0.0
20
1075.0
30
17000.0
11
3000.0
21
1075.0
31
17172.978912
0
LINE
8
ZJ8_DECK_SECONDARY
10
3000.0
20
1075.0
30
17172.978912
11
6000.0
21
1075.0
31
17345.957823
0
LINE
8
ZJ8_DECK_SECONDARY
10
6000.0
20
1075.0
30
17345.957823
11
9000.0
21
1075.0
31
17518.936735
0
LINE
8
ZJ8_DECK_SECONDARY
10
9000.0
20
1075.0
30
17518.936735
11
12000.0
21
1075.0
31
17691.915647
0
LINE
8
ZJ8_CANTILEVER_EDGE
10
0.0
20
-2200.0
30
17000.0
11
3000.0
21
-2200.0
31
17172.978912
0
LINE
8
ZJ8_CANTILEVER_EDGE
10
3000.0
20
-2200.0
30
17172.978912
11
6000.0
21
-2200.0
31
17345.957823
0
LINE
8
ZJ8_CANTILEVER_EDGE
10
6000.0
20
-2200.0
30
17345.957823
11
9000.0
21
-2200.0
31
17518.936735
0
LINE
8
ZJ8_CANTILEVER_EDGE
10
9000.0
20
-2200.0
30
17518.936735
11
12000.0
21
-2200.0
31
17691.915647
0
LINE
8
ZJ8_CANTILEVER_EDGE
10
0.0
20
2700.0
30
17000.0
11
3000.0
21
2700.0
31
17172.978912
0
LINE
8
ZJ8_CANTILEVER_EDGE
10
3000.0
20
2700.0
30
17172.978912
11
6000.0
21
2700.0
31
17345.957823
0
LINE
8
ZJ8_CANTILEVER_EDGE
10
6000.0
20
2700.0
30
17345.957823
11
9000.0
21
2700.0
31
17518.936735
0
LINE
8
ZJ8_CANTILEVER_EDGE
10
9000.0
20
2700.0
30
17518.936735
11
12000.0
21
2700.0
31
17691.915647
0
LINE
8
ZJ8_PLATFORM_BRACE
10
0.0
20
-2875.0
30
17000.0
11
3000.0
21
2875.0
31
17172.978912
0
LINE
8
ZJ8_PLATFORM_BRACE
10
3000.0
20
2875.0
30
17172.978912
11
6000.0
21
-2875.0
31
17345.957823
0
LINE
8
ZJ8_PLATFORM_BRACE
10
6000.0
20
-2875.0
30
17345.957823
11
9000.0
21
2875.0
31
17518.936735
0
LINE
8
ZJ8_PLATFORM_BRACE
10
9000.0
20
2875.0
30
17518.936735
11
12000.0
21
-2875.0
31
17691.915647
0
LINE
8
ZJ8_DECK_MAIN
10
12000.0
20
-2875.0
30
17691.915647
11
15000.0
21
-2875.0
31
17864.894558
0
LINE
8
ZJ8_DECK_MAIN
10
15000.0
20
-2875.0
30
17864.894558
11
18000.0
21
-2875.0
31
18037.87347
0
LINE
8
ZJ8_DECK_MAIN
10
18000.0
20
-2875.0
30
18037.87347
11
21000.0
21
-2875.0
31
18210.852381
0
LINE
8
ZJ8_DECK_MAIN
10
21000.0
20
-2875.0
30
18210.852381
11
24000.0
21
-2875.0
31
18383.831293
0
LINE
8
ZJ8_DECK_MAIN
10
12000.0
20
2875.0
30
17691.915647
11
15000.0
21
2875.0
31
17864.894558
0
LINE
8
ZJ8_DECK_MAIN
10
15000.0
20
2875.0
30
17864.894558
11
18000.0
21
2875.0
31
18037.87347
0
LINE
8
ZJ8_DECK_MAIN
10
18000.0
20
2875.0
30
18037.87347
11
21000.0
21
2875.0
31
18210.852381
0
LINE
8
ZJ8_DECK_MAIN
10
21000.0
20
2875.0
30
18210.852381
11
24000.0
21
2875.0
31
18383.831293
0
LINE
8
ZJ8_DECK_CROSS
10
15000.0
20
-2200.0
30
17864.894558
11
15000.0
21
2700.0
31
17864.894558
0
LINE
8
ZJ8_DECK_CROSS
10
18000.0
20
-2200.0
30
18037.87347
11
18000.0
21
2700.0
31
18037.87347
0
LINE
8
ZJ8_DECK_CROSS
10
21000.0
20
-2200.0
30
18210.852381
11
21000.0
21
2700.0
31
18210.852381
0
LINE
8
ZJ8_DECK_SECONDARY
10
12000.0
20
-1075.0
30
17691.915647
11
15000.0
21
-1075.0
31
17864.894558
0
LINE
8
ZJ8_DECK_SECONDARY
10
15000.0
20
-1075.0
30
17864.894558
11
18000.0
21
-1075.0
31
18037.87347
0
LINE
8
ZJ8_DECK_SECONDARY
10
18000.0
20
-1075.0
30
18037.87347
11
21000.0
21
-1075.0
31
18210.852381
0
LINE
8
ZJ8_DECK_SECONDARY
10
21000.0
20
-1075.0
30
18210.852381
11
24000.0
21
-1075.0
31
18383.831293
0
LINE
8
ZJ8_DECK_SECONDARY
10
12000.0
20
1075.0
30
17691.915647
11
15000.0
21
1075.0
31
17864.894558
0
LINE
8
ZJ8_DECK_SECONDARY
10
15000.0
20
1075.0
30
17864.894558
11
18000.0
21
1075.0
31
18037.87347
0
LINE
8
ZJ8_DECK_SECONDARY
10
18000.0
20
1075.0
30
18037.87347
11
21000.0
21
1075.0
31
18210.852381
0
LINE
8
ZJ8_DECK_SECONDARY
10
21000.0
20
1075.0
30
18210.852381
11
24000.0
21
1075.0
31
18383.831293
0
LINE
8
ZJ8_CANTILEVER_EDGE
10
12000.0
20
-2200.0
30
17691.915647
11
15000.0
21
-2200.0
31
17864.894558
0
LINE
8
ZJ8_CANTILEVER_EDGE
10
15000.0
20
-2200.0
30
17864.894558
11
18000.0
21
-2200.0
31
18037.87347
0
LINE
8
ZJ8_CANTILEVER_EDGE
10
18000.0
20
-2200.0
30
18037.87347
11
21000.0
21
-2200.0
31
18210.852381
0
LINE
8
ZJ8_CANTILEVER_EDGE
10
21000.0
20
-2200.0
30
18210.852381
11
24000.0
21
-2200.0
31
18383.831293
0
LINE
8
ZJ8_CANTILEVER_EDGE
10
12000.0
20
2700.0
30
17691.915647
11
15000.0
21
2700.0
31
17864.894558
0
LINE
8
ZJ8_CANTILEVER_EDGE
10
15000.0
20
2700.0
30
17864.894558
11
18000.0
21
2700.0
31
18037.87347
0
LINE
8
ZJ8_CANTILEVER_EDGE
10
18000.0
20
2700.0
30
18037.87347
11
21000.0
21
2700.0
31
18210.852381
0
LINE
8
ZJ8_CANTILEVER_EDGE
10
21000.0
20
2700.0
30
18210.852381
11
24000.0
21
2700.0
31
18383.831293
0
LINE
8
ZJ8_PLATFORM_BRACE
10
12000.0
20
-2875.0
30
17691.915647
11
15000.0
21
2875.0
31
17864.894558
0
LINE
8
ZJ8_PLATFORM_BRACE
10
15000.0
20
2875.0
30
17864.894558
11
18000.0
21
-2875.0
31
18037.87347
0
LINE
8
ZJ8_PLATFORM_BRACE
10
18000.0
20
-2875.0
30
18037.87347
11
21000.0
21
2875.0
31
18210.852381
0
LINE
8
ZJ8_PLATFORM_BRACE
10
21000.0
20
2875.0
30
18210.852381
11
24000.0
21
-2875.0
31
18383.831293
0
LINE
8
ZJ8_DECK_MAIN
10
24000.0
20
-2875.0
30
18383.831293
11
27000.0
21
-2875.0
31
18556.810205
0
LINE
8
ZJ8_DECK_MAIN
10
27000.0
20
-2875.0
30
18556.810205
11
30000.0
21
-2875.0
31
18729.789116
0
LINE
8
ZJ8_DECK_MAIN
10
30000.0
20
-2875.0
30
18729.789116
11
33000.0
21
-2875.0
31
18902.768028
0
LINE
8
ZJ8_DECK_MAIN
10
33000.0
20
-2875.0
30
18902.768028
11
36000.0
21
-2875.0
31
19075.74694
0
LINE
8
ZJ8_DECK_MAIN
10
24000.0
20
2875.0
30
18383.831293
11
27000.0
21
2875.0
31
18556.810205
0
LINE
8
ZJ8_DECK_MAIN
10
27000.0
20
2875.0
30
18556.810205
11
30000.0
21
2875.0
31
18729.789116
0
LINE
8
ZJ8_DECK_MAIN
10
30000.0
20
2875.0
30
18729.789116
11
33000.0
21
2875.0
31
18902.768028
0
LINE
8
ZJ8_DECK_MAIN
10
33000.0
20
2875.0
30
18902.768028
11
36000.0
21
2875.0
31
19075.74694
0
LINE
8
ZJ8_DECK_CROSS
10
27000.0
20
-2200.0
30
18556.810205
11
27000.0
21
2700.0
31
18556.810205
0
LINE
8
ZJ8_DECK_CROSS
10
30000.0
20
-2200.0
30
18729.789116
11
30000.0
21
2700.0
31
18729.789116
0
LINE
8
ZJ8_DECK_CROSS
10
33000.0
20
-2200.0
30
18902.768028
11
33000.0
21
2700.0
31
18902.768028
0
LINE
8
ZJ8_DECK_SECONDARY
10
24000.0
20
-1075.0
30
18383.831293
11
27000.0
21
-1075.0
31
18556.810205
0
LINE
8
ZJ8_DECK_SECONDARY
10
27000.0
20
-1075.0
30
18556.810205
11
30000.0
21
-1075.0
31
18729.789116
0
LINE
8
ZJ8_DECK_SECONDARY
10
30000.0
20
-1075.0
30
18729.789116
11
33000.0
21
-1075.0
31
18902.768028
0
LINE
8
ZJ8_DECK_SECONDARY
10
33000.0
20
-1075.0
30
18902.768028
11
36000.0
21
-1075.0
31
19075.74694
0
LINE
8
ZJ8_DECK_SECONDARY
10
24000.0
20
1075.0
30
18383.831293
11
27000.0
21
1075.0
31
18556.810205
0
LINE
8
ZJ8_DECK_SECONDARY
10
27000.0
20
1075.0
30
18556.810205
11
30000.0
21
1075.0
31
18729.789116
0
LINE
8
ZJ8_DECK_SECONDARY
10
30000.0
20
1075.0
30
18729.789116
11
33000.0
21
1075.0
31
18902.768028
0
LINE
8
ZJ8_DECK_SECONDARY
10
33000.0
20
1075.0
30
18902.768028
11
36000.0
21
1075.0
31
19075.74694
0
LINE
8
ZJ8_CANTILEVER_EDGE
10
24000.0
20
-2200.0
30
18383.831293
11
27000.0
21
-2200.0
31
18556.810205
0
LINE
8
ZJ8_CANTILEVER_EDGE
10
27000.0
20
-2200.0
30
18556.810205
11
30000.0
21
-2200.0
31
18729.789116
0
LINE
8
ZJ8_CANTILEVER_EDGE
10
30000.0
20
-2200.0
30
18729.789116
11
33000.0
21
-2200.0
31
18902.768028
0
LINE
8
ZJ8_CANTILEVER_EDGE
10
33000.0
20
-2200.0
30
18902.768028
11
36000.0
21
-2200.0
31
19075.74694
0
LINE
8
ZJ8_CANTILEVER_EDGE
10
24000.0
20
2700.0
30
18383.831293
11
27000.0
21
2700.0
31
18556.810205
0
LINE
8
ZJ8_CANTILEVER_EDGE
10
27000.0
20
2700.0
30
18556.810205
11
30000.0
21
2700.0
31
18729.789116
0
LINE
8
ZJ8_CANTILEVER_EDGE
10
30000.0
20
2700.0
30
18729.789116
11
33000.0
21
2700.0
31
18902.768028
0
LINE
8
ZJ8_CANTILEVER_EDGE
10
33000.0
20
2700.0
30
18902.768028
11
36000.0
21
2700.0
31
19075.74694
0
LINE
8
ZJ8_PLATFORM_BRACE
10
24000.0
20
-2875.0
30
18383.831293
11
27000.0
21
2875.0
31
18556.810205
0
LINE
8
ZJ8_PLATFORM_BRACE
10
27000.0
20
2875.0
30
18556.810205
11
30000.0
21
-2875.0
31
18729.789116
0
LINE
8
ZJ8_PLATFORM_BRACE
10
30000.0
20
-2875.0
30
18729.789116
11
33000.0
21
2875.0
31
18902.768028
0
LINE
8
ZJ8_PLATFORM_BRACE
10
33000.0
20
2875.0
30
18902.768028
11
36000.0
21
-2875.0
31
19075.74694
0
LINE
8
ZJ8_DECK_MAIN
10
36000.0
20
-2875.0
30
19075.74694
11
39000.0
21
-2875.0
31
19248.725851
0
LINE
8
ZJ8_DECK_MAIN
10
36000.0
20
2875.0
30
19075.74694
11
39000.0
21
2875.0
31
19248.725851
0
LINE
8
ZJ8_DECK_SECONDARY
10
36000.0
20
-1075.0
30
19075.74694
11
39000.0
21
-1075.0
31
19248.725851
0
LINE
8
ZJ8_DECK_SECONDARY
10
36000.0
20
1075.0
30
19075.74694
11
39000.0
21
1075.0
31
19248.725851
0
LINE
8
ZJ8_CANTILEVER_EDGE
10
36000.0
20
-2200.0
30
19075.74694
11
39000.0
21
-2200.0
31
19248.725851
0
LINE
8
ZJ8_CANTILEVER_EDGE
10
36000.0
20
2700.0
30
19075.74694
11
39000.0
21
2700.0
31
19248.725851
0
LINE
8
ZJ8_PLATFORM_BRACE
10
36000.0
20
-2875.0
30
19075.74694
11
39000.0
21
2875.0
31
19248.725851
0
LINE
8
ZJ8_LONGITUDINAL_BRACE
10
36000.0
20
-2875.0
30
0.0
11
39000.0
21
-2875.0
31
19248.725851
0
LINE
8
ZJ8_LONGITUDINAL_BRACE
10
36000.0
20
2875.0
30
0.0
11
39000.0
21
2875.0
31
19248.725851
0
LINE
8
ZJ8_TRUSS_UPPER
10
39000.0
20
-2875.0
30
19248.725851
11
40865.454545
21
-2875.0
31
19356.287284
0
LINE
8
ZJ8_TRUSS_LOWER
10
39000.0
20
-2875.0
30
17448.725851
11
40865.454545
21
-2875.0
31
17556.287284
0
LINE
8
ZJ8_TRUSS_VERTICAL
10
39000.0
20
-2875.0
30
19248.725851
11
39000.0
21
-2875.0
31
17448.725851
0
LINE
8
ZJ8_TRUSS_DIAGONAL
10
39000.0
20
-2875.0
30
17448.725851
11
40865.454545
21
-2875.0
31
19356.287284
0
LINE
8
ZJ8_TRUSS_UPPER
10
39000.0
20
2875.0
30
19248.725851
11
40865.454545
21
2875.0
31
19356.287284
0
LINE
8
ZJ8_TRUSS_LOWER
10
39000.0
20
2875.0
30
17448.725851
11
40865.454545
21
2875.0
31
17556.287284
0
LINE
8
ZJ8_TRUSS_VERTICAL
10
39000.0
20
2875.0
30
19248.725851
11
39000.0
21
2875.0
31
17448.725851
0
LINE
8
ZJ8_TRUSS_DIAGONAL
10
39000.0
20
2875.0
30
17448.725851
11
40865.454545
21
2875.0
31
19356.287284
0
ENDSEC
0
EOF
