0
SECTION
2
HEADER
9
$INSUNITS
70
4
0
ENDSEC
0
SECTION
2
TABLES
0
TABLE
2
LAYER
70
12
0
LAYER
2
ZJ8_DECK_MAIN
70
0
62
4
6
CONTINUOUS
0
LAYER
2
ZJ8_DECK_CROSS
70
0
62
4
6
CONTINUOUS
0
LAYER
2
ZJ8_DECK_SECONDARY
70
0
62
3
6
CONTINUOUS
0
LAYER
2
ZJ8_CANTILEVER_EDGE
70
0
62
3
6
CONTINUOUS
0
LAYER
2
ZJ8_PLATFORM_BRACE
70
0
62
1
6
CONTINUOUS
0
LAYER
2
ZJ8_COLUMN
70
0
62
8
6
CONTINUOUS
0
LAYER
2
ZJ8_TRANSVERSE_BRACE
70
0
62
1
6
CONTINUOUS
0
LAYER
2
ZJ8_LONGITUDINAL_BRACE
70
0
62
1
6
CONTINUOUS
0
LAYER
2
ZJ8_TRUSS_UPPER
70
0
62
5
6
CONTINUOUS
0
LAYER
2
ZJ8_TRUSS_LOWER
70
0
62
5
6
CONTINUOUS
0
LAYER
2
ZJ8_TRUSS_VERTICAL
70
0
62
5
6
CONTINUOUS
0
LAYER
2
ZJ8_TRUSS_DIAGONAL
70
0
62
5
6
CONTINUOUS
0
ENDTAB
0
ENDSEC
0
SECTION
2
ENTITIES
0
LINE
8
ZJ8_COLUMN
10
59520.0
20
-2875.0
30
0.0
11
59520.0
21
-2875.0
31
4973.8386
0
LINE
8
ZJ8_COLUMN
10
59520.0
20
-2875.0
30
4973.8386
11
59520.0
21
-2875.0
31
9947.6772
0
LINE
8
ZJ8_COLUMN
10
59520.0
20
-2875.0
30
9947.6772
11
59520.0
21
-2875.0
31
14921.5158
0
LINE
8
ZJ8_COLUMN
10
59520.0
20
2875.0
30
0.0
11
59520.0
21
2875.0
31
4973.8386
0
LINE
8
ZJ8_COLUMN
10
59520.0
20
2875.0
30
4973.8386
11
59520.0
21
2875.0
31
9947.6772
0
LINE
8
ZJ8_COLUMN
10
59520.0
20
2875.0
30
9947.6772
11
59520.0
21
2875.0
31
14921.5158
0
LINE
8
ZJ8_DECK_CROSS
10
59520.0
20
-2200.0
30
14921.5158
11
59520.0
21
2700.0
31
14921.5158
0
LINE
8
ZJ8_TRANSVERSE_BRACE
10
59520.0
20
-2875.0
30
0.0
11
59520.0
21
2875.0
31
14921.5158
0
LINE
8
ZJ8_TRANSVERSE_BRACE
10
59520.0
20
2875.0
30
0.0
11
59520.0
21
-2875.0
31
14921.5158
0
LINE
8
ZJ8_COLUMN
10
62520.0
20
-2875.0
30
0.0
11
62520.0
21
-2875.0
31
4938.91783
0
LINE
8
ZJ8_COLUMN
10
62520.0
20
-2875.0
30
4938.91783
11
62520.0
21
-2875.0
31
9877.835661
0
LINE
8
ZJ8_COLUMN
10
62520.0
20
-2875.0
30
9877.835661
11
62520.0
21
-2875.0
31
14816.753491
0
LINE
8
ZJ8_COLUMN
10
62520.0
20
2875.0
30
0.0
11
62520.0
21
2875.0
31
4938.91783
0
LINE
8
ZJ8_COLUMN
10
62520.0
20
2875.0
30
4938.91783
11
62520.0
21
2875.0
31
9877.835661
0
LINE
8
ZJ8_COLUMN
10
62520.0
20
2875.0
30
9877.835661
11
62520.0
21
2875.0
31
14816.753491
0
LINE
8
ZJ8_DECK_CROSS
10
62520.0
20
-2200.0
30
14816.753491
11
62520.0
21
2700.0
31
14816.753491
0
LINE
8
ZJ8_TRANSVERSE_BRACE
10
62520.0
20
-2875.0
30
0.0
11
62520.0
21
2875.0
31
14816.753491
0
LINE
8
ZJ8_TRANSVERSE_BRACE
10
62520.0
20
2875.0
30
0.0
11
62520.0
21
-2875.0
31
14816.753491
0
LINE
8
ZJ8_COLUMN
10
74520.0
20
-2875.0
30
0.0
11
74520.0
21
-2875.0
31
4799.234752
0
LINE
8
ZJ8_COLUMN
10
74520.0
20
-2875.0
30
4799.234752
11
74520.0
21
-2875.0
31
9598.469505
0
LINE
8
ZJ8_COLUMN
10
74520.0
20
-2875.0
30
9598.469505
11
74520.0
21
-2875.0
31
14397.704257
0
LINE
8
ZJ8_COLUMN
10
74520.0
20
2875.0
30
0.0
11
74520.0
21
2875.0
31
4799.234752
0
LINE
8
ZJ8_COLUMN
10
74520.0
20
2875.0
30
4799.234752
11
74520.0
21
2875.0
31
9598.469505
0
LINE
8
ZJ8_COLUMN
10
74520.0
20
2875.0
30
9598.469505
11
74520.0
21
2875.0
31
14397.704257
0
LINE
8
ZJ8_DECK_CROSS
10
74520.0
20
-2200.0
30
14397.704257
11
74520.0
21
2700.0
31
14397.704257
0
LINE
8
ZJ8_TRANSVERSE_BRACE
10
74520.0
20
-2875.0
30
0.0
11
74520.0
21
2875.0
31
14397.704257
0
LINE
8
ZJ8_TRANSVERSE_BRACE
10
74520.0
20
2875.0
30
0.0
11
74520.0
21
-2875.0
31
14397.704257
0
LINE
8
ZJ8_COLUMN
10
77520.0
20
-2875.0
30
0.0
11
77520.0
21
-2875.0
31
4764.313983
0
LINE
8
ZJ8_COLUMN
10
77520.0
20
-2875.0
30
4764.313983
11
77520.0
21
-2875.0
31
9528.627966
0
LINE
8
ZJ8_COLUMN
10
77520.0
20
-2875.0
30
9528.627966
11
77520.0
21
-2875.0
31
14292.941949
0
LINE
8
ZJ8_COLUMN
10
77520.0
20
2875.0
30
0.0
11
77520.0
21
2875.0
31
4764.313983
0
LINE
8
ZJ8_COLUMN
10
77520.0
20
2875.0
30
4764.313983
11
77520.0
21
2875.0
31
9528.627966
0
LINE
8
ZJ8_COLUMN
10
77520.0
20
2875.0
30
9528.627966
11
77520.0
21
2875.0
31
14292.941949
0
LINE
8
ZJ8_DECK_CROSS
10
77520.0
20
-2200.0
30
14292.941949
11
77520.0
21
2700.0
31
14292.941949
0
LINE
8
ZJ8_TRANSVERSE_BRACE
10
77520.0
20
-2875.0
30
0.0
11
77520.0
21
2875.0
31
14292.941949
0
LINE
8
ZJ8_TRANSVERSE_BRACE
10
77520.0
20
2875.0
30
0.0
11
77520.0
21
-2875.0
31
14292.941949
0
LINE
8
ZJ8_DECK_MAIN
10
39000.0
20
-2875.0
30
15638.08999
11
41931.428571
21
-2875.0
31
15535.722248
0
LINE
8
ZJ8_DECK_MAIN
10
41931.428571
20
-2875.0
30
15535.722248
11
44862.857143
21
-2875.0
31
15433.354507
0
LINE
8
ZJ8_DECK_MAIN
10
44862.857143
20
-2875.0
30
15433.354507
11
47794.285714
21
-2875.0
31
15330.986766
0
LINE
8
ZJ8_DECK_MAIN
10
47794.285714
20
-2875.0
30
15330.986766
11
50725.714286
21
-2875.0
31
15228.619024
0
LINE
8
ZJ8_DECK_MAIN
10
50725.714286
20
-2875.0
30
15228.619024
11
53657.142857
21
-2875.0
31
15126.251283
0
LINE
8
ZJ8_DECK_MAIN
10
53657.142857
20
-2875.0
30
15126.251283
11
56588.571429
21
-2875.0
31
15023.883541
0
LINE
8
ZJ8_DECK_MAIN
10
56588.571429
20
-2875.0
30
15023.883541
11
59520.0
21
-2875.0
31
14921.5158
0
LINE
8
ZJ8_DECK_MAIN
10
39000.0
20
2875.0
30
15638.08999
11
41931.428571
21
2875.0
31
15535.722248
0
LINE
8
ZJ8_DECK_MAIN
10
41931.428571
20
2875.0
30
15535.722248
11
44862.857143
21
2875.0
31
15433.354507
0
LINE
8
ZJ8_DECK_MAIN
10
44862.857143
20
2875.0
30
15433.354507
11
47794.285714
21
2875.0
31
15330.986766
0
LINE
8
ZJ8_DECK_MAIN
10
47794.285714
20
2875.0
30
15330.986766
11
50725.714286
21
2875.0
31
15228.619024
0
LINE
8
ZJ8_DECK_MAIN
10
50725.714286
20
2875.0
30
15228.619024
11
53657.142857
21
2875.0
31
15126.251283
0
LINE
8
ZJ8_DECK_MAIN
10
53657.142857
20
2875.0
30
15126.251283
11
56588.571429
21
2875.0
31
15023.883541
0
LINE
8
ZJ8_DECK_MAIN
10
56588.571429
20
2875.0
30
15023.883541
11
59520.0
21
2875.0
31
14921.5158
0
LINE
8
ZJ8_DECK_CROSS
10
41931.428571
20
-2200.0
30
15535.722248
11
41931.428571
21
2700.0
31
15535.722248
0
LINE
8
ZJ8_DECK_CROSS
10
44862.857143
20
-2200.0
30
15433.354507
11
44862.857143
21
2700.0
31
15433.354507
0
LINE
8
ZJ8_DECK_CROSS
10
47794.285714
20
-2200.0
30
15330.986766
11
47794.285714
21
2700.0
31
15330.986766
0
LINE
8
ZJ8_DECK_CROSS
10
50725.714286
20
-2200.0
30
15228.619024
11
50725.714286
21
2700.0
31
15228.619024
0
LINE
8
ZJ8_DECK_CROSS
10
53657.142857
20
-2200.0
30
15126.251283
11
53657.142857
21
2700.0
31
15126.251283
0
LINE
8
ZJ8_DECK_CROSS
10
56588.571429
20
-2200.0
30
15023.883541
11
56588.571429
21
2700.0
31
15023.883541
0
LINE
8
ZJ8_DECK_SECONDARY
10
39000.0
20
-1075.0
30
15638.08999
11
41931.428571
21
-1075.0
31
15535.722248
0
LINE
8
ZJ8_DECK_SECONDARY
10
41931.428571
20
-1075.0
30
15535.722248
11
44862.857143
21
-1075.0
31
15433.354507
0
LINE
8
ZJ8_DECK_SECONDARY
10
44862.857143
20
-1075.0
30
15433.354507
11
47794.285714
21
-1075.0
31
15330.986766
0
LINE
8
ZJ8_DECK_SECONDARY
10
47794.285714
20
-1075.0
30
15330.986766
11
50725.714286
21
-1075.0
31
15228.619024
0
LINE
8
ZJ8_DECK_SECONDARY
10
50725.714286
20
-1075.0
30
15228.619024
11
53657.142857
21
-1075.0
31
15126.251283
0
LINE
8
ZJ8_DECK_SECONDARY
10
53657.142857
20
-1075.0
30
15126.251283
11
56588.571429
21
-1075.0
31
15023.883541
0
LINE
8
ZJ8_DECK_SECONDARY
10
56588.571429
20
-1075.0
30
15023.883541
11
59520.0
21
-1075.0
31
14921.5158
0
LINE
8
ZJ8_DECK_SECONDARY
10
39000.0
20
1075.0
30
15638.08999
11
41931.428571
21
1075.0
31
15535.722248
0
LINE
8
ZJ8_DECK_SECONDARY
10
41931.428571
20
1075.0
30
15535.722248
11
44862.857143
21
1075.0
31
15433.354507
0
LINE
8
ZJ8_DECK_SECONDARY
10
44862.857143
20
1075.0
30
15433.354507
11
47794.285714
21
1075.0
31
15330.986766
0
LINE
8
ZJ8_DECK_SECONDARY
10
47794.285714
20
1075.0
30
15330.986766
11
50725.714286
21
1075.0
31
15228.619024
0
LINE
8
ZJ8_DECK_SECONDARY
10
50725.714286
20
1075.0
30
15228.619024
11
53657.142857
21
1075.0
31
15126.251283
0
LINE
8
ZJ8_DECK_SECONDARY
10
53657.142857
20
1075.0
30
15126.251283
11
56588.571429
21
1075.0
31
15023.883541
0
LINE
8
ZJ8_DECK_SECONDARY
10
56588.571429
20
1075.0
30
15023.883541
11
59520.0
21
1075.0
31
14921.5158
0
LINE
8
ZJ8_CANTILEVER_EDGE
10
39000.0
20
-2200.0
30
15638.08999
11
41931.428571
21
-2200.0
31
15535.722248
0
LINE
8
ZJ8_CANTILEVER_EDGE
10
41931.428571
20
-2200.0
30
15535.722248
11
44862.857143
21
-2200.0
31
15433.354507
0
LINE
8
ZJ8_CANTILEVER_EDGE
10
44862.857143
20
-2200.0
30
15433.354507
11
47794.285714
21
-2200.0
31
15330.986766
0
LINE
8
ZJ8_CANTILEVER_EDGE
10
47794.285714
20
-2200.0
30
15330.986766
11
50725.714286
21
-2200.0
31
15228.619024
0
LINE
8
ZJ8_CANTILEVER_EDGE
10
50725.714286
20
-2200.0
30
15228.619024
11
53657.142857
21
-2200.0
31
15126.251283
0
LINE
8
ZJ8_CANTILEVER_EDGE
10
53657.142857
20
-2200.0
30
15126.251283
11
56588.571429
21
-2200.0
31
15023.883541
0
LINE
8
ZJ8_CANTILEVER_EDGE
10
56588.571429
20
-2200.0
30
15023.883541
11
59520.0
21
-2200.0
31
14921.5158
0
LINE
8
ZJ8_CANTILEVER_EDGE
10
39000.0
20
2700.0
30
15638.08999
11
41931.428571
21
2700.0
31
15535.722248
0
LINE
8
ZJ8_CANTILEVER_EDGE
10
41931.428571
20
2700.0
30
15535.722248
11
44862.857143
21
2700.0
31
15433.354507
0
LINE
8
ZJ8_CANTILEVER_EDGE
10
44862.857143
20
2700.0
30
15433.354507
11
47794.285714
21
2700.0
31
15330.986766
0
LINE
8
ZJ8_CANTILEVER_EDGE
10
47794.285714
20
2700.0
30
15330.986766
11
50725.714286
21
2700.0
31
15228.619024
0
LINE
8
ZJ8_CANTILEVER_EDGE
10
50725.714286
20
2700.0
30
15228.619024
11
53657.142857
21
2700.0
31
15126.251283
0
LINE
8
ZJ8_CANTILEVER_EDGE
10
53657.142857
20
2700.0
30
15126.251283
11
56588.571429
21
2700.0
31
15023.883541
0
LINE
8
ZJ8_CANTILEVER_EDGE
10
56588.571429
20
2700.0
30
15023.883541
11
59520.0
21
2700.0
31
14921.5158
0
LINE
8
ZJ8_PLATFORM_BRACE
10
39000.0
20
-2875.0
30
15638.08999
11
41931.428571
21
2875.0
31
15535.722248
0
LINE
8
ZJ8_PLATFORM_BRACE
10
41931.428571
20
2875.0
30
15535.722248
11
44862.857143
21
-2875.0
31
15433.354507
0
LINE
8
ZJ8_PLATFORM_BRACE
10
44862.857143
20
-2875.0
30
15433.354507
11
47794.285714
21
2875.0
31
15330.986766
0
LINE
8
ZJ8_PLATFORM_BRACE
10
47794.285714
20
2875.0
30
15330.986766
11
50725.714286
21
-2875.0
31
15228.619024
0
LINE
8
ZJ8_PLATFORM_BRACE
10
50725.714286
20
-2875.0
30
15228.619024
11
53657.142857
21
2875.0
31
15126.251283
0
LINE
8
ZJ8_PLATFORM_BRACE
10
53657.142857
20
2875.0
30
15126.251283
11
56588.571429
21
-2875.0
31
15023.883541
0
LINE
8
ZJ8_PLATFORM_BRACE
10
56588.571429
20
-2875.0
30
15023.883541
11
59520.0
21
2875.0
31
14921.5158
0
LINE
8
ZJ8_TRUSS_UPPER
10
39000.0
20
-2875.0
30
15638.08999
11
40865.454545
21
-2875.0
31
15572.946882
0
LINE
8
ZJ8_TRUSS_UPPER
10
40865.454545
20
-2875.0
30
15572.946882
11
42730.909091
21
-2875.0
31
15507.803773
0
LINE
8
ZJ8_TRUSS_UPPER
10
42730.909091
20
-2875.0
30
15507.803773
11
44596.363636
21
-2875.0
31
15442.660665
0
LINE
8
ZJ8_TRUSS_UPPER
10
44596.363636
20
-2875.0
30
15442.660665
11
46461.818182
21
-2875.0
31
15377.517557
0
LINE
8
ZJ8_TRUSS_UPPER
10
46461.818182
20
-2875.0
30
15377.517557
11
48327.272727
21
-2875.0
31
15312.374449
0
LINE
8
ZJ8_TRUSS_UPPER
10
48327.272727
20
-2875.0
30
15312.374449
11
50192.727273
21
-2875.0
31
15247.231341
0
LINE
8
ZJ8_TRUSS_UPPER
10
50192.727273
20
-2875.0
30
15247.231341
11
52058.181818
21
-2875.0
31
15182.088233
0
LINE
8
ZJ8_TRUSS_UPPER
10
52058.181818
20
-2875.0
30
15182.088233
11
53923.636364
21
-2875.0
31
15116.945124
0
LINE
8
ZJ8_TRUSS_UPPER
10
53923.636364
20
-2875.0
30
15116.945124
11
55789.090909
21
-2875.0
31
15051.802016
0
LINE
8
ZJ8_TRUSS_UPPER
10
55789.090909
20
-2875.0
30
15051.802016
11
57654.545455
21
-2875.0
31
14986.658908
0
LINE
8
ZJ8_TRUSS_UPPER
10
57654.545455
20
-2875.0
30
14986.658908
11
59520.0
21
-2875.0
31
14921.5158
0
LINE
8
ZJ8_TRUSS_LOWER
10
39000.0
20
-2875.0
30
13838.08999
11
40865.454545
21
-2875.0
31
13772.946882
0
LINE
8
ZJ8_TRUSS_LOWER
10
40865.454545
20
-2875.0
30
13772.946882
11
42730.909091
21
-2875.0
31
13707.803773
0
LINE
8
ZJ8_TRUSS_LOWER
10
42730.909091
20
-2875.0
30
13707.803773
11
44596.363636
21
-2875.0
31
13642.660665
0
LINE
8
ZJ8_TRUSS_LOWER
10
44596.363636
20
-2875.0
30
13642.660665
11
46461.818182
21
-2875.0
31
13577.517557
0
LINE
8
ZJ8_TRUSS_LOWER
10
46461.818182
20
-2875.0
30
13577.517557
11
48327.272727
21
-2875.0
31
13512.374449
0
LINE
8
ZJ8_TRUSS_LOWER
10
48327.272727
20
-2875.0
30
13512.374449
11
50192.727273
21
-2875.0
31
13447.231341
0
LINE
8
ZJ8_TRUSS_LOWER
10
50192.727273
20
-2875.0
30
13447.231341
11
52058.181818
21
-2875.0
31
13382.088233
0
LINE
8
ZJ8_TRUSS_LOWER
10
52058.181818
20
-2875.0
30
13382.088233
11
53923.636364
21
-2875.0
31
13316.945124
0
LINE
8
ZJ8_TRUSS_LOWER
10
53923.636364
20
-2875.0
30
13316.945124
11
55789.090909
21
-2875.0
31
13251.802016
0
LINE
8
ZJ8_TRUSS_LOWER
10
55789.090909
20
-2875.0
30
13251.802016
11
57654.545455
21
-2875.0
31
13186.658908
0
LINE
8
ZJ8_TRUSS_LOWER
10
57654.545455
20
-2875.0
30
13186.658908
11
59520.0
21
-2875.0
31
13121.5158
0
LINE
8
ZJ8_TRUSS_VERTICAL
10
40865.454545
20
-2875.0
30
15572.946882
11
40865.454545
21
-2875.0
31
13772.946882
0
LINE
8
ZJ8_TRUSS_VERTICAL
10
42730.909091
20
-2875.0
30
15507.803773
11
42730.909091
21
-2875.0
31
13707.803773
0
LINE
8
ZJ8_TRUSS_VERTICAL
10
44596.363636
20
-2875.0
30
15442.660665
11
44596.363636
21
-2875.0
31
13642.660665
0
LINE
8
ZJ8_TRUSS_VERTICAL
10
46461.818182
20
-2875.0
30
15377.517557
11
46461.818182
21
-2875.0
31
13577.517557
0
LINE
8
ZJ8_TRUSS_VERTICAL
10
48327.272727
20
-2875.0
30
15312.374449
11
48327.272727
21
-2875.0
31
13512.374449
0
LINE
8
ZJ8_TRUSS_VERTICAL
10
50192.727273
20
-2875.0
30
15247.231341
11
50192.727273
21
-2875.0
31
13447.231341
0
LINE
8
ZJ8_TRUSS_VERTICAL
10
52058.181818
20
-2875.0
30
15182.088233
11
52058.181818
21
-2875.0
31
13382.088233
0
LINE
8
ZJ8_TRUSS_VERTICAL
10
53923.636364
20
-2875.0
30
15116.945124
11
53923.636364
21
-2875.0
31
13316.945124
0
LINE
8
ZJ8_TRUSS_VERTICAL
10
55789.090909
20
-2875.0
30
15051.802016
11
55789.090909
21
-2875.0
31
13251.802016
0
LINE
8
ZJ8_TRUSS_VERTICAL
10
57654.545455
20
-2875.0
30
14986.658908
11
57654.545455
21
-2875.0
31
13186.658908
0
LINE
8
ZJ8_TRUSS_VERTICAL
10
59520.0
20
-2875.0
30
14921.5158
11
59520.0
21
-2875.0
31
13121.5158
0
LINE
8
ZJ8_TRUSS_DIAGONAL
10
39000.0
20
-2875.0
30
13838.08999
11
40865.454545
21
-2875.0
31
15572.946882
0
LINE
8
ZJ8_TRUSS_DIAGONAL
10
40865.454545
20
-2875.0
30
15572.946882
11
42730.909091
21
-2875.0
31
13707.803773
0
LINE
8
ZJ8_TRUSS_DIAGONAL
10
42730.909091
20
-2875.0
30
13707.803773
11
44596.363636
21
-2875.0
31
15442.660665
0
LINE
8
ZJ8_TRUSS_DIAGONAL
10
44596.363636
20
-2875.0
30
15442.660665
11
46461.818182
21
-2875.0
31
13577.517557
0
LINE
8
ZJ8_TRUSS_DIAGONAL
10
46461.818182
20
-2875.0
30
13577.517557
11
48327.272727
21
-2875.0
31
15312.374449
0
LINE
8
ZJ8_TRUSS_DIAGONAL
10
48327.272727
20
-2875.0
30
15312.374449
11
50192.727273
21
-2875.0
31
13447.231341
0
LINE
8
ZJ8_TRUSS_DIAGONAL
10
50192.727273
20
-2875.0
30
13447.231341
11
52058.181818
21
-2875.0
31
15182.088233
0
LINE
8
ZJ8_TRUSS_DIAGONAL
10
52058.181818
20
-2875.0
30
15182.088233
11
53923.636364
21
-2875.0
31
13316.945124
0
LINE
8
ZJ8_TRUSS_DIAGONAL
10
53923.636364
20
-2875.0
30
13316.945124
11
55789.090909
21
-2875.0
31
15051.802016
0
LINE
8
ZJ8_TRUSS_DIAGONAL
10
55789.090909
20
-2875.0
30
15051.802016
11
57654.545455
21
-2875.0
31
13186.658908
0
LINE
8
ZJ8_TRUSS_DIAGONAL
10
57654.545455
20
-2875.0
30
13186.658908
11
59520.0
21
-2875.0
31
14921.5158
0
LINE
8
ZJ8_TRUSS_UPPER
10
39000.0
20
2875.0
30
15638.08999
11
40865.454545
21
2875.0
31
15572.946882
0
LINE
8
ZJ8_TRUSS_UPPER
10
40865.454545
20
2875.0
30
15572.946882
11
42730.909091
21
2875.0
31
15507.803773
0
LINE
8
ZJ8_TRUSS_UPPER
10
42730.909091
20
2875.0
30
15507.803773
11
44596.363636
21
2875.0
31
15442.660665
0
LINE
8
ZJ8_TRUSS_UPPER
10
44596.363636
20
2875.0
30
15442.660665
11
46461.818182
21
2875.0
31
15377.517557
0
LINE
8
ZJ8_TRUSS_UPPER
10
46461.818182
20
2875.0
30
15377.517557
11
48327.272727
21
2875.0
31
15312.374449
0
LINE
8
ZJ8_TRUSS_UPPER
10
48327.272727
20
2875.0
30
15312.374449
11
50192.727273
21
2875.0
31
15247.231341
0
LINE
8
ZJ8_TRUSS_UPPER
10
50192.727273
20
2875.0
30
15247.231341
11
52058.181818
21
2875.0
31
15182.088233
0
LINE
8
ZJ8_TRUSS_UPPER
10
52058.181818
20
2875.0
30
15182.088233
11
53923.636364
21
2875.0
31
15116.945124
0
LINE
8
ZJ8_TRUSS_UPPER
10
53923.636364
20
2875.0
30
15116.945124
11
55789.090909
21
2875.0
31
15051.802016
0
LINE
8
ZJ8_TRUSS_UPPER
10
55789.090909
20
2875.0
30
15051.802016
11
57654.545455
21
2875.0
31
14986.658908
0
LINE
8
ZJ8_TRUSS_UPPER
10
57654.545455
20
2875.0
30
14986.658908
11
59520.0
21
2875.0
31
14921.5158
0
LINE
8
ZJ8_TRUSS_LOWER
10
39000.0
20
2875.0
30
13838.08999
11
40865.454545
21
2875.0
31
13772.946882
0
LINE
8
ZJ8_TRUSS_LOWER
10
40865.454545
20
2875.0
30
13772.946882
11
42730.909091
21
2875.0
31
13707.803773
0
LINE
8
ZJ8_TRUSS_LOWER
10
42730.909091
20
2875.0
30
13707.803773
11
44596.363636
21
2875.0
31
13642.660665
0
LINE
8
ZJ8_TRUSS_LOWER
10
44596.363636
20
2875.0
30
13642.660665
11
46461.818182
21
2875.0
31
13577.517557
0
LINE
8
ZJ8_TRUSS_LOWER
10
46461.818182
20
2875.0
30
13577.517557
11
48327.272727
21
2875.0
31
13512.374449
0
LINE
8
ZJ8_TRUSS_LOWER
10
48327.272727
20
2875.0
30
13512.374449
11
50192.727273
21
2875.0
31
13447.231341
0
LINE
8
ZJ8_TRUSS_LOWER
10
50192.727273
20
2875.0
30
13447.231341
11
52058.181818
21
2875.0
31
13382.088233
0
LINE
8
ZJ8_TRUSS_LOWER
10
52058.181818
20
2875.0
30
13382.088233
11
53923.636364
21
2875.0
31
13316.945124
0
LINE
8
ZJ8_TRUSS_LOWER
10
53923.636364
20
2875.0
30
13316.945124
11
55789.090909
21
2875.0
31
13251.802016
0
LINE
8
ZJ8_TRUSS_LOWER
10
55789.090909
20
2875.0
30
13251.802016
11
57654.545455
21
2875.0
31
13186.658908
0
LINE
8
ZJ8_TRUSS_LOWER
10
57654.545455
20
2875.0
30
13186.658908
11
59520.0
21
2875.0
31
13121.5158
0
LINE
8
ZJ8_TRUSS_VERTICAL
10
40865.454545
20
2875.0
30
15572.946882
11
40865.454545
21
2875.0
31
13772.946882
0
LINE
8
ZJ8_TRUSS_VERTICAL
10
42730.909091
20
2875.0
30
15507.803773
11
42730.909091
21
2875.0
31
13707.803773
0
LINE
8
ZJ8_TRUSS_VERTICAL
10
44596.363636
20
2875.0
30
15442.660665
11
44596.363636
21
2875.0
31
13642.660665
0
LINE
8
ZJ8_TRUSS_VERTICAL
10
46461.818182
20
2875.0
30
15377.517557
11
46461.818182
21
2875.0
31
13577.517557
0
LINE
8
ZJ8_TRUSS_VERTICAL
10
48327.272727
20
2875.0
30
15312.374449
11
48327.272727
21
2875.0
31
13512.374449
0
LINE
8
ZJ8_TRUSS_VERTICAL
10
50192.727273
20
2875.0
30
15247.231341
11
50192.727273
21
2875.0
31
13447.231341
0
LINE
8
ZJ8_TRUSS_VERTICAL
10
52058.181818
20
2875.0
30
15182.088233
11
52058.181818
21
2875.0
31
13382.088233
0
LINE
8
ZJ8_TRUSS_VERTICAL
10
53923.636364
20
2875.0
30
15116.945124
11
53923.636364
21
2875.0
31
13316.945124
0
LINE
8
ZJ8_TRUSS_VERTICAL
10
55789.090909
20
2875.0
30
15051.802016
11
55789.090909
21
2875.0
31
13251.802016
0
LINE
8
ZJ8_TRUSS_VERTICAL
10
57654.545455
20
2875.0
30
14986.658908
11
57654.545455
21
2875.0
31
13186.658908
0
LINE
8
ZJ8_TRUSS_VERTICAL
10
59520.0
20
2875.0
30
14921.5158
11
59520.0
21
2875.0
31
13121.5158
0
LINE
8
ZJ8_TRUSS_DIAGONAL
10
39000.0
20
2875.0
30
13838.08999
11
40865.454545
21
2875.0
31
15572.946882
0
LINE
8
ZJ8_TRUSS_DIAGONAL
10
40865.454545
20
2875.0
30
15572.946882
11
42730.909091
21
2875.0
31
13707.803773
0
LINE
8
ZJ8_TRUSS_DIAGONAL
10
42730.909091
20
2875.0
30
13707.803773
11
44596.363636
21
2875.0
31
15442.660665
0
LINE
8
ZJ8_TRUSS_DIAGONAL
10
44596.363636
20
2875.0
30
15442.660665
11
46461.818182
21
2875.0
31
13577.517557
0
LINE
8
ZJ8_TRUSS_DIAGONAL
10
46461.818182
20
2875.0
30
13577.517557
11
48327.272727
21
2875.0
31
15312.374449
0
LINE
8
ZJ8_TRUSS_DIAGONAL
10
48327.272727
20
2875.0
30
15312.374449
11
50192.727273
21
2875.0
31
13447.231341
0
LINE
8
ZJ8_TRUSS_DIAGONAL
10
50192.727273
20
2875.0
30
13447.231341
11
52058.181818
21
2875.0
31
15182.088233
0
LINE
8
ZJ8_TRUSS_DIAGONAL
10
52058.181818
20
2875.0
30
15182.088233
11
53923.636364
21
2875.0
31
13316.945124
0
LINE
8
ZJ8_TRUSS_DIAGONAL
10
53923.636364
20
2875.0
30
13316.945124
11
55789.090909
21
2875.0
31
15051.802016
0
LINE
8
ZJ8_TRUSS_DIAGONAL
10
55789.090909
20
2875.0
30
15051.802016
11
57654.545455
21
2875.0
31
13186.658908
0
LINE
8
ZJ8_TRUSS_DIAGONAL
10
57654.545455
20
2875.0
30
13186.658908
11
59520.0
21
2875.0
31
14921.5158
0
LINE
8
ZJ8_DECK_MAIN
10
59520.0
20
-2875.0
30
14921.5158
11
62520.0
21
-2875.0
31
14816.753491
0
LINE
8
ZJ8_DECK_MAIN
10
59520.0
20
2875.0
30
14921.5158
11
62520.0
21
2875.0
31
14816.753491
0
LINE
8
ZJ8_DECK_SECONDARY
10
59520.0
20
-1075.0
30
14921.5158
11
62520.0
21
-1075.0
31
14816.753491
0
LINE
8
ZJ8_DECK_SECONDARY
10
59520.0
20
1075.0
30
14921.5158
11
62520.0
21
1075.0
31
14816.753491
0
LINE
8
ZJ8_CANTILEVER_EDGE
10
59520.0
20
-2200.0
30
14921.5158
11
62520.0
21
-2200.0
31
14816.753491
0
LINE
8
ZJ8_CANTILEVER_EDGE
10
59520.0
20
2700.0
30
14921.5158
11
62520.0
21
2700.0
31
14816.753491
0
LINE
8
ZJ8_PLATFORM_BRACE
10
59520.0
20
-2875.0
30
14921.5158
11
62520.0
21
2875.0
31
14816.753491
0
LINE
8
ZJ8_LONGITUDINAL_BRACE
10
59520.0
20
-2875.0
30
0.0
11
62520.0
21
-2875.0
31
14816.753491
0
LINE
8
ZJ8_LONGITUDINAL_BRACE
10
59520.0
20
2875.0
30
0.0
11
62520.0
21
2875.0
31
14816.753491
0
LINE
8
ZJ8_DECK_MAIN
10
62520.0
20
-2875.0
30
14816.753491
11
65520.0
21
-2875.0
31
14711.991183
0
LINE
8
ZJ8_DECK_MAIN
10
65520.0
20
-2875.0
30
14711.991183
11
68520.0
21
-2875.0
31
14607.228874
0
LINE
8
ZJ8_DECK_MAIN
10
68520.0
20
-2875.0
30
14607.228874
11
71520.0
21
-2875.0
31
14502.466566
0
LINE
8
ZJ8_DECK_MAIN
10
71520.0
20
-2875.0
30
14502.466566
11
74520.0
21
-2875.0
31
14397.704257
0
LINE
8
ZJ8_DECK_MAIN
10
62520.0
20
2875.0
30
14816.753491
11
65520.0
21
2875.0
31
14711.991183
0
LINE
8
ZJ8_DECK_MAIN
10
65520.0
20
2875.0
30
14711.991183
11
68520.0
21
2875.0
31
14607.228874
0
LINE
8
ZJ8_DECK_MAIN
10
68520.0
20
2875.0
30
14607.228874
11
71520.0
21
2875.0
31
14502.466566
0
LINE
8
ZJ8_DECK_MAIN
10
71520.0
20
2875.0
30
14502.466566
11
74520.0
21
2875.0
31
14397.704257
0
LINE
8
ZJ8_DECK_CROSS
10
65520.0
20
-2200.0
30
14711.991183
11
65520.0
21
2700.0
31
14711.991183
0
LINE
8
ZJ8_DECK_CROSS
10
68520.0
20
-2200.0
30
14607.228874
11
68520.0
21
2700.0
31
14607.228874
0
LINE
8
ZJ8_DECK_CROSS
10
71520.0
20
-2200.0
30
14502.466566
11
71520.0
21
2700.0
31
14502.466566
0
LINE
8
ZJ8_DECK_SECONDARY
10
62520.0
20
-1075.0
30
14816.753491
11
65520.0
21
-1075.0
31
14711.991183
0
LINE
8
ZJ8_DECK_SECONDARY
10
65520.0
20
-1075.0
30
14711.991183
11
68520.0
21
-1075.0
31
14607.228874
0
LINE
8
ZJ8_DECK_SECONDARY
10
68520.0
20
-1075.0
30
14607.228874
11
71520.0
21
-1075.0
31
14502.466566
0
LINE
8
ZJ8_DECK_SECONDARY
10
71520.0
20
-1075.0
30
14502.466566
11
74520.0
21
-1075.0
31
14397.704257
0
LINE
8
ZJ8_DECK_SECONDARY
10
62520.0
20
1075.0
30
14816.753491
11
65520.0
21
1075.0
31
14711.991183
0
LINE
8
ZJ8_DECK_SECONDARY
10
65520.0
20
1075.0
30
14711.991183
11
68520.0
21
1075.0
31
14607.228874
0
LINE
8
ZJ8_DECK_SECONDARY
10
68520.0
20
1075.0
30
14607.228874
11
71520.0
21
1075.0
31
14502.466566
0
LINE
8
ZJ8_DECK_SECONDARY
10
71520.0
20
1075.0
30
14502.466566
11
74520.0
21
1075.0
31
14397.704257
0
LINE
8
ZJ8_CANTILEVER_EDGE
10
62520.0
20
-2200.0
30
14816.753491
11
65520.0
21
-2200.0
31
14711.991183
0
LINE
8
ZJ8_CANTILEVER_EDGE
10
65520.0
20
-2200.0
30
14711.991183
11
68520.0
21
-2200.0
31
14607.228874
0
LINE
8
ZJ8_CANTILEVER_EDGE
10
68520.0
20
-2200.0
30
14607.228874
11
71520.0
21
-2200.0
31
14502.466566
0
LINE
8
ZJ8_CANTILEVER_EDGE
10
71520.0
20
-2200.0
30
14502.466566
11
74520.0
21
-2200.0
31
14397.704257
0
LINE
8
ZJ8_CANTILEVER_EDGE
10
62520.0
20
2700.0
30
14816.753491
11
65520.0
21
2700.0
31
14711.991183
0
LINE
8
ZJ8_CANTILEVER_EDGE
10
65520.0
20
2700.0
30
14711.991183
11
68520.0
21
2700.0
31
14607.228874
0
LINE
8
ZJ8_CANTILEVER_EDGE
10
68520.0
20
2700.0
30
14607.228874
11
71520.0
21
2700.0
31
14502.466566
0
LINE
8
ZJ8_CANTILEVER_EDGE
10
71520.0
20
2700.0
30
14502.466566
11
74520.0
21
2700.0
31
14397.704257
0
LINE
8
ZJ8_PLATFORM_BRACE
10
62520.0
20
-2875.0
30
14816.753491
11
65520.0
21
2875.0
31
14711.991183
0
LINE
8
ZJ8_PLATFORM_BRACE
10
65520.0
20
2875.0
30
14711.991183
11
68520.0
21
-2875.0
31
14607.228874
0
LINE
8
ZJ8_PLATFORM_BRACE
10
68520.0
20
-2875.0
30
14607.228874
11
71520.0
21
2875.0
31
14502.466566
0
LINE
8
ZJ8_PLATFORM_BRACE
10
71520.0
20
2875.0
30
14502.466566
11
74520.0
21
-2875.0
31
14397.704257
0
LINE
8
ZJ8_DECK_MAIN
10
74520.0
20
-2875.0
30
14397.704257
11
77520.0
21
-2875.0
31
14292.941949
0
LINE
8
ZJ8_DECK_MAIN
10
74520.0
20
2875.0
30
14397.704257
11
77520.0
21
2875.0
31
14292.941949
0
LINE
8
ZJ8_DECK_SECONDARY
10
74520.0
20
-1075.0
30
14397.704257
11
77520.0
21
-1075.0
31
14292.941949
0
LINE
8
ZJ8_DECK_SECONDARY
10
74520.0
20
1075.0
30
14397.704257
11
77520.0
21
1075.0
31
14292.941949
0
LINE
8
ZJ8_CANTILEVER_EDGE
10
74520.0
20
-2200.0
30
14397.704257
11
77520.0
21
-2200.0
31
14292.941949
0
LINE
8
ZJ8_CANTILEVER_EDGE
10
74520.0
20
2700.0
30
14397.704257
11
77520.0
21
2700.0
31
14292.941949
0
LINE
8
ZJ8_PLATFORM_BRACE
10
74520.0
20
-2875.0
30
14397.704257
11
77520.0
21
2875.0
31
14292.941949
0
LINE
8
ZJ8_LONGITUDINAL_BRACE
10
74520.0
20
-2875.0
30
0.0
11
77520.0
21
-2875.0
31
14292.941949
0
LINE
8
ZJ8_LONGITUDINAL_BRACE
10
74520.0
20
2875.0
30
0.0
11
77520.0
21
2875.0
31
14292.941949
0
LINE
8
ZJ8_TRUSS_VERTICAL
10
77520.0
20
-2875.0
30
14292.941949
11
77520.0
21
-2875.0
31
12492.941949
0
LINE
8
ZJ8_TRUSS_VERTICAL
10
77520.0
20
2875.0
30
14292.941949
11
77520.0
21
2875.0
31
12492.941949
0
ENDSEC
0
EOF
