0
SECTION
2
HEADER
9
$INSUNITS
70
4
0
ENDSEC
0
SECTION
2
TABLES
0
TABLE
2
LAYER
70
12
0
LAYER
2
ZJ8_DECK_MAIN
70
0
62
4
6
CONTINUOUS
0
LAYER
2
ZJ8_DECK_CROSS
70
0
62
4
6
CONTINUOUS
0
LAYER
2
ZJ8_DECK_SECONDARY
70
0
62
3
6
CONTINUOUS
0
LAYER
2
ZJ8_CANTILEVER_EDGE
70
0
62
3
6
CONTINUOUS
0
LAYER
2
ZJ8_PLATFORM_BRACE
70
0
62
1
6
CONTINUOUS
0
LAYER
2
ZJ8_COLUMN
70
0
62
8
6
CONTINUOUS
0
LAYER
2
ZJ8_TRANSVERSE_BRACE
70
0
62
1
6
CONTINUOUS
0
LAYER
2
ZJ8_LONGITUDINAL_BRACE
70
0
62
1
6
CONTINUOUS
0
LAYER
2
ZJ8_TRUSS_UPPER
70
0
62
5
6
CONTINUOUS
0
LAYER
2
ZJ8_TRUSS_LOWER
70
0
62
5
6
CONTINUOUS
0
LAYER
2
ZJ8_TRUSS_VERTICAL
70
0
62
5
6
CONTINUOUS
0
LAYER
2
ZJ8_TRUSS_DIAGONAL
70
0
62
5
6
CONTINUOUS
0
ENDTAB
0
ENDSEC
0
SECTION
2
ENTITIES
0
LINE
8
ZJ8_COLUMN
10
36000.0
20
-2875.0
30
0.0
11
36000.0
21
-2875.0
31
4093.281147
0
LINE
8
ZJ8_COLUMN
10
36000.0
20
-2875.0
30
4093.281147
11
36000.0
21
-2875.0
31
8186.562294
0
LINE
8
ZJ8_COLUMN
10
36000.0
20
-2875.0
30
8186.562294
11
36000.0
21
-2875.0
31
12279.843441
0
LINE
8
ZJ8_COLUMN
10
36000.0
20
-2875.0
30
12279.843441
11
36000.0
21
-2875.0
31
16373.124588
0
LINE
8
ZJ8_COLUMN
10
36000.0
20
-2875.0
30
16373.124588
11
36000.0
21
-2875.0
31
20466.405735
0
LINE
8
ZJ8_COLUMN
10
36000.0
20
2875.0
30
0.0
11
36000.0
21
2875.0
31
4093.281147
0
LINE
8
ZJ8_COLUMN
10
36000.0
20
2875.0
30
4093.281147
11
36000.0
21
2875.0
31
8186.562294
0
LINE
8
ZJ8_COLUMN
10
36000.0
20
2875.0
30
8186.562294
11
36000.0
21
2875.0
31
12279.843441
0
LINE
8
ZJ8_COLUMN
10
36000.0
20
2875.0
30
12279.843441
11
36000.0
21
2875.0
31
16373.124588
0
LINE
8
ZJ8_COLUMN
10
36000.0
20
2875.0
30
16373.124588
11
36000.0
21
2875.0
31
20466.405735
0
LINE
8
ZJ8_DECK_CROSS
10
36000.0
20
-2200.0
30
20466.405735
11
36000.0
21
2700.0
31
20466.405735
0
LINE
8
ZJ8_TRANSVERSE_BRACE
10
36000.0
20
-2875.0
30
0.0
11
36000.0
21
2875.0
31
20466.405735
0
LINE
8
ZJ8_TRANSVERSE_BRACE
10
36000.0
20
2875.0
30
0.0
11
36000.0
21
-2875.0
31
20466.405735
0
LINE
8
ZJ8_COLUMN
10
39000.0
20
-2875.0
30
0.0
11
39000.0
21
-2875.0
31
4151.054576
0
LINE
8
ZJ8_COLUMN
10
39000.0
20
-2875.0
30
4151.054576
11
39000.0
21
-2875.0
31
8302.109152
0
LINE
8
ZJ8_COLUMN
10
39000.0
20
-2875.0
30
8302.109152
11
39000.0
21
-2875.0
31
12453.163728
0
LINE
8
ZJ8_COLUMN
10
39000.0
20
-2875.0
30
12453.163728
11
39000.0
21
-2875.0
31
16604.218304
0
LINE
8
ZJ8_COLUMN
10
39000.0
20
-2875.0
30
16604.218304
11
39000.0
21
-2875.0
31
20755.27288
0
LINE
8
ZJ8_COLUMN
10
39000.0
20
2875.0
30
0.0
11
39000.0
21
2875.0
31
4151.054576
0
LINE
8
ZJ8_COLUMN
10
39000.0
20
2875.0
30
4151.054576
11
39000.0
21
2875.0
31
8302.109152
0
LINE
8
ZJ8_COLUMN
10
39000.0
20
2875.0
30
8302.109152
11
39000.0
21
2875.0
31
12453.163728
0
LINE
8
ZJ8_COLUMN
10
39000.0
20
2875.0
30
12453.163728
11
39000.0
21
2875.0
31
16604.218304
0
LINE
8
ZJ8_COLUMN
10
39000.0
20
2875.0
30
16604.218304
11
39000.0
21
2875.0
31
20755.27288
0
LINE
8
ZJ8_DECK_CROSS
10
39000.0
20
-2200.0
30
20755.27288
11
39000.0
21
2700.0
31
20755.27288
0
LINE
8
ZJ8_TRANSVERSE_BRACE
10
39000.0
20
-2875.0
30
0.0
11
39000.0
21
2875.0
31
20755.27288
0
LINE
8
ZJ8_TRANSVERSE_BRACE
10
39000.0
20
2875.0
30
0.0
11
39000.0
21
-2875.0
31
20755.27288
0
LINE
8
ZJ8_COLUMN
10
59520.0
20
-2875.0
30
0.0
11
59520.0
21
-2875.0
31
4546.22483
0
LINE
8
ZJ8_COLUMN
10
59520.0
20
-2875.0
30
4546.22483
11
59520.0
21
-2875.0
31
9092.449659
0
LINE
8
ZJ8_COLUMN
10
59520.0
20
-2875.0
30
9092.449659
11
59520.0
21
-2875.0
31
13638.674489
0
LINE
8
ZJ8_COLUMN
10
59520.0
20
-2875.0
30
13638.674489
11
59520.0
21
-2875.0
31
18184.899319
0
LINE
8
ZJ8_COLUMN
10
59520.0
20
-2875.0
30
18184.899319
11
59520.0
21
-2875.0
31
22731.124149
0
LINE
8
ZJ8_COLUMN
10
59520.0
20
2875.0
30
0.0
11
59520.0
21
2875.0
31
4546.22483
0
LINE
8
ZJ8_COLUMN
10
59520.0
20
2875.0
30
4546.22483
11
59520.0
21
2875.0
31
9092.449659
0
LINE
8
ZJ8_COLUMN
10
59520.0
20
2875.0
30
9092.449659
11
59520.0
21
2875.0
31
13638.674489
0
LINE
8
ZJ8_COLUMN
10
59520.0
20
2875.0
30
13638.674489
11
59520.0
21
2875.0
31
18184.899319
0
LINE
8
ZJ8_COLUMN
10
59520.0
20
2875.0
30
18184.899319
11
59520.0
21
2875.0
31
22731.124149
0
LINE
8
ZJ8_DECK_CROSS
10
59520.0
20
-2200.0
30
22731.124149
11
59520.0
21
2700.0
31
22731.124149
0
LINE
8
ZJ8_TRANSVERSE_BRACE
10
59520.0
20
-2875.0
30
0.0
11
59520.0
21
2875.0
31
22731.124149
0
LINE
8
ZJ8_TRANSVERSE_BRACE
10
59520.0
20
2875.0
30
0.0
11
59520.0
21
-2875.0
31
22731.124149
0
LINE
8
ZJ8_DECK_MAIN
10
30000.0
20
-2875.0
30
19888.671446
11
33000.0
21
-2875.0
31
20177.538591
0
LINE
8
ZJ8_DECK_MAIN
10
33000.0
20
-2875.0
30
20177.538591
11
36000.0
21
-2875.0
31
20466.405735
0
LINE
8
ZJ8_DECK_MAIN
10
30000.0
20
2875.0
30
19888.671446
11
33000.0
21
2875.0
31
20177.538591
0
LINE
8
ZJ8_DECK_MAIN
10
33000.0
20
2875.0
30
20177.538591
11
36000.0
21
2875.0
31
20466.405735
0
LINE
8
ZJ8_DECK_CROSS
10
33000.0
20
-2200.0
30
20177.538591
11
33000.0
21
2700.0
31
20177.538591
0
LINE
8
ZJ8_DECK_SECONDARY
10
30000.0
20
-1075.0
30
19888.671446
11
33000.0
21
-1075.0
31
20177.538591
0
LINE
8
ZJ8_DECK_SECONDARY
10
33000.0
20
-1075.0
30
20177.538591
11
36000.0
21
-1075.0
31
20466.405735
0
LINE
8
ZJ8_DECK_SECONDARY
10
30000.0
20
1075.0
30
19888.671446
11
33000.0
21
1075.0
31
20177.538591
0
LINE
8
ZJ8_DECK_SECONDARY
10
33000.0
20
1075.0
30
20177.538591
11
36000.0
21
1075.0
31
20466.405735
0
LINE
8
ZJ8_CANTILEVER_EDGE
10
30000.0
20
-2200.0
30
19888.671446
11
33000.0
21
-2200.0
31
20177.538591
0
LINE
8
ZJ8_CANTILEVER_EDGE
10
33000.0
20
-2200.0
30
20177.538591
11
36000.0
21
-2200.0
31
20466.405735
0
LINE
8
ZJ8_CANTILEVER_EDGE
10
30000.0
20
2700.0
30
19888.671446
11
33000.0
21
2700.0
31
20177.538591
0
LINE
8
ZJ8_CANTILEVER_EDGE
10
33000.0
20
2700.0
30
20177.538591
11
36000.0
21
2700.0
31
20466.405735
0
LINE
8
ZJ8_PLATFORM_BRACE
10
30000.0
20
-2875.0
30
19888.671446
11
33000.0
21
2875.0
31
20177.538591
0
LINE
8
ZJ8_PLATFORM_BRACE
10
33000.0
20
2875.0
30
20177.538591
11
36000.0
21
-2875.0
31
20466.405735
0
LINE
8
ZJ8_DECK_MAIN
10
36000.0
20
-2875.0
30
20466.405735
11
39000.0
21
-2875.0
31
20755.27288
0
LINE
8
ZJ8_DECK_MAIN
10
36000.0
20
2875.0
30
20466.405735
11
39000.0
21
2875.0
31
20755.27288
0
LINE
8
ZJ8_DECK_SECONDARY
10
36000.0
20
-1075.0
30
20466.405735
11
39000.0
21
-1075.0
31
20755.27288
0
LINE
8
ZJ8_DECK_SECONDARY
10
36000.0
20
1075.0
30
20466.405735
11
39000.0
21
1075.0
31
20755.27288
0
LINE
8
ZJ8_CANTILEVER_EDGE
10
36000.0
20
-2200.0
30
20466.405735
11
39000.0
21
-2200.0
31
20755.27288
0
LINE
8
ZJ8_CANTILEVER_EDGE
10
36000.0
20
2700.0
30
20466.405735
11
39000.0
21
2700.0
31
20755.27288
0
LINE
8
ZJ8_PLATFORM_BRACE
10
36000.0
20
-2875.0
30
20466.405735
11
39000.0
21
2875.0
31
20755.27288
0
LINE
8
ZJ8_LONGITUDINAL_BRACE
10
36000.0
20
-2875.0
30
0.0
11
39000.0
21
-2875.0
31
20755.27288
0
LINE
8
ZJ8_LONGITUDINAL_BRACE
10
36000.0
20
2875.0
30
0.0
11
39000.0
21
2875.0
31
20755.27288
0
LINE
8
ZJ8_DECK_MAIN
10
39000.0
20
-2875.0
30
20755.27288
11
41931.428571
21
-2875.0
31
21037.537347
0
LINE
8
ZJ8_DECK_MAIN
10
41931.428571
20
-2875.0
30
21037.537347
11
44862.857143
21
-2875.0
31
21319.801814
0
LINE
8
ZJ8_DECK_MAIN
10
44862.857143
20
-2875.0
30
21319.801814
11
47794.285714
21
-2875.0
31
21602.066281
0
LINE
8
ZJ8_DECK_MAIN
10
47794.285714
20
-2875.0
30
21602.066281
11
50725.714286
21
-2875.0
31
21884.330748
0
LINE
8
ZJ8_DECK_MAIN
10
50725.714286
20
-2875.0
30
21884.330748
11
53657.142857
21
-2875.0
31
22166.595215
0
LINE
8
ZJ8_DECK_MAIN
10
53657.142857
20
-2875.0
30
22166.595215
11
56588.571429
21
-2875.0
31
22448.859682
0
LINE
8
ZJ8_DECK_MAIN
10
56588.571429
20
-2875.0
30
22448.859682
11
59520.0
21
-2875.0
31
22731.124149
0
LINE
8
ZJ8_DECK_MAIN
10
39000.0
20
2875.0
30
20755.27288
11
41931.428571
21
2875.0
31
21037.537347
0
LINE
8
ZJ8_DECK_MAIN
10
41931.428571
20
2875.0
30
21037.537347
11
44862.857143
21
2875.0
31
21319.801814
0
LINE
8
ZJ8_DECK_MAIN
10
44862.857143
20
2875.0
30
21319.801814
11
47794.285714
21
2875.0
31
21602.066281
0
LINE
8
ZJ8_DECK_MAIN
10
47794.285714
20
2875.0
30
21602.066281
11
50725.714286
21
2875.0
31
21884.330748
0
LINE
8
ZJ8_DECK_MAIN
10
50725.714286
20
2875.0
30
21884.330748
11
53657.142857
21
2875.0
31
22166.595215
0
LINE
8
ZJ8_DECK_MAIN
10
53657.142857
20
2875.0
30
22166.595215
11
56588.571429
21
2875.0
31
22448.859682
0
LINE
8
ZJ8_DECK_MAIN
10
56588.571429
20
2875.0
30
22448.859682
11
59520.0
21
2875.0
31
22731.124149
0
LINE
8
ZJ8_DECK_CROSS
10
41931.428571
20
-2200.0
30
21037.537347
11
41931.428571
21
2700.0
31
21037.537347
0
LINE
8
ZJ8_DECK_CROSS
10
44862.857143
20
-2200.0
30
21319.801814
11
44862.857143
21
2700.0
31
21319.801814
0
LINE
8
ZJ8_DECK_CROSS
10
47794.285714
20
-2200.0
30
21602.066281
11
47794.285714
21
2700.0
31
21602.066281
0
LINE
8
ZJ8_DECK_CROSS
10
50725.714286
20
-2200.0
30
21884.330748
11
50725.714286
21
2700.0
31
21884.330748
0
LINE
8
ZJ8_DECK_CROSS
10
53657.142857
20
-2200.0
30
22166.595215
11
53657.142857
21
2700.0
31
22166.595215
0
LINE
8
ZJ8_DECK_CROSS
10
56588.571429
20
-2200.0
30
22448.859682
11
56588.571429
21
2700.0
31
22448.859682
0
LINE
8
ZJ8_DECK_SECONDARY
10
39000.0
20
-1075.0
30
20755.27288
11
41931.428571
21
-1075.0
31
21037.537347
0
LINE
8
ZJ8_DECK_SECONDARY
10
41931.428571
20
-1075.0
30
21037.537347
11
44862.857143
21
-1075.0
31
21319.801814
0
LINE
8
ZJ8_DECK_SECONDARY
10
44862.857143
20
-1075.0
30
21319.801814
11
47794.285714
21
-1075.0
31
21602.066281
0
LINE
8
ZJ8_DECK_SECONDARY
10
47794.285714
20
-1075.0
30
21602.066281
11
50725.714286
21
-1075.0
31
21884.330748
0
LINE
8
ZJ8_DECK_SECONDARY
10
50725.714286
20
-1075.0
30
21884.330748
11
53657.142857
21
-1075.0
31
22166.595215
0
LINE
8
ZJ8_DECK_SECONDARY
10
53657.142857
20
-1075.0
30
22166.595215
11
56588.571429
21
-1075.0
31
22448.859682
0
LINE
8
ZJ8_DECK_SECONDARY
10
56588.571429
20
-1075.0
30
22448.859682
11
59520.0
21
-1075.0
31
22731.124149
0
LINE
8
ZJ8_DECK_SECONDARY
10
39000.0
20
1075.0
30
20755.27288
11
41931.428571
21
1075.0
31
21037.537347
0
LINE
8
ZJ8_DECK_SECONDARY
10
41931.428571
20
1075.0
30
21037.537347
11
44862.857143
21
1075.0
31
21319.801814
0
LINE
8
ZJ8_DECK_SECONDARY
10
44862.857143
20
1075.0
30
21319.801814
11
47794.285714
21
1075.0
31
21602.066281
0
LINE
8
ZJ8_DECK_SECONDARY
10
47794.285714
20
1075.0
30
21602.066281
11
50725.714286
21
1075.0
31
21884.330748
0
LINE
8
ZJ8_DECK_SECONDARY
10
50725.714286
20
1075.0
30
21884.330748
11
53657.142857
21
1075.0
31
22166.595215
0
LINE
8
ZJ8_DECK_SECONDARY
10
53657.142857
20
1075.0
30
22166.595215
11
56588.571429
21
1075.0
31
22448.859682
0
LINE
8
ZJ8_DECK_SECONDARY
10
56588.571429
20
1075.0
30
22448.859682
11
59520.0
21
1075.0
31
22731.124149
0
LINE
8
ZJ8_CANTILEVER_EDGE
10
39000.0
20
-2200.0
30
20755.27288
11
41931.428571
21
-2200.0
31
21037.537347
0
LINE
8
ZJ8_CANTILEVER_EDGE
10
41931.428571
20
-2200.0
30
21037.537347
11
44862.857143
21
-2200.0
31
21319.801814
0
LINE
8
ZJ8_CANTILEVER_EDGE
10
44862.857143
20
-2200.0
30
21319.801814
11
47794.285714
21
-2200.0
31
21602.066281
0
LINE
8
ZJ8_CANTILEVER_EDGE
10
47794.285714
20
-2200.0
30
21602.066281
11
50725.714286
21
-2200.0
31
21884.330748
0
LINE
8
ZJ8_CANTILEVER_EDGE
10
50725.714286
20
-2200.0
30
21884.330748
11
53657.142857
21
-2200.0
31
22166.595215
0
LINE
8
ZJ8_CANTILEVER_EDGE
10
53657.142857
20
-2200.0
30
22166.595215
11
56588.571429
21
-2200.0
31
22448.859682
0
LINE
8
ZJ8_CANTILEVER_EDGE
10
56588.571429
20
-2200.0
30
22448.859682
11
59520.0
21
-2200.0
31
22731.124149
0
LINE
8
ZJ8_CANTILEVER_EDGE
10
39000.0
20
2700.0
30
20755.27288
11
41931.428571
21
2700.0
31
21037.537347
0
LINE
8
ZJ8_CANTILEVER_EDGE
10
41931.428571
20
2700.0
30
21037.537347
11
44862.857143
21
2700.0
31
21319.801814
0
LINE
8
ZJ8_CANTILEVER_EDGE
10
44862.857143
20
2700.0
30
21319.801814
11
47794.285714
21
2700.0
31
21602.066281
0
LINE
8
ZJ8_CANTILEVER_EDGE
10
47794.285714
20
2700.0
30
21602.066281
11
50725.714286
21
2700.0
31
21884.330748
0
LINE
8
ZJ8_CANTILEVER_EDGE
10
50725.714286
20
2700.0
30
21884.330748
11
53657.142857
21
2700.0
31
22166.595215
0
LINE
8
ZJ8_CANTILEVER_EDGE
10
53657.142857
20
2700.0
30
22166.595215
11
56588.571429
21
2700.0
31
22448.859682
0
LINE
8
ZJ8_CANTILEVER_EDGE
10
56588.571429
20
2700.0
30
22448.859682
11
59520.0
21
2700.0
31
22731.124149
0
LINE
8
ZJ8_PLATFORM_BRACE
10
39000.0
20
-2875.0
30
20755.27288
11
41931.428571
21
2875.0
31
21037.537347
0
LINE
8
ZJ8_PLATFORM_BRACE
10
41931.428571
20
2875.0
30
21037.537347
11
44862.857143
21
-2875.0
31
21319.801814
0
LINE
8
ZJ8_PLATFORM_BRACE
10
44862.857143
20
-2875.0
30
21319.801814
11
47794.285714
21
2875.0
31
21602.066281
0
LINE
8
ZJ8_PLATFORM_BRACE
10
47794.285714
20
2875.0
30
21602.066281
11
50725.714286
21
-2875.0
31
21884.330748
0
LINE
8
ZJ8_PLATFORM_BRACE
10
50725.714286
20
-2875.0
30
21884.330748
11
53657.142857
21
2875.0
31
22166.595215
0
LINE
8
ZJ8_PLATFORM_BRACE
10
53657.142857
20
2875.0
30
22166.595215
11
56588.571429
21
-2875.0
31
22448.859682
0
LINE
8
ZJ8_PLATFORM_BRACE
10
56588.571429
20
-2875.0
30
22448.859682
11
59520.0
21
2875.0
31
22731.124149
0
LINE
8
ZJ8_TRUSS_UPPER
10
39000.0
20
-2875.0
30
20755.27288
11
40865.454545
21
-2875.0
31
20934.895722
0
LINE
8
ZJ8_TRUSS_UPPER
10
40865.454545
20
-2875.0
30
20934.895722
11
42730.909091
21
-2875.0
31
21114.518565
0
LINE
8
ZJ8_TRUSS_UPPER
10
42730.909091
20
-2875.0
30
21114.518565
11
44596.363636
21
-2875.0
31
21294.141408
0
LINE
8
ZJ8_TRUSS_UPPER
10
44596.363636
20
-2875.0
30
21294.141408
11
46461.818182
21
-2875.0
31
21473.76425
0
LINE
8
ZJ8_TRUSS_UPPER
10
46461.818182
20
-2875.0
30
21473.76425
11
48327.272727
21
-2875.0
31
21653.387093
0
LINE
8
ZJ8_TRUSS_UPPER
10
48327.272727
20
-2875.0
30
21653.387093
11
50192.727273
21
-2875.0
31
21833.009936
0
LINE
8
ZJ8_TRUSS_UPPER
10
50192.727273
20
-2875.0
30
21833.009936
11
52058.181818
21
-2875.0
31
22012.632778
0
LINE
8
ZJ8_TRUSS_UPPER
10
52058.181818
20
-2875.0
30
22012.632778
11
53923.636364
21
-2875.0
31
22192.255621
0
LINE
8
ZJ8_TRUSS_UPPER
10
53923.636364
20
-2875.0
30
22192.255621
11
55789.090909
21
-2875.0
31
22371.878463
0
LINE
8
ZJ8_TRUSS_UPPER
10
55789.090909
20
-2875.0
30
22371.878463
11
57654.545455
21
-2875.0
31
22551.501306
0
LINE
8
ZJ8_TRUSS_UPPER
10
57654.545455
20
-2875.0
30
22551.501306
11
59520.0
21
-2875.0
31
22731.124149
0
LINE
8
ZJ8_TRUSS_LOWER
10
39000.0
20
-2875.0
30
18955.27288
11
40865.454545
21
-2875.0
31
19134.895722
0
LINE
8
ZJ8_TRUSS_LOWER
10
40865.454545
20
-2875.0
30
19134.895722
11
42730.909091
21
-2875.0
31
19314.518565
0
LINE
8
ZJ8_TRUSS_LOWER
10
42730.909091
20
-2875.0
30
19314.518565
11
44596.363636
21
-2875.0
31
19494.141408
0
LINE
8
ZJ8_TRUSS_LOWER
10
44596.363636
20
-2875.0
30
19494.141408
11
46461.818182
21
-2875.0
31
19673.76425
0
LINE
8
ZJ8_TRUSS_LOWER
10
46461.818182
20
-2875.0
30
19673.76425
11
48327.272727
21
-2875.0
31
19853.387093
0
LINE
8
ZJ8_TRUSS_LOWER
10
48327.272727
20
-2875.0
30
19853.387093
11
50192.727273
21
-2875.0
31
20033.009936
0
LINE
8
ZJ8_TRUSS_LOWER
10
50192.727273
20
-2875.0
30
20033.009936
11
52058.181818
21
-2875.0
31
20212.632778
0
LINE
8
ZJ8_TRUSS_LOWER
10
52058.181818
20
-2875.0
30
20212.632778
11
53923.636364
21
-2875.0
31
20392.255621
0
LINE
8
ZJ8_TRUSS_LOWER
10
53923.636364
20
-2875.0
30
20392.255621
11
55789.090909
21
-2875.0
31
20571.878463
0
LINE
8
ZJ8_TRUSS_LOWER
10
55789.090909
20
-2875.0
30
20571.878463
11
57654.545455
21
-2875.0
31
20751.501306
0
LINE
8
ZJ8_TRUSS_LOWER
10
57654.545455
20
-2875.0
30
20751.501306
11
59520.0
21
-2875.0
31
20931.124149
0
LINE
8
ZJ8_TRUSS_VERTICAL
10
39000.0
20
-2875.0
30
20755.27288
11
39000.0
21
-2875.0
31
18955.27288
0
LINE
8
ZJ8_TRUSS_VERTICAL
10
40865.454545
20
-2875.0
30
20934.895722
11
40865.454545
21
-2875.0
31
19134.895722
0
LINE
8
ZJ8_TRUSS_VERTICAL
10
42730.909091
20
-2875.0
30
21114.518565
11
42730.909091
21
-2875.0
31
19314.518565
0
LINE
8
ZJ8_TRUSS_VERTICAL
10
44596.363636
20
-2875.0
30
21294.141408
11
44596.363636
21
-2875.0
31
19494.141408
0
LINE
8
ZJ8_TRUSS_VERTICAL
10
46461.818182
20
-2875.0
30
21473.76425
11
46461.818182
21
-2875.0
31
19673.76425
0
LINE
8
ZJ8_TRUSS_VERTICAL
10
48327.272727
20
-2875.0
30
21653.387093
11
48327.272727
21
-2875.0
31
19853.387093
0
LINE
8
ZJ8_TRUSS_VERTICAL
10
50192.727273
20
-2875.0
30
21833.009936
11
50192.727273
21
-2875.0
31
20033.009936
0
LINE
8
ZJ8_TRUSS_VERTICAL
10
52058.181818
20
-2875.0
30
22012.632778
11
52058.181818
21
-2875.0
31
20212.632778
0
LINE
8
ZJ8_TRUSS_VERTICAL
10
53923.636364
20
-2875.0
30
22192.255621
11
53923.636364
21
-2875.0
31
20392.255621
0
LINE
8
ZJ8_TRUSS_VERTICAL
10
55789.090909
20
-2875.0
30
22371.878463
11
55789.090909
21
-2875.0
31
20571.878463
0
LINE
8
ZJ8_TRUSS_VERTICAL
10
57654.545455
20
-2875.0
30
22551.501306
11
57654.545455
21
-2875.0
31
20751.501306
0
LINE
8
ZJ8_TRUSS_VERTICAL
10
59520.0
20
-2875.0
30
22731.124149
11
59520.0
21
-2875.0
31
20931.124149
0
LINE
8
ZJ8_TRUSS_DIAGONAL
10
39000.0
20
-2875.0
30
18955.27288
11
40865.454545
21
-2875.0
31
20934.895722
0
LINE
8
ZJ8_TRUSS_DIAGONAL
10
40865.454545
20
-2875.0
30
20934.895722
11
42730.909091
21
-2875.0
31
19314.518565
0
LINE
8
ZJ8_TRUSS_DIAGONAL
10
42730.909091
20
-2875.0
30
19314.518565
11
44596.363636
21
-2875.0
31
21294.141408
0
LINE
8
ZJ8_TRUSS_DIAGONAL
10
44596.363636
20
-2875.0
30
21294.141408
11
46461.818182
21
-2875.0
31
19673.76425
0
LINE
8
ZJ8_TRUSS_DIAGONAL
10
46461.818182
20
-2875.0
30
19673.76425
11
48327.272727
21
-2875.0
31
21653.387093
0
LINE
8
ZJ8_TRUSS_DIAGONAL
10
48327.272727
20
-2875.0
30
21653.387093
11
50192.727273
21
-2875.0
31
20033.009936
0
LINE
8
ZJ8_TRUSS_DIAGONAL
10
50192.727273
20
-2875.0
30
20033.009936
11
52058.181818
21
-2875.0
31
22012.632778
0
LINE
8
ZJ8_TRUSS_DIAGONAL
10
52058.181818
20
-2875.0
30
22012.632778
11
53923.636364
21
-2875.0
31
20392.255621
0
LINE
8
ZJ8_TRUSS_DIAGONAL
10
53923.636364
20
-2875.0
30
20392.255621
11
55789.090909
21
-2875.0
31
22371.878463
0
LINE
8
ZJ8_TRUSS_DIAGONAL
10
55789.090909
20
-2875.0
30
22371.878463
11
57654.545455
21
-2875.0
31
20751.501306
0
LINE
8
ZJ8_TRUSS_DIAGONAL
10
57654.545455
20
-2875.0
30
20751.501306
11
59520.0
21
-2875.0
31
22731.124149
0
LINE
8
ZJ8_TRUSS_UPPER
10
39000.0
20
2875.0
30
20755.27288
11
40865.454545
21
2875.0
31
20934.895722
0
LINE
8
ZJ8_TRUSS_UPPER
10
40865.454545
20
2875.0
30
20934.895722
11
42730.909091
21
2875.0
31
21114.518565
0
LINE
8
ZJ8_TRUSS_UPPER
10
42730.909091
20
2875.0
30
21114.518565
11
44596.363636
21
2875.0
31
21294.141408
0
LINE
8
ZJ8_TRUSS_UPPER
10
44596.363636
20
2875.0
30
21294.141408
11
46461.818182
21
2875.0
31
21473.76425
0
LINE
8
ZJ8_TRUSS_UPPER
10
46461.818182
20
2875.0
30
21473.76425
11
48327.272727
21
2875.0
31
21653.387093
0
LINE
8
ZJ8_TRUSS_UPPER
10
48327.272727
20
2875.0
30
21653.387093
11
50192.727273
21
2875.0
31
21833.009936
0
LINE
8
ZJ8_TRUSS_UPPER
10
50192.727273
20
2875.0
30
21833.009936
11
52058.181818
21
2875.0
31
22012.632778
0
LINE
8
ZJ8_TRUSS_UPPER
10
52058.181818
20
2875.0
30
22012.632778
11
53923.636364
21
2875.0
31
22192.255621
0
LINE
8
ZJ8_TRUSS_UPPER
10
53923.636364
20
2875.0
30
22192.255621
11
55789.090909
21
2875.0
31
22371.878463
0
LINE
8
ZJ8_TRUSS_UPPER
10
55789.090909
20
2875.0
30
22371.878463
11
57654.545455
21
2875.0
31
22551.501306
0
LINE
8
ZJ8_TRUSS_UPPER
10
57654.545455
20
2875.0
30
22551.501306
11
59520.0
21
2875.0
31
22731.124149
0
LINE
8
ZJ8_TRUSS_LOWER
10
39000.0
20
2875.0
30
18955.27288
11
40865.454545
21
2875.0
31
19134.895722
0
LINE
8
ZJ8_TRUSS_LOWER
10
40865.454545
20
2875.0
30
19134.895722
11
42730.909091
21
2875.0
31
19314.518565
0
LINE
8
ZJ8_TRUSS_LOWER
10
42730.909091
20
2875.0
30
19314.518565
11
44596.363636
21
2875.0
31
19494.141408
0
LINE
8
ZJ8_TRUSS_LOWER
10
44596.363636
20
2875.0
30
19494.141408
11
46461.818182
21
2875.0
31
19673.76425
0
LINE
8
ZJ8_TRUSS_LOWER
10
46461.818182
20
2875.0
30
19673.76425
11
48327.272727
21
2875.0
31
19853.387093
0
LINE
8
ZJ8_TRUSS_LOWER
10
48327.272727
20
2875.0
30
19853.387093
11
50192.727273
21
2875.0
31
20033.009936
0
LINE
8
ZJ8_TRUSS_LOWER
10
50192.727273
20
2875.0
30
20033.009936
11
52058.181818
21
2875.0
31
20212.632778
0
LINE
8
ZJ8_TRUSS_LOWER
10
52058.181818
20
2875.0
30
20212.632778
11
53923.636364
21
2875.0
31
20392.255621
0
LINE
8
ZJ8_TRUSS_LOWER
10
53923.636364
20
2875.0
30
20392.255621
11
55789.090909
21
2875.0
31
20571.878463
0
LINE
8
ZJ8_TRUSS_LOWER
10
55789.090909
20
2875.0
30
20571.878463
11
57654.545455
21
2875.0
31
20751.501306
0
LINE
8
ZJ8_TRUSS_LOWER
10
57654.545455
20
2875.0
30
20751.501306
11
59520.0
21
2875.0
31
20931.124149
0
LINE
8
ZJ8_TRUSS_VERTICAL
10
39000.0
20
2875.0
30
20755.27288
11
39000.0
21
2875.0
31
18955.27288
0
LINE
8
ZJ8_TRUSS_VERTICAL
10
40865.454545
20
2875.0
30
20934.895722
11
40865.454545
21
2875.0
31
19134.895722
0
LINE
8
ZJ8_TRUSS_VERTICAL
10
42730.909091
20
2875.0
30
21114.518565
11
42730.909091
21
2875.0
31
19314.518565
0
LINE
8
ZJ8_TRUSS_VERTICAL
10
44596.363636
20
2875.0
30
21294.141408
11
44596.363636
21
2875.0
31
19494.141408
0
LINE
8
ZJ8_TRUSS_VERTICAL
10
46461.818182
20
2875.0
30
21473.76425
11
46461.818182
21
2875.0
31
19673.76425
0
LINE
8
ZJ8_TRUSS_VERTICAL
10
48327.272727
20
2875.0
30
21653.387093
11
48327.272727
21
2875.0
31
19853.387093
0
LINE
8
ZJ8_TRUSS_VERTICAL
10
50192.727273
20
2875.0
30
21833.009936
11
50192.727273
21
2875.0
31
20033.009936
0
LINE
8
ZJ8_TRUSS_VERTICAL
10
52058.181818
20
2875.0
30
22012.632778
11
52058.181818
21
2875.0
31
20212.632778
0
LINE
8
ZJ8_TRUSS_VERTICAL
10
53923.636364
20
2875.0
30
22192.255621
11
53923.636364
21
2875.0
31
20392.255621
0
LINE
8
ZJ8_TRUSS_VERTICAL
10
55789.090909
20
2875.0
30
22371.878463
11
55789.090909
21
2875.0
31
20571.878463
0
LINE
8
ZJ8_TRUSS_VERTICAL
10
57654.545455
20
2875.0
30
22551.501306
11
57654.545455
21
2875.0
31
20751.501306
0
LINE
8
ZJ8_TRUSS_VERTICAL
10
59520.0
20
2875.0
30
22731.124149
11
59520.0
21
2875.0
31
20931.124149
0
LINE
8
ZJ8_TRUSS_DIAGONAL
10
39000.0
20
2875.0
30
18955.27288
11
40865.454545
21
2875.0
31
20934.895722
0
LINE
8
ZJ8_TRUSS_DIAGONAL
10
40865.454545
20
2875.0
30
20934.895722
11
42730.909091
21
2875.0
31
19314.518565
0
LINE
8
ZJ8_TRUSS_DIAGONAL
10
42730.909091
20
2875.0
30
19314.518565
11
44596.363636
21
2875.0
31
21294.141408
0
LINE
8
ZJ8_TRUSS_DIAGONAL
10
44596.363636
20
2875.0
30
21294.141408
11
46461.818182
21
2875.0
31
19673.76425
0
LINE
8
ZJ8_TRUSS_DIAGONAL
10
46461.818182
20
2875.0
30
19673.76425
11
48327.272727
21
2875.0
31
21653.387093
0
LINE
8
ZJ8_TRUSS_DIAGONAL
10
48327.272727
20
2875.0
30
21653.387093
11
50192.727273
21
2875.0
31
20033.009936
0
LINE
8
ZJ8_TRUSS_DIAGONAL
10
50192.727273
20
2875.0
30
20033.009936
11
52058.181818
21
2875.0
31
22012.632778
0
LINE
8
ZJ8_TRUSS_DIAGONAL
10
52058.181818
20
2875.0
30
22012.632778
11
53923.636364
21
2875.0
31
20392.255621
0
LINE
8
ZJ8_TRUSS_DIAGONAL
10
53923.636364
20
2875.0
30
20392.255621
11
55789.090909
21
2875.0
31
22371.878463
0
LINE
8
ZJ8_TRUSS_DIAGONAL
10
55789.090909
20
2875.0
30
22371.878463
11
57654.545455
21
2875.0
31
20751.501306
0
LINE
8
ZJ8_TRUSS_DIAGONAL
10
57654.545455
20
2875.0
30
20751.501306
11
59520.0
21
2875.0
31
22731.124149
0
ENDSEC
0
EOF
