0
SECTION
2
HEADER
9
$INSUNITS
70
4
0
ENDSEC
0
SECTION
2
TABLES
0
TABLE
2
LAYER
70
12
0
LAYER
2
ZJ8_DECK_MAIN
70
0
62
4
6
CONTINUOUS
0
LAYER
2
ZJ8_DECK_CROSS
70
0
62
4
6
CONTINUOUS
0
LAYER
2
ZJ8_DECK_SECONDARY
70
0
62
3
6
CONTINUOUS
0
LAYER
2
ZJ8_CANTILEVER_EDGE
70
0
62
3
6
CONTINUOUS
0
LAYER
2
ZJ8_PLATFORM_BRACE
70
0
62
1
6
CONTINUOUS
0
LAYER
2
ZJ8_COLUMN
70
0
62
8
6
CONTINUOUS
0
LAYER
2
ZJ8_TRANSVERSE_BRACE
70
0
62
1
6
CONTINUOUS
0
LAYER
2
ZJ8_LONGITUDINAL_BRACE
70
0
62
1
6
CONTINUOUS
0
LAYER
2
ZJ8_TRUSS_UPPER
70
0
62
5
6
CONTINUOUS
0
LAYER
2
ZJ8_TRUSS_LOWER
70
0
62
5
6
CONTINUOUS
0
LAYER
2
ZJ8_TRUSS_VERTICAL
70
0
62
5
6
CONTINUOUS
0
LAYER
2
ZJ8_TRUSS_DIAGONAL
70
0
62
5
6
CONTINUOUS
0
ENDTAB
0
ENDSEC
0
SECTION
2
ENTITIES
0
LINE
8
ZJ8_COLUMN
10
59520.0
20
-2875.0
30
0.0
11
59520.0
21
-2875.0
31
4086.380321
0
LINE
8
ZJ8_COLUMN
10
59520.0
20
-2875.0
30
4086.380321
11
59520.0
21
-2875.0
31
8172.760643
0
LINE
8
ZJ8_COLUMN
10
59520.0
20
-2875.0
30
8172.760643
11
59520.0
21
-2875.0
31
12259.140964
0
LINE
8
ZJ8_COLUMN
10
59520.0
20
-2875.0
30
12259.140964
11
59520.0
21
-2875.0
31
16345.521285
0
LINE
8
ZJ8_COLUMN
10
59520.0
20
-2875.0
30
16345.521285
11
59520.0
21
-2875.0
31
20431.901607
0
LINE
8
ZJ8_COLUMN
10
59520.0
20
2875.0
30
0.0
11
59520.0
21
2875.0
31
4086.380321
0
LINE
8
ZJ8_COLUMN
10
59520.0
20
2875.0
30
4086.380321
11
59520.0
21
2875.0
31
8172.760643
0
LINE
8
ZJ8_COLUMN
10
59520.0
20
2875.0
30
8172.760643
11
59520.0
21
2875.0
31
12259.140964
0
LINE
8
ZJ8_COLUMN
10
59520.0
20
2875.0
30
12259.140964
11
59520.0
21
2875.0
31
16345.521285
0
LINE
8
ZJ8_COLUMN
10
59520.0
20
2875.0
30
16345.521285
11
59520.0
21
2875.0
31
20431.901607
0
LINE
8
ZJ8_DECK_CROSS
10
59520.0
20
-2200.0
30
20431.901607
11
59520.0
21
2700.0
31
20431.901607
0
LINE
8
ZJ8_TRANSVERSE_BRACE
10
59520.0
20
-2875.0
30
0.0
11
59520.0
21
2875.0
31
20431.901607
0
LINE
8
ZJ8_TRANSVERSE_BRACE
10
59520.0
20
2875.0
30
0.0
11
59520.0
21
-2875.0
31
20431.901607
0
LINE
8
ZJ8_COLUMN
10
62520.0
20
-2875.0
30
0.0
11
62520.0
21
-2875.0
31
4120.976104
0
LINE
8
ZJ8_COLUMN
10
62520.0
20
-2875.0
30
4120.976104
11
62520.0
21
-2875.0
31
8241.952207
0
LINE
8
ZJ8_COLUMN
10
62520.0
20
-2875.0
30
8241.952207
11
62520.0
21
-2875.0
31
12362.928311
0
LINE
8
ZJ8_COLUMN
10
62520.0
20
-2875.0
30
12362.928311
11
62520.0
21
-2875.0
31
16483.904415
0
LINE
8
ZJ8_COLUMN
10
62520.0
20
-2875.0
30
16483.904415
11
62520.0
21
-2875.0
31
20604.880518
0
LINE
8
ZJ8_COLUMN
10
62520.0
20
2875.0
30
0.0
11
62520.0
21
2875.0
31
4120.976104
0
LINE
8
ZJ8_COLUMN
10
62520.0
20
2875.0
30
4120.976104
11
62520.0
21
2875.0
31
8241.952207
0
LINE
8
ZJ8_COLUMN
10
62520.0
20
2875.0
30
8241.952207
11
62520.0
21
2875.0
31
12362.928311
0
LINE
8
ZJ8_COLUMN
10
62520.0
20
2875.0
30
12362.928311
11
62520.0
21
2875.0
31
16483.904415
0
LINE
8
ZJ8_COLUMN
10
62520.0
20
2875.0
30
16483.904415
11
62520.0
21
2875.0
31
20604.880518
0
LINE
8
ZJ8_DECK_CROSS
10
62520.0
20
-2200.0
30
20604.880518
11
62520.0
21
2700.0
31
20604.880518
0
LINE
8
ZJ8_TRANSVERSE_BRACE
10
62520.0
20
-2875.0
30
0.0
11
62520.0
21
2875.0
31
20604.880518
0
LINE
8
ZJ8_TRANSVERSE_BRACE
10
62520.0
20
2875.0
30
0.0
11
62520.0
21
-2875.0
31
20604.880518
0
LINE
8
ZJ8_COLUMN
10
74520.0
20
-2875.0
30
0.0
11
74520.0
21
-2875.0
31
4259.359233
0
LINE
8
ZJ8_COLUMN
10
74520.0
20
-2875.0
30
4259.359233
11
74520.0
21
-2875.0
31
8518.718466
0
LINE
8
ZJ8_COLUMN
10
74520.0
20
-2875.0
30
8518.718466
11
74520.0
21
-2875.0
31
12778.077699
0
LINE
8
ZJ8_COLUMN
10
74520.0
20
-2875.0
30
12778.077699
11
74520.0
21
-2875.0
31
17037.436932
0
LINE
8
ZJ8_COLUMN
10
74520.0
20
-2875.0
30
17037.436932
11
74520.0
21
-2875.0
31
21296.796165
0
LINE
8
ZJ8_COLUMN
10
74520.0
20
2875.0
30
0.0
11
74520.0
21
2875.0
31
4259.359233
0
LINE
8
ZJ8_COLUMN
10
74520.0
20
2875.0
30
4259.359233
11
74520.0
21
2875.0
31
8518.718466
0
LINE
8
ZJ8_COLUMN
10
74520.0
20
2875.0
30
8518.718466
11
74520.0
21
2875.0
31
12778.077699
0
LINE
8
ZJ8_COLUMN
10
74520.0
20
2875.0
30
12778.077699
11
74520.0
21
2875.0
31
17037.436932
0
LINE
8
ZJ8_COLUMN
10
74520.0
20
2875.0
30
17037.436932
11
74520.0
21
2875.0
31
21296.796165
0
LINE
8
ZJ8_DECK_CROSS
10
74520.0
20
-2200.0
30
21296.796165
11
74520.0
21
2700.0
31
21296.796165
0
LINE
8
ZJ8_TRANSVERSE_BRACE
10
74520.0
20
-2875.0
30
0.0
11
74520.0
21
2875.0
31
21296.796165
0
LINE
8
ZJ8_TRANSVERSE_BRACE
10
74520.0
20
2875.0
30
0.0
11
74520.0
21
-2875.0
31
21296.796165
0
LINE
8
ZJ8_COLUMN
10
77520.0
20
-2875.0
30
0.0
11
77520.0
21
-2875.0
31
4293.955015
0
LINE
8
ZJ8_COLUMN
10
77520.0
20
-2875.0
30
4293.955015
11
77520.0
21
-2875.0
31
8587.910031
0
LINE
8
ZJ8_COLUMN
10
77520.0
20
-2875.0
30
8587.910031
11
77520.0
21
-2875.0
31
12881.865046
0
LINE
8
ZJ8_COLUMN
10
77520.0
20
-2875.0
30
12881.865046
11
77520.0
21
-2875.0
31
17175.820061
0
LINE
8
ZJ8_COLUMN
10
77520.0
20
-2875.0
30
17175.820061
11
77520.0
21
-2875.0
31
21469.775077
0
LINE
8
ZJ8_COLUMN
10
77520.0
20
2875.0
30
0.0
11
77520.0
21
2875.0
31
4293.955015
0
LINE
8
ZJ8_COLUMN
10
77520.0
20
2875.0
30
4293.955015
11
77520.0
21
2875.0
31
8587.910031
0
LINE
8
ZJ8_COLUMN
10
77520.0
20
2875.0
30
8587.910031
11
77520.0
21
2875.0
31
12881.865046
0
LINE
8
ZJ8_COLUMN
10
77520.0
20
2875.0
30
12881.865046
11
77520.0
21
2875.0
31
17175.820061
0
LINE
8
ZJ8_COLUMN
10
77520.0
20
2875.0
30
17175.820061
11
77520.0
21
2875.0
31
21469.775077
0
LINE
8
ZJ8_DECK_CROSS
10
77520.0
20
-2200.0
30
21469.775077
11
77520.0
21
2700.0
31
21469.775077
0
LINE
8
ZJ8_TRANSVERSE_BRACE
10
77520.0
20
-2875.0
30
0.0
11
77520.0
21
2875.0
31
21469.775077
0
LINE
8
ZJ8_TRANSVERSE_BRACE
10
77520.0
20
2875.0
30
0.0
11
77520.0
21
-2875.0
31
21469.775077
0
LINE
8
ZJ8_DECK_MAIN
10
39000.0
20
-2875.0
30
19248.725851
11
41931.428571
21
-2875.0
31
19417.750959
0
LINE
8
ZJ8_DECK_MAIN
10
41931.428571
20
-2875.0
30
19417.750959
11
44862.857143
21
-2875.0
31
19586.776067
0
LINE
8
ZJ8_DECK_MAIN
10
44862.857143
20
-2875.0
30
19586.776067
11
47794.285714
21
-2875.0
31
19755.801175
0
LINE
8
ZJ8_DECK_MAIN
10
47794.285714
20
-2875.0
30
19755.801175
11
50725.714286
21
-2875.0
31
19924.826283
0
LINE
8
ZJ8_DECK_MAIN
10
50725.714286
20
-2875.0
30
19924.826283
11
53657.142857
21
-2875.0
31
20093.851391
0
LINE
8
ZJ8_DECK_MAIN
10
53657.142857
20
-2875.0
30
20093.851391
11
56588.571429
21
-2875.0
31
20262.876499
0
LINE
8
ZJ8_DECK_MAIN
10
56588.571429
20
-2875.0
30
20262.876499
11
59520.0
21
-2875.0
31
20431.901607
0
LINE
8
ZJ8_DECK_MAIN
10
39000.0
20
2875.0
30
19248.725851
11
41931.428571
21
2875.0
31
19417.750959
0
LINE
8
ZJ8_DECK_MAIN
10
41931.428571
20
2875.0
30
19417.750959
11
44862.857143
21
2875.0
31
19586.776067
0
LINE
8
ZJ8_DECK_MAIN
10
44862.857143
20
2875.0
30
19586.776067
11
47794.285714
21
2875.0
31
19755.801175
0
LINE
8
ZJ8_DECK_MAIN
10
47794.285714
20
2875.0
30
19755.801175
11
50725.714286
21
2875.0
31
19924.826283
0
LINE
8
ZJ8_DECK_MAIN
10
50725.714286
20
2875.0
30
19924.826283
11
53657.142857
21
2875.0
31
20093.851391
0
LINE
8
ZJ8_DECK_MAIN
10
53657.142857
20
2875.0
30
20093.851391
11
56588.571429
21
2875.0
31
20262.876499
0
LINE
8
ZJ8_DECK_MAIN
10
56588.571429
20
2875.0
30
20262.876499
11
59520.0
21
2875.0
31
20431.901607
0
LINE
8
ZJ8_DECK_CROSS
10
41931.428571
20
-2200.0
30
19417.750959
11
41931.428571
21
2700.0
31
19417.750959
0
LINE
8
ZJ8_DECK_CROSS
10
44862.857143
20
-2200.0
30
19586.776067
11
44862.857143
21
2700.0
31
19586.776067
0
LINE
8
ZJ8_DECK_CROSS
10
47794.285714
20
-2200.0
30
19755.801175
11
47794.285714
21
2700.0
31
19755.801175
0
LINE
8
ZJ8_DECK_CROSS
10
50725.714286
20
-2200.0
30
19924.826283
11
50725.714286
21
2700.0
31
19924.826283
0
LINE
8
ZJ8_DECK_CROSS
10
53657.142857
20
-2200.0
30
20093.851391
11
53657.142857
21
2700.0
31
20093.851391
0
LINE
8
ZJ8_DECK_CROSS
10
56588.571429
20
-2200.0
30
20262.876499
11
56588.571429
21
2700.0
31
20262.876499
0
LINE
8
ZJ8_DECK_SECONDARY
10
39000.0
20
-1075.0
30
19248.725851
11
41931.428571
21
-1075.0
31
19417.750959
0
LINE
8
ZJ8_DECK_SECONDARY
10
41931.428571
20
-1075.0
30
19417.750959
11
44862.857143
21
-1075.0
31
19586.776067
0
LINE
8
ZJ8_DECK_SECONDARY
10
44862.857143
20
-1075.0
30
19586.776067
11
47794.285714
21
-1075.0
31
19755.801175
0
LINE
8
ZJ8_DECK_SECONDARY
10
47794.285714
20
-1075.0
30
19755.801175
11
50725.714286
21
-1075.0
31
19924.826283
0
LINE
8
ZJ8_DECK_SECONDARY
10
50725.714286
20
-1075.0
30
19924.826283
11
53657.142857
21
-1075.0
31
20093.851391
0
LINE
8
ZJ8_DECK_SECONDARY
10
53657.142857
20
-1075.0
30
20093.851391
11
56588.571429
21
-1075.0
31
20262.876499
0
LINE
8
ZJ8_DECK_SECONDARY
10
56588.571429
20
-1075.0
30
20262.876499
11
59520.0
21
-1075.0
31
20431.901607
0
LINE
8
ZJ8_DECK_SECONDARY
10
39000.0
20
1075.0
30
19248.725851
11
41931.428571
21
1075.0
31
19417.750959
0
LINE
8
ZJ8_DECK_SECONDARY
10
41931.428571
20
1075.0
30
19417.750959
11
44862.857143
21
1075.0
31
19586.776067
0
LINE
8
ZJ8_DECK_SECONDARY
10
44862.857143
20
1075.0
30
19586.776067
11
47794.285714
21
1075.0
31
19755.801175
0
LINE
8
ZJ8_DECK_SECONDARY
10
47794.285714
20
1075.0
30
19755.801175
11
50725.714286
21
1075.0
31
19924.826283
0
LINE
8
ZJ8_DECK_SECONDARY
10
50725.714286
20
1075.0
30
19924.826283
11
53657.142857
21
1075.0
31
20093.851391
0
LINE
8
ZJ8_DECK_SECONDARY
10
53657.142857
20
1075.0
30
20093.851391
11
56588.571429
21
1075.0
31
20262.876499
0
LINE
8
ZJ8_DECK_SECONDARY
10
56588.571429
20
1075.0
30
20262.876499
11
59520.0
21
1075.0
31
20431.901607
0
LINE
8
ZJ8_CANTILEVER_EDGE
10
39000.0
20
-2200.0
30
19248.725851
11
41931.428571
21
-2200.0
31
19417.750959
0
LINE
8
ZJ8_CANTILEVER_EDGE
10
41931.428571
20
-2200.0
30
19417.750959
11
44862.857143
21
-2200.0
31
19586.776067
0
LINE
8
ZJ8_CANTILEVER_EDGE
10
44862.857143
20
-2200.0
30
19586.776067
11
47794.285714
21
-2200.0
31
19755.801175
0
LINE
8
ZJ8_CANTILEVER_EDGE
10
47794.285714
20
-2200.0
30
19755.801175
11
50725.714286
21
-2200.0
31
19924.826283
0
LINE
8
ZJ8_CANTILEVER_EDGE
10
50725.714286
20
-2200.0
30
19924.826283
11
53657.142857
21
-2200.0
31
20093.851391
0
LINE
8
ZJ8_CANTILEVER_EDGE
10
53657.142857
20
-2200.0
30
20093.851391
11
56588.571429
21
-2200.0
31
20262.876499
0
LINE
8
ZJ8_CANTILEVER_EDGE
10
56588.571429
20
-2200.0
30
20262.876499
11
59520.0
21
-2200.0
31
20431.901607
0
LINE
8
ZJ8_CANTILEVER_EDGE
10
39000.0
20
2700.0
30
19248.725851
11
41931.428571
21
2700.0
31
19417.750959
0
LINE
8
ZJ8_CANTILEVER_EDGE
10
41931.428571
20
2700.0
30
19417.750959
11
44862.857143
21
2700.0
31
19586.776067
0
LINE
8
ZJ8_CANTILEVER_EDGE
10
44862.857143
20
2700.0
30
19586.776067
11
47794.285714
21
2700.0
31
19755.801175
0
LINE
8
ZJ8_CANTILEVER_EDGE
10
47794.285714
20
2700.0
30
19755.801175
11
50725.714286
21
2700.0
31
19924.826283
0
LINE
8
ZJ8_CANTILEVER_EDGE
10
50725.714286
20
2700.0
30
19924.826283
11
53657.142857
21
2700.0
31
20093.851391
0
LINE
8
ZJ8_CANTILEVER_EDGE
10
53657.142857
20
2700.0
30
20093.851391
11
56588.571429
21
2700.0
31
20262.876499
0
LINE
8
ZJ8_CANTILEVER_EDGE
10
56588.571429
20
2700.0
30
20262.876499
11
59520.0
21
2700.0
31
20431.901607
0
LINE
8
ZJ8_PLATFORM_BRACE
10
39000.0
20
-2875.0
30
19248.725851
11
41931.428571
21
2875.0
31
19417.750959
0
LINE
8
ZJ8_PLATFORM_BRACE
10
41931.428571
20
2875.0
30
19417.750959
11
44862.857143
21
-2875.0
31
19586.776067
0
LINE
8
ZJ8_PLATFORM_BRACE
10
44862.857143
20
-2875.0
30
19586.776067
11
47794.285714
21
2875.0
31
19755.801175
0
LINE
8
ZJ8_PLATFORM_BRACE
10
47794.285714
20
2875.0
30
19755.801175
11
50725.714286
21
-2875.0
31
19924.826283
0
LINE
8
ZJ8_PLATFORM_BRACE
10
50725.714286
20
-2875.0
30
19924.826283
11
53657.142857
21
2875.0
31
20093.851391
0
LINE
8
ZJ8_PLATFORM_BRACE
10
53657.142857
20
2875.0
30
20093.851391
11
56588.571429
21
-2875.0
31
20262.876499
0
LINE
8
ZJ8_PLATFORM_BRACE
10
56588.571429
20
-2875.0
30
20262.876499
11
59520.0
21
2875.0
31
20431.901607
0
LINE
8
ZJ8_TRUSS_UPPER
10
40865.454545
20
-2875.0
30
19356.287284
11
42730.909091
21
-2875.0
31
19463.848716
0
LINE
8
ZJ8_TRUSS_UPPER
10
42730.909091
20
-2875.0
30
19463.848716
11
44596.363636
21
-2875.0
31
19571.410148
0
LINE
8
ZJ8_TRUSS_UPPER
10
44596.363636
20
-2875.0
30
19571.410148
11
46461.818182
21
-2875.0
31
19678.971581
0
LINE
8
ZJ8_TRUSS_UPPER
10
46461.818182
20
-2875.0
30
19678.971581
11
48327.272727
21
-2875.0
31
19786.533013
0
LINE
8
ZJ8_TRUSS_UPPER
10
48327.272727
20
-2875.0
30
19786.533013
11
50192.727273
21
-2875.0
31
19894.094445
0
LINE
8
ZJ8_TRUSS_UPPER
10
50192.727273
20
-2875.0
30
19894.094445
11
52058.181818
21
-2875.0
31
20001.655878
0
LINE
8
ZJ8_TRUSS_UPPER
10
52058.181818
20
-2875.0
30
20001.655878
11
53923.636364
21
-2875.0
31
20109.21731
0
LINE
8
ZJ8_TRUSS_UPPER
10
53923.636364
20
-2875.0
30
20109.21731
11
55789.090909
21
-2875.0
31
20216.778742
0
LINE
8
ZJ8_TRUSS_UPPER
10
55789.090909
20
-2875.0
30
20216.778742
11
57654.545455
21
-2875.0
31
20324.340175
0
LINE
8
ZJ8_TRUSS_UPPER
10
57654.545455
20
-2875.0
30
20324.340175
11
59520.0
21
-2875.0
31
20431.901607
0
LINE
8
ZJ8_TRUSS_LOWER
10
40865.454545
20
-2875.0
30
17556.287284
11
42730.909091
21
-2875.0
31
17663.848716
0
LINE
8
ZJ8_TRUSS_LOWER
10
42730.909091
20
-2875.0
30
17663.848716
11
44596.363636
21
-2875.0
31
17771.410148
0
LINE
8
ZJ8_TRUSS_LOWER
10
44596.363636
20
-2875.0
30
17771.410148
11
46461.818182
21
-2875.0
31
17878.971581
0
LINE
8
ZJ8_TRUSS_LOWER
10
46461.818182
20
-2875.0
30
17878.971581
11
48327.272727
21
-2875.0
31
17986.533013
0
LINE
8
ZJ8_TRUSS_LOWER
10
48327.272727
20
-2875.0
30
17986.533013
11
50192.727273
21
-2875.0
31
18094.094445
0
LINE
8
ZJ8_TRUSS_LOWER
10
50192.727273
20
-2875.0
30
18094.094445
11
52058.181818
21
-2875.0
31
18201.655878
0
LINE
8
ZJ8_TRUSS_LOWER
10
52058.181818
20
-2875.0
30
18201.655878
11
53923.636364
21
-2875.0
31
18309.21731
0
LINE
8
ZJ8_TRUSS_LOWER
10
53923.636364
20
-2875.0
30
18309.21731
11
55789.090909
21
-2875.0
31
18416.778742
0
LINE
8
ZJ8_TRUSS_LOWER
10
55789.090909
20
-2875.0
30
18416.778742
11
57654.545455
21
-2875.0
31
18524.340175
0
LINE
8
ZJ8_TRUSS_LOWER
10
57654.545455
20
-2875.0
30
18524.340175
11
59520.0
21
-2875.0
31
18631.901607
0
LINE
8
ZJ8_TRUSS_VERTICAL
10
40865.454545
20
-2875.0
30
19356.287284
11
40865.454545
21
-2875.0
31
17556.287284
0
LINE
8
ZJ8_TRUSS_VERTICAL
10
42730.909091
20
-2875.0
30
19463.848716
11
42730.909091
21
-2875.0
31
17663.848716
0
LINE
8
ZJ8_TRUSS_VERTICAL
10
44596.363636
20
-2875.0
30
19571.410148
11
44596.363636
21
-2875.0
31
17771.410148
0
LINE
8
ZJ8_TRUSS_VERTICAL
10
46461.818182
20
-2875.0
30
19678.971581
11
46461.818182
21
-2875.0
31
17878.971581
0
LINE
8
ZJ8_TRUSS_VERTICAL
10
48327.272727
20
-2875.0
30
19786.533013
11
48327.272727
21
-2875.0
31
17986.533013
0
LINE
8
ZJ8_TRUSS_VERTICAL
10
50192.727273
20
-2875.0
30
19894.094445
11
50192.727273
21
-2875.0
31
18094.094445
0
LINE
8
ZJ8_TRUSS_VERTICAL
10
52058.181818
20
-2875.0
30
20001.655878
11
52058.181818
21
-2875.0
31
18201.655878
0
LINE
8
ZJ8_TRUSS_VERTICAL
10
53923.636364
20
-2875.0
30
20109.21731
11
53923.636364
21
-2875.0
31
18309.21731
0
LINE
8
ZJ8_TRUSS_VERTICAL
10
55789.090909
20
-2875.0
30
20216.778742
11
55789.090909
21
-2875.0
31
18416.778742
0
LINE
8
ZJ8_TRUSS_VERTICAL
10
57654.545455
20
-2875.0
30
20324.340175
11
57654.545455
21
-2875.0
31
18524.340175
0
LINE
8
ZJ8_TRUSS_VERTICAL
10
59520.0
20
-2875.0
30
20431.901607
11
59520.0
21
-2875.0
31
18631.901607
0
LINE
8
ZJ8_TRUSS_DIAGONAL
10
40865.454545
20
-2875.0
30
19356.287284
11
42730.909091
21
-2875.0
31
17663.848716
0
LINE
8
ZJ8_TRUSS_DIAGONAL
10
42730.909091
20
-2875.0
30
17663.848716
11
44596.363636
21
-2875.0
31
19571.410148
0
LINE
8
ZJ8_TRUSS_DIAGONAL
10
44596.363636
20
-2875.0
30
19571.410148
11
46461.818182
21
-2875.0
31
17878.971581
0
LINE
8
ZJ8_TRUSS_DIAGONAL
10
46461.818182
20
-2875.0
30
17878.971581
11
48327.272727
21
-2875.0
31
19786.533013
0
LINE
8
ZJ8_TRUSS_DIAGONAL
10
48327.272727
20
-2875.0
30
19786.533013
11
50192.727273
21
-2875.0
31
18094.094445
0
LINE
8
ZJ8_TRUSS_DIAGONAL
10
50192.727273
20
-2875.0
30
18094.094445
11
52058.181818
21
-2875.0
31
20001.655878
0
LINE
8
ZJ8_TRUSS_DIAGONAL
10
52058.181818
20
-2875.0
30
20001.655878
11
53923.636364
21
-2875.0
31
18309.21731
0
LINE
8
ZJ8_TRUSS_DIAGONAL
10
53923.636364
20
-2875.0
30
18309.21731
11
55789.090909
21
-2875.0
31
20216.778742
0
LINE
8
ZJ8_TRUSS_DIAGONAL
10
55789.090909
20
-2875.0
30
20216.778742
11
57654.545455
21
-2875.0
31
18524.340175
0
LINE
8
ZJ8_TRUSS_DIAGONAL
10
57654.545455
20
-2875.0
30
18524.340175
11
59520.0
21
-2875.0
31
20431.901607
0
LINE
8
ZJ8_TRUSS_UPPER
10
40865.454545
20
2875.0
30
19356.287284
11
42730.909091
21
2875.0
31
19463.848716
0
LINE
8
ZJ8_TRUSS_UPPER
10
42730.909091
20
2875.0
30
19463.848716
11
44596.363636
21
2875.0
31
19571.410148
0
LINE
8
ZJ8_TRUSS_UPPER
10
44596.363636
20
2875.0
30
19571.410148
11
46461.818182
21
2875.0
31
19678.971581
0
LINE
8
ZJ8_TRUSS_UPPER
10
46461.818182
20
2875.0
30
19678.971581
11
48327.272727
21
2875.0
31
19786.533013
0
LINE
8
ZJ8_TRUSS_UPPER
10
48327.272727
20
2875.0
30
19786.533013
11
50192.727273
21
2875.0
31
19894.094445
0
LINE
8
ZJ8_TRUSS_UPPER
10
50192.727273
20
2875.0
30
19894.094445
11
52058.181818
21
2875.0
31
20001.655878
0
LINE
8
ZJ8_TRUSS_UPPER
10
52058.181818
20
2875.0
30
20001.655878
11
53923.636364
21
2875.0
31
20109.21731
0
LINE
8
ZJ8_TRUSS_UPPER
10
53923.636364
20
2875.0
30
20109.21731
11
55789.090909
21
2875.0
31
20216.778742
0
LINE
8
ZJ8_TRUSS_UPPER
10
55789.090909
20
2875.0
30
20216.778742
11
57654.545455
21
2875.0
31
20324.340175
0
LINE
8
ZJ8_TRUSS_UPPER
10
57654.545455
20
2875.0
30
20324.340175
11
59520.0
21
2875.0
31
20431.901607
0
LINE
8
ZJ8_TRUSS_LOWER
10
40865.454545
20
2875.0
30
17556.287284
11
42730.909091
21
2875.0
31
17663.848716
0
LINE
8
ZJ8_TRUSS_LOWER
10
42730.909091
20
2875.0
30
17663.848716
11
44596.363636
21
2875.0
31
17771.410148
0
LINE
8
ZJ8_TRUSS_LOWER
10
44596.363636
20
2875.0
30
17771.410148
11
46461.818182
21
2875.0
31
17878.971581
0
LINE
8
ZJ8_TRUSS_LOWER
10
46461.818182
20
2875.0
30
17878.971581
11
48327.272727
21
2875.0
31
17986.533013
0
LINE
8
ZJ8_TRUSS_LOWER
10
48327.272727
20
2875.0
30
17986.533013
11
50192.727273
21
2875.0
31
18094.094445
0
LINE
8
ZJ8_TRUSS_LOWER
10
50192.727273
20
2875.0
30
18094.094445
11
52058.181818
21
2875.0
31
18201.655878
0
LINE
8
ZJ8_TRUSS_LOWER
10
52058.181818
20
2875.0
30
18201.655878
11
53923.636364
21
2875.0
31
18309.21731
0
LINE
8
ZJ8_TRUSS_LOWER
10
53923.636364
20
2875.0
30
18309.21731
11
55789.090909
21
2875.0
31
18416.778742
0
LINE
8
ZJ8_TRUSS_LOWER
10
55789.090909
20
2875.0
30
18416.778742
11
57654.545455
21
2875.0
31
18524.340175
0
LINE
8
ZJ8_TRUSS_LOWER
10
57654.545455
20
2875.0
30
18524.340175
11
59520.0
21
2875.0
31
18631.901607
0
LINE
8
ZJ8_TRUSS_VERTICAL
10
40865.454545
20
2875.0
30
19356.287284
11
40865.454545
21
2875.0
31
17556.287284
0
LINE
8
ZJ8_TRUSS_VERTICAL
10
42730.909091
20
2875.0
30
19463.848716
11
42730.909091
21
2875.0
31
17663.848716
0
LINE
8
ZJ8_TRUSS_VERTICAL
10
44596.363636
20
2875.0
30
19571.410148
11
44596.363636
21
2875.0
31
17771.410148
0
LINE
8
ZJ8_TRUSS_VERTICAL
10
46461.818182
20
2875.0
30
19678.971581
11
46461.818182
21
2875.0
31
17878.971581
0
LINE
8
ZJ8_TRUSS_VERTICAL
10
48327.272727
20
2875.0
30
19786.533013
11
48327.272727
21
2875.0
31
17986.533013
0
LINE
8
ZJ8_TRUSS_VERTICAL
10
50192.727273
20
2875.0
30
19894.094445
11
50192.727273
21
2875.0
31
18094.094445
0
LINE
8
ZJ8_TRUSS_VERTICAL
10
52058.181818
20
2875.0
30
20001.655878
11
52058.181818
21
2875.0
31
18201.655878
0
LINE
8
ZJ8_TRUSS_VERTICAL
10
53923.636364
20
2875.0
30
20109.21731
11
53923.636364
21
2875.0
31
18309.21731
0
LINE
8
ZJ8_TRUSS_VERTICAL
10
55789.090909
20
2875.0
30
20216.778742
11
55789.090909
21
2875.0
31
18416.778742
0
LINE
8
ZJ8_TRUSS_VERTICAL
10
57654.545455
20
2875.0
30
20324.340175
11
57654.545455
21
2875.0
31
18524.340175
0
LINE
8
ZJ8_TRUSS_VERTICAL
10
59520.0
20
2875.0
30
20431.901607
11
59520.0
21
2875.0
31
18631.901607
0
LINE
8
ZJ8_TRUSS_DIAGONAL
10
40865.454545
20
2875.0
30
19356.287284
11
42730.909091
21
2875.0
31
17663.848716
0
LINE
8
ZJ8_TRUSS_DIAGONAL
10
42730.909091
20
2875.0
30
17663.848716
11
44596.363636
21
2875.0
31
19571.410148
0
LINE
8
ZJ8_TRUSS_DIAGONAL
10
44596.363636
20
2875.0
30
19571.410148
11
46461.818182
21
2875.0
31
17878.971581
0
LINE
8
ZJ8_TRUSS_DIAGONAL
10
46461.818182
20
2875.0
30
17878.971581
11
48327.272727
21
2875.0
31
19786.533013
0
LINE
8
ZJ8_TRUSS_DIAGONAL
10
48327.272727
20
2875.0
30
19786.533013
11
50192.727273
21
2875.0
31
18094.094445
0
LINE
8
ZJ8_TRUSS_DIAGONAL
10
50192.727273
20
2875.0
30
18094.094445
11
52058.181818
21
2875.0
31
20001.655878
0
LINE
8
ZJ8_TRUSS_DIAGONAL
10
52058.181818
20
2875.0
30
20001.655878
11
53923.636364
21
2875.0
31
18309.21731
0
LINE
8
ZJ8_TRUSS_DIAGONAL
10
53923.636364
20
2875.0
30
18309.21731
11
55789.090909
21
2875.0
31
20216.778742
0
LINE
8
ZJ8_TRUSS_DIAGONAL
10
55789.090909
20
2875.0
30
20216.778742
11
57654.545455
21
2875.0
31
18524.340175
0
LINE
8
ZJ8_TRUSS_DIAGONAL
10
57654.545455
20
2875.0
30
18524.340175
11
59520.0
21
2875.0
31
20431.901607
0
LINE
8
ZJ8_DECK_MAIN
10
59520.0
20
-2875.0
30
20431.901607
11
62520.0
21
-2875.0
31
20604.880518
0
LINE
8
ZJ8_DECK_MAIN
10
59520.0
20
2875.0
30
20431.901607
11
62520.0
21
2875.0
31
20604.880518
0
LINE
8
ZJ8_DECK_SECONDARY
10
59520.0
20
-1075.0
30
20431.901607
11
62520.0
21
-1075.0
31
20604.880518
0
LINE
8
ZJ8_DECK_SECONDARY
10
59520.0
20
1075.0
30
20431.901607
11
62520.0
21
1075.0
31
20604.880518
0
LINE
8
ZJ8_CANTILEVER_EDGE
10
59520.0
20
-2200.0
30
20431.901607
11
62520.0
21
-2200.0
31
20604.880518
0
LINE
8
ZJ8_CANTILEVER_EDGE
10
59520.0
20
2700.0
30
20431.901607
11
62520.0
21
2700.0
31
20604.880518
0
LINE
8
ZJ8_PLATFORM_BRACE
10
59520.0
20
-2875.0
30
20431.901607
11
62520.0
21
2875.0
31
20604.880518
0
LINE
8
ZJ8_LONGITUDINAL_BRACE
10
59520.0
20
-2875.0
30
0.0
11
62520.0
21
-2875.0
31
20604.880518
0
LINE
8
ZJ8_LONGITUDINAL_BRACE
10
59520.0
20
2875.0
30
0.0
11
62520.0
21
2875.0
31
20604.880518
0
LINE
8
ZJ8_DECK_MAIN
10
62520.0
20
-2875.0
30
20604.880518
11
65520.0
21
-2875.0
31
20777.85943
0
LINE
8
ZJ8_DECK_MAIN
10
65520.0
20
-2875.0
30
20777.85943
11
68520.0
21
-2875.0
31
20950.838342
0
LINE
8
ZJ8_DECK_MAIN
10
68520.0
20
-2875.0
30
20950.838342
11
71520.0
21
-2875.0
31
21123.817253
0
LINE
8
ZJ8_DECK_MAIN
10
71520.0
20
-2875.0
30
21123.817253
11
74520.0
21
-2875.0
31
21296.796165
0
LINE
8
ZJ8_DECK_MAIN
10
62520.0
20
2875.0
30
20604.880518
11
65520.0
21
2875.0
31
20777.85943
0
LINE
8
ZJ8_DECK_MAIN
10
65520.0
20
2875.0
30
20777.85943
11
68520.0
21
2875.0
31
20950.838342
0
LINE
8
ZJ8_DECK_MAIN
10
68520.0
20
2875.0
30
20950.838342
11
71520.0
21
2875.0
31
21123.817253
0
LINE
8
ZJ8_DECK_MAIN
10
71520.0
20
2875.0
30
21123.817253
11
74520.0
21
2875.0
31
21296.796165
0
LINE
8
ZJ8_DECK_CROSS
10
65520.0
20
-2200.0
30
20777.85943
11
65520.0
21
2700.0
31
20777.85943
0
LINE
8
ZJ8_DECK_CROSS
10
68520.0
20
-2200.0
30
20950.838342
11
68520.0
21
2700.0
31
20950.838342
0
LINE
8
ZJ8_DECK_CROSS
10
71520.0
20
-2200.0
30
21123.817253
11
71520.0
21
2700.0
31
21123.817253
0
LINE
8
ZJ8_DECK_SECONDARY
10
62520.0
20
-1075.0
30
20604.880518
11
65520.0
21
-1075.0
31
20777.85943
0
LINE
8
ZJ8_DECK_SECONDARY
10
65520.0
20
-1075.0
30
20777.85943
11
68520.0
21
-1075.0
31
20950.838342
0
LINE
8
ZJ8_DECK_SECONDARY
10
68520.0
20
-1075.0
30
20950.838342
11
71520.0
21
-1075.0
31
21123.817253
0
LINE
8
ZJ8_DECK_SECONDARY
10
71520.0
20
-1075.0
30
21123.817253
11
74520.0
21
-1075.0
31
21296.796165
0
LINE
8
ZJ8_DECK_SECONDARY
10
62520.0
20
1075.0
30
20604.880518
11
65520.0
21
1075.0
31
20777.85943
0
LINE
8
ZJ8_DECK_SECONDARY
10
65520.0
20
1075.0
30
20777.85943
11
68520.0
21
1075.0
31
20950.838342
0
LINE
8
ZJ8_DECK_SECONDARY
10
68520.0
20
1075.0
30
20950.838342
11
71520.0
21
1075.0
31
21123.817253
0
LINE
8
ZJ8_DECK_SECONDARY
10
71520.0
20
1075.0
30
21123.817253
11
74520.0
21
1075.0
31
21296.796165
0
LINE
8
ZJ8_CANTILEVER_EDGE
10
62520.0
20
-2200.0
30
20604.880518
11
65520.0
21
-2200.0
31
20777.85943
0
LINE
8
ZJ8_CANTILEVER_EDGE
10
65520.0
20
-2200.0
30
20777.85943
11
68520.0
21
-2200.0
31
20950.838342
0
LINE
8
ZJ8_CANTILEVER_EDGE
10
68520.0
20
-2200.0
30
20950.838342
11
71520.0
21
-2200.0
31
21123.817253
0
LINE
8
ZJ8_CANTILEVER_EDGE
10
71520.0
20
-2200.0
30
21123.817253
11
74520.0
21
-2200.0
31
21296.796165
0
LINE
8
ZJ8_CANTILEVER_EDGE
10
62520.0
20
2700.0
30
20604.880518
11
65520.0
21
2700.0
31
20777.85943
0
LINE
8
ZJ8_CANTILEVER_EDGE
10
65520.0
20
2700.0
30
20777.85943
11
68520.0
21
2700.0
31
20950.838342
0
LINE
8
ZJ8_CANTILEVER_EDGE
10
68520.0
20
2700.0
30
20950.838342
11
71520.0
21
2700.0
31
21123.817253
0
LINE
8
ZJ8_CANTILEVER_EDGE
10
71520.0
20
2700.0
30
21123.817253
11
74520.0
21
2700.0
31
21296.796165
0
LINE
8
ZJ8_PLATFORM_BRACE
10
62520.0
20
-2875.0
30
20604.880518
11
65520.0
21
2875.0
31
20777.85943
0
LINE
8
ZJ8_PLATFORM_BRACE
10
65520.0
20
2875.0
30
20777.85943
11
68520.0
21
-2875.0
31
20950.838342
0
LINE
8
ZJ8_PLATFORM_BRACE
10
68520.0
20
-2875.0
30
20950.838342
11
71520.0
21
2875.0
31
21123.817253
0
LINE
8
ZJ8_PLATFORM_BRACE
10
71520.0
20
2875.0
30
21123.817253
11
74520.0
21
-2875.0
31
21296.796165
0
LINE
8
ZJ8_DECK_MAIN
10
74520.0
20
-2875.0
30
21296.796165
11
77520.0
21
-2875.0
31
21469.775077
0
LINE
8
ZJ8_DECK_MAIN
10
74520.0
20
2875.0
30
21296.796165
11
77520.0
21
2875.0
31
21469.775077
0
LINE
8
ZJ8_DECK_SECONDARY
10
74520.0
20
-1075.0
30
21296.796165
11
77520.0
21
-1075.0
31
21469.775077
0
LINE
8
ZJ8_DECK_SECONDARY
10
74520.0
20
1075.0
30
21296.796165
11
77520.0
21
1075.0
31
21469.775077
0
LINE
8
ZJ8_CANTILEVER_EDGE
10
74520.0
20
-2200.0
30
21296.796165
11
77520.0
21
-2200.0
31
21469.775077
0
LINE
8
ZJ8_CANTILEVER_EDGE
10
74520.0
20
2700.0
30
21296.796165
11
77520.0
21
2700.0
31
21469.775077
0
LINE
8
ZJ8_PLATFORM_BRACE
10
74520.0
20
-2875.0
30
21296.796165
11
77520.0
21
2875.0
31
21469.775077
0
LINE
8
ZJ8_LONGITUDINAL_BRACE
10
74520.0
20
-2875.0
30
0.0
11
77520.0
21
-2875.0
31
21469.775077
0
LINE
8
ZJ8_LONGITUDINAL_BRACE
10
74520.0
20
2875.0
30
0.0
11
77520.0
21
2875.0
31
21469.775077
0
LINE
8
ZJ8_DECK_MAIN
10
77520.0
20
-2875.0
30
21469.775077
11
80520.0
21
-2875.0
31
21642.753988
0
LINE
8
ZJ8_DECK_MAIN
10
77520.0
20
2875.0
30
21469.775077
11
80520.0
21
2875.0
31
21642.753988
0
LINE
8
ZJ8_DECK_SECONDARY
10
77520.0
20
-1075.0
30
21469.775077
11
80520.0
21
-1075.0
31
21642.753988
0
LINE
8
ZJ8_DECK_SECONDARY
10
77520.0
20
1075.0
30
21469.775077
11
80520.0
21
1075.0
31
21642.753988
0
LINE
8
ZJ8_CANTILEVER_EDGE
10
77520.0
20
-2200.0
30
21469.775077
11
80520.0
21
-2200.0
31
21642.753988
0
LINE
8
ZJ8_CANTILEVER_EDGE
10
77520.0
20
2700.0
30
21469.775077
11
80520.0
21
2700.0
31
21642.753988
0
LINE
8
ZJ8_PLATFORM_BRACE
10
77520.0
20
-2875.0
30
21469.775077
11
80520.0
21
2875.0
31
21642.753988
0
LINE
8
ZJ8_TRUSS_UPPER
10
77520.0
20
-2875.0
30
21469.775077
11
79470.0
21
-2875.0
31
21582.211369
0
LINE
8
ZJ8_TRUSS_LOWER
10
77520.0
20
-2875.0
30
19669.775077
11
79470.0
21
-2875.0
31
19782.211369
0
LINE
8
ZJ8_TRUSS_VERTICAL
10
77520.0
20
-2875.0
30
21469.775077
11
77520.0
21
-2875.0
31
19669.775077
0
LINE
8
ZJ8_TRUSS_VERTICAL
10
79470.0
20
-2875.0
30
21582.211369
11
79470.0
21
-2875.0
31
19782.211369
0
LINE
8
ZJ8_TRUSS_DIAGONAL
10
77520.0
20
-2875.0
30
19669.775077
11
79470.0
21
-2875.0
31
21582.211369
0
LINE
8
ZJ8_TRUSS_UPPER
10
77520.0
20
2875.0
30
21469.775077
11
79470.0
21
2875.0
31
21582.211369
0
LINE
8
ZJ8_TRUSS_LOWER
10
77520.0
20
2875.0
30
19669.775077
11
79470.0
21
2875.0
31
19782.211369
0
LINE
8
ZJ8_TRUSS_VERTICAL
10
77520.0
20
2875.0
30
21469.775077
11
77520.0
21
2875.0
31
19669.775077
0
LINE
8
ZJ8_TRUSS_VERTICAL
10
79470.0
20
2875.0
30
21582.211369
11
79470.0
21
2875.0
31
19782.211369
0
LINE
8
ZJ8_TRUSS_DIAGONAL
10
77520.0
20
2875.0
30
19669.775077
11
79470.0
21
2875.0
31
21582.211369
0
ENDSEC
0
EOF
