0
SECTION
2
HEADER
9
$INSUNITS
70
4
0
ENDSEC
0
SECTION
2
TABLES
0
TABLE
2
LAYER
70
12
0
LAYER
2
ZJ8_DECK_MAIN
70
0
62
4
6
CONTINUOUS
0
LAYER
2
ZJ8_DECK_CROSS
70
0
62
4
6
CONTINUOUS
0
LAYER
2
ZJ8_DECK_SECONDARY
70
0
62
3
6
CONTINUOUS
0
LAYER
2
ZJ8_CANTILEVER_EDGE
70
0
62
3
6
CONTINUOUS
0
LAYER
2
ZJ8_PLATFORM_BRACE
70
0
62
1
6
CONTINUOUS
0
LAYER
2
ZJ8_COLUMN
70
0
62
8
6
CONTINUOUS
0
LAYER
2
ZJ8_TRANSVERSE_BRACE
70
0
62
1
6
CONTINUOUS
0
LAYER
2
ZJ8_LONGITUDINAL_BRACE
70
0
62
1
6
CONTINUOUS
0
LAYER
2
ZJ8_TRUSS_UPPER
70
0
62
5
6
CONTINUOUS
0
LAYER
2
ZJ8_TRUSS_LOWER
70
0
62
5
6
CONTINUOUS
0
LAYER
2
ZJ8_TRUSS_VERTICAL
70
0
62
5
6
CONTINUOUS
0
LAYER
2
ZJ8_TRUSS_DIAGONAL
70
0
62
5
6
CONTINUOUS
0
ENDTAB
0
ENDSEC
0
SECTION
2
ENTITIES
0
LINE
8
ZJ8_COLUMN
10
59520.0
20
-2875.0
30
0.0
11
59520.0
21
-2875.0
31
4250.0
0
LINE
8
ZJ8_COLUMN
10
59520.0
20
-2875.0
30
4250.0
11
59520.0
21
-2875.0
31
8500.0
0
LINE
8
ZJ8_COLUMN
10
59520.0
20
-2875.0
30
8500.0
11
59520.0
21
-2875.0
31
12750.0
0
LINE
8
ZJ8_COLUMN
10
59520.0
20
-2875.0
30
12750.0
11
59520.0
21
-2875.0
31
17000.0
0
LINE
8
ZJ8_COLUMN
10
59520.0
20
2875.0
30
0.0
11
59520.0
21
2875.0
31
4250.0
0
LINE
8
ZJ8_COLUMN
10
59520.0
20
2875.0
30
4250.0
11
59520.0
21
2875.0
31
8500.0
0
LINE
8
ZJ8_COLUMN
10
59520.0
20
2875.0
30
8500.0
11
59520.0
21
2875.0
31
12750.0
0
LINE
8
ZJ8_COLUMN
10
59520.0
20
2875.0
30
12750.0
11
59520.0
21
2875.0
31
17000.0
0
LINE
8
ZJ8_DECK_CROSS
10
59520.0
20
-2200.0
30
17000.0
11
59520.0
21
2700.0
31
17000.0
0
LINE
8
ZJ8_TRANSVERSE_BRACE
10
59520.0
20
-2875.0
30
0.0
11
59520.0
21
2875.0
31
17000.0
0
LINE
8
ZJ8_TRANSVERSE_BRACE
10
59520.0
20
2875.0
30
0.0
11
59520.0
21
-2875.0
31
17000.0
0
LINE
8
ZJ8_COLUMN
10
62520.0
20
-2875.0
30
0.0
11
62520.0
21
-2875.0
31
4250.0
0
LINE
8
ZJ8_COLUMN
10
62520.0
20
-2875.0
30
4250.0
11
62520.0
21
-2875.0
31
8500.0
0
LINE
8
ZJ8_COLUMN
10
62520.0
20
-2875.0
30
8500.0
11
62520.0
21
-2875.0
31
12750.0
0
LINE
8
ZJ8_COLUMN
10
62520.0
20
-2875.0
30
12750.0
11
62520.0
21
-2875.0
31
17000.0
0
LINE
8
ZJ8_COLUMN
10
62520.0
20
2875.0
30
0.0
11
62520.0
21
2875.0
31
4250.0
0
LINE
8
ZJ8_COLUMN
10
62520.0
20
2875.0
30
4250.0
11
62520.0
21
2875.0
31
8500.0
0
LINE
8
ZJ8_COLUMN
10
62520.0
20
2875.0
30
8500.0
11
62520.0
21
2875.0
31
12750.0
0
LINE
8
ZJ8_COLUMN
10
62520.0
20
2875.0
30
12750.0
11
62520.0
21
2875.0
31
17000.0
0
LINE
8
ZJ8_DECK_CROSS
10
62520.0
20
-2200.0
30
17000.0
11
62520.0
21
2700.0
31
17000.0
0
LINE
8
ZJ8_TRANSVERSE_BRACE
10
62520.0
20
-2875.0
30
0.0
11
62520.0
21
2875.0
31
17000.0
0
LINE
8
ZJ8_TRANSVERSE_BRACE
10
62520.0
20
2875.0
30
0.0
11
62520.0
21
-2875.0
31
17000.0
0
LINE
8
ZJ8_COLUMN
10
74520.0
20
-2875.0
30
0.0
11
74520.0
21
-2875.0
31
4250.0
0
LINE
8
ZJ8_COLUMN
10
74520.0
20
-2875.0
30
4250.0
11
74520.0
21
-2875.0
31
8500.0
0
LINE
8
ZJ8_COLUMN
10
74520.0
20
-2875.0
30
8500.0
11
74520.0
21
-2875.0
31
12750.0
0
LINE
8
ZJ8_COLUMN
10
74520.0
20
-2875.0
30
12750.0
11
74520.0
21
-2875.0
31
17000.0
0
LINE
8
ZJ8_COLUMN
10
74520.0
20
2875.0
30
0.0
11
74520.0
21
2875.0
31
4250.0
0
LINE
8
ZJ8_COLUMN
10
74520.0
20
2875.0
30
4250.0
11
74520.0
21
2875.0
31
8500.0
0
LINE
8
ZJ8_COLUMN
10
74520.0
20
2875.0
30
8500.0
11
74520.0
21
2875.0
31
12750.0
0
LINE
8
ZJ8_COLUMN
10
74520.0
20
2875.0
30
12750.0
11
74520.0
21
2875.0
31
17000.0
0
LINE
8
ZJ8_DECK_CROSS
10
74520.0
20
-2200.0
30
17000.0
11
74520.0
21
2700.0
31
17000.0
0
LINE
8
ZJ8_TRANSVERSE_BRACE
10
74520.0
20
-2875.0
30
0.0
11
74520.0
21
2875.0
31
17000.0
0
LINE
8
ZJ8_TRANSVERSE_BRACE
10
74520.0
20
2875.0
30
0.0
11
74520.0
21
-2875.0
31
17000.0
0
LINE
8
ZJ8_COLUMN
10
77520.0
20
-2875.0
30
0.0
11
77520.0
21
-2875.0
31
4250.0
0
LINE
8
ZJ8_COLUMN
10
77520.0
20
-2875.0
30
4250.0
11
77520.0
21
-2875.0
31
8500.0
0
LINE
8
ZJ8_COLUMN
10
77520.0
20
-2875.0
30
8500.0
11
77520.0
21
-2875.0
31
12750.0
0
LINE
8
ZJ8_COLUMN
10
77520.0
20
-2875.0
30
12750.0
11
77520.0
21
-2875.0
31
17000.0
0
LINE
8
ZJ8_COLUMN
10
77520.0
20
2875.0
30
0.0
11
77520.0
21
2875.0
31
4250.0
0
LINE
8
ZJ8_COLUMN
10
77520.0
20
2875.0
30
4250.0
11
77520.0
21
2875.0
31
8500.0
0
LINE
8
ZJ8_COLUMN
10
77520.0
20
2875.0
30
8500.0
11
77520.0
21
2875.0
31
12750.0
0
LINE
8
ZJ8_COLUMN
10
77520.0
20
2875.0
30
12750.0
11
77520.0
21
2875.0
31
17000.0
0
LINE
8
ZJ8_DECK_CROSS
10
77520.0
20
-2200.0
30
17000.0
11
77520.0
21
2700.0
31
17000.0
0
LINE
8
ZJ8_TRANSVERSE_BRACE
10
77520.0
20
-2875.0
30
0.0
11
77520.0
21
2875.0
31
17000.0
0
LINE
8
ZJ8_TRANSVERSE_BRACE
10
77520.0
20
2875.0
30
0.0
11
77520.0
21
-2875.0
31
17000.0
0
LINE
8
ZJ8_DECK_MAIN
10
41931.428571
20
-2875.0
30
17000.0
11
44862.857143
21
-2875.0
31
17000.0
0
LINE
8
ZJ8_DECK_MAIN
10
44862.857143
20
-2875.0
30
17000.0
11
47794.285714
21
-2875.0
31
17000.0
0
LINE
8
ZJ8_DECK_MAIN
10
47794.285714
20
-2875.0
30
17000.0
11
50725.714286
21
-2875.0
31
17000.0
0
LINE
8
ZJ8_DECK_MAIN
10
50725.714286
20
-2875.0
30
17000.0
11
53657.142857
21
-2875.0
31
17000.0
0
LINE
8
ZJ8_DECK_MAIN
10
53657.142857
20
-2875.0
30
17000.0
11
56588.571429
21
-2875.0
31
17000.0
0
LINE
8
ZJ8_DECK_MAIN
10
56588.571429
20
-2875.0
30
17000.0
11
59520.0
21
-2875.0
31
17000.0
0
LINE
8
ZJ8_DECK_MAIN
10
41931.428571
20
2875.0
30
17000.0
11
44862.857143
21
2875.0
31
17000.0
0
LINE
8
ZJ8_DECK_MAIN
10
44862.857143
20
2875.0
30
17000.0
11
47794.285714
21
2875.0
31
17000.0
0
LINE
8
ZJ8_DECK_MAIN
10
47794.285714
20
2875.0
30
17000.0
11
50725.714286
21
2875.0
31
17000.0
0
LINE
8
ZJ8_DECK_MAIN
10
50725.714286
20
2875.0
30
17000.0
11
53657.142857
21
2875.0
31
17000.0
0
LINE
8
ZJ8_DECK_MAIN
10
53657.142857
20
2875.0
30
17000.0
11
56588.571429
21
2875.0
31
17000.0
0
LINE
8
ZJ8_DECK_MAIN
10
56588.571429
20
2875.0
30
17000.0
11
59520.0
21
2875.0
31
17000.0
0
LINE
8
ZJ8_DECK_CROSS
10
41931.428571
20
-2200.0
30
17000.0
11
41931.428571
21
2700.0
31
17000.0
0
LINE
8
ZJ8_DECK_CROSS
10
44862.857143
20
-2200.0
30
17000.0
11
44862.857143
21
2700.0
31
17000.0
0
LINE
8
ZJ8_DECK_CROSS
10
47794.285714
20
-2200.0
30
17000.0
11
47794.285714
21
2700.0
31
17000.0
0
LINE
8
ZJ8_DECK_CROSS
10
50725.714286
20
-2200.0
30
17000.0
11
50725.714286
21
2700.0
31
17000.0
0
LINE
8
ZJ8_DECK_CROSS
10
53657.142857
20
-2200.0
30
17000.0
11
53657.142857
21
2700.0
31
17000.0
0
LINE
8
ZJ8_DECK_CROSS
10
56588.571429
20
-2200.0
30
17000.0
11
56588.571429
21
2700.0
31
17000.0
0
LINE
8
ZJ8_DECK_SECONDARY
10
41931.428571
20
-1075.0
30
17000.0
11
44862.857143
21
-1075.0
31
17000.0
0
LINE
8
ZJ8_DECK_SECONDARY
10
44862.857143
20
-1075.0
30
17000.0
11
47794.285714
21
-1075.0
31
17000.0
0
LINE
8
ZJ8_DECK_SECONDARY
10
47794.285714
20
-1075.0
30
17000.0
11
50725.714286
21
-1075.0
31
17000.0
0
LINE
8
ZJ8_DECK_SECONDARY
10
50725.714286
20
-1075.0
30
17000.0
11
53657.142857
21
-1075.0
31
17000.0
0
LINE
8
ZJ8_DECK_SECONDARY
10
53657.142857
20
-1075.0
30
17000.0
11
56588.571429
21
-1075.0
31
17000.0
0
LINE
8
ZJ8_DECK_SECONDARY
10
56588.571429
20
-1075.0
30
17000.0
11
59520.0
21
-1075.0
31
17000.0
0
LINE
8
ZJ8_DECK_SECONDARY
10
41931.428571
20
1075.0
30
17000.0
11
44862.857143
21
1075.0
31
17000.0
0
LINE
8
ZJ8_DECK_SECONDARY
10
44862.857143
20
1075.0
30
17000.0
11
47794.285714
21
1075.0
31
17000.0
0
LINE
8
ZJ8_DECK_SECONDARY
10
47794.285714
20
1075.0
30
17000.0
11
50725.714286
21
1075.0
31
17000.0
0
LINE
8
ZJ8_DECK_SECONDARY
10
50725.714286
20
1075.0
30
17000.0
11
53657.142857
21
1075.0
31
17000.0
0
LINE
8
ZJ8_DECK_SECONDARY
10
53657.142857
20
1075.0
30
17000.0
11
56588.571429
21
1075.0
31
17000.0
0
LINE
8
ZJ8_DECK_SECONDARY
10
56588.571429
20
1075.0
30
17000.0
11
59520.0
21
1075.0
31
17000.0
0
LINE
8
ZJ8_CANTILEVER_EDGE
10
41931.428571
20
-2200.0
30
17000.0
11
44862.857143
21
-2200.0
31
17000.0
0
LINE
8
ZJ8_CANTILEVER_EDGE
10
44862.857143
20
-2200.0
30
17000.0
11
47794.285714
21
-2200.0
31
17000.0
0
LINE
8
ZJ8_CANTILEVER_EDGE
10
47794.285714
20
-2200.0
30
17000.0
11
50725.714286
21
-2200.0
31
17000.0
0
LINE
8
ZJ8_CANTILEVER_EDGE
10
50725.714286
20
-2200.0
30
17000.0
11
53657.142857
21
-2200.0
31
17000.0
0
LINE
8
ZJ8_CANTILEVER_EDGE
10
53657.142857
20
-2200.0
30
17000.0
11
56588.571429
21
-2200.0
31
17000.0
0
LINE
8
ZJ8_CANTILEVER_EDGE
10
56588.571429
20
-2200.0
30
17000.0
11
59520.0
21
-2200.0
31
17000.0
0
LINE
8
ZJ8_CANTILEVER_EDGE
10
41931.428571
20
2700.0
30
17000.0
11
44862.857143
21
2700.0
31
17000.0
0
LINE
8
ZJ8_CANTILEVER_EDGE
10
44862.857143
20
2700.0
30
17000.0
11
47794.285714
21
2700.0
31
17000.0
0
LINE
8
ZJ8_CANTILEVER_EDGE
10
47794.285714
20
2700.0
30
17000.0
11
50725.714286
21
2700.0
31
17000.0
0
LINE
8
ZJ8_CANTILEVER_EDGE
10
50725.714286
20
2700.0
30
17000.0
11
53657.142857
21
2700.0
31
17000.0
0
LINE
8
ZJ8_CANTILEVER_EDGE
10
53657.142857
20
2700.0
30
17000.0
11
56588.571429
21
2700.0
31
17000.0
0
LINE
8
ZJ8_CANTILEVER_EDGE
10
56588.571429
20
2700.0
30
17000.0
11
59520.0
21
2700.0
31
17000.0
0
LINE
8
ZJ8_PLATFORM_BRACE
10
41931.428571
20
2875.0
30
17000.0
11
44862.857143
21
-2875.0
31
17000.0
0
LINE
8
ZJ8_PLATFORM_BRACE
10
44862.857143
20
-2875.0
30
17000.0
11
47794.285714
21
2875.0
31
17000.0
0
LINE
8
ZJ8_PLATFORM_BRACE
10
47794.285714
20
2875.0
30
17000.0
11
50725.714286
21
-2875.0
31
17000.0
0
LINE
8
ZJ8_PLATFORM_BRACE
10
50725.714286
20
-2875.0
30
17000.0
11
53657.142857
21
2875.0
31
17000.0
0
LINE
8
ZJ8_PLATFORM_BRACE
10
53657.142857
20
2875.0
30
17000.0
11
56588.571429
21
-2875.0
31
17000.0
0
LINE
8
ZJ8_PLATFORM_BRACE
10
56588.571429
20
-2875.0
30
17000.0
11
59520.0
21
2875.0
31
17000.0
0
LINE
8
ZJ8_TRUSS_UPPER
10
40865.454545
20
-2875.0
30
17000.0
11
42730.909091
21
-2875.0
31
17000.0
0
LINE
8
ZJ8_TRUSS_UPPER
10
42730.909091
20
-2875.0
30
17000.0
11
44596.363636
21
-2875.0
31
17000.0
0
LINE
8
ZJ8_TRUSS_UPPER
10
44596.363636
20
-2875.0
30
17000.0
11
46461.818182
21
-2875.0
31
17000.0
0
LINE
8
ZJ8_TRUSS_UPPER
10
46461.818182
20
-2875.0
30
17000.0
11
48327.272727
21
-2875.0
31
17000.0
0
LINE
8
ZJ8_TRUSS_UPPER
10
48327.272727
20
-2875.0
30
17000.0
11
50192.727273
21
-2875.0
31
17000.0
0
LINE
8
ZJ8_TRUSS_UPPER
10
50192.727273
20
-2875.0
30
17000.0
11
52058.181818
21
-2875.0
31
17000.0
0
LINE
8
ZJ8_TRUSS_UPPER
10
52058.181818
20
-2875.0
30
17000.0
11
53923.636364
21
-2875.0
31
17000.0
0
LINE
8
ZJ8_TRUSS_UPPER
10
53923.636364
20
-2875.0
30
17000.0
11
55789.090909
21
-2875.0
31
17000.0
0
LINE
8
ZJ8_TRUSS_UPPER
10
55789.090909
20
-2875.0
30
17000.0
11
57654.545455
21
-2875.0
31
17000.0
0
LINE
8
ZJ8_TRUSS_UPPER
10
57654.545455
20
-2875.0
30
17000.0
11
59520.0
21
-2875.0
31
17000.0
0
LINE
8
ZJ8_TRUSS_LOWER
10
40865.454545
20
-2875.0
30
15200.0
11
42730.909091
21
-2875.0
31
15200.0
0
LINE
8
ZJ8_TRUSS_LOWER
10
42730.909091
20
-2875.0
30
15200.0
11
44596.363636
21
-2875.0
31
15200.0
0
LINE
8
ZJ8_TRUSS_LOWER
10
44596.363636
20
-2875.0
30
15200.0
11
46461.818182
21
-2875.0
31
15200.0
0
LINE
8
ZJ8_TRUSS_LOWER
10
46461.818182
20
-2875.0
30
15200.0
11
48327.272727
21
-2875.0
31
15200.0
0
LINE
8
ZJ8_TRUSS_LOWER
10
48327.272727
20
-2875.0
30
15200.0
11
50192.727273
21
-2875.0
31
15200.0
0
LINE
8
ZJ8_TRUSS_LOWER
10
50192.727273
20
-2875.0
30
15200.0
11
52058.181818
21
-2875.0
31
15200.0
0
LINE
8
ZJ8_TRUSS_LOWER
10
52058.181818
20
-2875.0
30
15200.0
11
53923.636364
21
-2875.0
31
15200.0
0
LINE
8
ZJ8_TRUSS_LOWER
10
53923.636364
20
-2875.0
30
15200.0
11
55789.090909
21
-2875.0
31
15200.0
0
LINE
8
ZJ8_TRUSS_LOWER
10
55789.090909
20
-2875.0
30
15200.0
11
57654.545455
21
-2875.0
31
15200.0
0
LINE
8
ZJ8_TRUSS_LOWER
10
57654.545455
20
-2875.0
30
15200.0
11
59520.0
21
-2875.0
31
15200.0
0
LINE
8
ZJ8_TRUSS_VERTICAL
10
42730.909091
20
-2875.0
30
17000.0
11
42730.909091
21
-2875.0
31
15200.0
0
LINE
8
ZJ8_TRUSS_VERTICAL
10
44596.363636
20
-2875.0
30
17000.0
11
44596.363636
21
-2875.0
31
15200.0
0
LINE
8
ZJ8_TRUSS_VERTICAL
10
46461.818182
20
-2875.0
30
17000.0
11
46461.818182
21
-2875.0
31
15200.0
0
LINE
8
ZJ8_TRUSS_VERTICAL
10
48327.272727
20
-2875.0
30
17000.0
11
48327.272727
21
-2875.0
31
15200.0
0
LINE
8
ZJ8_TRUSS_VERTICAL
10
50192.727273
20
-2875.0
30
17000.0
11
50192.727273
21
-2875.0
31
15200.0
0
LINE
8
ZJ8_TRUSS_VERTICAL
10
52058.181818
20
-2875.0
30
17000.0
11
52058.181818
21
-2875.0
31
15200.0
0
LINE
8
ZJ8_TRUSS_VERTICAL
10
53923.636364
20
-2875.0
30
17000.0
11
53923.636364
21
-2875.0
31
15200.0
0
LINE
8
ZJ8_TRUSS_VERTICAL
10
55789.090909
20
-2875.0
30
17000.0
11
55789.090909
21
-2875.0
31
15200.0
0
LINE
8
ZJ8_TRUSS_VERTICAL
10
57654.545455
20
-2875.0
30
17000.0
11
57654.545455
21
-2875.0
31
15200.0
0
LINE
8
ZJ8_TRUSS_VERTICAL
10
59520.0
20
-2875.0
30
17000.0
11
59520.0
21
-2875.0
31
15200.0
0
LINE
8
ZJ8_TRUSS_DIAGONAL
10
40865.454545
20
-2875.0
30
17000.0
11
42730.909091
21
-2875.0
31
15200.0
0
LINE
8
ZJ8_TRUSS_DIAGONAL
10
42730.909091
20
-2875.0
30
15200.0
11
44596.363636
21
-2875.0
31
17000.0
0
LINE
8
ZJ8_TRUSS_DIAGONAL
10
44596.363636
20
-2875.0
30
17000.0
11
46461.818182
21
-2875.0
31
15200.0
0
LINE
8
ZJ8_TRUSS_DIAGONAL
10
46461.818182
20
-2875.0
30
15200.0
11
48327.272727
21
-2875.0
31
17000.0
0
LINE
8
ZJ8_TRUSS_DIAGONAL
10
48327.272727
20
-2875.0
30
17000.0
11
50192.727273
21
-2875.0
31
15200.0
0
LINE
8
ZJ8_TRUSS_DIAGONAL
10
50192.727273
20
-2875.0
30
15200.0
11
52058.181818
21
-2875.0
31
17000.0
0
LINE
8
ZJ8_TRUSS_DIAGONAL
10
52058.181818
20
-2875.0
30
17000.0
11
53923.636364
21
-2875.0
31
15200.0
0
LINE
8
ZJ8_TRUSS_DIAGONAL
10
53923.636364
20
-2875.0
30
15200.0
11
55789.090909
21
-2875.0
31
17000.0
0
LINE
8
ZJ8_TRUSS_DIAGONAL
10
55789.090909
20
-2875.0
30
17000.0
11
57654.545455
21
-2875.0
31
15200.0
0
LINE
8
ZJ8_TRUSS_DIAGONAL
10
57654.545455
20
-2875.0
30
15200.0
11
59520.0
21
-2875.0
31
17000.0
0
LINE
8
ZJ8_TRUSS_UPPER
10
40865.454545
20
2875.0
30
17000.0
11
42730.909091
21
2875.0
31
17000.0
0
LINE
8
ZJ8_TRUSS_UPPER
10
42730.909091
20
2875.0
30
17000.0
11
44596.363636
21
2875.0
31
17000.0
0
LINE
8
ZJ8_TRUSS_UPPER
10
44596.363636
20
2875.0
30
17000.0
11
46461.818182
21
2875.0
31
17000.0
0
LINE
8
ZJ8_TRUSS_UPPER
10
46461.818182
20
2875.0
30
17000.0
11
48327.272727
21
2875.0
31
17000.0
0
LINE
8
ZJ8_TRUSS_UPPER
10
48327.272727
20
2875.0
30
17000.0
11
50192.727273
21
2875.0
31
17000.0
0
LINE
8
ZJ8_TRUSS_UPPER
10
50192.727273
20
2875.0
30
17000.0
11
52058.181818
21
2875.0
31
17000.0
0
LINE
8
ZJ8_TRUSS_UPPER
10
52058.181818
20
2875.0
30
17000.0
11
53923.636364
21
2875.0
31
17000.0
0
LINE
8
ZJ8_TRUSS_UPPER
10
53923.636364
20
2875.0
30
17000.0
11
55789.090909
21
2875.0
31
17000.0
0
LINE
8
ZJ8_TRUSS_UPPER
10
55789.090909
20
2875.0
30
17000.0
11
57654.545455
21
2875.0
31
17000.0
0
LINE
8
ZJ8_TRUSS_UPPER
10
57654.545455
20
2875.0
30
17000.0
11
59520.0
21
2875.0
31
17000.0
0
LINE
8
ZJ8_TRUSS_LOWER
10
40865.454545
20
2875.0
30
15200.0
11
42730.909091
21
2875.0
31
15200.0
0
LINE
8
ZJ8_TRUSS_LOWER
10
42730.909091
20
2875.0
30
15200.0
11
44596.363636
21
2875.0
31
15200.0
0
LINE
8
ZJ8_TRUSS_LOWER
10
44596.363636
20
2875.0
30
15200.0
11
46461.818182
21
2875.0
31
15200.0
0
LINE
8
ZJ8_TRUSS_LOWER
10
46461.818182
20
2875.0
30
15200.0
11
48327.272727
21
2875.0
31
15200.0
0
LINE
8
ZJ8_TRUSS_LOWER
10
48327.272727
20
2875.0
30
15200.0
11
50192.727273
21
2875.0
31
15200.0
0
LINE
8
ZJ8_TRUSS_LOWER
10
50192.727273
20
2875.0
30
15200.0
11
52058.181818
21
2875.0
31
15200.0
0
LINE
8
ZJ8_TRUSS_LOWER
10
52058.181818
20
2875.0
30
15200.0
11
53923.636364
21
2875.0
31
15200.0
0
LINE
8
ZJ8_TRUSS_LOWER
10
53923.636364
20
2875.0
30
15200.0
11
55789.090909
21
2875.0
31
15200.0
0
LINE
8
ZJ8_TRUSS_LOWER
10
55789.090909
20
2875.0
30
15200.0
11
57654.545455
21
2875.0
31
15200.0
0
LINE
8
ZJ8_TRUSS_LOWER
10
57654.545455
20
2875.0
30
15200.0
11
59520.0
21
2875.0
31
15200.0
0
LINE
8
ZJ8_TRUSS_VERTICAL
10
42730.909091
20
2875.0
30
17000.0
11
42730.909091
21
2875.0
31
15200.0
0
LINE
8
ZJ8_TRUSS_VERTICAL
10
44596.363636
20
2875.0
30
17000.0
11
44596.363636
21
2875.0
31
15200.0
0
LINE
8
ZJ8_TRUSS_VERTICAL
10
46461.818182
20
2875.0
30
17000.0
11
46461.818182
21
2875.0
31
15200.0
0
LINE
8
ZJ8_TRUSS_VERTICAL
10
48327.272727
20
2875.0
30
17000.0
11
48327.272727
21
2875.0
31
15200.0
0
LINE
8
ZJ8_TRUSS_VERTICAL
10
50192.727273
20
2875.0
30
17000.0
11
50192.727273
21
2875.0
31
15200.0
0
LINE
8
ZJ8_TRUSS_VERTICAL
10
52058.181818
20
2875.0
30
17000.0
11
52058.181818
21
2875.0
31
15200.0
0
LINE
8
ZJ8_TRUSS_VERTICAL
10
53923.636364
20
2875.0
30
17000.0
11
53923.636364
21
2875.0
31
15200.0
0
LINE
8
ZJ8_TRUSS_VERTICAL
10
55789.090909
20
2875.0
30
17000.0
11
55789.090909
21
2875.0
31
15200.0
0
LINE
8
ZJ8_TRUSS_VERTICAL
10
57654.545455
20
2875.0
30
17000.0
11
57654.545455
21
2875.0
31
15200.0
0
LINE
8
ZJ8_TRUSS_VERTICAL
10
59520.0
20
2875.0
30
17000.0
11
59520.0
21
2875.0
31
15200.0
0
LINE
8
ZJ8_TRUSS_DIAGONAL
10
40865.454545
20
2875.0
30
17000.0
11
42730.909091
21
2875.0
31
15200.0
0
LINE
8
ZJ8_TRUSS_DIAGONAL
10
42730.909091
20
2875.0
30
15200.0
11
44596.363636
21
2875.0
31
17000.0
0
LINE
8
ZJ8_TRUSS_DIAGONAL
10
44596.363636
20
2875.0
30
17000.0
11
46461.818182
21
2875.0
31
15200.0
0
LINE
8
ZJ8_TRUSS_DIAGONAL
10
46461.818182
20
2875.0
30
15200.0
11
48327.272727
21
2875.0
31
17000.0
0
LINE
8
ZJ8_TRUSS_DIAGONAL
10
48327.272727
20
2875.0
30
17000.0
11
50192.727273
21
2875.0
31
15200.0
0
LINE
8
ZJ8_TRUSS_DIAGONAL
10
50192.727273
20
2875.0
30
15200.0
11
52058.181818
21
2875.0
31
17000.0
0
LINE
8
ZJ8_TRUSS_DIAGONAL
10
52058.181818
20
2875.0
30
17000.0
11
53923.636364
21
2875.0
31
15200.0
0
LINE
8
ZJ8_TRUSS_DIAGONAL
10
53923.636364
20
2875.0
30
15200.0
11
55789.090909
21
2875.0
31
17000.0
0
LINE
8
ZJ8_TRUSS_DIAGONAL
10
55789.090909
20
2875.0
30
17000.0
11
57654.545455
21
2875.0
31
15200.0
0
LINE
8
ZJ8_TRUSS_DIAGONAL
10
57654.545455
20
2875.0
30
15200.0
11
59520.0
21
2875.0
31
17000.0
0
LINE
8
ZJ8_DECK_MAIN
10
59520.0
20
-2875.0
30
17000.0
11
62520.0
21
-2875.0
31
17000.0
0
LINE
8
ZJ8_DECK_MAIN
10
59520.0
20
2875.0
30
17000.0
11
62520.0
21
2875.0
31
17000.0
0
LINE
8
ZJ8_DECK_SECONDARY
10
59520.0
20
-1075.0
30
17000.0
11
62520.0
21
-1075.0
31
17000.0
0
LINE
8
ZJ8_DECK_SECONDARY
10
59520.0
20
1075.0
30
17000.0
11
62520.0
21
1075.0
31
17000.0
0
LINE
8
ZJ8_CANTILEVER_EDGE
10
59520.0
20
-2200.0
30
17000.0
11
62520.0
21
-2200.0
31
17000.0
0
LINE
8
ZJ8_CANTILEVER_EDGE
10
59520.0
20
2700.0
30
17000.0
11
62520.0
21
2700.0
31
17000.0
0
LINE
8
ZJ8_PLATFORM_BRACE
10
59520.0
20
-2875.0
30
17000.0
11
62520.0
21
2875.0
31
17000.0
0
LINE
8
ZJ8_LONGITUDINAL_BRACE
10
59520.0
20
-2875.0
30
0.0
11
62520.0
21
-2875.0
31
17000.0
0
LINE
8
ZJ8_LONGITUDINAL_BRACE
10
59520.0
20
2875.0
30
0.0
11
62520.0
21
2875.0
31
17000.0
0
LINE
8
ZJ8_DECK_MAIN
10
62520.0
20
-2875.0
30
17000.0
11
65520.0
21
-2875.0
31
17000.0
0
LINE
8
ZJ8_DECK_MAIN
10
65520.0
20
-2875.0
30
17000.0
11
68520.0
21
-2875.0
31
17000.0
0
LINE
8
ZJ8_DECK_MAIN
10
68520.0
20
-2875.0
30
17000.0
11
71520.0
21
-2875.0
31
17000.0
0
LINE
8
ZJ8_DECK_MAIN
10
71520.0
20
-2875.0
30
17000.0
11
74520.0
21
-2875.0
31
17000.0
0
LINE
8
ZJ8_DECK_MAIN
10
62520.0
20
2875.0
30
17000.0
11
65520.0
21
2875.0
31
17000.0
0
LINE
8
ZJ8_DECK_MAIN
10
65520.0
20
2875.0
30
17000.0
11
68520.0
21
2875.0
31
17000.0
0
LINE
8
ZJ8_DECK_MAIN
10
68520.0
20
2875.0
30
17000.0
11
71520.0
21
2875.0
31
17000.0
0
LINE
8
ZJ8_DECK_MAIN
10
71520.0
20
2875.0
30
17000.0
11
74520.0
21
2875.0
31
17000.0
0
LINE
8
ZJ8_DECK_CROSS
10
65520.0
20
-2200.0
30
17000.0
11
65520.0
21
2700.0
31
17000.0
0
LINE
8
ZJ8_DECK_CROSS
10
68520.0
20
-2200.0
30
17000.0
11
68520.0
21
2700.0
31
17000.0
0
LINE
8
ZJ8_DECK_CROSS
10
71520.0
20
-2200.0
30
17000.0
11
71520.0
21
2700.0
31
17000.0
0
LINE
8
ZJ8_DECK_SECONDARY
10
62520.0
20
-1075.0
30
17000.0
11
65520.0
21
-1075.0
31
17000.0
0
LINE
8
ZJ8_DECK_SECONDARY
10
65520.0
20
-1075.0
30
17000.0
11
68520.0
21
-1075.0
31
17000.0
0
LINE
8
ZJ8_DECK_SECONDARY
10
68520.0
20
-1075.0
30
17000.0
11
71520.0
21
-1075.0
31
17000.0
0
LINE
8
ZJ8_DECK_SECONDARY
10
71520.0
20
-1075.0
30
17000.0
11
74520.0
21
-1075.0
31
17000.0
0
LINE
8
ZJ8_DECK_SECONDARY
10
62520.0
20
1075.0
30
17000.0
11
65520.0
21
1075.0
31
17000.0
0
LINE
8
ZJ8_DECK_SECONDARY
10
65520.0
20
1075.0
30
17000.0
11
68520.0
21
1075.0
31
17000.0
0
LINE
8
ZJ8_DECK_SECONDARY
10
68520.0
20
1075.0
30
17000.0
11
71520.0
21
1075.0
31
17000.0
0
LINE
8
ZJ8_DECK_SECONDARY
10
71520.0
20
1075.0
30
17000.0
11
74520.0
21
1075.0
31
17000.0
0
LINE
8
ZJ8_CANTILEVER_EDGE
10
62520.0
20
-2200.0
30
17000.0
11
65520.0
21
-2200.0
31
17000.0
0
LINE
8
ZJ8_CANTILEVER_EDGE
10
65520.0
20
-2200.0
30
17000.0
11
68520.0
21
-2200.0
31
17000.0
0
LINE
8
ZJ8_CANTILEVER_EDGE
10
68520.0
20
-2200.0
30
17000.0
11
71520.0
21
-2200.0
31
17000.0
0
LINE
8
ZJ8_CANTILEVER_EDGE
10
71520.0
20
-2200.0
30
17000.0
11
74520.0
21
-2200.0
31
17000.0
0
LINE
8
ZJ8_CANTILEVER_EDGE
10
62520.0
20
2700.0
30
17000.0
11
65520.0
21
2700.0
31
17000.0
0
LINE
8
ZJ8_CANTILEVER_EDGE
10
65520.0
20
2700.0
30
17000.0
11
68520.0
21
2700.0
31
17000.0
0
LINE
8
ZJ8_CANTILEVER_EDGE
10
68520.0
20
2700.0
30
17000.0
11
71520.0
21
2700.0
31
17000.0
0
LINE
8
ZJ8_CANTILEVER_EDGE
10
71520.0
20
2700.0
30
17000.0
11
74520.0
21
2700.0
31
17000.0
0
LINE
8
ZJ8_PLATFORM_BRACE
10
62520.0
20
-2875.0
30
17000.0
11
65520.0
21
2875.0
31
17000.0
0
LINE
8
ZJ8_PLATFORM_BRACE
10
65520.0
20
2875.0
30
17000.0
11
68520.0
21
-2875.0
31
17000.0
0
LINE
8
ZJ8_PLATFORM_BRACE
10
68520.0
20
-2875.0
30
17000.0
11
71520.0
21
2875.0
31
17000.0
0
LINE
8
ZJ8_PLATFORM_BRACE
10
71520.0
20
2875.0
30
17000.0
11
74520.0
21
-2875.0
31
17000.0
0
LINE
8
ZJ8_DECK_MAIN
10
74520.0
20
-2875.0
30
17000.0
11
77520.0
21
-2875.0
31
17000.0
0
LINE
8
ZJ8_DECK_MAIN
10
74520.0
20
2875.0
30
17000.0
11
77520.0
21
2875.0
31
17000.0
0
LINE
8
ZJ8_DECK_SECONDARY
10
74520.0
20
-1075.0
30
17000.0
11
77520.0
21
-1075.0
31
17000.0
0
LINE
8
ZJ8_DECK_SECONDARY
10
74520.0
20
1075.0
30
17000.0
11
77520.0
21
1075.0
31
17000.0
0
LINE
8
ZJ8_CANTILEVER_EDGE
10
74520.0
20
-2200.0
30
17000.0
11
77520.0
21
-2200.0
31
17000.0
0
LINE
8
ZJ8_CANTILEVER_EDGE
10
74520.0
20
2700.0
30
17000.0
11
77520.0
21
2700.0
31
17000.0
0
LINE
8
ZJ8_PLATFORM_BRACE
10
74520.0
20
-2875.0
30
17000.0
11
77520.0
21
2875.0
31
17000.0
0
LINE
8
ZJ8_LONGITUDINAL_BRACE
10
74520.0
20
-2875.0
30
0.0
11
77520.0
21
-2875.0
31
17000.0
0
LINE
8
ZJ8_LONGITUDINAL_BRACE
10
74520.0
20
2875.0
30
0.0
11
77520.0
21
2875.0
31
17000.0
0
LINE
8
ZJ8_DECK_MAIN
10
77520.0
20
-2875.0
30
17000.0
11
80520.0
21
-2875.0
31
17000.0
0
LINE
8
ZJ8_DECK_MAIN
10
80520.0
20
-2875.0
30
17000.0
11
83520.0
21
-2875.0
31
17000.0
0
LINE
8
ZJ8_DECK_MAIN
10
77520.0
20
2875.0
30
17000.0
11
80520.0
21
2875.0
31
17000.0
0
LINE
8
ZJ8_DECK_MAIN
10
80520.0
20
2875.0
30
17000.0
11
83520.0
21
2875.0
31
17000.0
0
LINE
8
ZJ8_DECK_CROSS
10
80520.0
20
-2200.0
30
17000.0
11
80520.0
21
2700.0
31
17000.0
0
LINE
8
ZJ8_DECK_CROSS
10
83520.0
20
-2200.0
30
17000.0
11
83520.0
21
2700.0
31
17000.0
0
LINE
8
ZJ8_DECK_SECONDARY
10
77520.0
20
-1075.0
30
17000.0
11
80520.0
21
-1075.0
31
17000.0
0
LINE
8
ZJ8_DECK_SECONDARY
10
80520.0
20
-1075.0
30
17000.0
11
83520.0
21
-1075.0
31
17000.0
0
LINE
8
ZJ8_DECK_SECONDARY
10
77520.0
20
1075.0
30
17000.0
11
80520.0
21
1075.0
31
17000.0
0
LINE
8
ZJ8_DECK_SECONDARY
10
80520.0
20
1075.0
30
17000.0
11
83520.0
21
1075.0
31
17000.0
0
LINE
8
ZJ8_CANTILEVER_EDGE
10
77520.0
20
-2200.0
30
17000.0
11
80520.0
21
-2200.0
31
17000.0
0
LINE
8
ZJ8_CANTILEVER_EDGE
10
80520.0
20
-2200.0
30
17000.0
11
83520.0
21
-2200.0
31
17000.0
0
LINE
8
ZJ8_CANTILEVER_EDGE
10
77520.0
20
2700.0
30
17000.0
11
80520.0
21
2700.0
31
17000.0
0
LINE
8
ZJ8_CANTILEVER_EDGE
10
80520.0
20
2700.0
30
17000.0
11
83520.0
21
2700.0
31
17000.0
0
LINE
8
ZJ8_PLATFORM_BRACE
10
77520.0
20
-2875.0
30
17000.0
11
80520.0
21
2875.0
31
17000.0
0
LINE
8
ZJ8_PLATFORM_BRACE
10
80520.0
20
2875.0
30
17000.0
11
83520.0
21
-2875.0
31
17000.0
0
LINE
8
ZJ8_TRUSS_UPPER
10
77520.0
20
-2875.0
30
17000.0
11
79470.0
21
-2875.0
31
17000.0
0
LINE
8
ZJ8_TRUSS_UPPER
10
79470.0
20
-2875.0
30
17000.0
11
81420.0
21
-2875.0
31
17000.0
0
LINE
8
ZJ8_TRUSS_UPPER
10
81420.0
20
-2875.0
30
17000.0
11
83370.0
21
-2875.0
31
17000.0
0
LINE
8
ZJ8_TRUSS_LOWER
10
77520.0
20
-2875.0
30
15200.0
11
79470.0
21
-2875.0
31
15200.0
0
LINE
8
ZJ8_TRUSS_LOWER
10
79470.0
20
-2875.0
30
15200.0
11
81420.0
21
-2875.0
31
15200.0
0
LINE
8
ZJ8_TRUSS_LOWER
10
81420.0
20
-2875.0
30
15200.0
11
83370.0
21
-2875.0
31
15200.0
0
LINE
8
ZJ8_TRUSS_VERTICAL
10
77520.0
20
-2875.0
30
17000.0
11
77520.0
21
-2875.0
31
15200.0
0
LINE
8
ZJ8_TRUSS_VERTICAL
10
79470.0
20
-2875.0
30
17000.0
11
79470.0
21
-2875.0
31
15200.0
0
LINE
8
ZJ8_TRUSS_VERTICAL
10
81420.0
20
-2875.0
30
17000.0
11
81420.0
21
-2875.0
31
15200.0
0
LINE
8
ZJ8_TRUSS_VERTICAL
10
83370.0
20
-2875.0
30
17000.0
11
83370.0
21
-2875.0
31
15200.0
0
LINE
8
ZJ8_TRUSS_DIAGONAL
10
77520.0
20
-2875.0
30
15200.0
11
79470.0
21
-2875.0
31
17000.0
0
LINE
8
ZJ8_TRUSS_DIAGONAL
10
79470.0
20
-2875.0
30
17000.0
11
81420.0
21
-2875.0
31
15200.0
0
LINE
8
ZJ8_TRUSS_DIAGONAL
10
81420.0
20
-2875.0
30
15200.0
11
83370.0
21
-2875.0
31
17000.0
0
LINE
8
ZJ8_TRUSS_UPPER
10
77520.0
20
2875.0
30
17000.0
11
79470.0
21
2875.0
31
17000.0
0
LINE
8
ZJ8_TRUSS_UPPER
10
79470.0
20
2875.0
30
17000.0
11
81420.0
21
2875.0
31
17000.0
0
LINE
8
ZJ8_TRUSS_UPPER
10
81420.0
20
2875.0
30
17000.0
11
83370.0
21
2875.0
31
17000.0
0
LINE
8
ZJ8_TRUSS_LOWER
10
77520.0
20
2875.0
30
15200.0
11
79470.0
21
2875.0
31
15200.0
0
LINE
8
ZJ8_TRUSS_LOWER
10
79470.0
20
2875.0
30
15200.0
11
81420.0
21
2875.0
31
15200.0
0
LINE
8
ZJ8_TRUSS_LOWER
10
81420.0
20
2875.0
30
15200.0
11
83370.0
21
2875.0
31
15200.0
0
LINE
8
ZJ8_TRUSS_VERTICAL
10
77520.0
20
2875.0
30
17000.0
11
77520.0
21
2875.0
31
15200.0
0
LINE
8
ZJ8_TRUSS_VERTICAL
10
79470.0
20
2875.0
30
17000.0
11
79470.0
21
2875.0
31
15200.0
0
LINE
8
ZJ8_TRUSS_VERTICAL
10
81420.0
20
2875.0
30
17000.0
11
81420.0
21
2875.0
31
15200.0
0
LINE
8
ZJ8_TRUSS_VERTICAL
10
83370.0
20
2875.0
30
17000.0
11
83370.0
21
2875.0
31
15200.0
0
LINE
8
ZJ8_TRUSS_DIAGONAL
10
77520.0
20
2875.0
30
15200.0
11
79470.0
21
2875.0
31
17000.0
0
LINE
8
ZJ8_TRUSS_DIAGONAL
10
79470.0
20
2875.0
30
17000.0
11
81420.0
21
2875.0
31
15200.0
0
LINE
8
ZJ8_TRUSS_DIAGONAL
10
81420.0
20
2875.0
30
15200.0
11
83370.0
21
2875.0
31
17000.0
0
ENDSEC
0
EOF
