0
SECTION
2
HEADER
9
$INSUNITS
70
4
0
ENDSEC
0
SECTION
2
TABLES
0
TABLE
2
LAYER
70
12
0
LAYER
2
ZJ8_DECK_MAIN
70
0
62
4
6
CONTINUOUS
0
LAYER
2
ZJ8_DECK_CROSS
70
0
62
4
6
CONTINUOUS
0
LAYER
2
ZJ8_DECK_SECONDARY
70
0
62
3
6
CONTINUOUS
0
LAYER
2
ZJ8_CANTILEVER_EDGE
70
0
62
3
6
CONTINUOUS
0
LAYER
2
ZJ8_PLATFORM_BRACE
70
0
62
1
6
CONTINUOUS
0
LAYER
2
ZJ8_COLUMN
70
0
62
8
6
CONTINUOUS
0
LAYER
2
ZJ8_TRANSVERSE_BRACE
70
0
62
1
6
CONTINUOUS
0
LAYER
2
ZJ8_LONGITUDINAL_BRACE
70
0
62
1
6
CONTINUOUS
0
LAYER
2
ZJ8_TRUSS_UPPER
70
0
62
5
6
CONTINUOUS
0
LAYER
2
ZJ8_TRUSS_LOWER
70
0
62
5
6
CONTINUOUS
0
LAYER
2
ZJ8_TRUSS_VERTICAL
70
0
62
5
6
CONTINUOUS
0
LAYER
2
ZJ8_TRUSS_DIAGONAL
70
0
62
5
6
CONTINUOUS
0
ENDTAB
0
ENDSEC
0
SECTION
2
ENTITIES
0
LINE
8
ZJ8_COLUMN
10
62520.0
20
-2875.0
30
0.0
11
62520.0
21
-2875.0
31
4603.998259
0
LINE
8
ZJ8_COLUMN
10
62520.0
20
-2875.0
30
4603.998259
11
62520.0
21
-2875.0
31
9207.996517
0
LINE
8
ZJ8_COLUMN
10
62520.0
20
-2875.0
30
9207.996517
11
62520.0
21
-2875.0
31
13811.994776
0
LINE
8
ZJ8_COLUMN
10
62520.0
20
-2875.0
30
13811.994776
11
62520.0
21
-2875.0
31
18415.993035
0
LINE
8
ZJ8_COLUMN
10
62520.0
20
-2875.0
30
18415.993035
11
62520.0
21
-2875.0
31
23019.991293
0
LINE
8
ZJ8_COLUMN
10
62520.0
20
2875.0
30
0.0
11
62520.0
21
2875.0
31
4603.998259
0
LINE
8
ZJ8_COLUMN
10
62520.0
20
2875.0
30
4603.998259
11
62520.0
21
2875.0
31
9207.996517
0
LINE
8
ZJ8_COLUMN
10
62520.0
20
2875.0
30
9207.996517
11
62520.0
21
2875.0
31
13811.994776
0
LINE
8
ZJ8_COLUMN
10
62520.0
20
2875.0
30
13811.994776
11
62520.0
21
2875.0
31
18415.993035
0
LINE
8
ZJ8_COLUMN
10
62520.0
20
2875.0
30
18415.993035
11
62520.0
21
2875.0
31
23019.991293
0
LINE
8
ZJ8_DECK_CROSS
10
62520.0
20
-2200.0
30
23019.991293
11
62520.0
21
2700.0
31
23019.991293
0
LINE
8
ZJ8_TRANSVERSE_BRACE
10
62520.0
20
-2875.0
30
0.0
11
62520.0
21
2875.0
31
23019.991293
0
LINE
8
ZJ8_TRANSVERSE_BRACE
10
62520.0
20
2875.0
30
0.0
11
62520.0
21
-2875.0
31
23019.991293
0
LINE
8
ZJ8_COLUMN
10
74520.0
20
-2875.0
30
0.0
11
74520.0
21
-2875.0
31
4835.091974
0
LINE
8
ZJ8_COLUMN
10
74520.0
20
-2875.0
30
4835.091974
11
74520.0
21
-2875.0
31
9670.183949
0
LINE
8
ZJ8_COLUMN
10
74520.0
20
-2875.0
30
9670.183949
11
74520.0
21
-2875.0
31
14505.275923
0
LINE
8
ZJ8_COLUMN
10
74520.0
20
-2875.0
30
14505.275923
11
74520.0
21
-2875.0
31
19340.367897
0
LINE
8
ZJ8_COLUMN
10
74520.0
20
-2875.0
30
19340.367897
11
74520.0
21
-2875.0
31
24175.459872
0
LINE
8
ZJ8_COLUMN
10
74520.0
20
2875.0
30
0.0
11
74520.0
21
2875.0
31
4835.091974
0
LINE
8
ZJ8_COLUMN
10
74520.0
20
2875.0
30
4835.091974
11
74520.0
21
2875.0
31
9670.183949
0
LINE
8
ZJ8_COLUMN
10
74520.0
20
2875.0
30
9670.183949
11
74520.0
21
2875.0
31
14505.275923
0
LINE
8
ZJ8_COLUMN
10
74520.0
20
2875.0
30
14505.275923
11
74520.0
21
2875.0
31
19340.367897
0
LINE
8
ZJ8_COLUMN
10
74520.0
20
2875.0
30
19340.367897
11
74520.0
21
2875.0
31
24175.459872
0
LINE
8
ZJ8_DECK_CROSS
10
74520.0
20
-2200.0
30
24175.459872
11
74520.0
21
2700.0
31
24175.459872
0
LINE
8
ZJ8_TRANSVERSE_BRACE
10
74520.0
20
-2875.0
30
0.0
11
74520.0
21
2875.0
31
24175.459872
0
LINE
8
ZJ8_TRANSVERSE_BRACE
10
74520.0
20
2875.0
30
0.0
11
74520.0
21
-2875.0
31
24175.459872
0
LINE
8
ZJ8_COLUMN
10
77520.0
20
-2875.0
30
0.0
11
77520.0
21
-2875.0
31
4892.865403
0
LINE
8
ZJ8_COLUMN
10
77520.0
20
-2875.0
30
4892.865403
11
77520.0
21
-2875.0
31
9785.730807
0
LINE
8
ZJ8_COLUMN
10
77520.0
20
-2875.0
30
9785.730807
11
77520.0
21
-2875.0
31
14678.59621
0
LINE
8
ZJ8_COLUMN
10
77520.0
20
-2875.0
30
14678.59621
11
77520.0
21
-2875.0
31
19571.461613
0
LINE
8
ZJ8_COLUMN
10
77520.0
20
-2875.0
30
19571.461613
11
77520.0
21
-2875.0
31
24464.327016
0
LINE
8
ZJ8_COLUMN
10
77520.0
20
2875.0
30
0.0
11
77520.0
21
2875.0
31
4892.865403
0
LINE
8
ZJ8_COLUMN
10
77520.0
20
2875.0
30
4892.865403
11
77520.0
21
2875.0
31
9785.730807
0
LINE
8
ZJ8_COLUMN
10
77520.0
20
2875.0
30
9785.730807
11
77520.0
21
2875.0
31
14678.59621
0
LINE
8
ZJ8_COLUMN
10
77520.0
20
2875.0
30
14678.59621
11
77520.0
21
2875.0
31
19571.461613
0
LINE
8
ZJ8_COLUMN
10
77520.0
20
2875.0
30
19571.461613
11
77520.0
21
2875.0
31
24464.327016
0
LINE
8
ZJ8_DECK_CROSS
10
77520.0
20
-2200.0
30
24464.327016
11
77520.0
21
2700.0
31
24464.327016
0
LINE
8
ZJ8_TRANSVERSE_BRACE
10
77520.0
20
-2875.0
30
0.0
11
77520.0
21
2875.0
31
24464.327016
0
LINE
8
ZJ8_TRANSVERSE_BRACE
10
77520.0
20
2875.0
30
0.0
11
77520.0
21
-2875.0
31
24464.327016
0
LINE
8
ZJ8_DECK_MAIN
10
59520.0
20
-2875.0
30
22731.124149
11
62520.0
21
-2875.0
31
23019.991293
0
LINE
8
ZJ8_DECK_MAIN
10
59520.0
20
2875.0
30
22731.124149
11
62520.0
21
2875.0
31
23019.991293
0
LINE
8
ZJ8_DECK_SECONDARY
10
59520.0
20
-1075.0
30
22731.124149
11
62520.0
21
-1075.0
31
23019.991293
0
LINE
8
ZJ8_DECK_SECONDARY
10
59520.0
20
1075.0
30
22731.124149
11
62520.0
21
1075.0
31
23019.991293
0
LINE
8
ZJ8_CANTILEVER_EDGE
10
59520.0
20
-2200.0
30
22731.124149
11
62520.0
21
-2200.0
31
23019.991293
0
LINE
8
ZJ8_CANTILEVER_EDGE
10
59520.0
20
2700.0
30
22731.124149
11
62520.0
21
2700.0
31
23019.991293
0
LINE
8
ZJ8_PLATFORM_BRACE
10
59520.0
20
-2875.0
30
22731.124149
11
62520.0
21
2875.0
31
23019.991293
0
LINE
8
ZJ8_LONGITUDINAL_BRACE
10
59520.0
20
-2875.0
30
0.0
11
62520.0
21
-2875.0
31
23019.991293
0
LINE
8
ZJ8_LONGITUDINAL_BRACE
10
59520.0
20
2875.0
30
0.0
11
62520.0
21
2875.0
31
23019.991293
0
LINE
8
ZJ8_DECK_MAIN
10
62520.0
20
-2875.0
30
23019.991293
11
65520.0
21
-2875.0
31
23308.858438
0
LINE
8
ZJ8_DECK_MAIN
10
65520.0
20
-2875.0
30
23308.858438
11
68520.0
21
-2875.0
31
23597.725582
0
LINE
8
ZJ8_DECK_MAIN
10
68520.0
20
-2875.0
30
23597.725582
11
71520.0
21
-2875.0
31
23886.592727
0
LINE
8
ZJ8_DECK_MAIN
10
71520.0
20
-2875.0
30
23886.592727
11
74520.0
21
-2875.0
31
24175.459872
0
LINE
8
ZJ8_DECK_MAIN
10
62520.0
20
2875.0
30
23019.991293
11
65520.0
21
2875.0
31
23308.858438
0
LINE
8
ZJ8_DECK_MAIN
10
65520.0
20
2875.0
30
23308.858438
11
68520.0
21
2875.0
31
23597.725582
0
LINE
8
ZJ8_DECK_MAIN
10
68520.0
20
2875.0
30
23597.725582
11
71520.0
21
2875.0
31
23886.592727
0
LINE
8
ZJ8_DECK_MAIN
10
71520.0
20
2875.0
30
23886.592727
11
74520.0
21
2875.0
31
24175.459872
0
LINE
8
ZJ8_DECK_CROSS
10
65520.0
20
-2200.0
30
23308.858438
11
65520.0
21
2700.0
31
23308.858438
0
LINE
8
ZJ8_DECK_CROSS
10
68520.0
20
-2200.0
30
23597.725582
11
68520.0
21
2700.0
31
23597.725582
0
LINE
8
ZJ8_DECK_CROSS
10
71520.0
20
-2200.0
30
23886.592727
11
71520.0
21
2700.0
31
23886.592727
0
LINE
8
ZJ8_DECK_SECONDARY
10
62520.0
20
-1075.0
30
23019.991293
11
65520.0
21
-1075.0
31
23308.858438
0
LINE
8
ZJ8_DECK_SECONDARY
10
65520.0
20
-1075.0
30
23308.858438
11
68520.0
21
-1075.0
31
23597.725582
0
LINE
8
ZJ8_DECK_SECONDARY
10
68520.0
20
-1075.0
30
23597.725582
11
71520.0
21
-1075.0
31
23886.592727
0
LINE
8
ZJ8_DECK_SECONDARY
10
71520.0
20
-1075.0
30
23886.592727
11
74520.0
21
-1075.0
31
24175.459872
0
LINE
8
ZJ8_DECK_SECONDARY
10
62520.0
20
1075.0
30
23019.991293
11
65520.0
21
1075.0
31
23308.858438
0
LINE
8
ZJ8_DECK_SECONDARY
10
65520.0
20
1075.0
30
23308.858438
11
68520.0
21
1075.0
31
23597.725582
0
LINE
8
ZJ8_DECK_SECONDARY
10
68520.0
20
1075.0
30
23597.725582
11
71520.0
21
1075.0
31
23886.592727
0
LINE
8
ZJ8_DECK_SECONDARY
10
71520.0
20
1075.0
30
23886.592727
11
74520.0
21
1075.0
31
24175.459872
0
LINE
8
ZJ8_CANTILEVER_EDGE
10
62520.0
20
-2200.0
30
23019.991293
11
65520.0
21
-2200.0
31
23308.858438
0
LINE
8
ZJ8_CANTILEVER_EDGE
10
65520.0
20
-2200.0
30
23308.858438
11
68520.0
21
-2200.0
31
23597.725582
0
LINE
8
ZJ8_CANTILEVER_EDGE
10
68520.0
20
-2200.0
30
23597.725582
11
71520.0
21
-2200.0
31
23886.592727
0
LINE
8
ZJ8_CANTILEVER_EDGE
10
71520.0
20
-2200.0
30
23886.592727
11
74520.0
21
-2200.0
31
24175.459872
0
LINE
8
ZJ8_CANTILEVER_EDGE
10
62520.0
20
2700.0
30
23019.991293
11
65520.0
21
2700.0
31
23308.858438
0
LINE
8
ZJ8_CANTILEVER_EDGE
10
65520.0
20
2700.0
30
23308.858438
11
68520.0
21
2700.0
31
23597.725582
0
LINE
8
ZJ8_CANTILEVER_EDGE
10
68520.0
20
2700.0
30
23597.725582
11
71520.0
21
2700.0
31
23886.592727
0
LINE
8
ZJ8_CANTILEVER_EDGE
10
71520.0
20
2700.0
30
23886.592727
11
74520.0
21
2700.0
31
24175.459872
0
LINE
8
ZJ8_PLATFORM_BRACE
10
62520.0
20
-2875.0
30
23019.991293
11
65520.0
21
2875.0
31
23308.858438
0
LINE
8
ZJ8_PLATFORM_BRACE
10
65520.0
20
2875.0
30
23308.858438
11
68520.0
21
-2875.0
31
23597.725582
0
LINE
8
ZJ8_PLATFORM_BRACE
10
68520.0
20
-2875.0
30
23597.725582
11
71520.0
21
2875.0
31
23886.592727
0
LINE
8
ZJ8_PLATFORM_BRACE
10
71520.0
20
2875.0
30
23886.592727
11
74520.0
21
-2875.0
31
24175.459872
0
LINE
8
ZJ8_DECK_MAIN
10
74520.0
20
-2875.0
30
24175.459872
11
77520.0
21
-2875.0
31
24464.327016
0
LINE
8
ZJ8_DECK_MAIN
10
74520.0
20
2875.0
30
24175.459872
11
77520.0
21
2875.0
31
24464.327016
0
LINE
8
ZJ8_DECK_SECONDARY
10
74520.0
20
-1075.0
30
24175.459872
11
77520.0
21
-1075.0
31
24464.327016
0
LINE
8
ZJ8_DECK_SECONDARY
10
74520.0
20
1075.0
30
24175.459872
11
77520.0
21
1075.0
31
24464.327016
0
LINE
8
ZJ8_CANTILEVER_EDGE
10
74520.0
20
-2200.0
30
24175.459872
11
77520.0
21
-2200.0
31
24464.327016
0
LINE
8
ZJ8_CANTILEVER_EDGE
10
74520.0
20
2700.0
30
24175.459872
11
77520.0
21
2700.0
31
24464.327016
0
LINE
8
ZJ8_PLATFORM_BRACE
10
74520.0
20
-2875.0
30
24175.459872
11
77520.0
21
2875.0
31
24464.327016
0
LINE
8
ZJ8_LONGITUDINAL_BRACE
10
74520.0
20
-2875.0
30
0.0
11
77520.0
21
-2875.0
31
24464.327016
0
LINE
8
ZJ8_LONGITUDINAL_BRACE
10
74520.0
20
2875.0
30
0.0
11
77520.0
21
2875.0
31
24464.327016
0
LINE
8
ZJ8_DECK_MAIN
10
77520.0
20
-2875.0
30
24464.327016
11
80520.0
21
-2875.0
31
24753.194161
0
LINE
8
ZJ8_DECK_MAIN
10
80520.0
20
-2875.0
30
24753.194161
11
83520.0
21
-2875.0
31
25042.061305
0
LINE
8
ZJ8_DECK_MAIN
10
83520.0
20
-2875.0
30
25042.061305
11
86520.0
21
-2875.0
31
25330.92845
0
LINE
8
ZJ8_DECK_MAIN
10
86520.0
20
-2875.0
30
25330.92845
11
89520.0
21
-2875.0
31
25619.795595
0
LINE
8
ZJ8_DECK_MAIN
10
77520.0
20
2875.0
30
24464.327016
11
80520.0
21
2875.0
31
24753.194161
0
LINE
8
ZJ8_DECK_MAIN
10
80520.0
20
2875.0
30
24753.194161
11
83520.0
21
2875.0
31
25042.061305
0
LINE
8
ZJ8_DECK_MAIN
10
83520.0
20
2875.0
30
25042.061305
11
86520.0
21
2875.0
31
25330.92845
0
LINE
8
ZJ8_DECK_MAIN
10
86520.0
20
2875.0
30
25330.92845
11
89520.0
21
2875.0
31
25619.795595
0
LINE
8
ZJ8_DECK_CROSS
10
80520.0
20
-2200.0
30
24753.194161
11
80520.0
21
2700.0
31
24753.194161
0
LINE
8
ZJ8_DECK_CROSS
10
83520.0
20
-2200.0
30
25042.061305
11
83520.0
21
2700.0
31
25042.061305
0
LINE
8
ZJ8_DECK_CROSS
10
86520.0
20
-2200.0
30
25330.92845
11
86520.0
21
2700.0
31
25330.92845
0
LINE
8
ZJ8_DECK_CROSS
10
89520.0
20
-2200.0
30
25619.795595
11
89520.0
21
2700.0
31
25619.795595
0
LINE
8
ZJ8_DECK_SECONDARY
10
77520.0
20
-1075.0
30
24464.327016
11
80520.0
21
-1075.0
31
24753.194161
0
LINE
8
ZJ8_DECK_SECONDARY
10
80520.0
20
-1075.0
30
24753.194161
11
83520.0
21
-1075.0
31
25042.061305
0
LINE
8
ZJ8_DECK_SECONDARY
10
83520.0
20
-1075.0
30
25042.061305
11
86520.0
21
-1075.0
31
25330.92845
0
LINE
8
ZJ8_DECK_SECONDARY
10
86520.0
20
-1075.0
30
25330.92845
11
89520.0
21
-1075.0
31
25619.795595
0
LINE
8
ZJ8_DECK_SECONDARY
10
77520.0
20
1075.0
30
24464.327016
11
80520.0
21
1075.0
31
24753.194161
0
LINE
8
ZJ8_DECK_SECONDARY
10
80520.0
20
1075.0
30
24753.194161
11
83520.0
21
1075.0
31
25042.061305
0
LINE
8
ZJ8_DECK_SECONDARY
10
83520.0
20
1075.0
30
25042.061305
11
86520.0
21
1075.0
31
25330.92845
0
LINE
8
ZJ8_DECK_SECONDARY
10
86520.0
20
1075.0
30
25330.92845
11
89520.0
21
1075.0
31
25619.795595
0
LINE
8
ZJ8_CANTILEVER_EDGE
10
77520.0
20
-2200.0
30
24464.327016
11
80520.0
21
-2200.0
31
24753.194161
0
LINE
8
ZJ8_CANTILEVER_EDGE
10
80520.0
20
-2200.0
30
24753.194161
11
83520.0
21
-2200.0
31
25042.061305
0
LINE
8
ZJ8_CANTILEVER_EDGE
10
83520.0
20
-2200.0
30
25042.061305
11
86520.0
21
-2200.0
31
25330.92845
0
LINE
8
ZJ8_CANTILEVER_EDGE
10
86520.0
20
-2200.0
30
25330.92845
11
89520.0
21
-2200.0
31
25619.795595
0
LINE
8
ZJ8_CANTILEVER_EDGE
10
77520.0
20
2700.0
30
24464.327016
11
80520.0
21
2700.0
31
24753.194161
0
LINE
8
ZJ8_CANTILEVER_EDGE
10
80520.0
20
2700.0
30
24753.194161
11
83520.0
21
2700.0
31
25042.061305
0
LINE
8
ZJ8_CANTILEVER_EDGE
10
83520.0
20
2700.0
30
25042.061305
11
86520.0
21
2700.0
31
25330.92845
0
LINE
8
ZJ8_CANTILEVER_EDGE
10
86520.0
20
2700.0
30
25330.92845
11
89520.0
21
2700.0
31
25619.795595
0
LINE
8
ZJ8_PLATFORM_BRACE
10
77520.0
20
-2875.0
30
24464.327016
11
80520.0
21
2875.0
31
24753.194161
0
LINE
8
ZJ8_PLATFORM_BRACE
10
80520.0
20
2875.0
30
24753.194161
11
83520.0
21
-2875.0
31
25042.061305
0
LINE
8
ZJ8_PLATFORM_BRACE
10
83520.0
20
-2875.0
30
25042.061305
11
86520.0
21
2875.0
31
25330.92845
0
LINE
8
ZJ8_PLATFORM_BRACE
10
86520.0
20
2875.0
30
25330.92845
11
89520.0
21
-2875.0
31
25619.795595
0
LINE
8
ZJ8_TRUSS_UPPER
10
77520.0
20
-2875.0
30
24464.327016
11
79470.0
21
-2875.0
31
24652.09066
0
LINE
8
ZJ8_TRUSS_UPPER
10
79470.0
20
-2875.0
30
24652.09066
11
81420.0
21
-2875.0
31
24839.854304
0
LINE
8
ZJ8_TRUSS_UPPER
10
81420.0
20
-2875.0
30
24839.854304
11
83370.0
21
-2875.0
31
25027.617948
0
LINE
8
ZJ8_TRUSS_UPPER
10
83370.0
20
-2875.0
30
25027.617948
11
85320.0
21
-2875.0
31
25215.381592
0
LINE
8
ZJ8_TRUSS_UPPER
10
85320.0
20
-2875.0
30
25215.381592
11
87270.0
21
-2875.0
31
25403.145236
0
LINE
8
ZJ8_TRUSS_UPPER
10
87270.0
20
-2875.0
30
25403.145236
11
89220.0
21
-2875.0
31
25590.90888
0
LINE
8
ZJ8_TRUSS_LOWER
10
77520.0
20
-2875.0
30
22664.327016
11
79470.0
21
-2875.0
31
22852.09066
0
LINE
8
ZJ8_TRUSS_LOWER
10
79470.0
20
-2875.0
30
22852.09066
11
81420.0
21
-2875.0
31
23039.854304
0
LINE
8
ZJ8_TRUSS_LOWER
10
81420.0
20
-2875.0
30
23039.854304
11
83370.0
21
-2875.0
31
23227.617948
0
LINE
8
ZJ8_TRUSS_LOWER
10
83370.0
20
-2875.0
30
23227.617948
11
85320.0
21
-2875.0
31
23415.381592
0
LINE
8
ZJ8_TRUSS_LOWER
10
85320.0
20
-2875.0
30
23415.381592
11
87270.0
21
-2875.0
31
23603.145236
0
LINE
8
ZJ8_TRUSS_LOWER
10
87270.0
20
-2875.0
30
23603.145236
11
89220.0
21
-2875.0
31
23790.90888
0
LINE
8
ZJ8_TRUSS_VERTICAL
10
77520.0
20
-2875.0
30
24464.327016
11
77520.0
21
-2875.0
31
22664.327016
0
LINE
8
ZJ8_TRUSS_VERTICAL
10
79470.0
20
-2875.0
30
24652.09066
11
79470.0
21
-2875.0
31
22852.09066
0
LINE
8
ZJ8_TRUSS_VERTICAL
10
81420.0
20
-2875.0
30
24839.854304
11
81420.0
21
-2875.0
31
23039.854304
0
LINE
8
ZJ8_TRUSS_VERTICAL
10
83370.0
20
-2875.0
30
25027.617948
11
83370.0
21
-2875.0
31
23227.617948
0
LINE
8
ZJ8_TRUSS_VERTICAL
10
85320.0
20
-2875.0
30
25215.381592
11
85320.0
21
-2875.0
31
23415.381592
0
LINE
8
ZJ8_TRUSS_VERTICAL
10
87270.0
20
-2875.0
30
25403.145236
11
87270.0
21
-2875.0
31
23603.145236
0
LINE
8
ZJ8_TRUSS_VERTICAL
10
89220.0
20
-2875.0
30
25590.90888
11
89220.0
21
-2875.0
31
23790.90888
0
LINE
8
ZJ8_TRUSS_DIAGONAL
10
77520.0
20
-2875.0
30
22664.327016
11
79470.0
21
-2875.0
31
24652.09066
0
LINE
8
ZJ8_TRUSS_DIAGONAL
10
79470.0
20
-2875.0
30
24652.09066
11
81420.0
21
-2875.0
31
23039.854304
0
LINE
8
ZJ8_TRUSS_DIAGONAL
10
81420.0
20
-2875.0
30
23039.854304
11
83370.0
21
-2875.0
31
25027.617948
0
LINE
8
ZJ8_TRUSS_DIAGONAL
10
83370.0
20
-2875.0
30
25027.617948
11
85320.0
21
-2875.0
31
23415.381592
0
LINE
8
ZJ8_TRUSS_DIAGONAL
10
85320.0
20
-2875.0
30
23415.381592
11
87270.0
21
-2875.0
31
25403.145236
0
LINE
8
ZJ8_TRUSS_DIAGONAL
10
87270.0
20
-2875.0
30
25403.145236
11
89220.0
21
-2875.0
31
23790.90888
0
LINE
8
ZJ8_TRUSS_UPPER
10
77520.0
20
2875.0
30
24464.327016
11
79470.0
21
2875.0
31
24652.09066
0
LINE
8
ZJ8_TRUSS_UPPER
10
79470.0
20
2875.0
30
24652.09066
11
81420.0
21
2875.0
31
24839.854304
0
LINE
8
ZJ8_TRUSS_UPPER
10
81420.0
20
2875.0
30
24839.854304
11
83370.0
21
2875.0
31
25027.617948
0
LINE
8
ZJ8_TRUSS_UPPER
10
83370.0
20
2875.0
30
25027.617948
11
85320.0
21
2875.0
31
25215.381592
0
LINE
8
ZJ8_TRUSS_UPPER
10
85320.0
20
2875.0
30
25215.381592
11
87270.0
21
2875.0
31
25403.145236
0
LINE
8
ZJ8_TRUSS_UPPER
10
87270.0
20
2875.0
30
25403.145236
11
89220.0
21
2875.0
31
25590.90888
0
LINE
8
ZJ8_TRUSS_LOWER
10
77520.0
20
2875.0
30
22664.327016
11
79470.0
21
2875.0
31
22852.09066
0
LINE
8
ZJ8_TRUSS_LOWER
10
79470.0
20
2875.0
30
22852.09066
11
81420.0
21
2875.0
31
23039.854304
0
LINE
8
ZJ8_TRUSS_LOWER
10
81420.0
20
2875.0
30
23039.854304
11
83370.0
21
2875.0
31
23227.617948
0
LINE
8
ZJ8_TRUSS_LOWER
10
83370.0
20
2875.0
30
23227.617948
11
85320.0
21
2875.0
31
23415.381592
0
LINE
8
ZJ8_TRUSS_LOWER
10
85320.0
20
2875.0
30
23415.381592
11
87270.0
21
2875.0
31
23603.145236
0
LINE
8
ZJ8_TRUSS_LOWER
10
87270.0
20
2875.0
30
23603.145236
11
89220.0
21
2875.0
31
23790.90888
0
LINE
8
ZJ8_TRUSS_VERTICAL
10
77520.0
20
2875.0
30
24464.327016
11
77520.0
21
2875.0
31
22664.327016
0
LINE
8
ZJ8_TRUSS_VERTICAL
10
79470.0
20
2875.0
30
24652.09066
11
79470.0
21
2875.0
31
22852.09066
0
LINE
8
ZJ8_TRUSS_VERTICAL
10
81420.0
20
2875.0
30
24839.854304
11
81420.0
21
2875.0
31
23039.854304
0
LINE
8
ZJ8_TRUSS_VERTICAL
10
83370.0
20
2875.0
30
25027.617948
11
83370.0
21
2875.0
31
23227.617948
0
LINE
8
ZJ8_TRUSS_VERTICAL
10
85320.0
20
2875.0
30
25215.381592
11
85320.0
21
2875.0
31
23415.381592
0
LINE
8
ZJ8_TRUSS_VERTICAL
10
87270.0
20
2875.0
30
25403.145236
11
87270.0
21
2875.0
31
23603.145236
0
LINE
8
ZJ8_TRUSS_VERTICAL
10
89220.0
20
2875.0
30
25590.90888
11
89220.0
21
2875.0
31
23790.90888
0
LINE
8
ZJ8_TRUSS_DIAGONAL
10
77520.0
20
2875.0
30
22664.327016
11
79470.0
21
2875.0
31
24652.09066
0
LINE
8
ZJ8_TRUSS_DIAGONAL
10
79470.0
20
2875.0
30
24652.09066
11
81420.0
21
2875.0
31
23039.854304
0
LINE
8
ZJ8_TRUSS_DIAGONAL
10
81420.0
20
2875.0
30
23039.854304
11
83370.0
21
2875.0
31
25027.617948
0
LINE
8
ZJ8_TRUSS_DIAGONAL
10
83370.0
20
2875.0
30
25027.617948
11
85320.0
21
2875.0
31
23415.381592
0
LINE
8
ZJ8_TRUSS_DIAGONAL
10
85320.0
20
2875.0
30
23415.381592
11
87270.0
21
2875.0
31
25403.145236
0
LINE
8
ZJ8_TRUSS_DIAGONAL
10
87270.0
20
2875.0
30
25403.145236
11
89220.0
21
2875.0
31
23790.90888
0
ENDSEC
0
EOF
