0
SECTION
2
HEADER
9
$INSUNITS
70
4
0
ENDSEC
0
SECTION
2
TABLES
0
TABLE
2
LAYER
70
12
0
LAYER
2
ZJ8_DECK_MAIN
70
0
62
4
6
CONTINUOUS
0
LAYER
2
ZJ8_DECK_CROSS
70
0
62
4
6
CONTINUOUS
0
LAYER
2
ZJ8_DECK_SECONDARY
70
0
62
3
6
CONTINUOUS
0
LAYER
2
ZJ8_CANTILEVER_EDGE
70
0
62
3
6
CONTINUOUS
0
LAYER
2
ZJ8_PLATFORM_BRACE
70
0
62
1
6
CONTINUOUS
0
LAYER
2
ZJ8_COLUMN
70
0
62
8
6
CONTINUOUS
0
LAYER
2
ZJ8_TRANSVERSE_BRACE
70
0
62
1
6
CONTINUOUS
0
LAYER
2
ZJ8_LONGITUDINAL_BRACE
70
0
62
1
6
CONTINUOUS
0
LAYER
2
ZJ8_TRUSS_UPPER
70
0
62
5
6
CONTINUOUS
0
LAYER
2
ZJ8_TRUSS_LOWER
70
0
62
5
6
CONTINUOUS
0
LAYER
2
ZJ8_TRUSS_VERTICAL
70
0
62
5
6
CONTINUOUS
0
LAYER
2
ZJ8_TRUSS_DIAGONAL
70
0
62
5
6
CONTINUOUS
0
ENDTAB
0
ENDSEC
0
SECTION
2
ENTITIES
0
LINE
8
ZJ8_COLUMN
10
116520.0
20
-2875.0
30
0.0
11
116520.0
21
-2875.0
31
4310.34398
0
LINE
8
ZJ8_COLUMN
10
116520.0
20
-2875.0
30
4310.34398
11
116520.0
21
-2875.0
31
8620.687959
0
LINE
8
ZJ8_COLUMN
10
116520.0
20
-2875.0
30
8620.687959
11
116520.0
21
-2875.0
31
12931.031939
0
LINE
8
ZJ8_COLUMN
10
116520.0
20
2875.0
30
0.0
11
116520.0
21
2875.0
31
4310.34398
0
LINE
8
ZJ8_COLUMN
10
116520.0
20
2875.0
30
4310.34398
11
116520.0
21
2875.0
31
8620.687959
0
LINE
8
ZJ8_COLUMN
10
116520.0
20
2875.0
30
8620.687959
11
116520.0
21
2875.0
31
12931.031939
0
LINE
8
ZJ8_DECK_CROSS
10
116520.0
20
-2200.0
30
12931.031939
11
116520.0
21
2700.0
31
12931.031939
0
LINE
8
ZJ8_TRANSVERSE_BRACE
10
116520.0
20
-2875.0
30
0.0
11
116520.0
21
2875.0
31
12931.031939
0
LINE
8
ZJ8_TRANSVERSE_BRACE
10
116520.0
20
2875.0
30
0.0
11
116520.0
21
-2875.0
31
12931.031939
0
LINE
8
ZJ8_COLUMN
10
119520.0
20
-2875.0
30
0.0
11
119520.0
21
-2875.0
31
4275.42321
0
LINE
8
ZJ8_COLUMN
10
119520.0
20
-2875.0
30
4275.42321
11
119520.0
21
-2875.0
31
8550.84642
0
LINE
8
ZJ8_COLUMN
10
119520.0
20
-2875.0
30
8550.84642
11
119520.0
21
-2875.0
31
12826.26963
0
LINE
8
ZJ8_COLUMN
10
119520.0
20
2875.0
30
0.0
11
119520.0
21
2875.0
31
4275.42321
0
LINE
8
ZJ8_COLUMN
10
119520.0
20
2875.0
30
4275.42321
11
119520.0
21
2875.0
31
8550.84642
0
LINE
8
ZJ8_COLUMN
10
119520.0
20
2875.0
30
8550.84642
11
119520.0
21
2875.0
31
12826.26963
0
LINE
8
ZJ8_DECK_CROSS
10
119520.0
20
-2200.0
30
12826.26963
11
119520.0
21
2700.0
31
12826.26963
0
LINE
8
ZJ8_TRANSVERSE_BRACE
10
119520.0
20
-2875.0
30
0.0
11
119520.0
21
2875.0
31
12826.26963
0
LINE
8
ZJ8_TRANSVERSE_BRACE
10
119520.0
20
2875.0
30
0.0
11
119520.0
21
-2875.0
31
12826.26963
0
LINE
8
ZJ8_DECK_MAIN
10
77520.0
20
-2875.0
30
14292.941949
11
80520.0
21
-2875.0
31
14188.179641
0
LINE
8
ZJ8_DECK_MAIN
10
80520.0
20
-2875.0
30
14188.179641
11
83520.0
21
-2875.0
31
14083.417332
0
LINE
8
ZJ8_DECK_MAIN
10
83520.0
20
-2875.0
30
14083.417332
11
86520.0
21
-2875.0
31
13978.655024
0
LINE
8
ZJ8_DECK_MAIN
10
86520.0
20
-2875.0
30
13978.655024
11
89520.0
21
-2875.0
31
13873.892715
0
LINE
8
ZJ8_DECK_MAIN
10
89520.0
20
-2875.0
30
13873.892715
11
92520.0
21
-2875.0
31
13769.130407
0
LINE
8
ZJ8_DECK_MAIN
10
92520.0
20
-2875.0
30
13769.130407
11
95520.0
21
-2875.0
31
13664.368098
0
LINE
8
ZJ8_DECK_MAIN
10
95520.0
20
-2875.0
30
13664.368098
11
98520.0
21
-2875.0
31
13559.60579
0
LINE
8
ZJ8_DECK_MAIN
10
98520.0
20
-2875.0
30
13559.60579
11
101520.0
21
-2875.0
31
13454.843481
0
LINE
8
ZJ8_DECK_MAIN
10
101520.0
20
-2875.0
30
13454.843481
11
104520.0
21
-2875.0
31
13350.081173
0
LINE
8
ZJ8_DECK_MAIN
10
104520.0
20
-2875.0
30
13350.081173
11
107520.0
21
-2875.0
31
13245.318864
0
LINE
8
ZJ8_DECK_MAIN
10
107520.0
20
-2875.0
30
13245.318864
11
110520.0
21
-2875.0
31
13140.556556
0
LINE
8
ZJ8_DECK_MAIN
10
110520.0
20
-2875.0
30
13140.556556
11
113520.0
21
-2875.0
31
13035.794247
0
LINE
8
ZJ8_DECK_MAIN
10
113520.0
20
-2875.0
30
13035.794247
11
116520.0
21
-2875.0
31
12931.031939
0
LINE
8
ZJ8_DECK_MAIN
10
77520.0
20
2875.0
30
14292.941949
11
80520.0
21
2875.0
31
14188.179641
0
LINE
8
ZJ8_DECK_MAIN
10
80520.0
20
2875.0
30
14188.179641
11
83520.0
21
2875.0
31
14083.417332
0
LINE
8
ZJ8_DECK_MAIN
10
83520.0
20
2875.0
30
14083.417332
11
86520.0
21
2875.0
31
13978.655024
0
LINE
8
ZJ8_DECK_MAIN
10
86520.0
20
2875.0
30
13978.655024
11
89520.0
21
2875.0
31
13873.892715
0
LINE
8
ZJ8_DECK_MAIN
10
89520.0
20
2875.0
30
13873.892715
11
92520.0
21
2875.0
31
13769.130407
0
LINE
8
ZJ8_DECK_MAIN
10
92520.0
20
2875.0
30
13769.130407
11
95520.0
21
2875.0
31
13664.368098
0
LINE
8
ZJ8_DECK_MAIN
10
95520.0
20
2875.0
30
13664.368098
11
98520.0
21
2875.0
31
13559.60579
0
LINE
8
ZJ8_DECK_MAIN
10
98520.0
20
2875.0
30
13559.60579
11
101520.0
21
2875.0
31
13454.843481
0
LINE
8
ZJ8_DECK_MAIN
10
101520.0
20
2875.0
30
13454.843481
11
104520.0
21
2875.0
31
13350.081173
0
LINE
8
ZJ8_DECK_MAIN
10
104520.0
20
2875.0
30
13350.081173
11
107520.0
21
2875.0
31
13245.318864
0
LINE
8
ZJ8_DECK_MAIN
10
107520.0
20
2875.0
30
13245.318864
11
110520.0
21
2875.0
31
13140.556556
0
LINE
8
ZJ8_DECK_MAIN
10
110520.0
20
2875.0
30
13140.556556
11
113520.0
21
2875.0
31
13035.794247
0
LINE
8
ZJ8_DECK_MAIN
10
113520.0
20
2875.0
30
13035.794247
11
116520.0
21
2875.0
31
12931.031939
0
LINE
8
ZJ8_DECK_CROSS
10
80520.0
20
-2200.0
30
14188.179641
11
80520.0
21
2700.0
31
14188.179641
0
LINE
8
ZJ8_DECK_CROSS
10
83520.0
20
-2200.0
30
14083.417332
11
83520.0
21
2700.0
31
14083.417332
0
LINE
8
ZJ8_DECK_CROSS
10
86520.0
20
-2200.0
30
13978.655024
11
86520.0
21
2700.0
31
13978.655024
0
LINE
8
ZJ8_DECK_CROSS
10
89520.0
20
-2200.0
30
13873.892715
11
89520.0
21
2700.0
31
13873.892715
0
LINE
8
ZJ8_DECK_CROSS
10
92520.0
20
-2200.0
30
13769.130407
11
92520.0
21
2700.0
31
13769.130407
0
LINE
8
ZJ8_DECK_CROSS
10
95520.0
20
-2200.0
30
13664.368098
11
95520.0
21
2700.0
31
13664.368098
0
LINE
8
ZJ8_DECK_CROSS
10
98520.0
20
-2200.0
30
13559.60579
11
98520.0
21
2700.0
31
13559.60579
0
LINE
8
ZJ8_DECK_CROSS
10
101520.0
20
-2200.0
30
13454.843481
11
101520.0
21
2700.0
31
13454.843481
0
LINE
8
ZJ8_DECK_CROSS
10
104520.0
20
-2200.0
30
13350.081173
11
104520.0
21
2700.0
31
13350.081173
0
LINE
8
ZJ8_DECK_CROSS
10
107520.0
20
-2200.0
30
13245.318864
11
107520.0
21
2700.0
31
13245.318864
0
LINE
8
ZJ8_DECK_CROSS
10
110520.0
20
-2200.0
30
13140.556556
11
110520.0
21
2700.0
31
13140.556556
0
LINE
8
ZJ8_DECK_CROSS
10
113520.0
20
-2200.0
30
13035.794247
11
113520.0
21
2700.0
31
13035.794247
0
LINE
8
ZJ8_DECK_SECONDARY
10
77520.0
20
-1075.0
30
14292.941949
11
80520.0
21
-1075.0
31
14188.179641
0
LINE
8
ZJ8_DECK_SECONDARY
10
80520.0
20
-1075.0
30
14188.179641
11
83520.0
21
-1075.0
31
14083.417332
0
LINE
8
ZJ8_DECK_SECONDARY
10
83520.0
20
-1075.0
30
14083.417332
11
86520.0
21
-1075.0
31
13978.655024
0
LINE
8
ZJ8_DECK_SECONDARY
10
86520.0
20
-1075.0
30
13978.655024
11
89520.0
21
-1075.0
31
13873.892715
0
LINE
8
ZJ8_DECK_SECONDARY
10
89520.0
20
-1075.0
30
13873.892715
11
92520.0
21
-1075.0
31
13769.130407
0
LINE
8
ZJ8_DECK_SECONDARY
10
92520.0
20
-1075.0
30
13769.130407
11
95520.0
21
-1075.0
31
13664.368098
0
LINE
8
ZJ8_DECK_SECONDARY
10
95520.0
20
-1075.0
30
13664.368098
11
98520.0
21
-1075.0
31
13559.60579
0
LINE
8
ZJ8_DECK_SECONDARY
10
98520.0
20
-1075.0
30
13559.60579
11
101520.0
21
-1075.0
31
13454.843481
0
LINE
8
ZJ8_DECK_SECONDARY
10
101520.0
20
-1075.0
30
13454.843481
11
104520.0
21
-1075.0
31
13350.081173
0
LINE
8
ZJ8_DECK_SECONDARY
10
104520.0
20
-1075.0
30
13350.081173
11
107520.0
21
-1075.0
31
13245.318864
0
LINE
8
ZJ8_DECK_SECONDARY
10
107520.0
20
-1075.0
30
13245.318864
11
110520.0
21
-1075.0
31
13140.556556
0
LINE
8
ZJ8_DECK_SECONDARY
10
110520.0
20
-1075.0
30
13140.556556
11
113520.0
21
-1075.0
31
13035.794247
0
LINE
8
ZJ8_DECK_SECONDARY
10
113520.0
20
-1075.0
30
13035.794247
11
116520.0
21
-1075.0
31
12931.031939
0
LINE
8
ZJ8_DECK_SECONDARY
10
77520.0
20
1075.0
30
14292.941949
11
80520.0
21
1075.0
31
14188.179641
0
LINE
8
ZJ8_DECK_SECONDARY
10
80520.0
20
1075.0
30
14188.179641
11
83520.0
21
1075.0
31
14083.417332
0
LINE
8
ZJ8_DECK_SECONDARY
10
83520.0
20
1075.0
30
14083.417332
11
86520.0
21
1075.0
31
13978.655024
0
LINE
8
ZJ8_DECK_SECONDARY
10
86520.0
20
1075.0
30
13978.655024
11
89520.0
21
1075.0
31
13873.892715
0
LINE
8
ZJ8_DECK_SECONDARY
10
89520.0
20
1075.0
30
13873.892715
11
92520.0
21
1075.0
31
13769.130407
0
LINE
8
ZJ8_DECK_SECONDARY
10
92520.0
20
1075.0
30
13769.130407
11
95520.0
21
1075.0
31
13664.368098
0
LINE
8
ZJ8_DECK_SECONDARY
10
95520.0
20
1075.0
30
13664.368098
11
98520.0
21
1075.0
31
13559.60579
0
LINE
8
ZJ8_DECK_SECONDARY
10
98520.0
20
1075.0
30
13559.60579
11
101520.0
21
1075.0
31
13454.843481
0
LINE
8
ZJ8_DECK_SECONDARY
10
101520.0
20
1075.0
30
13454.843481
11
104520.0
21
1075.0
31
13350.081173
0
LINE
8
ZJ8_DECK_SECONDARY
10
104520.0
20
1075.0
30
13350.081173
11
107520.0
21
1075.0
31
13245.318864
0
LINE
8
ZJ8_DECK_SECONDARY
10
107520.0
20
1075.0
30
13245.318864
11
110520.0
21
1075.0
31
13140.556556
0
LINE
8
ZJ8_DECK_SECONDARY
10
110520.0
20
1075.0
30
13140.556556
11
113520.0
21
1075.0
31
13035.794247
0
LINE
8
ZJ8_DECK_SECONDARY
10
113520.0
20
1075.0
30
13035.794247
11
116520.0
21
1075.0
31
12931.031939
0
LINE
8
ZJ8_CANTILEVER_EDGE
10
77520.0
20
-2200.0
30
14292.941949
11
80520.0
21
-2200.0
31
14188.179641
0
LINE
8
ZJ8_CANTILEVER_EDGE
10
80520.0
20
-2200.0
30
14188.179641
11
83520.0
21
-2200.0
31
14083.417332
0
LINE
8
ZJ8_CANTILEVER_EDGE
10
83520.0
20
-2200.0
30
14083.417332
11
86520.0
21
-2200.0
31
13978.655024
0
LINE
8
ZJ8_CANTILEVER_EDGE
10
86520.0
20
-2200.0
30
13978.655024
11
89520.0
21
-2200.0
31
13873.892715
0
LINE
8
ZJ8_CANTILEVER_EDGE
10
89520.0
20
-2200.0
30
13873.892715
11
92520.0
21
-2200.0
31
13769.130407
0
LINE
8
ZJ8_CANTILEVER_EDGE
10
92520.0
20
-2200.0
30
13769.130407
11
95520.0
21
-2200.0
31
13664.368098
0
LINE
8
ZJ8_CANTILEVER_EDGE
10
95520.0
20
-2200.0
30
13664.368098
11
98520.0
21
-2200.0
31
13559.60579
0
LINE
8
ZJ8_CANTILEVER_EDGE
10
98520.0
20
-2200.0
30
13559.60579
11
101520.0
21
-2200.0
31
13454.843481
0
LINE
8
ZJ8_CANTILEVER_EDGE
10
101520.0
20
-2200.0
30
13454.843481
11
104520.0
21
-2200.0
31
13350.081173
0
LINE
8
ZJ8_CANTILEVER_EDGE
10
104520.0
20
-2200.0
30
13350.081173
11
107520.0
21
-2200.0
31
13245.318864
0
LINE
8
ZJ8_CANTILEVER_EDGE
10
107520.0
20
-2200.0
30
13245.318864
11
110520.0
21
-2200.0
31
13140.556556
0
LINE
8
ZJ8_CANTILEVER_EDGE
10
110520.0
20
-2200.0
30
13140.556556
11
113520.0
21
-2200.0
31
13035.794247
0
LINE
8
ZJ8_CANTILEVER_EDGE
10
113520.0
20
-2200.0
30
13035.794247
11
116520.0
21
-2200.0
31
12931.031939
0
LINE
8
ZJ8_CANTILEVER_EDGE
10
77520.0
20
2700.0
30
14292.941949
11
80520.0
21
2700.0
31
14188.179641
0
LINE
8
ZJ8_CANTILEVER_EDGE
10
80520.0
20
2700.0
30
14188.179641
11
83520.0
21
2700.0
31
14083.417332
0
LINE
8
ZJ8_CANTILEVER_EDGE
10
83520.0
20
2700.0
30
14083.417332
11
86520.0
21
2700.0
31
13978.655024
0
LINE
8
ZJ8_CANTILEVER_EDGE
10
86520.0
20
2700.0
30
13978.655024
11
89520.0
21
2700.0
31
13873.892715
0
LINE
8
ZJ8_CANTILEVER_EDGE
10
89520.0
20
2700.0
30
13873.892715
11
92520.0
21
2700.0
31
13769.130407
0
LINE
8
ZJ8_CANTILEVER_EDGE
10
92520.0
20
2700.0
30
13769.130407
11
95520.0
21
2700.0
31
13664.368098
0
LINE
8
ZJ8_CANTILEVER_EDGE
10
95520.0
20
2700.0
30
13664.368098
11
98520.0
21
2700.0
31
13559.60579
0
LINE
8
ZJ8_CANTILEVER_EDGE
10
98520.0
20
2700.0
30
13559.60579
11
101520.0
21
2700.0
31
13454.843481
0
LINE
8
ZJ8_CANTILEVER_EDGE
10
101520.0
20
2700.0
30
13454.843481
11
104520.0
21
2700.0
31
13350.081173
0
LINE
8
ZJ8_CANTILEVER_EDGE
10
104520.0
20
2700.0
30
13350.081173
11
107520.0
21
2700.0
31
13245.318864
0
LINE
8
ZJ8_CANTILEVER_EDGE
10
107520.0
20
2700.0
30
13245.318864
11
110520.0
21
2700.0
31
13140.556556
0
LINE
8
ZJ8_CANTILEVER_EDGE
10
110520.0
20
2700.0
30
13140.556556
11
113520.0
21
2700.0
31
13035.794247
0
LINE
8
ZJ8_CANTILEVER_EDGE
10
113520.0
20
2700.0
30
13035.794247
11
116520.0
21
2700.0
31
12931.031939
0
LINE
8
ZJ8_PLATFORM_BRACE
10
77520.0
20
-2875.0
30
14292.941949
11
80520.0
21
2875.0
31
14188.179641
0
LINE
8
ZJ8_PLATFORM_BRACE
10
80520.0
20
2875.0
30
14188.179641
11
83520.0
21
-2875.0
31
14083.417332
0
LINE
8
ZJ8_PLATFORM_BRACE
10
83520.0
20
-2875.0
30
14083.417332
11
86520.0
21
2875.0
31
13978.655024
0
LINE
8
ZJ8_PLATFORM_BRACE
10
86520.0
20
2875.0
30
13978.655024
11
89520.0
21
-2875.0
31
13873.892715
0
LINE
8
ZJ8_PLATFORM_BRACE
10
89520.0
20
-2875.0
30
13873.892715
11
92520.0
21
2875.0
31
13769.130407
0
LINE
8
ZJ8_PLATFORM_BRACE
10
92520.0
20
2875.0
30
13769.130407
11
95520.0
21
-2875.0
31
13664.368098
0
LINE
8
ZJ8_PLATFORM_BRACE
10
95520.0
20
-2875.0
30
13664.368098
11
98520.0
21
2875.0
31
13559.60579
0
LINE
8
ZJ8_PLATFORM_BRACE
10
98520.0
20
2875.0
30
13559.60579
11
101520.0
21
-2875.0
31
13454.843481
0
LINE
8
ZJ8_PLATFORM_BRACE
10
101520.0
20
-2875.0
30
13454.843481
11
104520.0
21
2875.0
31
13350.081173
0
LINE
8
ZJ8_PLATFORM_BRACE
10
104520.0
20
2875.0
30
13350.081173
11
107520.0
21
-2875.0
31
13245.318864
0
LINE
8
ZJ8_PLATFORM_BRACE
10
107520.0
20
-2875.0
30
13245.318864
11
110520.0
21
2875.0
31
13140.556556
0
LINE
8
ZJ8_PLATFORM_BRACE
10
110520.0
20
2875.0
30
13140.556556
11
113520.0
21
-2875.0
31
13035.794247
0
LINE
8
ZJ8_PLATFORM_BRACE
10
113520.0
20
-2875.0
30
13035.794247
11
116520.0
21
2875.0
31
12931.031939
0
LINE
8
ZJ8_TRUSS_UPPER
10
77520.0
20
-2875.0
30
14292.941949
11
79470.0
21
-2875.0
31
14224.846448
0
LINE
8
ZJ8_TRUSS_UPPER
10
79470.0
20
-2875.0
30
14224.846448
11
81420.0
21
-2875.0
31
14156.750948
0
LINE
8
ZJ8_TRUSS_UPPER
10
81420.0
20
-2875.0
30
14156.750948
11
83370.0
21
-2875.0
31
14088.655447
0
LINE
8
ZJ8_TRUSS_UPPER
10
83370.0
20
-2875.0
30
14088.655447
11
85320.0
21
-2875.0
31
14020.559947
0
LINE
8
ZJ8_TRUSS_UPPER
10
85320.0
20
-2875.0
30
14020.559947
11
87270.0
21
-2875.0
31
13952.464446
0
LINE
8
ZJ8_TRUSS_UPPER
10
87270.0
20
-2875.0
30
13952.464446
11
89220.0
21
-2875.0
31
13884.368946
0
LINE
8
ZJ8_TRUSS_UPPER
10
89220.0
20
-2875.0
30
13884.368946
11
91170.0
21
-2875.0
31
13816.273445
0
LINE
8
ZJ8_TRUSS_UPPER
10
91170.0
20
-2875.0
30
13816.273445
11
93120.0
21
-2875.0
31
13748.177945
0
LINE
8
ZJ8_TRUSS_UPPER
10
93120.0
20
-2875.0
30
13748.177945
11
95070.0
21
-2875.0
31
13680.082444
0
LINE
8
ZJ8_TRUSS_UPPER
10
95070.0
20
-2875.0
30
13680.082444
11
97020.0
21
-2875.0
31
13611.986944
0
LINE
8
ZJ8_TRUSS_UPPER
10
97020.0
20
-2875.0
30
13611.986944
11
98970.0
21
-2875.0
31
13543.891443
0
LINE
8
ZJ8_TRUSS_UPPER
10
98970.0
20
-2875.0
30
13543.891443
11
100920.0
21
-2875.0
31
13475.795943
0
LINE
8
ZJ8_TRUSS_UPPER
10
100920.0
20
-2875.0
30
13475.795943
11
102870.0
21
-2875.0
31
13407.700442
0
LINE
8
ZJ8_TRUSS_UPPER
10
102870.0
20
-2875.0
30
13407.700442
11
104820.0
21
-2875.0
31
13339.604942
0
LINE
8
ZJ8_TRUSS_UPPER
10
104820.0
20
-2875.0
30
13339.604942
11
106770.0
21
-2875.0
31
13271.509441
0
LINE
8
ZJ8_TRUSS_UPPER
10
106770.0
20
-2875.0
30
13271.509441
11
108720.0
21
-2875.0
31
13203.413941
0
LINE
8
ZJ8_TRUSS_UPPER
10
108720.0
20
-2875.0
30
13203.413941
11
110670.0
21
-2875.0
31
13135.31844
0
LINE
8
ZJ8_TRUSS_UPPER
10
110670.0
20
-2875.0
30
13135.31844
11
112620.0
21
-2875.0
31
13067.22294
0
LINE
8
ZJ8_TRUSS_UPPER
10
112620.0
20
-2875.0
30
13067.22294
11
114570.0
21
-2875.0
31
12999.127439
0
LINE
8
ZJ8_TRUSS_UPPER
10
114570.0
20
-2875.0
30
12999.127439
11
116520.0
21
-2875.0
31
12931.031939
0
LINE
8
ZJ8_TRUSS_LOWER
10
77520.0
20
-2875.0
30
12492.941949
11
79470.0
21
-2875.0
31
12424.846448
0
LINE
8
ZJ8_TRUSS_LOWER
10
79470.0
20
-2875.0
30
12424.846448
11
81420.0
21
-2875.0
31
12356.750948
0
LINE
8
ZJ8_TRUSS_LOWER
10
81420.0
20
-2875.0
30
12356.750948
11
83370.0
21
-2875.0
31
12288.655447
0
LINE
8
ZJ8_TRUSS_LOWER
10
83370.0
20
-2875.0
30
12288.655447
11
85320.0
21
-2875.0
31
12220.559947
0
LINE
8
ZJ8_TRUSS_LOWER
10
85320.0
20
-2875.0
30
12220.559947
11
87270.0
21
-2875.0
31
12152.464446
0
LINE
8
ZJ8_TRUSS_LOWER
10
87270.0
20
-2875.0
30
12152.464446
11
89220.0
21
-2875.0
31
12084.368946
0
LINE
8
ZJ8_TRUSS_LOWER
10
89220.0
20
-2875.0
30
12084.368946
11
91170.0
21
-2875.0
31
12016.273445
0
LINE
8
ZJ8_TRUSS_LOWER
10
91170.0
20
-2875.0
30
12016.273445
11
93120.0
21
-2875.0
31
11948.177945
0
LINE
8
ZJ8_TRUSS_LOWER
10
93120.0
20
-2875.0
30
11948.177945
11
95070.0
21
-2875.0
31
11880.082444
0
LINE
8
ZJ8_TRUSS_LOWER
10
95070.0
20
-2875.0
30
11880.082444
11
97020.0
21
-2875.0
31
11811.986944
0
LINE
8
ZJ8_TRUSS_LOWER
10
97020.0
20
-2875.0
30
11811.986944
11
98970.0
21
-2875.0
31
11743.891443
0
LINE
8
ZJ8_TRUSS_LOWER
10
98970.0
20
-2875.0
30
11743.891443
11
100920.0
21
-2875.0
31
11675.795943
0
LINE
8
ZJ8_TRUSS_LOWER
10
100920.0
20
-2875.0
30
11675.795943
11
102870.0
21
-2875.0
31
11607.700442
0
LINE
8
ZJ8_TRUSS_LOWER
10
102870.0
20
-2875.0
30
11607.700442
11
104820.0
21
-2875.0
31
11539.604942
0
LINE
8
ZJ8_TRUSS_LOWER
10
104820.0
20
-2875.0
30
11539.604942
11
106770.0
21
-2875.0
31
11471.509441
0
LINE
8
ZJ8_TRUSS_LOWER
10
106770.0
20
-2875.0
30
11471.509441
11
108720.0
21
-2875.0
31
11403.413941
0
LINE
8
ZJ8_TRUSS_LOWER
10
108720.0
20
-2875.0
30
11403.413941
11
110670.0
21
-2875.0
31
11335.31844
0
LINE
8
ZJ8_TRUSS_LOWER
10
110670.0
20
-2875.0
30
11335.31844
11
112620.0
21
-2875.0
31
11267.22294
0
LINE
8
ZJ8_TRUSS_LOWER
10
112620.0
20
-2875.0
30
11267.22294
11
114570.0
21
-2875.0
31
11199.127439
0
LINE
8
ZJ8_TRUSS_LOWER
10
114570.0
20
-2875.0
30
11199.127439
11
116520.0
21
-2875.0
31
11131.031939
0
LINE
8
ZJ8_TRUSS_VERTICAL
10
79470.0
20
-2875.0
30
14224.846448
11
79470.0
21
-2875.0
31
12424.846448
0
LINE
8
ZJ8_TRUSS_VERTICAL
10
81420.0
20
-2875.0
30
14156.750948
11
81420.0
21
-2875.0
31
12356.750948
0
LINE
8
ZJ8_TRUSS_VERTICAL
10
83370.0
20
-2875.0
30
14088.655447
11
83370.0
21
-2875.0
31
12288.655447
0
LINE
8
ZJ8_TRUSS_VERTICAL
10
85320.0
20
-2875.0
30
14020.559947
11
85320.0
21
-2875.0
31
12220.559947
0
LINE
8
ZJ8_TRUSS_VERTICAL
10
87270.0
20
-2875.0
30
13952.464446
11
87270.0
21
-2875.0
31
12152.464446
0
LINE
8
ZJ8_TRUSS_VERTICAL
10
89220.0
20
-2875.0
30
13884.368946
11
89220.0
21
-2875.0
31
12084.368946
0
LINE
8
ZJ8_TRUSS_VERTICAL
10
91170.0
20
-2875.0
30
13816.273445
11
91170.0
21
-2875.0
31
12016.273445
0
LINE
8
ZJ8_TRUSS_VERTICAL
10
93120.0
20
-2875.0
30
13748.177945
11
93120.0
21
-2875.0
31
11948.177945
0
LINE
8
ZJ8_TRUSS_VERTICAL
10
95070.0
20
-2875.0
30
13680.082444
11
95070.0
21
-2875.0
31
11880.082444
0
LINE
8
ZJ8_TRUSS_VERTICAL
10
97020.0
20
-2875.0
30
13611.986944
11
97020.0
21
-2875.0
31
11811.986944
0
LINE
8
ZJ8_TRUSS_VERTICAL
10
98970.0
20
-2875.0
30
13543.891443
11
98970.0
21
-2875.0
31
11743.891443
0
LINE
8
ZJ8_TRUSS_VERTICAL
10
100920.0
20
-2875.0
30
13475.795943
11
100920.0
21
-2875.0
31
11675.795943
0
LINE
8
ZJ8_TRUSS_VERTICAL
10
102870.0
20
-2875.0
30
13407.700442
11
102870.0
21
-2875.0
31
11607.700442
0
LINE
8
ZJ8_TRUSS_VERTICAL
10
104820.0
20
-2875.0
30
13339.604942
11
104820.0
21
-2875.0
31
11539.604942
0
LINE
8
ZJ8_TRUSS_VERTICAL
10
106770.0
20
-2875.0
30
13271.509441
11
106770.0
21
-2875.0
31
11471.509441
0
LINE
8
ZJ8_TRUSS_VERTICAL
10
108720.0
20
-2875.0
30
13203.413941
11
108720.0
21
-2875.0
31
11403.413941
0
LINE
8
ZJ8_TRUSS_VERTICAL
10
110670.0
20
-2875.0
30
13135.31844
11
110670.0
21
-2875.0
31
11335.31844
0
LINE
8
ZJ8_TRUSS_VERTICAL
10
112620.0
20
-2875.0
30
13067.22294
11
112620.0
21
-2875.0
31
11267.22294
0
LINE
8
ZJ8_TRUSS_VERTICAL
10
114570.0
20
-2875.0
30
12999.127439
11
114570.0
21
-2875.0
31
11199.127439
0
LINE
8
ZJ8_TRUSS_VERTICAL
10
116520.0
20
-2875.0
30
12931.031939
11
116520.0
21
-2875.0
31
11131.031939
0
LINE
8
ZJ8_TRUSS_DIAGONAL
10
77520.0
20
-2875.0
30
12492.941949
11
79470.0
21
-2875.0
31
14224.846448
0
LINE
8
ZJ8_TRUSS_DIAGONAL
10
79470.0
20
-2875.0
30
14224.846448
11
81420.0
21
-2875.0
31
12356.750948
0
LINE
8
ZJ8_TRUSS_DIAGONAL
10
81420.0
20
-2875.0
30
12356.750948
11
83370.0
21
-2875.0
31
14088.655447
0
LINE
8
ZJ8_TRUSS_DIAGONAL
10
83370.0
20
-2875.0
30
14088.655447
11
85320.0
21
-2875.0
31
12220.559947
0
LINE
8
ZJ8_TRUSS_DIAGONAL
10
85320.0
20
-2875.0
30
12220.559947
11
87270.0
21
-2875.0
31
13952.464446
0
LINE
8
ZJ8_TRUSS_DIAGONAL
10
87270.0
20
-2875.0
30
13952.464446
11
89220.0
21
-2875.0
31
12084.368946
0
LINE
8
ZJ8_TRUSS_DIAGONAL
10
89220.0
20
-2875.0
30
12084.368946
11
91170.0
21
-2875.0
31
13816.273445
0
LINE
8
ZJ8_TRUSS_DIAGONAL
10
91170.0
20
-2875.0
30
13816.273445
11
93120.0
21
-2875.0
31
11948.177945
0
LINE
8
ZJ8_TRUSS_DIAGONAL
10
93120.0
20
-2875.0
30
11948.177945
11
95070.0
21
-2875.0
31
13680.082444
0
LINE
8
ZJ8_TRUSS_DIAGONAL
10
95070.0
20
-2875.0
30
13680.082444
11
97020.0
21
-2875.0
31
11811.986944
0
LINE
8
ZJ8_TRUSS_DIAGONAL
10
97020.0
20
-2875.0
30
11811.986944
11
98970.0
21
-2875.0
31
13543.891443
0
LINE
8
ZJ8_TRUSS_DIAGONAL
10
98970.0
20
-2875.0
30
13543.891443
11
100920.0
21
-2875.0
31
11675.795943
0
LINE
8
ZJ8_TRUSS_DIAGONAL
10
100920.0
20
-2875.0
30
11675.795943
11
102870.0
21
-2875.0
31
13407.700442
0
LINE
8
ZJ8_TRUSS_DIAGONAL
10
102870.0
20
-2875.0
30
13407.700442
11
104820.0
21
-2875.0
31
11539.604942
0
LINE
8
ZJ8_TRUSS_DIAGONAL
10
104820.0
20
-2875.0
30
11539.604942
11
106770.0
21
-2875.0
31
13271.509441
0
LINE
8
ZJ8_TRUSS_DIAGONAL
10
106770.0
20
-2875.0
30
13271.509441
11
108720.0
21
-2875.0
31
11403.413941
0
LINE
8
ZJ8_TRUSS_DIAGONAL
10
108720.0
20
-2875.0
30
11403.413941
11
110670.0
21
-2875.0
31
13135.31844
0
LINE
8
ZJ8_TRUSS_DIAGONAL
10
110670.0
20
-2875.0
30
13135.31844
11
112620.0
21
-2875.0
31
11267.22294
0
LINE
8
ZJ8_TRUSS_DIAGONAL
10
112620.0
20
-2875.0
30
11267.22294
11
114570.0
21
-2875.0
31
12999.127439
0
LINE
8
ZJ8_TRUSS_DIAGONAL
10
114570.0
20
-2875.0
30
12999.127439
11
116520.0
21
-2875.0
31
11131.031939
0
LINE
8
ZJ8_TRUSS_UPPER
10
77520.0
20
2875.0
30
14292.941949
11
79470.0
21
2875.0
31
14224.846448
0
LINE
8
ZJ8_TRUSS_UPPER
10
79470.0
20
2875.0
30
14224.846448
11
81420.0
21
2875.0
31
14156.750948
0
LINE
8
ZJ8_TRUSS_UPPER
10
81420.0
20
2875.0
30
14156.750948
11
83370.0
21
2875.0
31
14088.655447
0
LINE
8
ZJ8_TRUSS_UPPER
10
83370.0
20
2875.0
30
14088.655447
11
85320.0
21
2875.0
31
14020.559947
0
LINE
8
ZJ8_TRUSS_UPPER
10
85320.0
20
2875.0
30
14020.559947
11
87270.0
21
2875.0
31
13952.464446
0
LINE
8
ZJ8_TRUSS_UPPER
10
87270.0
20
2875.0
30
13952.464446
11
89220.0
21
2875.0
31
13884.368946
0
LINE
8
ZJ8_TRUSS_UPPER
10
89220.0
20
2875.0
30
13884.368946
11
91170.0
21
2875.0
31
13816.273445
0
LINE
8
ZJ8_TRUSS_UPPER
10
91170.0
20
2875.0
30
13816.273445
11
93120.0
21
2875.0
31
13748.177945
0
LINE
8
ZJ8_TRUSS_UPPER
10
93120.0
20
2875.0
30
13748.177945
11
95070.0
21
2875.0
31
13680.082444
0
LINE
8
ZJ8_TRUSS_UPPER
10
95070.0
20
2875.0
30
13680.082444
11
97020.0
21
2875.0
31
13611.986944
0
LINE
8
ZJ8_TRUSS_UPPER
10
97020.0
20
2875.0
30
13611.986944
11
98970.0
21
2875.0
31
13543.891443
0
LINE
8
ZJ8_TRUSS_UPPER
10
98970.0
20
2875.0
30
13543.891443
11
100920.0
21
2875.0
31
13475.795943
0
LINE
8
ZJ8_TRUSS_UPPER
10
100920.0
20
2875.0
30
13475.795943
11
102870.0
21
2875.0
31
13407.700442
0
LINE
8
ZJ8_TRUSS_UPPER
10
102870.0
20
2875.0
30
13407.700442
11
104820.0
21
2875.0
31
13339.604942
0
LINE
8
ZJ8_TRUSS_UPPER
10
104820.0
20
2875.0
30
13339.604942
11
106770.0
21
2875.0
31
13271.509441
0
LINE
8
ZJ8_TRUSS_UPPER
10
106770.0
20
2875.0
30
13271.509441
11
108720.0
21
2875.0
31
13203.413941
0
LINE
8
ZJ8_TRUSS_UPPER
10
108720.0
20
2875.0
30
13203.413941
11
110670.0
21
2875.0
31
13135.31844
0
LINE
8
ZJ8_TRUSS_UPPER
10
110670.0
20
2875.0
30
13135.31844
11
112620.0
21
2875.0
31
13067.22294
0
LINE
8
ZJ8_TRUSS_UPPER
10
112620.0
20
2875.0
30
13067.22294
11
114570.0
21
2875.0
31
12999.127439
0
LINE
8
ZJ8_TRUSS_UPPER
10
114570.0
20
2875.0
30
12999.127439
11
116520.0
21
2875.0
31
12931.031939
0
LINE
8
ZJ8_TRUSS_LOWER
10
77520.0
20
2875.0
30
12492.941949
11
79470.0
21
2875.0
31
12424.846448
0
LINE
8
ZJ8_TRUSS_LOWER
10
79470.0
20
2875.0
30
12424.846448
11
81420.0
21
2875.0
31
12356.750948
0
LINE
8
ZJ8_TRUSS_LOWER
10
81420.0
20
2875.0
30
12356.750948
11
83370.0
21
2875.0
31
12288.655447
0
LINE
8
ZJ8_TRUSS_LOWER
10
83370.0
20
2875.0
30
12288.655447
11
85320.0
21
2875.0
31
12220.559947
0
LINE
8
ZJ8_TRUSS_LOWER
10
85320.0
20
2875.0
30
12220.559947
11
87270.0
21
2875.0
31
12152.464446
0
LINE
8
ZJ8_TRUSS_LOWER
10
87270.0
20
2875.0
30
12152.464446
11
89220.0
21
2875.0
31
12084.368946
0
LINE
8
ZJ8_TRUSS_LOWER
10
89220.0
20
2875.0
30
12084.368946
11
91170.0
21
2875.0
31
12016.273445
0
LINE
8
ZJ8_TRUSS_LOWER
10
91170.0
20
2875.0
30
12016.273445
11
93120.0
21
2875.0
31
11948.177945
0
LINE
8
ZJ8_TRUSS_LOWER
10
93120.0
20
2875.0
30
11948.177945
11
95070.0
21
2875.0
31
11880.082444
0
LINE
8
ZJ8_TRUSS_LOWER
10
95070.0
20
2875.0
30
11880.082444
11
97020.0
21
2875.0
31
11811.986944
0
LINE
8
ZJ8_TRUSS_LOWER
10
97020.0
20
2875.0
30
11811.986944
11
98970.0
21
2875.0
31
11743.891443
0
LINE
8
ZJ8_TRUSS_LOWER
10
98970.0
20
2875.0
30
11743.891443
11
100920.0
21
2875.0
31
11675.795943
0
LINE
8
ZJ8_TRUSS_LOWER
10
100920.0
20
2875.0
30
11675.795943
11
102870.0
21
2875.0
31
11607.700442
0
LINE
8
ZJ8_TRUSS_LOWER
10
102870.0
20
2875.0
30
11607.700442
11
104820.0
21
2875.0
31
11539.604942
0
LINE
8
ZJ8_TRUSS_LOWER
10
104820.0
20
2875.0
30
11539.604942
11
106770.0
21
2875.0
31
11471.509441
0
LINE
8
ZJ8_TRUSS_LOWER
10
106770.0
20
2875.0
30
11471.509441
11
108720.0
21
2875.0
31
11403.413941
0
LINE
8
ZJ8_TRUSS_LOWER
10
108720.0
20
2875.0
30
11403.413941
11
110670.0
21
2875.0
31
11335.31844
0
LINE
8
ZJ8_TRUSS_LOWER
10
110670.0
20
2875.0
30
11335.31844
11
112620.0
21
2875.0
31
11267.22294
0
LINE
8
ZJ8_TRUSS_LOWER
10
112620.0
20
2875.0
30
11267.22294
11
114570.0
21
2875.0
31
11199.127439
0
LINE
8
ZJ8_TRUSS_LOWER
10
114570.0
20
2875.0
30
11199.127439
11
116520.0
21
2875.0
31
11131.031939
0
LINE
8
ZJ8_TRUSS_VERTICAL
10
79470.0
20
2875.0
30
14224.846448
11
79470.0
21
2875.0
31
12424.846448
0
LINE
8
ZJ8_TRUSS_VERTICAL
10
81420.0
20
2875.0
30
14156.750948
11
81420.0
21
2875.0
31
12356.750948
0
LINE
8
ZJ8_TRUSS_VERTICAL
10
83370.0
20
2875.0
30
14088.655447
11
83370.0
21
2875.0
31
12288.655447
0
LINE
8
ZJ8_TRUSS_VERTICAL
10
85320.0
20
2875.0
30
14020.559947
11
85320.0
21
2875.0
31
12220.559947
0
LINE
8
ZJ8_TRUSS_VERTICAL
10
87270.0
20
2875.0
30
13952.464446
11
87270.0
21
2875.0
31
12152.464446
0
LINE
8
ZJ8_TRUSS_VERTICAL
10
89220.0
20
2875.0
30
13884.368946
11
89220.0
21
2875.0
31
12084.368946
0
LINE
8
ZJ8_TRUSS_VERTICAL
10
91170.0
20
2875.0
30
13816.273445
11
91170.0
21
2875.0
31
12016.273445
0
LINE
8
ZJ8_TRUSS_VERTICAL
10
93120.0
20
2875.0
30
13748.177945
11
93120.0
21
2875.0
31
11948.177945
0
LINE
8
ZJ8_TRUSS_VERTICAL
10
95070.0
20
2875.0
30
13680.082444
11
95070.0
21
2875.0
31
11880.082444
0
LINE
8
ZJ8_TRUSS_VERTICAL
10
97020.0
20
2875.0
30
13611.986944
11
97020.0
21
2875.0
31
11811.986944
0
LINE
8
ZJ8_TRUSS_VERTICAL
10
98970.0
20
2875.0
30
13543.891443
11
98970.0
21
2875.0
31
11743.891443
0
LINE
8
ZJ8_TRUSS_VERTICAL
10
100920.0
20
2875.0
30
13475.795943
11
100920.0
21
2875.0
31
11675.795943
0
LINE
8
ZJ8_TRUSS_VERTICAL
10
102870.0
20
2875.0
30
13407.700442
11
102870.0
21
2875.0
31
11607.700442
0
LINE
8
ZJ8_TRUSS_VERTICAL
10
104820.0
20
2875.0
30
13339.604942
11
104820.0
21
2875.0
31
11539.604942
0
LINE
8
ZJ8_TRUSS_VERTICAL
10
106770.0
20
2875.0
30
13271.509441
11
106770.0
21
2875.0
31
11471.509441
0
LINE
8
ZJ8_TRUSS_VERTICAL
10
108720.0
20
2875.0
30
13203.413941
11
108720.0
21
2875.0
31
11403.413941
0
LINE
8
ZJ8_TRUSS_VERTICAL
10
110670.0
20
2875.0
30
13135.31844
11
110670.0
21
2875.0
31
11335.31844
0
LINE
8
ZJ8_TRUSS_VERTICAL
10
112620.0
20
2875.0
30
13067.22294
11
112620.0
21
2875.0
31
11267.22294
0
LINE
8
ZJ8_TRUSS_VERTICAL
10
114570.0
20
2875.0
30
12999.127439
11
114570.0
21
2875.0
31
11199.127439
0
LINE
8
ZJ8_TRUSS_VERTICAL
10
116520.0
20
2875.0
30
12931.031939
11
116520.0
21
2875.0
31
11131.031939
0
LINE
8
ZJ8_TRUSS_DIAGONAL
10
77520.0
20
2875.0
30
12492.941949
11
79470.0
21
2875.0
31
14224.846448
0
LINE
8
ZJ8_TRUSS_DIAGONAL
10
79470.0
20
2875.0
30
14224.846448
11
81420.0
21
2875.0
31
12356.750948
0
LINE
8
ZJ8_TRUSS_DIAGONAL
10
81420.0
20
2875.0
30
12356.750948
11
83370.0
21
2875.0
31
14088.655447
0
LINE
8
ZJ8_TRUSS_DIAGONAL
10
83370.0
20
2875.0
30
14088.655447
11
85320.0
21
2875.0
31
12220.559947
0
LINE
8
ZJ8_TRUSS_DIAGONAL
10
85320.0
20
2875.0
30
12220.559947
11
87270.0
21
2875.0
31
13952.464446
0
LINE
8
ZJ8_TRUSS_DIAGONAL
10
87270.0
20
2875.0
30
13952.464446
11
89220.0
21
2875.0
31
12084.368946
0
LINE
8
ZJ8_TRUSS_DIAGONAL
10
89220.0
20
2875.0
30
12084.368946
11
91170.0
21
2875.0
31
13816.273445
0
LINE
8
ZJ8_TRUSS_DIAGONAL
10
91170.0
20
2875.0
30
13816.273445
11
93120.0
21
2875.0
31
11948.177945
0
LINE
8
ZJ8_TRUSS_DIAGONAL
10
93120.0
20
2875.0
30
11948.177945
11
95070.0
21
2875.0
31
13680.082444
0
LINE
8
ZJ8_TRUSS_DIAGONAL
10
95070.0
20
2875.0
30
13680.082444
11
97020.0
21
2875.0
31
11811.986944
0
LINE
8
ZJ8_TRUSS_DIAGONAL
10
97020.0
20
2875.0
30
11811.986944
11
98970.0
21
2875.0
31
13543.891443
0
LINE
8
ZJ8_TRUSS_DIAGONAL
10
98970.0
20
2875.0
30
13543.891443
11
100920.0
21
2875.0
31
11675.795943
0
LINE
8
ZJ8_TRUSS_DIAGONAL
10
100920.0
20
2875.0
30
11675.795943
11
102870.0
21
2875.0
31
13407.700442
0
LINE
8
ZJ8_TRUSS_DIAGONAL
10
102870.0
20
2875.0
30
13407.700442
11
104820.0
21
2875.0
31
11539.604942
0
LINE
8
ZJ8_TRUSS_DIAGONAL
10
104820.0
20
2875.0
30
11539.604942
11
106770.0
21
2875.0
31
13271.509441
0
LINE
8
ZJ8_TRUSS_DIAGONAL
10
106770.0
20
2875.0
30
13271.509441
11
108720.0
21
2875.0
31
11403.413941
0
LINE
8
ZJ8_TRUSS_DIAGONAL
10
108720.0
20
2875.0
30
11403.413941
11
110670.0
21
2875.0
31
13135.31844
0
LINE
8
ZJ8_TRUSS_DIAGONAL
10
110670.0
20
2875.0
30
13135.31844
11
112620.0
21
2875.0
31
11267.22294
0
LINE
8
ZJ8_TRUSS_DIAGONAL
10
112620.0
20
2875.0
30
11267.22294
11
114570.0
21
2875.0
31
12999.127439
0
LINE
8
ZJ8_TRUSS_DIAGONAL
10
114570.0
20
2875.0
30
12999.127439
11
116520.0
21
2875.0
31
11131.031939
0
LINE
8
ZJ8_DECK_MAIN
10
116520.0
20
-2875.0
30
12931.031939
11
119520.0
21
-2875.0
31
12826.26963
0
LINE
8
ZJ8_DECK_MAIN
10
116520.0
20
2875.0
30
12931.031939
11
119520.0
21
2875.0
31
12826.26963
0
LINE
8
ZJ8_DECK_SECONDARY
10
116520.0
20
-1075.0
30
12931.031939
11
119520.0
21
-1075.0
31
12826.26963
0
LINE
8
ZJ8_DECK_SECONDARY
10
116520.0
20
1075.0
30
12931.031939
11
119520.0
21
1075.0
31
12826.26963
0
LINE
8
ZJ8_CANTILEVER_EDGE
10
116520.0
20
-2200.0
30
12931.031939
11
119520.0
21
-2200.0
31
12826.26963
0
LINE
8
ZJ8_CANTILEVER_EDGE
10
116520.0
20
2700.0
30
12931.031939
11
119520.0
21
2700.0
31
12826.26963
0
LINE
8
ZJ8_PLATFORM_BRACE
10
116520.0
20
-2875.0
30
12931.031939
11
119520.0
21
2875.0
31
12826.26963
0
LINE
8
ZJ8_LONGITUDINAL_BRACE
10
116520.0
20
-2875.0
30
0.0
11
119520.0
21
-2875.0
31
12826.26963
0
LINE
8
ZJ8_LONGITUDINAL_BRACE
10
116520.0
20
2875.0
30
0.0
11
119520.0
21
2875.0
31
12826.26963
0
ENDSEC
0
EOF
