0
SECTION
2
HEADER
9
$INSUNITS
70
4
0
ENDSEC
0
SECTION
2
TABLES
0
TABLE
2
LAYER
70
12
0
LAYER
2
ZJ8_DECK_MAIN
70
0
62
4
6
CONTINUOUS
0
LAYER
2
ZJ8_DECK_CROSS
70
0
62
4
6
CONTINUOUS
0
LAYER
2
ZJ8_DECK_SECONDARY
70
0
62
3
6
CONTINUOUS
0
LAYER
2
ZJ8_CANTILEVER_EDGE
70
0
62
3
6
CONTINUOUS
0
LAYER
2
ZJ8_PLATFORM_BRACE
70
0
62
1
6
CONTINUOUS
0
LAYER
2
ZJ8_COLUMN
70
0
62
8
6
CONTINUOUS
0
LAYER
2
ZJ8_TRANSVERSE_BRACE
70
0
62
1
6
CONTINUOUS
0
LAYER
2
ZJ8_LONGITUDINAL_BRACE
70
0
62
1
6
CONTINUOUS
0
LAYER
2
ZJ8_TRUSS_UPPER
70
0
62
5
6
CONTINUOUS
0
LAYER
2
ZJ8_TRUSS_LOWER
70
0
62
5
6
CONTINUOUS
0
LAYER
2
ZJ8_TRUSS_VERTICAL
70
0
62
5
6
CONTINUOUS
0
LAYER
2
ZJ8_TRUSS_DIAGONAL
70
0
62
5
6
CONTINUOUS
0
ENDTAB
0
ENDSEC
0
SECTION
2
ENTITIES
0
LINE
8
ZJ8_COLUMN
10
116520.0
20
-2875.0
30
0.0
11
116520.0
21
-2875.0
31
4743.700186
0
LINE
8
ZJ8_COLUMN
10
116520.0
20
-2875.0
30
4743.700186
11
116520.0
21
-2875.0
31
9487.400371
0
LINE
8
ZJ8_COLUMN
10
116520.0
20
-2875.0
30
9487.400371
11
116520.0
21
-2875.0
31
14231.100557
0
LINE
8
ZJ8_COLUMN
10
116520.0
20
-2875.0
30
14231.100557
11
116520.0
21
-2875.0
31
18974.800742
0
LINE
8
ZJ8_COLUMN
10
116520.0
20
-2875.0
30
18974.800742
11
116520.0
21
-2875.0
31
23718.500928
0
LINE
8
ZJ8_COLUMN
10
116520.0
20
2875.0
30
0.0
11
116520.0
21
2875.0
31
4743.700186
0
LINE
8
ZJ8_COLUMN
10
116520.0
20
2875.0
30
4743.700186
11
116520.0
21
2875.0
31
9487.400371
0
LINE
8
ZJ8_COLUMN
10
116520.0
20
2875.0
30
9487.400371
11
116520.0
21
2875.0
31
14231.100557
0
LINE
8
ZJ8_COLUMN
10
116520.0
20
2875.0
30
14231.100557
11
116520.0
21
2875.0
31
18974.800742
0
LINE
8
ZJ8_COLUMN
10
116520.0
20
2875.0
30
18974.800742
11
116520.0
21
2875.0
31
23718.500928
0
LINE
8
ZJ8_DECK_CROSS
10
116520.0
20
-2200.0
30
23718.500928
11
116520.0
21
2700.0
31
23718.500928
0
LINE
8
ZJ8_TRANSVERSE_BRACE
10
116520.0
20
-2875.0
30
0.0
11
116520.0
21
2875.0
31
23718.500928
0
LINE
8
ZJ8_TRANSVERSE_BRACE
10
116520.0
20
2875.0
30
0.0
11
116520.0
21
-2875.0
31
23718.500928
0
LINE
8
ZJ8_COLUMN
10
119520.0
20
-2875.0
30
0.0
11
119520.0
21
-2875.0
31
4778.295968
0
LINE
8
ZJ8_COLUMN
10
119520.0
20
-2875.0
30
4778.295968
11
119520.0
21
-2875.0
31
9556.591936
0
LINE
8
ZJ8_COLUMN
10
119520.0
20
-2875.0
30
9556.591936
11
119520.0
21
-2875.0
31
14334.887904
0
LINE
8
ZJ8_COLUMN
10
119520.0
20
-2875.0
30
14334.887904
11
119520.0
21
-2875.0
31
19113.183872
0
LINE
8
ZJ8_COLUMN
10
119520.0
20
-2875.0
30
19113.183872
11
119520.0
21
-2875.0
31
23891.47984
0
LINE
8
ZJ8_COLUMN
10
119520.0
20
2875.0
30
0.0
11
119520.0
21
2875.0
31
4778.295968
0
LINE
8
ZJ8_COLUMN
10
119520.0
20
2875.0
30
4778.295968
11
119520.0
21
2875.0
31
9556.591936
0
LINE
8
ZJ8_COLUMN
10
119520.0
20
2875.0
30
9556.591936
11
119520.0
21
2875.0
31
14334.887904
0
LINE
8
ZJ8_COLUMN
10
119520.0
20
2875.0
30
14334.887904
11
119520.0
21
2875.0
31
19113.183872
0
LINE
8
ZJ8_COLUMN
10
119520.0
20
2875.0
30
19113.183872
11
119520.0
21
2875.0
31
23891.47984
0
LINE
8
ZJ8_DECK_CROSS
10
119520.0
20
-2200.0
30
23891.47984
11
119520.0
21
2700.0
31
23891.47984
0
LINE
8
ZJ8_TRANSVERSE_BRACE
10
119520.0
20
-2875.0
30
0.0
11
119520.0
21
2875.0
31
23891.47984
0
LINE
8
ZJ8_TRANSVERSE_BRACE
10
119520.0
20
2875.0
30
0.0
11
119520.0
21
-2875.0
31
23891.47984
0
LINE
8
ZJ8_DECK_MAIN
10
80520.0
20
-2875.0
30
21642.753988
11
83520.0
21
-2875.0
31
21815.7329
0
LINE
8
ZJ8_DECK_MAIN
10
83520.0
20
-2875.0
30
21815.7329
11
86520.0
21
-2875.0
31
21988.711812
0
LINE
8
ZJ8_DECK_MAIN
10
86520.0
20
-2875.0
30
21988.711812
11
89520.0
21
-2875.0
31
22161.690723
0
LINE
8
ZJ8_DECK_MAIN
10
89520.0
20
-2875.0
30
22161.690723
11
92520.0
21
-2875.0
31
22334.669635
0
LINE
8
ZJ8_DECK_MAIN
10
92520.0
20
-2875.0
30
22334.669635
11
95520.0
21
-2875.0
31
22507.648546
0
LINE
8
ZJ8_DECK_MAIN
10
95520.0
20
-2875.0
30
22507.648546
11
98520.0
21
-2875.0
31
22680.627458
0
LINE
8
ZJ8_DECK_MAIN
10
98520.0
20
-2875.0
30
22680.627458
11
101520.0
21
-2875.0
31
22853.60637
0
LINE
8
ZJ8_DECK_MAIN
10
101520.0
20
-2875.0
30
22853.60637
11
104520.0
21
-2875.0
31
23026.585281
0
LINE
8
ZJ8_DECK_MAIN
10
104520.0
20
-2875.0
30
23026.585281
11
107520.0
21
-2875.0
31
23199.564193
0
LINE
8
ZJ8_DECK_MAIN
10
107520.0
20
-2875.0
30
23199.564193
11
110520.0
21
-2875.0
31
23372.543105
0
LINE
8
ZJ8_DECK_MAIN
10
110520.0
20
-2875.0
30
23372.543105
11
113520.0
21
-2875.0
31
23545.522016
0
LINE
8
ZJ8_DECK_MAIN
10
113520.0
20
-2875.0
30
23545.522016
11
116520.0
21
-2875.0
31
23718.500928
0
LINE
8
ZJ8_DECK_MAIN
10
80520.0
20
2875.0
30
21642.753988
11
83520.0
21
2875.0
31
21815.7329
0
LINE
8
ZJ8_DECK_MAIN
10
83520.0
20
2875.0
30
21815.7329
11
86520.0
21
2875.0
31
21988.711812
0
LINE
8
ZJ8_DECK_MAIN
10
86520.0
20
2875.0
30
21988.711812
11
89520.0
21
2875.0
31
22161.690723
0
LINE
8
ZJ8_DECK_MAIN
10
89520.0
20
2875.0
30
22161.690723
11
92520.0
21
2875.0
31
22334.669635
0
LINE
8
ZJ8_DECK_MAIN
10
92520.0
20
2875.0
30
22334.669635
11
95520.0
21
2875.0
31
22507.648546
0
LINE
8
ZJ8_DECK_MAIN
10
95520.0
20
2875.0
30
22507.648546
11
98520.0
21
2875.0
31
22680.627458
0
LINE
8
ZJ8_DECK_MAIN
10
98520.0
20
2875.0
30
22680.627458
11
101520.0
21
2875.0
31
22853.60637
0
LINE
8
ZJ8_DECK_MAIN
10
101520.0
20
2875.0
30
22853.60637
11
104520.0
21
2875.0
31
23026.585281
0
LINE
8
ZJ8_DECK_MAIN
10
104520.0
20
2875.0
30
23026.585281
11
107520.0
21
2875.0
31
23199.564193
0
LINE
8
ZJ8_DECK_MAIN
10
107520.0
20
2875.0
30
23199.564193
11
110520.0
21
2875.0
31
23372.543105
0
LINE
8
ZJ8_DECK_MAIN
10
110520.0
20
2875.0
30
23372.543105
11
113520.0
21
2875.0
31
23545.522016
0
LINE
8
ZJ8_DECK_MAIN
10
113520.0
20
2875.0
30
23545.522016
11
116520.0
21
2875.0
31
23718.500928
0
LINE
8
ZJ8_DECK_CROSS
10
80520.0
20
-2200.0
30
21642.753988
11
80520.0
21
2700.0
31
21642.753988
0
LINE
8
ZJ8_DECK_CROSS
10
83520.0
20
-2200.0
30
21815.7329
11
83520.0
21
2700.0
31
21815.7329
0
LINE
8
ZJ8_DECK_CROSS
10
86520.0
20
-2200.0
30
21988.711812
11
86520.0
21
2700.0
31
21988.711812
0
LINE
8
ZJ8_DECK_CROSS
10
89520.0
20
-2200.0
30
22161.690723
11
89520.0
21
2700.0
31
22161.690723
0
LINE
8
ZJ8_DECK_CROSS
10
92520.0
20
-2200.0
30
22334.669635
11
92520.0
21
2700.0
31
22334.669635
0
LINE
8
ZJ8_DECK_CROSS
10
95520.0
20
-2200.0
30
22507.648546
11
95520.0
21
2700.0
31
22507.648546
0
LINE
8
ZJ8_DECK_CROSS
10
98520.0
20
-2200.0
30
22680.627458
11
98520.0
21
2700.0
31
22680.627458
0
LINE
8
ZJ8_DECK_CROSS
10
101520.0
20
-2200.0
30
22853.60637
11
101520.0
21
2700.0
31
22853.60637
0
LINE
8
ZJ8_DECK_CROSS
10
104520.0
20
-2200.0
30
23026.585281
11
104520.0
21
2700.0
31
23026.585281
0
LINE
8
ZJ8_DECK_CROSS
10
107520.0
20
-2200.0
30
23199.564193
11
107520.0
21
2700.0
31
23199.564193
0
LINE
8
ZJ8_DECK_CROSS
10
110520.0
20
-2200.0
30
23372.543105
11
110520.0
21
2700.0
31
23372.543105
0
LINE
8
ZJ8_DECK_CROSS
10
113520.0
20
-2200.0
30
23545.522016
11
113520.0
21
2700.0
31
23545.522016
0
LINE
8
ZJ8_DECK_SECONDARY
10
80520.0
20
-1075.0
30
21642.753988
11
83520.0
21
-1075.0
31
21815.7329
0
LINE
8
ZJ8_DECK_SECONDARY
10
83520.0
20
-1075.0
30
21815.7329
11
86520.0
21
-1075.0
31
21988.711812
0
LINE
8
ZJ8_DECK_SECONDARY
10
86520.0
20
-1075.0
30
21988.711812
11
89520.0
21
-1075.0
31
22161.690723
0
LINE
8
ZJ8_DECK_SECONDARY
10
89520.0
20
-1075.0
30
22161.690723
11
92520.0
21
-1075.0
31
22334.669635
0
LINE
8
ZJ8_DECK_SECONDARY
10
92520.0
20
-1075.0
30
22334.669635
11
95520.0
21
-1075.0
31
22507.648546
0
LINE
8
ZJ8_DECK_SECONDARY
10
95520.0
20
-1075.0
30
22507.648546
11
98520.0
21
-1075.0
31
22680.627458
0
LINE
8
ZJ8_DECK_SECONDARY
10
98520.0
20
-1075.0
30
22680.627458
11
101520.0
21
-1075.0
31
22853.60637
0
LINE
8
ZJ8_DECK_SECONDARY
10
101520.0
20
-1075.0
30
22853.60637
11
104520.0
21
-1075.0
31
23026.585281
0
LINE
8
ZJ8_DECK_SECONDARY
10
104520.0
20
-1075.0
30
23026.585281
11
107520.0
21
-1075.0
31
23199.564193
0
LINE
8
ZJ8_DECK_SECONDARY
10
107520.0
20
-1075.0
30
23199.564193
11
110520.0
21
-1075.0
31
23372.543105
0
LINE
8
ZJ8_DECK_SECONDARY
10
110520.0
20
-1075.0
30
23372.543105
11
113520.0
21
-1075.0
31
23545.522016
0
LINE
8
ZJ8_DECK_SECONDARY
10
113520.0
20
-1075.0
30
23545.522016
11
116520.0
21
-1075.0
31
23718.500928
0
LINE
8
ZJ8_DECK_SECONDARY
10
80520.0
20
1075.0
30
21642.753988
11
83520.0
21
1075.0
31
21815.7329
0
LINE
8
ZJ8_DECK_SECONDARY
10
83520.0
20
1075.0
30
21815.7329
11
86520.0
21
1075.0
31
21988.711812
0
LINE
8
ZJ8_DECK_SECONDARY
10
86520.0
20
1075.0
30
21988.711812
11
89520.0
21
1075.0
31
22161.690723
0
LINE
8
ZJ8_DECK_SECONDARY
10
89520.0
20
1075.0
30
22161.690723
11
92520.0
21
1075.0
31
22334.669635
0
LINE
8
ZJ8_DECK_SECONDARY
10
92520.0
20
1075.0
30
22334.669635
11
95520.0
21
1075.0
31
22507.648546
0
LINE
8
ZJ8_DECK_SECONDARY
10
95520.0
20
1075.0
30
22507.648546
11
98520.0
21
1075.0
31
22680.627458
0
LINE
8
ZJ8_DECK_SECONDARY
10
98520.0
20
1075.0
30
22680.627458
11
101520.0
21
1075.0
31
22853.60637
0
LINE
8
ZJ8_DECK_SECONDARY
10
101520.0
20
1075.0
30
22853.60637
11
104520.0
21
1075.0
31
23026.585281
0
LINE
8
ZJ8_DECK_SECONDARY
10
104520.0
20
1075.0
30
23026.585281
11
107520.0
21
1075.0
31
23199.564193
0
LINE
8
ZJ8_DECK_SECONDARY
10
107520.0
20
1075.0
30
23199.564193
11
110520.0
21
1075.0
31
23372.543105
0
LINE
8
ZJ8_DECK_SECONDARY
10
110520.0
20
1075.0
30
23372.543105
11
113520.0
21
1075.0
31
23545.522016
0
LINE
8
ZJ8_DECK_SECONDARY
10
113520.0
20
1075.0
30
23545.522016
11
116520.0
21
1075.0
31
23718.500928
0
LINE
8
ZJ8_CANTILEVER_EDGE
10
80520.0
20
-2200.0
30
21642.753988
11
83520.0
21
-2200.0
31
21815.7329
0
LINE
8
ZJ8_CANTILEVER_EDGE
10
83520.0
20
-2200.0
30
21815.7329
11
86520.0
21
-2200.0
31
21988.711812
0
LINE
8
ZJ8_CANTILEVER_EDGE
10
86520.0
20
-2200.0
30
21988.711812
11
89520.0
21
-2200.0
31
22161.690723
0
LINE
8
ZJ8_CANTILEVER_EDGE
10
89520.0
20
-2200.0
30
22161.690723
11
92520.0
21
-2200.0
31
22334.669635
0
LINE
8
ZJ8_CANTILEVER_EDGE
10
92520.0
20
-2200.0
30
22334.669635
11
95520.0
21
-2200.0
31
22507.648546
0
LINE
8
ZJ8_CANTILEVER_EDGE
10
95520.0
20
-2200.0
30
22507.648546
11
98520.0
21
-2200.0
31
22680.627458
0
LINE
8
ZJ8_CANTILEVER_EDGE
10
98520.0
20
-2200.0
30
22680.627458
11
101520.0
21
-2200.0
31
22853.60637
0
LINE
8
ZJ8_CANTILEVER_EDGE
10
101520.0
20
-2200.0
30
22853.60637
11
104520.0
21
-2200.0
31
23026.585281
0
LINE
8
ZJ8_CANTILEVER_EDGE
10
104520.0
20
-2200.0
30
23026.585281
11
107520.0
21
-2200.0
31
23199.564193
0
LINE
8
ZJ8_CANTILEVER_EDGE
10
107520.0
20
-2200.0
30
23199.564193
11
110520.0
21
-2200.0
31
23372.543105
0
LINE
8
ZJ8_CANTILEVER_EDGE
10
110520.0
20
-2200.0
30
23372.543105
11
113520.0
21
-2200.0
31
23545.522016
0
LINE
8
ZJ8_CANTILEVER_EDGE
10
113520.0
20
-2200.0
30
23545.522016
11
116520.0
21
-2200.0
31
23718.500928
0
LINE
8
ZJ8_CANTILEVER_EDGE
10
80520.0
20
2700.0
30
21642.753988
11
83520.0
21
2700.0
31
21815.7329
0
LINE
8
ZJ8_CANTILEVER_EDGE
10
83520.0
20
2700.0
30
21815.7329
11
86520.0
21
2700.0
31
21988.711812
0
LINE
8
ZJ8_CANTILEVER_EDGE
10
86520.0
20
2700.0
30
21988.711812
11
89520.0
21
2700.0
31
22161.690723
0
LINE
8
ZJ8_CANTILEVER_EDGE
10
89520.0
20
2700.0
30
22161.690723
11
92520.0
21
2700.0
31
22334.669635
0
LINE
8
ZJ8_CANTILEVER_EDGE
10
92520.0
20
2700.0
30
22334.669635
11
95520.0
21
2700.0
31
22507.648546
0
LINE
8
ZJ8_CANTILEVER_EDGE
10
95520.0
20
2700.0
30
22507.648546
11
98520.0
21
2700.0
31
22680.627458
0
LINE
8
ZJ8_CANTILEVER_EDGE
10
98520.0
20
2700.0
30
22680.627458
11
101520.0
21
2700.0
31
22853.60637
0
LINE
8
ZJ8_CANTILEVER_EDGE
10
101520.0
20
2700.0
30
22853.60637
11
104520.0
21
2700.0
31
23026.585281
0
LINE
8
ZJ8_CANTILEVER_EDGE
10
104520.0
20
2700.0
30
23026.585281
11
107520.0
21
2700.0
31
23199.564193
0
LINE
8
ZJ8_CANTILEVER_EDGE
10
107520.0
20
2700.0
30
23199.564193
11
110520.0
21
2700.0
31
23372.543105
0
LINE
8
ZJ8_CANTILEVER_EDGE
10
110520.0
20
2700.0
30
23372.543105
11
113520.0
21
2700.0
31
23545.522016
0
LINE
8
ZJ8_CANTILEVER_EDGE
10
113520.0
20
2700.0
30
23545.522016
11
116520.0
21
2700.0
31
23718.500928
0
LINE
8
ZJ8_PLATFORM_BRACE
10
80520.0
20
2875.0
30
21642.753988
11
83520.0
21
-2875.0
31
21815.7329
0
LINE
8
ZJ8_PLATFORM_BRACE
10
83520.0
20
-2875.0
30
21815.7329
11
86520.0
21
2875.0
31
21988.711812
0
LINE
8
ZJ8_PLATFORM_BRACE
10
86520.0
20
2875.0
30
21988.711812
11
89520.0
21
-2875.0
31
22161.690723
0
LINE
8
ZJ8_PLATFORM_BRACE
10
89520.0
20
-2875.0
30
22161.690723
11
92520.0
21
2875.0
31
22334.669635
0
LINE
8
ZJ8_PLATFORM_BRACE
10
92520.0
20
2875.0
30
22334.669635
11
95520.0
21
-2875.0
31
22507.648546
0
LINE
8
ZJ8_PLATFORM_BRACE
10
95520.0
20
-2875.0
30
22507.648546
11
98520.0
21
2875.0
31
22680.627458
0
LINE
8
ZJ8_PLATFORM_BRACE
10
98520.0
20
2875.0
30
22680.627458
11
101520.0
21
-2875.0
31
22853.60637
0
LINE
8
ZJ8_PLATFORM_BRACE
10
101520.0
20
-2875.0
30
22853.60637
11
104520.0
21
2875.0
31
23026.585281
0
LINE
8
ZJ8_PLATFORM_BRACE
10
104520.0
20
2875.0
30
23026.585281
11
107520.0
21
-2875.0
31
23199.564193
0
LINE
8
ZJ8_PLATFORM_BRACE
10
107520.0
20
-2875.0
30
23199.564193
11
110520.0
21
2875.0
31
23372.543105
0
LINE
8
ZJ8_PLATFORM_BRACE
10
110520.0
20
2875.0
30
23372.543105
11
113520.0
21
-2875.0
31
23545.522016
0
LINE
8
ZJ8_PLATFORM_BRACE
10
113520.0
20
-2875.0
30
23545.522016
11
116520.0
21
2875.0
31
23718.500928
0
LINE
8
ZJ8_TRUSS_UPPER
10
79470.0
20
-2875.0
30
21582.211369
11
81420.0
21
-2875.0
31
21694.647662
0
LINE
8
ZJ8_TRUSS_UPPER
10
81420.0
20
-2875.0
30
21694.647662
11
83370.0
21
-2875.0
31
21807.083954
0
LINE
8
ZJ8_TRUSS_UPPER
10
83370.0
20
-2875.0
30
21807.083954
11
85320.0
21
-2875.0
31
21919.520247
0
LINE
8
ZJ8_TRUSS_UPPER
10
85320.0
20
-2875.0
30
21919.520247
11
87270.0
21
-2875.0
31
22031.956539
0
LINE
8
ZJ8_TRUSS_UPPER
10
87270.0
20
-2875.0
30
22031.956539
11
89220.0
21
-2875.0
31
22144.392832
0
LINE
8
ZJ8_TRUSS_UPPER
10
89220.0
20
-2875.0
30
22144.392832
11
91170.0
21
-2875.0
31
22256.829125
0
LINE
8
ZJ8_TRUSS_UPPER
10
91170.0
20
-2875.0
30
22256.829125
11
93120.0
21
-2875.0
31
22369.265417
0
LINE
8
ZJ8_TRUSS_UPPER
10
93120.0
20
-2875.0
30
22369.265417
11
95070.0
21
-2875.0
31
22481.70171
0
LINE
8
ZJ8_TRUSS_UPPER
10
95070.0
20
-2875.0
30
22481.70171
11
97020.0
21
-2875.0
31
22594.138002
0
LINE
8
ZJ8_TRUSS_UPPER
10
97020.0
20
-2875.0
30
22594.138002
11
98970.0
21
-2875.0
31
22706.574295
0
LINE
8
ZJ8_TRUSS_UPPER
10
98970.0
20
-2875.0
30
22706.574295
11
100920.0
21
-2875.0
31
22819.010587
0
LINE
8
ZJ8_TRUSS_UPPER
10
100920.0
20
-2875.0
30
22819.010587
11
102870.0
21
-2875.0
31
22931.44688
0
LINE
8
ZJ8_TRUSS_UPPER
10
102870.0
20
-2875.0
30
22931.44688
11
104820.0
21
-2875.0
31
23043.883173
0
LINE
8
ZJ8_TRUSS_UPPER
10
104820.0
20
-2875.0
30
23043.883173
11
106770.0
21
-2875.0
31
23156.319465
0
LINE
8
ZJ8_TRUSS_UPPER
10
106770.0
20
-2875.0
30
23156.319465
11
108720.0
21
-2875.0
31
23268.755758
0
LINE
8
ZJ8_TRUSS_UPPER
10
108720.0
20
-2875.0
30
23268.755758
11
110670.0
21
-2875.0
31
23381.19205
0
LINE
8
ZJ8_TRUSS_UPPER
10
110670.0
20
-2875.0
30
23381.19205
11
112620.0
21
-2875.0
31
23493.628343
0
LINE
8
ZJ8_TRUSS_UPPER
10
112620.0
20
-2875.0
30
23493.628343
11
114570.0
21
-2875.0
31
23606.064635
0
LINE
8
ZJ8_TRUSS_UPPER
10
114570.0
20
-2875.0
30
23606.064635
11
116520.0
21
-2875.0
31
23718.500928
0
LINE
8
ZJ8_TRUSS_LOWER
10
79470.0
20
-2875.0
30
19782.211369
11
81420.0
21
-2875.0
31
19894.647662
0
LINE
8
ZJ8_TRUSS_LOWER
10
81420.0
20
-2875.0
30
19894.647662
11
83370.0
21
-2875.0
31
20007.083954
0
LINE
8
ZJ8_TRUSS_LOWER
10
83370.0
20
-2875.0
30
20007.083954
11
85320.0
21
-2875.0
31
20119.520247
0
LINE
8
ZJ8_TRUSS_LOWER
10
85320.0
20
-2875.0
30
20119.520247
11
87270.0
21
-2875.0
31
20231.956539
0
LINE
8
ZJ8_TRUSS_LOWER
10
87270.0
20
-2875.0
30
20231.956539
11
89220.0
21
-2875.0
31
20344.392832
0
LINE
8
ZJ8_TRUSS_LOWER
10
89220.0
20
-2875.0
30
20344.392832
11
91170.0
21
-2875.0
31
20456.829125
0
LINE
8
ZJ8_TRUSS_LOWER
10
91170.0
20
-2875.0
30
20456.829125
11
93120.0
21
-2875.0
31
20569.265417
0
LINE
8
ZJ8_TRUSS_LOWER
10
93120.0
20
-2875.0
30
20569.265417
11
95070.0
21
-2875.0
31
20681.70171
0
LINE
8
ZJ8_TRUSS_LOWER
10
95070.0
20
-2875.0
30
20681.70171
11
97020.0
21
-2875.0
31
20794.138002
0
LINE
8
ZJ8_TRUSS_LOWER
10
97020.0
20
-2875.0
30
20794.138002
11
98970.0
21
-2875.0
31
20906.574295
0
LINE
8
ZJ8_TRUSS_LOWER
10
98970.0
20
-2875.0
30
20906.574295
11
100920.0
21
-2875.0
31
21019.010587
0
LINE
8
ZJ8_TRUSS_LOWER
10
100920.0
20
-2875.0
30
21019.010587
11
102870.0
21
-2875.0
31
21131.44688
0
LINE
8
ZJ8_TRUSS_LOWER
10
102870.0
20
-2875.0
30
21131.44688
11
104820.0
21
-2875.0
31
21243.883173
0
LINE
8
ZJ8_TRUSS_LOWER
10
104820.0
20
-2875.0
30
21243.883173
11
106770.0
21
-2875.0
31
21356.319465
0
LINE
8
ZJ8_TRUSS_LOWER
10
106770.0
20
-2875.0
30
21356.319465
11
108720.0
21
-2875.0
31
21468.755758
0
LINE
8
ZJ8_TRUSS_LOWER
10
108720.0
20
-2875.0
30
21468.755758
11
110670.0
21
-2875.0
31
21581.19205
0
LINE
8
ZJ8_TRUSS_LOWER
10
110670.0
20
-2875.0
30
21581.19205
11
112620.0
21
-2875.0
31
21693.628343
0
LINE
8
ZJ8_TRUSS_LOWER
10
112620.0
20
-2875.0
30
21693.628343
11
114570.0
21
-2875.0
31
21806.064635
0
LINE
8
ZJ8_TRUSS_LOWER
10
114570.0
20
-2875.0
30
21806.064635
11
116520.0
21
-2875.0
31
21918.500928
0
LINE
8
ZJ8_TRUSS_VERTICAL
10
81420.0
20
-2875.0
30
21694.647662
11
81420.0
21
-2875.0
31
19894.647662
0
LINE
8
ZJ8_TRUSS_VERTICAL
10
83370.0
20
-2875.0
30
21807.083954
11
83370.0
21
-2875.0
31
20007.083954
0
LINE
8
ZJ8_TRUSS_VERTICAL
10
85320.0
20
-2875.0
30
21919.520247
11
85320.0
21
-2875.0
31
20119.520247
0
LINE
8
ZJ8_TRUSS_VERTICAL
10
87270.0
20
-2875.0
30
22031.956539
11
87270.0
21
-2875.0
31
20231.956539
0
LINE
8
ZJ8_TRUSS_VERTICAL
10
89220.0
20
-2875.0
30
22144.392832
11
89220.0
21
-2875.0
31
20344.392832
0
LINE
8
ZJ8_TRUSS_VERTICAL
10
91170.0
20
-2875.0
30
22256.829125
11
91170.0
21
-2875.0
31
20456.829125
0
LINE
8
ZJ8_TRUSS_VERTICAL
10
93120.0
20
-2875.0
30
22369.265417
11
93120.0
21
-2875.0
31
20569.265417
0
LINE
8
ZJ8_TRUSS_VERTICAL
10
95070.0
20
-2875.0
30
22481.70171
11
95070.0
21
-2875.0
31
20681.70171
0
LINE
8
ZJ8_TRUSS_VERTICAL
10
97020.0
20
-2875.0
30
22594.138002
11
97020.0
21
-2875.0
31
20794.138002
0
LINE
8
ZJ8_TRUSS_VERTICAL
10
98970.0
20
-2875.0
30
22706.574295
11
98970.0
21
-2875.0
31
20906.574295
0
LINE
8
ZJ8_TRUSS_VERTICAL
10
100920.0
20
-2875.0
30
22819.010587
11
100920.0
21
-2875.0
31
21019.010587
0
LINE
8
ZJ8_TRUSS_VERTICAL
10
102870.0
20
-2875.0
30
22931.44688
11
102870.0
21
-2875.0
31
21131.44688
0
LINE
8
ZJ8_TRUSS_VERTICAL
10
104820.0
20
-2875.0
30
23043.883173
11
104820.0
21
-2875.0
31
21243.883173
0
LINE
8
ZJ8_TRUSS_VERTICAL
10
106770.0
20
-2875.0
30
23156.319465
11
106770.0
21
-2875.0
31
21356.319465
0
LINE
8
ZJ8_TRUSS_VERTICAL
10
108720.0
20
-2875.0
30
23268.755758
11
108720.0
21
-2875.0
31
21468.755758
0
LINE
8
ZJ8_TRUSS_VERTICAL
10
110670.0
20
-2875.0
30
23381.19205
11
110670.0
21
-2875.0
31
21581.19205
0
LINE
8
ZJ8_TRUSS_VERTICAL
10
112620.0
20
-2875.0
30
23493.628343
11
112620.0
21
-2875.0
31
21693.628343
0
LINE
8
ZJ8_TRUSS_VERTICAL
10
114570.0
20
-2875.0
30
23606.064635
11
114570.0
21
-2875.0
31
21806.064635
0
LINE
8
ZJ8_TRUSS_VERTICAL
10
116520.0
20
-2875.0
30
23718.500928
11
116520.0
21
-2875.0
31
21918.500928
0
LINE
8
ZJ8_TRUSS_DIAGONAL
10
79470.0
20
-2875.0
30
21582.211369
11
81420.0
21
-2875.0
31
19894.647662
0
LINE
8
ZJ8_TRUSS_DIAGONAL
10
81420.0
20
-2875.0
30
19894.647662
11
83370.0
21
-2875.0
31
21807.083954
0
LINE
8
ZJ8_TRUSS_DIAGONAL
10
83370.0
20
-2875.0
30
21807.083954
11
85320.0
21
-2875.0
31
20119.520247
0
LINE
8
ZJ8_TRUSS_DIAGONAL
10
85320.0
20
-2875.0
30
20119.520247
11
87270.0
21
-2875.0
31
22031.956539
0
LINE
8
ZJ8_TRUSS_DIAGONAL
10
87270.0
20
-2875.0
30
22031.956539
11
89220.0
21
-2875.0
31
20344.392832
0
LINE
8
ZJ8_TRUSS_DIAGONAL
10
89220.0
20
-2875.0
30
20344.392832
11
91170.0
21
-2875.0
31
22256.829125
0
LINE
8
ZJ8_TRUSS_DIAGONAL
10
91170.0
20
-2875.0
30
22256.829125
11
93120.0
21
-2875.0
31
20569.265417
0
LINE
8
ZJ8_TRUSS_DIAGONAL
10
93120.0
20
-2875.0
30
20569.265417
11
95070.0
21
-2875.0
31
22481.70171
0
LINE
8
ZJ8_TRUSS_DIAGONAL
10
95070.0
20
-2875.0
30
22481.70171
11
97020.0
21
-2875.0
31
20794.138002
0
LINE
8
ZJ8_TRUSS_DIAGONAL
10
97020.0
20
-2875.0
30
20794.138002
11
98970.0
21
-2875.0
31
22706.574295
0
LINE
8
ZJ8_TRUSS_DIAGONAL
10
98970.0
20
-2875.0
30
22706.574295
11
100920.0
21
-2875.0
31
21019.010587
0
LINE
8
ZJ8_TRUSS_DIAGONAL
10
100920.0
20
-2875.0
30
21019.010587
11
102870.0
21
-2875.0
31
22931.44688
0
LINE
8
ZJ8_TRUSS_DIAGONAL
10
102870.0
20
-2875.0
30
22931.44688
11
104820.0
21
-2875.0
31
21243.883173
0
LINE
8
ZJ8_TRUSS_DIAGONAL
10
104820.0
20
-2875.0
30
21243.883173
11
106770.0
21
-2875.0
31
23156.319465
0
LINE
8
ZJ8_TRUSS_DIAGONAL
10
106770.0
20
-2875.0
30
23156.319465
11
108720.0
21
-2875.0
31
21468.755758
0
LINE
8
ZJ8_TRUSS_DIAGONAL
10
108720.0
20
-2875.0
30
21468.755758
11
110670.0
21
-2875.0
31
23381.19205
0
LINE
8
ZJ8_TRUSS_DIAGONAL
10
110670.0
20
-2875.0
30
23381.19205
11
112620.0
21
-2875.0
31
21693.628343
0
LINE
8
ZJ8_TRUSS_DIAGONAL
10
112620.0
20
-2875.0
30
21693.628343
11
114570.0
21
-2875.0
31
23606.064635
0
LINE
8
ZJ8_TRUSS_DIAGONAL
10
114570.0
20
-2875.0
30
23606.064635
11
116520.0
21
-2875.0
31
21918.500928
0
LINE
8
ZJ8_TRUSS_UPPER
10
79470.0
20
2875.0
30
21582.211369
11
81420.0
21
2875.0
31
21694.647662
0
LINE
8
ZJ8_TRUSS_UPPER
10
81420.0
20
2875.0
30
21694.647662
11
83370.0
21
2875.0
31
21807.083954
0
LINE
8
ZJ8_TRUSS_UPPER
10
83370.0
20
2875.0
30
21807.083954
11
85320.0
21
2875.0
31
21919.520247
0
LINE
8
ZJ8_TRUSS_UPPER
10
85320.0
20
2875.0
30
21919.520247
11
87270.0
21
2875.0
31
22031.956539
0
LINE
8
ZJ8_TRUSS_UPPER
10
87270.0
20
2875.0
30
22031.956539
11
89220.0
21
2875.0
31
22144.392832
0
LINE
8
ZJ8_TRUSS_UPPER
10
89220.0
20
2875.0
30
22144.392832
11
91170.0
21
2875.0
31
22256.829125
0
LINE
8
ZJ8_TRUSS_UPPER
10
91170.0
20
2875.0
30
22256.829125
11
93120.0
21
2875.0
31
22369.265417
0
LINE
8
ZJ8_TRUSS_UPPER
10
93120.0
20
2875.0
30
22369.265417
11
95070.0
21
2875.0
31
22481.70171
0
LINE
8
ZJ8_TRUSS_UPPER
10
95070.0
20
2875.0
30
22481.70171
11
97020.0
21
2875.0
31
22594.138002
0
LINE
8
ZJ8_TRUSS_UPPER
10
97020.0
20
2875.0
30
22594.138002
11
98970.0
21
2875.0
31
22706.574295
0
LINE
8
ZJ8_TRUSS_UPPER
10
98970.0
20
2875.0
30
22706.574295
11
100920.0
21
2875.0
31
22819.010587
0
LINE
8
ZJ8_TRUSS_UPPER
10
100920.0
20
2875.0
30
22819.010587
11
102870.0
21
2875.0
31
22931.44688
0
LINE
8
ZJ8_TRUSS_UPPER
10
102870.0
20
2875.0
30
22931.44688
11
104820.0
21
2875.0
31
23043.883173
0
LINE
8
ZJ8_TRUSS_UPPER
10
104820.0
20
2875.0
30
23043.883173
11
106770.0
21
2875.0
31
23156.319465
0
LINE
8
ZJ8_TRUSS_UPPER
10
106770.0
20
2875.0
30
23156.319465
11
108720.0
21
2875.0
31
23268.755758
0
LINE
8
ZJ8_TRUSS_UPPER
10
108720.0
20
2875.0
30
23268.755758
11
110670.0
21
2875.0
31
23381.19205
0
LINE
8
ZJ8_TRUSS_UPPER
10
110670.0
20
2875.0
30
23381.19205
11
112620.0
21
2875.0
31
23493.628343
0
LINE
8
ZJ8_TRUSS_UPPER
10
112620.0
20
2875.0
30
23493.628343
11
114570.0
21
2875.0
31
23606.064635
0
LINE
8
ZJ8_TRUSS_UPPER
10
114570.0
20
2875.0
30
23606.064635
11
116520.0
21
2875.0
31
23718.500928
0
LINE
8
ZJ8_TRUSS_LOWER
10
79470.0
20
2875.0
30
19782.211369
11
81420.0
21
2875.0
31
19894.647662
0
LINE
8
ZJ8_TRUSS_LOWER
10
81420.0
20
2875.0
30
19894.647662
11
83370.0
21
2875.0
31
20007.083954
0
LINE
8
ZJ8_TRUSS_LOWER
10
83370.0
20
2875.0
30
20007.083954
11
85320.0
21
2875.0
31
20119.520247
0
LINE
8
ZJ8_TRUSS_LOWER
10
85320.0
20
2875.0
30
20119.520247
11
87270.0
21
2875.0
31
20231.956539
0
LINE
8
ZJ8_TRUSS_LOWER
10
87270.0
20
2875.0
30
20231.956539
11
89220.0
21
2875.0
31
20344.392832
0
LINE
8
ZJ8_TRUSS_LOWER
10
89220.0
20
2875.0
30
20344.392832
11
91170.0
21
2875.0
31
20456.829125
0
LINE
8
ZJ8_TRUSS_LOWER
10
91170.0
20
2875.0
30
20456.829125
11
93120.0
21
2875.0
31
20569.265417
0
LINE
8
ZJ8_TRUSS_LOWER
10
93120.0
20
2875.0
30
20569.265417
11
95070.0
21
2875.0
31
20681.70171
0
LINE
8
ZJ8_TRUSS_LOWER
10
95070.0
20
2875.0
30
20681.70171
11
97020.0
21
2875.0
31
20794.138002
0
LINE
8
ZJ8_TRUSS_LOWER
10
97020.0
20
2875.0
30
20794.138002
11
98970.0
21
2875.0
31
20906.574295
0
LINE
8
ZJ8_TRUSS_LOWER
10
98970.0
20
2875.0
30
20906.574295
11
100920.0
21
2875.0
31
21019.010587
0
LINE
8
ZJ8_TRUSS_LOWER
10
100920.0
20
2875.0
30
21019.010587
11
102870.0
21
2875.0
31
21131.44688
0
LINE
8
ZJ8_TRUSS_LOWER
10
102870.0
20
2875.0
30
21131.44688
11
104820.0
21
2875.0
31
21243.883173
0
LINE
8
ZJ8_TRUSS_LOWER
10
104820.0
20
2875.0
30
21243.883173
11
106770.0
21
2875.0
31
21356.319465
0
LINE
8
ZJ8_TRUSS_LOWER
10
106770.0
20
2875.0
30
21356.319465
11
108720.0
21
2875.0
31
21468.755758
0
LINE
8
ZJ8_TRUSS_LOWER
10
108720.0
20
2875.0
30
21468.755758
11
110670.0
21
2875.0
31
21581.19205
0
LINE
8
ZJ8_TRUSS_LOWER
10
110670.0
20
2875.0
30
21581.19205
11
112620.0
21
2875.0
31
21693.628343
0
LINE
8
ZJ8_TRUSS_LOWER
10
112620.0
20
2875.0
30
21693.628343
11
114570.0
21
2875.0
31
21806.064635
0
LINE
8
ZJ8_TRUSS_LOWER
10
114570.0
20
2875.0
30
21806.064635
11
116520.0
21
2875.0
31
21918.500928
0
LINE
8
ZJ8_TRUSS_VERTICAL
10
81420.0
20
2875.0
30
21694.647662
11
81420.0
21
2875.0
31
19894.647662
0
LINE
8
ZJ8_TRUSS_VERTICAL
10
83370.0
20
2875.0
30
21807.083954
11
83370.0
21
2875.0
31
20007.083954
0
LINE
8
ZJ8_TRUSS_VERTICAL
10
85320.0
20
2875.0
30
21919.520247
11
85320.0
21
2875.0
31
20119.520247
0
LINE
8
ZJ8_TRUSS_VERTICAL
10
87270.0
20
2875.0
30
22031.956539
11
87270.0
21
2875.0
31
20231.956539
0
LINE
8
ZJ8_TRUSS_VERTICAL
10
89220.0
20
2875.0
30
22144.392832
11
89220.0
21
2875.0
31
20344.392832
0
LINE
8
ZJ8_TRUSS_VERTICAL
10
91170.0
20
2875.0
30
22256.829125
11
91170.0
21
2875.0
31
20456.829125
0
LINE
8
ZJ8_TRUSS_VERTICAL
10
93120.0
20
2875.0
30
22369.265417
11
93120.0
21
2875.0
31
20569.265417
0
LINE
8
ZJ8_TRUSS_VERTICAL
10
95070.0
20
2875.0
30
22481.70171
11
95070.0
21
2875.0
31
20681.70171
0
LINE
8
ZJ8_TRUSS_VERTICAL
10
97020.0
20
2875.0
30
22594.138002
11
97020.0
21
2875.0
31
20794.138002
0
LINE
8
ZJ8_TRUSS_VERTICAL
10
98970.0
20
2875.0
30
22706.574295
11
98970.0
21
2875.0
31
20906.574295
0
LINE
8
ZJ8_TRUSS_VERTICAL
10
100920.0
20
2875.0
30
22819.010587
11
100920.0
21
2875.0
31
21019.010587
0
LINE
8
ZJ8_TRUSS_VERTICAL
10
102870.0
20
2875.0
30
22931.44688
11
102870.0
21
2875.0
31
21131.44688
0
LINE
8
ZJ8_TRUSS_VERTICAL
10
104820.0
20
2875.0
30
23043.883173
11
104820.0
21
2875.0
31
21243.883173
0
LINE
8
ZJ8_TRUSS_VERTICAL
10
106770.0
20
2875.0
30
23156.319465
11
106770.0
21
2875.0
31
21356.319465
0
LINE
8
ZJ8_TRUSS_VERTICAL
10
108720.0
20
2875.0
30
23268.755758
11
108720.0
21
2875.0
31
21468.755758
0
LINE
8
ZJ8_TRUSS_VERTICAL
10
110670.0
20
2875.0
30
23381.19205
11
110670.0
21
2875.0
31
21581.19205
0
LINE
8
ZJ8_TRUSS_VERTICAL
10
112620.0
20
2875.0
30
23493.628343
11
112620.0
21
2875.0
31
21693.628343
0
LINE
8
ZJ8_TRUSS_VERTICAL
10
114570.0
20
2875.0
30
23606.064635
11
114570.0
21
2875.0
31
21806.064635
0
LINE
8
ZJ8_TRUSS_VERTICAL
10
116520.0
20
2875.0
30
23718.500928
11
116520.0
21
2875.0
31
21918.500928
0
LINE
8
ZJ8_TRUSS_DIAGONAL
10
79470.0
20
2875.0
30
21582.211369
11
81420.0
21
2875.0
31
19894.647662
0
LINE
8
ZJ8_TRUSS_DIAGONAL
10
81420.0
20
2875.0
30
19894.647662
11
83370.0
21
2875.0
31
21807.083954
0
LINE
8
ZJ8_TRUSS_DIAGONAL
10
83370.0
20
2875.0
30
21807.083954
11
85320.0
21
2875.0
31
20119.520247
0
LINE
8
ZJ8_TRUSS_DIAGONAL
10
85320.0
20
2875.0
30
20119.520247
11
87270.0
21
2875.0
31
22031.956539
0
LINE
8
ZJ8_TRUSS_DIAGONAL
10
87270.0
20
2875.0
30
22031.956539
11
89220.0
21
2875.0
31
20344.392832
0
LINE
8
ZJ8_TRUSS_DIAGONAL
10
89220.0
20
2875.0
30
20344.392832
11
91170.0
21
2875.0
31
22256.829125
0
LINE
8
ZJ8_TRUSS_DIAGONAL
10
91170.0
20
2875.0
30
22256.829125
11
93120.0
21
2875.0
31
20569.265417
0
LINE
8
ZJ8_TRUSS_DIAGONAL
10
93120.0
20
2875.0
30
20569.265417
11
95070.0
21
2875.0
31
22481.70171
0
LINE
8
ZJ8_TRUSS_DIAGONAL
10
95070.0
20
2875.0
30
22481.70171
11
97020.0
21
2875.0
31
20794.138002
0
LINE
8
ZJ8_TRUSS_DIAGONAL
10
97020.0
20
2875.0
30
20794.138002
11
98970.0
21
2875.0
31
22706.574295
0
LINE
8
ZJ8_TRUSS_DIAGONAL
10
98970.0
20
2875.0
30
22706.574295
11
100920.0
21
2875.0
31
21019.010587
0
LINE
8
ZJ8_TRUSS_DIAGONAL
10
100920.0
20
2875.0
30
21019.010587
11
102870.0
21
2875.0
31
22931.44688
0
LINE
8
ZJ8_TRUSS_DIAGONAL
10
102870.0
20
2875.0
30
22931.44688
11
104820.0
21
2875.0
31
21243.883173
0
LINE
8
ZJ8_TRUSS_DIAGONAL
10
104820.0
20
2875.0
30
21243.883173
11
106770.0
21
2875.0
31
23156.319465
0
LINE
8
ZJ8_TRUSS_DIAGONAL
10
106770.0
20
2875.0
30
23156.319465
11
108720.0
21
2875.0
31
21468.755758
0
LINE
8
ZJ8_TRUSS_DIAGONAL
10
108720.0
20
2875.0
30
21468.755758
11
110670.0
21
2875.0
31
23381.19205
0
LINE
8
ZJ8_TRUSS_DIAGONAL
10
110670.0
20
2875.0
30
23381.19205
11
112620.0
21
2875.0
31
21693.628343
0
LINE
8
ZJ8_TRUSS_DIAGONAL
10
112620.0
20
2875.0
30
21693.628343
11
114570.0
21
2875.0
31
23606.064635
0
LINE
8
ZJ8_TRUSS_DIAGONAL
10
114570.0
20
2875.0
30
23606.064635
11
116520.0
21
2875.0
31
21918.500928
0
LINE
8
ZJ8_DECK_MAIN
10
116520.0
20
-2875.0
30
23718.500928
11
119520.0
21
-2875.0
31
23891.47984
0
LINE
8
ZJ8_DECK_MAIN
10
116520.0
20
2875.0
30
23718.500928
11
119520.0
21
2875.0
31
23891.47984
0
LINE
8
ZJ8_DECK_SECONDARY
10
116520.0
20
-1075.0
30
23718.500928
11
119520.0
21
-1075.0
31
23891.47984
0
LINE
8
ZJ8_DECK_SECONDARY
10
116520.0
20
1075.0
30
23718.500928
11
119520.0
21
1075.0
31
23891.47984
0
LINE
8
ZJ8_CANTILEVER_EDGE
10
116520.0
20
-2200.0
30
23718.500928
11
119520.0
21
-2200.0
31
23891.47984
0
LINE
8
ZJ8_CANTILEVER_EDGE
10
116520.0
20
2700.0
30
23718.500928
11
119520.0
21
2700.0
31
23891.47984
0
LINE
8
ZJ8_PLATFORM_BRACE
10
116520.0
20
-2875.0
30
23718.500928
11
119520.0
21
2875.0
31
23891.47984
0
LINE
8
ZJ8_LONGITUDINAL_BRACE
10
116520.0
20
-2875.0
30
0.0
11
119520.0
21
-2875.0
31
23891.47984
0
LINE
8
ZJ8_LONGITUDINAL_BRACE
10
116520.0
20
2875.0
30
0.0
11
119520.0
21
2875.0
31
23891.47984
0
ENDSEC
0
EOF
