0
SECTION
2
HEADER
9
$INSUNITS
70
4
0
ENDSEC
0
SECTION
2
TABLES
0
TABLE
2
LAYER
70
12
0
LAYER
2
ZJ8_DECK_MAIN
70
0
62
4
6
CONTINUOUS
0
LAYER
2
ZJ8_DECK_CROSS
70
0
62
4
6
CONTINUOUS
0
LAYER
2
ZJ8_DECK_SECONDARY
70
0
62
3
6
CONTINUOUS
0
LAYER
2
ZJ8_CANTILEVER_EDGE
70
0
62
3
6
CONTINUOUS
0
LAYER
2
ZJ8_PLATFORM_BRACE
70
0
62
1
6
CONTINUOUS
0
LAYER
2
ZJ8_COLUMN
70
0
62
8
6
CONTINUOUS
0
LAYER
2
ZJ8_TRANSVERSE_BRACE
70
0
62
1
6
CONTINUOUS
0
LAYER
2
ZJ8_LONGITUDINAL_BRACE
70
0
62
1
6
CONTINUOUS
0
LAYER
2
ZJ8_TRUSS_UPPER
70
0
62
5
6
CONTINUOUS
0
LAYER
2
ZJ8_TRUSS_LOWER
70
0
62
5
6
CONTINUOUS
0
LAYER
2
ZJ8_TRUSS_VERTICAL
70
0
62
5
6
CONTINUOUS
0
LAYER
2
ZJ8_TRUSS_DIAGONAL
70
0
62
5
6
CONTINUOUS
0
ENDTAB
0
ENDSEC
0
SECTION
2
ENTITIES
0
LINE
8
ZJ8_COLUMN
10
116520.0
20
-2875.0
30
0.0
11
116520.0
21
-2875.0
31
4250.0
0
LINE
8
ZJ8_COLUMN
10
116520.0
20
-2875.0
30
4250.0
11
116520.0
21
-2875.0
31
8500.0
0
LINE
8
ZJ8_COLUMN
10
116520.0
20
-2875.0
30
8500.0
11
116520.0
21
-2875.0
31
12750.0
0
LINE
8
ZJ8_COLUMN
10
116520.0
20
-2875.0
30
12750.0
11
116520.0
21
-2875.0
31
17000.0
0
LINE
8
ZJ8_COLUMN
10
116520.0
20
2875.0
30
0.0
11
116520.0
21
2875.0
31
4250.0
0
LINE
8
ZJ8_COLUMN
10
116520.0
20
2875.0
30
4250.0
11
116520.0
21
2875.0
31
8500.0
0
LINE
8
ZJ8_COLUMN
10
116520.0
20
2875.0
30
8500.0
11
116520.0
21
2875.0
31
12750.0
0
LINE
8
ZJ8_COLUMN
10
116520.0
20
2875.0
30
12750.0
11
116520.0
21
2875.0
31
17000.0
0
LINE
8
ZJ8_DECK_CROSS
10
116520.0
20
-2200.0
30
17000.0
11
116520.0
21
2700.0
31
17000.0
0
LINE
8
ZJ8_TRANSVERSE_BRACE
10
116520.0
20
-2875.0
30
0.0
11
116520.0
21
2875.0
31
17000.0
0
LINE
8
ZJ8_TRANSVERSE_BRACE
10
116520.0
20
2875.0
30
0.0
11
116520.0
21
-2875.0
31
17000.0
0
LINE
8
ZJ8_COLUMN
10
119520.0
20
-2875.0
30
0.0
11
119520.0
21
-2875.0
31
4250.0
0
LINE
8
ZJ8_COLUMN
10
119520.0
20
-2875.0
30
4250.0
11
119520.0
21
-2875.0
31
8500.0
0
LINE
8
ZJ8_COLUMN
10
119520.0
20
-2875.0
30
8500.0
11
119520.0
21
-2875.0
31
12750.0
0
LINE
8
ZJ8_COLUMN
10
119520.0
20
-2875.0
30
12750.0
11
119520.0
21
-2875.0
31
17000.0
0
LINE
8
ZJ8_COLUMN
10
119520.0
20
2875.0
30
0.0
11
119520.0
21
2875.0
31
4250.0
0
LINE
8
ZJ8_COLUMN
10
119520.0
20
2875.0
30
4250.0
11
119520.0
21
2875.0
31
8500.0
0
LINE
8
ZJ8_COLUMN
10
119520.0
20
2875.0
30
8500.0
11
119520.0
21
2875.0
31
12750.0
0
LINE
8
ZJ8_COLUMN
10
119520.0
20
2875.0
30
12750.0
11
119520.0
21
2875.0
31
17000.0
0
LINE
8
ZJ8_DECK_CROSS
10
119520.0
20
-2200.0
30
17000.0
11
119520.0
21
2700.0
31
17000.0
0
LINE
8
ZJ8_TRANSVERSE_BRACE
10
119520.0
20
-2875.0
30
0.0
11
119520.0
21
2875.0
31
17000.0
0
LINE
8
ZJ8_TRANSVERSE_BRACE
10
119520.0
20
2875.0
30
0.0
11
119520.0
21
-2875.0
31
17000.0
0
LINE
8
ZJ8_DECK_MAIN
10
83520.0
20
-2875.0
30
17000.0
11
86520.0
21
-2875.0
31
17000.0
0
LINE
8
ZJ8_DECK_MAIN
10
86520.0
20
-2875.0
30
17000.0
11
89520.0
21
-2875.0
31
17000.0
0
LINE
8
ZJ8_DECK_MAIN
10
89520.0
20
-2875.0
30
17000.0
11
92520.0
21
-2875.0
31
17000.0
0
LINE
8
ZJ8_DECK_MAIN
10
92520.0
20
-2875.0
30
17000.0
11
95520.0
21
-2875.0
31
17000.0
0
LINE
8
ZJ8_DECK_MAIN
10
95520.0
20
-2875.0
30
17000.0
11
98520.0
21
-2875.0
31
17000.0
0
LINE
8
ZJ8_DECK_MAIN
10
98520.0
20
-2875.0
30
17000.0
11
101520.0
21
-2875.0
31
17000.0
0
LINE
8
ZJ8_DECK_MAIN
10
101520.0
20
-2875.0
30
17000.0
11
104520.0
21
-2875.0
31
17000.0
0
LINE
8
ZJ8_DECK_MAIN
10
104520.0
20
-2875.0
30
17000.0
11
107520.0
21
-2875.0
31
17000.0
0
LINE
8
ZJ8_DECK_MAIN
10
107520.0
20
-2875.0
30
17000.0
11
110520.0
21
-2875.0
31
17000.0
0
LINE
8
ZJ8_DECK_MAIN
10
110520.0
20
-2875.0
30
17000.0
11
113520.0
21
-2875.0
31
17000.0
0
LINE
8
ZJ8_DECK_MAIN
10
113520.0
20
-2875.0
30
17000.0
11
116520.0
21
-2875.0
31
17000.0
0
LINE
8
ZJ8_DECK_MAIN
10
83520.0
20
2875.0
30
17000.0
11
86520.0
21
2875.0
31
17000.0
0
LINE
8
ZJ8_DECK_MAIN
10
86520.0
20
2875.0
30
17000.0
11
89520.0
21
2875.0
31
17000.0
0
LINE
8
ZJ8_DECK_MAIN
10
89520.0
20
2875.0
30
17000.0
11
92520.0
21
2875.0
31
17000.0
0
LINE
8
ZJ8_DECK_MAIN
10
92520.0
20
2875.0
30
17000.0
11
95520.0
21
2875.0
31
17000.0
0
LINE
8
ZJ8_DECK_MAIN
10
95520.0
20
2875.0
30
17000.0
11
98520.0
21
2875.0
31
17000.0
0
LINE
8
ZJ8_DECK_MAIN
10
98520.0
20
2875.0
30
17000.0
11
101520.0
21
2875.0
31
17000.0
0
LINE
8
ZJ8_DECK_MAIN
10
101520.0
20
2875.0
30
17000.0
11
104520.0
21
2875.0
31
17000.0
0
LINE
8
ZJ8_DECK_MAIN
10
104520.0
20
2875.0
30
17000.0
11
107520.0
21
2875.0
31
17000.0
0
LINE
8
ZJ8_DECK_MAIN
10
107520.0
20
2875.0
30
17000.0
11
110520.0
21
2875.0
31
17000.0
0
LINE
8
ZJ8_DECK_MAIN
10
110520.0
20
2875.0
30
17000.0
11
113520.0
21
2875.0
31
17000.0
0
LINE
8
ZJ8_DECK_MAIN
10
113520.0
20
2875.0
30
17000.0
11
116520.0
21
2875.0
31
17000.0
0
LINE
8
ZJ8_DECK_CROSS
10
86520.0
20
-2200.0
30
17000.0
11
86520.0
21
2700.0
31
17000.0
0
LINE
8
ZJ8_DECK_CROSS
10
89520.0
20
-2200.0
30
17000.0
11
89520.0
21
2700.0
31
17000.0
0
LINE
8
ZJ8_DECK_CROSS
10
92520.0
20
-2200.0
30
17000.0
11
92520.0
21
2700.0
31
17000.0
0
LINE
8
ZJ8_DECK_CROSS
10
95520.0
20
-2200.0
30
17000.0
11
95520.0
21
2700.0
31
17000.0
0
LINE
8
ZJ8_DECK_CROSS
10
98520.0
20
-2200.0
30
17000.0
11
98520.0
21
2700.0
31
17000.0
0
LINE
8
ZJ8_DECK_CROSS
10
101520.0
20
-2200.0
30
17000.0
11
101520.0
21
2700.0
31
17000.0
0
LINE
8
ZJ8_DECK_CROSS
10
104520.0
20
-2200.0
30
17000.0
11
104520.0
21
2700.0
31
17000.0
0
LINE
8
ZJ8_DECK_CROSS
10
107520.0
20
-2200.0
30
17000.0
11
107520.0
21
2700.0
31
17000.0
0
LINE
8
ZJ8_DECK_CROSS
10
110520.0
20
-2200.0
30
17000.0
11
110520.0
21
2700.0
31
17000.0
0
LINE
8
ZJ8_DECK_CROSS
10
113520.0
20
-2200.0
30
17000.0
11
113520.0
21
2700.0
31
17000.0
0
LINE
8
ZJ8_DECK_SECONDARY
10
83520.0
20
-1075.0
30
17000.0
11
86520.0
21
-1075.0
31
17000.0
0
LINE
8
ZJ8_DECK_SECONDARY
10
86520.0
20
-1075.0
30
17000.0
11
89520.0
21
-1075.0
31
17000.0
0
LINE
8
ZJ8_DECK_SECONDARY
10
89520.0
20
-1075.0
30
17000.0
11
92520.0
21
-1075.0
31
17000.0
0
LINE
8
ZJ8_DECK_SECONDARY
10
92520.0
20
-1075.0
30
17000.0
11
95520.0
21
-1075.0
31
17000.0
0
LINE
8
ZJ8_DECK_SECONDARY
10
95520.0
20
-1075.0
30
17000.0
11
98520.0
21
-1075.0
31
17000.0
0
LINE
8
ZJ8_DECK_SECONDARY
10
98520.0
20
-1075.0
30
17000.0
11
101520.0
21
-1075.0
31
17000.0
0
LINE
8
ZJ8_DECK_SECONDARY
10
101520.0
20
-1075.0
30
17000.0
11
104520.0
21
-1075.0
31
17000.0
0
LINE
8
ZJ8_DECK_SECONDARY
10
104520.0
20
-1075.0
30
17000.0
11
107520.0
21
-1075.0
31
17000.0
0
LINE
8
ZJ8_DECK_SECONDARY
10
107520.0
20
-1075.0
30
17000.0
11
110520.0
21
-1075.0
31
17000.0
0
LINE
8
ZJ8_DECK_SECONDARY
10
110520.0
20
-1075.0
30
17000.0
11
113520.0
21
-1075.0
31
17000.0
0
LINE
8
ZJ8_DECK_SECONDARY
10
113520.0
20
-1075.0
30
17000.0
11
116520.0
21
-1075.0
31
17000.0
0
LINE
8
ZJ8_DECK_SECONDARY
10
83520.0
20
1075.0
30
17000.0
11
86520.0
21
1075.0
31
17000.0
0
LINE
8
ZJ8_DECK_SECONDARY
10
86520.0
20
1075.0
30
17000.0
11
89520.0
21
1075.0
31
17000.0
0
LINE
8
ZJ8_DECK_SECONDARY
10
89520.0
20
1075.0
30
17000.0
11
92520.0
21
1075.0
31
17000.0
0
LINE
8
ZJ8_DECK_SECONDARY
10
92520.0
20
1075.0
30
17000.0
11
95520.0
21
1075.0
31
17000.0
0
LINE
8
ZJ8_DECK_SECONDARY
10
95520.0
20
1075.0
30
17000.0
11
98520.0
21
1075.0
31
17000.0
0
LINE
8
ZJ8_DECK_SECONDARY
10
98520.0
20
1075.0
30
17000.0
11
101520.0
21
1075.0
31
17000.0
0
LINE
8
ZJ8_DECK_SECONDARY
10
101520.0
20
1075.0
30
17000.0
11
104520.0
21
1075.0
31
17000.0
0
LINE
8
ZJ8_DECK_SECONDARY
10
104520.0
20
1075.0
30
17000.0
11
107520.0
21
1075.0
31
17000.0
0
LINE
8
ZJ8_DECK_SECONDARY
10
107520.0
20
1075.0
30
17000.0
11
110520.0
21
1075.0
31
17000.0
0
LINE
8
ZJ8_DECK_SECONDARY
10
110520.0
20
1075.0
30
17000.0
11
113520.0
21
1075.0
31
17000.0
0
LINE
8
ZJ8_DECK_SECONDARY
10
113520.0
20
1075.0
30
17000.0
11
116520.0
21
1075.0
31
17000.0
0
LINE
8
ZJ8_CANTILEVER_EDGE
10
83520.0
20
-2200.0
30
17000.0
11
86520.0
21
-2200.0
31
17000.0
0
LINE
8
ZJ8_CANTILEVER_EDGE
10
86520.0
20
-2200.0
30
17000.0
11
89520.0
21
-2200.0
31
17000.0
0
LINE
8
ZJ8_CANTILEVER_EDGE
10
89520.0
20
-2200.0
30
17000.0
11
92520.0
21
-2200.0
31
17000.0
0
LINE
8
ZJ8_CANTILEVER_EDGE
10
92520.0
20
-2200.0
30
17000.0
11
95520.0
21
-2200.0
31
17000.0
0
LINE
8
ZJ8_CANTILEVER_EDGE
10
95520.0
20
-2200.0
30
17000.0
11
98520.0
21
-2200.0
31
17000.0
0
LINE
8
ZJ8_CANTILEVER_EDGE
10
98520.0
20
-2200.0
30
17000.0
11
101520.0
21
-2200.0
31
17000.0
0
LINE
8
ZJ8_CANTILEVER_EDGE
10
101520.0
20
-2200.0
30
17000.0
11
104520.0
21
-2200.0
31
17000.0
0
LINE
8
ZJ8_CANTILEVER_EDGE
10
104520.0
20
-2200.0
30
17000.0
11
107520.0
21
-2200.0
31
17000.0
0
LINE
8
ZJ8_CANTILEVER_EDGE
10
107520.0
20
-2200.0
30
17000.0
11
110520.0
21
-2200.0
31
17000.0
0
LINE
8
ZJ8_CANTILEVER_EDGE
10
110520.0
20
-2200.0
30
17000.0
11
113520.0
21
-2200.0
31
17000.0
0
LINE
8
ZJ8_CANTILEVER_EDGE
10
113520.0
20
-2200.0
30
17000.0
11
116520.0
21
-2200.0
31
17000.0
0
LINE
8
ZJ8_CANTILEVER_EDGE
10
83520.0
20
2700.0
30
17000.0
11
86520.0
21
2700.0
31
17000.0
0
LINE
8
ZJ8_CANTILEVER_EDGE
10
86520.0
20
2700.0
30
17000.0
11
89520.0
21
2700.0
31
17000.0
0
LINE
8
ZJ8_CANTILEVER_EDGE
10
89520.0
20
2700.0
30
17000.0
11
92520.0
21
2700.0
31
17000.0
0
LINE
8
ZJ8_CANTILEVER_EDGE
10
92520.0
20
2700.0
30
17000.0
11
95520.0
21
2700.0
31
17000.0
0
LINE
8
ZJ8_CANTILEVER_EDGE
10
95520.0
20
2700.0
30
17000.0
11
98520.0
21
2700.0
31
17000.0
0
LINE
8
ZJ8_CANTILEVER_EDGE
10
98520.0
20
2700.0
30
17000.0
11
101520.0
21
2700.0
31
17000.0
0
LINE
8
ZJ8_CANTILEVER_EDGE
10
101520.0
20
2700.0
30
17000.0
11
104520.0
21
2700.0
31
17000.0
0
LINE
8
ZJ8_CANTILEVER_EDGE
10
104520.0
20
2700.0
30
17000.0
11
107520.0
21
2700.0
31
17000.0
0
LINE
8
ZJ8_CANTILEVER_EDGE
10
107520.0
20
2700.0
30
17000.0
11
110520.0
21
2700.0
31
17000.0
0
LINE
8
ZJ8_CANTILEVER_EDGE
10
110520.0
20
2700.0
30
17000.0
11
113520.0
21
2700.0
31
17000.0
0
LINE
8
ZJ8_CANTILEVER_EDGE
10
113520.0
20
2700.0
30
17000.0
11
116520.0
21
2700.0
31
17000.0
0
LINE
8
ZJ8_PLATFORM_BRACE
10
83520.0
20
-2875.0
30
17000.0
11
86520.0
21
2875.0
31
17000.0
0
LINE
8
ZJ8_PLATFORM_BRACE
10
86520.0
20
2875.0
30
17000.0
11
89520.0
21
-2875.0
31
17000.0
0
LINE
8
ZJ8_PLATFORM_BRACE
10
89520.0
20
-2875.0
30
17000.0
11
92520.0
21
2875.0
31
17000.0
0
LINE
8
ZJ8_PLATFORM_BRACE
10
92520.0
20
2875.0
30
17000.0
11
95520.0
21
-2875.0
31
17000.0
0
LINE
8
ZJ8_PLATFORM_BRACE
10
95520.0
20
-2875.0
30
17000.0
11
98520.0
21
2875.0
31
17000.0
0
LINE
8
ZJ8_PLATFORM_BRACE
10
98520.0
20
2875.0
30
17000.0
11
101520.0
21
-2875.0
31
17000.0
0
LINE
8
ZJ8_PLATFORM_BRACE
10
101520.0
20
-2875.0
30
17000.0
11
104520.0
21
2875.0
31
17000.0
0
LINE
8
ZJ8_PLATFORM_BRACE
10
104520.0
20
2875.0
30
17000.0
11
107520.0
21
-2875.0
31
17000.0
0
LINE
8
ZJ8_PLATFORM_BRACE
10
107520.0
20
-2875.0
30
17000.0
11
110520.0
21
2875.0
31
17000.0
0
LINE
8
ZJ8_PLATFORM_BRACE
10
110520.0
20
2875.0
30
17000.0
11
113520.0
21
-2875.0
31
17000.0
0
LINE
8
ZJ8_PLATFORM_BRACE
10
113520.0
20
-2875.0
30
17000.0
11
116520.0
21
2875.0
31
17000.0
0
LINE
8
ZJ8_TRUSS_UPPER
10
83370.0
20
-2875.0
30
17000.0
11
85320.0
21
-2875.0
31
17000.0
0
LINE
8
ZJ8_TRUSS_UPPER
10
85320.0
20
-2875.0
30
17000.0
11
87270.0
21
-2875.0
31
17000.0
0
LINE
8
ZJ8_TRUSS_UPPER
10
87270.0
20
-2875.0
30
17000.0
11
89220.0
21
-2875.0
31
17000.0
0
LINE
8
ZJ8_TRUSS_UPPER
10
89220.0
20
-2875.0
30
17000.0
11
91170.0
21
-2875.0
31
17000.0
0
LINE
8
ZJ8_TRUSS_UPPER
10
91170.0
20
-2875.0
30
17000.0
11
93120.0
21
-2875.0
31
17000.0
0
LINE
8
ZJ8_TRUSS_UPPER
10
93120.0
20
-2875.0
30
17000.0
11
95070.0
21
-2875.0
31
17000.0
0
LINE
8
ZJ8_TRUSS_UPPER
10
95070.0
20
-2875.0
30
17000.0
11
97020.0
21
-2875.0
31
17000.0
0
LINE
8
ZJ8_TRUSS_UPPER
10
97020.0
20
-2875.0
30
17000.0
11
98970.0
21
-2875.0
31
17000.0
0
LINE
8
ZJ8_TRUSS_UPPER
10
98970.0
20
-2875.0
30
17000.0
11
100920.0
21
-2875.0
31
17000.0
0
LINE
8
ZJ8_TRUSS_UPPER
10
100920.0
20
-2875.0
30
17000.0
11
102870.0
21
-2875.0
31
17000.0
0
LINE
8
ZJ8_TRUSS_UPPER
10
102870.0
20
-2875.0
30
17000.0
11
104820.0
21
-2875.0
31
17000.0
0
LINE
8
ZJ8_TRUSS_UPPER
10
104820.0
20
-2875.0
30
17000.0
11
106770.0
21
-2875.0
31
17000.0
0
LINE
8
ZJ8_TRUSS_UPPER
10
106770.0
20
-2875.0
30
17000.0
11
108720.0
21
-2875.0
31
17000.0
0
LINE
8
ZJ8_TRUSS_UPPER
10
108720.0
20
-2875.0
30
17000.0
11
110670.0
21
-2875.0
31
17000.0
0
LINE
8
ZJ8_TRUSS_UPPER
10
110670.0
20
-2875.0
30
17000.0
11
112620.0
21
-2875.0
31
17000.0
0
LINE
8
ZJ8_TRUSS_UPPER
10
112620.0
20
-2875.0
30
17000.0
11
114570.0
21
-2875.0
31
17000.0
0
LINE
8
ZJ8_TRUSS_UPPER
10
114570.0
20
-2875.0
30
17000.0
11
116520.0
21
-2875.0
31
17000.0
0
LINE
8
ZJ8_TRUSS_LOWER
10
83370.0
20
-2875.0
30
15200.0
11
85320.0
21
-2875.0
31
15200.0
0
LINE
8
ZJ8_TRUSS_LOWER
10
85320.0
20
-2875.0
30
15200.0
11
87270.0
21
-2875.0
31
15200.0
0
LINE
8
ZJ8_TRUSS_LOWER
10
87270.0
20
-2875.0
30
15200.0
11
89220.0
21
-2875.0
31
15200.0
0
LINE
8
ZJ8_TRUSS_LOWER
10
89220.0
20
-2875.0
30
15200.0
11
91170.0
21
-2875.0
31
15200.0
0
LINE
8
ZJ8_TRUSS_LOWER
10
91170.0
20
-2875.0
30
15200.0
11
93120.0
21
-2875.0
31
15200.0
0
LINE
8
ZJ8_TRUSS_LOWER
10
93120.0
20
-2875.0
30
15200.0
11
95070.0
21
-2875.0
31
15200.0
0
LINE
8
ZJ8_TRUSS_LOWER
10
95070.0
20
-2875.0
30
15200.0
11
97020.0
21
-2875.0
31
15200.0
0
LINE
8
ZJ8_TRUSS_LOWER
10
97020.0
20
-2875.0
30
15200.0
11
98970.0
21
-2875.0
31
15200.0
0
LINE
8
ZJ8_TRUSS_LOWER
10
98970.0
20
-2875.0
30
15200.0
11
100920.0
21
-2875.0
31
15200.0
0
LINE
8
ZJ8_TRUSS_LOWER
10
100920.0
20
-2875.0
30
15200.0
11
102870.0
21
-2875.0
31
15200.0
0
LINE
8
ZJ8_TRUSS_LOWER
10
102870.0
20
-2875.0
30
15200.0
11
104820.0
21
-2875.0
31
15200.0
0
LINE
8
ZJ8_TRUSS_LOWER
10
104820.0
20
-2875.0
30
15200.0
11
106770.0
21
-2875.0
31
15200.0
0
LINE
8
ZJ8_TRUSS_LOWER
10
106770.0
20
-2875.0
30
15200.0
11
108720.0
21
-2875.0
31
15200.0
0
LINE
8
ZJ8_TRUSS_LOWER
10
108720.0
20
-2875.0
30
15200.0
11
110670.0
21
-2875.0
31
15200.0
0
LINE
8
ZJ8_TRUSS_LOWER
10
110670.0
20
-2875.0
30
15200.0
11
112620.0
21
-2875.0
31
15200.0
0
LINE
8
ZJ8_TRUSS_LOWER
10
112620.0
20
-2875.0
30
15200.0
11
114570.0
21
-2875.0
31
15200.0
0
LINE
8
ZJ8_TRUSS_LOWER
10
114570.0
20
-2875.0
30
15200.0
11
116520.0
21
-2875.0
31
15200.0
0
LINE
8
ZJ8_TRUSS_VERTICAL
10
85320.0
20
-2875.0
30
17000.0
11
85320.0
21
-2875.0
31
15200.0
0
LINE
8
ZJ8_TRUSS_VERTICAL
10
87270.0
20
-2875.0
30
17000.0
11
87270.0
21
-2875.0
31
15200.0
0
LINE
8
ZJ8_TRUSS_VERTICAL
10
89220.0
20
-2875.0
30
17000.0
11
89220.0
21
-2875.0
31
15200.0
0
LINE
8
ZJ8_TRUSS_VERTICAL
10
91170.0
20
-2875.0
30
17000.0
11
91170.0
21
-2875.0
31
15200.0
0
LINE
8
ZJ8_TRUSS_VERTICAL
10
93120.0
20
-2875.0
30
17000.0
11
93120.0
21
-2875.0
31
15200.0
0
LINE
8
ZJ8_TRUSS_VERTICAL
10
95070.0
20
-2875.0
30
17000.0
11
95070.0
21
-2875.0
31
15200.0
0
LINE
8
ZJ8_TRUSS_VERTICAL
10
97020.0
20
-2875.0
30
17000.0
11
97020.0
21
-2875.0
31
15200.0
0
LINE
8
ZJ8_TRUSS_VERTICAL
10
98970.0
20
-2875.0
30
17000.0
11
98970.0
21
-2875.0
31
15200.0
0
LINE
8
ZJ8_TRUSS_VERTICAL
10
100920.0
20
-2875.0
30
17000.0
11
100920.0
21
-2875.0
31
15200.0
0
LINE
8
ZJ8_TRUSS_VERTICAL
10
102870.0
20
-2875.0
30
17000.0
11
102870.0
21
-2875.0
31
15200.0
0
LINE
8
ZJ8_TRUSS_VERTICAL
10
104820.0
20
-2875.0
30
17000.0
11
104820.0
21
-2875.0
31
15200.0
0
LINE
8
ZJ8_TRUSS_VERTICAL
10
106770.0
20
-2875.0
30
17000.0
11
106770.0
21
-2875.0
31
15200.0
0
LINE
8
ZJ8_TRUSS_VERTICAL
10
108720.0
20
-2875.0
30
17000.0
11
108720.0
21
-2875.0
31
15200.0
0
LINE
8
ZJ8_TRUSS_VERTICAL
10
110670.0
20
-2875.0
30
17000.0
11
110670.0
21
-2875.0
31
15200.0
0
LINE
8
ZJ8_TRUSS_VERTICAL
10
112620.0
20
-2875.0
30
17000.0
11
112620.0
21
-2875.0
31
15200.0
0
LINE
8
ZJ8_TRUSS_VERTICAL
10
114570.0
20
-2875.0
30
17000.0
11
114570.0
21
-2875.0
31
15200.0
0
LINE
8
ZJ8_TRUSS_VERTICAL
10
116520.0
20
-2875.0
30
17000.0
11
116520.0
21
-2875.0
31
15200.0
0
LINE
8
ZJ8_TRUSS_DIAGONAL
10
83370.0
20
-2875.0
30
17000.0
11
85320.0
21
-2875.0
31
15200.0
0
LINE
8
ZJ8_TRUSS_DIAGONAL
10
85320.0
20
-2875.0
30
15200.0
11
87270.0
21
-2875.0
31
17000.0
0
LINE
8
ZJ8_TRUSS_DIAGONAL
10
87270.0
20
-2875.0
30
17000.0
11
89220.0
21
-2875.0
31
15200.0
0
LINE
8
ZJ8_TRUSS_DIAGONAL
10
89220.0
20
-2875.0
30
15200.0
11
91170.0
21
-2875.0
31
17000.0
0
LINE
8
ZJ8_TRUSS_DIAGONAL
10
91170.0
20
-2875.0
30
17000.0
11
93120.0
21
-2875.0
31
15200.0
0
LINE
8
ZJ8_TRUSS_DIAGONAL
10
93120.0
20
-2875.0
30
15200.0
11
95070.0
21
-2875.0
31
17000.0
0
LINE
8
ZJ8_TRUSS_DIAGONAL
10
95070.0
20
-2875.0
30
17000.0
11
97020.0
21
-2875.0
31
15200.0
0
LINE
8
ZJ8_TRUSS_DIAGONAL
10
97020.0
20
-2875.0
30
15200.0
11
98970.0
21
-2875.0
31
17000.0
0
LINE
8
ZJ8_TRUSS_DIAGONAL
10
98970.0
20
-2875.0
30
17000.0
11
100920.0
21
-2875.0
31
15200.0
0
LINE
8
ZJ8_TRUSS_DIAGONAL
10
100920.0
20
-2875.0
30
15200.0
11
102870.0
21
-2875.0
31
17000.0
0
LINE
8
ZJ8_TRUSS_DIAGONAL
10
102870.0
20
-2875.0
30
17000.0
11
104820.0
21
-2875.0
31
15200.0
0
LINE
8
ZJ8_TRUSS_DIAGONAL
10
104820.0
20
-2875.0
30
15200.0
11
106770.0
21
-2875.0
31
17000.0
0
LINE
8
ZJ8_TRUSS_DIAGONAL
10
106770.0
20
-2875.0
30
17000.0
11
108720.0
21
-2875.0
31
15200.0
0
LINE
8
ZJ8_TRUSS_DIAGONAL
10
108720.0
20
-2875.0
30
15200.0
11
110670.0
21
-2875.0
31
17000.0
0
LINE
8
ZJ8_TRUSS_DIAGONAL
10
110670.0
20
-2875.0
30
17000.0
11
112620.0
21
-2875.0
31
15200.0
0
LINE
8
ZJ8_TRUSS_DIAGONAL
10
112620.0
20
-2875.0
30
15200.0
11
114570.0
21
-2875.0
31
17000.0
0
LINE
8
ZJ8_TRUSS_DIAGONAL
10
114570.0
20
-2875.0
30
17000.0
11
116520.0
21
-2875.0
31
15200.0
0
LINE
8
ZJ8_TRUSS_UPPER
10
83370.0
20
2875.0
30
17000.0
11
85320.0
21
2875.0
31
17000.0
0
LINE
8
ZJ8_TRUSS_UPPER
10
85320.0
20
2875.0
30
17000.0
11
87270.0
21
2875.0
31
17000.0
0
LINE
8
ZJ8_TRUSS_UPPER
10
87270.0
20
2875.0
30
17000.0
11
89220.0
21
2875.0
31
17000.0
0
LINE
8
ZJ8_TRUSS_UPPER
10
89220.0
20
2875.0
30
17000.0
11
91170.0
21
2875.0
31
17000.0
0
LINE
8
ZJ8_TRUSS_UPPER
10
91170.0
20
2875.0
30
17000.0
11
93120.0
21
2875.0
31
17000.0
0
LINE
8
ZJ8_TRUSS_UPPER
10
93120.0
20
2875.0
30
17000.0
11
95070.0
21
2875.0
31
17000.0
0
LINE
8
ZJ8_TRUSS_UPPER
10
95070.0
20
2875.0
30
17000.0
11
97020.0
21
2875.0
31
17000.0
0
LINE
8
ZJ8_TRUSS_UPPER
10
97020.0
20
2875.0
30
17000.0
11
98970.0
21
2875.0
31
17000.0
0
LINE
8
ZJ8_TRUSS_UPPER
10
98970.0
20
2875.0
30
17000.0
11
100920.0
21
2875.0
31
17000.0
0
LINE
8
ZJ8_TRUSS_UPPER
10
100920.0
20
2875.0
30
17000.0
11
102870.0
21
2875.0
31
17000.0
0
LINE
8
ZJ8_TRUSS_UPPER
10
102870.0
20
2875.0
30
17000.0
11
104820.0
21
2875.0
31
17000.0
0
LINE
8
ZJ8_TRUSS_UPPER
10
104820.0
20
2875.0
30
17000.0
11
106770.0
21
2875.0
31
17000.0
0
LINE
8
ZJ8_TRUSS_UPPER
10
106770.0
20
2875.0
30
17000.0
11
108720.0
21
2875.0
31
17000.0
0
LINE
8
ZJ8_TRUSS_UPPER
10
108720.0
20
2875.0
30
17000.0
11
110670.0
21
2875.0
31
17000.0
0
LINE
8
ZJ8_TRUSS_UPPER
10
110670.0
20
2875.0
30
17000.0
11
112620.0
21
2875.0
31
17000.0
0
LINE
8
ZJ8_TRUSS_UPPER
10
112620.0
20
2875.0
30
17000.0
11
114570.0
21
2875.0
31
17000.0
0
LINE
8
ZJ8_TRUSS_UPPER
10
114570.0
20
2875.0
30
17000.0
11
116520.0
21
2875.0
31
17000.0
0
LINE
8
ZJ8_TRUSS_LOWER
10
83370.0
20
2875.0
30
15200.0
11
85320.0
21
2875.0
31
15200.0
0
LINE
8
ZJ8_TRUSS_LOWER
10
85320.0
20
2875.0
30
15200.0
11
87270.0
21
2875.0
31
15200.0
0
LINE
8
ZJ8_TRUSS_LOWER
10
87270.0
20
2875.0
30
15200.0
11
89220.0
21
2875.0
31
15200.0
0
LINE
8
ZJ8_TRUSS_LOWER
10
89220.0
20
2875.0
30
15200.0
11
91170.0
21
2875.0
31
15200.0
0
LINE
8
ZJ8_TRUSS_LOWER
10
91170.0
20
2875.0
30
15200.0
11
93120.0
21
2875.0
31
15200.0
0
LINE
8
ZJ8_TRUSS_LOWER
10
93120.0
20
2875.0
30
15200.0
11
95070.0
21
2875.0
31
15200.0
0
LINE
8
ZJ8_TRUSS_LOWER
10
95070.0
20
2875.0
30
15200.0
11
97020.0
21
2875.0
31
15200.0
0
LINE
8
ZJ8_TRUSS_LOWER
10
97020.0
20
2875.0
30
15200.0
11
98970.0
21
2875.0
31
15200.0
0
LINE
8
ZJ8_TRUSS_LOWER
10
98970.0
20
2875.0
30
15200.0
11
100920.0
21
2875.0
31
15200.0
0
LINE
8
ZJ8_TRUSS_LOWER
10
100920.0
20
2875.0
30
15200.0
11
102870.0
21
2875.0
31
15200.0
0
LINE
8
ZJ8_TRUSS_LOWER
10
102870.0
20
2875.0
30
15200.0
11
104820.0
21
2875.0
31
15200.0
0
LINE
8
ZJ8_TRUSS_LOWER
10
104820.0
20
2875.0
30
15200.0
11
106770.0
21
2875.0
31
15200.0
0
LINE
8
ZJ8_TRUSS_LOWER
10
106770.0
20
2875.0
30
15200.0
11
108720.0
21
2875.0
31
15200.0
0
LINE
8
ZJ8_TRUSS_LOWER
10
108720.0
20
2875.0
30
15200.0
11
110670.0
21
2875.0
31
15200.0
0
LINE
8
ZJ8_TRUSS_LOWER
10
110670.0
20
2875.0
30
15200.0
11
112620.0
21
2875.0
31
15200.0
0
LINE
8
ZJ8_TRUSS_LOWER
10
112620.0
20
2875.0
30
15200.0
11
114570.0
21
2875.0
31
15200.0
0
LINE
8
ZJ8_TRUSS_LOWER
10
114570.0
20
2875.0
30
15200.0
11
116520.0
21
2875.0
31
15200.0
0
LINE
8
ZJ8_TRUSS_VERTICAL
10
85320.0
20
2875.0
30
17000.0
11
85320.0
21
2875.0
31
15200.0
0
LINE
8
ZJ8_TRUSS_VERTICAL
10
87270.0
20
2875.0
30
17000.0
11
87270.0
21
2875.0
31
15200.0
0
LINE
8
ZJ8_TRUSS_VERTICAL
10
89220.0
20
2875.0
30
17000.0
11
89220.0
21
2875.0
31
15200.0
0
LINE
8
ZJ8_TRUSS_VERTICAL
10
91170.0
20
2875.0
30
17000.0
11
91170.0
21
2875.0
31
15200.0
0
LINE
8
ZJ8_TRUSS_VERTICAL
10
93120.0
20
2875.0
30
17000.0
11
93120.0
21
2875.0
31
15200.0
0
LINE
8
ZJ8_TRUSS_VERTICAL
10
95070.0
20
2875.0
30
17000.0
11
95070.0
21
2875.0
31
15200.0
0
LINE
8
ZJ8_TRUSS_VERTICAL
10
97020.0
20
2875.0
30
17000.0
11
97020.0
21
2875.0
31
15200.0
0
LINE
8
ZJ8_TRUSS_VERTICAL
10
98970.0
20
2875.0
30
17000.0
11
98970.0
21
2875.0
31
15200.0
0
LINE
8
ZJ8_TRUSS_VERTICAL
10
100920.0
20
2875.0
30
17000.0
11
100920.0
21
2875.0
31
15200.0
0
LINE
8
ZJ8_TRUSS_VERTICAL
10
102870.0
20
2875.0
30
17000.0
11
102870.0
21
2875.0
31
15200.0
0
LINE
8
ZJ8_TRUSS_VERTICAL
10
104820.0
20
2875.0
30
17000.0
11
104820.0
21
2875.0
31
15200.0
0
LINE
8
ZJ8_TRUSS_VERTICAL
10
106770.0
20
2875.0
30
17000.0
11
106770.0
21
2875.0
31
15200.0
0
LINE
8
ZJ8_TRUSS_VERTICAL
10
108720.0
20
2875.0
30
17000.0
11
108720.0
21
2875.0
31
15200.0
0
LINE
8
ZJ8_TRUSS_VERTICAL
10
110670.0
20
2875.0
30
17000.0
11
110670.0
21
2875.0
31
15200.0
0
LINE
8
ZJ8_TRUSS_VERTICAL
10
112620.0
20
2875.0
30
17000.0
11
112620.0
21
2875.0
31
15200.0
0
LINE
8
ZJ8_TRUSS_VERTICAL
10
114570.0
20
2875.0
30
17000.0
11
114570.0
21
2875.0
31
15200.0
0
LINE
8
ZJ8_TRUSS_VERTICAL
10
116520.0
20
2875.0
30
17000.0
11
116520.0
21
2875.0
31
15200.0
0
LINE
8
ZJ8_TRUSS_DIAGONAL
10
83370.0
20
2875.0
30
17000.0
11
85320.0
21
2875.0
31
15200.0
0
LINE
8
ZJ8_TRUSS_DIAGONAL
10
85320.0
20
2875.0
30
15200.0
11
87270.0
21
2875.0
31
17000.0
0
LINE
8
ZJ8_TRUSS_DIAGONAL
10
87270.0
20
2875.0
30
17000.0
11
89220.0
21
2875.0
31
15200.0
0
LINE
8
ZJ8_TRUSS_DIAGONAL
10
89220.0
20
2875.0
30
15200.0
11
91170.0
21
2875.0
31
17000.0
0
LINE
8
ZJ8_TRUSS_DIAGONAL
10
91170.0
20
2875.0
30
17000.0
11
93120.0
21
2875.0
31
15200.0
0
LINE
8
ZJ8_TRUSS_DIAGONAL
10
93120.0
20
2875.0
30
15200.0
11
95070.0
21
2875.0
31
17000.0
0
LINE
8
ZJ8_TRUSS_DIAGONAL
10
95070.0
20
2875.0
30
17000.0
11
97020.0
21
2875.0
31
15200.0
0
LINE
8
ZJ8_TRUSS_DIAGONAL
10
97020.0
20
2875.0
30
15200.0
11
98970.0
21
2875.0
31
17000.0
0
LINE
8
ZJ8_TRUSS_DIAGONAL
10
98970.0
20
2875.0
30
17000.0
11
100920.0
21
2875.0
31
15200.0
0
LINE
8
ZJ8_TRUSS_DIAGONAL
10
100920.0
20
2875.0
30
15200.0
11
102870.0
21
2875.0
31
17000.0
0
LINE
8
ZJ8_TRUSS_DIAGONAL
10
102870.0
20
2875.0
30
17000.0
11
104820.0
21
2875.0
31
15200.0
0
LINE
8
ZJ8_TRUSS_DIAGONAL
10
104820.0
20
2875.0
30
15200.0
11
106770.0
21
2875.0
31
17000.0
0
LINE
8
ZJ8_TRUSS_DIAGONAL
10
106770.0
20
2875.0
30
17000.0
11
108720.0
21
2875.0
31
15200.0
0
LINE
8
ZJ8_TRUSS_DIAGONAL
10
108720.0
20
2875.0
30
15200.0
11
110670.0
21
2875.0
31
17000.0
0
LINE
8
ZJ8_TRUSS_DIAGONAL
10
110670.0
20
2875.0
30
17000.0
11
112620.0
21
2875.0
31
15200.0
0
LINE
8
ZJ8_TRUSS_DIAGONAL
10
112620.0
20
2875.0
30
15200.0
11
114570.0
21
2875.0
31
17000.0
0
LINE
8
ZJ8_TRUSS_DIAGONAL
10
114570.0
20
2875.0
30
17000.0
11
116520.0
21
2875.0
31
15200.0
0
LINE
8
ZJ8_DECK_MAIN
10
116520.0
20
-2875.0
30
17000.0
11
119520.0
21
-2875.0
31
17000.0
0
LINE
8
ZJ8_DECK_MAIN
10
116520.0
20
2875.0
30
17000.0
11
119520.0
21
2875.0
31
17000.0
0
LINE
8
ZJ8_DECK_SECONDARY
10
116520.0
20
-1075.0
30
17000.0
11
119520.0
21
-1075.0
31
17000.0
0
LINE
8
ZJ8_DECK_SECONDARY
10
116520.0
20
1075.0
30
17000.0
11
119520.0
21
1075.0
31
17000.0
0
LINE
8
ZJ8_CANTILEVER_EDGE
10
116520.0
20
-2200.0
30
17000.0
11
119520.0
21
-2200.0
31
17000.0
0
LINE
8
ZJ8_CANTILEVER_EDGE
10
116520.0
20
2700.0
30
17000.0
11
119520.0
21
2700.0
31
17000.0
0
LINE
8
ZJ8_PLATFORM_BRACE
10
116520.0
20
-2875.0
30
17000.0
11
119520.0
21
2875.0
31
17000.0
0
LINE
8
ZJ8_LONGITUDINAL_BRACE
10
116520.0
20
-2875.0
30
0.0
11
119520.0
21
-2875.0
31
17000.0
0
LINE
8
ZJ8_LONGITUDINAL_BRACE
10
116520.0
20
2875.0
30
0.0
11
119520.0
21
2875.0
31
17000.0
0
ENDSEC
0
EOF
