0
SECTION
2
HEADER
9
$INSUNITS
70
4
0
ENDSEC
0
SECTION
2
TABLES
0
TABLE
2
LAYER
70
12
0
LAYER
2
ZJ8_DECK_MAIN
70
0
62
4
6
CONTINUOUS
0
LAYER
2
ZJ8_DECK_CROSS
70
0
62
4
6
CONTINUOUS
0
LAYER
2
ZJ8_DECK_SECONDARY
70
0
62
3
6
CONTINUOUS
0
LAYER
2
ZJ8_CANTILEVER_EDGE
70
0
62
3
6
CONTINUOUS
0
LAYER
2
ZJ8_PLATFORM_BRACE
70
0
62
1
6
CONTINUOUS
0
LAYER
2
ZJ8_COLUMN
70
0
62
8
6
CONTINUOUS
0
LAYER
2
ZJ8_TRANSVERSE_BRACE
70
0
62
1
6
CONTINUOUS
0
LAYER
2
ZJ8_LONGITUDINAL_BRACE
70
0
62
1
6
CONTINUOUS
0
LAYER
2
ZJ8_TRUSS_UPPER
70
0
62
5
6
CONTINUOUS
0
LAYER
2
ZJ8_TRUSS_LOWER
70
0
62
5
6
CONTINUOUS
0
LAYER
2
ZJ8_TRUSS_VERTICAL
70
0
62
5
6
CONTINUOUS
0
LAYER
2
ZJ8_TRUSS_DIAGONAL
70
0
62
5
6
CONTINUOUS
0
ENDTAB
0
ENDSEC
0
SECTION
2
ENTITIES
0
LINE
8
ZJ8_COLUMN
10
116520.0
20
-2875.0
30
0.0
11
116520.0
21
-2875.0
31
4703.266649
0
LINE
8
ZJ8_COLUMN
10
116520.0
20
-2875.0
30
4703.266649
11
116520.0
21
-2875.0
31
9406.533299
0
LINE
8
ZJ8_COLUMN
10
116520.0
20
-2875.0
30
9406.533299
11
116520.0
21
-2875.0
31
14109.799948
0
LINE
8
ZJ8_COLUMN
10
116520.0
20
-2875.0
30
14109.799948
11
116520.0
21
-2875.0
31
18813.066597
0
LINE
8
ZJ8_COLUMN
10
116520.0
20
-2875.0
30
18813.066597
11
116520.0
21
-2875.0
31
23516.333247
0
LINE
8
ZJ8_COLUMN
10
116520.0
20
-2875.0
30
23516.333247
11
116520.0
21
-2875.0
31
28219.599896
0
LINE
8
ZJ8_COLUMN
10
116520.0
20
2875.0
30
0.0
11
116520.0
21
2875.0
31
4703.266649
0
LINE
8
ZJ8_COLUMN
10
116520.0
20
2875.0
30
4703.266649
11
116520.0
21
2875.0
31
9406.533299
0
LINE
8
ZJ8_COLUMN
10
116520.0
20
2875.0
30
9406.533299
11
116520.0
21
2875.0
31
14109.799948
0
LINE
8
ZJ8_COLUMN
10
116520.0
20
2875.0
30
14109.799948
11
116520.0
21
2875.0
31
18813.066597
0
LINE
8
ZJ8_COLUMN
10
116520.0
20
2875.0
30
18813.066597
11
116520.0
21
2875.0
31
23516.333247
0
LINE
8
ZJ8_COLUMN
10
116520.0
20
2875.0
30
23516.333247
11
116520.0
21
2875.0
31
28219.599896
0
LINE
8
ZJ8_DECK_CROSS
10
116520.0
20
-2200.0
30
28219.599896
11
116520.0
21
2700.0
31
28219.599896
0
LINE
8
ZJ8_TRANSVERSE_BRACE
10
116520.0
20
-2875.0
30
0.0
11
116520.0
21
2875.0
31
28219.599896
0
LINE
8
ZJ8_TRANSVERSE_BRACE
10
116520.0
20
2875.0
30
0.0
11
116520.0
21
-2875.0
31
28219.599896
0
LINE
8
ZJ8_COLUMN
10
119520.0
20
-2875.0
30
0.0
11
119520.0
21
-2875.0
31
4751.411173
0
LINE
8
ZJ8_COLUMN
10
119520.0
20
-2875.0
30
4751.411173
11
119520.0
21
-2875.0
31
9502.822347
0
LINE
8
ZJ8_COLUMN
10
119520.0
20
-2875.0
30
9502.822347
11
119520.0
21
-2875.0
31
14254.23352
0
LINE
8
ZJ8_COLUMN
10
119520.0
20
-2875.0
30
14254.23352
11
119520.0
21
-2875.0
31
19005.644694
0
LINE
8
ZJ8_COLUMN
10
119520.0
20
-2875.0
30
19005.644694
11
119520.0
21
-2875.0
31
23757.055867
0
LINE
8
ZJ8_COLUMN
10
119520.0
20
-2875.0
30
23757.055867
11
119520.0
21
-2875.0
31
28508.467041
0
LINE
8
ZJ8_COLUMN
10
119520.0
20
2875.0
30
0.0
11
119520.0
21
2875.0
31
4751.411173
0
LINE
8
ZJ8_COLUMN
10
119520.0
20
2875.0
30
4751.411173
11
119520.0
21
2875.0
31
9502.822347
0
LINE
8
ZJ8_COLUMN
10
119520.0
20
2875.0
30
9502.822347
11
119520.0
21
2875.0
31
14254.23352
0
LINE
8
ZJ8_COLUMN
10
119520.0
20
2875.0
30
14254.23352
11
119520.0
21
2875.0
31
19005.644694
0
LINE
8
ZJ8_COLUMN
10
119520.0
20
2875.0
30
19005.644694
11
119520.0
21
2875.0
31
23757.055867
0
LINE
8
ZJ8_COLUMN
10
119520.0
20
2875.0
30
23757.055867
11
119520.0
21
2875.0
31
28508.467041
0
LINE
8
ZJ8_DECK_CROSS
10
119520.0
20
-2200.0
30
28508.467041
11
119520.0
21
2700.0
31
28508.467041
0
LINE
8
ZJ8_TRANSVERSE_BRACE
10
119520.0
20
-2875.0
30
0.0
11
119520.0
21
2875.0
31
28508.467041
0
LINE
8
ZJ8_TRANSVERSE_BRACE
10
119520.0
20
2875.0
30
0.0
11
119520.0
21
-2875.0
31
28508.467041
0
LINE
8
ZJ8_DECK_MAIN
10
89520.0
20
-2875.0
30
25619.795595
11
92520.0
21
-2875.0
31
25908.662739
0
LINE
8
ZJ8_DECK_MAIN
10
92520.0
20
-2875.0
30
25908.662739
11
95520.0
21
-2875.0
31
26197.529884
0
LINE
8
ZJ8_DECK_MAIN
10
95520.0
20
-2875.0
30
26197.529884
11
98520.0
21
-2875.0
31
26486.397028
0
LINE
8
ZJ8_DECK_MAIN
10
98520.0
20
-2875.0
30
26486.397028
11
101520.0
21
-2875.0
31
26775.264173
0
LINE
8
ZJ8_DECK_MAIN
10
101520.0
20
-2875.0
30
26775.264173
11
104520.0
21
-2875.0
31
27064.131318
0
LINE
8
ZJ8_DECK_MAIN
10
104520.0
20
-2875.0
30
27064.131318
11
107520.0
21
-2875.0
31
27352.998462
0
LINE
8
ZJ8_DECK_MAIN
10
107520.0
20
-2875.0
30
27352.998462
11
110520.0
21
-2875.0
31
27641.865607
0
LINE
8
ZJ8_DECK_MAIN
10
110520.0
20
-2875.0
30
27641.865607
11
113520.0
21
-2875.0
31
27930.732751
0
LINE
8
ZJ8_DECK_MAIN
10
113520.0
20
-2875.0
30
27930.732751
11
116520.0
21
-2875.0
31
28219.599896
0
LINE
8
ZJ8_DECK_MAIN
10
89520.0
20
2875.0
30
25619.795595
11
92520.0
21
2875.0
31
25908.662739
0
LINE
8
ZJ8_DECK_MAIN
10
92520.0
20
2875.0
30
25908.662739
11
95520.0
21
2875.0
31
26197.529884
0
LINE
8
ZJ8_DECK_MAIN
10
95520.0
20
2875.0
30
26197.529884
11
98520.0
21
2875.0
31
26486.397028
0
LINE
8
ZJ8_DECK_MAIN
10
98520.0
20
2875.0
30
26486.397028
11
101520.0
21
2875.0
31
26775.264173
0
LINE
8
ZJ8_DECK_MAIN
10
101520.0
20
2875.0
30
26775.264173
11
104520.0
21
2875.0
31
27064.131318
0
LINE
8
ZJ8_DECK_MAIN
10
104520.0
20
2875.0
30
27064.131318
11
107520.0
21
2875.0
31
27352.998462
0
LINE
8
ZJ8_DECK_MAIN
10
107520.0
20
2875.0
30
27352.998462
11
110520.0
21
2875.0
31
27641.865607
0
LINE
8
ZJ8_DECK_MAIN
10
110520.0
20
2875.0
30
27641.865607
11
113520.0
21
2875.0
31
27930.732751
0
LINE
8
ZJ8_DECK_MAIN
10
113520.0
20
2875.0
30
27930.732751
11
116520.0
21
2875.0
31
28219.599896
0
LINE
8
ZJ8_DECK_CROSS
10
92520.0
20
-2200.0
30
25908.662739
11
92520.0
21
2700.0
31
25908.662739
0
LINE
8
ZJ8_DECK_CROSS
10
95520.0
20
-2200.0
30
26197.529884
11
95520.0
21
2700.0
31
26197.529884
0
LINE
8
ZJ8_DECK_CROSS
10
98520.0
20
-2200.0
30
26486.397028
11
98520.0
21
2700.0
31
26486.397028
0
LINE
8
ZJ8_DECK_CROSS
10
101520.0
20
-2200.0
30
26775.264173
11
101520.0
21
2700.0
31
26775.264173
0
LINE
8
ZJ8_DECK_CROSS
10
104520.0
20
-2200.0
30
27064.131318
11
104520.0
21
2700.0
31
27064.131318
0
LINE
8
ZJ8_DECK_CROSS
10
107520.0
20
-2200.0
30
27352.998462
11
107520.0
21
2700.0
31
27352.998462
0
LINE
8
ZJ8_DECK_CROSS
10
110520.0
20
-2200.0
30
27641.865607
11
110520.0
21
2700.0
31
27641.865607
0
LINE
8
ZJ8_DECK_CROSS
10
113520.0
20
-2200.0
30
27930.732751
11
113520.0
21
2700.0
31
27930.732751
0
LINE
8
ZJ8_DECK_SECONDARY
10
89520.0
20
-1075.0
30
25619.795595
11
92520.0
21
-1075.0
31
25908.662739
0
LINE
8
ZJ8_DECK_SECONDARY
10
92520.0
20
-1075.0
30
25908.662739
11
95520.0
21
-1075.0
31
26197.529884
0
LINE
8
ZJ8_DECK_SECONDARY
10
95520.0
20
-1075.0
30
26197.529884
11
98520.0
21
-1075.0
31
26486.397028
0
LINE
8
ZJ8_DECK_SECONDARY
10
98520.0
20
-1075.0
30
26486.397028
11
101520.0
21
-1075.0
31
26775.264173
0
LINE
8
ZJ8_DECK_SECONDARY
10
101520.0
20
-1075.0
30
26775.264173
11
104520.0
21
-1075.0
31
27064.131318
0
LINE
8
ZJ8_DECK_SECONDARY
10
104520.0
20
-1075.0
30
27064.131318
11
107520.0
21
-1075.0
31
27352.998462
0
LINE
8
ZJ8_DECK_SECONDARY
10
107520.0
20
-1075.0
30
27352.998462
11
110520.0
21
-1075.0
31
27641.865607
0
LINE
8
ZJ8_DECK_SECONDARY
10
110520.0
20
-1075.0
30
27641.865607
11
113520.0
21
-1075.0
31
27930.732751
0
LINE
8
ZJ8_DECK_SECONDARY
10
113520.0
20
-1075.0
30
27930.732751
11
116520.0
21
-1075.0
31
28219.599896
0
LINE
8
ZJ8_DECK_SECONDARY
10
89520.0
20
1075.0
30
25619.795595
11
92520.0
21
1075.0
31
25908.662739
0
LINE
8
ZJ8_DECK_SECONDARY
10
92520.0
20
1075.0
30
25908.662739
11
95520.0
21
1075.0
31
26197.529884
0
LINE
8
ZJ8_DECK_SECONDARY
10
95520.0
20
1075.0
30
26197.529884
11
98520.0
21
1075.0
31
26486.397028
0
LINE
8
ZJ8_DECK_SECONDARY
10
98520.0
20
1075.0
30
26486.397028
11
101520.0
21
1075.0
31
26775.264173
0
LINE
8
ZJ8_DECK_SECONDARY
10
101520.0
20
1075.0
30
26775.264173
11
104520.0
21
1075.0
31
27064.131318
0
LINE
8
ZJ8_DECK_SECONDARY
10
104520.0
20
1075.0
30
27064.131318
11
107520.0
21
1075.0
31
27352.998462
0
LINE
8
ZJ8_DECK_SECONDARY
10
107520.0
20
1075.0
30
27352.998462
11
110520.0
21
1075.0
31
27641.865607
0
LINE
8
ZJ8_DECK_SECONDARY
10
110520.0
20
1075.0
30
27641.865607
11
113520.0
21
1075.0
31
27930.732751
0
LINE
8
ZJ8_DECK_SECONDARY
10
113520.0
20
1075.0
30
27930.732751
11
116520.0
21
1075.0
31
28219.599896
0
LINE
8
ZJ8_CANTILEVER_EDGE
10
89520.0
20
-2200.0
30
25619.795595
11
92520.0
21
-2200.0
31
25908.662739
0
LINE
8
ZJ8_CANTILEVER_EDGE
10
92520.0
20
-2200.0
30
25908.662739
11
95520.0
21
-2200.0
31
26197.529884
0
LINE
8
ZJ8_CANTILEVER_EDGE
10
95520.0
20
-2200.0
30
26197.529884
11
98520.0
21
-2200.0
31
26486.397028
0
LINE
8
ZJ8_CANTILEVER_EDGE
10
98520.0
20
-2200.0
30
26486.397028
11
101520.0
21
-2200.0
31
26775.264173
0
LINE
8
ZJ8_CANTILEVER_EDGE
10
101520.0
20
-2200.0
30
26775.264173
11
104520.0
21
-2200.0
31
27064.131318
0
LINE
8
ZJ8_CANTILEVER_EDGE
10
104520.0
20
-2200.0
30
27064.131318
11
107520.0
21
-2200.0
31
27352.998462
0
LINE
8
ZJ8_CANTILEVER_EDGE
10
107520.0
20
-2200.0
30
27352.998462
11
110520.0
21
-2200.0
31
27641.865607
0
LINE
8
ZJ8_CANTILEVER_EDGE
10
110520.0
20
-2200.0
30
27641.865607
11
113520.0
21
-2200.0
31
27930.732751
0
LINE
8
ZJ8_CANTILEVER_EDGE
10
113520.0
20
-2200.0
30
27930.732751
11
116520.0
21
-2200.0
31
28219.599896
0
LINE
8
ZJ8_CANTILEVER_EDGE
10
89520.0
20
2700.0
30
25619.795595
11
92520.0
21
2700.0
31
25908.662739
0
LINE
8
ZJ8_CANTILEVER_EDGE
10
92520.0
20
2700.0
30
25908.662739
11
95520.0
21
2700.0
31
26197.529884
0
LINE
8
ZJ8_CANTILEVER_EDGE
10
95520.0
20
2700.0
30
26197.529884
11
98520.0
21
2700.0
31
26486.397028
0
LINE
8
ZJ8_CANTILEVER_EDGE
10
98520.0
20
2700.0
30
26486.397028
11
101520.0
21
2700.0
31
26775.264173
0
LINE
8
ZJ8_CANTILEVER_EDGE
10
101520.0
20
2700.0
30
26775.264173
11
104520.0
21
2700.0
31
27064.131318
0
LINE
8
ZJ8_CANTILEVER_EDGE
10
104520.0
20
2700.0
30
27064.131318
11
107520.0
21
2700.0
31
27352.998462
0
LINE
8
ZJ8_CANTILEVER_EDGE
10
107520.0
20
2700.0
30
27352.998462
11
110520.0
21
2700.0
31
27641.865607
0
LINE
8
ZJ8_CANTILEVER_EDGE
10
110520.0
20
2700.0
30
27641.865607
11
113520.0
21
2700.0
31
27930.732751
0
LINE
8
ZJ8_CANTILEVER_EDGE
10
113520.0
20
2700.0
30
27930.732751
11
116520.0
21
2700.0
31
28219.599896
0
LINE
8
ZJ8_PLATFORM_BRACE
10
89520.0
20
-2875.0
30
25619.795595
11
92520.0
21
2875.0
31
25908.662739
0
LINE
8
ZJ8_PLATFORM_BRACE
10
92520.0
20
2875.0
30
25908.662739
11
95520.0
21
-2875.0
31
26197.529884
0
LINE
8
ZJ8_PLATFORM_BRACE
10
95520.0
20
-2875.0
30
26197.529884
11
98520.0
21
2875.0
31
26486.397028
0
LINE
8
ZJ8_PLATFORM_BRACE
10
98520.0
20
2875.0
30
26486.397028
11
101520.0
21
-2875.0
31
26775.264173
0
LINE
8
ZJ8_PLATFORM_BRACE
10
101520.0
20
-2875.0
30
26775.264173
11
104520.0
21
2875.0
31
27064.131318
0
LINE
8
ZJ8_PLATFORM_BRACE
10
104520.0
20
2875.0
30
27064.131318
11
107520.0
21
-2875.0
31
27352.998462
0
LINE
8
ZJ8_PLATFORM_BRACE
10
107520.0
20
-2875.0
30
27352.998462
11
110520.0
21
2875.0
31
27641.865607
0
LINE
8
ZJ8_PLATFORM_BRACE
10
110520.0
20
2875.0
30
27641.865607
11
113520.0
21
-2875.0
31
27930.732751
0
LINE
8
ZJ8_PLATFORM_BRACE
10
113520.0
20
-2875.0
30
27930.732751
11
116520.0
21
2875.0
31
28219.599896
0
LINE
8
ZJ8_TRUSS_UPPER
10
89220.0
20
-2875.0
30
25590.90888
11
91170.0
21
-2875.0
31
25778.672524
0
LINE
8
ZJ8_TRUSS_UPPER
10
91170.0
20
-2875.0
30
25778.672524
11
93120.0
21
-2875.0
31
25966.436168
0
LINE
8
ZJ8_TRUSS_UPPER
10
93120.0
20
-2875.0
30
25966.436168
11
95070.0
21
-2875.0
31
26154.199812
0
LINE
8
ZJ8_TRUSS_UPPER
10
95070.0
20
-2875.0
30
26154.199812
11
97020.0
21
-2875.0
31
26341.963456
0
LINE
8
ZJ8_TRUSS_UPPER
10
97020.0
20
-2875.0
30
26341.963456
11
98970.0
21
-2875.0
31
26529.7271
0
LINE
8
ZJ8_TRUSS_UPPER
10
98970.0
20
-2875.0
30
26529.7271
11
100920.0
21
-2875.0
31
26717.490744
0
LINE
8
ZJ8_TRUSS_UPPER
10
100920.0
20
-2875.0
30
26717.490744
11
102870.0
21
-2875.0
31
26905.254388
0
LINE
8
ZJ8_TRUSS_UPPER
10
102870.0
20
-2875.0
30
26905.254388
11
104820.0
21
-2875.0
31
27093.018032
0
LINE
8
ZJ8_TRUSS_UPPER
10
104820.0
20
-2875.0
30
27093.018032
11
106770.0
21
-2875.0
31
27280.781676
0
LINE
8
ZJ8_TRUSS_UPPER
10
106770.0
20
-2875.0
30
27280.781676
11
108720.0
21
-2875.0
31
27468.54532
0
LINE
8
ZJ8_TRUSS_UPPER
10
108720.0
20
-2875.0
30
27468.54532
11
110670.0
21
-2875.0
31
27656.308964
0
LINE
8
ZJ8_TRUSS_UPPER
10
110670.0
20
-2875.0
30
27656.308964
11
112620.0
21
-2875.0
31
27844.072608
0
LINE
8
ZJ8_TRUSS_UPPER
10
112620.0
20
-2875.0
30
27844.072608
11
114570.0
21
-2875.0
31
28031.836252
0
LINE
8
ZJ8_TRUSS_UPPER
10
114570.0
20
-2875.0
30
28031.836252
11
116520.0
21
-2875.0
31
28219.599896
0
LINE
8
ZJ8_TRUSS_LOWER
10
89220.0
20
-2875.0
30
23790.90888
11
91170.0
21
-2875.0
31
23978.672524
0
LINE
8
ZJ8_TRUSS_LOWER
10
91170.0
20
-2875.0
30
23978.672524
11
93120.0
21
-2875.0
31
24166.436168
0
LINE
8
ZJ8_TRUSS_LOWER
10
93120.0
20
-2875.0
30
24166.436168
11
95070.0
21
-2875.0
31
24354.199812
0
LINE
8
ZJ8_TRUSS_LOWER
10
95070.0
20
-2875.0
30
24354.199812
11
97020.0
21
-2875.0
31
24541.963456
0
LINE
8
ZJ8_TRUSS_LOWER
10
97020.0
20
-2875.0
30
24541.963456
11
98970.0
21
-2875.0
31
24729.7271
0
LINE
8
ZJ8_TRUSS_LOWER
10
98970.0
20
-2875.0
30
24729.7271
11
100920.0
21
-2875.0
31
24917.490744
0
LINE
8
ZJ8_TRUSS_LOWER
10
100920.0
20
-2875.0
30
24917.490744
11
102870.0
21
-2875.0
31
25105.254388
0
LINE
8
ZJ8_TRUSS_LOWER
10
102870.0
20
-2875.0
30
25105.254388
11
104820.0
21
-2875.0
31
25293.018032
0
LINE
8
ZJ8_TRUSS_LOWER
10
104820.0
20
-2875.0
30
25293.018032
11
106770.0
21
-2875.0
31
25480.781676
0
LINE
8
ZJ8_TRUSS_LOWER
10
106770.0
20
-2875.0
30
25480.781676
11
108720.0
21
-2875.0
31
25668.54532
0
LINE
8
ZJ8_TRUSS_LOWER
10
108720.0
20
-2875.0
30
25668.54532
11
110670.0
21
-2875.0
31
25856.308964
0
LINE
8
ZJ8_TRUSS_LOWER
10
110670.0
20
-2875.0
30
25856.308964
11
112620.0
21
-2875.0
31
26044.072608
0
LINE
8
ZJ8_TRUSS_LOWER
10
112620.0
20
-2875.0
30
26044.072608
11
114570.0
21
-2875.0
31
26231.836252
0
LINE
8
ZJ8_TRUSS_LOWER
10
114570.0
20
-2875.0
30
26231.836252
11
116520.0
21
-2875.0
31
26419.599896
0
LINE
8
ZJ8_TRUSS_VERTICAL
10
91170.0
20
-2875.0
30
25778.672524
11
91170.0
21
-2875.0
31
23978.672524
0
LINE
8
ZJ8_TRUSS_VERTICAL
10
93120.0
20
-2875.0
30
25966.436168
11
93120.0
21
-2875.0
31
24166.436168
0
LINE
8
ZJ8_TRUSS_VERTICAL
10
95070.0
20
-2875.0
30
26154.199812
11
95070.0
21
-2875.0
31
24354.199812
0
LINE
8
ZJ8_TRUSS_VERTICAL
10
97020.0
20
-2875.0
30
26341.963456
11
97020.0
21
-2875.0
31
24541.963456
0
LINE
8
ZJ8_TRUSS_VERTICAL
10
98970.0
20
-2875.0
30
26529.7271
11
98970.0
21
-2875.0
31
24729.7271
0
LINE
8
ZJ8_TRUSS_VERTICAL
10
100920.0
20
-2875.0
30
26717.490744
11
100920.0
21
-2875.0
31
24917.490744
0
LINE
8
ZJ8_TRUSS_VERTICAL
10
102870.0
20
-2875.0
30
26905.254388
11
102870.0
21
-2875.0
31
25105.254388
0
LINE
8
ZJ8_TRUSS_VERTICAL
10
104820.0
20
-2875.0
30
27093.018032
11
104820.0
21
-2875.0
31
25293.018032
0
LINE
8
ZJ8_TRUSS_VERTICAL
10
106770.0
20
-2875.0
30
27280.781676
11
106770.0
21
-2875.0
31
25480.781676
0
LINE
8
ZJ8_TRUSS_VERTICAL
10
108720.0
20
-2875.0
30
27468.54532
11
108720.0
21
-2875.0
31
25668.54532
0
LINE
8
ZJ8_TRUSS_VERTICAL
10
110670.0
20
-2875.0
30
27656.308964
11
110670.0
21
-2875.0
31
25856.308964
0
LINE
8
ZJ8_TRUSS_VERTICAL
10
112620.0
20
-2875.0
30
27844.072608
11
112620.0
21
-2875.0
31
26044.072608
0
LINE
8
ZJ8_TRUSS_VERTICAL
10
114570.0
20
-2875.0
30
28031.836252
11
114570.0
21
-2875.0
31
26231.836252
0
LINE
8
ZJ8_TRUSS_VERTICAL
10
116520.0
20
-2875.0
30
28219.599896
11
116520.0
21
-2875.0
31
26419.599896
0
LINE
8
ZJ8_TRUSS_DIAGONAL
10
89220.0
20
-2875.0
30
23790.90888
11
91170.0
21
-2875.0
31
25778.672524
0
LINE
8
ZJ8_TRUSS_DIAGONAL
10
91170.0
20
-2875.0
30
25778.672524
11
93120.0
21
-2875.0
31
24166.436168
0
LINE
8
ZJ8_TRUSS_DIAGONAL
10
93120.0
20
-2875.0
30
24166.436168
11
95070.0
21
-2875.0
31
26154.199812
0
LINE
8
ZJ8_TRUSS_DIAGONAL
10
95070.0
20
-2875.0
30
26154.199812
11
97020.0
21
-2875.0
31
24541.963456
0
LINE
8
ZJ8_TRUSS_DIAGONAL
10
97020.0
20
-2875.0
30
24541.963456
11
98970.0
21
-2875.0
31
26529.7271
0
LINE
8
ZJ8_TRUSS_DIAGONAL
10
98970.0
20
-2875.0
30
26529.7271
11
100920.0
21
-2875.0
31
24917.490744
0
LINE
8
ZJ8_TRUSS_DIAGONAL
10
100920.0
20
-2875.0
30
24917.490744
11
102870.0
21
-2875.0
31
26905.254388
0
LINE
8
ZJ8_TRUSS_DIAGONAL
10
102870.0
20
-2875.0
30
26905.254388
11
104820.0
21
-2875.0
31
25293.018032
0
LINE
8
ZJ8_TRUSS_DIAGONAL
10
104820.0
20
-2875.0
30
25293.018032
11
106770.0
21
-2875.0
31
27280.781676
0
LINE
8
ZJ8_TRUSS_DIAGONAL
10
106770.0
20
-2875.0
30
27280.781676
11
108720.0
21
-2875.0
31
25668.54532
0
LINE
8
ZJ8_TRUSS_DIAGONAL
10
108720.0
20
-2875.0
30
25668.54532
11
110670.0
21
-2875.0
31
27656.308964
0
LINE
8
ZJ8_TRUSS_DIAGONAL
10
110670.0
20
-2875.0
30
27656.308964
11
112620.0
21
-2875.0
31
26044.072608
0
LINE
8
ZJ8_TRUSS_DIAGONAL
10
112620.0
20
-2875.0
30
26044.072608
11
114570.0
21
-2875.0
31
28031.836252
0
LINE
8
ZJ8_TRUSS_DIAGONAL
10
114570.0
20
-2875.0
30
28031.836252
11
116520.0
21
-2875.0
31
26419.599896
0
LINE
8
ZJ8_TRUSS_UPPER
10
89220.0
20
2875.0
30
25590.90888
11
91170.0
21
2875.0
31
25778.672524
0
LINE
8
ZJ8_TRUSS_UPPER
10
91170.0
20
2875.0
30
25778.672524
11
93120.0
21
2875.0
31
25966.436168
0
LINE
8
ZJ8_TRUSS_UPPER
10
93120.0
20
2875.0
30
25966.436168
11
95070.0
21
2875.0
31
26154.199812
0
LINE
8
ZJ8_TRUSS_UPPER
10
95070.0
20
2875.0
30
26154.199812
11
97020.0
21
2875.0
31
26341.963456
0
LINE
8
ZJ8_TRUSS_UPPER
10
97020.0
20
2875.0
30
26341.963456
11
98970.0
21
2875.0
31
26529.7271
0
LINE
8
ZJ8_TRUSS_UPPER
10
98970.0
20
2875.0
30
26529.7271
11
100920.0
21
2875.0
31
26717.490744
0
LINE
8
ZJ8_TRUSS_UPPER
10
100920.0
20
2875.0
30
26717.490744
11
102870.0
21
2875.0
31
26905.254388
0
LINE
8
ZJ8_TRUSS_UPPER
10
102870.0
20
2875.0
30
26905.254388
11
104820.0
21
2875.0
31
27093.018032
0
LINE
8
ZJ8_TRUSS_UPPER
10
104820.0
20
2875.0
30
27093.018032
11
106770.0
21
2875.0
31
27280.781676
0
LINE
8
ZJ8_TRUSS_UPPER
10
106770.0
20
2875.0
30
27280.781676
11
108720.0
21
2875.0
31
27468.54532
0
LINE
8
ZJ8_TRUSS_UPPER
10
108720.0
20
2875.0
30
27468.54532
11
110670.0
21
2875.0
31
27656.308964
0
LINE
8
ZJ8_TRUSS_UPPER
10
110670.0
20
2875.0
30
27656.308964
11
112620.0
21
2875.0
31
27844.072608
0
LINE
8
ZJ8_TRUSS_UPPER
10
112620.0
20
2875.0
30
27844.072608
11
114570.0
21
2875.0
31
28031.836252
0
LINE
8
ZJ8_TRUSS_UPPER
10
114570.0
20
2875.0
30
28031.836252
11
116520.0
21
2875.0
31
28219.599896
0
LINE
8
ZJ8_TRUSS_LOWER
10
89220.0
20
2875.0
30
23790.90888
11
91170.0
21
2875.0
31
23978.672524
0
LINE
8
ZJ8_TRUSS_LOWER
10
91170.0
20
2875.0
30
23978.672524
11
93120.0
21
2875.0
31
24166.436168
0
LINE
8
ZJ8_TRUSS_LOWER
10
93120.0
20
2875.0
30
24166.436168
11
95070.0
21
2875.0
31
24354.199812
0
LINE
8
ZJ8_TRUSS_LOWER
10
95070.0
20
2875.0
30
24354.199812
11
97020.0
21
2875.0
31
24541.963456
0
LINE
8
ZJ8_TRUSS_LOWER
10
97020.0
20
2875.0
30
24541.963456
11
98970.0
21
2875.0
31
24729.7271
0
LINE
8
ZJ8_TRUSS_LOWER
10
98970.0
20
2875.0
30
24729.7271
11
100920.0
21
2875.0
31
24917.490744
0
LINE
8
ZJ8_TRUSS_LOWER
10
100920.0
20
2875.0
30
24917.490744
11
102870.0
21
2875.0
31
25105.254388
0
LINE
8
ZJ8_TRUSS_LOWER
10
102870.0
20
2875.0
30
25105.254388
11
104820.0
21
2875.0
31
25293.018032
0
LINE
8
ZJ8_TRUSS_LOWER
10
104820.0
20
2875.0
30
25293.018032
11
106770.0
21
2875.0
31
25480.781676
0
LINE
8
ZJ8_TRUSS_LOWER
10
106770.0
20
2875.0
30
25480.781676
11
108720.0
21
2875.0
31
25668.54532
0
LINE
8
ZJ8_TRUSS_LOWER
10
108720.0
20
2875.0
30
25668.54532
11
110670.0
21
2875.0
31
25856.308964
0
LINE
8
ZJ8_TRUSS_LOWER
10
110670.0
20
2875.0
30
25856.308964
11
112620.0
21
2875.0
31
26044.072608
0
LINE
8
ZJ8_TRUSS_LOWER
10
112620.0
20
2875.0
30
26044.072608
11
114570.0
21
2875.0
31
26231.836252
0
LINE
8
ZJ8_TRUSS_LOWER
10
114570.0
20
2875.0
30
26231.836252
11
116520.0
21
2875.0
31
26419.599896
0
LINE
8
ZJ8_TRUSS_VERTICAL
10
91170.0
20
2875.0
30
25778.672524
11
91170.0
21
2875.0
31
23978.672524
0
LINE
8
ZJ8_TRUSS_VERTICAL
10
93120.0
20
2875.0
30
25966.436168
11
93120.0
21
2875.0
31
24166.436168
0
LINE
8
ZJ8_TRUSS_VERTICAL
10
95070.0
20
2875.0
30
26154.199812
11
95070.0
21
2875.0
31
24354.199812
0
LINE
8
ZJ8_TRUSS_VERTICAL
10
97020.0
20
2875.0
30
26341.963456
11
97020.0
21
2875.0
31
24541.963456
0
LINE
8
ZJ8_TRUSS_VERTICAL
10
98970.0
20
2875.0
30
26529.7271
11
98970.0
21
2875.0
31
24729.7271
0
LINE
8
ZJ8_TRUSS_VERTICAL
10
100920.0
20
2875.0
30
26717.490744
11
100920.0
21
2875.0
31
24917.490744
0
LINE
8
ZJ8_TRUSS_VERTICAL
10
102870.0
20
2875.0
30
26905.254388
11
102870.0
21
2875.0
31
25105.254388
0
LINE
8
ZJ8_TRUSS_VERTICAL
10
104820.0
20
2875.0
30
27093.018032
11
104820.0
21
2875.0
31
25293.018032
0
LINE
8
ZJ8_TRUSS_VERTICAL
10
106770.0
20
2875.0
30
27280.781676
11
106770.0
21
2875.0
31
25480.781676
0
LINE
8
ZJ8_TRUSS_VERTICAL
10
108720.0
20
2875.0
30
27468.54532
11
108720.0
21
2875.0
31
25668.54532
0
LINE
8
ZJ8_TRUSS_VERTICAL
10
110670.0
20
2875.0
30
27656.308964
11
110670.0
21
2875.0
31
25856.308964
0
LINE
8
ZJ8_TRUSS_VERTICAL
10
112620.0
20
2875.0
30
27844.072608
11
112620.0
21
2875.0
31
26044.072608
0
LINE
8
ZJ8_TRUSS_VERTICAL
10
114570.0
20
2875.0
30
28031.836252
11
114570.0
21
2875.0
31
26231.836252
0
LINE
8
ZJ8_TRUSS_VERTICAL
10
116520.0
20
2875.0
30
28219.599896
11
116520.0
21
2875.0
31
26419.599896
0
LINE
8
ZJ8_TRUSS_DIAGONAL
10
89220.0
20
2875.0
30
23790.90888
11
91170.0
21
2875.0
31
25778.672524
0
LINE
8
ZJ8_TRUSS_DIAGONAL
10
91170.0
20
2875.0
30
25778.672524
11
93120.0
21
2875.0
31
24166.436168
0
LINE
8
ZJ8_TRUSS_DIAGONAL
10
93120.0
20
2875.0
30
24166.436168
11
95070.0
21
2875.0
31
26154.199812
0
LINE
8
ZJ8_TRUSS_DIAGONAL
10
95070.0
20
2875.0
30
26154.199812
11
97020.0
21
2875.0
31
24541.963456
0
LINE
8
ZJ8_TRUSS_DIAGONAL
10
97020.0
20
2875.0
30
24541.963456
11
98970.0
21
2875.0
31
26529.7271
0
LINE
8
ZJ8_TRUSS_DIAGONAL
10
98970.0
20
2875.0
30
26529.7271
11
100920.0
21
2875.0
31
24917.490744
0
LINE
8
ZJ8_TRUSS_DIAGONAL
10
100920.0
20
2875.0
30
24917.490744
11
102870.0
21
2875.0
31
26905.254388
0
LINE
8
ZJ8_TRUSS_DIAGONAL
10
102870.0
20
2875.0
30
26905.254388
11
104820.0
21
2875.0
31
25293.018032
0
LINE
8
ZJ8_TRUSS_DIAGONAL
10
104820.0
20
2875.0
30
25293.018032
11
106770.0
21
2875.0
31
27280.781676
0
LINE
8
ZJ8_TRUSS_DIAGONAL
10
106770.0
20
2875.0
30
27280.781676
11
108720.0
21
2875.0
31
25668.54532
0
LINE
8
ZJ8_TRUSS_DIAGONAL
10
108720.0
20
2875.0
30
25668.54532
11
110670.0
21
2875.0
31
27656.308964
0
LINE
8
ZJ8_TRUSS_DIAGONAL
10
110670.0
20
2875.0
30
27656.308964
11
112620.0
21
2875.0
31
26044.072608
0
LINE
8
ZJ8_TRUSS_DIAGONAL
10
112620.0
20
2875.0
30
26044.072608
11
114570.0
21
2875.0
31
28031.836252
0
LINE
8
ZJ8_TRUSS_DIAGONAL
10
114570.0
20
2875.0
30
28031.836252
11
116520.0
21
2875.0
31
26419.599896
0
LINE
8
ZJ8_DECK_MAIN
10
116520.0
20
-2875.0
30
28219.599896
11
119520.0
21
-2875.0
31
28508.467041
0
LINE
8
ZJ8_DECK_MAIN
10
116520.0
20
2875.0
30
28219.599896
11
119520.0
21
2875.0
31
28508.467041
0
LINE
8
ZJ8_DECK_SECONDARY
10
116520.0
20
-1075.0
30
28219.599896
11
119520.0
21
-1075.0
31
28508.467041
0
LINE
8
ZJ8_DECK_SECONDARY
10
116520.0
20
1075.0
30
28219.599896
11
119520.0
21
1075.0
31
28508.467041
0
LINE
8
ZJ8_CANTILEVER_EDGE
10
116520.0
20
-2200.0
30
28219.599896
11
119520.0
21
-2200.0
31
28508.467041
0
LINE
8
ZJ8_CANTILEVER_EDGE
10
116520.0
20
2700.0
30
28219.599896
11
119520.0
21
2700.0
31
28508.467041
0
LINE
8
ZJ8_PLATFORM_BRACE
10
116520.0
20
-2875.0
30
28219.599896
11
119520.0
21
2875.0
31
28508.467041
0
LINE
8
ZJ8_LONGITUDINAL_BRACE
10
116520.0
20
-2875.0
30
0.0
11
119520.0
21
-2875.0
31
28508.467041
0
LINE
8
ZJ8_LONGITUDINAL_BRACE
10
116520.0
20
2875.0
30
0.0
11
119520.0
21
2875.0
31
28508.467041
0
ENDSEC
0
EOF
